<?xml version="1.0" standalone="no"?>
<!DOCTYPE svg PUBLIC "-//W3C//DTD SVG 1.1//EN" "http://www.w3.org/Graphics/SVG/1.1/DTD/svg11.dtd" >
<svg xmlns="http://www.w3.org/2000/svg">
<metadata>
This is a custom SVG webfont generated by Font Squirrel.
Copyright   : Copyright 2003 2008 B Jackowski and J M Nowacki on behalf of TeX users groups This work is released under the GUST Font License   see httptugorgfontslicensesGUSTFONTLICENSEtxt for details
</metadata>
<defs>
<font id="webfontcsrDarAC" horiz-adv-x="1075" >
<font-face units-per-em="2048" ascent="1579" descent="-469" />
<missing-glyph horiz-adv-x="716" />
<glyph unicode="IJ" horiz-adv-x="1720" d="M80 45q0 45 65 45h144v1071h-144q-66 0 -65 43q0 47 65 47h394q66 0 65 -47q0 -43 -65 -43h-144v-1071h144q66 0 65.5 -45t-65.5 -45h-394q-65 0 -65 45zM807 190q0 37 22.5 58.5t53 21.5t52 -21.5t21.5 -51.5q0 -27 -22 -58q78 -72 205 -71q27 0 56.5 6t73.5 23.5 t72.5 64.5t28.5 114v885h-190q-68 0 -68 45t68 45h381q68 0 67.5 -45t-67.5 -45h-82v-897q0 -131 -99.5 -209t-240.5 -78q-147 0 -239.5 59.5t-92.5 153.5z" />
<glyph unicode="ij" horiz-adv-x="1193" d="M37 45q0 45 65 45h134v690h-123q-68 0 -68 47q0 45 68 45h163q41 0 53.5 -14t12.5 -53v-715h113q68 0 67.5 -45t-65.5 -45h-355q-65 0 -65 45zM170 1128.5q0 34.5 24.5 60t63.5 25.5q35 0 60.5 -25.5t25.5 -60t-24.5 -60.5t-63.5 -26q-35 0 -60.5 26t-25.5 60.5z M457 -340q0 35 22.5 56.5t52.5 21.5q74 0 74 -96l4 -13q16 -20 80 -20q49 0 83 30.5t49.5 80t21.5 90t6 79.5v891h-154q-68 0 -67 47q0 45 67 45h195q41 0 53 -14t12 -53v-924q0 -82 -22.5 -159.5t-88 -140t-161.5 -62.5q-104 0 -165.5 37.5t-61.5 103.5zM784 1128.5 q0 34.5 25 60t63 25.5q35 0 60.5 -25.5t25.5 -60t-24.5 -60.5t-63.5 -26q-35 0 -60.5 26t-25.5 60.5z" />
<glyph unicode="fk" horiz-adv-x="1751" d="M29 45q0 45 65 45h133v690h-110q-66 0 -66 45q0 47 68 47h108v127q0 133 134.5 199t332.5 66l197 -17l16 4q39 0 39 -67v-789l436 385h-135q-66 0 -65 45q0 47 65 47h346q68 0 68 -47q0 -45 -68 -45h-88l-295 -258l351 -432h81q68 0 68 -45t-68 -45h-266q-66 0 -65 47 q0 43 65 43h80l-305 379l-203 -182v-197h133q66 0 66 -45t-66 -45h-372q-66 0 -66 47q0 43 66 43h131v690h-506v-690h133q66 0 65.5 -45t-65.5 -45h-373q-65 0 -65 45zM334 872h506v224q-29 20 -35 71q-57 6 -127 7q-137 0 -219 -35q-45 -18 -72 -37t-38 -41.5t-13 -35.5 t-2 -38v-115z" />
<glyph unicode="&#xfb00;" horiz-adv-x="1255" d="M35 45q0 45 65 45h133v690h-108q-66 0 -66 45q0 47 68 47h106v127q0 92 72 153.5t172.5 86.5t220.5 25q184 0 244 -70q96 70 217 70q180 0 180 -107q0 -33 -21.5 -53.5t-49.5 -20.5q-37 0 -55.5 31t-18.5 60q-37 0 -59.5 -1.5t-60.5 -11.5t-60.5 -28.5t-40 -55.5 t-17.5 -88v-117h189q66 0 65 -47q0 -45 -65 -45h-189v-690h183q66 0 65.5 -45t-65.5 -45h-424q-66 0 -66 47q0 43 66 43h133v911q0 39 6 68q-39 29 -39 96q-66 8 -131 9q-135 0 -219 -35q-57 -25 -86 -53.5t-33 -47t-4 -51.5v-115h190q66 0 66 -47q0 -45 -66 -45h-190v-690 h133q66 0 66 -45t-66 -45h-375q-65 0 -65 45z" />
<glyph unicode="&#xfb01;" horiz-adv-x="1193" d="M37 45q0 45 65 45h134v690h-111q-66 0 -66 45q0 47 68 47h109v127q0 74 45 128.5t116.5 82t143 41t143.5 13.5q272 0 272 -150q0 -35 -21.5 -56.5t-53.5 -21.5q-31 0 -52.5 20.5t-21.5 55.5q0 8 1 14.5t1 8.5q0 14 -59.5 26.5t-79.5 12.5q-127 0 -217 -44 q-51 -23 -77 -50t-30 -44.5t-4 -48.5v-115h549q41 0 53 -14t12 -53v-715h134q66 0 65.5 -45t-65.5 -45h-373q-66 0 -66 47q0 43 66 43h133v690h-508v-690h133q66 0 66 -45t-66 -45h-373q-65 0 -65 45z" />
<glyph unicode="&#xfb02;" horiz-adv-x="1193" d="M37 45q0 45 65 45h134v690h-111q-66 0 -66 45q0 47 68 47h109v127q0 133 135 199t334 66l194 -17q12 4 19 4q39 0 38 -67v-1094h134q66 0 65.5 -45t-65.5 -45h-373q-66 0 -66 47q0 43 66 43h133v690h-508v-690h133q66 0 66 -45t-66 -45h-373q-65 0 -65 45zM342 872h508 v224q-31 20 -37 71q-57 6 -127 7q-137 0 -219 -35q-45 -18 -71.5 -37t-38 -41.5t-13.5 -35.5t-2 -38v-115z" />
<glyph unicode="&#xfb03;" horiz-adv-x="1792" d="M29 45q0 45 63 45h133v690h-108q-66 0 -66 45q0 47 68 47h106v127q0 74 45 129.5t118 83t144.5 40t143.5 12.5q195 0 260 -93q156 92 356 93q272 0 273 -150q0 -35 -22.5 -56.5t-53.5 -21.5t-53.5 20.5t-22.5 55.5q0 8 1 14.5t1 8.5q0 14 -59.5 26.5t-79.5 12.5 q-127 0 -215 -44q-51 -23 -77 -50t-30 -44.5t-4 -48.5v-115h549q41 0 53.5 -14t12.5 -53v-715h133q63 0 63 -45t-63 -45h-375q-66 0 -66 47q0 43 66 43h133v690h-506v-690h133q66 0 66 -45t-66 -45h-374q-66 0 -66 45t66 45h133v690h-508v-690h133q66 0 65.5 -45t-65.5 -45 h-375q-63 0 -63 45zM334 872h508v170q-41 25 -41 70q0 8 1 14.5t1 8.5q0 14 -59.5 26.5t-79.5 12.5q-131 0 -220 -44q-51 -23 -76.5 -49t-29.5 -43.5t-4 -50.5v-115z" />
<glyph unicode="&#xfb04;" horiz-adv-x="1792" d="M29 45q0 45 63 45h133v690h-108q-66 0 -66 45q0 47 68 47h106v127q0 92 72 153.5t173 86.5t222 25q66 0 102.5 -3.5t81 -23.5t68.5 -59q152 86 367 86l196 -17q12 4 17 4q41 0 41 -67v-1094h133q63 0 63 -45t-63 -45h-375q-66 0 -66 47q0 43 66 43h133v690h-506v-690h133 q66 0 66 -45t-66 -45h-374q-66 0 -66 45t66 45h133v690h-508v-690h133q66 0 65.5 -45t-65.5 -45h-375q-63 0 -63 45zM334 872h508v127q0 43 8 70q-41 29 -41 96q-68 8 -133 9q-133 0 -219 -35q-57 -25 -86 -53.5t-33 -47t-4 -51.5v-115zM950 872h506v224q-31 20 -35 71 q-59 6 -127 7q-137 0 -221 -35q-57 -25 -86 -53.5t-33 -47t-4 -51.5v-115z" />
<glyph unicode=" "  horiz-adv-x="716" />
<glyph unicode="&#x09;" horiz-adv-x="716" />
<glyph unicode="&#xa0;" horiz-adv-x="716" />
<glyph unicode="!" horiz-adv-x="598" d="M213 86q0 37 24.5 61.5t61.5 24.5t61.5 -24.5t24.5 -61.5q0 -35 -24.5 -60.5t-61.5 -25.5t-61.5 25.5t-24.5 60.5zM213 1174q0 41 19.5 65.5t36 29.5t30.5 5q12 0 21.5 -2t28 -9.5t27.5 -31t9 -57.5l-18 -703q-2 -53 -12.5 -67.5t-55.5 -14.5q-63 0 -66 35z" />
<glyph unicode="&#x22;" horiz-adv-x="884" d="M240 819v424q0 12 9 22.5t21 10.5h49q31 0 31 -33v-424q0 -20 -10 -67t-21 -47h-49q-12 0 -21 45.5t-9 68.5zM535 819v424q0 12 9 22.5t21 10.5h49q31 0 31 -33v-424q0 -20 -10 -67t-21 -47h-49q-12 0 -21 45.5t-9 68.5z" />
<glyph unicode="#" horiz-adv-x="1792" d="M115 467q0 53 75 53h363l88 213h-451q-76 0 -75 53q0 55 88 56h485l158 377q16 33 49 32q23 0 39 -16t16 -39q0 -14 -12 -39l-131 -315h360l158 377q16 33 49 32q23 0 39.5 -16t16.5 -39q0 -10 -13 -39l-131 -315h301q88 0 88 -56q0 -53 -76 -53h-360l-88 -213h448 q76 0 76 -53q0 -55 -88 -55h-483l-154 -363q-20 -49 -55 -49q-23 0 -39 16.5t-16 38.5l12 39l133 318h-360l-152 -363q-2 -8 -7 -16t-11 -15.5t-16.5 -12.5t-22.5 -5q-23 0 -39.5 16.5t-16.5 38.5l13 39l133 318h-303q-88 0 -88 55zM672 520h360l88 213h-360z" />
<glyph unicode="$" d="M125 332q0 35 17.5 56.5t31.5 25.5t27 4q29 0 51 -21.5t22 -54.5q0 -43 -36 -66q51 -170 254 -196v526q-100 18 -173 55t-109 74t-56.5 82t-24.5 69.5t-4 47.5q0 119 98.5 213t268.5 115v98q0 68 47 67q45 0 45 -67v-96q180 -16 272 -105.5t92 -212.5q0 -43 -22.5 -64.5 t-53.5 -21.5q-33 0 -53 22.5t-20 51.5q0 37 35 63q-47 147 -250 174v-475q109 -20 185.5 -64t112.5 -98.5t51 -101.5t15 -90q0 -119 -92 -222.5t-272 -129.5v-99q0 -68 -45 -67q-47 0 -47 67v97q-178 18 -272.5 114.5t-94.5 229.5zM221 944q0 -84 76 -145.5t195 -81.5v454 q-121 -18 -196 -81.5t-75 -145.5zM584 80q123 23 195.5 93.5t72.5 160.5q0 88 -71.5 157.5t-196.5 94.5v-506z" />
<glyph unicode="%" horiz-adv-x="1792" d="M115 1036q0 164 85 277.5t203.5 113.5t203.5 -112.5t85 -280.5q0 -164 -85 -277.5t-203.5 -113.5t-203.5 112.5t-85 280.5zM195 1034q0 -127 63.5 -213t144.5 -86q80 0 144.5 86t64.5 215q0 125 -63.5 212t-145.5 87q-80 0 -144 -86t-64 -215zM348 -121q0 16 19 45 l970 1473q20 31 49 30q23 0 39.5 -16t16.5 -39q0 -14 -12 -35l-975 -1476q-25 -37 -52 -37q-23 0 -39 16t-16 39zM1098 217q0 164 85 277.5t203.5 113.5t203.5 -112.5t85 -280.5q0 -164 -85 -277.5t-203.5 -113.5t-203.5 112.5t-85 280.5zM1178 215q0 -125 63.5 -212 t144.5 -87q80 0 144.5 86t64.5 215q0 127 -63.5 213t-145.5 86q-80 0 -144 -86t-64 -215z" />
<glyph unicode="&#x26;" horiz-adv-x="1673" d="M86 272q0 127 117 215l237 166q-76 178 -75 338q0 133 85 208t187 75q109 0 173 -84t64 -186q0 -88 -76.5 -175.5t-248.5 -210.5q109 -203 311 -378q102 102 176 206.5t213 333.5h-194q-66 0 -66 45q0 47 66 47h448q66 0 66 -47q0 -45 -66 -45h-157l-181 -291l-32 -49 q-133 -182 -205 -254q178 -119 334 -118q80 0 142 37.5t73 111.5q10 37 39 37l10 -2q10 -2 19 -14.5t9 -32.5q0 -88 -80.5 -158t-211.5 -70q-182 0 -400 150q-188 -150 -393 -150q-160 0 -271.5 83t-111.5 212zM195 276q0 -88 79.5 -148t196.5 -60q156 0 326 118 q-90 78 -164 168q-96 117 -150 215q-176 -115 -232 -168t-56 -125zM444 991q0 -133 64 -289q285 197 285 302q0 66 -41 123t-115 57q-66 0 -129.5 -47.5t-63.5 -145.5z" />
<glyph unicode="'" horiz-adv-x="598" d="M244 819v424q0 12 9 22.5t21 10.5h50q31 0 30 -33v-424q0 -20 -10 -67t-20 -47h-50q-12 0 -21 45.5t-9 68.5z" />
<glyph unicode="(" horiz-adv-x="835" d="M186 627q0 147 43 283.5t105.5 226.5t131.5 158.5t120 100t71 31.5q25 0 36.5 -13t11.5 -28q0 -18 -41 -47q-199 -135 -285 -328.5t-86 -383.5q0 -199 90 -390.5t276 -320.5q45 -27 46 -49q0 -39 -48 -39q-39 0 -133 79t-172 183q-166 242 -166 537z" />
<glyph unicode=")" horiz-adv-x="835" d="M129 -133q0 20 39 47q201 135 287 327.5t86 385.5q0 70 -12.5 142.5t-48.5 179t-122 215t-213 192.5q-16 12 -16 30q0 12 11.5 26.5t35.5 14.5q37 0 132 -79.5t173 -184.5q166 -242 166 -536q0 -182 -64.5 -344t-149.5 -255.5t-156.5 -146.5t-100.5 -53q-25 0 -36 13.5 t-11 25.5z" />
<glyph unicode="*" d="M145 432q0 25 43 53l261 142l-263 141q-41 25 -41 51q0 18 14.5 34.5t37.5 16.5q6 0 14 -4l285 -164q-10 113 -11 289q0 70 51.5 70t51.5 -70q0 -176 -10 -289l288 166q61 -2 62 -49q0 -25 -43 -53l-260 -141l286 -154q16 -25 17 -39q0 -18 -14.5 -34.5t-36.5 -16.5 q-14 0 -68 33l-231 137q10 -115 10 -291q0 -70 -51.5 -70t-51.5 70q0 176 11 289l-289 -166q-62 2 -62 49z" />
<glyph unicode="+" horiz-adv-x="1673" d="M117 626.5q0 55.5 80 55.5h583v584q0 80 55.5 80t55.5 -80v-584h584q80 0 79.5 -55.5t-79.5 -55.5h-584v-583q0 -80 -55.5 -80t-55.5 80v583h-583q-80 0 -80 55.5z" />
<glyph unicode="," horiz-adv-x="598" d="M193 -248q0 18 26 41q86 72 100 205q-47 4 -73.5 25.5t-29.5 36t-3 26.5q0 37 24.5 61.5t61.5 24.5q49 0 81 -43t32 -127q0 -117 -63.5 -206t-106.5 -89q-18 0 -33.5 14.5t-15.5 30.5z" />
<glyph unicode="-" horiz-adv-x="716" d="M33 436q0 45 65 45h420q66 0 66 -47q0 -43 -66 -43h-420q-65 0 -65 45z" />
<glyph unicode="." horiz-adv-x="598" d="M213 86q0 37 24.5 61.5t61.5 24.5t61.5 -24.5t24.5 -61.5q0 -35 -24.5 -60.5t-61.5 -25.5t-61.5 25.5t-24.5 60.5z" />
<glyph unicode="/" d="M125 -121q0 10 14 43l697 1456q23 49 57 49q23 0 39 -16t16 -39q0 -10 -14 -43l-698 -1456q-18 -49 -56 -49q-23 0 -39 16t-16 39z" />
<glyph unicode="0" d="M109 627q0 47 1 79.5t9 105.5t23.5 127t47 120.5t74.5 110.5t114 74t159 30q428 0 428 -649q0 -47 -1 -80t-9.5 -105.5t-24 -127t-47 -121t-74.5 -110.5t-113.5 -74t-158.5 -30q-428 1 -428 650zM215 645q0 -37 1 -69.5t8 -95t18.5 -113t36 -108.5t57.5 -98t85 -66.5 t115.5 -26.5t116 26.5t85 66.5t57 98t36 108.5t18.5 113t8 95t1 69.5q0 45 -2 83t-10 108.5t-30.5 125t-55.5 108.5t-90.5 84t-133 30t-133 -30t-90 -84t-55 -108.5t-31 -125t-10.5 -108.5t-2 -83z" />
<glyph unicode="1" d="M223 1100q0 45 45 45q186 16 283 121q10 8 27 8q43 0 43 -68v-1116h210q66 0 66 -45t-66 -45h-528q-66 0 -65.5 45t65.5 45h211v1028q-121 -63 -235 -63q-56 0 -56 45z" />
<glyph unicode="2" d="M113 47q0 20 24 41l467 393q250 211 250 402q0 141 -104.5 221t-251.5 80q-94 0 -167 -50.5t-102 -138.5q33 -25 33 -61q0 -33 -22.5 -54.5t-51.5 -21.5q-27 0 -51 20.5t-24 63.5q0 133 112.5 232.5t284.5 99.5q190 0 320.5 -107.5t130.5 -283.5q0 -193 -183 -371 q-76 -70 -259 -222l-238 -200h573q0 41 2 57.5t14.5 29.5t37 13t36.5 -12t14.5 -23.5t2.5 -31.5v-55q0 -41 -12.5 -54.5t-53.5 -13.5h-715q-67 0 -67 47z" />
<glyph unicode="3" d="M96 268q0 37 22.5 58.5t53.5 21.5t52.5 -21.5t21.5 -52t-31 -61.5q43 -80 139.5 -112.5t186.5 -32.5q145 0 237 85t92 195q0 109 -90 196t-245 87h-97q-66 0 -65 47q0 29 24.5 37t108.5 12q51 4 75.5 8t60.5 18.5t71 41.5q96 80 96 198q0 80 -77 135.5t-191 55.5 q-176 0 -260 -84q27 -31 26 -58q0 -33 -22.5 -54t-51 -21t-52 20.5t-23.5 59.5q0 104 101 165.5t280 61.5q168 0 272 -82t104 -197q0 -184 -196 -313q258 -117 258 -334q0 -147 -123 -259t-313.5 -112t-317.5 80t-127 211z" />
<glyph unicode="4" d="M63 422q0 41 17 63l481 756q16 25 27.5 30t44.5 5h59q43 0 55.5 -13.5t12.5 -54.5v-762h184q66 0 66 -45t-66 -45h-184v-266h149q66 0 66 -45t-66 -45h-379q-66 0 -65.5 45t65.5 45h150v266h-551q-39 0 -52.5 13.5t-13.5 52.5zM158 446h522v740h-51z" />
<glyph unicode="5" d="M113 281q0 43 24.5 62t50.5 19q29 0 51.5 -20t22.5 -55q0 -29 -31 -64q45 -90 124 -122.5t153 -32.5q141 0 243.5 91t102.5 222q0 121 -79 216t-210 95q-184 0 -289 -123q-12 -14 -38 -14q-49 0 -50 68v561q0 41 12.5 54t53.5 13h567q66 0 66 -47q0 -43 -66 -43h-524 v-452q137 74 270 73q172 0 283 -120.5t111 -280.5q0 -168 -132.5 -286t-320.5 -118q-168 0 -281.5 89.5t-113.5 214.5z" />
<glyph unicode="6" d="M115 612q0 297 164.5 479.5t382.5 182.5q131 0 196.5 -58.5t65.5 -140.5q0 -37 -22.5 -58.5t-55.5 -21.5q-31 0 -52.5 21.5t-21.5 52.5q0 33 31 61q-53 53 -144 54q-158 0 -284.5 -141.5t-153.5 -395.5q166 150 338 150q168 0 283.5 -118t115.5 -290q0 -178 -123.5 -295 t-293.5 -117q-176 0 -301 151.5t-125 483.5zM244 449q0 -88 16 -136q37 -111 107.5 -178t173.5 -67q127 0 219 90t92 231q0 129 -85 222.5t-218 93.5q-129 0 -217 -75t-88 -181z" />
<glyph unicode="7" d="M96 1128v91q0 20 2 30.5t13.5 22.5t35.5 12q43 0 56 -33h708q66 0 66 -47q0 -18 -8 -26q-500 -487 -500 -1141q-2 -59 -53 -60q-55 0 -56 80q0 100 18.5 215t64.5 263.5t144.5 313.5t235.5 312h-620q0 -57 -8.5 -78.5t-47.5 -21.5q-35 0 -43 17t-8 50z" />
<glyph unicode="8" d="M96 348q0 242 297 326q-152 51 -210 119.5t-58 162.5q0 125 117.5 221.5t294 96.5t294 -95.5t117.5 -222.5q0 -94 -57 -162.5t-211 -119.5q297 -86 297 -326q0 -150 -127 -260.5t-313.5 -110.5t-313.5 110.5t-127 260.5zM203 350q0 -117 97 -199.5t236.5 -82.5 t236.5 82.5t97 199.5q0 109 -93 193t-240.5 84t-240.5 -84t-93 -193zM233 954q0 -94 89.5 -161.5t214.5 -67.5t214 66.5t89 162.5q0 90 -87 160t-216 70q-131 0 -217.5 -70t-86.5 -160z" />
<glyph unicode="9" d="M115 862q0 178 127 295t301 117q78 0 147.5 -32t132 -100.5t99 -197.5t36.5 -305q0 -293 -153.5 -477.5t-364.5 -184.5q-88 0 -150.5 21.5t-90 55.5t-38.5 63.5t-11 58.5q0 37 22.5 58.5t54.5 21.5q31 0 52.5 -21.5t21.5 -52.5q0 -29 -29 -63q70 -51 168 -51 q160 0 275.5 148.5t134.5 387.5q-162 -150 -336 -149q-168 0 -283.5 117.5t-115.5 289.5zM221 862q0 -129 85 -222t218 -93t220 79t87 177q0 168 -90 282q-78 98 -198 99q-127 0 -224.5 -90.5t-97.5 -231.5z" />
<glyph unicode=":" horiz-adv-x="598" d="M213 86q0 37 24.5 61.5t61.5 24.5t61.5 -24.5t24.5 -61.5q0 -35 -24.5 -60.5t-61.5 -25.5t-61.5 25.5t-24.5 60.5zM213 784q0 37 24.5 62.5t61.5 25.5t61.5 -25.5t24.5 -62.5q0 -35 -24.5 -60.5t-61.5 -25.5t-61.5 25.5t-24.5 60.5z" />
<glyph unicode=";" horiz-adv-x="598" d="M193 -246q0 12 10 23q90 104 100 221q-90 18 -90 88q0 37 24.5 61.5t61.5 24.5q92 0 92 -158q0 -127 -54 -217t-95 -90q-18 0 -33.5 15.5t-15.5 31.5zM213 784q0 37 24.5 62.5t61.5 25.5t61.5 -25.5t24.5 -62.5q0 -35 -24.5 -60.5t-61.5 -25.5t-61.5 25.5t-24.5 60.5z " />
<glyph unicode="&#x3c;" d="M121 627q0 27 37 53l694 436q29 18 45 19q20 0 37.5 -14.5t17.5 -39.5q0 -31 -41 -57l-632 -397l632 -398q41 -27 41 -57q0 -25 -17 -39t-38 -14q-16 0 -45 18l-702 441q-29 20 -29 49z" />
<glyph unicode="=" horiz-adv-x="1673" d="M117 467q0 53 76 53h1286q76 0 75 -53q0 -55 -88 -55h-1261q-88 0 -88 55zM117 786q0 55 88 56h1261q88 0 88 -56q0 -53 -75 -53h-1286q-76 0 -76 53z" />
<glyph unicode="&#x3e;" d="M121 172q0 31 41 57l633 398l-633 397q-41 27 -41 57q0 25 17.5 39.5t37.5 14.5q16 0 45 -19l703 -440q29 -20 28 -49q0 -27 -37 -54l-694 -436q-29 -18 -45 -18q-20 0 -37.5 14t-17.5 39z" />
<glyph unicode="?" horiz-adv-x="1015" d="M127 1026q0 98 93 168t267 70q117 0 201 -25t124 -63.5t57.5 -76.5t17.5 -77q0 -115 -117 -184q-106 -63 -167.5 -143.5t-61.5 -205.5v-34q0 -41 -12.5 -53.5t-51.5 -12.5q-33 0 -46 10.5t-16 24.5t-3 55q0 55 7 95t33.5 98.5t90 118t164.5 118.5q74 53 73 113 q0 63 -73.5 107.5t-219.5 44.5q-160 0 -237 -93q27 -33 26 -59q0 -33 -22.5 -54.5t-50.5 -21.5q-31 0 -53.5 20.5t-22.5 59.5zM389 86q0 37 25.5 61.5t62.5 24.5q35 0 60.5 -24.5t25.5 -61.5q0 -35 -25.5 -60.5t-60.5 -25.5q-37 0 -62.5 25.5t-25.5 60.5z" />
<glyph unicode="@" horiz-adv-x="1433" d="M119 627q0 262 211 449.5t506 187.5q477 0 477 -617q0 -205 -119 -314.5t-262 -109.5q-154 0 -265.5 117t-111.5 287q0 164 110.5 282.5t268.5 118.5q113 0 266 -106q-74 160 -151 200q-88 51 -213 52q-262 0 -448.5 -161t-186.5 -388q0 -221 185 -384t452 -163 q184 0 379 108q10 4 34 4q61 0 62 -40q0 -20 -25 -35q-219 -127 -448 -127q-301 0 -511 188.5t-210 450.5zM635 625q0 -127 87 -218.5t212 -91.5q121 0 209 90.5t88 221.5q0 127 -86 218t-213 91q-121 0 -209 -90t-88 -221z" />
<glyph unicode="A" horiz-adv-x="1552" d="M82 47q0 43 65 43h111l404 1129q10 27 27.5 40t29.5 15t37 2h39q25 0 38 -2t29.5 -15.5t26.5 -41.5l403 -1127h111q66 0 65.5 -45t-65.5 -45h-336q-68 0 -68 47q0 43 68 43h113l-99 272h-612l-98 -272h112q68 0 68 -45t-68 -45h-336q-65 0 -65 47zM502 455h547l-265 731 h-22z" />
<glyph unicode="B" horiz-adv-x="1492" d="M94 45q0 45 66 45h131v1071h-131q-66 0 -66 43q0 47 66 47h680q199 0 335 -92t136 -215q0 -111 -76 -179.5t-246 -109.5q219 -39 301 -121.5t82 -199.5q0 -133 -136 -233.5t-337 -100.5h-739q-66 0 -66 45zM399 90h441q174 0 299 71.5t125 176.5q0 106 -138.5 187 t-332.5 81h-394v-516zM399 696h369q190 0 313 74t123 172q0 86 -105.5 152.5t-262.5 66.5h-437v-465z" />
<glyph unicode="C" horiz-adv-x="1552" d="M119 627q0 262 206.5 454.5t512.5 192.5q274 0 454 -141q33 72 66 131q14 10 31 10q43 0 43 -68v-293q0 -23 -2.5 -34t-14.5 -22t-37 -11q-43 0 -51 31q-12 47 -22.5 74.5t-48 74.5t-99.5 84q-127 74 -305 74q-266 0 -446.5 -166t-180.5 -391q0 -227 180.5 -393 t450.5 -166q184 0 307 61q70 33 108 77t45 70.5t9 65.5q2 45 53 45q53 0 54 -51q0 -158 -160 -258.5t-430 -100.5q-311 0 -517 193t-206 457z" />
<glyph unicode="D" horiz-adv-x="1613" d="M92 45q0 45 66 45h133v1071h-133q-66 0 -66 43q0 47 66 47h678q272 0 464.5 -187t192.5 -450q0 -254 -191.5 -434t-465.5 -180h-678q-66 0 -66 45zM397 90h402q246 0 415.5 154.5t169.5 372t-168.5 381t-418.5 163.5h-400v-1071z" />
<glyph unicode="E" horiz-adv-x="1433" d="M94 45q0 45 66 45h133v1071h-133q-66 0 -66 43q0 47 66 47h1087q41 0 53.5 -14t12.5 -53v-154q0 -23 -2 -34t-14.5 -22t-39.5 -11q-25 0 -37 12t-14 23.5t-2 31.5v131h-805v-467h459q0 76 8 98.5t47 22.5q25 0 37.5 -12t14.5 -23.5t2 -31.5v-197q0 -20 -2 -31.5 t-14.5 -24t-37.5 -12.5q-39 0 -47 22.5t-8 98.5h-459v-514h867v166q0 20 2 31.5t14 24t39 12.5q35 0 43 -17.5t8 -50.5v-188q0 -41 -12 -54.5t-53 -13.5h-1147q-66 0 -66 45z" />
<glyph unicode="F" horiz-adv-x="1374" d="M94 45q0 45 66 45h133v1071h-133q-66 0 -66 43q0 47 66 47h1057q41 0 53 -14t12 -53v-154q0 -23 -2 -34t-14.5 -22t-38.5 -11q-25 0 -37 12t-14 23.5t-2 31.5v131h-773v-489h445q0 74 8 96.5t47 22.5q25 0 37 -12.5t14 -24t2 -31.5v-195q0 -20 -2 -31.5t-14 -23.5 t-37 -12q-39 0 -47 22.5t-8 96.5h-445v-490h185q63 0 63 -45t-63 -45h-426q-66 0 -66 45z" />
<glyph unicode="G" horiz-adv-x="1673" d="M117 627q0 262 206.5 454.5t512.5 192.5q279 0 454 -141q33 74 68 131q10 10 28 10q45 0 46 -68v-293q0 -23 -2.5 -34t-14.5 -22t-39 -11q-41 0 -51 31q-12 47 -22.5 74.5t-48 74.5t-99.5 84q-127 74 -305 74q-264 0 -445.5 -165t-181.5 -394q0 -227 181.5 -392 t437.5 -165q178 0 311 101t168 271h-209q-66 0 -65 47q0 45 65 45h406q68 0 67 -47q0 -45 -67 -45h-86v-372q0 -20 -2.5 -31.5t-14.5 -24t-37 -12.5q-27 0 -39 11.5t-14 22.5t-2 34v120q-215 -211 -492 -211q-297 0 -505.5 191t-208.5 459z" />
<glyph unicode="H" horiz-adv-x="1552" d="M92 45q0 45 66 45h133v1071h-133q-66 0 -66 43q0 47 66 47h372q66 0 66 -47q0 -43 -66 -43h-131v-465h752v465h-133q-63 0 -64 43q0 47 64 47h375q66 0 65 -47q0 -43 -65 -43h-133v-1071h133q66 0 65.5 -45t-65.5 -45h-375q-63 0 -63.5 45t63.5 45h133v516h-752v-516h131 q66 0 66 -45t-66 -45h-372q-66 0 -66 45z" />
<glyph unicode="I" horiz-adv-x="716" d="M94 45q0 45 66 45h143v1071h-143q-66 0 -66 43q0 47 66 47h395q66 0 66 -47q0 -43 -66 -43h-143v-1071h143q66 0 66 -45t-66 -45h-395q-66 0 -66 45z" />
<glyph unicode="J" d="M152 190q0 39 22.5 59.5t54.5 20.5q31 0 52.5 -22.5t21.5 -50.5q0 -27 -24 -58q78 -72 204 -71q27 0 57.5 6t74.5 23.5t73 64.5t29 114v885h-193q-68 0 -67.5 45t67.5 45h381q68 0 68 -45t-68 -45h-82v-897q0 -131 -99 -209t-241 -78q-147 0 -239 59.5t-92 153.5z" />
<glyph unicode="K" horiz-adv-x="1613" d="M106 45q0 45 66 45h129v1071h-129q-66 0 -66 43q0 47 66 47h346q66 0 66 -47q0 -43 -66 -43h-129v-663l815 663q-68 0 -92.5 2t-40.5 11.5t-16 31.5q0 45 63 45h307q68 0 68 -47q0 -43 -68 -43h-86l-524 -424l563 -647h78q68 0 68 -45t-68 -45h-264q-66 0 -66 45 q0 23 16.5 32t39 11t84.5 2l-518 592l-359 -291v-301h129q66 0 66 -45t-66 -45h-346q-66 0 -66 45z" />
<glyph unicode="L" horiz-adv-x="1314" d="M96 45q0 45 66 45h133v1071h-133q-66 0 -66 43q0 47 66 47h424q66 0 65 -47q0 -43 -65 -43h-185v-1071h713v166q0 23 2 34t14.5 22.5t37 11.5t37 -12.5t14.5 -24t2 -31.5v-188q0 -41 -12.5 -54.5t-53.5 -13.5h-993q-66 0 -66 45z" />
<glyph unicode="M" horiz-adv-x="1910" d="M102 45q0 45 66 45h133v1071h-133q-66 0 -66 43q0 47 66 47h203q47 0 71.5 -13t42.5 -54l469 -1092l469 1098q27 61 115 61h203q66 0 65 -47q0 -43 -65 -43h-133v-1071h133q66 0 65.5 -45t-65.5 -45h-346q-66 0 -66 47q0 43 66 43h133v1071h-27l-461 -1075 q-16 -35 -42.5 -54.5t-43.5 -19.5q-51 0 -80 64l-466 1085h-27v-1071h133q66 0 66 -45t-66 -45h-346q-66 0 -66 45z" />
<glyph unicode="N" horiz-adv-x="1552" d="M106 45q0 45 66 45h133v1071h-133q-66 0 -66 43q0 47 66 47h201q90 0 127 -61l628 -1100h37v1071h-133q-66 0 -65 43q0 47 65 47h346q66 0 66 -47q0 -43 -66 -43h-133v-1093q0 -41 -14 -54.5t-53 -13.5q-90 0 -127 61l-629 1100h-37v-1071h133q66 0 66 -45t-66 -45h-346 q-66 0 -66 45z" />
<glyph unicode="O" horiz-adv-x="1673" d="M117 627q0 264 209 455.5t510 191.5t509.5 -190.5t208.5 -458.5q0 -262 -208.5 -455t-509.5 -193t-510 191t-209 459zM223 649q0 -238 178.5 -409.5t434.5 -171.5q254 0 433 172t179 409q0 219 -178 377t-434 158t-434.5 -158t-178.5 -377z" />
<glyph unicode="P" horiz-adv-x="1433" d="M94 45q0 45 66 45h133v1071h-133q-66 0 -66 43q0 47 66 47h649q213 0 358.5 -108.5t145.5 -258t-145.5 -259t-358.5 -109.5h-410v-426h133q66 0 66 -45t-66 -45h-372q-66 0 -66 45zM399 608h375q180 0 305 83t125 193.5t-125 193.5t-305 83h-375v-553z" />
<glyph unicode="Q" horiz-adv-x="1673" d="M117 627q0 264 209 455.5t510 191.5t509.5 -190.5t208.5 -458.5q0 -43 -6 -87t-29.5 -111t-63.5 -128t-115.5 -130t-176.5 -124l246 -268l41 -53q0 -16 -47 -17q-55 0 -82 31l-209 231l-39 39q-16 0 -29 -4q-106 -27 -208 -27q-301 0 -510 191t-209 459zM223 625 q0 -227 178.5 -392t434.5 -165l53 2q55 4 115 16l-187 215q2 23 47 23q41 0 62 -19q8 -8 57 -62l113 -122q162 72 257 208t95 298q0 227 -178 392t-434 165q-254 0 -433.5 -164t-179.5 -395z" />
<glyph unicode="R" horiz-adv-x="1552" d="M92 45q0 45 66 45h133v1071h-133q-66 0 -66 43q0 47 66 47h565q225 0 390 -97t165 -239q0 -168 -268 -284q109 -55 147 -111q27 -41 33 -75.5t6 -122.5q0 -63 3 -101.5t16.5 -77.5t41 -57t72.5 -18t79 28.5t34 83.5q0 45 51 45q55 0 55 -45q0 -76 -61.5 -139.5 t-157.5 -63.5q-123 0 -188 86q-37 49 -45.5 96.5t-8.5 151.5q0 111 -14 146t-80 73q-102 49 -274 50h-320v-490h131q66 0 66 -45t-66 -45h-372q-66 0 -66 45zM399 672h306q184 0 325 70.5t141 173t-142 174t-324 71.5h-306v-489z" />
<glyph unicode="S" horiz-adv-x="1193" d="M123 45v279q0 20 2 31.5t14.5 23.5t38.5 12q49 0 53 -53q4 -76 33 -123t92 -86q109 -61 293 -61q145 0 232.5 77.5t87.5 178.5q0 43 -18.5 84t-37.5 59l-18 20q-51 43 -90 58.5t-150 38.5l-92 18q-117 25 -160 36t-93 34.5t-89 60.5q-98 94 -98 215q0 131 116.5 228.5 t299.5 97.5q209 0 350 -121q29 82 40 101.5t34 19.5q45 0 45 -68v-278q0 -20 -2 -31.5t-14.5 -24t-39.5 -12.5q-31 0 -40 12.5t-15 40.5q-51 270 -360 271q-137 0 -225.5 -70t-88.5 -158q0 -92 76 -148t147 -71l312 -65q137 -29 224 -124t87 -216q0 -141 -115.5 -248 t-306.5 -107q-254 0 -405 113q-29 -74 -40.5 -93.5t-33.5 -19.5q-45 0 -45 68z" />
<glyph unicode="T" horiz-adv-x="1552" d="M76 1030v154q0 41 13 54t54 13h1266q41 0 53.5 -14t12.5 -53v-154q0 -23 -2.5 -34t-14.5 -22t-39 -11q-25 0 -37 12t-14 23.5t-2 31.5v131h-537v-1071h215q68 0 68 -45t-68 -45h-538q-68 0 -68 47q0 43 68 43h215v1071h-539v-131q0 -23 -2 -34t-14 -22t-37 -11t-37 12 t-14 23.5t-2 31.5z" />
<glyph unicode="U" horiz-adv-x="1552" d="M92 1204q0 47 66 47h372q66 0 66 -47q0 -43 -66 -43h-131v-733q0 -172 116 -266t261 -94q139 0 257 93t118 267v733h-133q-63 0 -64 43q0 47 64 47h375q66 0 65 -47q0 -43 -65 -43h-133v-745q0 -186 -141.5 -312.5t-344.5 -126.5q-199 0 -341 125t-142 314v745h-133 q-66 0 -66 43z" />
<glyph unicode="V" horiz-adv-x="1552" d="M55 1206q0 45 66 45h323q68 0 68 -47q0 -43 -68 -43h-110l428 -1087h29l423 1087h-108q-68 0 -68 43q0 47 68 47h324q66 0 65 -47q0 -43 -65 -43h-99l-438 -1116q-10 -29 -26.5 -43t-31 -16t-40.5 -2h-39q-47 0 -66.5 13t-32.5 50l-438 1114h-98q-66 0 -66 45z" />
<glyph unicode="W" horiz-adv-x="2150" d="M37 1206q0 45 67 45h285q68 0 68 -47q0 -43 -68 -43h-115l326 -1087h41l338 1120q8 27 23.5 40t30 15t42.5 2q27 0 40 -2t30.5 -15t25.5 -40l334 -1120h41l328 1087h-115q-68 0 -67 43q0 47 67 47h285q68 0 67 -47q0 -43 -67 -43h-86l-336 -1120q-8 -27 -25.5 -40 t-31 -15t-39.5 -2q-47 0 -63.5 12t-30.5 53l-338 1112h-41l-336 -1114q-8 -31 -22.5 -45t-29 -16t-44.5 -2q-68 0 -86 34l-345 1143h-86q-67 0 -67 45z" />
<glyph unicode="X" horiz-adv-x="1552" d="M84 45q0 45 68 45h112l436 576l-401 495h-111q-68 0 -67.5 45t67.5 45h328q68 0 68 -47q0 -43 -68 -43h-80l324 -405l301 405h-84q-68 0 -68 45t68 45h330q68 0 67 -47q0 -43 -67 -43h-113l-377 -497l463 -574h115q68 0 67.5 -45t-67.5 -45h-332q-66 0 -66 45t66 45h82 l-385 498l-365 -498h86q68 0 68 -45t-68 -45h-329q-68 0 -68 45z" />
<glyph unicode="Y" horiz-adv-x="1552" d="M59 1206q0 45 68 45h328q68 0 67 -47q0 -43 -67 -43h-86l405 -549l408 549h-86q-68 0 -68 45t68 45h327q68 0 68 -47q0 -43 -68 -43h-110l-484 -659v-412h134q66 0 65.5 -45t-65.5 -45h-375q-66 0 -66 45t66 45h133v412l-483 659h-111q-68 0 -68 45z" />
<glyph unicode="Z" horiz-adv-x="1314" d="M121 53q0 27 10 39l916 1069h-787v-131q0 -23 -2 -34t-14.5 -22t-37 -11t-36.5 12t-14 23.5t-2 31.5v154q0 41 13 54t54 13h903q20 0 31.5 -2t24 -14t12.5 -37q0 -27 -10 -39l-916 -1069h830v172q0 23 2 34t14 22.5t39 11.5q25 0 37 -12.5t14 -23.5t2 -32v-194 q0 -41 -13 -54.5t-52 -13.5h-951q-20 0 -31.5 2t-23.5 14t-12 37z" />
<glyph unicode="[" horiz-adv-x="608" d="M242 -109v1469q0 39 13 53t52 14h176q66 0 66 -47q0 -45 -66 -45h-133v-1419h133q66 0 66 -47q0 -45 -66 -45h-176q-41 0 -53 14t-12 53z" />
<glyph unicode="\" d="M125 1372q0 23 16.5 39t38.5 16q33 0 58 -47l698 -1458q12 -31 12 -43q0 -23 -16.5 -39t-38.5 -16q-33 0 -57 47l-699 1458q-12 31 -12 43z" />
<glyph unicode="]" horiz-adv-x="608" d="M57 -129q0 45 66 45h133v1419h-133q-66 0 -66 47q0 45 66 45h176q41 0 53.5 -14t12.5 -53v-1469q0 -39 -13.5 -53t-52.5 -14h-176q-66 0 -66 47z" />
<glyph unicode="^" d="M152 1063q0 23 26 37l342 166q16 6 33 0l342 -166q27 -14 27 -37q0 -18 -11.5 -32.5t-29.5 -14.5q-6 0 -19 4l-325 139l-326 -139q-12 -4 -18 -4q-18 0 -29.5 14.5t-11.5 32.5z" />
<glyph unicode="_" horiz-adv-x="1552" d="M-4 -227h1560v-111h-1560v111z" />
<glyph unicode="`" d="M332 1196q0 25 16.5 40t38.5 15l33 -8l280 -127q41 -18 41 -45q0 -18 -12 -41.5t-39 -23.5q-4 0 -16 4l-295 131q-47 20 -47 55z" />
<glyph unicode="a" horiz-adv-x="1044" d="M115 252q0 137 161.5 214t452.5 81q0 254 -278 254q-133 0 -134 -45q-2 -41 -24.5 -59.5t-48.5 -18.5q-33 0 -54.5 20.5t-21.5 57.5q0 135 281 135q193 0 291 -92t98 -217v-467q53 -25 135 -25q66 0 65 -43q0 -23 -13 -33t-27.5 -12t-43.5 -2q-53 0 -83.5 3t-69.5 20.5 t-64 52.5q-121 -88 -303 -88q-141 0 -230 77.5t-89 186.5zM223 252q0 -70 63.5 -122t164.5 -52q109 0 184 35q43 20 65.5 47.5t25.5 48t3 55.5v197q-256 -8 -381 -68.5t-125 -140.5z" />
<glyph unicode="b" horiz-adv-x="1193" d="M37 1204q0 47 65 47h174q41 0 53.5 -13t12.5 -54v-436q158 137 326 137q180 0 305 -132t125 -317q0 -188 -135.5 -318t-317.5 -130q-160 0 -303 153q0 -90 -7 -115.5t-44 -25.5q-27 0 -39 11.5t-14 22.5t-2 34v1093h-134q-65 0 -65 43zM342 393q0 -109 82 -212t213 -103 q141 0 247.5 103.5t106.5 254.5q0 145 -96 251t-240 106q-121 0 -217 -77t-96 -181v-142z" />
<glyph unicode="c" horiz-adv-x="956" d="M98 436q0 72 26 146.5t77 146.5t147 117t219 45q297 0 297 -135q0 -35 -22.5 -56.5t-55.5 -21.5q-74 0 -73 84q0 16 -50.5 27.5t-95.5 11.5q-104 0 -181 -41t-113.5 -103.5t-52 -118t-15.5 -102.5q0 -150 103.5 -254t246.5 -104q166 0 233 155q14 18 46 19q55 0 55 -41 q0 -16 -16.5 -49t-51.5 -74t-108.5 -70.5t-169.5 -29.5q-188 0 -316.5 132t-128.5 316z" />
<glyph unicode="d" horiz-adv-x="1193" d="M94 434q0 188 133 319.5t320 131.5q154 0 303 -131v407h-133q-66 0 -66 45t66 45h174q41 0 53 -14t12 -53v-1094h134q66 0 65.5 -45t-65.5 -45h-175q-41 0 -53 13.5t-12 54.5v86q-125 -166 -326 -166q-178 0 -304 131t-126 315zM201 434q0 -145 98 -250.5t236 -105.5 q133 0 224 103.5t91 215.5v140q0 100 -87 178t-206 78q-145 0 -250.5 -104.5t-105.5 -254.5z" />
<glyph unicode="e" horiz-adv-x="956" d="M84 440q0 184 124 317.5t300 133.5q180 0 280.5 -121t100.5 -307q0 -29 -10.5 -42t-21.5 -15.5t-34 -2.5h-630q25 -150 128 -237.5t232 -87.5q170 0 233 149q10 25 48 25q55 0 55 -41q0 -59 -92 -141t-256 -82q-190 0 -323.5 132t-133.5 320zM195 492h583 q-25 309 -270 309q-113 0 -199.5 -84t-113.5 -225z" />
<glyph unicode="f" horiz-adv-x="657" d="M45 45q0 45 66 45h133v690h-111q-66 0 -65 45q0 47 67 47h109v129q0 123 91 193t218 70q182 0 182 -107q0 -33 -22.5 -53.5t-48.5 -20.5q-39 0 -56.5 31t-17.5 60q-37 0 -59.5 -1.5t-60.5 -11.5t-61.5 -28.5t-41 -55.5t-17.5 -88v-117h191q66 0 65 -47q0 -45 -65 -45 h-191v-690h185q66 0 65.5 -45t-65.5 -45h-424q-66 0 -66 45z" />
<glyph unicode="g" d="M63 -193q0 158 166 256q-57 76 -57 158q0 80 47 146q-74 90 -74 198q0 129 96.5 224.5t233.5 95.5q102 0 205 -68q106 78 223 78q68 0 101.5 -28.5t33.5 -65.5q0 -33 -20.5 -50.5t-44.5 -17.5q-18 0 -38 16.5t-30 55.5q-92 -8 -164 -49q63 -100 64 -191 q0 -133 -96.5 -226t-233.5 -93q-106 0 -199 61q-23 -55 -22 -88l6 -33q6 -33 23 -55q33 -37 82 -37q18 -4 63 -4h150q201 0 296 -59q70 -35 103 -97.5t33 -126.5q0 -125 -138.5 -207.5t-335 -82.5t-335 81.5t-138.5 208.5zM147 -193q0 -78 114 -140t275.5 -62t275.5 62.5 t114 139.5q0 55 -29 94.5t-69 60t-107.5 31.5t-116.5 13t-125 2q-123 0 -158.5 -5t-76.5 -32q-97 -60 -97 -164zM254 563q0 -94 64.5 -161.5t156.5 -67.5t156.5 66.5t64.5 164.5q0 94 -64.5 162t-156.5 68q-90 0 -155.5 -68t-65.5 -164z" />
<glyph unicode="h" horiz-adv-x="1193" d="M37 45q0 45 65 45h134v1071h-134q-66 0 -65 43q0 47 65 47h174q41 0 53.5 -13t12.5 -54v-445q158 145 330 146q285 0 284 -289v-506h134q66 0 65.5 -45t-65.5 -45h-373q-66 0 -66 47q0 43 66 43h133v492q0 109 -38 160t-153 51q-51 0 -102 -16.5t-101 -50.5t-82 -97.5 t-32 -147.5v-391h133q66 0 66 -45t-66 -45h-373q-65 0 -65 45z" />
<glyph unicode="i" horiz-adv-x="598" d="M45 45q0 45 66 45h133v690h-123q-68 0 -68 47q0 45 68 45h166q41 0 53 -14t12 -53v-715h111q68 0 67.5 -45t-65.5 -45h-354q-66 0 -66 45zM211 1128.5q0 34.5 24.5 60t63.5 25.5q35 0 60.5 -25.5t25.5 -60t-24.5 -60.5t-63.5 -26q-35 0 -60.5 26t-25.5 60.5z" />
<glyph unicode="j" horiz-adv-x="657" d="M-88 -340q0 35 22.5 56.5t53.5 21.5q74 0 73 -96l5 -13q16 -20 79 -20q49 0 83 30.5t49.5 80t21.5 90t6 79.5v891h-153q-68 0 -68 47q0 45 68 45h194q41 0 53.5 -14t12.5 -53v-924q0 -82 -22.5 -159.5t-88 -140t-162.5 -62.5q-104 0 -165.5 37.5t-61.5 103.5zM238 1128.5 q0 34.5 24.5 60t63.5 25.5q35 0 60.5 -25.5t25.5 -60t-25 -60.5t-63 -26q-35 0 -60.5 26t-25.5 60.5z" />
<glyph unicode="k" horiz-adv-x="1134" d="M53 45q0 45 66 45h127v1071h-127q-66 0 -66 43q0 47 66 47h147q41 0 56.5 -14t15.5 -53v-789l430 385h-135q-66 0 -66 45q0 47 66 47h346q68 0 68 -47q0 -45 -68 -45h-84l-295 -258l348 -432h80q68 0 68 -45t-68 -45h-266q-66 0 -66 47q0 43 66 43h76l-301 375l-199 -178 v-197h127q63 0 63 -45t-63 -45h-346q-66 0 -66 45z" />
<glyph unicode="l" horiz-adv-x="598" d="M45 45q0 45 66 45h133v1071h-133q-66 0 -66 43q0 47 66 47h176q41 0 53 -14t12 -53v-1094h133q66 0 66 -45t-66 -45h-374q-66 0 -66 45z" />
<glyph unicode="m" horiz-adv-x="1792" d="M29 45q0 45 63 45h133v690h-133q-63 0 -63 45q0 47 63 47h176q47 0 56.5 -23.5t9.5 -109.5q160 145 330 146q197 0 270 -166q156 166 346 166q137 0 212 -73t75 -216v-506h133q63 0 63 -45t-63 -45h-375q-66 0 -65.5 45t65.5 45h133v492q0 111 -39 161t-153 50 q-49 0 -100.5 -16.5t-101.5 -50.5t-82 -97.5t-32 -147.5v-391h133q66 0 66 -45t-66 -45h-374q-66 0 -66 45t66 45h133v492q0 111 -39 161t-154 50q-49 0 -100 -16.5t-101.5 -50.5t-82 -97.5t-31.5 -147.5v-391h133q66 0 65.5 -45t-65.5 -45h-375q-63 0 -63 45z" />
<glyph unicode="n" horiz-adv-x="1193" d="M37 45q0 45 65 45h134v690h-134q-66 0 -65 45q0 47 65 47h174q47 0 56.5 -23.5t9.5 -109.5q158 145 330 146q285 0 284 -289v-506h134q66 0 65.5 -45t-65.5 -45h-373q-66 0 -66 47q0 43 66 43h133v492q0 109 -38 160t-153 51q-51 0 -102 -16.5t-101 -50.5t-82 -97.5 t-32 -147.5v-391h133q66 0 66 -45t-66 -45h-373q-65 0 -65 45z" />
<glyph unicode="o" d="M82 436.5q0 186.5 133 320.5t321.5 134t321.5 -134t133 -320.5t-133 -317.5t-321.5 -131t-321.5 131t-133 317.5zM190 451q0 -152 100.5 -262.5t246.5 -110.5q143 0 244.5 110.5t101.5 262.5q0 150 -102.5 250t-244 100t-244 -100t-102.5 -250z" />
<glyph unicode="p" horiz-adv-x="1193" d="M37 -424q0 47 65 47h134v1157h-134q-66 0 -65 45q0 47 65 47h174q47 0 56.5 -22.5t9.5 -101.5q158 137 326 137q180 0 305 -132t125 -317q0 -188 -135.5 -318t-317.5 -130q-160 0 -303 153v-518h133q66 0 66 -47q0 -45 -66 -45h-373q-65 0 -65 45zM342 393 q0 -109 82 -212t213 -103q141 0 247.5 103.5t106.5 254.5q0 145 -96 251t-240 106q-121 0 -217 -77t-96 -181v-142z" />
<glyph unicode="q" horiz-adv-x="1134" d="M94 434q0 190 135.5 320.5t319.5 130.5q182 0 301 -160v92q0 23 2 34t14.5 22.5t38.5 11.5q25 0 37 -12.5t14 -23.5t2 -32v-1194h134q63 0 63 -47q0 -45 -63 -45h-375q-66 0 -66 47q0 45 66 45h133v522q-164 -158 -326 -157q-176 0 -303 131t-127 315zM203 434 q0 -147 97 -251.5t237 -104.5q133 0 223 102.5t90 212.5v78q0 121 -82 221.5t-211 100.5q-141 0 -247.5 -103.5t-106.5 -255.5z" />
<glyph unicode="r" horiz-adv-x="835" d="M43 45q0 45 66 45h131v690h-131q-66 0 -66 45q0 47 66 47h174q47 0 56 -25.5t9 -123.5q74 84 138.5 123t140.5 39q63 0 101 -35t38 -78q0 -33 -20.5 -52.5t-49.5 -19.5q-27 0 -49 19.5t-22 73.5q-135 -14 -206 -135t-71 -281v-287h184q66 0 66 -45t-66 -45h-423 q-66 0 -66 45z" />
<glyph unicode="s" horiz-adv-x="847" d="M80 55v203q0 20 2 31.5t14.5 24t38.5 12.5q39 0 51 -29q27 -102 78 -160.5t166 -58.5q25 0 54.5 4t78.5 17.5t81 51t32 95.5q0 63 -53.5 103t-124.5 59l-25 4q-59 10 -92 17t-87 21.5t-85 32t-64.5 42t-49 58t-15.5 76.5q0 82 74.5 157t261.5 75q111 0 200 -51 q16 51 50 51q45 0 45 -68v-145q0 -23 -2 -34t-14.5 -22.5t-39.5 -11.5q-43 0 -51 37q-4 31 -9 50.5t-22.5 47t-58.5 42t-102 14.5q-121 0 -181.5 -40t-60.5 -102q0 -63 69.5 -95t223.5 -60q39 -6 77 -17.5t96 -38t94 -80t36 -122.5q0 -100 -80 -179t-258 -79q-135 0 -242 86 q-6 -29 -11 -43.5t-18.5 -28.5t-31.5 -14q-45 -1 -45 67z" />
<glyph unicode="t" horiz-adv-x="835" d="M47 825q0 47 68 47h125v191q0 23 2 34t14 22t39 11q25 0 37 -12t14 -23.5t2 -31.5v-191h254q66 0 66 -47q0 -45 -66 -45h-254v-526q0 -176 123 -176q51 0 89 44t38 126q0 14 1 22.5t5 18.5t15.5 15t29.5 5q27 0 39 -11t14.5 -21.5t2.5 -30.5q0 -113 -71 -185.5 t-171 -72.5q-86 0 -154.5 59t-68.5 193v540h-127q-66 0 -66 45z" />
<glyph unicode="u" horiz-adv-x="1193" d="M37 825q0 47 65 47h174q41 0 53.5 -14t12.5 -53v-569q0 -37 4 -56.5t21.5 -47.5t63.5 -41t122 -13q41 0 82 7t94 28.5t87 73t34 124.5v469h-133q-66 0 -66 47q0 45 66 45h174q41 0 53 -14t12 -53v-715h134q66 0 65.5 -45t-65.5 -45h-175q-20 0 -31.5 3t-22.5 25.5 t-11 65.5q-137 -106 -309 -106q-305 0 -305 235v557h-134q-65 0 -65 45z" />
<glyph unicode="v" horiz-adv-x="1134" d="M57 825q0 47 66 47h295q68 0 67 -47q0 -45 -67 -45h-113l238 -698h49l235 698h-112q-68 0 -68 47q0 45 68 45h295q66 0 65 -47q0 -45 -65 -45h-97l-247 -731q-8 -27 -26.5 -40t-32 -15t-40.5 -2q-29 0 -43 2t-30.5 16.5t-26.5 42.5l-248 727h-96q-66 0 -66 45z" />
<glyph unicode="w" horiz-adv-x="1552" d="M43 827q0 45 68 45h286q68 0 68 -47q0 -45 -68 -45h-114l192 -698h25l198 727q12 35 28.5 49t53.5 14q39 0 55.5 -16t24.5 -45l201 -729h16l191 698h-115q-68 0 -68 47q0 45 68 45h287q66 0 65 -47q0 -45 -65 -45h-86l-199 -731q-8 -27 -23.5 -40t-28.5 -15t-40 -2 q-53 0 -70.5 16.5t-31.5 71.5l-175 700h-10l-196 -760q-16 -29 -88 -28q-31 0 -44.5 2t-30 16.5t-24.5 42.5l-196 727h-86q-68 0 -68 47z" />
<glyph unicode="x" horiz-adv-x="1134" d="M61 45q0 45 68 45h115l276 363l-262 327h-115q-68 0 -67 47q0 45 67 45h295q66 0 66 -47q0 -45 -66 -45h-84l207 -260l199 260h-86q-68 0 -68 47q0 45 68 45h295q66 0 65 -47q0 -45 -65 -45h-115l-254 -329l287 -361h114q68 0 68 -45t-68 -45h-294q-66 0 -66 47 q0 43 66 43h86l-234 305l-225 -305h90q66 0 65.5 -45t-65.5 -45h-295q-68 0 -68 45z" />
<glyph unicode="y" horiz-adv-x="1134" d="M43 -328q0 35 20.5 54.5t55.5 19.5q29 0 50 -20.5t21 -53.5q0 -10 -2 -20t-2 -12q0 -12 17.5 -21.5t32.5 -9.5q66 0 118 27.5t82.5 71.5t45 75t24.5 61l47 138l-326 798h-98q-68 0 -68 47q0 45 68 45h295q66 0 65 -47q0 -45 -65 -45h-109l279 -710l231 710h-112 q-66 0 -66 45q0 47 66 47h297q66 0 65 -47q0 -45 -65 -45h-97l-331 -968q-39 -113 -131.5 -203t-219.5 -90q-82 0 -135 45t-53 108z" />
<glyph unicode="z" horiz-adv-x="956" d="M66 55q0 12 4 33l637 692h-502v-73q0 -23 -2 -34t-14.5 -22.5t-38.5 -11.5q-35 0 -43.5 17.5t-8.5 50.5v98q0 41 13.5 54t52.5 13h618q23 0 34 -2t22.5 -14t11.5 -39q0 -23 -4 -33l-635 -694h539v100q0 20 2 31.5t14 24t39 12.5q35 0 43 -17.5t8 -50.5v-122 q0 -41 -12.5 -54.5t-50.5 -13.5h-660q-23 0 -34 2t-22 14t-11 39z" />
<glyph unicode="{" d="M123 627q0 23 12 34t25 11q154 0 237 35q59 27 72.5 57.5t13.5 99.5v365q39 199 398 198q70 0 69 -47q0 -23 -12 -34t-25 -11q-274 0 -317 -96q-6 -12 -6 -225t2 -213q-4 -96 -141 -176q141 -80 141 -203v-340q0 -31 10 -55.5t40 -52t96.5 -43t166.5 -15.5q45 0 45 -45 q0 -47 -69 -47q-184 0 -297 61q-47 25 -71 67t-27 68.5t-3 67.5v350q-4 125 -319 144q-41 0 -41 45z" />
<glyph unicode="|" d="M481 -94v1440q0 82 55.5 81.5t55.5 -81.5v-1440q0 -82 -55.5 -82t-55.5 82z" />
<glyph unicode="}" d="M123 -129q0 23 12 34t25 11q109 0 179.5 14.5t99 42t36.5 49t8 54.5v375q0 12 5.5 32.5t41 64.5t97.5 79q-82 43 -113 90t-31 110v340q0 35 -8 58.5t-36.5 52.5t-95.5 43t-169 14q-51 0 -51 45q0 47 70 47q186 0 299 -61q100 -55 100 -199v-352q4 -127 317 -145 q41 -4 41 -45q0 -23 -12 -34t-25 -11q-152 0 -235 -35q-59 -27 -72.5 -57.5t-13.5 -100.5l-2 -364q-37 -199 -397 -199q-70 0 -70 47z" />
<glyph unicode="~" d="M188 565q0 31 97 103q90 66 153 65q47 0 97 -37q41 -37 53 -49t28.5 -21.5t28.5 -9.5q55 0 160 99q23 18 37 18q18 0 32.5 -15.5t14.5 -33.5q0 -29 -96 -100q-90 -66 -154 -66q-51 0 -96 37q-51 49 -71.5 63.5t-39.5 14.5q-57 0 -160 -96q-18 -18 -36.5 -18.5t-33 15 t-14.5 31.5z" />
<glyph unicode="&#xa0;" />
<glyph unicode="&#xa1;" horiz-adv-x="598" d="M213 -391l18 702q2 53 13.5 68.5t54.5 15.5q63 0 66 -35l20 -751q0 -41 -19.5 -65.5t-36 -30t-30.5 -5.5q-12 0 -30.5 6.5t-37 31t-18.5 63.5zM213 696q0 37 24.5 61.5t61.5 24.5t61.5 -24.5t24.5 -61.5t-24.5 -61.5t-61.5 -24.5t-61.5 24.5t-24.5 61.5z" />
<glyph unicode="&#xa2;" horiz-adv-x="956" d="M98 436q0 63 20.5 131t62.5 133.5t120 115.5t180 69v137q0 18 13.5 31.5t33.5 13.5q18 0 31.5 -13.5t13.5 -31.5v-131q45 0 76 -1t75 -8.5t71.5 -21.5t48 -40.5t20.5 -63.5q0 -35 -22.5 -56.5t-55.5 -21.5q-72 0 -73 84q0 16 -42 27.5t-98 11.5v-723q158 18 213 149 q10 25 48 25q55 0 55 -41q0 -16 -14.5 -46t-46 -69t-99 -70.5t-156.5 -37.5v-138q0 -20 -13 -33.5t-32 -13.5q-20 0 -33.5 13.5t-13.5 33.5v140q-172 31 -277.5 156.5t-105.5 289.5zM205 436q0 -125 74.5 -219t201.5 -131v707q-80 -23 -138 -68t-86 -100.5t-40 -101.5 t-12 -87z" />
<glyph unicode="&#xa3;" horiz-adv-x="1552" d="M82 154q0 96 97 138t239 42q86 0 219 -49q-27 111 -115 286h-293q-23 0 -39 16.5t-16 39t16.5 39t38.5 16.5h240q-49 123 -49 209q0 156 132 258t312 102q182 0 315.5 -87t133.5 -232q0 -20 -16.5 -36.5t-39 -16.5t-39 15t-16.5 38q0 102 -99 155.5t-239 53.5 q-135 0 -235.5 -68.5t-100.5 -181.5q0 -88 47 -209h455q23 0 38 -16.5t15 -39t-15 -39t-38 -16.5h-403q43 -84 61.5 -123.5t39 -102t24.5 -116.5q104 -51 150 -71.5t129 -46t147 -25.5q76 0 129 58.5t53 140.5q0 23 16.5 39t39 16t38.5 -16.5t16 -38.5q0 -127 -85 -217.5 t-207 -90.5q-59 0 -142.5 27t-139.5 52l-161 77q-92 -156 -413 -156q-96 0 -168 48.5t-72 128.5zM193 154q0 -68 129 -68q260 0 319 90q-135 47 -223 47q-225 1 -225 -69z" />
<glyph unicode="&#xa4;" horiz-adv-x="1673" d="M324 1130q37 39 98 -12l121 -119q141 100 293 101q160 0 294 -103l119 121q51 51 90 21q39 -37 -12 -99l-121 -118q104 -139 105 -295q0 -156 -105 -295l121 -119q51 -51 21 -90q-37 -39 -99 12l-119 121q-135 -102 -294 -102q-152 0 -293 100l-121 -119q-57 -49 -90 -20 q-39 37 12 98l119 121q-100 137 -100.5 292.5t100.5 293.5l-119 120q-49 57 -20 90zM473 626.5q0 -151.5 105.5 -257t257 -105.5t258 105.5t106.5 257t-106.5 257t-258 105.5t-257 -105.5t-105.5 -257z" />
<glyph unicode="&#xa5;" horiz-adv-x="1552" d="M59 1206q0 45 68 45h328q68 0 67 -47q0 -43 -67 -43h-86l233 -315h346l234 315h-86q-68 0 -68 45t68 45h327q68 0 68 -47q0 -43 -68 -43h-110l-230 -315h174q23 0 39.5 -16.5t16.5 -39t-16.5 -38t-39.5 -15.5h-256l-161 -221h417q23 0 39.5 -15.5t16.5 -38t-16.5 -38.5 t-39.5 -16h-428v-318h134q66 0 65.5 -45t-65.5 -45h-375q-66 0 -66 45t66 45h133v318h-424q-23 0 -39 16t-16 38.5t16 38t39 15.5h414l-162 221h-252q-23 0 -39 15.5t-16 38t16 39t39 16.5h170l-229 315h-111q-68 0 -68 45zM682 737l92 -125l92 125h-184z" />
<glyph unicode="&#xa6;" d="M481 -94v506q0 20 16.5 33.5t39 13.5t39 -13.5t16.5 -33.5v-506q0 -82 -55.5 -82t-55.5 82zM481 840v506q0 82 55.5 81.5t55.5 -81.5v-506q0 -20 -16.5 -33.5t-39 -13.5t-39 13.5t-16.5 33.5z" />
<glyph unicode="&#xa7;" horiz-adv-x="1116" d="M96 627q0 78 45 139t117 86q-43 59 -43 129q0 127 102.5 210t243.5 83t243.5 -72t102.5 -188q0 -31 -22.5 -53.5t-53 -22.5t-53 22.5t-22.5 53.5q0 35 26 57q-51 92 -221 92q-94 0 -164.5 -50t-70.5 -132q0 -70 56 -111t155 -75l206 -74q123 -45 203 -129t80 -195 q0 -78 -45 -139t-117 -86q43 -63 43 -129q0 -127 -102.5 -210t-243.5 -83t-243.5 72t-102.5 188q0 31 22.5 53.5t53.5 22.5t53.5 -22.5t22.5 -53.5q0 -35 -27 -57q51 -92 221 -92q94 0 165 50t71 132q0 70 -56.5 111t-154.5 75l-207 74q-123 45 -203 129t-80 195zM207 627 q0 -143 211 -219l207 -74q88 -35 149 -76q57 -4 99 38t42 101q0 143 -210 219l-207 74q-88 35 -150 76q-57 2 -99 -39t-42 -100z" />
<glyph unicode="&#xa8;" d="M285 1128q0 29 21.5 52.5t55.5 23.5q33 0 55.5 -22.5t22.5 -53t-22.5 -53t-57.5 -22.5q-29 0 -52 22t-23 53zM637 1128q0 29 22.5 52.5t57.5 23.5q31 0 53.5 -22.5t22.5 -53t-21.5 -53t-56.5 -22.5q-31 0 -54.5 22t-23.5 53z" />
<glyph unicode="&#xa9;" horiz-adv-x="1251" d="M0 627q0 258 183.5 441t443.5 183q258 0 441 -183t183 -441q0 -260 -183 -443.5t-441 -183.5q-260 0 -443.5 183.5t-183.5 443.5zM82 626.5q0 -225.5 159.5 -385t385 -159.5t384 159.5t158.5 385t-158.5 384t-384 158.5t-385 -158.5t-159.5 -384zM180 626.5 q0 157.5 125 272.5t307 115q164 0 273 -84q10 23 39 78q10 6 18 6q27 0 27 -39v-176q0 -41 -33 -41q-25 0 -31 18q-25 96 -102 139q-72 45 -182 46q-160 0 -268.5 -99.5t-108.5 -234.5q0 -137 108.5 -236.5t270.5 -99.5q111 0 184 37q41 20 64.5 46.5t26.5 41t7 39.5 q0 29 31 28q33 0 33 -30q0 -94 -96.5 -154.5t-258.5 -60.5q-186 0 -310 115.5t-124 273z" />
<glyph unicode="&#xaa;" horiz-adv-x="966" d="M98 834q0 94 135.5 145t380.5 55q0 188 -237 189h-66q-35 -6 -42 -12.5t-7 -24.5q-2 -49 -59 -49q-59 0 -60 49q0 88 232 88q160 0 241.5 -61.5t81.5 -147.5v-334q57 -16 119 -16q53 0 53 -25q0 -27 -69 -26q-47 0 -71.5 2t-57.5 14t-54 37q-109 -63 -256 -64 q-117 0 -190.5 53.5t-73.5 127.5zM164 526.5q0 26.5 47 26.5h547q47 0 47 -26.5t-47 -26.5h-547q-47 0 -47 26.5zM182 834q0 -51 54.5 -89t140.5 -38q92 0 155 24q39 14 57.5 35.5t21.5 36t3 39.5v143q-219 -6 -325.5 -49t-106.5 -102z" />
<glyph unicode="&#xab;" horiz-adv-x="1193" d="M256 424q-16 20 0 41q162 176 231 403q8 20 29 21h33q14 0 23.5 -12.5t5.5 -26.5q-61 -215 -213 -408q150 -186 213 -403q4 -14 -5.5 -26.5t-23.5 -12.5h-33q-23 0 -29 20q-71 228 -231 404zM625 424q-16 20 0 41q162 176 231 403q8 20 29 21h35q14 0 22 -12.5t4 -26.5 q-63 -221 -213 -408q147 -180 213 -403q4 -14 -4 -26.5t-22 -12.5h-35q-23 0 -29 20q-71 228 -231 404z" />
<glyph unicode="&#xac;" horiz-adv-x="1673" d="M117 786q0 23 15 39.5t38 16.5h1331q23 0 38 -16.5t15 -39.5v-319q0 -23 -15 -39t-37.5 -16t-39 16t-16.5 39v266h-1276q-23 0 -38 16.5t-15 36.5z" />
<glyph unicode="&#xad;" horiz-adv-x="716" d="M33 436q0 45 65 45h420q66 0 66 -47q0 -43 -66 -43h-420q-65 0 -65 45z" />
<glyph unicode="&#xae;" horiz-adv-x="1251" d="M0 627q0 258 183.5 441t443.5 183q258 0 441 -183t183 -441q0 -260 -183 -443.5t-441 -183.5q-260 0 -443.5 183.5t-183.5 443.5zM82 626.5q0 -225.5 159.5 -385t385 -159.5t384 159.5t158.5 385t-158.5 384t-384 158.5t-385 -158.5t-159.5 -384zM250 313q0 25 37 25h71 v588h-71q-37 0 -37 24q0 27 37 27h309q125 0 215 -54.5t90 -131.5q0 -92 -147 -156q59 -29 82 -62q20 -31 20 -108q0 -70 13.5 -104.5t60.5 -34.5q25 0 43 15t18 46q0 25 29 25q31 0 31 -25q0 -41 -34 -77t-87 -36q-68 0 -103 50q-31 39 -30 135q0 61 -7.5 80.5t-44.5 40.5 q-57 27 -151 26h-176v-268h74q35 0 34 -25q0 -27 -34 -26h-205q-37 -1 -37 26zM418 657h168q100 0 179 39t79 95q0 57 -78 96t-180 39h-168v-269z" />
<glyph unicode="&#xaf;" d="M160 1128.5q0 47.5 63 47.5h631q63 0 64 -50q0 -45 -64 -45h-627q-67 0 -67 47.5z" />
<glyph unicode="&#xb0;" horiz-adv-x="806" d="M180 969q0 92 64.5 159.5t154.5 67.5q96 0 166 -65.5t70 -159.5q0 -92 -64.5 -160t-154.5 -68q-102 0 -169 67t-67 159zM268 971q0 -59 40 -101.5t97.5 -42.5t99.5 42t42 99.5t-40 99.5t-97.5 42t-97.5 -41t-44 -98z" />
<glyph unicode="&#xb1;" horiz-adv-x="1673" d="M117 55.5q0 55.5 80 55.5h583v458h-583q-80 0 -80 55.5t80 55.5h583v489q0 80 55.5 80t55.5 -80v-489h584q80 0 79.5 -55.5t-79.5 -55.5h-584v-458h584q80 0 79.5 -55.5t-79.5 -55.5h-1278q-80 0 -80 55.5z" />
<glyph unicode="&#xb2;" horiz-adv-x="772" d="M86 547l14 31l336 229q90 61 136 117.5t46 122.5q0 88 -74.5 134t-183.5 46q-158 0 -204 -117q29 -14 28 -31q0 -39 -49 -39t-49 43q0 76 79 133.5t202 57.5q135 0 227 -61.5t92 -165.5q0 -111 -127 -213q-131 -104 -369 -256h428q0 33 5.5 40t29.5 7q33 0 33 -35v-31 q0 -20 -8 -26.5t-33 -6.5h-516q-43 1 -43 21z" />
<glyph unicode="&#xb3;" horiz-adv-x="772" d="M76 680q0 39 47 39q49 0 49 -37q0 -18 -27 -33q59 -88 244 -88q109 0 176.5 51.5t67.5 116.5q0 63 -75 115.5t-173 52.5h-70q-43 0 -43 27q0 29 93 28q18 0 33 1l31 2q15 1 28.5 5.5t29 11.5t29.5 17q72 49 72 121q0 49 -56.5 83t-142.5 34q-115 0 -180 -37l-2 -27l6 -8 q4 -6 4 -12q0 -37 -49 -37t-49 39q0 59 71.5 94t196.5 35q119 0 193.5 -46t74.5 -112q0 -109 -155 -190q201 -76 200 -201q0 -86 -88 -150.5t-223 -64.5t-224 46t-89 124z" />
<glyph unicode="&#xb4;" d="M334 1071q0 27 41 45l280 127l33 8q23 0 39 -15t16 -40q0 -35 -47 -55l-295 -131q-12 -4 -16 -4q-27 0 -39 23.5t-12 41.5z" />
<glyph unicode="&#xb5;" horiz-adv-x="1193" d="M37 -424q0 47 65 47h134v1157h-134q-66 0 -65 45q0 47 65 47h174q41 0 53.5 -14t12.5 -53v-569q0 -37 4 -56.5t21.5 -47.5t63.5 -40t122 -12q41 0 81 7t94 27.5t88 72t34 124.5v469h-133q-66 0 -66 47q0 45 66 45h174q41 0 53 -14t12 -53v-713h134q66 0 65 -47 q0 -45 -65 -45h-175q-20 0 -31.5 3t-22.5 25.5t-11 65.5q-137 -106 -309 -106q-127 0 -199 37v-402h133q66 0 66 -47q0 -45 -66 -45h-373q-65 0 -65 45z" />
<glyph unicode="&#xb6;" horiz-adv-x="1251" d="M119 958q0 193 147.5 331t360.5 138h512q51 0 51 -24q0 -23 -51 -23h-113v-1738q0 -51 -31 -52q-27 0 -26 52v1738h-187v-1738q0 -51 -26 -52q-29 0 -29 52v843q-111 4 -214 34t-194.5 85t-145.5 147t-54 207z" />
<glyph unicode="&#xb7;" horiz-adv-x="1673" d="M750 627q0 37 24.5 61.5t61 24.5t61.5 -24.5t25 -61.5t-25 -61.5t-61.5 -24.5t-61 24.5t-24.5 61.5z" />
<glyph unicode="&#xb8;" horiz-adv-x="956" d="M299 -393.5q0 22.5 16.5 33t33 12.5t50.5 2q270 0 271 104q0 41 -39 71t-101 32q-45 2 -45 63v70q0 20 2 30.5t14.5 21.5t37.5 11q39 0 47 -22.5t8 -89.5q182 -49 182 -191q0 -55 -30.5 -94t-69.5 -57.5t-108.5 -28.5t-109.5 -11t-112 -1q-16 0 -31.5 11t-15.5 33.5z" />
<glyph unicode="&#xb9;" horiz-adv-x="806" d="M168 1174q0 25 22 24q129 0 205 70q8 6 19 6q29 0 28 -31v-665h156q41 0 41 -27q0 -25 -41 -25h-381q-41 0 -41 25q0 27 41 27h158v612q-94 -39 -174 -39q-33 0 -33 23z" />
<glyph unicode="&#xba;" horiz-adv-x="901" d="M74 963q0 129 109.5 220t267 91t267 -91t109.5 -220t-110.5 -219.5t-266 -90.5t-266 90.5t-110.5 219.5zM139 526.5q0 26.5 45 26.5h533q45 0 45 -26.5t-45 -26.5h-533q-45 0 -45 26.5zM158 973q0 -109 85 -187.5t208 -78.5q121 0 206.5 78.5t85.5 187.5q0 106 -86 178 t-206.5 72t-206.5 -72t-86 -178z" />
<glyph unicode="&#xbb;" horiz-adv-x="1193" d="M248 39q68 221 211 403q-143 188 -211 408q-4 14 4 26.5t22 12.5h35q20 0 29 -21q76 -231 231 -403q16 -20 0 -41q-154 -170 -231 -404q-6 -20 -29 -20h-35q-14 0 -22 12.5t-4 26.5zM616 39q66 217 213 403q-147 193 -213 408q-4 14 5.5 26.5t23.5 12.5h33q20 0 29 -21 q76 -231 231 -403q16 -20 0 -41q-154 -170 -231 -404q-6 -20 -29 -20h-33q-14 0 -23.5 12.5t-5.5 26.5z" />
<glyph unicode="&#xbc;" horiz-adv-x="1720" d="M154 1174q0 25 22 24q129 0 205 70q8 6 18 6q29 0 29 -31v-665h156q41 0 41 -27q0 -25 -41 -25h-381q-41 0 -41 25q0 27 41 27h157v612q-94 -39 -174 -39q-32 0 -32 23zM436 18q0 6 23 39l887 1205q16 20 38 20q37 0 37 -47q0 -16 -18 -41l-887 -1202q-18 -23 -41 -23 q-39 0 -39 49zM905 258q0 14 2 21l346 452q16 20 47 21h46q27 0 37 -7.5t10 -27.5v-451h133q41 0 41 -28q0 -25 -41 -25h-133v-160h108q41 0 41 -28q0 -25 -41 -25h-274q-41 0 -41 25q0 29 41 28h110v160h-399q-33 0 -33 45zM963 266h374v430h-45z" />
<glyph unicode="&#xbd;" horiz-adv-x="1910" d="M150 1174q0 25 22 24q129 0 205 70q8 6 18 6q29 0 29 -31v-665h156q41 0 41 -27q0 -25 -41 -25h-381q-41 0 -41 25q0 27 41 27h157v612q-94 -39 -174 -39q-32 0 -32 23zM459 18q0 6 22 39l887 1205q16 20 39 20q37 0 37 -47q0 -16 -19 -41l-886 -1202q-18 -23 -41 -23 q-39 0 -39 49zM1161 20l15 31l335 230q90 61 136.5 117.5t46.5 121.5q0 88 -75 134t-183 46q-158 0 -205 -116q29 -14 29 -31q0 -39 -49.5 -39t-49.5 43q0 76 79 133.5t202 57.5q135 0 227 -61.5t92 -166.5q0 -111 -127 -213q-131 -104 -368 -256h428q0 33 5 40t30 7 q33 0 32 -35v-30q0 -20 -8 -26.5t-33 -6.5h-516q-43 0 -43 20z" />
<glyph unicode="&#xbe;" horiz-adv-x="1720" d="M127 680q0 39 47 39q49 0 49 -37q0 -18 -26 -33q59 -88 243 -88q109 0 176.5 51.5t67.5 116.5q0 63 -74.5 115.5t-173.5 52.5h-69q-43 0 -43 27q0 29 92 28q18 0 34 1l30 2q15 1 28.5 5.5t29 11.5t29.5 17q72 49 72 121q0 49 -56.5 83t-142.5 34q-115 0 -180 -37l-2 -27 l4 -8q6 -6 6 -12q0 -37 -49 -37t-49 39q0 59 71.5 94t196.5 35q119 0 194 -46t75 -112q0 -109 -156 -190q201 -76 201 -201q0 -86 -88.5 -150.5t-223.5 -64.5t-224 46t-89 124zM436 18q0 6 23 39l887 1205q16 20 38 20q37 0 37 -47q0 -16 -18 -41l-887 -1202 q-18 -23 -41 -23q-39 0 -39 49zM905 258q0 14 2 21l346 452q16 20 47 21h46q27 0 37 -7.5t10 -27.5v-451h133q41 0 41 -28q0 -25 -41 -25h-133v-160h108q41 0 41 -28q0 -25 -41 -25h-274q-41 0 -41 25q0 29 41 28h110v160h-399q-33 0 -33 45zM963 266h374v430h-45z" />
<glyph unicode="&#xbf;" horiz-adv-x="1015" d="M127 -238q0 113 102 187q182 127 183 342v37q0 43 13 55t52 12q45 0 54.5 -17.5t9.5 -74.5q0 -51 -6.5 -89t-28 -97.5t-76.5 -122t-141 -123.5q-55 -43 -56 -109q0 -51 30 -85.5t78 -47t79 -16.5t59 -4q203 0 285 96q-27 31 -27 57q0 33 22.5 54.5t51.5 21.5 q31 0 53.5 -21.5t22.5 -58.5q0 -102 -100.5 -170.5t-307.5 -68.5q-111 0 -187.5 27.5t-109 70.5t-44 77.5t-11.5 67.5zM389 696q0 37 25.5 61.5t62.5 24.5q35 0 60.5 -24.5t25.5 -61.5t-25.5 -61.5t-60.5 -24.5q-37 0 -62.5 24.5t-25.5 61.5z" />
<glyph unicode="&#xc0;" horiz-adv-x="1552" d="M82 47q0 43 65 43h111l404 1129q10 27 27.5 40t29.5 15t37 2h39q25 0 38 -2t29.5 -15.5t26.5 -41.5l403 -1127h111q66 0 65.5 -45t-65.5 -45h-336q-68 0 -68 47q0 43 68 43h113l-99 272h-612l-98 -272h112q68 0 68 -45t-68 -45h-336q-65 0 -65 47zM502 455h547l-265 731 h-22zM571 1528q0 25 16.5 40t39.5 15l32 -8l281 -127q41 -18 41 -45q0 -18 -12.5 -42t-38.5 -24q-4 0 -17 4l-295 132q-47 20 -47 55z" />
<glyph unicode="&#xc1;" horiz-adv-x="1552" d="M82 47q0 43 65 43h111l404 1129q10 27 27.5 40t29.5 15t37 2h39q25 0 38 -2t29.5 -15.5t26.5 -41.5l403 -1127h111q66 0 65.5 -45t-65.5 -45h-336q-68 0 -68 47q0 43 68 43h113l-99 272h-612l-98 -272h112q68 0 68 -45t-68 -45h-336q-65 0 -65 47zM502 455h547l-265 731 h-22zM573 1403q0 27 41 45l281 127l33 8q23 0 39 -15.5t16 -39.5q0 -35 -47 -55l-295 -132q-12 -4 -16 -4q-27 0 -39.5 24t-12.5 42z" />
<glyph unicode="&#xc2;" horiz-adv-x="1552" d="M82 47q0 43 65 43h111l404 1129q10 27 27.5 40t29.5 15t37 2h39q25 0 38 -2t29.5 -15.5t26.5 -41.5l403 -1127h111q66 0 65.5 -45t-65.5 -45h-336q-68 0 -68 47q0 43 68 43h113l-99 272h-612l-98 -272h112q68 0 68 -45t-68 -45h-336q-65 0 -65 47zM487 1362q0 31 27 39 l250 90q14 4 29 0l249 -90q27 -8 27 -39q0 -18 -11 -31.5t-28 -13.5q-10 0 -16 2l-236 72l-235 -72q-6 -2 -17 -2q-16 0 -27.5 13.5t-11.5 31.5zM502 455h547l-265 731h-22z" />
<glyph unicode="&#xc3;" horiz-adv-x="1552" d="M82 47q0 43 65 43h111l404 1129q10 27 27.5 40t29.5 15t37 2h39q25 0 38 -2t29.5 -15.5t26.5 -41.5l403 -1127h111q66 0 65.5 -45t-65.5 -45h-336q-68 0 -68 47q0 43 68 43h113l-99 272h-612l-98 -272h112q68 0 68 -45t-68 -45h-336q-65 0 -65 47zM428 1364q0 31 96 102 q90 66 154 66q47 0 96 -37l53.5 -49t28.5 -21.5t29 -9.5q55 0 159 98q23 18 37 19q18 0 32.5 -15.5t14.5 -33.5q0 -29 -96 -101q-90 -66 -153 -65q-51 0 -97 37q-51 49 -71.5 63.5t-38.5 14.5q-57 0 -160 -97q-18 -18 -36.5 -18t-33 15.5t-14.5 31.5zM502 455h547l-265 731 h-22z" />
<glyph unicode="&#xc4;" horiz-adv-x="1552" d="M82 47q0 43 65 43h111l404 1129q10 27 27.5 40t29.5 15t37 2h39q25 0 38 -2t29.5 -15.5t26.5 -41.5l403 -1127h111q66 0 65.5 -45t-65.5 -45h-336q-68 0 -68 47q0 43 68 43h113l-99 272h-612l-98 -272h112q68 0 68 -45t-68 -45h-336q-65 0 -65 47zM494 1393q0 29 21.5 52 t55.5 23q33 0 54.5 -22.5t21.5 -53t-21.5 -53t-56.5 -22.5q-31 0 -53 22.5t-22 53.5zM502 455h547l-265 731h-22zM909 1393q0 29 21.5 52t56.5 23q33 0 54.5 -22.5t21.5 -53t-21.5 -53t-56.5 -22.5q-31 0 -53.5 22.5t-22.5 53.5z" />
<glyph unicode="&#xc5;" horiz-adv-x="1552" d="M82 47q0 43 65 43h111l404 1129q10 27 27.5 40t29.5 15t37 2h39q25 0 38 -2t29.5 -15.5t26.5 -41.5l403 -1127h111q66 0 65.5 -45t-65.5 -45h-336q-68 0 -68 47q0 43 68 43h113l-99 272h-612l-98 -272h112q68 0 68 -45t-68 -45h-336q-65 0 -65 47zM502 455h547l-265 731 h-22zM549 1415q0 49 67.5 94t161.5 45q88 0 157 -45t69 -94t-68 -94t-162 -45q-88 0 -156.5 45t-68.5 94zM637 1415q0 -33 41 -56.5t98 -23.5q53 0 96 23.5t43 56.5t-40.5 56.5t-98.5 23.5q-53 0 -96 -23.5t-43 -56.5z" />
<glyph unicode="&#xc6;" horiz-adv-x="1910" d="M82 47q0 43 68 43h112l469 1071h-65q-68 0 -68 43q0 47 68 47h1065q41 0 53 -14t12 -53v-154q0 -23 -2 -34t-14.5 -22t-38.5 -11q-35 0 -43 17t-8 50v131h-603v-467h349q0 76 8 98.5t47 22.5q35 0 43 -17.5t8 -49.5v-197q0 -20 -2 -31.5t-13 -24t-36 -12.5 q-39 0 -47 22.5t-8 98.5h-349v-514h662v166q0 20 2 31.5t14.5 24t38.5 12.5q25 0 37 -12.5t14.5 -24t2.5 -31.5v-188q0 -41 -13.5 -54.5t-52.5 -13.5h-895q-68 0 -68 45t68 45h82v297h-471l-129 -297h106q66 0 66 -45t-66 -45h-335q-68 0 -68 47zM547 477h432v684h-129z" />
<glyph unicode="&#xc7;" horiz-adv-x="1552" d="M119 627q0 262 206.5 454.5t512.5 192.5q274 0 454 -141q33 72 66 131q14 10 31 10q43 0 43 -68v-293q0 -23 -2.5 -34t-14.5 -22t-37 -11q-43 0 -51 31q-12 47 -22.5 74.5t-48 74.5t-99.5 84q-127 74 -305 74q-266 0 -446.5 -166t-180.5 -391q0 -227 180.5 -393 t450.5 -166q184 0 307 61q70 33 108 77t45 70.5t9 65.5q2 45 53 45q53 0 54 -51q0 -137 -121 -231.5t-338 -120.5v-41q74 -12 128 -62.5t54 -126.5q0 -55 -30.5 -94t-69.5 -57.5t-108.5 -28.5t-109.5 -11t-112 -1q-16 0 -30.5 11t-14.5 33.5t15.5 33t31.5 12.5t51 2 q270 0 271 104q0 41 -39 71t-99 32q-47 2 -47 63v53h-22q-311 0 -517 193t-206 457z" />
<glyph unicode="&#xc8;" horiz-adv-x="1433" d="M94 45q0 45 66 45h133v1071h-133q-66 0 -66 43q0 47 66 47h1087q41 0 53.5 -14t12.5 -53v-154q0 -23 -2 -34t-14.5 -22t-39.5 -11q-25 0 -37 12t-14 23.5t-2 31.5v131h-805v-467h459q0 76 8 98.5t47 22.5q25 0 37.5 -12t14.5 -23.5t2 -31.5v-197q0 -20 -2 -31.5 t-14.5 -24t-37.5 -12.5q-39 0 -47 22.5t-8 98.5h-459v-514h867v166q0 20 2 31.5t14 24t39 12.5q35 0 43 -17.5t8 -50.5v-188q0 -41 -12 -54.5t-53 -13.5h-1147q-66 0 -66 45zM512 1528q0 25 16.5 40t38.5 15l33 -8l281 -127q41 -18 41 -45q0 -18 -12.5 -42t-39.5 -24 q-4 0 -16 4l-295 132q-47 20 -47 55z" />
<glyph unicode="&#xc9;" horiz-adv-x="1433" d="M94 45q0 45 66 45h133v1071h-133q-66 0 -66 43q0 47 66 47h1087q41 0 53.5 -14t12.5 -53v-154q0 -23 -2 -34t-14.5 -22t-39.5 -11q-25 0 -37 12t-14 23.5t-2 31.5v131h-805v-467h459q0 76 8 98.5t47 22.5q25 0 37.5 -12t14.5 -23.5t2 -31.5v-197q0 -20 -2 -31.5 t-14.5 -24t-37.5 -12.5q-39 0 -47 22.5t-8 98.5h-459v-514h867v166q0 20 2 31.5t14 24t39 12.5q35 0 43 -17.5t8 -50.5v-188q0 -41 -12 -54.5t-53 -13.5h-1147q-66 0 -66 45zM514 1403q0 27 41 45l281 127l32 8q23 0 39.5 -15.5t16.5 -39.5q0 -35 -47 -55l-295 -132 q-12 -4 -17 -4q-27 0 -39 24t-12 42z" />
<glyph unicode="&#xca;" horiz-adv-x="1433" d="M94 45q0 45 66 45h133v1071h-133q-66 0 -66 43q0 47 66 47h1087q41 0 53.5 -14t12.5 -53v-154q0 -23 -2 -34t-14.5 -22t-39.5 -11q-25 0 -37 12t-14 23.5t-2 31.5v131h-805v-467h459q0 76 8 98.5t47 22.5q25 0 37.5 -12t14.5 -23.5t2 -31.5v-197q0 -20 -2 -31.5 t-14.5 -24t-37.5 -12.5q-39 0 -47 22.5t-8 98.5h-459v-514h867v166q0 20 2 31.5t14 24t39 12.5q35 0 43 -17.5t8 -50.5v-188q0 -41 -12 -54.5t-53 -13.5h-1147q-66 0 -66 45zM428 1362q0 31 27 39l250 90q14 4 28 0l250 -90q27 -8 27 -39q0 -18 -11.5 -31.5t-27.5 -13.5 q-10 0 -17 2l-235 72l-236 -72q-6 -2 -16 -2q-16 0 -27.5 13.5t-11.5 31.5z" />
<glyph unicode="&#xcb;" horiz-adv-x="1433" d="M94 45q0 45 66 45h133v1071h-133q-66 0 -66 43q0 47 66 47h1087q41 0 53.5 -14t12.5 -53v-154q0 -23 -2 -34t-14.5 -22t-39.5 -11q-25 0 -37 12t-14 23.5t-2 31.5v131h-805v-467h459q0 76 8 98.5t47 22.5q25 0 37.5 -12t14.5 -23.5t2 -31.5v-197q0 -20 -2 -31.5 t-14.5 -24t-37.5 -12.5q-39 0 -47 22.5t-8 98.5h-459v-514h867v166q0 20 2 31.5t14 24t39 12.5q35 0 43 -17.5t8 -50.5v-188q0 -41 -12 -54.5t-53 -13.5h-1147q-66 0 -66 45zM434 1393q0 29 21.5 52t56.5 23q33 0 54.5 -22.5t21.5 -53t-21.5 -53t-56.5 -22.5 q-31 0 -53.5 22.5t-22.5 53.5zM850 1393q0 29 21.5 52t56.5 23q33 0 54.5 -22.5t21.5 -53t-21.5 -53t-56.5 -22.5q-31 0 -53.5 22.5t-22.5 53.5z" />
<glyph unicode="&#xcc;" horiz-adv-x="716" d="M94 45q0 45 66 45h143v1071h-143q-66 0 -66 43q0 47 66 47h395q66 0 66 -47q0 -43 -66 -43h-143v-1071h143q66 0 66 -45t-66 -45h-395q-66 0 -66 45zM154 1528q0 25 16 40t39 15l33 -8l280 -127q41 -18 41 -45q0 -18 -12 -42t-39 -24q-4 0 -16 4l-295 132q-47 20 -47 55z " />
<glyph unicode="&#xcd;" horiz-adv-x="716" d="M94 45q0 45 66 45h143v1071h-143q-66 0 -66 43q0 47 66 47h395q66 0 66 -47q0 -43 -66 -43h-143v-1071h143q66 0 66 -45t-66 -45h-395q-66 0 -66 45zM156 1403q0 27 41 45l280 127l33 8q23 0 39 -15.5t16 -39.5q0 -35 -47 -55l-295 -132q-12 -4 -16 -4q-27 0 -39 24 t-12 42z" />
<glyph unicode="&#xce;" horiz-adv-x="716" d="M70 1362q0 31 26 39l250 90q14 4 29 0l250 -90q27 -8 26 -39q0 -18 -11 -31.5t-28 -13.5q-10 0 -16 2l-236 72l-235 -72q-6 -2 -16 -2q-16 0 -27.5 13.5t-11.5 31.5zM94 45q0 45 66 45h143v1071h-143q-66 0 -66 43q0 47 66 47h395q66 0 66 -47q0 -43 -66 -43h-143v-1071 h143q66 0 66 -45t-66 -45h-395q-66 0 -66 45z" />
<glyph unicode="&#xcf;" horiz-adv-x="716" d="M76 1393q0 29 21.5 52t56.5 23q33 0 54 -22.5t21 -53t-21.5 -53t-55.5 -22.5q-31 0 -53.5 22.5t-22.5 53.5zM94 45q0 45 66 45h143v1071h-143q-66 0 -66 43q0 47 66 47h395q66 0 66 -47q0 -43 -66 -43h-143v-1071h143q66 0 66 -45t-66 -45h-395q-66 0 -66 45zM492 1393 q0 29 21.5 52t55.5 23q33 0 54.5 -22.5t21.5 -53t-21.5 -53t-56.5 -22.5q-31 0 -53 22.5t-22 53.5z" />
<glyph unicode="&#xd0;" horiz-adv-x="1613" d="M92 45q0 45 66 45h133v490h-144q-20 0 -33.5 13t-13.5 34q0 18 13.5 32.5t33.5 14.5h144v487h-133q-66 0 -66 43q0 47 66 47h678q272 0 464.5 -187t192.5 -450q0 -254 -191.5 -434t-465.5 -180h-678q-66 0 -66 45zM397 90h402q246 0 415.5 154.5t169.5 372t-168.5 381 t-418.5 163.5h-400v-487h410q18 0 32.5 -14.5t14.5 -32.5q0 -20 -14.5 -33.5t-32.5 -13.5h-410v-490z" />
<glyph unicode="&#xd1;" horiz-adv-x="1552" d="M106 45q0 45 66 45h133v1071h-133q-66 0 -66 43q0 47 66 47h201q90 0 127 -61l628 -1100h37v1071h-133q-66 0 -65 43q0 47 65 47h346q66 0 66 -47q0 -43 -66 -43h-133v-1093q0 -41 -14 -54.5t-53 -13.5q-90 0 -127 61l-629 1100h-37v-1071h133q66 0 66 -45t-66 -45h-346 q-66 0 -66 45zM428 1364q0 31 96 102q90 66 154 66q47 0 96 -37l53.5 -49t28.5 -21.5t29 -9.5q55 0 159 98q23 18 37 19q18 0 32.5 -15.5t14.5 -33.5q0 -29 -96 -101q-90 -66 -153 -65q-51 0 -97 37q-51 49 -71.5 63.5t-38.5 14.5q-57 0 -160 -97q-18 -18 -36.5 -18 t-33 15.5t-14.5 31.5z" />
<glyph unicode="&#xd2;" horiz-adv-x="1673" d="M117 627q0 264 209 455.5t510 191.5t509.5 -190.5t208.5 -458.5q0 -262 -208.5 -455t-509.5 -193t-510 191t-209 459zM223 649q0 -238 178.5 -409.5t434.5 -171.5q254 0 433 172t179 409q0 219 -178 377t-434 158t-434.5 -158t-178.5 -377zM631 1528q0 25 16.5 40 t38.5 15l33 -8l280 -127q41 -18 41 -45q0 -18 -12 -42t-39 -24q-4 0 -16 4l-295 132q-47 20 -47 55z" />
<glyph unicode="&#xd3;" horiz-adv-x="1673" d="M117 627q0 264 209 455.5t510 191.5t509.5 -190.5t208.5 -458.5q0 -262 -208.5 -455t-509.5 -193t-510 191t-209 459zM223 649q0 -238 178.5 -409.5t434.5 -171.5q254 0 433 172t179 409q0 219 -178 377t-434 158t-434.5 -158t-178.5 -377zM633 1403q0 27 41 45l280 127 l33 8q23 0 39 -15.5t16 -39.5q0 -35 -47 -55l-295 -132q-12 -4 -16 -4q-27 0 -39 24t-12 42z" />
<glyph unicode="&#xd4;" horiz-adv-x="1673" d="M117 627q0 264 209 455.5t510 191.5t509.5 -190.5t208.5 -458.5q0 -262 -208.5 -455t-509.5 -193t-510 191t-209 459zM223 649q0 -238 178.5 -409.5t434.5 -171.5q254 0 433 172t179 409q0 219 -178 377t-434 158t-434.5 -158t-178.5 -377zM547 1362q0 31 26 39l250 90 q14 4 29 0l250 -90q27 -8 26 -39q0 -18 -11 -31.5t-27 -13.5q-10 0 -17 2l-235 72l-236 -72q-6 -2 -16 -2q-16 0 -27.5 13.5t-11.5 31.5z" />
<glyph unicode="&#xd5;" horiz-adv-x="1673" d="M117 627q0 264 209 455.5t510 191.5t509.5 -190.5t208.5 -458.5q0 -262 -208.5 -455t-509.5 -193t-510 191t-209 459zM223 649q0 -238 178.5 -409.5t434.5 -171.5q254 0 433 172t179 409q0 219 -178 377t-434 158t-434.5 -158t-178.5 -377zM487 1364q0 31 97 102 q90 66 153 66q47 0 97 -37q41 -37 53 -49t28.5 -21.5t28.5 -9.5q55 0 160 98q23 18 37 19q18 0 32.5 -15.5t14.5 -33.5q0 -29 -96 -101q-90 -66 -154 -65q-51 0 -96 37q-51 49 -71.5 63.5t-39.5 14.5q-57 0 -160 -97q-18 -18 -36.5 -18t-33 15.5t-14.5 31.5z" />
<glyph unicode="&#xd6;" horiz-adv-x="1673" d="M117 627q0 264 209 455.5t510 191.5t509.5 -190.5t208.5 -458.5q0 -262 -208.5 -455t-509.5 -193t-510 191t-209 459zM223 649q0 -238 178.5 -409.5t434.5 -171.5q254 0 433 172t179 409q0 219 -178 377t-434 158t-434.5 -158t-178.5 -377zM553 1393q0 29 21.5 52 t56.5 23q33 0 54.5 -22.5t21.5 -53t-21.5 -53t-56.5 -22.5q-31 0 -53.5 22.5t-22.5 53.5zM969 1393q0 29 21.5 52t56.5 23q33 0 54 -22.5t21 -53t-21.5 -53t-56.5 -22.5q-31 0 -53 22.5t-22 53.5z" />
<glyph unicode="&#xd7;" horiz-adv-x="1673" d="M324 1130q37 39 98 -12l414 -416l413 416q51 51 90 21q39 -37 -12 -99l-416 -413l416 -414q51 -51 21 -90q-37 -39 -99 12l-413 416l-414 -416q-57 -49 -90 -20q-39 37 12 98l416 414l-416 413q-49 57 -20 90z" />
<glyph unicode="&#xd8;" horiz-adv-x="1673" d="M117 627q0 264 209 455.5t510 191.5q68 0 153.5 -19.5t131.5 -36t69 -26.5l147 207q23 33 45 33q18 0 34 -13.5t16 -34.5l-21 -41l-143 -196q287 -211 286 -522q0 -262 -208.5 -455t-509.5 -193q-188 0 -353 82l-153 -211q-20 -29 -41 -28q-18 0 -33.5 13t-15.5 34 q0 14 28 53l135 184q-286 212 -286 523zM197 625q0 -137 70.5 -253t187.5 -196l680 944q-168 63 -299 64q-268 0 -453.5 -165t-185.5 -394zM535 131q172 -63 301 -63q268 0 453.5 164.5t185.5 394.5q0 139 -73 255.5t-188 192.5z" />
<glyph unicode="&#xd9;" horiz-adv-x="1552" d="M92 1204q0 47 66 47h372q66 0 66 -47q0 -43 -66 -43h-131v-733q0 -172 116 -266t261 -94q139 0 257 93t118 267v733h-133q-63 0 -64 43q0 47 64 47h375q66 0 65 -47q0 -43 -65 -43h-133v-745q0 -186 -141.5 -312.5t-344.5 -126.5q-199 0 -341 125t-142 314v745h-133 q-66 0 -66 43zM618 1528q0 25 16.5 40t39.5 15l33 -8l280 -127q41 -18 41 -45q0 -18 -12 -42t-39 -24q-4 0 -16 4l-295 132q-48 20 -48 55z" />
<glyph unicode="&#xda;" horiz-adv-x="1552" d="M92 1204q0 47 66 47h372q66 0 66 -47q0 -43 -66 -43h-131v-733q0 -172 116 -266t261 -94q139 0 257 93t118 267v733h-133q-63 0 -64 43q0 47 64 47h375q66 0 65 -47q0 -43 -65 -43h-133v-745q0 -186 -141.5 -312.5t-344.5 -126.5q-199 0 -341 125t-142 314v745h-133 q-66 0 -66 43zM621 1403q0 27 41 45l280 127l33 8q23 0 39 -15.5t16 -39.5q0 -35 -47 -55l-295 -132q-12 -4 -16 -4q-27 0 -39 24t-12 42z" />
<glyph unicode="&#xdb;" horiz-adv-x="1552" d="M92 1204q0 47 66 47h372q66 0 66 -47q0 -43 -66 -43h-131v-733q0 -172 116 -266t261 -94q139 0 257 93t118 267v733h-133q-63 0 -64 43q0 47 64 47h375q66 0 65 -47q0 -43 -65 -43h-133v-745q0 -186 -141.5 -312.5t-344.5 -126.5q-199 0 -341 125t-142 314v745h-133 q-66 0 -66 43zM535 1362q0 31 26 39l250 90q14 4 29 0l250 -90q27 -8 26 -39q0 -18 -11 -31.5t-28 -13.5q-10 0 -16 2l-236 72l-235 -72q-6 -2 -17 -2q-16 0 -27 13.5t-11 31.5z" />
<glyph unicode="&#xdc;" horiz-adv-x="1552" d="M92 1204q0 47 66 47h372q66 0 66 -47q0 -43 -66 -43h-131v-733q0 -172 116 -266t261 -94q139 0 257 93t118 267v733h-133q-63 0 -64 43q0 47 64 47h375q66 0 65 -47q0 -43 -65 -43h-133v-745q0 -186 -141.5 -312.5t-344.5 -126.5q-199 0 -341 125t-142 314v745h-133 q-66 0 -66 43zM541 1393q0 29 21.5 52t55.5 23q33 0 54.5 -22.5t21.5 -53t-21.5 -53t-56.5 -22.5q-31 0 -53 22.5t-22 53.5zM956 1393q0 29 21.5 52t56.5 23q33 0 54.5 -22.5t21.5 -53t-21.5 -53t-56.5 -22.5q-31 0 -53.5 22.5t-22.5 53.5z" />
<glyph unicode="&#xdd;" horiz-adv-x="1552" d="M59 1206q0 45 68 45h328q68 0 67 -47q0 -43 -67 -43h-86l405 -549l408 549h-86q-68 0 -68 45t68 45h327q68 0 68 -47q0 -43 -68 -43h-110l-484 -659v-412h134q66 0 65.5 -45t-65.5 -45h-375q-66 0 -66 45t66 45h133v412l-483 659h-111q-68 0 -68 45zM573 1403q0 27 41 45 l281 127l33 8q23 0 39 -15.5t16 -39.5q0 -35 -47 -55l-295 -132q-12 -4 -16 -4q-27 0 -39.5 24t-12.5 42z" />
<glyph unicode="&#xde;" horiz-adv-x="1433" d="M94 45q0 45 66 45h133v1071h-133q-66 0 -66 43q0 47 66 47h372q66 0 66 -47q0 -43 -66 -43h-133v-168h410q213 0 358.5 -108.5t145.5 -258t-145.5 -258t-358.5 -108.5h-410v-170h133q66 0 66 -45t-66 -45h-372q-66 0 -66 45zM399 350h375q180 0 305 83t125 193.5 t-125 193.5t-305 83h-375v-553z" />
<glyph unicode="&#xdf;" d="M39 45q0 45 65 45h134v690h-134q-66 0 -65 45q0 47 65 47h134v166q0 66 36.5 113t95 69.5t114 33t110.5 10.5q147 0 250.5 -58.5t103.5 -152.5q0 -131 -192 -236q254 -180 254 -467q0 -160 -111 -261t-256 -101q-94 0 -145.5 41t-51.5 98q0 33 19.5 51.5t48.5 18.5 q33 0 51 -27q12 -16 13 -76q33 -16 65 -16q98 0 178 74.5t80 197.5q0 53 -16.5 116.5t-52 135.5t-112.5 122t-181 56q-33 16 -33 45q0 43 41 47q152 4 222.5 63.5t70.5 115.5q0 45 -73 84t-175 39q-88 0 -164 -31q-57 -25 -70.5 -49.5t-13.5 -69.5v-956q0 -41 -12.5 -54.5 t-52.5 -13.5h-175q-65 0 -65 45z" />
<glyph unicode="&#xe0;" horiz-adv-x="1044" d="M115 252q0 137 161.5 214t452.5 81q0 254 -278 254q-133 0 -134 -45q-2 -41 -24.5 -59.5t-48.5 -18.5q-33 0 -54.5 20.5t-21.5 57.5q0 135 281 135q193 0 291 -92t98 -217v-467q53 -25 135 -25q66 0 65 -43q0 -23 -13 -33t-27.5 -12t-43.5 -2q-53 0 -83.5 3t-69.5 20.5 t-64 52.5q-121 -88 -303 -88q-141 0 -230 77.5t-89 186.5zM223 252q0 -70 63.5 -122t164.5 -52q109 0 184 35q43 20 65.5 47.5t25.5 48t3 55.5v197q-256 -8 -381 -68.5t-125 -140.5zM317 1196q0 25 16.5 40t39.5 15l33 -8l280 -127q41 -18 41 -45q0 -18 -12.5 -41.5 t-38.5 -23.5q-4 0 -17 4l-294 131q-48 20 -48 55z" />
<glyph unicode="&#xe1;" horiz-adv-x="1044" d="M115 252q0 137 161.5 214t452.5 81q0 254 -278 254q-133 0 -134 -45q-2 -41 -24.5 -59.5t-48.5 -18.5q-33 0 -54.5 20.5t-21.5 57.5q0 135 281 135q193 0 291 -92t98 -217v-467q53 -25 135 -25q66 0 65 -43q0 -23 -13 -33t-27.5 -12t-43.5 -2q-53 0 -83.5 3t-69.5 20.5 t-64 52.5q-121 -88 -303 -88q-141 0 -230 77.5t-89 186.5zM223 252q0 -70 63.5 -122t164.5 -52q109 0 184 35q43 20 65.5 47.5t25.5 48t3 55.5v197q-256 -8 -381 -68.5t-125 -140.5zM319 1071q0 27 41 45l281 127l33 8q23 0 39 -15t16 -40q0 -35 -47 -55l-295 -131 q-12 -4 -16 -4q-27 0 -39.5 23.5t-12.5 41.5z" />
<glyph unicode="&#xe2;" horiz-adv-x="1044" d="M115 252q0 137 161.5 214t452.5 81q0 254 -278 254q-133 0 -134 -45q-2 -41 -24.5 -59.5t-48.5 -18.5q-33 0 -54.5 20.5t-21.5 57.5q0 135 281 135q193 0 291 -92t98 -217v-467q53 -25 135 -25q66 0 65 -43q0 -23 -13 -33t-27.5 -12t-43.5 -2q-53 0 -83.5 3t-69.5 20.5 t-64 52.5q-121 -88 -303 -88q-141 0 -230 77.5t-89 186.5zM223 252q0 -70 63.5 -122t164.5 -52q109 0 184 35q43 20 65.5 47.5t25.5 48t3 55.5v197q-256 -8 -381 -68.5t-125 -140.5zM231 1051q-4 23 21 36l254 158q18 10 37 0l254 -158q25 -14 20 -36q0 -16 -12 -29.5 t-31 -13.5q-10 0 -22 6l-228 137l-227 -137q-12 -6 -23 -6q-18 0 -30.5 13.5t-12.5 29.5z" />
<glyph unicode="&#xe3;" horiz-adv-x="1044" d="M115 252q0 137 161.5 214t452.5 81q0 254 -278 254q-133 0 -134 -45q-2 -41 -24.5 -59.5t-48.5 -18.5q-33 0 -54.5 20.5t-21.5 57.5q0 135 281 135q193 0 291 -92t98 -217v-467q53 -25 135 -25q66 0 65 -43q0 -23 -13 -33t-27.5 -12t-43.5 -2q-53 0 -83.5 3t-69.5 20.5 t-64 52.5q-121 -88 -303 -88q-141 0 -230 77.5t-89 186.5zM174 1069q0 31 96 102q90 66 154 66q47 0 96 -37l53.5 -49t28.5 -21.5t29 -9.5q55 0 160 99q23 18 36 18q18 0 32.5 -15.5t14.5 -33.5q0 -29 -96 -101q-90 -66 -153 -65q-51 0 -97 37q-51 49 -71.5 63.5t-38.5 14.5 q-57 0 -160 -97q-18 -18 -36.5 -18t-33 15.5t-14.5 31.5zM223 252q0 -70 63.5 -122t164.5 -52q109 0 184 35q43 20 65.5 47.5t25.5 48t3 55.5v197q-256 -8 -381 -68.5t-125 -140.5z" />
<glyph unicode="&#xe4;" horiz-adv-x="1044" d="M115 252q0 137 161.5 214t452.5 81q0 254 -278 254q-133 0 -134 -45q-2 -41 -24.5 -59.5t-48.5 -18.5q-33 0 -54.5 20.5t-21.5 57.5q0 135 281 135q193 0 291 -92t98 -217v-467q53 -25 135 -25q66 0 65 -43q0 -23 -13 -33t-27.5 -12t-43.5 -2q-53 0 -83.5 3t-69.5 20.5 t-64 52.5q-121 -88 -303 -88q-141 0 -230 77.5t-89 186.5zM223 252q0 -70 63.5 -122t164.5 -52q109 0 184 35q43 20 65.5 47.5t25.5 48t3 55.5v197q-256 -8 -381 -68.5t-125 -140.5zM270 1128q0 29 21.5 52.5t56.5 23.5q33 0 55.5 -22.5t22.5 -53t-22.5 -53t-57.5 -22.5 q-29 0 -52.5 22t-23.5 53zM623 1128q0 29 22.5 52.5t56.5 23.5q31 0 53.5 -22.5t22.5 -53t-21.5 -53t-56.5 -22.5q-31 0 -54 22t-23 53z" />
<glyph unicode="&#xe5;" horiz-adv-x="1044" d="M115 252q0 137 161.5 214t452.5 81q0 254 -278 254q-133 0 -134 -45q-2 -41 -24.5 -59.5t-48.5 -18.5q-33 0 -54.5 20.5t-21.5 57.5q0 135 281 135q193 0 291 -92t98 -217v-467q53 -25 135 -25q66 0 65 -43q0 -23 -13 -33t-27.5 -12t-43.5 -2q-53 0 -83.5 3t-69.5 20.5 t-64 52.5q-121 -88 -303 -88q-141 0 -230 77.5t-89 186.5zM223 252q0 -70 63.5 -122t164.5 -52q109 0 184 35q43 20 65.5 47.5t25.5 48t3 55.5v197q-256 -8 -381 -68.5t-125 -140.5zM295 1147q0 49 67.5 94t161.5 45q88 0 157 -45t69 -94t-68 -94t-162 -45q-88 0 -156.5 45 t-68.5 94zM383 1147q0 -33 41 -56.5t98 -23.5q53 0 96.5 23.5t43.5 56.5t-41 56.5t-99 23.5q-53 0 -96 -23.5t-43 -56.5z" />
<glyph unicode="&#xe6;" horiz-adv-x="1552" d="M106 229q0 242 615 258v82q0 113 -73 172.5t-206 59.5q-16 0 -82 -4q-37 -4 -44 -11.5t-7 -29.5q-2 -41 -24.5 -59.5t-48.5 -18.5q-33 0 -54.5 20.5t-21.5 57.5q0 135 280 135q248 0 361 -182q152 182 338 182q168 0 261 -119t93 -307q0 -29 -10 -43t-20.5 -16.5 t-35.5 -2.5h-598q25 -150 126.5 -237.5t228.5 -87.5q147 0 207 147q10 27 49 27q53 0 53 -41q0 -59 -86 -141t-236 -82q-207 0 -364 182q-86 -182 -381 -182q-143 0 -231.5 71.5t-88.5 169.5zM215 231q0 -63 64.5 -108t164.5 -45q106 0 185 33q102 41 102 139l-8 149 q-205 -6 -305 -30q-203 -60 -203 -138zM831 492h553q-10 139 -69.5 224t-175.5 85q-104 0 -192.5 -84t-115.5 -225z" />
<glyph unicode="&#xe7;" horiz-adv-x="956" d="M98 436q0 72 26 146.5t77 146.5t147 117t219 45q297 0 297 -135q0 -35 -22.5 -56.5t-55.5 -21.5q-72 0 -73 84q0 16 -50.5 27.5t-95.5 11.5q-104 0 -181 -41t-113.5 -103.5t-52 -118t-15.5 -102.5q0 -150 103.5 -254t246.5 -104q166 0 233 155q14 18 46 19q55 0 55 -41 t-60.5 -112.5t-187.5 -102.5v-51q184 -49 184 -191q0 -55 -30.5 -94t-69.5 -57.5t-108.5 -28.5t-109.5 -11t-112 -1q-16 0 -31.5 11t-15.5 33.5t16.5 33t33 12.5t51.5 2q268 0 268 104q0 41 -38 71t-99 32q-45 2 -45 63v62q-193 12 -315 142t-122 308z" />
<glyph unicode="&#xe8;" horiz-adv-x="956" d="M84 440q0 184 124 317.5t300 133.5q180 0 280.5 -121t100.5 -307q0 -29 -10.5 -42t-21.5 -15.5t-34 -2.5h-630q25 -150 128 -237.5t232 -87.5q170 0 233 149q10 25 48 25q55 0 55 -41q0 -59 -92 -141t-256 -82q-190 0 -323.5 132t-133.5 320zM195 492h583 q-25 309 -270 309q-113 0 -199.5 -84t-113.5 -225zM272 1196q0 25 16.5 40t39.5 15l32 -8l281 -127q41 -18 41 -45q0 -18 -12.5 -41.5t-38.5 -23.5q-4 0 -17 4l-295 131q-47 20 -47 55z" />
<glyph unicode="&#xe9;" horiz-adv-x="956" d="M84 440q0 184 124 317.5t300 133.5q180 0 280.5 -121t100.5 -307q0 -29 -10.5 -42t-21.5 -15.5t-34 -2.5h-630q25 -150 128 -237.5t232 -87.5q170 0 233 149q10 25 48 25q55 0 55 -41q0 -59 -92 -141t-256 -82q-190 0 -323.5 132t-133.5 320zM195 492h583 q-25 309 -270 309q-113 0 -199.5 -84t-113.5 -225zM274 1071q0 27 41 45l281 127l33 8q23 0 39 -15t16 -40q0 -35 -47 -55l-295 -131q-12 -4 -16 -4q-27 0 -39.5 23.5t-12.5 41.5z" />
<glyph unicode="&#xea;" horiz-adv-x="956" d="M84 440q0 184 124 317.5t300 133.5q180 0 280.5 -121t100.5 -307q0 -29 -10.5 -42t-21.5 -15.5t-34 -2.5h-630q25 -150 128 -237.5t232 -87.5q170 0 233 149q10 25 48 25q55 0 55 -41q0 -59 -92 -141t-256 -82q-190 0 -323.5 132t-133.5 320zM186 1051q-4 23 21 36 l254 158q18 10 37 0l254 -158q25 -14 20 -36q0 -16 -12 -29.5t-31 -13.5q-10 0 -22 6l-228 137l-227 -137q-12 -6 -23 -6q-18 0 -30.5 13.5t-12.5 29.5zM195 492h583q-25 309 -270 309q-113 0 -199.5 -84t-113.5 -225z" />
<glyph unicode="&#xeb;" horiz-adv-x="956" d="M84 440q0 184 124 317.5t300 133.5q180 0 280.5 -121t100.5 -307q0 -29 -10.5 -42t-21.5 -15.5t-34 -2.5h-630q25 -150 128 -237.5t232 -87.5q170 0 233 149q10 25 48 25q55 0 55 -41q0 -59 -92 -141t-256 -82q-190 0 -323.5 132t-133.5 320zM195 492h583 q-25 309 -270 309q-113 0 -199.5 -84t-113.5 -225zM225 1128q0 29 21.5 52.5t56.5 23.5q33 0 55.5 -22.5t22.5 -53t-22.5 -53t-57.5 -22.5q-29 0 -52.5 22t-23.5 53zM578 1128q0 29 22.5 52.5t56.5 23.5q31 0 53.5 -22.5t22.5 -53t-21.5 -53t-56.5 -22.5q-31 0 -54 22 t-23 53z" />
<glyph unicode="&#xec;" horiz-adv-x="598" d="M45 45q0 45 66 45h133v690h-123q-68 0 -68 47q0 45 68 45h166q41 0 53 -14t12 -53v-715h111q68 0 67.5 -45t-65.5 -45h-354q-66 0 -66 45zM92 1196q0 25 16.5 40t38.5 15l33 -8l281 -127q41 -18 41 -45q0 -18 -12.5 -41.5t-38.5 -23.5q-4 0 -17 4l-295 131q-47 20 -47 55 z" />
<glyph unicode="&#xed;" horiz-adv-x="598" d="M45 45q0 45 66 45h133v690h-123q-68 0 -68 47q0 45 68 45h166q41 0 53 -14t12 -53v-715h111q68 0 67.5 -45t-65.5 -45h-354q-66 0 -66 45zM94 1071q0 27 41 45l281 127l33 8q23 0 39 -15t16 -40q0 -35 -47 -55l-295 -131q-12 -4 -17 -4q-27 0 -39 23.5t-12 41.5z" />
<glyph unicode="&#xee;" horiz-adv-x="598" d="M6 1051q-4 23 21 36l254 158q18 10 36 0l254 -158q25 -14 21 -36q0 -16 -12.5 -29.5t-30.5 -13.5q-10 0 -23 6l-227 137l-227 -137q-12 -6 -23 -6q-18 0 -30.5 13.5t-12.5 29.5zM45 45q0 45 66 45h133v690h-123q-68 0 -68 47q0 45 68 45h166q41 0 53 -14t12 -53v-715h111 q68 0 67.5 -45t-65.5 -45h-354q-66 0 -66 45z" />
<glyph unicode="&#xef;" horiz-adv-x="598" d="M45 45q0 45 66 45h133v690h-123q-68 0 -68 47q0 45 68 45h166q41 0 53 -14t12 -53v-715h111q68 0 67.5 -45t-65.5 -45h-354q-66 0 -66 45zM45 1128q0 29 21.5 52.5t56.5 23.5q33 0 55.5 -22.5t22.5 -53t-22.5 -53t-57.5 -22.5q-29 0 -52.5 22t-23.5 53zM397 1128 q0 29 22.5 52.5t57.5 23.5q31 0 53.5 -22.5t22.5 -53t-21.5 -53t-56.5 -22.5q-31 0 -54.5 22t-23.5 53z" />
<glyph unicode="&#xf0;" d="M82 436.5q0 186.5 133 320.5t322 134q172 0 340 -148q-23 276 -105 416l-129 -108q-14 -10 -31 -11q-18 0 -32.5 13.5t-14.5 33.5q0 23 17 35l127 107q-84 51 -170 51q-23 0 -39.5 16.5t-16.5 39t16.5 39t39.5 16.5q135 0 243 -97l133 111q14 10 31 10q18 0 32.5 -13 t14.5 -32q0 -25 -16 -37l-135 -110q150 -250 149 -787q0 -186 -135 -317q-131 -131 -319.5 -131t-321.5 131t-133 317.5zM190 451q0 -152 100.5 -262.5t246.5 -110.5q143 0 244.5 110.5t101.5 262.5q0 150 -102.5 250t-244 100t-244 -100t-102.5 -250z" />
<glyph unicode="&#xf1;" horiz-adv-x="1193" d="M37 45q0 45 65 45h134v690h-134q-66 0 -65 45q0 47 65 47h174q47 0 56.5 -23.5t9.5 -109.5q158 145 330 146q285 0 284 -289v-506h134q66 0 65.5 -45t-65.5 -45h-373q-66 0 -66 47q0 43 66 43h133v492q0 109 -38 160t-153 51q-51 0 -102 -16.5t-101 -50.5t-82 -97.5 t-32 -147.5v-391h133q66 0 66 -45t-66 -45h-373q-65 0 -65 45zM248 1069q0 31 96 102q90 66 154 66q47 0 96 -37q41 -37 53 -49t28.5 -21.5t29.5 -9.5q55 0 159 99q23 18 37 18q18 0 32.5 -15.5t14.5 -33.5q0 -29 -96 -101q-90 -66 -154 -65q-51 0 -96 37q-51 49 -71.5 63.5 t-38.5 14.5q-57 0 -160 -97q-18 -18 -37 -18t-33 15.5t-14 31.5z" />
<glyph unicode="&#xf2;" d="M82 436.5q0 186.5 133 320.5t321.5 134t321.5 -134t133 -320.5t-133 -317.5t-321.5 -131t-321.5 131t-133 317.5zM190 451q0 -152 100.5 -262.5t246.5 -110.5q143 0 244.5 110.5t101.5 262.5q0 150 -102.5 250t-244 100t-244 -100t-102.5 -250zM332 1196q0 25 16.5 40 t38.5 15l33 -8l280 -127q41 -18 41 -45q0 -18 -12 -41.5t-39 -23.5q-4 0 -16 4l-295 131q-47 20 -47 55z" />
<glyph unicode="&#xf3;" d="M82 436.5q0 186.5 133 320.5t321.5 134t321.5 -134t133 -320.5t-133 -317.5t-321.5 -131t-321.5 131t-133 317.5zM190 451q0 -152 100.5 -262.5t246.5 -110.5q143 0 244.5 110.5t101.5 262.5q0 150 -102.5 250t-244 100t-244 -100t-102.5 -250zM334 1071q0 27 41 45 l280 127l33 8q23 0 39 -15t16 -40q0 -35 -47 -55l-295 -131q-12 -4 -16 -4q-27 0 -39 23.5t-12 41.5z" />
<glyph unicode="&#xf4;" d="M82 436.5q0 186.5 133 320.5t321.5 134t321.5 -134t133 -320.5t-133 -317.5t-321.5 -131t-321.5 131t-133 317.5zM190 451q0 -152 100.5 -262.5t246.5 -110.5q143 0 244.5 110.5t101.5 262.5q0 150 -102.5 250t-244 100t-244 -100t-102.5 -250zM246 1051q-4 23 20 36 l254 158q18 10 37 0l254 -158q25 -14 20 -36q0 -16 -12 -29.5t-31 -13.5q-10 0 -22 6l-227 137l-228 -137q-12 -6 -22 -6q-18 0 -30.5 13.5t-12.5 29.5z" />
<glyph unicode="&#xf5;" d="M82 436.5q0 186.5 133 320.5t321.5 134t321.5 -134t133 -320.5t-133 -317.5t-321.5 -131t-321.5 131t-133 317.5zM188 1069q0 31 97 102q90 66 153 66q47 0 97 -37q41 -37 53 -49t28.5 -21.5t28.5 -9.5q55 0 160 99q23 18 37 18q18 0 32.5 -15.5t14.5 -33.5 q0 -29 -96 -101q-90 -66 -154 -65q-51 0 -96 37q-51 49 -71.5 63.5t-39.5 14.5q-57 0 -160 -97q-18 -18 -36.5 -18t-33 15.5t-14.5 31.5zM190 451q0 -152 100.5 -262.5t246.5 -110.5q143 0 244.5 110.5t101.5 262.5q0 150 -102.5 250t-244 100t-244 -100t-102.5 -250z" />
<glyph unicode="&#xf6;" d="M82 436.5q0 186.5 133 320.5t321.5 134t321.5 -134t133 -320.5t-133 -317.5t-321.5 -131t-321.5 131t-133 317.5zM190 451q0 -152 100.5 -262.5t246.5 -110.5q143 0 244.5 110.5t101.5 262.5q0 150 -102.5 250t-244 100t-244 -100t-102.5 -250zM285 1128q0 29 21.5 52.5 t55.5 23.5q33 0 55.5 -22.5t22.5 -53t-22.5 -53t-57.5 -22.5q-29 0 -52 22t-23 53zM637 1128q0 29 22.5 52.5t57.5 23.5q31 0 53.5 -22.5t22.5 -53t-21.5 -53t-56.5 -22.5q-31 0 -54.5 22t-23.5 53z" />
<glyph unicode="&#xf7;" horiz-adv-x="1673" d="M117 626.5q0 55.5 88 55.5h1261q88 0 88 -55.5t-75 -55.5h-1286q-76 0 -76 55.5zM750 260q0 35 24.5 60.5t61 25.5t61.5 -25.5t25 -60.5q0 -37 -25 -62.5t-61.5 -25.5t-61 25.5t-24.5 62.5zM750 993q0 37 24.5 62.5t61 25.5t61.5 -25.5t25 -62.5q0 -35 -25 -60.5 t-61.5 -25.5t-61 25.5t-24.5 60.5z" />
<glyph unicode="&#xf8;" d="M94 -252q0 20 33 72l147 254q-176 154 -176 362q0 186 128 320.5t311 134.5q82 0 188 -43l166 289q18 31 41 30q14 0 30.5 -12t16.5 -33l-12 -35l-166 -286q174 -162 174 -365q0 -186 -129 -317t-309 -131q-88 0 -183 41l-180 -308q-12 -16 -33 -16q-14 0 -30.5 12.5 t-16.5 30.5zM178 436q0 -158 139 -286l361 622q-84 29 -141 29q-147 0 -253 -107.5t-106 -257.5zM399 102q76 -25 138 -24q147 0 252.5 104.5t105.5 253.5q0 166 -139 287z" />
<glyph unicode="&#xf9;" horiz-adv-x="1193" d="M37 825q0 47 65 47h174q41 0 53.5 -14t12.5 -53v-569q0 -37 4 -56.5t21.5 -47.5t63.5 -41t122 -13q41 0 82 7t94 28.5t87 73t34 124.5v469h-133q-66 0 -66 47q0 45 66 45h174q41 0 53 -14t12 -53v-715h134q66 0 65.5 -45t-65.5 -45h-175q-20 0 -31.5 3t-22.5 25.5 t-11 65.5q-137 -106 -309 -106q-305 0 -305 235v557h-134q-65 0 -65 45zM391 1196q0 25 16.5 40t38.5 15l33 -8l281 -127q41 -18 41 -45q0 -18 -12.5 -41.5t-38.5 -23.5q-4 0 -17 4l-295 131q-47 20 -47 55z" />
<glyph unicode="&#xfa;" horiz-adv-x="1193" d="M37 825q0 47 65 47h174q41 0 53.5 -14t12.5 -53v-569q0 -37 4 -56.5t21.5 -47.5t63.5 -41t122 -13q41 0 82 7t94 28.5t87 73t34 124.5v469h-133q-66 0 -66 47q0 45 66 45h174q41 0 53 -14t12 -53v-715h134q66 0 65.5 -45t-65.5 -45h-175q-20 0 -31.5 3t-22.5 25.5 t-11 65.5q-137 -106 -309 -106q-305 0 -305 235v557h-134q-65 0 -65 45zM393 1071q0 27 41 45l281 127l33 8q23 0 39 -15t16 -40q0 -35 -47 -55l-295 -131q-12 -4 -17 -4q-27 0 -39 23.5t-12 41.5z" />
<glyph unicode="&#xfb;" horiz-adv-x="1193" d="M37 825q0 47 65 47h174q41 0 53.5 -14t12.5 -53v-569q0 -37 4 -56.5t21.5 -47.5t63.5 -41t122 -13q41 0 82 7t94 28.5t87 73t34 124.5v469h-133q-66 0 -66 47q0 45 66 45h174q41 0 53 -14t12 -53v-715h134q66 0 65.5 -45t-65.5 -45h-175q-20 0 -31.5 3t-22.5 25.5 t-11 65.5q-137 -106 -309 -106q-305 0 -305 235v557h-134q-65 0 -65 45zM305 1051q-4 23 21 36l254 158q18 10 36 0l254 -158q25 -14 21 -36q0 -16 -12.5 -29.5t-30.5 -13.5q-10 0 -23 6l-227 137l-227 -137q-12 -6 -23 -6q-18 0 -30.5 13.5t-12.5 29.5z" />
<glyph unicode="&#xfc;" horiz-adv-x="1193" d="M37 825q0 47 65 47h174q41 0 53.5 -14t12.5 -53v-569q0 -37 4 -56.5t21.5 -47.5t63.5 -41t122 -13q41 0 82 7t94 28.5t87 73t34 124.5v469h-133q-66 0 -66 47q0 45 66 45h174q41 0 53 -14t12 -53v-715h134q66 0 65.5 -45t-65.5 -45h-175q-20 0 -31.5 3t-22.5 25.5 t-11 65.5q-137 -106 -309 -106q-305 0 -305 235v557h-134q-65 0 -65 45zM344 1128q0 29 21.5 52.5t56.5 23.5q33 0 55.5 -22.5t22.5 -53t-22.5 -53t-57.5 -22.5q-29 0 -52.5 22t-23.5 53zM696 1128q0 29 22.5 52.5t57.5 23.5q31 0 53.5 -22.5t22.5 -53t-21.5 -53 t-56.5 -22.5q-31 0 -54.5 22t-23.5 53z" />
<glyph unicode="&#xfd;" horiz-adv-x="1134" d="M43 -328q0 35 20.5 54.5t55.5 19.5q29 0 50 -20.5t21 -53.5q0 -10 -2 -20t-2 -12q0 -12 17.5 -21.5t32.5 -9.5q66 0 118 27.5t82.5 71.5t45 75t24.5 61l47 138l-326 798h-98q-68 0 -68 47q0 45 68 45h295q66 0 65 -47q0 -45 -65 -45h-109l279 -710l231 710h-112 q-66 0 -66 45q0 47 66 47h297q66 0 65 -47q0 -45 -65 -45h-97l-331 -968q-39 -113 -131.5 -203t-219.5 -90q-82 0 -135 45t-53 108zM365 1071q0 27 41 45l280 127l33 8q23 0 39 -15t16 -40q0 -35 -47 -55l-295 -131q-12 -4 -16 -4q-27 0 -39 23.5t-12 41.5z" />
<glyph unicode="&#xfe;" horiz-adv-x="1193" d="M37 -424q0 47 65 47h134v1538h-134q-66 0 -65 43q0 47 65 47h174q41 0 53.5 -13t12.5 -54v-436q158 137 326 137q180 0 305 -132t125 -317q0 -188 -135.5 -318t-317.5 -130q-160 0 -303 153v-518h133q66 0 66 -47q0 -45 -66 -45h-373q-65 0 -65 45zM342 393 q0 -109 82 -212t213 -103q141 0 247.5 103.5t106.5 254.5q0 145 -96 251t-240 106q-121 0 -217 -77t-96 -181v-142z" />
<glyph unicode="&#xff;" horiz-adv-x="1134" d="M43 -328q0 35 20.5 54.5t55.5 19.5q29 0 50 -20.5t21 -53.5q0 -10 -2 -20t-2 -12q0 -12 17.5 -21.5t32.5 -9.5q66 0 118 27.5t82.5 71.5t45 75t24.5 61l47 138l-326 798h-98q-68 0 -68 47q0 45 68 45h295q66 0 65 -47q0 -45 -65 -45h-109l279 -710l231 710h-112 q-66 0 -66 45q0 47 66 47h297q66 0 65 -47q0 -45 -65 -45h-97l-331 -968q-39 -113 -131.5 -203t-219.5 -90q-82 0 -135 45t-53 108zM315 1128q0 29 21.5 52.5t56.5 23.5q33 0 55.5 -22.5t22.5 -53t-22.5 -53t-57.5 -22.5q-29 0 -52.5 22t-23.5 53zM668 1128q0 29 22.5 52.5 t57.5 23.5q31 0 53 -22.5t22 -53t-21.5 -53t-56.5 -22.5q-31 0 -54 22t-23 53z" />
<glyph unicode="&#x100;" horiz-adv-x="1552" d="M82 47q0 43 65 43h111l404 1129q10 27 27.5 40t29.5 15t37 2h39q25 0 38 -2t29.5 -15.5t26.5 -41.5l403 -1127h111q66 0 65.5 -45t-65.5 -45h-336q-68 0 -68 47q0 43 68 43h113l-99 272h-612l-98 -272h112q68 0 68 -45t-68 -45h-336q-65 0 -65 47zM399 1405q0 47 64 47 h631q63 0 63 -49q0 -45 -63 -45h-627q-68 0 -68 47zM502 455h547l-265 731h-22z" />
<glyph unicode="&#x101;" horiz-adv-x="1044" d="M115 252q0 137 161.5 214t452.5 81q0 254 -278 254q-133 0 -134 -45q-2 -41 -24.5 -59.5t-48.5 -18.5q-33 0 -54.5 20.5t-21.5 57.5q0 135 281 135q193 0 291 -92t98 -217v-467q53 -25 135 -25q66 0 65 -43q0 -23 -13 -33t-27.5 -12t-43.5 -2q-53 0 -83.5 3t-69.5 20.5 t-64 52.5q-121 -88 -303 -88q-141 0 -230 77.5t-89 186.5zM145 1128.5q0 47.5 64 47.5h631q63 0 63 -50q0 -45 -63 -45h-627q-68 0 -68 47.5zM223 252q0 -70 63.5 -122t164.5 -52q109 0 184 35q43 20 65.5 47.5t25.5 48t3 55.5v197q-256 -8 -381 -68.5t-125 -140.5z" />
<glyph unicode="&#x102;" horiz-adv-x="1552" d="M82 47q0 43 65 43h111l404 1129q10 27 27.5 40t29.5 15t37 2h39q25 0 38 -2t29.5 -15.5t26.5 -41.5l403 -1127h111q66 0 65.5 -45t-65.5 -45h-336q-68 0 -68 47q0 43 68 43h113l-99 272h-612l-98 -272h112q68 0 68 -45t-68 -45h-336q-65 0 -65 47zM426 1491q0 47 47 47 q27 0 39 -25q18 -80 266 -79.5t266 79.5q12 25 39 25q47 0 47 -47q0 -43 -25.5 -75t-58 -46t-90 -22.5t-90 -9.5t-88 -1t-88.5 1t-90 9.5t-90 22.5t-58.5 46t-25.5 75zM502 455h547l-265 731h-22z" />
<glyph unicode="&#x103;" horiz-adv-x="1044" d="M115 252q0 137 161.5 214t452.5 81q0 254 -278 254q-133 0 -134 -45q-2 -41 -24.5 -59.5t-48.5 -18.5q-33 0 -54.5 20.5t-21.5 57.5q0 135 281 135q193 0 291 -92t98 -217v-467q53 -25 135 -25q66 0 65 -43q0 -23 -13 -33t-27.5 -12t-43.5 -2q-53 0 -83.5 3t-69.5 20.5 t-64 52.5q-121 -88 -303 -88q-141 0 -230 77.5t-89 186.5zM172 1182q0 47 47 47q27 0 39 -25q18 -80 266 -80t267 80q12 25 38 25q47 0 48 -47q0 -43 -26 -75t-58.5 -46t-90 -22.5t-90 -9.5t-88 -1t-88.5 1t-90 9.5t-90 22.5t-58.5 46t-25.5 75zM223 252q0 -70 63.5 -122 t164.5 -52q109 0 184 35q43 20 65.5 47.5t25.5 48t3 55.5v197q-256 -8 -381 -68.5t-125 -140.5z" />
<glyph unicode="&#x104;" horiz-adv-x="1552" d="M82 47q0 43 65 43h111l404 1129q10 27 27.5 40t29.5 15t37 2h39q25 0 38 -2t29.5 -15.5t26.5 -41.5l403 -1127h111q66 0 65.5 -45t-65.5 -45h-76q-197 -115 -197 -252q0 -43 37 -71.5t76 -28.5q66 0 127 84q31 25 53 8q27 -23 9 -49q-86 -119 -197 -119 q-86 0 -138.5 56.5t-52.5 123.5q0 74 38 130.5t135 117.5h-150q-68 0 -68 47q0 43 68 43h113l-99 272h-612l-98 -272h112q68 0 68 -45t-68 -45h-336q-65 0 -65 47zM502 455h547l-265 731h-20z" />
<glyph unicode="&#x105;" horiz-adv-x="1044" d="M115 252q0 137 161.5 214t452.5 81q0 254 -278 254q-133 0 -134 -45q-2 -41 -24.5 -59.5t-48.5 -18.5q-33 0 -54.5 20.5t-21.5 57.5q0 135 281 135q193 0 291 -92t98 -217v-467q53 -25 135 -25q66 0 65 -43q0 -23 -13 -33t-28.5 -12t-46.5 -2q-213 -125 -213 -252 q0 -43 37 -71.5t76 -28.5q66 0 127 84q31 25 53 8q27 -23 8 -49q-86 -119 -196 -119q-86 0 -138.5 56.5t-52.5 123.5q0 135 187 254q-45 18 -63.5 30.5t-35.5 39.5q-125 -88 -305 -88q-141 0 -230 77.5t-89 186.5zM223 252q0 -70 63.5 -122t164.5 -52q109 0 184 35 q43 20 65.5 47.5t25.5 48t3 55.5v197q-256 -8 -381 -68.5t-125 -140.5z" />
<glyph unicode="&#x106;" horiz-adv-x="1552" d="M119 627q0 262 206.5 454.5t512.5 192.5q274 0 454 -141q33 72 66 131q14 10 31 10q43 0 43 -68v-293q0 -23 -2.5 -34t-14.5 -22t-37 -11q-43 0 -51 31q-12 47 -22.5 74.5t-48 74.5t-99.5 84q-127 74 -305 74q-266 0 -446.5 -166t-180.5 -391q0 -227 180.5 -393 t450.5 -166q184 0 307 61q70 33 108 77t45 70.5t9 65.5q2 45 53 45q53 0 54 -51q0 -158 -160 -258.5t-430 -100.5q-311 0 -517 193t-206 457zM651 1403q0 27 41 45l281 127l33 8q23 0 39 -15.5t16 -39.5q0 -35 -47 -55l-295 -132q-12 -4 -17 -4q-27 0 -39 24t-12 42z" />
<glyph unicode="&#x107;" horiz-adv-x="956" d="M98 436q0 72 26 146.5t77 146.5t147 117t219 45q297 0 297 -135q0 -35 -22.5 -56.5t-55.5 -21.5q-74 0 -73 84q0 16 -50.5 27.5t-95.5 11.5q-104 0 -181 -41t-113.5 -103.5t-52 -118t-15.5 -102.5q0 -150 103.5 -254t246.5 -104q166 0 233 155q14 18 46 19q55 0 55 -41 q0 -16 -16.5 -49t-51.5 -74t-108.5 -70.5t-169.5 -29.5q-188 0 -316.5 132t-128.5 316zM324 1071q0 27 41 45l280 127l33 8q23 0 39 -15t16 -40q0 -35 -47 -55l-295 -131q-12 -4 -16 -4q-27 0 -39 23.5t-12 41.5z" />
<glyph unicode="&#x108;" horiz-adv-x="1552" d="M119 627q0 262 206.5 454.5t512.5 192.5q274 0 454 -141q33 72 66 131q14 10 31 10q43 0 43 -68v-293q0 -23 -2.5 -34t-14.5 -22t-37 -11q-43 0 -51 31q-12 47 -22.5 74.5t-48 74.5t-99.5 84q-127 74 -305 74q-266 0 -446.5 -166t-180.5 -391q0 -227 180.5 -393 t450.5 -166q184 0 307 61q70 33 108 77t45 70.5t9 65.5q2 45 53 45q53 0 54 -51q0 -158 -160 -258.5t-430 -100.5q-311 0 -517 193t-206 457zM565 1362q0 31 27 39l250 90q14 4 28 0l250 -90q27 -8 27 -39q0 -18 -11.5 -31.5t-27.5 -13.5q-10 0 -16 2l-236 72l-235 -72 q-6 -2 -17 -2q-16 0 -27.5 13.5t-11.5 31.5z" />
<glyph unicode="&#x109;" horiz-adv-x="956" d="M98 436q0 72 26 146.5t77 146.5t147 117t219 45q297 0 297 -135q0 -35 -22.5 -56.5t-55.5 -21.5q-74 0 -73 84q0 16 -50.5 27.5t-95.5 11.5q-104 0 -181 -41t-113.5 -103.5t-52 -118t-15.5 -102.5q0 -150 103.5 -254t246.5 -104q166 0 233 155q14 18 46 19q55 0 55 -41 q0 -16 -16.5 -49t-51.5 -74t-108.5 -70.5t-169.5 -29.5q-188 0 -316.5 132t-128.5 316zM236 1051q-4 23 20 36l254 158q18 10 37 0l254 -158q25 -14 20 -36q0 -16 -12 -29.5t-31 -13.5q-10 0 -22 6l-228 137l-227 -137q-12 -6 -22 -6q-18 0 -30.5 13.5t-12.5 29.5z" />
<glyph unicode="&#x10a;" horiz-adv-x="1552" d="M119 627q0 262 206.5 454.5t512.5 192.5q274 0 454 -141q33 72 66 131q14 10 31 10q43 0 43 -68v-293q0 -23 -2.5 -34t-14.5 -22t-37 -11q-43 0 -51 31q-12 47 -22.5 74.5t-48 74.5t-99.5 84q-127 74 -305 74q-266 0 -446.5 -166t-180.5 -391q0 -227 180.5 -393 t450.5 -166q184 0 307 61q70 33 108 77t45 70.5t9 65.5q2 45 53 45q53 0 54 -51q0 -158 -160 -258.5t-430 -100.5q-311 0 -517 193t-206 457zM766 1425.5q0 34.5 24.5 60t63.5 25.5q35 0 60.5 -25.5t25.5 -60t-24.5 -60.5t-63.5 -26q-35 0 -60.5 26t-25.5 60.5z" />
<glyph unicode="&#x10b;" horiz-adv-x="956" d="M98 436q0 72 26 146.5t77 146.5t147 117t219 45q297 0 297 -135q0 -35 -22.5 -56.5t-55.5 -21.5q-74 0 -73 84q0 16 -50.5 27.5t-95.5 11.5q-104 0 -181 -41t-113.5 -103.5t-52 -118t-15.5 -102.5q0 -150 103.5 -254t246.5 -104q166 0 233 155q14 18 46 19q55 0 55 -41 q0 -16 -16.5 -49t-51.5 -74t-108.5 -70.5t-169.5 -29.5q-188 0 -316.5 132t-128.5 316zM438 1128.5q0 34.5 24.5 60t63.5 25.5q35 0 60.5 -25.5t25.5 -60t-24.5 -60.5t-63.5 -26q-35 0 -60.5 26t-25.5 60.5z" />
<glyph unicode="&#x10c;" horiz-adv-x="1552" d="M119 627q0 262 206.5 454.5t512.5 192.5q274 0 454 -141q33 72 66 131q14 10 31 10q43 0 43 -68v-293q0 -23 -2.5 -34t-14.5 -22t-37 -11q-43 0 -51 31q-12 47 -22.5 74.5t-48 74.5t-99.5 84q-127 74 -305 74q-266 0 -446.5 -166t-180.5 -391q0 -227 180.5 -393 t450.5 -166q184 0 307 61q70 33 108 77t45 70.5t9 65.5q2 45 53 45q53 0 54 -51q0 -158 -160 -258.5t-430 -100.5q-311 0 -517 193t-206 457zM565 1448q0 18 11.5 31.5t27.5 13.5q10 0 17 -2l235 -72l236 72q6 2 16 2q16 0 27.5 -13.5t11.5 -31.5q0 -31 -27 -39l-250 -90 q-14 -4 -28 0l-250 90q-27 8 -27 39z" />
<glyph unicode="&#x10d;" horiz-adv-x="956" d="M98 436q0 72 26 146.5t77 146.5t147 117t219 45q297 0 297 -135q0 -35 -22.5 -56.5t-55.5 -21.5q-74 0 -73 84q0 16 -50.5 27.5t-95.5 11.5q-104 0 -181 -41t-113.5 -103.5t-52 -118t-15.5 -102.5q0 -150 103.5 -254t246.5 -104q166 0 233 155q14 18 46 19q55 0 55 -41 q0 -16 -16.5 -49t-51.5 -74t-108.5 -70.5t-169.5 -29.5q-188 0 -316.5 132t-128.5 316zM236 1208q0 16 12 29.5t31 13.5q10 0 22 -6l227 -137l228 137q12 6 22 6q18 0 30.5 -13t12.5 -30q4 -23 -20 -37l-254 -157q-18 -10 -37 0l-254 157q-24 14 -20 37z" />
<glyph unicode="&#x10e;" horiz-adv-x="1613" d="M92 45q0 45 66 45h133v1071h-133q-66 0 -66 43q0 47 66 47h678q272 0 464.5 -187t192.5 -450q0 -254 -191.5 -434t-465.5 -180h-678q-66 0 -66 45zM324 1448q0 18 11 31.5t27 13.5q10 0 17 -2l235 -72l236 72q6 2 16 2q16 0 27.5 -13.5t11.5 -31.5q0 -31 -26 -39 l-250 -90q-14 -4 -29 0l-250 90q-26 8 -26 39zM397 90h402q246 0 415.5 154.5t169.5 372t-168.5 381t-418.5 163.5h-400v-1071z" />
<glyph unicode="&#x10f;" horiz-adv-x="1193" d="M94 434q0 188 133 319.5t320 131.5q154 0 303 -131v407h-133q-66 0 -66 45t66 45h174q41 0 53 -14t12 -53v-1094h134q66 0 65.5 -45t-65.5 -45h-175q-41 0 -53 13.5t-12 54.5v86q-125 -166 -326 -166q-178 0 -304 131t-126 315zM201 434q0 -145 98 -250.5t236 -105.5 q133 0 224 103.5t91 215.5v140q0 100 -87 178t-206 78q-145 0 -250.5 -104.5t-105.5 -254.5zM1036 942q0 6 17 29q70 55 77 159q-80 6 -79 64q0 23 17 40t42 17q80 0 80 -121q0 -86 -46 -151.5t-77 -65.5q-12 0 -21.5 9.5t-9.5 19.5z" />
<glyph unicode="&#x110;" horiz-adv-x="1613" d="M92 45q0 45 66 45h133v490h-144q-20 0 -33.5 13t-13.5 34q0 18 13.5 32.5t33.5 14.5h144v487h-133q-66 0 -66 43q0 47 66 47h678q272 0 464.5 -187t192.5 -450q0 -254 -191.5 -434t-465.5 -180h-678q-66 0 -66 45zM397 90h402q246 0 415.5 154.5t169.5 372t-168.5 381 t-418.5 163.5h-400v-487h410q18 0 32.5 -14.5t14.5 -32.5q0 -20 -14.5 -33.5t-32.5 -13.5h-410v-490z" />
<glyph unicode="&#x111;" horiz-adv-x="1193" d="M94 434q0 188 133 319.5t320 131.5q154 0 303 -131v215h-377q-18 0 -31.5 13t-13.5 34q0 18 13.5 31.5t31.5 13.5h377v100h-133q-66 0 -66 45t66 45h174q41 0 53 -14t12 -53v-123h144q20 0 33.5 -13.5t13.5 -31.5q0 -20 -13.5 -33.5t-33.5 -13.5h-144v-879h134 q66 0 65.5 -45t-65.5 -45h-175q-41 0 -53 13.5t-12 54.5v34l-33 15q-119 -129 -293 -129q-178 0 -304 131t-126 315zM201 434q0 -145 98 -250.5t236 -105.5q133 0 224 103.5t91 215.5v140q0 100 -87 178t-206 78q-145 0 -250.5 -104.5t-105.5 -254.5z" />
<glyph unicode="&#x112;" horiz-adv-x="1433" d="M94 45q0 45 66 45h133v1071h-133q-66 0 -66 43q0 47 66 47h1087q41 0 53.5 -14t12.5 -53v-154q0 -23 -2 -34t-14.5 -22t-39.5 -11q-25 0 -37 12t-14 23.5t-2 31.5v131h-805v-467h459q0 76 8 98.5t47 22.5q25 0 37.5 -12t14.5 -23.5t2 -31.5v-197q0 -20 -2 -31.5 t-14.5 -24t-37.5 -12.5q-39 0 -47 22.5t-8 98.5h-459v-514h867v166q0 20 2 31.5t14 24t39 12.5q35 0 43 -17.5t8 -50.5v-188q0 -41 -12 -54.5t-53 -13.5h-1147q-66 0 -66 45zM340 1405q0 47 63 47h631q63 0 64 -49q0 -45 -64 -45h-626q-68 0 -68 47z" />
<glyph unicode="&#x113;" horiz-adv-x="956" d="M84 440q0 184 124 317.5t300 133.5q180 0 280.5 -121t100.5 -307q0 -29 -10.5 -42t-21.5 -15.5t-34 -2.5h-630q25 -150 128 -237.5t232 -87.5q170 0 233 149q10 25 48 25q55 0 55 -41q0 -59 -92 -141t-256 -82q-190 0 -323.5 132t-133.5 320zM100 1128.5q0 47.5 64 47.5 h631q63 0 63 -50q0 -45 -63 -45h-627q-68 0 -68 47.5zM195 492h583q-25 309 -270 309q-113 0 -199.5 -84t-113.5 -225z" />
<glyph unicode="&#x114;" horiz-adv-x="1433" d="M94 45q0 45 66 45h133v1071h-133q-66 0 -66 43q0 47 66 47h1087q41 0 53.5 -14t12.5 -53v-154q0 -23 -2 -34t-14.5 -22t-39.5 -11q-25 0 -37 12t-14 23.5t-2 31.5v131h-805v-467h459q0 76 8 98.5t47 22.5q25 0 37.5 -12t14.5 -23.5t2 -31.5v-197q0 -20 -2 -31.5 t-14.5 -24t-37.5 -12.5q-39 0 -47 22.5t-8 98.5h-459v-514h867v166q0 20 2 31.5t14 24t39 12.5q35 0 43 -17.5t8 -50.5v-188q0 -41 -12 -54.5t-53 -13.5h-1147q-66 0 -66 45zM367 1491q0 47 47 47q27 0 39 -25q18 -80 266 -79.5t266 79.5q12 25 39 25q47 0 47 -47 q0 -43 -25.5 -75t-58.5 -46t-90 -22.5t-90 -9.5t-88 -1t-88 1t-90.5 9.5t-90 22.5t-58 46t-25.5 75z" />
<glyph unicode="&#x115;" horiz-adv-x="956" d="M84 440q0 184 124 317.5t300 133.5q180 0 280.5 -121t100.5 -307q0 -29 -10.5 -42t-21.5 -15.5t-34 -2.5h-630q25 -150 128 -237.5t232 -87.5q170 0 233 149q10 25 48 25q55 0 55 -41q0 -59 -92 -141t-256 -82q-190 0 -323.5 132t-133.5 320zM127 1182q0 47 47 47 q27 0 39 -25q18 -80 266 -80t266 80q12 25 39 25q47 0 47 -47q0 -43 -25.5 -75t-58 -46t-90 -22.5t-90 -9.5t-88 -1t-88.5 1t-90 9.5t-90 22.5t-58.5 46t-25.5 75zM195 492h583q-25 309 -270 309q-113 0 -199.5 -84t-113.5 -225z" />
<glyph unicode="&#x116;" horiz-adv-x="1433" d="M94 45q0 45 66 45h133v1071h-133q-66 0 -66 43q0 47 66 47h1087q41 0 53.5 -14t12.5 -53v-154q0 -23 -2 -34t-14.5 -22t-39.5 -11q-25 0 -37 12t-14 23.5t-2 31.5v131h-805v-467h459q0 76 8 98.5t47 22.5q25 0 37.5 -12t14.5 -23.5t2 -31.5v-197q0 -20 -2 -31.5 t-14.5 -24t-37.5 -12.5q-39 0 -47 22.5t-8 98.5h-459v-514h867v166q0 20 2 31.5t14 24t39 12.5q35 0 43 -17.5t8 -50.5v-188q0 -41 -12 -54.5t-53 -13.5h-1147q-66 0 -66 45zM629 1425.5q0 34.5 24.5 60t63.5 25.5q35 0 60.5 -25.5t25.5 -60t-24.5 -60.5t-63.5 -26 q-35 0 -60.5 26t-25.5 60.5z" />
<glyph unicode="&#x117;" horiz-adv-x="956" d="M84 440q0 184 124 317.5t300 133.5q180 0 280.5 -121t100.5 -307q0 -29 -10.5 -42t-21.5 -15.5t-34 -2.5h-630q25 -150 128 -237.5t232 -87.5q170 0 233 149q10 25 48 25q55 0 55 -41q0 -59 -92 -141t-256 -82q-190 0 -323.5 132t-133.5 320zM195 492h583 q-25 309 -270 309q-113 0 -199.5 -84t-113.5 -225zM391 1128.5q0 34.5 24.5 60t63.5 25.5q35 0 60.5 -25.5t25.5 -60t-24.5 -60.5t-63.5 -26q-35 0 -60.5 26t-25.5 60.5z" />
<glyph unicode="&#x118;" horiz-adv-x="1433" d="M94 45q0 45 66 45h133v1071h-133q-66 0 -66 43q0 47 66 47h1087q41 0 53.5 -14t12.5 -53v-154q0 -23 -2 -34t-14.5 -22t-39.5 -11q-25 0 -37 12t-14 23.5t-2 31.5v131h-805v-467h459q0 76 8 98.5t47 22.5q25 0 37.5 -12t14.5 -23.5t2 -31.5v-197q0 -20 -2 -31.5 t-14.5 -24t-37.5 -12.5q-39 0 -47 22.5t-8 98.5h-459v-514h867v166q0 20 2 31.5t14 24t39 12.5q35 0 43 -17.5t8 -50.5v-188q0 -41 -12 -54.5t-53 -13.5h-103q-199 -115 -198 -252q0 -43 36.5 -71.5t75.5 -28.5q66 0 127 84q31 25 53 8q27 -23 9 -49q-86 -119 -197 -119 q-86 0 -138 56.5t-52 123.5q0 74 36.5 130.5t133.5 117.5h-930q-66 0 -66 45z" />
<glyph unicode="&#x119;" horiz-adv-x="956" d="M84 440q0 184 124 317.5t300 133.5q180 0 280.5 -121t100.5 -307q0 -29 -10.5 -42t-21.5 -15.5t-34 -2.5h-630q25 -150 128 -237.5t232 -87.5q170 0 233 149q10 25 48 25q55 0 55 -41q0 -20 -18.5 -57t-43.5 -58q-53 -41 -122 -80l-68 -36q-78 -49 -125 -114t-47 -118 q0 -43 37 -71.5t73 -28.5q68 0 130 84q33 27 53 8q25 -20 6 -49q-82 -119 -197 -119q-84 0 -136 56.5t-52 123.5q0 70 36 123t124 111q-209 25 -332 151.5t-123 302.5zM195 492h583q-25 309 -270 309q-113 0 -199.5 -84t-113.5 -225z" />
<glyph unicode="&#x11a;" horiz-adv-x="1433" d="M94 45q0 45 66 45h133v1071h-133q-66 0 -66 43q0 47 66 47h1087q41 0 53.5 -14t12.5 -53v-154q0 -23 -2 -34t-14.5 -22t-39.5 -11q-25 0 -37 12t-14 23.5t-2 31.5v131h-805v-467h459q0 76 8 98.5t47 22.5q25 0 37.5 -12t14.5 -23.5t2 -31.5v-197q0 -20 -2 -31.5 t-14.5 -24t-37.5 -12.5q-39 0 -47 22.5t-8 98.5h-459v-514h867v166q0 20 2 31.5t14 24t39 12.5q35 0 43 -17.5t8 -50.5v-188q0 -41 -12 -54.5t-53 -13.5h-1147q-66 0 -66 45zM428 1448q0 18 11.5 31.5t27.5 13.5q10 0 16 -2l236 -72l235 72q6 2 17 2q16 0 27.5 -13.5 t11.5 -31.5q0 -31 -27 -39l-250 -90q-14 -4 -28 0l-250 90q-27 8 -27 39z" />
<glyph unicode="&#x11b;" horiz-adv-x="956" d="M84 440q0 184 124 317.5t300 133.5q180 0 280.5 -121t100.5 -307q0 -29 -10.5 -42t-21.5 -15.5t-34 -2.5h-630q25 -150 128 -237.5t232 -87.5q170 0 233 149q10 25 48 25q55 0 55 -41q0 -59 -92 -141t-256 -82q-190 0 -323.5 132t-133.5 320zM186 1208q0 16 12.5 29.5 t30.5 13.5q10 0 23 -6l227 -137l228 137q12 6 22 6q18 0 30.5 -13t12.5 -30q4 -23 -20 -37l-254 -157q-18 -10 -37 0l-254 157q-25 14 -21 37zM195 492h583q-25 309 -270 309q-113 0 -199.5 -84t-113.5 -225z" />
<glyph unicode="&#x11c;" horiz-adv-x="1673" d="M117 627q0 262 206.5 454.5t512.5 192.5q279 0 454 -141q33 74 68 131q10 10 28 10q45 0 46 -68v-293q0 -23 -2.5 -34t-14.5 -22t-39 -11q-41 0 -51 31q-12 47 -22.5 74.5t-48 74.5t-99.5 84q-127 74 -305 74q-264 0 -445.5 -165t-181.5 -394q0 -227 181.5 -392 t437.5 -165q178 0 311 101t168 271h-209q-66 0 -65 47q0 45 65 45h406q68 0 67 -47q0 -45 -67 -45h-86v-372q0 -20 -2.5 -31.5t-14.5 -24t-37 -12.5q-27 0 -39 11.5t-14 22.5t-2 34v120q-215 -211 -492 -211q-297 0 -505.5 191t-208.5 459zM547 1362q0 31 26 39l250 90 q14 4 29 0l250 -90q27 -8 26 -39q0 -18 -11 -31.5t-27 -13.5q-10 0 -17 2l-235 72l-236 -72q-6 -2 -16 -2q-16 0 -27.5 13.5t-11.5 31.5z" />
<glyph unicode="&#x11d;" d="M63 -193q0 158 166 256q-57 76 -57 158q0 80 47 146q-74 90 -74 198q0 129 96.5 224.5t233.5 95.5q102 0 205 -68q106 78 223 78q68 0 101.5 -28.5t33.5 -65.5q0 -33 -20.5 -50.5t-44.5 -17.5q-18 0 -38 16.5t-30 55.5q-92 -8 -164 -49q63 -100 64 -191 q0 -133 -96.5 -226t-233.5 -93q-106 0 -199 61q-23 -55 -22 -88l6 -33q6 -33 23 -55q33 -37 82 -37q18 -4 63 -4h150q201 0 296 -59q70 -35 103 -97.5t33 -126.5q0 -125 -138.5 -207.5t-335 -82.5t-335 81.5t-138.5 208.5zM147 -193q0 -78 114 -140t275.5 -62t275.5 62.5 t114 139.5q0 55 -29 94.5t-69 60t-107.5 31.5t-116.5 13t-125 2q-123 0 -158.5 -5t-76.5 -32q-97 -60 -97 -164zM172 1051q-4 23 21 36l253 158q18 10 37 0l254 -158q25 -14 21 -36q0 -16 -12.5 -29.5t-30.5 -13.5q-10 0 -23 6l-227 137l-227 -137q-12 -6 -23 -6 q-18 0 -30.5 13.5t-12.5 29.5zM254 563q0 -94 64.5 -161.5t156.5 -67.5t156.5 66.5t64.5 164.5q0 94 -64.5 162t-156.5 68q-90 0 -155.5 -68t-65.5 -164z" />
<glyph unicode="&#x11e;" horiz-adv-x="1673" d="M117 627q0 262 206.5 454.5t512.5 192.5q279 0 454 -141q33 74 68 131q10 10 28 10q45 0 46 -68v-293q0 -23 -2.5 -34t-14.5 -22t-39 -11q-41 0 -51 31q-12 47 -22.5 74.5t-48 74.5t-99.5 84q-127 74 -305 74q-264 0 -445.5 -165t-181.5 -394q0 -227 181.5 -392 t437.5 -165q178 0 311 101t168 271h-209q-66 0 -65 47q0 45 65 45h406q68 0 67 -47q0 -45 -67 -45h-86v-372q0 -20 -2.5 -31.5t-14.5 -24t-37 -12.5q-27 0 -39 11.5t-14 22.5t-2 34v120q-215 -211 -492 -211q-297 0 -505.5 191t-208.5 459zM485 1491q0 47 47 47q27 0 39 -25 q18 -80 266 -79.5t267 79.5q12 25 39 25q47 0 47 -47q0 -43 -25.5 -75t-58.5 -46t-90.5 -22.5t-90 -9.5t-88 -1t-88 1t-90 9.5t-90 22.5t-58.5 46t-26 75z" />
<glyph unicode="&#x11f;" d="M63 -193q0 158 166 256q-57 76 -57 158q0 80 47 146q-74 90 -74 198q0 129 96.5 224.5t233.5 95.5q102 0 205 -68q106 78 223 78q68 0 101.5 -28.5t33.5 -65.5q0 -33 -20.5 -50.5t-44.5 -17.5q-18 0 -38 16.5t-30 55.5q-92 -8 -164 -49q63 -100 64 -191 q0 -133 -96.5 -226t-233.5 -93q-106 0 -199 61q-23 -55 -22 -88l6 -33q6 -33 23 -55q33 -37 82 -37q18 -4 63 -4h150q201 0 296 -59q70 -35 103 -97.5t33 -126.5q0 -125 -138.5 -207.5t-335 -82.5t-335 81.5t-138.5 208.5zM113 1182q0 47 47 47q27 0 39 -25q18 -80 266 -80 t266 80q12 25 39 25q47 0 47 -47q0 -43 -25.5 -75t-58.5 -46t-90 -22.5t-90 -9.5t-88 -1t-88 1t-90.5 9.5t-90 22.5t-58 46t-25.5 75zM147 -193q0 -78 114 -140t275.5 -62t275.5 62.5t114 139.5q0 55 -29 94.5t-69 60t-107.5 31.5t-116.5 13t-125 2q-123 0 -158.5 -5 t-76.5 -32q-97 -60 -97 -164zM254 563q0 -94 64.5 -161.5t156.5 -67.5t156.5 66.5t64.5 164.5q0 94 -64.5 162t-156.5 68q-90 0 -155.5 -68t-65.5 -164z" />
<glyph unicode="&#x120;" horiz-adv-x="1673" d="M117 627q0 262 206.5 454.5t512.5 192.5q279 0 454 -141q33 74 68 131q10 10 28 10q45 0 46 -68v-293q0 -23 -2.5 -34t-14.5 -22t-39 -11q-41 0 -51 31q-12 47 -22.5 74.5t-48 74.5t-99.5 84q-127 74 -305 74q-264 0 -445.5 -165t-181.5 -394q0 -227 181.5 -392 t437.5 -165q178 0 311 101t168 271h-209q-66 0 -65 47q0 45 65 45h406q68 0 67 -47q0 -45 -67 -45h-86v-372q0 -20 -2.5 -31.5t-14.5 -24t-37 -12.5q-27 0 -39 11.5t-14 22.5t-2 34v120q-215 -211 -492 -211q-297 0 -505.5 191t-208.5 459zM750 1425.5q0 34.5 24.5 60 t63.5 25.5q35 0 60.5 -25.5t25.5 -60t-25 -60.5t-63 -26q-35 0 -60.5 26t-25.5 60.5z" />
<glyph unicode="&#x121;" d="M63 -193q0 158 166 256q-57 76 -57 158q0 80 47 146q-74 90 -74 198q0 129 96.5 224.5t233.5 95.5q102 0 205 -68q106 78 223 78q68 0 101.5 -28.5t33.5 -65.5q0 -33 -20.5 -50.5t-44.5 -17.5q-18 0 -38 16.5t-30 55.5q-92 -8 -164 -49q63 -100 64 -191 q0 -133 -96.5 -226t-233.5 -93q-106 0 -199 61q-23 -55 -22 -88l6 -33q6 -33 23 -55q33 -37 82 -37q18 -4 63 -4h150q201 0 296 -59q70 -35 103 -97.5t33 -126.5q0 -125 -138.5 -207.5t-335 -82.5t-335 81.5t-138.5 208.5zM147 -193q0 -78 114 -140t275.5 -62t275.5 62.5 t114 139.5q0 55 -29 94.5t-69 60t-107.5 31.5t-116.5 13t-125 2q-123 0 -158.5 -5t-76.5 -32q-97 -60 -97 -164zM254 563q0 -94 64.5 -161.5t156.5 -67.5t156.5 66.5t64.5 164.5q0 94 -64.5 162t-156.5 68q-90 0 -155.5 -68t-65.5 -164zM375 1128.5q0 34.5 24.5 60 t63.5 25.5q35 0 60.5 -25.5t25.5 -60t-24.5 -60.5t-63.5 -26q-35 0 -60.5 26t-25.5 60.5z" />
<glyph unicode="&#x122;" horiz-adv-x="1673" d="M117 627q0 262 206.5 454.5t512.5 192.5q279 0 454 -141q33 74 68 131q10 10 28 10q45 0 46 -68v-293q0 -23 -2.5 -34t-14.5 -22t-39 -11q-41 0 -51 31q-12 47 -22.5 74.5t-48 74.5t-99.5 84q-127 74 -305 74q-264 0 -445.5 -165t-181.5 -394q0 -227 181.5 -392 t437.5 -165q178 0 311 101t168 271h-209q-66 0 -65 47q0 45 65 45h406q68 0 67 -47q0 -45 -67 -45h-86v-372q0 -20 -2.5 -31.5t-14.5 -24t-37 -12.5q-27 0 -39 11.5t-14 22.5t-2 34v120q-215 -211 -492 -211q-297 0 -505.5 191t-208.5 459zM760 -418q0 6 16 29q70 55 78 160 q-80 6 -80 63q0 23 16.5 40t43.5 17q80 0 79 -120q0 -86 -46 -151.5t-76 -65.5q-12 0 -21.5 9t-9.5 19z" />
<glyph unicode="&#x123;" d="M63 -193q0 158 166 256q-57 76 -57 158q0 80 47 146q-74 90 -74 198q0 129 96.5 224.5t233.5 95.5q102 0 205 -68q106 78 223 78q68 0 101.5 -28.5t33.5 -65.5q0 -33 -20.5 -50.5t-44.5 -17.5q-18 0 -38 16.5t-30 55.5q-92 -8 -164 -49q63 -100 64 -191 q0 -133 -96.5 -226t-233.5 -93q-106 0 -199 61q-23 -55 -22 -88l6 -33q6 -33 23 -55q33 -37 82 -37q18 -4 63 -4h150q201 0 296 -59q70 -35 103 -97.5t33 -126.5q0 -125 -138.5 -207.5t-335 -82.5t-335 81.5t-138.5 208.5zM147 -193q0 -78 114 -140t275.5 -62t275.5 62.5 t114 139.5q0 55 -29 94.5t-69 60t-107.5 31.5t-116.5 13t-125 2q-123 0 -158.5 -5t-76.5 -32q-97 -60 -97 -164zM254 563q0 -94 64.5 -161.5t156.5 -67.5t156.5 66.5t64.5 164.5q0 94 -64.5 162t-156.5 68q-90 0 -155.5 -68t-65.5 -164zM387 1090q0 86 46 151.5t77 65.5 q12 0 21.5 -9.5t9.5 -19.5q0 -6 -17 -29q-70 -55 -78 -159q80 -6 80 -64q0 -23 -17 -40t-42 -17q-80 0 -80 121z" />
<glyph unicode="&#x124;" horiz-adv-x="1552" d="M92 45q0 45 66 45h133v1071h-133q-66 0 -66 43q0 47 66 47h372q66 0 66 -47q0 -43 -66 -43h-131v-465h752v465h-133q-63 0 -64 43q0 47 64 47h375q66 0 65 -47q0 -43 -65 -43h-133v-1071h133q66 0 65.5 -45t-65.5 -45h-375q-63 0 -63.5 45t63.5 45h133v516h-752v-516h131 q66 0 66 -45t-66 -45h-372q-66 0 -66 45zM487 1362q0 31 27 39l250 90q14 4 29 0l249 -90q27 -8 27 -39q0 -18 -11 -31.5t-28 -13.5q-10 0 -16 2l-236 72l-235 -72q-6 -2 -17 -2q-16 0 -27.5 13.5t-11.5 31.5z" />
<glyph unicode="&#x125;" horiz-adv-x="1193" d="M37 45q0 45 65 45h134v1071h-134q-66 0 -65 43q0 47 65 47h174q41 0 53.5 -13t12.5 -54v-445q158 145 330 146q285 0 284 -289v-506h134q66 0 65.5 -45t-65.5 -45h-373q-66 0 -66 47q0 43 66 43h133v492q0 109 -38 160t-153 51q-51 0 -102 -16.5t-101 -50.5t-82 -97.5 t-32 -147.5v-391h133q66 0 66 -45t-66 -45h-373q-65 0 -65 45zM307 1362q0 31 27 39l250 90q14 4 28 0l250 -90q27 -8 27 -39q0 -18 -11.5 -31.5t-27.5 -13.5q-10 0 -16 2l-236 72l-236 -72q-6 -2 -16 -2q-16 0 -27.5 13.5t-11.5 31.5z" />
<glyph unicode="&#x126;" horiz-adv-x="1552" d="M92 45q0 45 66 45h133v811h-144q-18 0 -32.5 13.5t-14.5 33.5q0 18 14.5 31.5t32.5 13.5h144v168h-133q-66 0 -66 43q0 47 66 47h372q66 0 66 -47q0 -43 -66 -43h-131v-168h752v168h-133q-63 0 -64 43q0 47 64 47h375q66 0 65 -47q0 -43 -65 -43h-133v-168h143 q18 0 32.5 -13t14.5 -32q0 -20 -14.5 -33.5t-32.5 -13.5h-143v-811h133q66 0 65.5 -45t-65.5 -45h-375q-63 0 -63.5 45t63.5 45h133v516h-752v-516h131q66 0 66 -45t-66 -45h-372q-66 0 -66 45zM399 696h752v205h-752v-205z" />
<glyph unicode="&#x127;" horiz-adv-x="1193" d="M37 45q0 45 65 45h134v879h-144q-20 0 -33.5 13t-13.5 34q0 18 13.5 31.5t33.5 13.5h144v100h-134q-66 0 -65 43q0 47 65 47h174q41 0 53.5 -13t12.5 -54v-123h256q18 0 32.5 -13.5t14.5 -31.5q0 -20 -14.5 -33.5t-32.5 -13.5h-256v-230q158 145 330 146q285 0 284 -289 v-506h134q66 0 65.5 -45t-65.5 -45h-373q-66 0 -66 47q0 43 66 43h133v492q0 109 -38 160t-153 51q-51 0 -102 -16.5t-101 -50.5t-82 -97.5t-32 -147.5v-391h133q66 0 66 -45t-66 -45h-373q-65 0 -65 45z" />
<glyph unicode="&#x128;" horiz-adv-x="716" d="M10 1364q0 31 96 102q90 66 154 66q47 0 96 -37l53.5 -49t29 -21.5t28.5 -9.5q55 0 160 98q23 18 37 19q18 0 32.5 -15.5t14.5 -33.5q0 -29 -97 -101q-90 -66 -153 -65q-51 0 -96 37q-51 49 -72 63.5t-39 14.5q-57 0 -160 -97q-18 -18 -36.5 -18t-33 15.5t-14.5 31.5z M94 45q0 45 66 45h143v1071h-143q-66 0 -66 43q0 47 66 47h395q66 0 66 -47q0 -43 -66 -43h-143v-1071h143q66 0 66 -45t-66 -45h-395q-66 0 -66 45z" />
<glyph unicode="&#x129;" horiz-adv-x="598" d="M-51 1069q0 31 96 102q90 66 154 66q47 0 96 -37q41 -37 53 -49t28.5 -21.5t29.5 -9.5q55 0 159 99q23 18 37 18q18 0 32.5 -15.5t14.5 -33.5q0 -29 -96 -101q-90 -66 -154 -65q-51 0 -96 37q-51 49 -71.5 63.5t-38.5 14.5q-57 0 -160 -97q-18 -18 -37 -18t-33 15.5 t-14 31.5zM45 45q0 45 66 45h133v690h-123q-68 0 -68 47q0 45 68 45h166q41 0 53 -14t12 -53v-715h111q68 0 67.5 -45t-65.5 -45h-354q-66 0 -66 45z" />
<glyph unicode="&#x12a;" horiz-adv-x="716" d="M-18 1405q0 47 63 47h631q63 0 63 -49q0 -45 -63 -45h-627q-67 0 -67 47zM94 45q0 45 66 45h143v1071h-143q-66 0 -66 43q0 47 66 47h395q66 0 66 -47q0 -43 -66 -43h-143v-1071h143q66 0 66 -45t-66 -45h-395q-66 0 -66 45z" />
<glyph unicode="&#x12b;" horiz-adv-x="598" d="M-80 1128.5q0 47.5 64 47.5h630q63 0 64 -50q0 -45 -64 -45h-626q-68 0 -68 47.5zM45 45q0 45 66 45h133v690h-123q-68 0 -68 47q0 45 68 45h166q41 0 53 -14t12 -53v-715h111q68 0 67.5 -45t-65.5 -45h-354q-66 0 -66 45z" />
<glyph unicode="&#x12c;" horiz-adv-x="716" d="M8 1491q0 47 47 47q27 0 39 -25q18 -80 266 -79.5t267 79.5q12 25 39 25q47 0 47 -47q0 -43 -25.5 -75t-58.5 -46t-90.5 -22.5t-90 -9.5t-88 -1t-88 1t-90 9.5t-90.5 22.5t-58.5 46t-25.5 75zM94 45q0 45 66 45h143v1071h-143q-66 0 -66 43q0 47 66 47h395q66 0 66 -47 q0 -43 -66 -43h-143v-1071h143q66 0 66 -45t-66 -45h-395q-66 0 -66 45z" />
<glyph unicode="&#x12d;" horiz-adv-x="598" d="M-53 1182q0 47 47 47q27 0 39 -25q18 -80 266 -80t266 80q12 25 39 25q47 0 47 -47q0 -43 -25.5 -75t-58 -46t-90 -22.5t-90.5 -9.5t-88 -1t-88 1t-90.5 9.5t-90 22.5t-58 46t-25.5 75zM45 45q0 45 66 45h133v690h-123q-68 0 -68 47q0 45 68 45h166q41 0 53 -14t12 -53 v-715h111q68 0 67.5 -45t-65.5 -45h-354q-66 0 -66 45z" />
<glyph unicode="&#x12e;" horiz-adv-x="716" d="M94 45q0 45 66 45h143v1071h-143q-66 0 -66 43q0 47 66 47h395q66 0 66 -47q0 -43 -66 -43h-143v-1071h143q66 0 66 -45t-66 -45h-80q-72 -37 -116 -105.5t-44 -146.5q0 -43 37 -71.5t76 -28.5q68 0 129 84q6 6 23.5 9t27.5 -1q8 -8 11.5 -23.5t-3.5 -25.5 q-86 -119 -196 -119q-86 0 -138.5 56.5t-52.5 123.5q0 137 142 248h-211q-66 0 -66 45z" />
<glyph unicode="&#x12f;" horiz-adv-x="598" d="M45 45q0 45 66 45h133v690h-123q-68 0 -68 47q0 45 68 45h166q41 0 53 -14t12 -53v-715h111q68 0 67.5 -45t-65.5 -45h-113q-72 -37 -117 -105.5t-45 -146.5q0 -43 37 -71.5t76 -28.5q68 0 129 84q27 20 51 8q8 -8 11.5 -23.5t-2.5 -25.5q-86 -119 -197 -119 q-86 0 -138.5 56.5t-52.5 123.5q0 129 150 248h-143q-66 0 -66 45zM178 1167q0 35 25.5 60.5t62.5 25.5q35 0 60.5 -25.5t25.5 -60.5q0 -37 -25.5 -61.5t-60.5 -24.5q-37 0 -62.5 24.5t-25.5 61.5z" />
<glyph unicode="&#x130;" horiz-adv-x="716" d="M94 45q0 45 66 45h143v1071h-143q-66 0 -66 43q0 47 66 47h395q66 0 66 -47q0 -43 -66 -43h-143v-1071h143q66 0 66 -45t-66 -45h-395q-66 0 -66 45zM270 1425.5q0 34.5 24.5 60t63.5 25.5q35 0 60.5 -25.5t25.5 -60t-24.5 -60.5t-63.5 -26q-35 0 -60.5 26t-25.5 60.5z " />
<glyph unicode="&#x131;" horiz-adv-x="598" d="M45 45q0 45 66 45h133v690h-123q-68 0 -68 47q0 45 68 45h166q41 0 53 -14t12 -53v-715h111q68 0 67.5 -45t-65.5 -45h-354q-66 0 -66 45z" />
<glyph unicode="&#x134;" d="M152 190q0 39 22.5 59.5t54.5 20.5q31 0 52.5 -22.5t21.5 -50.5q0 -27 -24 -58q78 -72 204 -71q27 0 57.5 6t74.5 23.5t73 64.5t29 114v885h-193q-68 0 -67.5 45t67.5 45h381q68 0 68 -45t-68 -45h-82v-897q0 -131 -99 -209t-241 -78q-147 0 -239 59.5t-92 153.5z M422 1362q0 31 27 39l249 90q14 4 29 0l250 -90q27 -8 27 -39q0 -18 -11.5 -31.5t-27.5 -13.5q-10 0 -17 2l-235 72l-236 -72q-6 -2 -16 -2q-16 0 -27.5 13.5t-11.5 31.5z" />
<glyph unicode="&#x135;" horiz-adv-x="657" d="M-88 -340q0 35 22.5 56.5t53.5 21.5q74 0 73 -96l5 -13q16 -20 79 -20q49 0 83 30.5t49.5 80t21.5 90t6 79.5v891h-153q-68 0 -68 47q0 45 68 45h194q41 0 53.5 -14t12.5 -53v-924q0 -82 -22.5 -159.5t-88 -140t-162.5 -62.5q-104 0 -165.5 37.5t-61.5 103.5zM35 1051 q-4 23 20 36l254 158q18 10 37 0l254 -158q25 -14 21 -36q0 -16 -12.5 -29.5t-30.5 -13.5q-10 0 -23 6l-227 137l-228 -137q-12 -6 -22 -6q-18 0 -30.5 13.5t-12.5 29.5z" />
<glyph unicode="&#x136;" horiz-adv-x="1613" d="M106 45q0 45 66 45h129v1071h-129q-66 0 -66 43q0 47 66 47h346q66 0 66 -47q0 -43 -66 -43h-129v-663l815 663q-68 0 -92.5 2t-40.5 11.5t-16 31.5q0 45 63 45h307q68 0 68 -47q0 -43 -68 -43h-86l-524 -424l563 -647h78q68 0 68 -45t-68 -45h-264q-66 0 -66 45 q0 23 16.5 32t39 11t84.5 2l-518 592l-359 -291v-301h129q66 0 66 -45t-66 -45h-346q-66 0 -66 45zM729 -418q0 6 16 29q70 55 78 160q-80 6 -80 63q0 23 17.5 40t42.5 17q80 0 80 -120q0 -86 -46 -151.5t-77 -65.5q-12 0 -21.5 9t-9.5 19z" />
<glyph unicode="&#x137;" horiz-adv-x="1134" d="M53 45q0 45 66 45h127v1071h-127q-66 0 -66 43q0 47 66 47h147q41 0 56.5 -14t15.5 -53v-789l430 385h-135q-66 0 -66 45q0 47 66 47h346q68 0 68 -47q0 -45 -68 -45h-84l-295 -258l348 -432h80q68 0 68 -45t-68 -45h-266q-66 0 -66 47q0 43 66 43h76l-301 375l-199 -178 v-197h127q63 0 63 -45t-63 -45h-346q-66 0 -66 45zM492 -418q0 6 16 29q70 55 78 160q-80 6 -80 63q0 23 17.5 40t41.5 17q80 0 80 -120q0 -86 -46 -151.5t-77 -65.5q-12 0 -21 9t-9 19z" />
<glyph unicode="&#x139;" horiz-adv-x="1314" d="M96 45q0 45 66 45h133v1071h-133q-66 0 -66 43q0 47 66 47h424q66 0 65 -47q0 -43 -65 -43h-185v-1071h713v166q0 23 2 34t14.5 22.5t37 11.5t37 -12.5t14.5 -24t2 -31.5v-188q0 -41 -12.5 -54.5t-53.5 -13.5h-993q-66 0 -66 45zM453 1403q0 27 41 45l280 127l33 8 q23 0 39 -15.5t16 -39.5q0 -35 -47 -55l-295 -132q-12 -4 -16 -4q-27 0 -39 24t-12 42z" />
<glyph unicode="&#x13a;" horiz-adv-x="598" d="M45 45q0 45 66 45h133v1071h-133q-66 0 -66 43q0 47 66 47h176q41 0 53 -14t12 -53v-1094h133q66 0 66 -45t-66 -45h-374q-66 0 -66 45zM94 1403q0 27 41 45l281 127l33 8q23 0 39 -15.5t16 -39.5q0 -35 -47 -55l-295 -132q-12 -4 -17 -4q-27 0 -39 24t-12 42z" />
<glyph unicode="&#x13b;" horiz-adv-x="1314" d="M96 45q0 45 66 45h133v1071h-133q-66 0 -66 43q0 47 66 47h424q66 0 65 -47q0 -43 -65 -43h-185v-1071h713v166q0 23 2 34t14.5 22.5t37 11.5t37 -12.5t14.5 -24t2 -31.5v-188q0 -41 -12.5 -54.5t-53.5 -13.5h-993q-66 0 -66 45zM580 -418q0 6 16 29q70 55 78 160 q-80 6 -80 63q0 23 16.5 40t42.5 17q80 0 80 -120q0 -86 -46 -151.5t-77 -65.5q-12 0 -21 9t-9 19z" />
<glyph unicode="&#x13c;" horiz-adv-x="598" d="M45 45q0 45 66 45h133v1071h-133q-66 0 -66 43q0 47 66 47h176q41 0 53 -14t12 -53v-1094h133q66 0 66 -45t-66 -45h-374q-66 0 -66 45zM221 -418q0 6 17 29q70 55 77 160q-80 6 -79 63q0 23 17 40t42 17q80 0 80 -120q0 -86 -46 -151.5t-77 -65.5q-12 0 -21.5 9t-9.5 19 z" />
<glyph unicode="&#x13d;" horiz-adv-x="1314" d="M96 45q0 45 66 45h133v1071h-133q-66 0 -66 43q0 47 66 47h424q66 0 65 -47q0 -43 -65 -43h-185v-1071h713v166q0 23 2 34t14.5 22.5t37 11.5t37 -12.5t14.5 -24t2 -31.5v-188q0 -41 -12.5 -54.5t-53.5 -13.5h-993q-66 0 -66 45zM770 942q0 6 16 29q70 55 78 159 q-80 6 -80 64q0 23 17.5 40t42.5 17q80 0 80 -121q0 -86 -46.5 -151.5t-76.5 -65.5q-12 0 -21.5 9.5t-9.5 19.5z" />
<glyph unicode="&#x13e;" horiz-adv-x="598" d="M45 45q0 45 66 45h133v1071h-133q-66 0 -66 43q0 47 66 47h176q41 0 53 -14t12 -53v-1094h133q66 0 66 -45t-66 -45h-374q-66 0 -66 45zM432 942q0 6 17 29q70 55 77 159q-80 6 -80 64q0 23 16.5 40t43.5 17q80 0 80 -121q0 -86 -46 -151.5t-77 -65.5q-12 0 -21.5 9.5 t-9.5 19.5z" />
<glyph unicode="&#x13f;" horiz-adv-x="1314" d="M96 45q0 45 66 45h133v1071h-133q-66 0 -66 43q0 47 66 47h424q66 0 65 -47q0 -43 -65 -43h-185v-1071h713v166q0 23 2 34t14.5 22.5t37 11.5t37 -12.5t14.5 -24t2 -31.5v-188q0 -41 -12.5 -54.5t-53.5 -13.5h-993q-66 0 -66 45zM918 649q0 35 24.5 60.5t63.5 25.5 q35 0 60.5 -25.5t25.5 -60.5t-25 -60.5t-63 -25.5q-35 0 -60.5 25.5t-25.5 60.5z" />
<glyph unicode="&#x140;" horiz-adv-x="598" d="M45 45q0 45 66 45h133v1071h-133q-66 0 -66 43q0 47 66 47h176q41 0 53 -14t12 -53v-1094h133q66 0 66 -45t-66 -45h-374q-66 0 -66 45zM508 649q0 35 24.5 60.5t63.5 25.5q35 0 60.5 -25.5t25.5 -60.5t-24.5 -60.5t-63.5 -25.5q-35 0 -60.5 25.5t-25.5 60.5z" />
<glyph unicode="&#x141;" horiz-adv-x="1314" d="M96 45q0 45 66 45h133v488l-107 -80q-29 -25 -59 10q-29 33 12 61l154 111v481h-133q-66 0 -66 43q0 47 66 47h424q66 0 65 -47q0 -43 -65 -43h-185v-422l385 271q29 20 58 -15q27 -33 -10 -59l-433 -299v-547h713v166q0 23 2 34t14.5 22.5t37 11.5t37 -12.5t14.5 -24 t2 -31.5v-188q0 -41 -12.5 -54.5t-53.5 -13.5h-993q-66 0 -66 45z" />
<glyph unicode="&#x142;" horiz-adv-x="722" d="M14 508q-25 37 11 61l292 205v387h-133q-63 0 -63 43q0 47 63 47h176q41 0 53.5 -14t12.5 -53v-346l246 172q35 25 57 -13q8 -16 5 -33.5t-15 -27.5l-293 -205v-641h133q66 0 66 -45t-66 -45h-375q-63 0 -63 45t63 45h133v582l-243 -172q-37 -29 -60 8z" />
<glyph unicode="&#x143;" horiz-adv-x="1552" d="M106 45q0 45 66 45h133v1071h-133q-66 0 -66 43q0 47 66 47h201q90 0 127 -61l628 -1100h37v1071h-133q-66 0 -65 43q0 47 65 47h346q66 0 66 -47q0 -43 -66 -43h-133v-1093q0 -41 -14 -54.5t-53 -13.5q-90 0 -127 61l-629 1100h-37v-1071h133q66 0 66 -45t-66 -45h-346 q-66 0 -66 45zM573 1403q0 27 41 45l281 127l33 8q23 0 39 -15.5t16 -39.5q0 -35 -47 -55l-295 -132q-12 -4 -16 -4q-27 0 -39.5 24t-12.5 42z" />
<glyph unicode="&#x144;" horiz-adv-x="1193" d="M37 45q0 45 65 45h134v690h-134q-66 0 -65 45q0 47 65 47h174q47 0 56.5 -23.5t9.5 -109.5q158 145 330 146q285 0 284 -289v-506h134q66 0 65.5 -45t-65.5 -45h-373q-66 0 -66 47q0 43 66 43h133v492q0 109 -38 160t-153 51q-51 0 -102 -16.5t-101 -50.5t-82 -97.5 t-32 -147.5v-391h133q66 0 66 -45t-66 -45h-373q-65 0 -65 45zM393 1071q0 27 41 45l281 127l33 8q23 0 39 -15t16 -40q0 -35 -47 -55l-295 -131q-12 -4 -17 -4q-27 0 -39 23.5t-12 41.5z" />
<glyph unicode="&#x145;" horiz-adv-x="1552" d="M106 45q0 45 66 45h133v1071h-133q-66 0 -66 43q0 47 66 47h201q90 0 127 -61l628 -1100h37v1071h-133q-66 0 -65 43q0 47 65 47h346q66 0 66 -47q0 -43 -66 -43h-133v-1093q0 -41 -14 -54.5t-53 -13.5q-90 0 -127 61l-629 1100h-37v-1071h133q66 0 66 -45t-66 -45h-346 q-66 0 -66 45zM700 -418q0 6 17 29q70 55 78 160q-80 6 -80 63q0 23 17.5 40t41.5 17q80 0 80 -120q0 -86 -46 -151.5t-77 -65.5q-12 0 -21.5 9t-9.5 19z" />
<glyph unicode="&#x146;" horiz-adv-x="1193" d="M37 45q0 45 65 45h134v690h-134q-66 0 -65 45q0 47 65 47h174q47 0 56.5 -23.5t9.5 -109.5q158 145 330 146q285 0 284 -289v-506h134q66 0 65.5 -45t-65.5 -45h-373q-66 0 -66 47q0 43 66 43h133v492q0 109 -38 160t-153 51q-51 0 -102 -16.5t-101 -50.5t-82 -97.5 t-32 -147.5v-391h133q66 0 66 -45t-66 -45h-373q-65 0 -65 45zM520 -418q0 6 17 29q70 55 77 160q-80 6 -79 63q0 23 17 40t42 17q80 0 80 -120q0 -86 -46 -151.5t-77 -65.5q-12 0 -21.5 9t-9.5 19z" />
<glyph unicode="&#x147;" horiz-adv-x="1552" d="M106 45q0 45 66 45h133v1071h-133q-66 0 -66 43q0 47 66 47h201q90 0 127 -61l628 -1100h37v1071h-133q-66 0 -65 43q0 47 65 47h346q66 0 66 -47q0 -43 -66 -43h-133v-1093q0 -41 -14 -54.5t-53 -13.5q-90 0 -127 61l-629 1100h-37v-1071h133q66 0 66 -45t-66 -45h-346 q-66 0 -66 45zM487 1448q0 18 11.5 31.5t27.5 13.5q10 0 17 -2l235 -72l236 72q6 2 16 2q16 0 27.5 -13.5t11.5 -31.5q0 -31 -27 -39l-249 -90q-14 -4 -29 0l-250 90q-27 8 -27 39z" />
<glyph unicode="&#x148;" horiz-adv-x="1193" d="M37 45q0 45 65 45h134v690h-134q-66 0 -65 45q0 47 65 47h174q47 0 56.5 -23.5t9.5 -109.5q158 145 330 146q285 0 284 -289v-506h134q66 0 65.5 -45t-65.5 -45h-373q-66 0 -66 47q0 43 66 43h133v492q0 109 -38 160t-153 51q-51 0 -102 -16.5t-101 -50.5t-82 -97.5 t-32 -147.5v-391h133q66 0 66 -45t-66 -45h-373q-65 0 -65 45zM305 1208q0 16 12.5 29.5t30.5 13.5q10 0 23 -6l227 -137l227 137q12 6 23 6q18 0 30.5 -13t12.5 -30q4 -23 -21 -37l-254 -157q-18 -10 -36 0l-254 157q-25 14 -21 37z" />
<glyph unicode="&#x14a;" horiz-adv-x="1552" d="M31 45q0 45 65 45h133v1071h-133q-66 0 -65 43q0 47 65 47h176q41 0 53.5 -14t12.5 -53v-94q82 88 223 136t295 48q262 0 444.5 -190.5t182.5 -456.5q0 -168 -48.5 -312.5t-150.5 -241t-240 -96.5q-33 0 -53 21.5t-20 52.5t21.5 52.5t52 21.5t61.5 -33q90 25 152.5 109 t89 192.5t26.5 233.5q0 221 -151.5 379.5t-366.5 158.5q-199 0 -348.5 -72.5t-169.5 -213.5v-789h133q66 0 66 -45t-66 -45h-375q-65 0 -65 45z" />
<glyph unicode="&#x14b;" horiz-adv-x="1193" d="M111 45q0 45 65 45h133v690h-133q-66 0 -65 45q0 47 65 47h174q47 0 56.5 -23.5t9.5 -109.5q158 145 329 146q285 0 285 -289v-485q0 -264 -61 -416q-72 -186 -236 -187q-23 0 -39 15.5t-16 40.5q0 23 16.5 39t38.5 16q51 0 88 31t56.5 75t31 115.5t13.5 130t2 140.5v471 q0 109 -38 160t-153 51q-51 0 -102 -16.5t-101.5 -50.5t-82 -97.5t-31.5 -147.5v-391h133q66 0 65.5 -45t-65.5 -45h-373q-65 0 -65 45z" />
<glyph unicode="&#x14c;" horiz-adv-x="1673" d="M117 627q0 264 209 455.5t510 191.5t509.5 -190.5t208.5 -458.5q0 -262 -208.5 -455t-509.5 -193t-510 191t-209 459zM223 649q0 -238 178.5 -409.5t434.5 -171.5q254 0 433 172t179 409q0 219 -178 377t-434 158t-434.5 -158t-178.5 -377zM459 1405q0 47 63 47h631 q63 0 64 -49q0 -45 -64 -45h-627q-67 0 -67 47z" />
<glyph unicode="&#x14d;" d="M82 436.5q0 186.5 133 320.5t321.5 134t321.5 -134t133 -320.5t-133 -317.5t-321.5 -131t-321.5 131t-133 317.5zM160 1128.5q0 47.5 63 47.5h631q63 0 64 -50q0 -45 -64 -45h-627q-67 0 -67 47.5zM190 451q0 -152 100.5 -262.5t246.5 -110.5q143 0 244.5 110.5 t101.5 262.5q0 150 -102.5 250t-244 100t-244 -100t-102.5 -250z" />
<glyph unicode="&#x14e;" horiz-adv-x="1673" d="M117 627q0 264 209 455.5t510 191.5t509.5 -190.5t208.5 -458.5q0 -262 -208.5 -455t-509.5 -193t-510 191t-209 459zM223 649q0 -238 178.5 -409.5t434.5 -171.5q254 0 433 172t179 409q0 219 -178 377t-434 158t-434.5 -158t-178.5 -377zM485 1491q0 47 47 47 q27 0 39 -25q18 -80 266 -79.5t267 79.5q12 25 39 25q47 0 47 -47q0 -43 -25.5 -75t-58.5 -46t-90.5 -22.5t-90 -9.5t-88 -1t-88 1t-90 9.5t-90 22.5t-58.5 46t-26 75z" />
<glyph unicode="&#x14f;" d="M82 436.5q0 186.5 133 320.5t321.5 134t321.5 -134t133 -320.5t-133 -317.5t-321.5 -131t-321.5 131t-133 317.5zM186 1182q0 47 47 47q27 0 39 -25q18 -80 266 -80t267 80q12 25 39 25q47 0 47 -47q0 -43 -25.5 -75t-58.5 -46t-90.5 -22.5t-90 -9.5t-88 -1t-88 1 t-90 9.5t-90 22.5t-58.5 46t-26 75zM190 451q0 -152 100.5 -262.5t246.5 -110.5q143 0 244.5 110.5t101.5 262.5q0 150 -102.5 250t-244 100t-244 -100t-102.5 -250z" />
<glyph unicode="&#x150;" horiz-adv-x="1673" d="M117 627q0 264 209 455.5t510 191.5t509.5 -190.5t208.5 -458.5q0 -262 -208.5 -455t-509.5 -193t-510 191t-209 459zM223 649q0 -238 178.5 -409.5t434.5 -171.5q254 0 433 172t179 409q0 219 -178 377t-434 158t-434.5 -158t-178.5 -377zM510 1396.5q0 18.5 29 43.5 l149 119q23 20 41 20q25 0 40 -15.5t15 -40t-32 -48.5l-148 -119q-25 -18 -37 -19q-23 0 -40 20.5t-17 39zM944 1397q0 20 29 43l147 119q27 20 43 20q23 0 38.5 -15.5t15.5 -40t-33 -48.5l-148 -119q-20 -18 -37 -19q-20 0 -37.5 21t-17.5 39z" />
<glyph unicode="&#x151;" d="M82 436.5q0 186.5 133 320.5t321.5 134t321.5 -134t133 -320.5t-133 -317.5t-321.5 -131t-321.5 131t-133 317.5zM190 451q0 -152 100.5 -262.5t246.5 -110.5q143 0 244.5 110.5t101.5 262.5q0 150 -102.5 250t-244 100t-244 -100t-102.5 -250zM211 1067q0 18 29 43 l149 119q23 20 41 20q25 0 40 -15t15 -40t-32 -49l-148 -119q-25 -18 -37 -18q-23 0 -40 20.5t-17 38.5zM645 1067q0 20 29 43l147 119q27 20 43 20q23 0 38.5 -15t15.5 -40t-33 -49l-148 -119q-20 -18 -37 -18q-20 0 -37.5 20.5t-17.5 38.5z" />
<glyph unicode="&#x152;" horiz-adv-x="2150" d="M109 627q0 264 208.5 455.5t509.5 191.5l127 -8l76 -9q76 -6 115 -6h829q41 0 53.5 -14t12.5 -53v-154q0 -23 -2 -34t-14.5 -22t-38.5 -11q-25 0 -37.5 12t-14.5 23.5t-2 31.5v131h-729v-467h506q0 76 8 98.5t47 22.5q25 0 37 -12t14.5 -23.5t2.5 -31.5v-197 q0 -20 -2.5 -31.5t-14.5 -24t-37 -12.5q-39 0 -47 22.5t-8 98.5h-506v-514h791v166q0 20 2 31.5t14 24t39 12.5q25 0 37 -12.5t14 -24t2 -31.5v-188q0 -41 -13 -54.5t-52 -13.5h-891q-66 0 -131 -8q-143 -14 -187 -15q-299 0 -508.5 192t-209.5 458zM217 649 q0 -229 174 -405t449 -176q164 0 207 63.5t45 269.5l2 226l-2 219q-2 211 -45 274.5t-207 63.5q-276 0 -449.5 -161t-173.5 -374z" />
<glyph unicode="&#x153;" horiz-adv-x="1673" d="M74 438q0 188 129 320.5t309 132.5q233 0 385 -229q66 111 161 170t204 59q168 0 261 -119t93 -307q0 -29 -10.5 -43t-20.5 -16.5t-35 -2.5h-598q25 -150 126.5 -237.5t228.5 -87.5q147 0 206 147q10 27 48 27q55 0 55 -41q0 -59 -86 -141t-236 -82q-137 0 -237.5 68.5 t-157.5 162.5q-150 -231 -387 -231q-180 0 -309 132t-129 318zM182 451q0 -154 97.5 -263.5t232.5 -109.5q137 0 234.5 109.5t97.5 263.5q0 150 -98.5 250t-233.5 100t-232.5 -100t-97.5 -250zM954 492h553q-10 139 -69.5 224t-175.5 85q-104 0 -192.5 -84t-115.5 -225z" />
<glyph unicode="&#x154;" horiz-adv-x="1552" d="M92 45q0 45 66 45h133v1071h-133q-66 0 -66 43q0 47 66 47h565q225 0 390 -97t165 -239q0 -168 -268 -284q109 -55 147 -111q27 -41 33 -75.5t6 -122.5q0 -63 3 -101.5t16.5 -77.5t41 -57t72.5 -18t79 28.5t34 83.5q0 45 51 45q55 0 55 -45q0 -76 -61.5 -139.5 t-157.5 -63.5q-123 0 -188 86q-37 49 -45.5 96.5t-8.5 151.5q0 111 -14 146t-80 73q-102 49 -274 50h-320v-490h131q66 0 66 -45t-66 -45h-372q-66 0 -66 45zM399 672h306q184 0 325 70.5t141 173t-142 174t-324 71.5h-306v-489zM573 1403q0 27 41 45l281 127l33 8 q23 0 39 -15.5t16 -39.5q0 -35 -47 -55l-295 -132q-12 -4 -16 -4q-27 0 -39.5 24t-12.5 42z" />
<glyph unicode="&#x155;" horiz-adv-x="835" d="M43 45q0 45 66 45h131v690h-131q-66 0 -66 45q0 47 66 47h174q47 0 56 -25.5t9 -123.5q74 84 138.5 123t140.5 39q63 0 101 -35t38 -78q0 -33 -20.5 -52.5t-49.5 -19.5q-27 0 -49 19.5t-22 73.5q-135 -14 -206 -135t-71 -281v-287h184q66 0 66 -45t-66 -45h-423 q-66 0 -66 45zM215 1071q0 27 41 45l281 127l32 8q23 0 39.5 -15t16.5 -40q0 -35 -47 -55l-295 -131q-12 -4 -17 -4q-27 0 -39 23.5t-12 41.5z" />
<glyph unicode="&#x156;" horiz-adv-x="1552" d="M92 45q0 45 66 45h133v1071h-133q-66 0 -66 43q0 47 66 47h565q225 0 390 -97t165 -239q0 -168 -268 -284q109 -55 147 -111q27 -41 33 -75.5t6 -122.5q0 -63 3 -101.5t16.5 -77.5t41 -57t72.5 -18t79 28.5t34 83.5q0 45 51 45q55 0 55 -45q0 -76 -61.5 -139.5 t-157.5 -63.5q-123 0 -188 86q-37 49 -45.5 96.5t-8.5 151.5q0 111 -14 146t-80 73q-102 49 -274 50h-320v-490h131q66 0 66 -45t-66 -45h-372q-66 0 -66 45zM399 672h306q184 0 325 70.5t141 173t-142 174t-324 71.5h-306v-489zM700 -418q0 6 17 29q70 55 78 160 q-80 6 -80 63q0 23 17.5 40t41.5 17q80 0 80 -120q0 -86 -46 -151.5t-77 -65.5q-12 0 -21.5 9t-9.5 19z" />
<glyph unicode="&#x157;" horiz-adv-x="835" d="M43 45q0 45 66 45h131v690h-131q-66 0 -66 45q0 47 66 47h174q47 0 56 -25.5t9 -123.5q74 84 138.5 123t140.5 39q63 0 101 -35t38 -78q0 -33 -20.5 -52.5t-49.5 -19.5q-27 0 -49 19.5t-22 73.5q-135 -14 -206 -135t-71 -281v-287h184q66 0 66 -45t-66 -45h-423 q-66 0 -66 45zM223 -418q0 6 17 29q70 55 77 160q-80 6 -79 63q0 23 16 40t43 17q80 0 80 -120q0 -86 -46 -151.5t-77 -65.5q-12 0 -21.5 9t-9.5 19z" />
<glyph unicode="&#x158;" horiz-adv-x="1552" d="M92 45q0 45 66 45h133v1071h-133q-66 0 -66 43q0 47 66 47h565q225 0 390 -97t165 -239q0 -168 -268 -284q109 -55 147 -111q27 -41 33 -75.5t6 -122.5q0 -63 3 -101.5t16.5 -77.5t41 -57t72.5 -18t79 28.5t34 83.5q0 45 51 45q55 0 55 -45q0 -76 -61.5 -139.5 t-157.5 -63.5q-123 0 -188 86q-37 49 -45.5 96.5t-8.5 151.5q0 111 -14 146t-80 73q-102 49 -274 50h-320v-490h131q66 0 66 -45t-66 -45h-372q-66 0 -66 45zM399 672h306q184 0 325 70.5t141 173t-142 174t-324 71.5h-306v-489zM487 1448q0 18 11.5 31.5t27.5 13.5 q10 0 17 -2l235 -72l236 72q6 2 16 2q16 0 27.5 -13.5t11.5 -31.5q0 -31 -27 -39l-249 -90q-14 -4 -29 0l-250 90q-27 8 -27 39z" />
<glyph unicode="&#x159;" horiz-adv-x="835" d="M43 45q0 45 66 45h131v690h-131q-66 0 -66 45q0 47 66 47h174q47 0 56 -25.5t9 -123.5q74 84 138.5 123t140.5 39q63 0 101 -35t38 -78q0 -33 -20.5 -52.5t-49.5 -19.5q-27 0 -49 19.5t-22 73.5q-135 -14 -206 -135t-71 -281v-287h184q66 0 66 -45t-66 -45h-423 q-66 0 -66 45zM127 1208q0 16 12.5 29.5t30.5 13.5q10 0 23 -6l227 -137l227 137q12 6 23 6q18 0 30.5 -13t12.5 -30q4 -23 -21 -37l-254 -157q-18 -10 -37 0l-254 157q-24 14 -20 37z" />
<glyph unicode="&#x15a;" horiz-adv-x="1193" d="M123 45v279q0 20 2 31.5t14.5 23.5t38.5 12q49 0 53 -53q4 -76 33 -123t92 -86q109 -61 293 -61q145 0 232.5 77.5t87.5 178.5q0 43 -18.5 84t-37.5 59l-18 20q-51 43 -90 58.5t-150 38.5l-92 18q-117 25 -160 36t-93 34.5t-89 60.5q-98 94 -98 215q0 131 116.5 228.5 t299.5 97.5q209 0 350 -121q29 82 40 101.5t34 19.5q45 0 45 -68v-278q0 -20 -2 -31.5t-14.5 -24t-39.5 -12.5q-31 0 -40 12.5t-15 40.5q-51 270 -360 271q-137 0 -225.5 -70t-88.5 -158q0 -92 76 -148t147 -71l312 -65q137 -29 224 -124t87 -216q0 -141 -115.5 -248 t-306.5 -107q-254 0 -405 113q-29 -74 -40.5 -93.5t-33.5 -19.5q-45 0 -45 68zM393 1403q0 27 41 45l281 127l33 8q23 0 39 -15.5t16 -39.5q0 -35 -47 -55l-295 -132q-12 -4 -17 -4q-27 0 -39 24t-12 42z" />
<glyph unicode="&#x15b;" horiz-adv-x="847" d="M80 55v203q0 20 2 31.5t14.5 24t38.5 12.5q39 0 51 -29q27 -102 78 -160.5t166 -58.5q25 0 54.5 4t78.5 17.5t81 51t32 95.5q0 63 -53.5 103t-124.5 59l-25 4q-59 10 -92 17t-87 21.5t-85 32t-64.5 42t-49 58t-15.5 76.5q0 82 74.5 157t261.5 75q111 0 200 -51 q16 51 50 51q45 0 45 -68v-145q0 -23 -2 -34t-14.5 -22.5t-39.5 -11.5q-43 0 -51 37q-4 31 -9 50.5t-22.5 47t-58.5 42t-102 14.5q-121 0 -181.5 -40t-60.5 -102q0 -63 69.5 -95t223.5 -60q39 -6 77 -17.5t96 -38t94 -80t36 -122.5q0 -100 -80 -179t-258 -79q-135 0 -242 86 q-6 -29 -11 -43.5t-18.5 -28.5t-31.5 -14q-45 -1 -45 67zM221 1071q0 27 41 45l281 127l32 8q23 0 39.5 -15t16.5 -40q0 -35 -47 -55l-295 -131q-12 -4 -17 -4q-27 0 -39 23.5t-12 41.5z" />
<glyph unicode="&#x15c;" horiz-adv-x="1193" d="M123 45v279q0 20 2 31.5t14.5 23.5t38.5 12q49 0 53 -53q4 -76 33 -123t92 -86q109 -61 293 -61q145 0 232.5 77.5t87.5 178.5q0 43 -18.5 84t-37.5 59l-18 20q-51 43 -90 58.5t-150 38.5l-92 18q-117 25 -160 36t-93 34.5t-89 60.5q-98 94 -98 215q0 131 116.5 228.5 t299.5 97.5q209 0 350 -121q29 82 40 101.5t34 19.5q45 0 45 -68v-278q0 -20 -2 -31.5t-14.5 -24t-39.5 -12.5q-31 0 -40 12.5t-15 40.5q-51 270 -360 271q-137 0 -225.5 -70t-88.5 -158q0 -92 76 -148t147 -71l312 -65q137 -29 224 -124t87 -216q0 -141 -115.5 -248 t-306.5 -107q-254 0 -405 113q-29 -74 -40.5 -93.5t-33.5 -19.5q-45 0 -45 68zM307 1362q0 31 27 39l250 90q14 4 28 0l250 -90q27 -8 27 -39q0 -18 -11.5 -31.5t-27.5 -13.5q-10 0 -16 2l-236 72l-236 -72q-6 -2 -16 -2q-16 0 -27.5 13.5t-11.5 31.5z" />
<glyph unicode="&#x15d;" horiz-adv-x="847" d="M80 55v203q0 20 2 31.5t14.5 24t38.5 12.5q39 0 51 -29q27 -102 78 -160.5t166 -58.5q25 0 54.5 4t78.5 17.5t81 51t32 95.5q0 63 -53.5 103t-124.5 59l-25 4q-59 10 -92 17t-87 21.5t-85 32t-64.5 42t-49 58t-15.5 76.5q0 82 74.5 157t261.5 75q111 0 200 -51 q16 51 50 51q45 0 45 -68v-145q0 -23 -2 -34t-14.5 -22.5t-39.5 -11.5q-43 0 -51 37q-4 31 -9 50.5t-22.5 47t-58.5 42t-102 14.5q-121 0 -181.5 -40t-60.5 -102q0 -63 69.5 -95t223.5 -60q39 -6 77 -17.5t96 -38t94 -80t36 -122.5q0 -100 -80 -179t-258 -79q-135 0 -242 86 q-6 -29 -11 -43.5t-18.5 -28.5t-31.5 -14q-45 -1 -45 67zM133 1051q-4 23 21 36l254 158q18 10 36 0l254 -158q25 -14 21 -36q0 -16 -12.5 -29.5t-30.5 -13.5q-10 0 -23 6l-227 137l-227 -137q-12 -6 -23 -6q-18 0 -30.5 13.5t-12.5 29.5z" />
<glyph unicode="&#x15e;" horiz-adv-x="1193" d="M123 45v279q0 20 2 31.5t14.5 23.5t38.5 12q49 0 53 -53q4 -76 33 -123t92 -86q109 -61 293 -61q145 0 232.5 77.5t87.5 178.5q0 43 -18.5 84t-37.5 59l-18 20q-51 43 -90 58.5t-150 38.5l-92 18q-117 25 -160 36t-93 34.5t-89 60.5q-98 94 -98 215q0 131 116.5 228.5 t299.5 97.5q209 0 350 -121q29 82 40 101.5t34 19.5q45 0 45 -68v-278q0 -20 -2 -31.5t-14.5 -24t-39.5 -12.5q-31 0 -40 12.5t-15 40.5q-51 270 -360 271q-137 0 -225.5 -70t-88.5 -158q0 -92 76 -148t147 -71l312 -65q137 -29 224 -124t87 -216q0 -127 -97.5 -229.5 t-258.5 -120.5v-39q182 -43 182 -189q0 -55 -30.5 -94t-69.5 -57.5t-109 -28.5t-109.5 -11t-111.5 -1q-16 0 -31.5 11t-15.5 33.5t16.5 33t32.5 12.5t51 2q270 0 270 104q0 41 -38.5 71t-100.5 32q-45 2 -45 63v53q-225 12 -364 111q-27 -72 -38.5 -91.5t-33.5 -19.5 q-45 0 -45 68z" />
<glyph unicode="&#x15f;" horiz-adv-x="847" d="M80 55v203q0 20 2 31.5t14.5 24t38.5 12.5q39 0 51 -29q27 -102 78 -160.5t166 -58.5q25 0 54.5 4t78.5 17.5t81 51t32 95.5q0 63 -53.5 103t-124.5 59l-25 4q-59 10 -92 17t-87 21.5t-85 32t-64.5 42t-49 58t-15.5 76.5q0 82 74.5 157t261.5 75q111 0 200 -51 q16 51 50 51q45 0 45 -68v-145q0 -23 -2 -34t-14.5 -22.5t-39.5 -11.5q-43 0 -51 37q-4 31 -9 50.5t-22.5 47t-58.5 42t-102 14.5q-121 0 -181.5 -40t-60.5 -102q0 -63 69.5 -95t223.5 -60q39 -6 77 -17.5t96 -38t94 -80t36 -122.5q0 -80 -52 -149.5t-173 -98.5v-53 q182 -49 182 -191q0 -55 -30.5 -94t-69.5 -57.5t-109 -28.5t-109.5 -11t-111.5 -1q-16 0 -31.5 11t-15.5 33.5t16.5 33t32.5 12.5t51 2q270 0 270 104q0 41 -38.5 71t-100.5 32q-45 2 -45 63v64q-143 4 -246 86q-6 -29 -11 -43.5t-18.5 -28.5t-31.5 -14q-45 -1 -45 67z" />
<glyph unicode="&#x160;" horiz-adv-x="1193" d="M123 45v279q0 20 2 31.5t14.5 23.5t38.5 12q49 0 53 -53q4 -76 33 -123t92 -86q109 -61 293 -61q145 0 232.5 77.5t87.5 178.5q0 43 -18.5 84t-37.5 59l-18 20q-51 43 -90 58.5t-150 38.5l-92 18q-117 25 -160 36t-93 34.5t-89 60.5q-98 94 -98 215q0 131 116.5 228.5 t299.5 97.5q209 0 350 -121q29 82 40 101.5t34 19.5q45 0 45 -68v-278q0 -20 -2 -31.5t-14.5 -24t-39.5 -12.5q-31 0 -40 12.5t-15 40.5q-51 270 -360 271q-137 0 -225.5 -70t-88.5 -158q0 -92 76 -148t147 -71l312 -65q137 -29 224 -124t87 -216q0 -141 -115.5 -248 t-306.5 -107q-254 0 -405 113q-29 -74 -40.5 -93.5t-33.5 -19.5q-45 0 -45 68zM307 1448q0 18 11.5 31.5t27.5 13.5q10 0 16 -2l236 -72l236 72q6 2 16 2q16 0 27.5 -13.5t11.5 -31.5q0 -31 -27 -39l-250 -90q-14 -4 -28 0l-250 90q-27 8 -27 39z" />
<glyph unicode="&#x161;" horiz-adv-x="847" d="M80 55v203q0 20 2 31.5t14.5 24t38.5 12.5q39 0 51 -29q27 -102 78 -160.5t166 -58.5q25 0 54.5 4t78.5 17.5t81 51t32 95.5q0 63 -53.5 103t-124.5 59l-25 4q-59 10 -92 17t-87 21.5t-85 32t-64.5 42t-49 58t-15.5 76.5q0 82 74.5 157t261.5 75q111 0 200 -51 q16 51 50 51q45 0 45 -68v-145q0 -23 -2 -34t-14.5 -22.5t-39.5 -11.5q-43 0 -51 37q-4 31 -9 50.5t-22.5 47t-58.5 42t-102 14.5q-121 0 -181.5 -40t-60.5 -102q0 -63 69.5 -95t223.5 -60q39 -6 77 -17.5t96 -38t94 -80t36 -122.5q0 -100 -80 -179t-258 -79q-135 0 -242 86 q-6 -29 -11 -43.5t-18.5 -28.5t-31.5 -14q-45 -1 -45 67zM133 1208q0 16 12.5 29.5t30.5 13.5q10 0 23 -6l227 -137l227 137q12 6 23 6q18 0 30.5 -13t12.5 -30q4 -23 -21 -37l-254 -157q-18 -10 -36 0l-254 157q-25 14 -21 37z" />
<glyph unicode="&#x162;" horiz-adv-x="1552" d="M76 1030v154q0 41 13 54t54 13h1266q41 0 53.5 -14t12.5 -53v-154q0 -23 -2.5 -34t-14.5 -22t-39 -11q-25 0 -37 12t-14 23.5t-2 31.5v131h-537v-1071h215q68 0 68 -45t-68 -45h-215q2 -16 2 -61q182 -49 183 -191q0 -55 -31 -94t-70 -57.5t-108.5 -28.5t-109.5 -11 t-111 -1q-16 0 -31.5 11t-15.5 33.5t16 33t32.5 12.5t51.5 2q270 0 270 104q0 41 -39 71t-100 32q-45 2 -45 63v70v12h-217q-68 0 -68 47q0 43 68 43h215v1071h-539v-131q0 -23 -2 -34t-14 -22t-37 -11t-37 12t-14 23.5t-2 31.5z" />
<glyph unicode="&#x163;" horiz-adv-x="835" d="M47 825q0 47 68 47h125v191q0 23 2 34t14 22t39 11q25 0 37 -12t14 -23.5t2 -31.5v-191h254q66 0 66 -47q0 -45 -66 -45h-254v-526q0 -176 123 -176q51 0 89 44t38 126q0 14 1 22.5t5 18.5t15.5 15t29.5 5q27 0 39 -11t14.5 -21.5t2.5 -30.5q0 -96 -53.5 -165t-135.5 -87 q2 -14 2 -55q182 -49 182 -191q0 -55 -30.5 -94t-69.5 -57.5t-108.5 -28.5t-109.5 -11t-112 -1q-16 0 -31.5 11t-15.5 33.5t16.5 33t33 12.5t51.5 2q270 0 270 104q0 41 -39 71t-100 32q-45 2 -45 63v70v6q-74 16 -122 75.5t-48 170.5v540h-127q-66 0 -66 45z" />
<glyph unicode="&#x164;" horiz-adv-x="1552" d="M76 1030v154q0 41 13 54t54 13h1266q41 0 53.5 -14t12.5 -53v-154q0 -23 -2.5 -34t-14.5 -22t-39 -11q-25 0 -37 12t-14 23.5t-2 31.5v131h-537v-1071h215q68 0 68 -45t-68 -45h-538q-68 0 -68 47q0 43 68 43h215v1071h-539v-131q0 -23 -2 -34t-14 -22t-37 -11t-37 12 t-14 23.5t-2 31.5zM487 1448q0 18 11.5 31.5t27.5 13.5q10 0 17 -2l235 -72l236 72q6 2 16 2q16 0 27.5 -13.5t11.5 -31.5q0 -31 -27 -39l-249 -90q-14 -4 -29 0l-250 90q-27 8 -27 39z" />
<glyph unicode="&#x165;" horiz-adv-x="835" d="M47 825q0 47 68 47h125v191q0 23 2 34t14 22t39 11q25 0 37 -12t14 -23.5t2 -31.5v-191h254q66 0 66 -47q0 -45 -66 -45h-254v-526q0 -176 123 -176q51 0 89 44t38 126q0 14 1 22.5t5 18.5t15.5 15t29.5 5q27 0 39 -11t14.5 -21.5t2.5 -30.5q0 -113 -71 -185.5 t-171 -72.5q-86 0 -154.5 59t-68.5 193v540h-127q-66 0 -66 45zM428 989q0 6 16 29q70 55 78 160q-80 6 -80 63q0 25 16.5 41t43.5 16q80 0 80 -120q0 -86 -46.5 -151.5t-76.5 -65.5q-12 0 -21.5 9t-9.5 19z" />
<glyph unicode="&#x168;" horiz-adv-x="1552" d="M92 1204q0 47 66 47h372q66 0 66 -47q0 -43 -66 -43h-131v-733q0 -172 116 -266t261 -94q139 0 257 93t118 267v733h-133q-63 0 -64 43q0 47 64 47h375q66 0 65 -47q0 -43 -65 -43h-133v-745q0 -186 -141.5 -312.5t-344.5 -126.5q-199 0 -341 125t-142 314v745h-133 q-66 0 -66 43zM475 1364q0 31 96 102q90 66 154 66q47 0 96 -37l53.5 -49t29 -21.5t28.5 -9.5q55 0 160 98q23 18 36 19q18 0 33 -15.5t15 -33.5q0 -29 -97 -101q-90 -66 -153 -65q-51 0 -97 37q-51 49 -71.5 63.5t-38.5 14.5q-57 0 -160 -97q-18 -18 -36.5 -18t-33 15.5 t-14.5 31.5z" />
<glyph unicode="&#x169;" horiz-adv-x="1193" d="M37 825q0 47 65 47h174q41 0 53.5 -14t12.5 -53v-569q0 -37 4 -56.5t21.5 -47.5t63.5 -41t122 -13q41 0 82 7t94 28.5t87 73t34 124.5v469h-133q-66 0 -66 47q0 45 66 45h174q41 0 53 -14t12 -53v-715h134q66 0 65.5 -45t-65.5 -45h-175q-20 0 -31.5 3t-22.5 25.5 t-11 65.5q-137 -106 -309 -106q-305 0 -305 235v557h-134q-65 0 -65 45zM248 1069q0 31 96 102q90 66 154 66q47 0 96 -37q41 -37 53 -49t28.5 -21.5t29.5 -9.5q55 0 159 99q23 18 37 18q18 0 32.5 -15.5t14.5 -33.5q0 -29 -96 -101q-90 -66 -154 -65q-51 0 -96 37 q-51 49 -71.5 63.5t-38.5 14.5q-57 0 -160 -97q-18 -18 -37 -18t-33 15.5t-14 31.5z" />
<glyph unicode="&#x16a;" horiz-adv-x="1552" d="M92 1204q0 47 66 47h372q66 0 66 -47q0 -43 -66 -43h-131v-733q0 -172 116 -266t261 -94q139 0 257 93t118 267v733h-133q-63 0 -64 43q0 47 64 47h375q66 0 65 -47q0 -43 -65 -43h-133v-745q0 -186 -141.5 -312.5t-344.5 -126.5q-199 0 -341 125t-142 314v745h-133 q-66 0 -66 43zM446 1405q0 47 64 47h631q63 0 63 -49q0 -45 -63 -45h-627q-68 0 -68 47z" />
<glyph unicode="&#x16b;" horiz-adv-x="1193" d="M37 825q0 47 65 47h174q41 0 53.5 -14t12.5 -53v-569q0 -37 4 -56.5t21.5 -47.5t63.5 -41t122 -13q41 0 82 7t94 28.5t87 73t34 124.5v469h-133q-66 0 -66 47q0 45 66 45h174q41 0 53 -14t12 -53v-715h134q66 0 65.5 -45t-65.5 -45h-175q-20 0 -31.5 3t-22.5 25.5 t-11 65.5q-137 -106 -309 -106q-305 0 -305 235v557h-134q-65 0 -65 45zM219 1128.5q0 47.5 64 47.5h630q63 0 64 -50q0 -45 -64 -45h-626q-68 0 -68 47.5z" />
<glyph unicode="&#x16c;" horiz-adv-x="1552" d="M92 1204q0 47 66 47h372q66 0 66 -47q0 -43 -66 -43h-131v-733q0 -172 116 -266t261 -94q139 0 257 93t118 267v733h-133q-63 0 -64 43q0 47 64 47h375q66 0 65 -47q0 -43 -65 -43h-133v-745q0 -186 -141.5 -312.5t-344.5 -126.5q-199 0 -341 125t-142 314v745h-133 q-66 0 -66 43zM473 1491q0 47 47 47q27 0 39 -25q18 -80 266 -79.5t267 79.5q12 25 38 25q47 0 48 -47q0 -43 -26 -75t-58.5 -46t-90 -22.5t-90 -9.5t-88 -1t-88 1t-90 9.5t-90.5 22.5t-58.5 46t-25.5 75z" />
<glyph unicode="&#x16d;" horiz-adv-x="1193" d="M37 825q0 47 65 47h174q41 0 53.5 -14t12.5 -53v-569q0 -37 4 -56.5t21.5 -47.5t63.5 -41t122 -13q41 0 82 7t94 28.5t87 73t34 124.5v469h-133q-66 0 -66 47q0 45 66 45h174q41 0 53 -14t12 -53v-715h134q66 0 65.5 -45t-65.5 -45h-175q-20 0 -31.5 3t-22.5 25.5 t-11 65.5q-137 -106 -309 -106q-305 0 -305 235v557h-134q-65 0 -65 45zM246 1182q0 47 47 47q27 0 39 -25q18 -80 266 -80t266 80q12 25 39 25q47 0 47 -47q0 -43 -25.5 -75t-58 -46t-90 -22.5t-90.5 -9.5t-88 -1t-88 1t-90.5 9.5t-90 22.5t-58 46t-25.5 75z" />
<glyph unicode="&#x16e;" horiz-adv-x="1552" d="M92 1204q0 47 66 47h372q66 0 66 -47q0 -43 -66 -43h-131v-733q0 -172 116 -266t261 -94q139 0 257 93t118 267v733h-133q-63 0 -64 43q0 47 64 47h375q66 0 65 -47q0 -43 -65 -43h-133v-745q0 -186 -141.5 -312.5t-344.5 -126.5q-199 0 -341 125t-142 314v745h-133 q-66 0 -66 43zM596 1415q0 49 67.5 94t161.5 45q88 0 157 -45t69 -94t-68 -94t-162 -45q-88 0 -156.5 45t-68.5 94zM684 1415q0 -33 41 -56.5t98 -23.5q53 0 96.5 23.5t43.5 56.5t-41 56.5t-99 23.5q-53 0 -96 -23.5t-43 -56.5z" />
<glyph unicode="&#x16f;" horiz-adv-x="1193" d="M37 825q0 47 65 47h174q41 0 53.5 -14t12.5 -53v-569q0 -37 4 -56.5t21.5 -47.5t63.5 -41t122 -13q41 0 82 7t94 28.5t87 73t34 124.5v469h-133q-66 0 -66 47q0 45 66 45h174q41 0 53 -14t12 -53v-715h134q66 0 65.5 -45t-65.5 -45h-175q-20 0 -31.5 3t-22.5 25.5 t-11 65.5q-137 -106 -309 -106q-305 0 -305 235v557h-134q-65 0 -65 45zM369 1147q0 49 67.5 94t161.5 45q88 0 156.5 -45t68.5 -94t-67.5 -94t-161.5 -45q-88 0 -156.5 45t-68.5 94zM457 1147q0 -33 41 -56.5t98 -23.5q53 0 96 23.5t43 56.5t-41 56.5t-98 23.5 q-53 0 -96 -23.5t-43 -56.5z" />
<glyph unicode="&#x170;" horiz-adv-x="1552" d="M92 1204q0 47 66 47h372q66 0 66 -47q0 -43 -66 -43h-131v-733q0 -172 116 -266t261 -94q139 0 257 93t118 267v733h-133q-63 0 -64 43q0 47 64 47h375q66 0 65 -47q0 -43 -65 -43h-133v-745q0 -186 -141.5 -312.5t-344.5 -126.5q-199 0 -341 125t-142 314v745h-133 q-66 0 -66 43zM498 1396.5q0 18.5 28 43.5l150 119q23 20 41 20q25 0 40 -15.5t15 -40t-33 -48.5l-147 -119q-25 -18 -37 -19q-23 0 -40 20.5t-17 39zM932 1397q0 20 29 43l147 119q27 20 43 20q23 0 38 -15.5t15 -40t-33 -48.5l-147 -119q-20 -18 -37 -19q-20 0 -37.5 21 t-17.5 39z" />
<glyph unicode="&#x171;" horiz-adv-x="1193" d="M37 825q0 47 65 47h174q41 0 53.5 -14t12.5 -53v-569q0 -37 4 -56.5t21.5 -47.5t63.5 -41t122 -13q41 0 82 7t94 28.5t87 73t34 124.5v469h-133q-66 0 -66 47q0 45 66 45h174q41 0 53 -14t12 -53v-715h134q66 0 65.5 -45t-65.5 -45h-175q-20 0 -31.5 3t-22.5 25.5 t-11 65.5q-137 -106 -309 -106q-305 0 -305 235v557h-134q-65 0 -65 45zM270 1067q0 18 29 43l150 119q23 20 40 20q25 0 40.5 -15t15.5 -40t-33 -49l-147 -119q-25 -18 -37 -18q-23 0 -40.5 20.5t-17.5 38.5zM705 1067q0 20 28 43l148 119q27 20 43 20q23 0 38 -15t15 -40 t-33 -49l-147 -119q-20 -18 -37 -18q-20 0 -37.5 20.5t-17.5 38.5z" />
<glyph unicode="&#x172;" horiz-adv-x="1552" d="M92 1204q0 47 66 47h372q66 0 66 -47q0 -43 -66 -43h-131v-733q0 -172 116 -266t261 -94q139 0 257 93t118 267v733h-133q-63 0 -64 43q0 47 64 47h375q66 0 65 -47q0 -43 -65 -43h-133v-745q0 -180 -135.5 -305t-319.5 -131q-137 -106 -137 -232q0 -43 36.5 -71.5 t75.5 -28.5q68 0 129 84q27 27 52 8q10 -8 12 -24.5t-4 -24.5q-86 -119 -197 -119q-86 0 -138 56.5t-52 123.5q0 111 133 225q-195 37 -309.5 154t-114.5 285v745h-133q-66 0 -66 43z" />
<glyph unicode="&#x173;" horiz-adv-x="1193" d="M37 825q0 47 65 47h174q41 0 53.5 -14t12.5 -53v-569q0 -37 4 -56.5t21.5 -47.5t63.5 -41t122 -13q41 0 82 7t94 28.5t87 73t34 124.5v469h-133q-66 0 -66 47q0 45 66 45h174q41 0 53 -14t12 -53v-715h134q66 0 65.5 -45t-65.5 -45h-33q-164 -123 -164 -252 q0 -43 37 -71.5t76 -28.5q68 0 129 84q27 27 51 8q10 -8 12 -24.5t-4 -24.5q-86 -119 -197 -119q-86 0 -138 56.5t-52 123.5q0 57 39 118.5t80 96.5l39 33h-50q-20 0 -31.5 3t-22.5 25.5t-11 65.5q-137 -106 -309 -106q-305 0 -305 235v557h-134q-65 0 -65 45z" />
<glyph unicode="&#x174;" horiz-adv-x="2150" d="M37 1206q0 45 67 45h285q68 0 68 -47q0 -43 -68 -43h-115l326 -1087h41l338 1120q8 27 23.5 40t30 15t42.5 2q27 0 40 -2t30.5 -15t25.5 -40l334 -1120h41l328 1087h-115q-68 0 -67 43q0 47 67 47h285q68 0 67 -47q0 -43 -67 -43h-86l-336 -1120q-8 -27 -25.5 -40 t-31 -15t-39.5 -2q-47 0 -63.5 12t-30.5 53l-338 1112h-41l-336 -1114q-8 -31 -22.5 -45t-29 -16t-44.5 -2q-68 0 -86 34l-345 1143h-86q-67 0 -67 45zM786 1362q0 31 27 39l250 90q14 4 29 0l249 -90q27 -8 27 -39q0 -18 -11 -31.5t-28 -13.5q-10 0 -16 2l-236 72l-235 -72 q-6 -2 -17 -2q-16 0 -27.5 13.5t-11.5 31.5z" />
<glyph unicode="&#x175;" horiz-adv-x="1552" d="M43 827q0 45 68 45h286q68 0 68 -47q0 -45 -68 -45h-114l192 -698h25l198 727q12 35 28.5 49t53.5 14q39 0 55.5 -16t24.5 -45l201 -729h16l191 698h-115q-68 0 -68 47q0 45 68 45h287q66 0 65 -47q0 -45 -65 -45h-86l-199 -731q-8 -27 -23.5 -40t-28.5 -15t-40 -2 q-53 0 -70.5 16.5t-31.5 71.5l-175 700h-10l-196 -760q-16 -29 -88 -28q-31 0 -44.5 2t-30 16.5t-24.5 42.5l-196 727h-86q-68 0 -68 47zM485 1051q-4 23 21 36l254 158q18 10 37 0l254 -158q25 -14 20 -36q0 -16 -12 -29.5t-31 -13.5q-10 0 -22 6l-228 137l-227 -137 q-12 -6 -23 -6q-18 0 -30.5 13.5t-12.5 29.5z" />
<glyph unicode="&#x176;" horiz-adv-x="1552" d="M59 1206q0 45 68 45h328q68 0 67 -47q0 -43 -67 -43h-86l405 -549l408 549h-86q-68 0 -68 45t68 45h327q68 0 68 -47q0 -43 -68 -43h-110l-484 -659v-412h134q66 0 65.5 -45t-65.5 -45h-375q-66 0 -66 45t66 45h133v412l-483 659h-111q-68 0 -68 45zM487 1362q0 31 27 39 l250 90q14 4 29 0l249 -90q27 -8 27 -39q0 -18 -11 -31.5t-28 -13.5q-10 0 -16 2l-236 72l-235 -72q-6 -2 -17 -2q-16 0 -27.5 13.5t-11.5 31.5z" />
<glyph unicode="&#x177;" horiz-adv-x="1134" d="M43 -328q0 35 20.5 54.5t55.5 19.5q29 0 50 -20.5t21 -53.5q0 -10 -2 -20t-2 -12q0 -12 17.5 -21.5t32.5 -9.5q66 0 118 27.5t82.5 71.5t45 75t24.5 61l47 138l-326 798h-98q-68 0 -68 47q0 45 68 45h295q66 0 65 -47q0 -45 -65 -45h-109l279 -710l231 710h-112 q-66 0 -66 45q0 47 66 47h297q66 0 65 -47q0 -45 -65 -45h-97l-331 -968q-39 -113 -131.5 -203t-219.5 -90q-82 0 -135 45t-53 108zM276 1051q-4 23 21 36l254 158q18 10 37 0l254 -158q25 -14 20 -36q0 -16 -12 -29.5t-31 -13.5q-10 0 -22 6l-228 137l-227 -137 q-12 -6 -23 -6q-18 0 -30.5 13.5t-12.5 29.5z" />
<glyph unicode="&#x178;" horiz-adv-x="1552" d="M59 1206q0 45 68 45h328q68 0 67 -47q0 -43 -67 -43h-86l405 -549l408 549h-86q-68 0 -68 45t68 45h327q68 0 68 -47q0 -43 -68 -43h-110l-484 -659v-412h134q66 0 65.5 -45t-65.5 -45h-375q-66 0 -66 45t66 45h133v412l-483 659h-111q-68 0 -68 45zM494 1393 q0 29 21.5 52t55.5 23q33 0 54.5 -22.5t21.5 -53t-21.5 -53t-56.5 -22.5q-31 0 -53 22.5t-22 53.5zM909 1393q0 29 21.5 52t56.5 23q33 0 54.5 -22.5t21.5 -53t-21.5 -53t-56.5 -22.5q-31 0 -53.5 22.5t-22.5 53.5z" />
<glyph unicode="&#x179;" horiz-adv-x="1314" d="M121 53q0 27 10 39l916 1069h-787v-131q0 -23 -2 -34t-14.5 -22t-37 -11t-36.5 12t-14 23.5t-2 31.5v154q0 41 13 54t54 13h903q20 0 31.5 -2t24 -14t12.5 -37q0 -27 -10 -39l-916 -1069h830v172q0 23 2 34t14 22.5t39 11.5q25 0 37 -12.5t14 -23.5t2 -32v-194 q0 -41 -13 -54.5t-52 -13.5h-951q-20 0 -31.5 2t-23.5 14t-12 37zM453 1403q0 27 41 45l280 127l33 8q23 0 39 -15.5t16 -39.5q0 -35 -47 -55l-295 -132q-12 -4 -16 -4q-27 0 -39 24t-12 42z" />
<glyph unicode="&#x17a;" horiz-adv-x="956" d="M66 55q0 12 4 33l637 692h-502v-73q0 -23 -2 -34t-14.5 -22.5t-38.5 -11.5q-35 0 -43.5 17.5t-8.5 50.5v98q0 41 13.5 54t52.5 13h618q23 0 34 -2t22.5 -14t11.5 -39q0 -23 -4 -33l-635 -694h539v100q0 20 2 31.5t14 24t39 12.5q35 0 43 -17.5t8 -50.5v-122 q0 -41 -12.5 -54.5t-50.5 -13.5h-660q-23 0 -34 2t-22 14t-11 39zM274 1071q0 27 41 45l281 127l33 8q23 0 39 -15t16 -40q0 -35 -47 -55l-295 -131q-12 -4 -16 -4q-27 0 -39.5 23.5t-12.5 41.5z" />
<glyph unicode="&#x17b;" horiz-adv-x="1314" d="M121 53q0 27 10 39l916 1069h-787v-131q0 -23 -2 -34t-14.5 -22t-37 -11t-36.5 12t-14 23.5t-2 31.5v154q0 41 13 54t54 13h903q20 0 31.5 -2t24 -14t12.5 -37q0 -27 -10 -39l-916 -1069h830v172q0 23 2 34t14 22.5t39 11.5q25 0 37 -12.5t14 -23.5t2 -32v-194 q0 -41 -13 -54.5t-52 -13.5h-951q-20 0 -31.5 2t-23.5 14t-12 37zM569 1425.5q0 34.5 24.5 60t63.5 25.5q35 0 60.5 -25.5t25.5 -60t-24.5 -60.5t-63.5 -26q-35 0 -60.5 26t-25.5 60.5z" />
<glyph unicode="&#x17c;" horiz-adv-x="956" d="M66 55q0 12 4 33l637 692h-502v-73q0 -23 -2 -34t-14.5 -22.5t-38.5 -11.5q-35 0 -43.5 17.5t-8.5 50.5v98q0 41 13.5 54t52.5 13h618q23 0 34 -2t22.5 -14t11.5 -39q0 -23 -4 -33l-635 -694h539v100q0 20 2 31.5t14 24t39 12.5q35 0 43 -17.5t8 -50.5v-122 q0 -41 -12.5 -54.5t-50.5 -13.5h-660q-23 0 -34 2t-22 14t-11 39zM391 1128.5q0 34.5 24.5 60t63.5 25.5q35 0 60.5 -25.5t25.5 -60t-24.5 -60.5t-63.5 -26q-35 0 -60.5 26t-25.5 60.5z" />
<glyph unicode="&#x17d;" horiz-adv-x="1314" d="M121 53q0 27 10 39l916 1069h-787v-131q0 -23 -2 -34t-14.5 -22t-37 -11t-36.5 12t-14 23.5t-2 31.5v154q0 41 13 54t54 13h903q20 0 31.5 -2t24 -14t12.5 -37q0 -27 -10 -39l-916 -1069h830v172q0 23 2 34t14 22.5t39 11.5q25 0 37 -12.5t14 -23.5t2 -32v-194 q0 -41 -13 -54.5t-52 -13.5h-951q-20 0 -31.5 2t-23.5 14t-12 37zM367 1448q0 18 11 31.5t28 13.5q10 0 16 -2l235 -72l236 72q6 2 16 2q16 0 27.5 -13.5t11.5 -31.5q0 -31 -26 -39l-250 -90q-14 -4 -29 0l-250 90q-26 8 -26 39z" />
<glyph unicode="&#x17e;" horiz-adv-x="956" d="M66 55q0 12 4 33l637 692h-502v-73q0 -23 -2 -34t-14.5 -22.5t-38.5 -11.5q-35 0 -43.5 17.5t-8.5 50.5v98q0 41 13.5 54t52.5 13h618q23 0 34 -2t22.5 -14t11.5 -39q0 -23 -4 -33l-635 -694h539v100q0 20 2 31.5t14 24t39 12.5q35 0 43 -17.5t8 -50.5v-122 q0 -41 -12.5 -54.5t-50.5 -13.5h-660q-23 0 -34 2t-22 14t-11 39zM186 1208q0 16 12.5 29.5t30.5 13.5q10 0 23 -6l227 -137l228 137q12 6 22 6q18 0 30.5 -13t12.5 -30q4 -23 -20 -37l-254 -157q-18 -10 -37 0l-254 157q-25 14 -21 37z" />
<glyph unicode="&#x17f;" horiz-adv-x="657" d="M45 45q0 45 66 45h133v690h-111q-66 0 -65 45q0 47 67 47h109v129q0 123 91 193t218 70q182 0 182 -107q0 -33 -22.5 -53.5t-48.5 -20.5q-74 0 -74 91q-37 0 -59.5 -1.5t-60.5 -11.5t-61.5 -28.5t-41 -55.5t-17.5 -88v-899h185q66 0 65.5 -45t-65.5 -45h-424 q-66 0 -66 45z" />
<glyph unicode="&#x18e;" horiz-adv-x="1433" d="M94 68v188q0 20 2 31.5t13.5 24t35.5 12.5q27 0 39.5 -12.5t14.5 -24t2 -31.5v-166h866v514h-459q0 -76 -8 -98.5t-47 -22.5q-25 0 -37 12.5t-14 23.5t-2 32v197q0 20 2 31.5t14 23.5t37 12q39 0 47 -22.5t8 -98.5h459v467h-805v-131q0 -20 -2 -31.5t-14.5 -23.5 t-36.5 -12q-27 0 -39 11t-14 22.5t-2 33.5v154q0 39 12 53t53 14h1088q66 0 65 -47q0 -43 -65 -43h-133v-1071h133q66 0 65.5 -45t-65.5 -45h-1147q-41 0 -53.5 13.5t-12.5 54.5z" />
<glyph unicode="&#x192;" horiz-adv-x="657" d="M45 45q0 45 66 45h133v690h-111q-66 0 -65 45q0 47 67 47h109v129q0 123 91 193t218 70q182 0 182 -107q0 -33 -22.5 -53.5t-48.5 -20.5q-39 0 -56.5 31t-17.5 60q-37 0 -59.5 -1.5t-60.5 -11.5t-61.5 -28.5t-41 -55.5t-17.5 -88v-117h191q66 0 65 -47q0 -45 -65 -45 h-191v-690h185q66 0 65.5 -45t-65.5 -45h-424q-66 0 -66 45z" />
<glyph unicode="&#x1a0;" horiz-adv-x="1671" d="M117 625q0 270 209 458q213 190 508 191q168 0 331 -70l29 7q12 3 21.5 7.5t16.5 8.5t14 12l16 18q8 10 18 29q-78 29 -78 90q0 33 24.5 58.5t63.5 27.5q86 -2 86 -125q0 -125 -110 -192l47 -37q238 -211 237 -483q0 -270 -209 -457q-209 -190 -507 -191q-295 0 -508 191 q-98 88 -153.5 208t-55.5 249zM225 651q0 -244 180.5 -413.5t428.5 -169.5q250 0 430 170t180 413q0 219 -180 379q-178 154 -430 154q-250 0 -428 -154q-181 -154 -181 -379z" />
<glyph unicode="&#x1a1;" d="M82 434q0 190 133 320q131 135 320 135q113 0 225 -60q29 6 42 11.5t30.5 21t35.5 45.5q-76 29 -75 86q0 35 24.5 60.5t61.5 27.5q86 -2 86 -123q0 -133 -115 -196q137 -145 137 -328q0 -186 -133 -315q-135 -131 -319.5 -131t-319.5 131q-133 133 -133 315zM190 455 q0 -158 101 -265q104 -111 244 -110q143 0 243 110q102 106 103 265q0 139 -103 241q-104 100 -243.5 100.5t-243.5 -100.5q-101 -100 -101 -241z" />
<glyph unicode="&#x1af;" horiz-adv-x="1552" d="M92 1204q0 47 41 47h424q39 0 39 -47q-4 -43 -39 -43h-158v-749q0 -145 109 -242q109 -102 266.5 -102t265.5 102q109 96 109 242v749h-158q-35 0 -39 43q0 47 39 47h226q61 0 96 35q-66 35 -66 90q0 33 24.5 58.5t61.5 27.5q86 -2 86 -123q0 -68 -44 -119t-118 -73v-735 q0 -172 -127 -295q-154 -139 -356.5 -139.5t-339.5 124.5q-143 129 -143 310v749h-158q-37 0 -41 43z" />
<glyph unicode="&#x1b0;" horiz-adv-x="1193" d="M35 821q0 49 43 49h225q16 0 27.5 -12t11.5 -29v-616q0 -66 45 -98q55 -35 178 -35q119 0 201 60.5t82 148.5v489h-160q-14 0 -25.5 13.5t-13.5 29.5q0 49 39 49h227q66 0 113 33q-72 41 -72 90q0 35 25 61.5t61 26.5q47 0 67.5 -36.5t20.5 -83.5q0 -70 -47 -121.5 t-127 -73.5v-676h158q41 0 41 -47q-4 -43 -41 -43h-227q-16 0 -27.5 12.5t-11.5 28.5v53q-117 -106 -297 -106q-156 0 -232 51q-84 57 -83 174v565h-158q-39 0 -43 43z" />
<glyph unicode="&#x1dd;" horiz-adv-x="956" d="M84 416q0 29 10 42t21.5 15t34.5 2h630q-25 150 -128 238t-232 88q-170 0 -234 -150q-10 -25 -47 -24q-55 0 -55 41q0 59 92 141t256 82q190 0 323.5 -132t133.5 -321q0 -184 -124 -317t-300 -133q-180 0 -280.5 121t-100.5 307zM195 387q25 -309 270 -309q113 0 200 84 t113 225h-583z" />
<glyph unicode="&#x1e6;" horiz-adv-x="1673" d="M117 627q0 262 206.5 454.5t512.5 192.5q279 0 454 -141q33 74 68 131q10 10 28 10q45 0 46 -68v-293q0 -23 -2.5 -34t-14.5 -22t-39 -11q-41 0 -51 31q-12 47 -22.5 74.5t-48 74.5t-99.5 84q-127 74 -305 74q-264 0 -445.5 -165t-181.5 -394q0 -227 181.5 -392 t437.5 -165q178 0 311 101t168 271h-209q-66 0 -65 47q0 45 65 45h406q68 0 67 -47q0 -45 -67 -45h-86v-372q0 -20 -2.5 -31.5t-14.5 -24t-37 -12.5q-27 0 -39 11.5t-14 22.5t-2 34v120q-215 -211 -492 -211q-297 0 -505.5 191t-208.5 459zM547 1448q0 18 11 31.5t28 13.5 q10 0 16 -2l236 -72l235 72q6 2 17 2q16 0 27 -13.5t11 -31.5q0 -31 -26 -39l-250 -90q-14 -4 -29 0l-250 90q-26 8 -26 39z" />
<glyph unicode="&#x1e7;" d="M63 -193q0 158 166 256q-57 76 -57 158q0 80 47 146q-74 90 -74 198q0 129 96.5 224.5t233.5 95.5q102 0 205 -68q106 78 223 78q68 0 101.5 -28.5t33.5 -65.5q0 -33 -20.5 -50.5t-44.5 -17.5q-18 0 -38 16.5t-30 55.5q-92 -8 -164 -49q63 -100 64 -191 q0 -133 -96.5 -226t-233.5 -93q-106 0 -199 61q-23 -55 -22 -88l6 -33q6 -33 23 -55q33 -37 82 -37q18 -4 63 -4h150q201 0 296 -59q70 -35 103 -97.5t33 -126.5q0 -125 -138.5 -207.5t-335 -82.5t-335 81.5t-138.5 208.5zM147 -193q0 -78 114 -140t275.5 -62t275.5 62.5 t114 139.5q0 55 -29 94.5t-69 60t-107.5 31.5t-116.5 13t-125 2q-123 0 -158.5 -5t-76.5 -32q-97 -60 -97 -164zM172 1208q0 16 12.5 29.5t30.5 13.5q10 0 23 -6l227 -137l227 137q12 6 23 6q18 0 30.5 -13t12.5 -30q4 -23 -21 -37l-254 -157q-18 -10 -37 0l-253 157 q-25 14 -21 37zM254 563q0 -94 64.5 -161.5t156.5 -67.5t156.5 66.5t64.5 164.5q0 94 -64.5 162t-156.5 68q-90 0 -155.5 -68t-65.5 -164z" />
<glyph unicode="&#x1ea;" horiz-adv-x="1673" d="M117 627q0 264 209 455.5t510 191.5t509.5 -190.5t208.5 -458.5q0 -248 -183 -434.5t-464 -213.5q-127 -92 -127 -229q0 -43 37 -71.5t76 -28.5q66 0 127 84q31 25 53 8q27 -23 8 -49q-86 -119 -196 -119q-86 0 -138.5 56.5t-52.5 123.5q0 111 121 223 q-311 20 -504.5 206t-193.5 446zM223 649q0 -238 178.5 -409.5t434.5 -171.5q254 0 433 172t179 409q0 219 -178 377t-434 158t-434.5 -158t-178.5 -377z" />
<glyph unicode="&#x1eb;" d="M82 436q0 186 133 320.5t321.5 134.5t321.5 -134t133 -321q0 -172 -112.5 -298t-282.5 -146q-143 -92 -143 -244q0 -43 36.5 -71.5t73.5 -28.5q68 0 129 84q33 27 53 8q25 -20 7 -49q-82 -119 -197 -119q-84 0 -136 56.5t-52 123.5q0 119 137 234q-195 27 -308.5 151.5 t-113.5 298.5zM190 451q0 -152 100.5 -262.5t246.5 -110.5q143 0 244.5 110.5t101.5 262.5q0 150 -102.5 250t-244 100t-244 -100t-102.5 -250z" />
<glyph unicode="&#x1f4;" horiz-adv-x="1673" d="M117 627q0 262 206.5 454.5t512.5 192.5q279 0 454 -141q33 74 68 131q10 10 28 10q45 0 46 -68v-293q0 -23 -2.5 -34t-14.5 -22t-39 -11q-41 0 -51 31q-12 47 -22.5 74.5t-48 74.5t-99.5 84q-127 74 -305 74q-264 0 -445.5 -165t-181.5 -394q0 -227 181.5 -392 t437.5 -165q178 0 311 101t168 271h-209q-66 0 -65 47q0 45 65 45h406q68 0 67 -47q0 -45 -67 -45h-86v-372q0 -20 -2.5 -31.5t-14.5 -24t-37 -12.5q-27 0 -39 11.5t-14 22.5t-2 34v120q-215 -211 -492 -211q-297 0 -505.5 191t-208.5 459zM633 1403q0 27 41 45l280 127 l33 8q23 0 39 -15.5t16 -39.5q0 -35 -47 -55l-295 -132q-12 -4 -16 -4q-27 0 -39 24t-12 42z" />
<glyph unicode="&#x1f5;" d="M63 -193q0 158 166 256q-57 76 -57 158q0 80 47 146q-74 90 -74 198q0 129 96.5 224.5t233.5 95.5q102 0 205 -68q106 78 223 78q68 0 101.5 -28.5t33.5 -65.5q0 -33 -20.5 -50.5t-44.5 -17.5q-18 0 -38 16.5t-30 55.5q-92 -8 -164 -49q63 -100 64 -191 q0 -133 -96.5 -226t-233.5 -93q-106 0 -199 61q-23 -55 -22 -88l6 -33q6 -33 23 -55q33 -37 82 -37q18 -4 63 -4h150q201 0 296 -59q70 -35 103 -97.5t33 -126.5q0 -125 -138.5 -207.5t-335 -82.5t-335 81.5t-138.5 208.5zM147 -193q0 -78 114 -140t275.5 -62t275.5 62.5 t114 139.5q0 55 -29 94.5t-69 60t-107.5 31.5t-116.5 13t-125 2q-123 0 -158.5 -5t-76.5 -32q-97 -60 -97 -164zM254 563q0 -94 64.5 -161.5t156.5 -67.5t156.5 66.5t64.5 164.5q0 94 -64.5 162t-156.5 68q-90 0 -155.5 -68t-65.5 -164zM260 1071q0 27 41 45l281 127l32 8 q23 0 39.5 -15t16.5 -40q0 -35 -47 -55l-295 -131q-12 -4 -17 -4q-27 0 -39 23.5t-12 41.5z" />
<glyph unicode="&#x1fa;" horiz-adv-x="1552" d="M82 47q0 43 65 43h111l404 1129q10 27 27.5 40t29.5 15t37 2h39q25 0 38 -2t29.5 -15.5t26.5 -41.5l403 -1127h111q66 0 65.5 -45t-65.5 -45h-336q-68 0 -68 47q0 43 68 43h113l-99 272h-612l-98 -272h112q68 0 68 -45t-68 -45h-336q-65 0 -65 47zM502 455h547l-265 731 h-22zM549 1415q0 49 67.5 94t161.5 45q88 0 157 -45t69 -94t-68 -94t-162 -45q-88 0 -156.5 45t-68.5 94zM571 1661q0 27 41 45l281 127l33 8q23 0 39 -15.5t16 -39.5q0 -35 -47 -55l-295 -132q-12 -4 -16 -4q-27 0 -39.5 24t-12.5 42zM637 1415q0 -33 41 -56.5t98 -23.5 q53 0 96 23.5t43 56.5t-40.5 56.5t-98.5 23.5q-53 0 -96 -23.5t-43 -56.5z" />
<glyph unicode="&#x1fb;" horiz-adv-x="1044" d="M115 252q0 137 161.5 214t452.5 81q0 254 -278 254q-133 0 -134 -45q-2 -41 -24.5 -59.5t-48.5 -18.5q-33 0 -54.5 20.5t-21.5 57.5q0 135 281 135q193 0 291 -92t98 -217v-467q53 -25 135 -25q66 0 65 -43q0 -23 -13 -33t-27.5 -12t-43.5 -2q-53 0 -83.5 3t-69.5 20.5 t-64 52.5q-121 -88 -303 -88q-141 0 -230 77.5t-89 186.5zM223 252q0 -70 63.5 -122t164.5 -52q109 0 184 35q43 20 65.5 47.5t25.5 48t3 55.5v197q-256 -8 -381 -68.5t-125 -140.5zM295 1147q0 49 67.5 94t161.5 45q88 0 157 -45t69 -94t-68 -94t-162 -45q-88 0 -156.5 45 t-68.5 94zM317 1393q0 27 41 45l281 127l33 8q23 0 39 -15.5t16 -39.5q0 -35 -47 -56l-295 -131q-12 -4 -16 -4q-27 0 -39.5 24t-12.5 42zM383 1147q0 -33 41 -56.5t98 -23.5q53 0 96.5 23.5t43.5 56.5t-41 56.5t-99 23.5q-53 0 -96 -23.5t-43 -56.5z" />
<glyph unicode="&#x1fc;" horiz-adv-x="1910" d="M82 47q0 43 68 43h112l469 1071h-65q-68 0 -68 43q0 47 68 47h1065q41 0 53 -14t12 -53v-154q0 -23 -2 -34t-14.5 -22t-38.5 -11q-35 0 -43 17t-8 50v131h-603v-467h349q0 76 8 98.5t47 22.5q35 0 43 -17.5t8 -49.5v-197q0 -20 -2 -31.5t-13 -24t-36 -12.5 q-39 0 -47 22.5t-8 98.5h-349v-514h662v166q0 20 2 31.5t14.5 24t38.5 12.5q25 0 37 -12.5t14.5 -24t2.5 -31.5v-188q0 -41 -13.5 -54.5t-52.5 -13.5h-895q-68 0 -68 45t68 45h82v297h-471l-129 -297h106q66 0 66 -45t-66 -45h-335q-68 0 -68 47zM547 477h432v684h-129z M752 1403q0 27 41 45l280 127l33 8q23 0 39 -15.5t16 -39.5q0 -35 -47 -55l-295 -132q-12 -4 -16 -4q-27 0 -39 24t-12 42z" />
<glyph unicode="&#x1fd;" horiz-adv-x="1552" d="M106 229q0 242 615 258v82q0 113 -73 172.5t-206 59.5q-16 0 -82 -4q-37 -4 -44 -11.5t-7 -29.5q-2 -41 -24.5 -59.5t-48.5 -18.5q-33 0 -54.5 20.5t-21.5 57.5q0 135 280 135q248 0 361 -182q152 182 338 182q168 0 261 -119t93 -307q0 -29 -10 -43t-20.5 -16.5 t-35.5 -2.5h-598q25 -150 126.5 -237.5t228.5 -87.5q147 0 207 147q10 27 49 27q53 0 53 -41q0 -59 -86 -141t-236 -82q-207 0 -364 182q-86 -182 -381 -182q-143 0 -231.5 71.5t-88.5 169.5zM215 231q0 -63 64.5 -108t164.5 -45q106 0 185 33q102 41 102 139l-8 149 q-205 -6 -305 -30q-203 -60 -203 -138zM573 1071q0 27 41 45l281 127l33 8q23 0 39 -15t16 -40q0 -35 -47 -55l-295 -131q-12 -4 -16 -4q-27 0 -39.5 23.5t-12.5 41.5zM831 492h553q-10 139 -69.5 224t-175.5 85q-104 0 -192.5 -84t-115.5 -225z" />
<glyph unicode="&#x1fe;" horiz-adv-x="1673" d="M117 627q0 264 209 455.5t510 191.5q68 0 153.5 -19.5t131.5 -36t69 -26.5l147 207q23 33 45 33q18 0 34 -13.5t16 -34.5l-21 -41l-143 -196q287 -211 286 -522q0 -262 -208.5 -455t-509.5 -193q-188 0 -353 82l-153 -211q-20 -29 -41 -28q-18 0 -33.5 13t-15.5 34 q0 14 28 53l135 184q-286 212 -286 523zM197 625q0 -137 70.5 -253t187.5 -196l680 944q-168 63 -299 64q-268 0 -453.5 -165t-185.5 -394zM535 131q172 -63 301 -63q268 0 453.5 164.5t185.5 394.5q0 139 -73 255.5t-188 192.5zM633 1403q0 27 41 45l280 127l33 8 q23 0 39 -15.5t16 -39.5q0 -35 -47 -55l-295 -132q-12 -4 -16 -4q-27 0 -39 24t-12 42z" />
<glyph unicode="&#x1ff;" d="M94 -252q0 20 33 72l147 254q-176 154 -176 362q0 186 128 320.5t311 134.5q82 0 188 -43l166 289q18 31 41 30q14 0 30.5 -12t16.5 -33l-12 -35l-166 -286q174 -162 174 -365q0 -186 -129 -317t-309 -131q-88 0 -183 41l-180 -308q-12 -16 -33 -16q-14 0 -30.5 12.5 t-16.5 30.5zM178 436q0 -158 139 -286l361 622q-84 29 -141 29q-147 0 -253 -107.5t-106 -257.5zM324 1071q0 27 41 45l280 127l33 8q23 0 39 -15t16 -40q0 -35 -47 -55l-295 -131q-12 -4 -16 -4q-27 0 -39 23.5t-12 41.5zM399 102q76 -25 138 -24q147 0 252.5 104.5 t105.5 253.5q0 166 -139 287z" />
<glyph unicode="&#x200;" horiz-adv-x="1552" d="M82 47q0 43 65 43h111l404 1129q10 27 27.5 40t29.5 15t37 2h39q25 0 38 -2t29.5 -15.5t26.5 -41.5l403 -1127h111q66 0 65.5 -45t-65.5 -45h-336q-68 0 -68 47q0 43 68 43h113l-99 272h-612l-98 -272h112q68 0 68 -45t-68 -45h-336q-65 0 -65 47zM338 1523.5 q0 24.5 15.5 40t37.5 15.5q16 0 43 -20l148 -119q29 -23 28 -43q0 -18 -17.5 -39t-37.5 -21q-16 0 -37 19l-147 119q-33 24 -33 48.5zM502 455h547l-265 731h-22zM770 1523.5q0 24.5 15.5 40t39.5 15.5q18 0 41 -20l150 -119q29 -25 28.5 -43.5t-17.5 -39t-40 -20.5 q-12 0 -37 19l-147 119q-33 24 -33 48.5z" />
<glyph unicode="&#x201;" horiz-adv-x="1044" d="M115 252q0 137 161.5 214t452.5 81q0 254 -278 254q-133 0 -134 -45q-2 -41 -24.5 -59.5t-48.5 -18.5q-33 0 -54.5 20.5t-21.5 57.5q0 135 281 135q193 0 291 -92t98 -217v-467q53 -25 135 -25q66 0 65 -43q0 -23 -13 -33t-27.5 -12t-43.5 -2q-53 0 -83.5 3t-69.5 20.5 t-64 52.5q-121 -88 -303 -88q-141 0 -230 77.5t-89 186.5zM143 1194q0 25 15.5 40t38.5 15q16 0 43 -20l147 -119q29 -23 29 -43q0 -18 -17.5 -38.5t-38.5 -20.5q-16 0 -36 18l-148 119q-33 24 -33 49zM223 252q0 -70 63.5 -122t164.5 -52q109 0 184 35q43 20 65.5 47.5 t25.5 48t3 55.5v197q-256 -8 -381 -68.5t-125 -140.5zM575 1194q0 25 15.5 40t40.5 15q18 0 41 -20l149 -119q29 -25 29 -43t-17.5 -38.5t-39.5 -20.5q-12 0 -37 18l-148 119q-33 24 -33 49z" />
<glyph unicode="&#x204;" horiz-adv-x="1433" d="M94 45q0 45 66 45h133v1071h-133q-66 0 -66 43q0 47 66 47h1087q41 0 53.5 -14t12.5 -53v-154q0 -23 -2 -34t-14.5 -22t-39.5 -11q-25 0 -37 12t-14 23.5t-2 31.5v131h-805v-467h459q0 76 8 98.5t47 22.5q25 0 37.5 -12t14.5 -23.5t2 -31.5v-197q0 -20 -2 -31.5 t-14.5 -24t-37.5 -12.5q-39 0 -47 22.5t-8 98.5h-459v-514h867v166q0 20 2 31.5t14 24t39 12.5q35 0 43 -17.5t8 -50.5v-188q0 -41 -12 -54.5t-53 -13.5h-1147q-66 0 -66 45zM338 1523.5q0 24.5 15.5 40t37.5 15.5q16 0 43 -20l148 -119q29 -23 28 -43q0 -18 -17.5 -39 t-37.5 -21q-16 0 -37 19l-147 119q-33 24 -33 48.5zM770 1523.5q0 24.5 15.5 40t39.5 15.5q18 0 41 -20l150 -119q29 -25 28.5 -43.5t-17.5 -39t-40 -20.5q-12 0 -37 19l-147 119q-33 24 -33 48.5z" />
<glyph unicode="&#x205;" horiz-adv-x="956" d="M84 440q0 184 124 317.5t300 133.5q180 0 280.5 -121t100.5 -307q0 -29 -10.5 -42t-21.5 -15.5t-34 -2.5h-630q25 -150 128 -237.5t232 -87.5q170 0 233 149q10 25 48 25q55 0 55 -41q0 -59 -92 -141t-256 -82q-190 0 -323.5 132t-133.5 320zM98 1194q0 25 15.5 40 t38.5 15q16 0 43 -20l147 -119q29 -23 29 -43q0 -18 -17.5 -38.5t-38.5 -20.5q-16 0 -36 18l-148 119q-33 24 -33 49zM195 492h583q-25 309 -270 309q-113 0 -199.5 -84t-113.5 -225zM530 1194q0 25 15.5 40t40.5 15q18 0 41 -20l149 -119q29 -25 29 -43t-17.5 -38.5 t-39.5 -20.5q-12 0 -37 18l-148 119q-33 24 -33 49z" />
<glyph unicode="&#x208;" horiz-adv-x="716" d="M-20 1523.5q0 24.5 15 40t38 15.5q16 0 43 -20l147 -119q29 -23 29 -43q0 -18 -17.5 -39t-37.5 -21q-16 0 -37 19l-148 119q-32 24 -32 48.5zM94 45q0 45 66 45h143v1071h-143q-66 0 -66 43q0 47 66 47h395q66 0 66 -47q0 -43 -66 -43h-143v-1071h143q66 0 66 -45 t-66 -45h-395q-66 0 -66 45zM412 1523.5q0 24.5 15 40t40 15.5q18 0 41 -20l149 -119q29 -25 29 -43.5t-17.5 -39t-39.5 -20.5q-12 0 -37 19l-148 119q-32 24 -32 48.5z" />
<glyph unicode="&#x209;" horiz-adv-x="598" d="M-82 1194q0 25 15.5 40t37.5 15q16 0 43 -20l148 -119q29 -23 28 -43q0 -18 -17 -38.5t-38 -20.5q-16 0 -37 18l-147 119q-33 24 -33 49zM45 45q0 45 66 45h133v690h-123q-68 0 -68 47q0 45 68 45h166q41 0 53 -14t12 -53v-715h111q68 0 67.5 -45t-65.5 -45h-354 q-66 0 -66 45zM350 1194q0 25 15.5 40t40.5 15q18 0 40 -20l150 -119q29 -25 29 -43t-17.5 -38.5t-40.5 -20.5q-12 0 -37 18l-147 119q-33 24 -33 49z" />
<glyph unicode="&#x20c;" horiz-adv-x="1673" d="M117 627q0 264 209 455.5t510 191.5t509.5 -190.5t208.5 -458.5q0 -262 -208.5 -455t-509.5 -193t-510 191t-209 459zM223 649q0 -238 178.5 -409.5t434.5 -171.5q254 0 433 172t179 409q0 219 -178 377t-434 158t-434.5 -158t-178.5 -377zM457 1523.5q0 24.5 15 40 t38 15.5q16 0 43 -20l147 -119q29 -23 29 -43q0 -18 -17.5 -39t-37.5 -21q-16 0 -37 19l-148 119q-32 24 -32 48.5zM889 1523.5q0 24.5 15.5 40t39.5 15.5q18 0 41 -20l150 -119q29 -25 28.5 -43.5t-18 -39t-39.5 -20.5q-12 0 -37 19l-147 119q-33 24 -33 48.5z" />
<glyph unicode="&#x20d;" d="M82 436.5q0 186.5 133 320.5t321.5 134t321.5 -134t133 -320.5t-133 -317.5t-321.5 -131t-321.5 131t-133 317.5zM158 1194q0 25 15 40t38 15q16 0 43 -20l147 -119q29 -23 29 -43q0 -18 -17.5 -38.5t-37.5 -20.5q-16 0 -37 18l-148 119q-32 24 -32 49zM190 451 q0 -152 100.5 -262.5t246.5 -110.5q143 0 244.5 110.5t101.5 262.5q0 150 -102.5 250t-244 100t-244 -100t-102.5 -250zM590 1194q0 25 15.5 40t39.5 15q18 0 41 -20l150 -119q29 -25 28.5 -43t-18 -38.5t-39.5 -20.5q-12 0 -37 18l-147 119q-33 24 -33 49z" />
<glyph unicode="&#x210;" horiz-adv-x="1552" d="M92 45q0 45 66 45h133v1071h-133q-66 0 -66 43q0 47 66 47h565q225 0 390 -97t165 -239q0 -168 -268 -284q109 -55 147 -111q27 -41 33 -75.5t6 -122.5q0 -63 3 -101.5t16.5 -77.5t41 -57t72.5 -18t79 28.5t34 83.5q0 45 51 45q55 0 55 -45q0 -76 -61.5 -139.5 t-157.5 -63.5q-123 0 -188 86q-37 49 -45.5 96.5t-8.5 151.5q0 111 -14 146t-80 73q-102 49 -274 50h-320v-490h131q66 0 66 -45t-66 -45h-372q-66 0 -66 45zM338 1523.5q0 24.5 15.5 40t37.5 15.5q16 0 43 -20l148 -119q29 -23 28 -43q0 -18 -17.5 -39t-37.5 -21 q-16 0 -37 19l-147 119q-33 24 -33 48.5zM399 672h306q184 0 325 70.5t141 173t-142 174t-324 71.5h-306v-489zM770 1523.5q0 24.5 15.5 40t39.5 15.5q18 0 41 -20l150 -119q29 -25 28.5 -43.5t-17.5 -39t-40 -20.5q-12 0 -37 19l-147 119q-33 24 -33 48.5z" />
<glyph unicode="&#x211;" horiz-adv-x="835" d="M39 1194q0 25 15.5 40t37.5 15q16 0 43 -20l148 -119q29 -23 28 -43q0 -18 -17.5 -38.5t-37.5 -20.5q-16 0 -37 18l-147 119q-33 24 -33 49zM43 45q0 45 66 45h131v690h-131q-66 0 -66 45q0 47 66 47h174q47 0 56 -25.5t9 -123.5q74 84 138.5 123t140.5 39q63 0 101 -35 t38 -78q0 -33 -20.5 -52.5t-49.5 -19.5q-27 0 -49 19.5t-22 73.5q-135 -14 -206 -135t-71 -281v-287h184q66 0 66 -45t-66 -45h-423q-66 0 -66 45zM471 1194q0 25 15.5 40t39.5 15q18 0 41 -20l150 -119q29 -25 28.5 -43t-17.5 -38.5t-40 -20.5q-12 0 -37 18l-147 119 q-33 24 -33 49z" />
<glyph unicode="&#x214;" horiz-adv-x="1552" d="M92 1204q0 47 66 47h372q66 0 66 -47q0 -43 -66 -43h-131v-733q0 -172 116 -266t261 -94q139 0 257 93t118 267v733h-133q-63 0 -64 43q0 47 64 47h375q66 0 65 -47q0 -43 -65 -43h-133v-745q0 -186 -141.5 -312.5t-344.5 -126.5q-199 0 -341 125t-142 314v745h-133 q-66 0 -66 43zM444 1523.5q0 24.5 15.5 40t38.5 15.5q16 0 43 -20l147 -119q29 -23 29 -43q0 -18 -17.5 -39t-37.5 -21q-16 0 -37 19l-148 119q-33 24 -33 48.5zM877 1523.5q0 24.5 15 40t40 15.5q18 0 41 -20l149 -119q29 -25 29 -43.5t-17.5 -39t-39.5 -20.5q-12 0 -37 19 l-148 119q-32 24 -32 48.5z" />
<glyph unicode="&#x215;" horiz-adv-x="1193" d="M37 825q0 47 65 47h174q41 0 53.5 -14t12.5 -53v-569q0 -37 4 -56.5t21.5 -47.5t63.5 -41t122 -13q41 0 82 7t94 28.5t87 73t34 124.5v469h-133q-66 0 -66 47q0 45 66 45h174q41 0 53 -14t12 -53v-715h134q66 0 65.5 -45t-65.5 -45h-175q-20 0 -31.5 3t-22.5 25.5 t-11 65.5q-137 -106 -309 -106q-305 0 -305 235v557h-134q-65 0 -65 45zM217 1194q0 25 15.5 40t37.5 15q16 0 43 -20l148 -119q29 -23 28 -43q0 -18 -17 -38.5t-38 -20.5q-16 0 -37 18l-147 119q-33 24 -33 49zM649 1194q0 25 15.5 40t40.5 15q18 0 40 -20l150 -119 q29 -25 29 -43t-17.5 -38.5t-40.5 -20.5q-12 0 -37 18l-147 119q-33 24 -33 49z" />
<glyph unicode="&#x218;" horiz-adv-x="1193" d="M123 45v279q0 20 2 31.5t14.5 23.5t38.5 12q49 0 53 -53q4 -76 33 -123t92 -86q109 -61 293 -61q145 0 232.5 77.5t87.5 178.5q0 43 -18.5 84t-37.5 59l-18 20q-51 43 -90 58.5t-150 38.5l-92 18q-117 25 -160 36t-93 34.5t-89 60.5q-98 94 -98 215q0 131 116.5 228.5 t299.5 97.5q209 0 350 -121q29 82 40 101.5t34 19.5q45 0 45 -68v-278q0 -20 -2 -31.5t-14.5 -24t-39.5 -12.5q-31 0 -40 12.5t-15 40.5q-51 270 -360 271q-137 0 -225.5 -70t-88.5 -158q0 -92 76 -148t147 -71l312 -65q137 -29 224 -124t87 -216q0 -141 -115.5 -248 t-306.5 -107q-254 0 -405 113q-29 -74 -40.5 -93.5t-33.5 -19.5q-45 0 -45 68zM520 -418q0 6 17 29q70 55 77 160q-80 6 -79 63q0 23 17 40t42 17q80 0 80 -120q0 -86 -46 -151.5t-77 -65.5q-12 0 -21.5 9t-9.5 19z" />
<glyph unicode="&#x219;" horiz-adv-x="847" d="M80 55v203q0 20 2 31.5t14.5 24t38.5 12.5q39 0 51 -29q27 -102 78 -160.5t166 -58.5q25 0 54.5 4t78.5 17.5t81 51t32 95.5q0 63 -53.5 103t-124.5 59l-25 4q-59 10 -92 17t-87 21.5t-85 32t-64.5 42t-49 58t-15.5 76.5q0 82 74.5 157t261.5 75q111 0 200 -51 q16 51 50 51q45 0 45 -68v-145q0 -23 -2 -34t-14.5 -22.5t-39.5 -11.5q-43 0 -51 37q-4 31 -9 50.5t-22.5 47t-58.5 42t-102 14.5q-121 0 -181.5 -40t-60.5 -102q0 -63 69.5 -95t223.5 -60q39 -6 77 -17.5t96 -38t94 -80t36 -122.5q0 -100 -80 -179t-258 -79q-135 0 -242 86 q-6 -29 -11 -43.5t-18.5 -28.5t-31.5 -14q-45 -1 -45 67zM348 -418q0 6 17 29q70 55 77 160q-80 6 -80 63q0 23 17.5 40t42.5 17q80 0 80 -120q0 -86 -46 -151.5t-77 -65.5q-12 0 -21.5 9t-9.5 19z" />
<glyph unicode="&#x21a;" horiz-adv-x="1552" d="M76 1030v154q0 41 13 54t54 13h1266q41 0 53.5 -14t12.5 -53v-154q0 -23 -2.5 -34t-14.5 -22t-39 -11q-25 0 -37 12t-14 23.5t-2 31.5v131h-537v-1071h215q68 0 68 -45t-68 -45h-538q-68 0 -68 47q0 43 68 43h215v1071h-539v-131q0 -23 -2 -34t-14 -22t-37 -11t-37 12 t-14 23.5t-2 31.5zM700 -418q0 6 17 29q70 55 78 160q-80 6 -80 63q0 23 17.5 40t41.5 17q80 0 80 -120q0 -86 -46 -151.5t-77 -65.5q-12 0 -21.5 9t-9.5 19z" />
<glyph unicode="&#x21b;" horiz-adv-x="835" d="M47 825q0 47 68 47h125v191q0 23 2 34t14 22t39 11q25 0 37 -12t14 -23.5t2 -31.5v-191h254q66 0 66 -47q0 -45 -66 -45h-254v-526q0 -176 123 -176q51 0 89 44t38 126q0 14 1 22.5t5 18.5t15.5 15t29.5 5q27 0 39 -11t14.5 -21.5t2.5 -30.5q0 -113 -71 -185.5 t-171 -72.5q-86 0 -154.5 59t-68.5 193v540h-127q-66 0 -66 45zM342 -418q0 6 16 29q70 55 78 160q-80 6 -80 63q0 23 16.5 40t43.5 17q80 0 80 -120q0 -86 -46.5 -151.5t-76.5 -65.5q-12 0 -21.5 9t-9.5 19z" />
<glyph unicode="&#x258;" horiz-adv-x="956" d="M84 211q0 41 55 41q37 0 47 -25q63 -150 234 -149q129 0 232.5 88t127.5 237h-630q-23 0 -34.5 2.5t-21.5 15.5t-10 42q0 186 100.5 307t280.5 121q176 0 300 -133t124 -318q0 -188 -133 -320t-324 -132q-164 0 -256 82t-92 141zM195 492h583q-27 141 -113.5 225 t-199.5 84q-245 0 -270 -309z" />
<glyph unicode="&#x259;" horiz-adv-x="956" d="M84 416q0 29 10 42t21.5 15t34.5 2h630q-25 150 -128 238t-232 88q-170 0 -234 -150q-10 -25 -47 -24q-55 0 -55 41q0 59 92 141t256 82q190 0 323.5 -132t133.5 -321q0 -184 -124 -317t-300 -133q-180 0 -280.5 121t-100.5 307zM195 387q25 -309 270 -309q113 0 200 84 t113 225h-583z" />
<glyph unicode="&#x2be;" horiz-adv-x="829" d="M119 999q0 14 12 39t38 57.5t81 55.5t129 23q141 0 236.5 -99.5t95.5 -236.5q0 -74 -31 -147t-115 -132t-205 -59q-225 0 -225 108q0 31 20.5 50.5t49.5 19.5q63 0 63 -74q0 -14 92 -14q72 0 125.5 27.5t78 70.5t35.5 80t11 70q0 102 -70.5 173.5t-168.5 71.5 q-113 0 -158 -104q-14 -20 -43 -21q-51 0 -51 41z" />
<glyph unicode="&#x2bf;" horiz-adv-x="829" d="M119 836q0 74 30.5 146.5t114.5 132t205 59.5q225 0 225 -109q0 -31 -20.5 -50.5t-48.5 -19.5q-63 0 -64 74q0 14 -92 14q-72 0 -125 -27.5t-77.5 -70.5t-36 -80t-11.5 -69q0 -102 70.5 -174t169.5 -72q113 0 157 104q14 20 43 21q51 0 52 -41q0 -14 -12.5 -39t-38 -57.5 t-81 -55t-128.5 -22.5q-141 0 -236.5 99.5t-95.5 236.5z" />
<glyph unicode="&#x2c6;" d="M246 1051q-4 23 20 36l254 158q18 10 37 0l254 -158q25 -14 20 -36q0 -16 -12 -29.5t-31 -13.5q-10 0 -22 6l-227 137l-228 -137q-12 -6 -22 -6q-18 0 -30.5 13.5t-12.5 29.5z" />
<glyph unicode="&#x2c7;" d="M246 1208q0 16 12 29.5t31 13.5q10 0 22 -6l228 -137l227 137q12 6 22 6q18 0 30.5 -13t12.5 -30q4 -23 -20 -37l-254 -157q-18 -10 -37 0l-254 157q-24 14 -20 37z" />
<glyph unicode="&#x2d8;" d="M186 1182q0 47 47 47q27 0 39 -25q18 -80 266 -80t267 80q12 25 39 25q47 0 47 -47q0 -43 -25.5 -75t-58.5 -46t-90.5 -22.5t-90 -9.5t-88 -1t-88 1t-90 9.5t-90 22.5t-58.5 46t-26 75z" />
<glyph unicode="&#x2d9;" horiz-adv-x="598" d="M211 1128.5q0 34.5 24.5 60t63.5 25.5q35 0 60.5 -25.5t25.5 -60t-24.5 -60.5t-63.5 -26q-35 0 -60.5 26t-25.5 60.5z" />
<glyph unicode="&#x2da;" horiz-adv-x="1552" d="M549 1147q0 49 67.5 94t161.5 45q88 0 157 -45t69 -94t-68 -94t-162 -45q-88 0 -156.5 45t-68.5 94zM637 1147q0 -33 41 -56.5t98 -23.5q53 0 96 23.5t43 56.5t-40.5 56.5t-98.5 23.5q-53 0 -96 -23.5t-43 -56.5z" />
<glyph unicode="&#x2db;" d="M342 -248q0 63 44 126t108 106h61q-127 -84 -127 -236q0 -43 37 -71.5t76 -28.5q68 0 129 84q6 6 23.5 9t27.5 -1q8 -8 11 -23.5t-3 -25.5q-86 -119 -197 -119q-86 0 -138 56t-52 124z" />
<glyph unicode="&#x2dc;" d="M188 1069q0 31 97 102q90 66 153 66q47 0 97 -37q41 -37 53 -49t28.5 -21.5t28.5 -9.5q55 0 160 99q23 18 37 18q18 0 32.5 -15.5t14.5 -33.5q0 -29 -96 -101q-90 -66 -154 -65q-51 0 -96 37q-51 49 -71.5 63.5t-39.5 14.5q-57 0 -160 -97q-18 -18 -36.5 -18t-33 15.5 t-14.5 31.5z" />
<glyph unicode="&#x2dd;" d="M211 1067q0 18 29 43l149 119q23 20 41 20q25 0 40 -15t15 -40t-32 -49l-148 -119q-25 -18 -37 -18q-23 0 -40 20.5t-17 38.5zM645 1067q0 20 29 43l147 119q27 20 43 20q23 0 38.5 -15t15.5 -40t-33 -49l-148 -119q-20 -18 -37 -18q-20 0 -37.5 20.5t-17.5 38.5z" />
<glyph unicode="&#x300;" horiz-adv-x="0" d="M-729 1196q0 25 16.5 40t38.5 15l33 -8l281 -127q41 -18 41 -45q0 -18 -12.5 -41.5t-39.5 -23.5q-4 0 -16 4l-295 131q-47 20 -47 55z" />
<glyph unicode="&#x301;" horiz-adv-x="0" d="M-727 1071q0 27 41 45l280 127l33 8q23 0 39.5 -15t16.5 -40q0 -35 -48 -55l-294 -131q-12 -4 -17 -4q-27 0 -39 23.5t-12 41.5z" />
<glyph unicode="&#x302;" horiz-adv-x="0" d="M-815 1051q-4 23 20 36l254 158q18 10 37 0l254 -158q25 -14 21 -36q0 -16 -12.5 -29.5t-30.5 -13.5q-10 0 -23 6l-227 137l-228 -137q-12 -6 -22 -6q-18 0 -30.5 13.5t-12.5 29.5z" />
<glyph unicode="&#x303;" horiz-adv-x="0" d="M-872 1069q0 31 96 102q90 66 153 66q47 0 97 -37q41 -37 53 -49t28.5 -21.5t28.5 -9.5q55 0 160 99q23 18 37 18q18 0 32.5 -15.5t14.5 -33.5q0 -29 -96 -101q-90 -66 -154 -65q-51 0 -96 37q-51 49 -71.5 63.5t-39.5 14.5q-57 0 -159 -97q-18 -18 -37 -18t-33 15.5 t-14 31.5z" />
<glyph unicode="&#x304;" horiz-adv-x="0" d="M-901 1128.5q0 47.5 63 47.5h631q63 0 64 -50q0 -45 -64 -45h-627q-67 0 -67 47.5z" />
<glyph unicode="&#x306;" horiz-adv-x="0" d="M-874 1182q0 47 47 47q27 0 39 -25q18 -80 266 -80t266 80q12 25 39 25q47 0 47 -47q0 -43 -25.5 -75t-58.5 -46t-90 -22.5t-90 -9.5t-88.5 -1t-88 1t-90 9.5t-90 22.5t-58 46t-25.5 75z" />
<glyph unicode="&#x307;" horiz-adv-x="0" d="M-610 1128.5q0 34.5 24.5 60t63.5 25.5q35 0 60.5 -25.5t25.5 -60t-24.5 -60.5t-63.5 -26q-35 0 -60.5 26t-25.5 60.5z" />
<glyph unicode="&#x308;" horiz-adv-x="0" d="M-776 1128q0 29 21.5 52.5t56.5 23.5q33 0 55 -22.5t22 -53t-22.5 -53t-56.5 -22.5q-29 0 -52.5 22t-23.5 53zM-424 1128q0 29 22.5 52.5t57.5 23.5q31 0 53.5 -22.5t22.5 -53t-21.5 -53t-56.5 -22.5q-31 0 -54.5 22t-23.5 53z" />
<glyph unicode="&#x309;" horiz-adv-x="0" d="M-711 1202q0 66 51.5 108t120.5 42q88 0 142 -35q61 -43 61 -112.5t-63 -102.5q-102 -55 -103 -119v-39q0 -14 -11 -25.5t-26 -11.5q-16 0 -27.5 10.5t-11.5 26.5v39q0 106 144 186l22 29q0 39 -26 55q-35 23 -101 23q-37 0 -64.5 -22.5t-27.5 -51.5q0 -12 -9 -25.5 t-30 -13.5q-41 0 -41 39z" />
<glyph unicode="&#x30a;" horiz-adv-x="0" d="M-750 1147q0 49 68 94t162 45q88 0 156.5 -45t68.5 -94t-67.5 -94t-161.5 -45q-88 0 -157 45t-69 94zM-662 1147q0 -33 41 -56.5t99 -23.5q53 0 96 23.5t43 56.5t-41 56.5t-98 23.5q-53 0 -96.5 -23.5t-43.5 -56.5z" />
<glyph unicode="&#x30b;" horiz-adv-x="0" d="M-850 1067q0 18 29 43l149 119q23 20 41 20q25 0 40.5 -15t15.5 -40t-33 -49l-148 -119q-25 -18 -37 -18q-23 0 -40 20.5t-17 38.5zM-416 1067q0 20 29 43l147 119q27 20 43 20q23 0 38.5 -15t15.5 -40t-33 -49l-148 -119q-20 -18 -36 -18q-20 0 -38 20.5t-18 38.5z" />
<glyph unicode="&#x30c;" horiz-adv-x="0" d="M-815 1208q0 16 12 29.5t31 13.5q10 0 22 -6l228 -137l227 137q12 6 23 6q18 0 30.5 -13t12.5 -30q4 -23 -21 -37l-254 -157q-18 -10 -37 0l-254 157q-24 14 -20 37z" />
<glyph unicode="&#x30f;" horiz-adv-x="0" d="M-903 1194q0 25 15.5 40t37.5 15q16 0 43 -20l148 -119q29 -23 28 -43q0 -18 -17.5 -38.5t-37.5 -20.5q-16 0 -37 18l-147 119q-33 24 -33 49zM-471 1194q0 25 15.5 40t39.5 15q18 0 41 -20l150 -119q29 -25 28.5 -43t-17.5 -38.5t-40 -20.5q-12 0 -37 18l-147 119 q-33 24 -33 49z" />
<glyph unicode="&#x311;" horiz-adv-x="0" d="M-874 1075q0 43 25.5 75t58 46t90 22.5t90 9.5t88 1t88.5 -1t90 -9.5t90 -22.5t58.5 -46t25.5 -75q0 -47 -47 -47q-27 0 -39 25q-18 80 -266 80t-266 -80q-12 -25 -39 -25q-47 0 -47 47z" />
<glyph unicode="&#x323;" horiz-adv-x="0" d="M-610 -336q0 35 24.5 60.5t63.5 25.5q35 0 60.5 -25.5t25.5 -60.5t-24.5 -60.5t-63.5 -25.5q-35 0 -60.5 25.5t-25.5 60.5z" />
<glyph unicode="&#x326;" horiz-adv-x="0" d="M-600 -418q0 6 16 29q70 55 78 160q-80 6 -80 63q0 23 16.5 40t43.5 17q80 0 80 -120q0 -86 -46.5 -151.5t-76.5 -65.5q-12 0 -21.5 9t-9.5 19z" />
<glyph unicode="&#x32e;" horiz-adv-x="0" d="M-874 -254q0 47 47 47q27 0 39 -24q18 -80 266 -80t266 80q12 25 39 24q47 0 47 -47q0 -43 -25.5 -74.5t-58.5 -46t-90 -23t-90 -9.5t-88.5 -1t-88 1t-90 9.5t-90 23t-58 46t-25.5 74.5z" />
<glyph unicode="&#x32f;" horiz-adv-x="0" d="M-874 -360q0 43 25.5 74.5t58 46t90 22.5t90 9t88 1t88.5 -1t90 -9t90 -22.5t58.5 -46t25.5 -74.5q0 -47 -47 -48q-27 0 -39 25q-18 80 -266 80t-266 -80q-12 -25 -39 -25q-47 1 -47 48z" />
<glyph unicode="&#x330;" horiz-adv-x="0" d="M-872 -367q0 31 96 103q90 66 153 65q47 0 97 -37q41 -37 53 -49t28.5 -21t28.5 -9q55 0 160 98q23 18 37 18q18 0 32.5 -15t14.5 -34q0 -29 -96 -100q-90 -66 -154 -66q-51 0 -96 37q-51 49 -71.5 63.5t-39.5 14.5q-57 0 -159 -96q-18 -18 -37 -18.5t-33 15t-14 31.5z " />
<glyph unicode="&#x331;" horiz-adv-x="0" d="M-901 -307q0 47 63 47h631q63 0 64 -49q0 -45 -64 -45h-627q-67 0 -67 47z" />
<glyph unicode="&#x332;" horiz-adv-x="0" d="M-901 -307q0 47 63 47h631q63 0 64 -49q0 -45 -64 -45h-627q-67 0 -67 47z" />
<glyph unicode="&#x393;" horiz-adv-x="1314" d="M96 45q0 45 66 45h133v1071h-133q-66 0 -66 43q0 47 66 47h993q41 0 53.5 -14t12.5 -53v-154q0 -23 -2 -34t-14.5 -22t-39.5 -11q-35 0 -43 17t-8 50v131h-713v-1071h185q66 0 65.5 -45t-65.5 -45h-424q-66 0 -66 45z" />
<glyph unicode="&#x394;" horiz-adv-x="1792" d="M113 20l4 19l647 1180q14 27 32.5 40t33 15t42.5 2h46q49 0 70.5 -13.5t41.5 -50.5l643 -1175l4 -17q0 -20 -47 -20h-1470q-47 0 -47 20zM276 102h1237l-583 1069h-70z" />
<glyph unicode="&#x398;" horiz-adv-x="1673" d="M117 627q0 264 209 455.5t510 191.5t509.5 -190.5t208.5 -458.5q0 -262 -208.5 -455t-509.5 -193t-510 191t-209 459zM223 625q0 -227 178.5 -392t434.5 -165q254 0 433 163.5t179 395.5q0 227 -178 392t-434 165q-254 0 -433.5 -164t-179.5 -395zM387 575v101 q0 20 2 31.5t14.5 23.5t36.5 12q51 0 56 -65h680q2 31 13 46t19.5 17t22.5 2q25 0 37 -12t14 -23.5t2 -31.5v-101q0 -20 -2 -31.5t-14.5 -23.5t-36.5 -12q-51 0 -55 65h-680q-2 -31 -13.5 -46t-19.5 -17t-23 -2q-25 0 -37 12t-14 23.5t-2 31.5z" />
<glyph unicode="&#x39b;" horiz-adv-x="1433" d="M82 45q0 45 65 45h89l368 1131q18 55 92 55h39q74 0 92 -55l369 -1131h88q66 0 66 -45t-66 -45h-315q-66 0 -66 45t66 45h114l-356 1084h-25l-354 -1084h115q66 0 65.5 -45t-65.5 -45h-316q-65 0 -65 45z" />
<glyph unicode="&#x39e;" horiz-adv-x="1433" d="M90 68v51q0 20 2 31.5t14.5 23.5t36.5 12q39 0 47.5 -21.5t8.5 -78.5h1034q0 57 8 78.5t47 21.5q25 0 37 -12t14 -23.5t2 -31.5v-51q0 -41 -13 -54.5t-52 -13.5h-1118q-41 0 -54.5 13.5t-13.5 54.5zM102 1143v41q0 41 13.5 54t54.5 13h1094q41 0 53 -14t12 -53v-41 q0 -68 -53 -68q-27 0 -39 12.5t-14 27.5t-2 50h-1010q0 -35 -2 -50t-14.5 -27.5t-38.5 -12.5q-54 0 -54 68zM305 575v150q0 23 2 34t14.5 22.5t36.5 11.5q39 0 47.5 -20.5t8.5 -78.5h604q0 57 8 78t47 21q25 0 37 -11.5t14 -22.5t2 -34v-150q0 -20 -2 -31.5t-14 -23.5 t-37 -12q-39 0 -47 21.5t-8 78.5h-604q0 -57 -8.5 -78.5t-47.5 -21.5q-25 0 -37 12t-14 23.5t-2 31.5z" />
<glyph unicode="&#x3a0;" horiz-adv-x="1552" d="M92 45q0 45 66 45h133v1071h-133q-66 0 -66 43q0 47 66 47h1235q66 0 65 -47q0 -43 -65 -43h-133v-1071h133q66 0 65.5 -45t-65.5 -45h-375q-63 0 -63.5 45t63.5 45h133v1071h-752v-1071h131q66 0 66 -45t-66 -45h-372q-66 0 -66 45z" />
<glyph unicode="&#x3a3;" horiz-adv-x="1552" d="M119 41q0 10 6 22l471 562l-459 538q-18 25 -18 41q0 47 65 47h1182q41 0 53.5 -13t12.5 -54v-154q0 -23 -2.5 -34t-14.5 -22t-36.5 -11t-37 12t-14.5 23.5t-2 31.5v131h-1044l424 -495q20 -25 20 -41l-4 -15q-4 -12 -16 -26l-412 -490h1032v131q0 23 2 34t14.5 22.5 t38.5 11.5q35 0 43.5 -17.5t8.5 -50.5v-157q0 -41 -12.5 -54.5t-53.5 -13.5h-1182q-65 0 -65 41z" />
<glyph unicode="&#x3a5;" horiz-adv-x="1673" d="M117 1020q0 104 94 179t227 75q170 0 260 -118t136 -351q51 236 142 352.5t257 116.5q133 0 227 -75t94 -179q0 -47 -53 -47q-51 0 -51 33q0 90 -64.5 143t-158.5 53q-92 0 -161 -54t-104.5 -142t-53 -180.5t-17.5 -186.5v-549h182q66 0 66 -45t-66 -45h-473 q-66 0 -65 47q0 43 65 43h182v549q0 90 -16 180t-52 180.5t-105.5 146.5t-164.5 56q-96 0 -159.5 -54t-63.5 -140q0 -35 -51 -35q-53 0 -53 47z" />
<glyph unicode="&#x3a6;" horiz-adv-x="1552" d="M119 627q0 125 180 208t422 93v233h-182q-66 0 -66 43q0 47 66 47h473q66 0 65 -47q0 -43 -65 -43h-183v-233q240 -10 421.5 -92t181.5 -211q0 -125 -180.5 -208t-422.5 -93v-234h183q66 0 65.5 -45t-65.5 -45h-473q-66 0 -66 45t66 45h182v234q-240 10 -421 92t-181 211 zM225 627q0 -51 53.5 -92t133.5 -66t160.5 -38t148.5 -15v420q-100 -2 -210 -25t-198 -72t-88 -112zM829 416q68 2 149 15t161 38t133 65.5t53 92.5q0 63 -88 112t-197.5 72t-210.5 25v-420z" />
<glyph unicode="&#x3a8;" horiz-adv-x="1673" d="M117 934q0 47 57 47q82 0 149.5 -54.5t73.5 -187.5q12 -293 385 -325v747h-182q-66 0 -65.5 45t65.5 45h473q66 0 66 -47q0 -43 -66 -43h-182v-747q168 14 272.5 92t110.5 227q6 115 49 164q76 84 172 84q59 0 59 -47q0 -39 -41 -43q-45 -4 -72.5 -20.5t-38.5 -44 t-14.5 -47t-5.5 -50.5q-8 -184 -140 -285.5t-351 -119.5v-234h182q66 0 66 -45t-66 -45h-473q-66 0 -65 47q0 43 65 43h182v234q-119 10 -199.5 34.5t-158.5 85.5q-59 49 -95 130t-40 151q0 35 -4 55.5t-16.5 48t-41 43t-75.5 19.5q-35 8 -35 43z" />
<glyph unicode="&#x3a9;" horiz-adv-x="1552" d="M94 68v55q0 68 41 67q27 0 33 -24.5t6 -75.5h315q-16 80 -51 144.5t-119 175.5l-98 134t-68.5 133t-33.5 161q0 184 189.5 310t467.5 126q274 0 465 -126t191 -310q0 -76 -34 -160t-69 -134l-96 -132q-88 -115 -122 -178.5t-50 -143.5h315q0 35 1 51.5t10.5 32.5t27.5 16 q41 0 41 -67v-55q0 -41 -13 -54.5t-52 -13.5h-357q-20 0 -31.5 2t-23.5 14.5t-12 36.5q0 156 184 408q57 78 87 125t58.5 117.5t28.5 134.5q0 139 -158.5 242.5t-392.5 103.5q-229 0 -389 -103.5t-160 -242.5q0 -63 29 -135t57.5 -117t85.5 -125q55 -74 86 -121t66 -131 t35 -156q0 -25 -12.5 -37t-22.5 -14t-31 -2h-356q-41 0 -54.5 13.5t-13.5 54.5z" />
<glyph unicode="&#xe3f;" horiz-adv-x="1492" d="M94 45q0 45 66 45h131v1071h-131q-66 0 -66 43q0 47 66 47h524v150q0 20 13.5 33.5t33.5 13.5q18 0 31.5 -13.5t13.5 -33.5v-150h64q199 0 335 -92t136 -215q0 -109 -84 -177.5t-256 -111.5q401 -70 401 -321q0 -133 -136 -233.5t-337 -100.5h-123v-150q0 -20 -13 -33.5 t-32 -13.5q-20 0 -33.5 13.5t-13.5 33.5v150h-524q-66 0 -66 45zM399 90h285v516h-285v-516zM399 696h285v465h-285v-465zM776 90h64q174 0 299 71.5t125 176t-132.5 186.5t-297.5 82h-58v-516zM776 696q193 6 310.5 79t117.5 167q0 86 -105.5 152.5t-262.5 66.5h-60v-465z " />
<glyph unicode="&#x1e0c;" horiz-adv-x="1613" d="M92 45q0 45 66 45h133v1071h-133q-66 0 -66 43q0 47 66 47h678q272 0 464.5 -187t192.5 -450q0 -254 -191.5 -434t-465.5 -180h-678q-66 0 -66 45zM397 90h402q246 0 415.5 154.5t169.5 372t-168.5 381t-418.5 163.5h-400v-1071zM524 -336q0 35 24.5 60.5t63.5 25.5 q35 0 60.5 -25.5t25.5 -60.5t-24.5 -60.5t-63.5 -25.5q-35 0 -60.5 25.5t-25.5 60.5z" />
<glyph unicode="&#x1e0d;" horiz-adv-x="1193" d="M94 434q0 188 133 319.5t320 131.5q154 0 303 -131v407h-133q-66 0 -66 45t66 45h174q41 0 53 -14t12 -53v-1094h134q66 0 65.5 -45t-65.5 -45h-175q-41 0 -53 13.5t-12 54.5v86q-125 -166 -326 -166q-178 0 -304 131t-126 315zM201 434q0 -145 98 -250.5t236 -105.5 q133 0 224 103.5t91 215.5v140q0 100 -87 178t-206 78q-145 0 -250.5 -104.5t-105.5 -254.5zM510 -336q0 35 24.5 60.5t63.5 25.5q35 0 60.5 -25.5t25.5 -60.5t-24.5 -60.5t-63.5 -25.5q-35 0 -60.5 25.5t-25.5 60.5z" />
<glyph unicode="&#x1e0e;" horiz-adv-x="1613" d="M92 45q0 45 66 45h133v1071h-133q-66 0 -66 43q0 47 66 47h678q272 0 464.5 -187t192.5 -450q0 -254 -191.5 -434t-465.5 -180h-678q-66 0 -66 45zM236 -307q0 47 63 47h631q63 0 63 -49q0 -45 -63 -45h-627q-67 0 -67 47zM397 90h402q246 0 415.5 154.5t169.5 372 t-168.5 381t-418.5 163.5h-400v-1071z" />
<glyph unicode="&#x1e0f;" horiz-adv-x="1193" d="M94 434q0 188 133 319.5t320 131.5q154 0 303 -131v407h-133q-66 0 -66 45t66 45h174q41 0 53 -14t12 -53v-1094h134q66 0 65.5 -45t-65.5 -45h-175q-41 0 -53 13.5t-12 54.5v86q-125 -166 -326 -166q-178 0 -304 131t-126 315zM201 434q0 -145 98 -250.5t236 -105.5 q133 0 224 103.5t91 215.5v140q0 100 -87 178t-206 78q-145 0 -250.5 -104.5t-105.5 -254.5zM219 -307q0 47 64 47h630q63 0 64 -49q0 -45 -64 -45h-626q-68 0 -68 47z" />
<glyph unicode="&#x1e24;" horiz-adv-x="1552" d="M92 45q0 45 66 45h133v1071h-133q-66 0 -66 43q0 47 66 47h372q66 0 66 -47q0 -43 -66 -43h-131v-465h752v465h-133q-63 0 -64 43q0 47 64 47h375q66 0 65 -47q0 -43 -65 -43h-133v-1071h133q66 0 65.5 -45t-65.5 -45h-375q-63 0 -63.5 45t63.5 45h133v516h-752v-516h131 q66 0 66 -45t-66 -45h-372q-66 0 -66 45zM688 -336q0 35 24.5 60.5t63.5 25.5q35 0 60.5 -25.5t25.5 -60.5t-24.5 -60.5t-63.5 -25.5q-35 0 -60.5 25.5t-25.5 60.5z" />
<glyph unicode="&#x1e25;" horiz-adv-x="1193" d="M37 45q0 45 65 45h134v1071h-134q-66 0 -65 43q0 47 65 47h174q41 0 53.5 -13t12.5 -54v-445q158 145 330 146q285 0 284 -289v-506h134q66 0 65.5 -45t-65.5 -45h-373q-66 0 -66 47q0 43 66 43h133v492q0 109 -38 160t-153 51q-51 0 -102 -16.5t-101 -50.5t-82 -97.5 t-32 -147.5v-391h133q66 0 66 -45t-66 -45h-373q-65 0 -65 45zM508 -336q0 35 24.5 60.5t63.5 25.5q35 0 60.5 -25.5t25.5 -60.5t-24.5 -60.5t-63.5 -25.5q-35 0 -60.5 25.5t-25.5 60.5z" />
<glyph unicode="&#x1e26;" horiz-adv-x="1552" d="M92 45q0 45 66 45h133v1071h-133q-66 0 -66 43q0 47 66 47h372q66 0 66 -47q0 -43 -66 -43h-131v-465h752v465h-133q-63 0 -64 43q0 47 64 47h375q66 0 65 -47q0 -43 -65 -43h-133v-1071h133q66 0 65.5 -45t-65.5 -45h-375q-63 0 -63.5 45t63.5 45h133v516h-752v-516h131 q66 0 66 -45t-66 -45h-372q-66 0 -66 45zM494 1393q0 29 21.5 52t55.5 23q33 0 54.5 -22.5t21.5 -53t-21.5 -53t-56.5 -22.5q-31 0 -53 22.5t-22 53.5zM909 1393q0 29 21.5 52t56.5 23q33 0 54.5 -22.5t21.5 -53t-21.5 -53t-56.5 -22.5q-31 0 -53.5 22.5t-22.5 53.5z" />
<glyph unicode="&#x1e27;" horiz-adv-x="1193" d="M37 45q0 45 65 45h134v1071h-134q-66 0 -65 43q0 47 65 47h174q41 0 53.5 -13t12.5 -54v-445q158 145 330 146q285 0 284 -289v-506h134q66 0 65.5 -45t-65.5 -45h-373q-66 0 -66 47q0 43 66 43h133v492q0 109 -38 160t-153 51q-51 0 -102 -16.5t-101 -50.5t-82 -97.5 t-32 -147.5v-391h133q66 0 66 -45t-66 -45h-373q-65 0 -65 45zM313 1393q0 29 21.5 52t56.5 23q33 0 54.5 -22.5t21.5 -53t-21.5 -53t-56.5 -22.5q-31 0 -53.5 22.5t-22.5 53.5zM729 1393q0 29 21.5 52t56.5 23q33 0 54.5 -22.5t21.5 -53t-21.5 -53t-56.5 -22.5 q-31 0 -53.5 22.5t-22.5 53.5z" />
<glyph unicode="&#x1e2a;" horiz-adv-x="1552" d="M92 45q0 45 66 45h133v1071h-133q-66 0 -66 43q0 47 66 47h372q66 0 66 -47q0 -43 -66 -43h-131v-465h752v465h-133q-63 0 -64 43q0 47 64 47h375q66 0 65 -47q0 -43 -65 -43h-133v-1071h133q66 0 65.5 -45t-65.5 -45h-375q-63 0 -63.5 45t63.5 45h133v516h-752v-516h131 q66 0 66 -45t-66 -45h-372q-66 0 -66 45zM426 -254q0 47 47 47q27 0 39 -24q18 -80 266 -80t266 80q12 25 39 24q47 0 47 -47q0 -43 -25.5 -74.5t-58 -46t-90 -23t-90 -9.5t-88 -1t-88.5 1t-90 9.5t-90 23t-58.5 46t-25.5 74.5z" />
<glyph unicode="&#x1e2b;" horiz-adv-x="1193" d="M37 45q0 45 65 45h134v1071h-134q-66 0 -65 43q0 47 65 47h174q41 0 53.5 -13t12.5 -54v-445q158 145 330 146q285 0 284 -289v-506h134q66 0 65.5 -45t-65.5 -45h-373q-66 0 -66 47q0 43 66 43h133v492q0 109 -38 160t-153 51q-51 0 -102 -16.5t-101 -50.5t-82 -97.5 t-32 -147.5v-391h133q66 0 66 -45t-66 -45h-373q-65 0 -65 45zM246 -254q0 47 47 47q27 0 39 -24q18 -80 266 -80t266 80q12 25 39 24q47 0 47 -47q0 -43 -25.5 -74.5t-58 -46t-90 -23t-90.5 -9.5t-88 -1t-88 1t-90.5 9.5t-90 23t-58 46t-25.5 74.5z" />
<glyph unicode="&#x1e36;" horiz-adv-x="1314" d="M96 45q0 45 66 45h133v1071h-133q-66 0 -66 43q0 47 66 47h424q66 0 65 -47q0 -43 -65 -43h-185v-1071h713v166q0 23 2 34t14.5 22.5t37 11.5t37 -12.5t14.5 -24t2 -31.5v-188q0 -41 -12.5 -54.5t-53.5 -13.5h-993q-66 0 -66 45zM569 -336q0 35 24.5 60.5t63.5 25.5 q35 0 60.5 -25.5t25.5 -60.5t-24.5 -60.5t-63.5 -25.5q-35 0 -60.5 25.5t-25.5 60.5z" />
<glyph unicode="&#x1e37;" horiz-adv-x="598" d="M45 45q0 45 66 45h133v1071h-133q-66 0 -66 43q0 47 66 47h176q41 0 53 -14t12 -53v-1094h133q66 0 66 -45t-66 -45h-374q-66 0 -66 45zM211 -336q0 35 24.5 60.5t63.5 25.5q35 0 60.5 -25.5t25.5 -60.5t-24.5 -60.5t-63.5 -25.5q-35 0 -60.5 25.5t-25.5 60.5z" />
<glyph unicode="&#x1e38;" horiz-adv-x="1314" d="M-4 1405q0 47 63 47h631q63 0 64 -49q0 -45 -64 -45h-627q-67 0 -67 47zM96 45q0 45 66 45h133v1071h-133q-66 0 -66 43q0 47 66 47h424q66 0 65 -47q0 -43 -65 -43h-185v-1071h713v166q0 23 2 34t14.5 22.5t37 11.5t37 -12.5t14.5 -24t2 -31.5v-188q0 -41 -12.5 -54.5 t-53.5 -13.5h-993q-66 0 -66 45zM569 -336q0 35 24.5 60.5t63.5 25.5q35 0 60.5 -25.5t25.5 -60.5t-24.5 -60.5t-63.5 -25.5q-35 0 -60.5 25.5t-25.5 60.5z" />
<glyph unicode="&#x1e39;" horiz-adv-x="598" d="M-127 1405q0 47 64 47h630q63 0 64 -49q0 -45 -64 -45h-626q-68 0 -68 47zM45 45q0 45 66 45h133v1071h-133q-66 0 -66 43q0 47 66 47h176q41 0 53 -14t12 -53v-1094h133q66 0 66 -45t-66 -45h-374q-66 0 -66 45zM211 -336q0 35 24.5 60.5t63.5 25.5q35 0 60.5 -25.5 t25.5 -60.5t-24.5 -60.5t-63.5 -25.5q-35 0 -60.5 25.5t-25.5 60.5z" />
<glyph unicode="&#x1e42;" horiz-adv-x="1910" d="M102 45q0 45 66 45h133v1071h-133q-66 0 -66 43q0 47 66 47h203q47 0 71.5 -13t42.5 -54l469 -1092l469 1098q27 61 115 61h203q66 0 65 -47q0 -43 -65 -43h-133v-1071h133q66 0 65.5 -45t-65.5 -45h-346q-66 0 -66 47q0 43 66 43h133v1071h-27l-461 -1075 q-16 -35 -42.5 -54.5t-43.5 -19.5q-51 0 -80 64l-466 1085h-27v-1071h133q66 0 66 -45t-66 -45h-346q-66 0 -66 45zM868 -336q0 35 25 60.5t63 25.5q35 0 60.5 -25.5t25.5 -60.5t-24.5 -60.5t-63.5 -25.5q-35 0 -60.5 25.5t-25.5 60.5z" />
<glyph unicode="&#x1e43;" horiz-adv-x="1792" d="M29 45q0 45 63 45h133v690h-133q-63 0 -63 45q0 47 63 47h176q47 0 56.5 -23.5t9.5 -109.5q160 145 330 146q197 0 270 -166q156 166 346 166q137 0 212 -73t75 -216v-506h133q63 0 63 -45t-63 -45h-375q-66 0 -65.5 45t65.5 45h133v492q0 111 -39 161t-153 50 q-49 0 -100.5 -16.5t-101.5 -50.5t-82 -97.5t-32 -147.5v-391h133q66 0 66 -45t-66 -45h-374q-66 0 -66 45t66 45h133v492q0 111 -39 161t-154 50q-49 0 -100 -16.5t-101.5 -50.5t-82 -97.5t-31.5 -147.5v-391h133q66 0 65.5 -45t-65.5 -45h-375q-63 0 -63 45zM809 -336 q0 35 24.5 60.5t63.5 25.5q35 0 60.5 -25.5t25.5 -60.5t-24.5 -60.5t-63.5 -25.5q-35 0 -60.5 25.5t-25.5 60.5z" />
<glyph unicode="&#x1e44;" horiz-adv-x="1552" d="M106 45q0 45 66 45h133v1071h-133q-66 0 -66 43q0 47 66 47h201q90 0 127 -61l628 -1100h37v1071h-133q-66 0 -65 43q0 47 65 47h346q66 0 66 -47q0 -43 -66 -43h-133v-1093q0 -41 -14 -54.5t-53 -13.5q-90 0 -127 61l-629 1100h-37v-1071h133q66 0 66 -45t-66 -45h-346 q-66 0 -66 45zM688 1403q0 35 24.5 60.5t63.5 25.5q35 0 60.5 -25.5t25.5 -60.5t-24.5 -60.5t-63.5 -25.5q-35 0 -60.5 25.5t-25.5 60.5z" />
<glyph unicode="&#x1e45;" horiz-adv-x="1193" d="M37 45q0 45 65 45h134v690h-134q-66 0 -65 45q0 47 65 47h174q47 0 56.5 -23.5t9.5 -109.5q158 145 330 146q285 0 284 -289v-506h134q66 0 65.5 -45t-65.5 -45h-373q-66 0 -66 47q0 43 66 43h133v492q0 109 -38 160t-153 51q-51 0 -102 -16.5t-101 -50.5t-82 -97.5 t-32 -147.5v-391h133q66 0 66 -45t-66 -45h-373q-65 0 -65 45zM510 1128.5q0 34.5 24.5 60t63.5 25.5q35 0 60.5 -25.5t25.5 -60t-24.5 -60.5t-63.5 -26q-35 0 -60.5 26t-25.5 60.5z" />
<glyph unicode="&#x1e46;" horiz-adv-x="1552" d="M106 45q0 45 66 45h133v1071h-133q-66 0 -66 43q0 47 66 47h201q90 0 127 -61l628 -1100h37v1071h-133q-66 0 -65 43q0 47 65 47h346q66 0 66 -47q0 -43 -66 -43h-133v-1093q0 -41 -14 -54.5t-53 -13.5q-90 0 -127 61l-629 1100h-37v-1071h133q66 0 66 -45t-66 -45h-346 q-66 0 -66 45zM688 -336q0 35 24.5 60.5t63.5 25.5q35 0 60.5 -25.5t25.5 -60.5t-24.5 -60.5t-63.5 -25.5q-35 0 -60.5 25.5t-25.5 60.5z" />
<glyph unicode="&#x1e47;" horiz-adv-x="1193" d="M37 45q0 45 65 45h134v690h-134q-66 0 -65 45q0 47 65 47h174q47 0 56.5 -23.5t9.5 -109.5q158 145 330 146q285 0 284 -289v-506h134q66 0 65.5 -45t-65.5 -45h-373q-66 0 -66 47q0 43 66 43h133v492q0 109 -38 160t-153 51q-51 0 -102 -16.5t-101 -50.5t-82 -97.5 t-32 -147.5v-391h133q66 0 66 -45t-66 -45h-373q-65 0 -65 45zM510 -336q0 35 24.5 60.5t63.5 25.5q35 0 60.5 -25.5t25.5 -60.5t-24.5 -60.5t-63.5 -25.5q-35 0 -60.5 25.5t-25.5 60.5z" />
<glyph unicode="&#x1e58;" horiz-adv-x="1552" d="M92 45q0 45 66 45h133v1071h-133q-66 0 -66 43q0 47 66 47h565q225 0 390 -97t165 -239q0 -168 -268 -284q109 -55 147 -111q27 -41 33 -75.5t6 -122.5q0 -63 3 -101.5t16.5 -77.5t41 -57t72.5 -18t79 28.5t34 83.5q0 45 51 45q55 0 55 -45q0 -76 -61.5 -139.5 t-157.5 -63.5q-123 0 -188 86q-37 49 -45.5 96.5t-8.5 151.5q0 111 -14 146t-80 73q-102 49 -274 50h-320v-490h131q66 0 66 -45t-66 -45h-372q-66 0 -66 45zM399 672h306q184 0 325 70.5t141 173t-142 174t-324 71.5h-306v-489zM688 1425.5q0 34.5 24.5 60t63.5 25.5 q35 0 60.5 -25.5t25.5 -60t-24.5 -60.5t-63.5 -26q-35 0 -60.5 26t-25.5 60.5z" />
<glyph unicode="&#x1e59;" horiz-adv-x="835" d="M43 45q0 45 66 45h131v690h-131q-66 0 -66 45q0 47 66 47h174q47 0 56 -25.5t9 -123.5q74 84 138.5 123t140.5 39q63 0 101 -35t38 -78q0 -33 -20.5 -52.5t-49.5 -19.5q-27 0 -49 19.5t-22 73.5q-135 -14 -206 -135t-71 -281v-287h184q66 0 66 -45t-66 -45h-423 q-66 0 -66 45zM330 1128.5q0 34.5 24.5 60t63.5 25.5q35 0 60.5 -25.5t25.5 -60t-24.5 -60.5t-63.5 -26q-35 0 -60.5 26t-25.5 60.5z" />
<glyph unicode="&#x1e5a;" horiz-adv-x="1552" d="M92 45q0 45 66 45h133v1071h-133q-66 0 -66 43q0 47 66 47h565q225 0 390 -97t165 -239q0 -168 -268 -284q109 -55 147 -111q27 -41 33 -75.5t6 -122.5q0 -63 3 -101.5t16.5 -77.5t41 -57t72.5 -18t79 28.5t34 83.5q0 45 51 45q55 0 55 -45q0 -76 -61.5 -139.5 t-157.5 -63.5q-123 0 -188 86q-37 49 -45.5 96.5t-8.5 151.5q0 111 -14 146t-80 73q-102 49 -274 50h-320v-490h131q66 0 66 -45t-66 -45h-372q-66 0 -66 45zM399 672h306q184 0 325 70.5t141 173t-142 174t-324 71.5h-306v-489zM688 -336q0 35 24.5 60.5t63.5 25.5 q35 0 60.5 -25.5t25.5 -60.5t-24.5 -60.5t-63.5 -25.5q-35 0 -60.5 25.5t-25.5 60.5z" />
<glyph unicode="&#x1e5b;" horiz-adv-x="835" d="M43 45q0 45 66 45h131v690h-131q-66 0 -66 45q0 47 66 47h174q47 0 56 -25.5t9 -123.5q74 84 138.5 123t140.5 39q63 0 101 -35t38 -78q0 -33 -20.5 -52.5t-49.5 -19.5q-27 0 -49 19.5t-22 73.5q-135 -14 -206 -135t-71 -281v-287h184q66 0 66 -45t-66 -45h-423 q-66 0 -66 45zM233 -336q0 35 25 60.5t64 25.5q35 0 60.5 -25.5t25.5 -60.5t-25 -60.5t-64 -25.5q-35 0 -60.5 25.5t-25.5 60.5z" />
<glyph unicode="&#x1e5c;" horiz-adv-x="1552" d="M92 45q0 45 66 45h133v1071h-133q-66 0 -66 43q0 47 66 47h565q225 0 390 -97t165 -239q0 -168 -268 -284q109 -55 147 -111q27 -41 33 -75.5t6 -122.5q0 -63 3 -101.5t16.5 -77.5t41 -57t72.5 -18t79 28.5t34 83.5q0 45 51 45q55 0 55 -45q0 -76 -61.5 -139.5 t-157.5 -63.5q-123 0 -188 86q-37 49 -45.5 96.5t-8.5 151.5q0 111 -14 146t-80 73q-102 49 -274 50h-320v-490h131q66 0 66 -45t-66 -45h-372q-66 0 -66 45zM399 672h306q184 0 325 70.5t141 173t-142 174t-324 71.5h-306v-489zM399 1405q0 47 64 47h631q63 0 63 -49 q0 -45 -63 -45h-627q-68 0 -68 47zM688 -336q0 35 24.5 60.5t63.5 25.5q35 0 60.5 -25.5t25.5 -60.5t-24.5 -60.5t-63.5 -25.5q-35 0 -60.5 25.5t-25.5 60.5z" />
<glyph unicode="&#x1e5d;" horiz-adv-x="835" d="M41 1128.5q0 47.5 63 47.5h631q63 0 64 -50q0 -45 -64 -45h-626q-68 0 -68 47.5zM43 45q0 45 66 45h131v690h-131q-66 0 -66 45q0 47 66 47h174q47 0 56 -25.5t9 -123.5q74 84 138.5 123t140.5 39q63 0 101 -35t38 -78q0 -33 -20.5 -52.5t-49.5 -19.5q-27 0 -49 19.5 t-22 73.5q-135 -14 -206 -135t-71 -281v-287h184q66 0 66 -45t-66 -45h-423q-66 0 -66 45zM233 -336q0 35 25 60.5t64 25.5q35 0 60.5 -25.5t25.5 -60.5t-25 -60.5t-64 -25.5q-35 0 -60.5 25.5t-25.5 60.5z" />
<glyph unicode="&#x1e62;" horiz-adv-x="1193" d="M123 45v279q0 20 2 31.5t14.5 23.5t38.5 12q49 0 53 -53q4 -76 33 -123t92 -86q109 -61 293 -61q145 0 232.5 77.5t87.5 178.5q0 43 -18.5 84t-37.5 59l-18 20q-51 43 -90 58.5t-150 38.5l-92 18q-117 25 -160 36t-93 34.5t-89 60.5q-98 94 -98 215q0 131 116.5 228.5 t299.5 97.5q209 0 350 -121q29 82 40 101.5t34 19.5q45 0 45 -68v-278q0 -20 -2 -31.5t-14.5 -24t-39.5 -12.5q-31 0 -40 12.5t-15 40.5q-51 270 -360 271q-137 0 -225.5 -70t-88.5 -158q0 -92 76 -148t147 -71l312 -65q137 -29 224 -124t87 -216q0 -141 -115.5 -248 t-306.5 -107q-254 0 -405 113q-29 -74 -40.5 -93.5t-33.5 -19.5q-45 0 -45 68zM510 -336q0 35 24.5 60.5t63.5 25.5q35 0 60.5 -25.5t25.5 -60.5t-24.5 -60.5t-63.5 -25.5q-35 0 -60.5 25.5t-25.5 60.5z" />
<glyph unicode="&#x1e63;" horiz-adv-x="847" d="M80 55v203q0 20 2 31.5t14.5 24t38.5 12.5q39 0 51 -29q27 -102 78 -160.5t166 -58.5q25 0 54.5 4t78.5 17.5t81 51t32 95.5q0 63 -53.5 103t-124.5 59l-25 4q-59 10 -92 17t-87 21.5t-85 32t-64.5 42t-49 58t-15.5 76.5q0 82 74.5 157t261.5 75q111 0 200 -51 q16 51 50 51q45 0 45 -68v-145q0 -23 -2 -34t-14.5 -22.5t-39.5 -11.5q-43 0 -51 37q-4 31 -9 50.5t-22.5 47t-58.5 42t-102 14.5q-121 0 -181.5 -40t-60.5 -102q0 -63 69.5 -95t223.5 -60q39 -6 77 -17.5t96 -38t94 -80t36 -122.5q0 -100 -80 -179t-258 -79q-135 0 -242 86 q-6 -29 -11 -43.5t-18.5 -28.5t-31.5 -14q-45 -1 -45 67zM336 -336q0 35 24.5 60.5t63.5 25.5q35 0 60.5 -25.5t25.5 -60.5t-24.5 -60.5t-63.5 -25.5q-35 0 -60.5 25.5t-25.5 60.5z" />
<glyph unicode="&#x1e6c;" horiz-adv-x="1552" d="M76 1030v154q0 41 13 54t54 13h1266q41 0 53.5 -14t12.5 -53v-154q0 -23 -2.5 -34t-14.5 -22t-39 -11q-25 0 -37 12t-14 23.5t-2 31.5v131h-537v-1071h215q68 0 68 -45t-68 -45h-538q-68 0 -68 47q0 43 68 43h215v1071h-539v-131q0 -23 -2 -34t-14 -22t-37 -11t-37 12 t-14 23.5t-2 31.5zM688 -336q0 35 24.5 60.5t63.5 25.5q35 0 60.5 -25.5t25.5 -60.5t-24.5 -60.5t-63.5 -25.5q-35 0 -60.5 25.5t-25.5 60.5z" />
<glyph unicode="&#x1e6d;" horiz-adv-x="835" d="M47 825q0 47 68 47h125v191q0 23 2 34t14 22t39 11q25 0 37 -12t14 -23.5t2 -31.5v-191h254q66 0 66 -47q0 -45 -66 -45h-254v-526q0 -176 123 -176q51 0 89 44t38 126q0 14 1 22.5t5 18.5t15.5 15t29.5 5q27 0 39 -11t14.5 -21.5t2.5 -30.5q0 -113 -71 -185.5 t-171 -72.5q-86 0 -154.5 59t-68.5 193v540h-127q-66 0 -66 45zM330 -336q0 35 24.5 60.5t63.5 25.5q35 0 60.5 -25.5t25.5 -60.5t-24.5 -60.5t-63.5 -25.5q-35 0 -60.5 25.5t-25.5 60.5z" />
<glyph unicode="&#x1e6e;" horiz-adv-x="1552" d="M76 1030v154q0 41 13 54t54 13h1266q41 0 53.5 -14t12.5 -53v-154q0 -23 -2.5 -34t-14.5 -22t-39 -11q-25 0 -37 12t-14 23.5t-2 31.5v131h-537v-1071h215q68 0 68 -45t-68 -45h-538q-68 0 -68 47q0 43 68 43h215v1071h-539v-131q0 -23 -2 -34t-14 -22t-37 -11t-37 12 t-14 23.5t-2 31.5zM399 -307q0 47 64 47h631q63 0 63 -49q0 -45 -63 -45h-627q-68 0 -68 47z" />
<glyph unicode="&#x1e6f;" horiz-adv-x="835" d="M41 -307q0 47 63 47h631q63 0 64 -49q0 -45 -64 -45h-626q-68 0 -68 47zM47 825q0 47 68 47h125v191q0 23 2 34t14 22t39 11q25 0 37 -12t14 -23.5t2 -31.5v-191h254q66 0 66 -47q0 -45 -66 -45h-254v-526q0 -176 123 -176q51 0 89 44t38 126q0 14 1 22.5t5 18.5t15.5 15 t29.5 5q27 0 39 -11t14.5 -21.5t2.5 -30.5q0 -113 -71 -185.5t-171 -72.5q-86 0 -154.5 59t-68.5 193v540h-127q-66 0 -66 45z" />
<glyph unicode="&#x1e80;" horiz-adv-x="2150" d="M37 1206q0 45 67 45h285q68 0 68 -47q0 -43 -68 -43h-115l326 -1087h41l338 1120q8 27 23.5 40t30 15t42.5 2q27 0 40 -2t30.5 -15t25.5 -40l334 -1120h41l328 1087h-115q-68 0 -67 43q0 47 67 47h285q68 0 67 -47q0 -43 -67 -43h-86l-336 -1120q-8 -27 -25.5 -40 t-31 -15t-39.5 -2q-47 0 -63.5 12t-30.5 53l-338 1112h-41l-336 -1114q-8 -31 -22.5 -45t-29 -16t-44.5 -2q-68 0 -86 34l-345 1143h-86q-67 0 -67 45zM870 1528q0 25 16.5 40t39.5 15l32 -8l281 -127q41 -18 41 -45q0 -18 -12.5 -42t-38.5 -24q-4 0 -17 4l-294 132 q-48 20 -48 55z" />
<glyph unicode="&#x1e81;" horiz-adv-x="1552" d="M43 827q0 45 68 45h286q68 0 68 -47q0 -45 -68 -45h-114l192 -698h25l198 727q12 35 28.5 49t53.5 14q39 0 55.5 -16t24.5 -45l201 -729h16l191 698h-115q-68 0 -68 47q0 45 68 45h287q66 0 65 -47q0 -45 -65 -45h-86l-199 -731q-8 -27 -23.5 -40t-28.5 -15t-40 -2 q-53 0 -70.5 16.5t-31.5 71.5l-175 700h-10l-196 -760q-16 -29 -88 -28q-31 0 -44.5 2t-30 16.5t-24.5 42.5l-196 727h-86q-68 0 -68 47zM571 1196q0 25 16.5 40t39.5 15l32 -8l281 -127q41 -18 41 -45q0 -18 -12.5 -41.5t-38.5 -23.5q-4 0 -17 4l-295 131q-47 20 -47 55z " />
<glyph unicode="&#x1e82;" horiz-adv-x="2150" d="M37 1206q0 45 67 45h285q68 0 68 -47q0 -43 -68 -43h-115l326 -1087h41l338 1120q8 27 23.5 40t30 15t42.5 2q27 0 40 -2t30.5 -15t25.5 -40l334 -1120h41l328 1087h-115q-68 0 -67 43q0 47 67 47h285q68 0 67 -47q0 -43 -67 -43h-86l-336 -1120q-8 -27 -25.5 -40 t-31 -15t-39.5 -2q-47 0 -63.5 12t-30.5 53l-338 1112h-41l-336 -1114q-8 -31 -22.5 -45t-29 -16t-44.5 -2q-68 0 -86 34l-345 1143h-86q-67 0 -67 45zM872 1403q0 27 41 45l281 127l33 8q23 0 39 -15.5t16 -39.5q0 -35 -47 -55l-295 -132q-12 -4 -16 -4q-27 0 -39.5 24 t-12.5 42z" />
<glyph unicode="&#x1e83;" horiz-adv-x="1552" d="M43 827q0 45 68 45h286q68 0 68 -47q0 -45 -68 -45h-114l192 -698h25l198 727q12 35 28.5 49t53.5 14q39 0 55.5 -16t24.5 -45l201 -729h16l191 698h-115q-68 0 -68 47q0 45 68 45h287q66 0 65 -47q0 -45 -65 -45h-86l-199 -731q-8 -27 -23.5 -40t-28.5 -15t-40 -2 q-53 0 -70.5 16.5t-31.5 71.5l-175 700h-10l-196 -760q-16 -29 -88 -28q-31 0 -44.5 2t-30 16.5t-24.5 42.5l-196 727h-86q-68 0 -68 47zM573 1071q0 27 41 45l281 127l33 8q23 0 39 -15t16 -40q0 -35 -47 -55l-295 -131q-12 -4 -16 -4q-27 0 -39.5 23.5t-12.5 41.5z" />
<glyph unicode="&#x1e84;" horiz-adv-x="2150" d="M37 1206q0 45 67 45h285q68 0 68 -47q0 -43 -68 -43h-115l326 -1087h41l338 1120q8 27 23.5 40t30 15t42.5 2q27 0 40 -2t30.5 -15t25.5 -40l334 -1120h41l328 1087h-115q-68 0 -67 43q0 47 67 47h285q68 0 67 -47q0 -43 -67 -43h-86l-336 -1120q-8 -27 -25.5 -40 t-31 -15t-39.5 -2q-47 0 -63.5 12t-30.5 53l-338 1112h-41l-336 -1114q-8 -31 -22.5 -45t-29 -16t-44.5 -2q-68 0 -86 34l-345 1143h-86q-67 0 -67 45zM793 1393q0 29 21.5 52t55.5 23q33 0 54.5 -22.5t21.5 -53t-21.5 -53t-56.5 -22.5q-31 0 -53 22.5t-22 53.5zM1208 1393 q0 29 21.5 52t56.5 23q33 0 54.5 -22.5t21.5 -53t-21.5 -53t-56.5 -22.5q-31 0 -53.5 22.5t-22.5 53.5z" />
<glyph unicode="&#x1e85;" horiz-adv-x="1552" d="M43 827q0 45 68 45h286q68 0 68 -47q0 -45 -68 -45h-114l192 -698h25l198 727q12 35 28.5 49t53.5 14q39 0 55.5 -16t24.5 -45l201 -729h16l191 698h-115q-68 0 -68 47q0 45 68 45h287q66 0 65 -47q0 -45 -65 -45h-86l-199 -731q-8 -27 -23.5 -40t-28.5 -15t-40 -2 q-53 0 -70.5 16.5t-31.5 71.5l-175 700h-10l-196 -760q-16 -29 -88 -28q-31 0 -44.5 2t-30 16.5t-24.5 42.5l-196 727h-86q-68 0 -68 47zM524 1128q0 29 21.5 52.5t56.5 23.5q33 0 55.5 -22.5t22.5 -53t-22.5 -53t-57.5 -22.5q-29 0 -52.5 22t-23.5 53zM877 1128 q0 29 22.5 52.5t56.5 23.5q31 0 53.5 -22.5t22.5 -53t-21.5 -53t-56.5 -22.5q-31 0 -54 22t-23 53z" />
<glyph unicode="&#x1e92;" horiz-adv-x="1314" d="M121 53q0 27 10 39l916 1069h-787v-131q0 -23 -2 -34t-14.5 -22t-37 -11t-36.5 12t-14 23.5t-2 31.5v154q0 41 13 54t54 13h903q20 0 31.5 -2t24 -14t12.5 -37q0 -27 -10 -39l-916 -1069h830v172q0 23 2 34t14 22.5t39 11.5q25 0 37 -12.5t14 -23.5t2 -32v-194 q0 -41 -13 -54.5t-52 -13.5h-951q-20 0 -31.5 2t-23.5 14t-12 37zM569 -336q0 35 24.5 60.5t63.5 25.5q35 0 60.5 -25.5t25.5 -60.5t-24.5 -60.5t-63.5 -25.5q-35 0 -60.5 25.5t-25.5 60.5z" />
<glyph unicode="&#x1e93;" horiz-adv-x="956" d="M66 55q0 12 4 33l637 692h-502v-73q0 -23 -2 -34t-14.5 -22.5t-38.5 -11.5q-35 0 -43.5 17.5t-8.5 50.5v98q0 41 13.5 54t52.5 13h618q23 0 34 -2t22.5 -14t11.5 -39q0 -23 -4 -33l-635 -694h539v100q0 20 2 31.5t14 24t39 12.5q35 0 43 -17.5t8 -50.5v-122 q0 -41 -12.5 -54.5t-50.5 -13.5h-660q-23 0 -34 2t-22 14t-11 39zM391 -336q0 35 24.5 60.5t63.5 25.5q35 0 60.5 -25.5t25.5 -60.5t-24.5 -60.5t-63.5 -25.5q-35 0 -60.5 25.5t-25.5 60.5z" />
<glyph unicode="&#x1e97;" horiz-adv-x="835" d="M47 825q0 47 68 47h125v191q0 23 2 34t14 22t39 11q25 0 37 -12t14 -23.5t2 -31.5v-191h254q66 0 66 -47q0 -45 -66 -45h-254v-526q0 -176 123 -176q51 0 89 44t38 126q0 14 1 22.5t5 18.5t15.5 15t29.5 5q27 0 39 -11t14.5 -21.5t2.5 -30.5q0 -113 -71 -185.5 t-171 -72.5q-86 0 -154.5 59t-68.5 193v540h-127q-66 0 -66 45zM135 1270q0 29 21.5 52.5t56.5 23.5q33 0 54.5 -23t21.5 -53.5t-21.5 -53t-56.5 -22.5q-31 0 -53.5 22.5t-22.5 53.5zM551 1270q0 29 21.5 52.5t56.5 23.5q33 0 54.5 -23t21.5 -53.5t-21.5 -53t-56.5 -22.5 q-31 0 -53.5 22.5t-22.5 53.5z" />
<glyph unicode="&#x1ea0;" horiz-adv-x="1552" d="M82 47q0 43 65 43h111l404 1129q10 27 27.5 40t29.5 15t37 2h39q25 0 38 -2t29.5 -15.5t26.5 -41.5l403 -1127h111q66 0 65.5 -45t-65.5 -45h-336q-68 0 -68 47q0 43 68 43h113l-99 272h-612l-98 -272h112q68 0 68 -45t-68 -45h-336q-65 0 -65 47zM502 455h547l-265 731 h-22zM688 -336q0 35 24.5 60.5t63.5 25.5q35 0 60.5 -25.5t25.5 -60.5t-24.5 -60.5t-63.5 -25.5q-35 0 -60.5 25.5t-25.5 60.5z" />
<glyph unicode="&#x1ea1;" horiz-adv-x="1044" d="M115 252q0 137 161.5 214t452.5 81q0 254 -278 254q-133 0 -134 -45q-2 -41 -24.5 -59.5t-48.5 -18.5q-33 0 -54.5 20.5t-21.5 57.5q0 135 281 135q193 0 291 -92t98 -217v-467q53 -25 135 -25q66 0 65 -43q0 -23 -13 -33t-27.5 -12t-43.5 -2q-53 0 -83.5 3t-69.5 20.5 t-64 52.5q-121 -88 -303 -88q-141 0 -230 77.5t-89 186.5zM223 252q0 -70 63.5 -122t164.5 -52q109 0 184 35q43 20 65.5 47.5t25.5 48t3 55.5v197q-256 -8 -381 -68.5t-125 -140.5zM434 -336q0 35 24.5 60.5t63.5 25.5q35 0 60.5 -25.5t25.5 -60.5t-24.5 -60.5t-63.5 -25.5 q-35 0 -60.5 25.5t-25.5 60.5z" />
<glyph unicode="&#x1ea2;" horiz-adv-x="1552" d="M82 47q0 43 65 43h111l404 1129q10 27 27.5 40t29.5 15t37 2h39q25 0 38 -2t29.5 -15.5t26.5 -41.5l403 -1127h111q66 0 65.5 -45t-65.5 -45h-336q-68 0 -68 47q0 43 68 43h113l-99 272h-612l-98 -272h112q68 0 68 -45t-68 -45h-336q-65 0 -65 47zM502 455h547l-265 731 h-22zM590 1634q0 66 51 108t121 42q88 0 141 -35q61 -43 62 -113q0 -72 -64 -102q-102 -55 -102 -119v-39q0 -16 -10.5 -26.5t-27 -10.5t-27.5 10.5t-11 26.5v39q0 106 143 187l23 28q0 39 -27 56q-35 23 -100 22q-37 0 -64.5 -22.5t-27.5 -51.5q0 -12 -9.5 -25.5 t-29.5 -13.5q-41 0 -41 39z" />
<glyph unicode="&#x1ea3;" horiz-adv-x="1044" d="M115 252q0 137 161.5 214t452.5 81q0 254 -278 254q-133 0 -134 -45q-2 -41 -24.5 -59.5t-48.5 -18.5q-33 0 -54.5 20.5t-21.5 57.5q0 135 281 135q193 0 291 -92t98 -217v-467q53 -25 135 -25q66 0 65 -43q0 -23 -13 -33t-27.5 -12t-43.5 -2q-53 0 -83.5 3t-69.5 20.5 t-64 52.5q-121 -88 -303 -88q-141 0 -230 77.5t-89 186.5zM223 252q0 -70 63.5 -122t164.5 -52q109 0 184 35q43 20 65.5 47.5t25.5 48t3 55.5v197q-256 -8 -381 -68.5t-125 -140.5zM336 1202q0 66 51 108t121 42q88 0 141 -35q61 -43 61.5 -112.5t-63.5 -102.5 q-102 -55 -102 -119v-39q0 -14 -10.5 -25.5t-26.5 -11.5t-27.5 10.5t-11.5 26.5v39q0 106 143 186l23 29q0 39 -27 55q-35 23 -100 23q-37 0 -64.5 -22.5t-27.5 -51.5q0 -12 -9.5 -25.5t-29.5 -13.5q-41 0 -41 39z" />
<glyph unicode="&#x1ea4;" horiz-adv-x="1552" d="M82 47q0 43 65 43h111l404 1129q10 27 27.5 40t29.5 15t37 2h39q25 0 38 -2t29.5 -15.5t26.5 -41.5l403 -1127h111q66 0 65.5 -45t-65.5 -45h-336q-68 0 -68 47q0 43 68 43h113l-99 272h-612l-98 -272h112q68 0 68 -45t-68 -45h-336q-65 0 -65 47zM487 1362q0 31 27 39 l250 90q14 4 29 0l249 -90q27 -8 27 -39q0 -18 -11 -31.5t-28 -13.5q-10 0 -16 2l-236 72l-235 -72q-6 -2 -17 -2q-16 0 -27.5 13.5t-11.5 31.5zM502 455h547l-265 731h-22zM573 1599q0 27 41 46l281 127l33 8q23 0 39 -15.5t16 -40.5q0 -35 -47 -55l-295 -131 q-12 -4 -16 -4q-27 0 -39.5 23.5t-12.5 41.5z" />
</font>
</defs>
</svg>
