<?xml version="1.0" standalone="no"?>
<!DOCTYPE svg PUBLIC "-//W3C//DTD SVG 1.1//EN" "http://www.w3.org/Graphics/SVG/1.1/DTD/svg11.dtd" >
<svg xmlns="http://www.w3.org/2000/svg">
<metadata>
This is a custom SVG webfont generated by Font Squirrel.
Copyright   : Copyright 2003 2008 B Jackowski and J M Nowacki on behalf of TeX users groups This work is released under the GUST Font License   see httptugorgfontslicensesGUSTFONTLICENSEtxt for details
</metadata>
<defs>
<font id="webfontmUIN5FhB" horiz-adv-x="1075" >
<font-face units-per-em="2048" ascent="1593" descent="-455" />
<missing-glyph horiz-adv-x="716" />
<glyph unicode="IJ" horiz-adv-x="1720" d="M84 61q0 29 15.5 44.5t28.5 17.5t38 2h121v1001h-121q-82 0 -82 62q0 29 15.5 44t28.5 17t38 2h383q25 0 38 -2t28.5 -17t15.5 -44q0 -61 -82 -62h-121v-1001h121q25 0 38 -2t28.5 -17.5t15.5 -44.5q0 -61 -82 -61h-383q-82 0 -82 61zM791 203q0 47 26.5 71.5t65.5 24.5 t64.5 -26.5t25.5 -63.5q0 -33 -17 -53q59 -53 174 -54q25 0 50.5 5.5t65.5 20.5t65.5 56t25.5 103v839h-168q-84 0 -84 64q0 61 84 61h371q84 0 84 -61q0 -63 -84 -64h-61v-852q0 -135 -102.5 -216t-246.5 -81q-152 0 -245.5 64t-93.5 162z" />
<glyph unicode="ij" horiz-adv-x="1193" d="M35 61q0 29 15.5 44.5t28.5 17.5t38 2h110v633h-100q-84 0 -84 63q0 61 84 62h160q51 0 66.5 -17.5t15.5 -66.5v-674h90q84 0 84 -64q0 -61 -82 -61h-344q-82 0 -82 61zM164 1114q0 41 29.5 72t74.5 31q41 0 72 -31t31 -72t-30 -71.5t-75 -30.5q-41 0 -71.5 30.5 t-30.5 71.5zM442 -311q0 43 28 68.5t65 25.5q90 0 90 -109l2 -6q8 -10 61 -10q135 0 135 254v846h-129q-84 0 -84 63q0 61 84 62h189q51 0 66.5 -17.5t15.5 -66.5v-895q0 -84 -23.5 -163t-91.5 -143.5t-168 -64.5q-111 0 -175.5 42t-64.5 114zM760 1114q0 41 29.5 72 t74.5 31q41 0 72 -31t31 -72t-30 -71.5t-75 -30.5q-41 0 -71.5 30.5t-30.5 71.5z" />
<glyph unicode="fk" horiz-adv-x="1751" d="M35 61q0 29 15.5 44.5t28.5 17.5t38 2h110v633h-88q-82 0 -82 61q0 63 84 64h86v106q0 135 136.5 205t336.5 70q96 0 154 -13h27l2 -6q12 6 24 6q27 0 40.5 -15t14.5 -28.5t1 -40.5v-725l356 316h-82q-82 0 -82 61q0 29 15.5 44.5t28.5 17.5t38 2h336q84 0 84 -64 q0 -61 -84 -61h-80l-266 -236l321 -397h72q84 0 84 -64q0 -61 -84 -61h-258q-25 0 -38 2t-28.5 17.5t-15.5 43.5q0 61 82 62h39l-260 321l-176 -157v-164h110q25 0 38 -2t28.5 -17.5t15.5 -44.5q0 -61 -82 -61h-362q-25 0 -38 2t-28.5 17.5t-15.5 43.5q0 61 82 62h110v633 h-454v-633h110q25 0 38 -2t28.5 -17.5t15.5 -44.5q0 -61 -82 -61h-362q-82 0 -82 61zM369 883h454v188q-29 18 -32 64q-41 4 -107 4q-129 0 -207 -33q-51 -20 -75.5 -45t-28.5 -40t-4 -44v-94z" />
<glyph unicode="&#xfb00;" horiz-adv-x="1255" d="M35 61q0 29 15.5 44.5t28.5 17.5t38 2h110v633h-88q-82 0 -82 61q0 63 84 64h86v106q0 137 138.5 206t330.5 69q186 0 240 -62q84 61 207 62q195 0 194 -123q0 -41 -27.5 -65.5t-60.5 -24.5q-45 0 -67.5 34.5t-22.5 53.5q-35 0 -57.5 -3t-59 -16.5t-57 -49.5t-20.5 -91 v-96h165q25 0 38.5 -2t28.5 -17.5t15 -44.5q0 -61 -82 -61h-165v-633h159q25 0 38.5 -2t28.5 -17.5t15 -44.5q0 -61 -82 -61h-411q-25 0 -38 2t-28.5 17.5t-15.5 43.5q0 61 82 62h110v866q0 39 4 58q-37 25 -36 84q-45 6 -109 6q-127 0 -205 -33q-51 -20 -75.5 -45 t-28.5 -40t-4 -44v-94h166q25 0 38 -2t28 -17.5t15 -44.5q0 -61 -81 -61h-166v-633h110q25 0 38 -2t28.5 -17.5t15.5 -44.5q0 -61 -82 -61h-362q-82 0 -82 61z" />
<glyph unicode="&#xfb01;" horiz-adv-x="1193" d="M35 61q0 29 15.5 44.5t28.5 17.5t38 2h110v633h-88q-82 0 -82 61q0 63 84 64h86v106q0 98 80 164t177.5 88.5t197.5 22.5q283 0 283 -164q0 -43 -27 -68.5t-66 -25.5q-37 0 -63.5 25.5t-26.5 66.5q0 8 1 14t1 8q0 18 -116 19q-119 0 -203 -39q-45 -20 -67.5 -43 t-25.5 -38t-3 -42v-94h514q51 0 66.5 -17.5t15.5 -66.5v-674h110q25 0 38 -2t28.5 -17.5t15.5 -44.5q0 -61 -82 -61h-362q-25 0 -38 2t-28.5 17.5t-15.5 43.5q0 61 82 62h110v633h-454v-633h110q25 0 38 -2t28.5 -17.5t15.5 -44.5q0 -61 -82 -61h-362q-82 0 -82 61z" />
<glyph unicode="&#xfb02;" horiz-adv-x="1193" d="M35 61q0 29 15.5 44.5t28.5 17.5t38 2h110v633h-88q-82 0 -82 61q0 63 84 64h86v106q0 135 136.5 205t336.5 70q96 0 154 -13h27l2 -6q12 6 24 6q57 0 58 -84v-1042h110q25 0 38 -2t28.5 -17.5t15.5 -44.5q0 -61 -82 -61h-362q-25 0 -38 2t-28.5 17.5t-15.5 43.5 q0 61 82 62h110v633h-454v-633h110q25 0 38 -2t28.5 -17.5t15.5 -44.5q0 -61 -82 -61h-362q-82 0 -82 61zM369 883h454v188q-29 18 -32 64q-41 4 -107 4q-129 0 -207 -33q-51 -20 -75.5 -45t-28.5 -40t-4 -44v-94z" />
<glyph unicode="&#xfb03;" horiz-adv-x="1792" d="M35 61q0 29 15.5 44.5t28.5 17.5t38 2h110v633h-88q-82 0 -82 61q0 63 84 64h86v106q0 100 82 166t177.5 87.5t195.5 21.5q197 0 258 -84q137 84 340 84q283 0 283 -164q0 -43 -27 -68.5t-66 -25.5q-37 0 -63.5 25.5t-26.5 66.5q0 8 1 14t1 8q0 18 -116 19 q-119 0 -203 -39q-45 -20 -67.5 -43t-25.5 -38t-3 -42v-94h514q51 0 66.5 -17.5t15.5 -66.5v-674h110q25 0 38 -2t28.5 -17.5t15.5 -44.5q0 -61 -82 -61h-362q-25 0 -38 2t-28.5 17.5t-15.5 43.5q0 61 82 62h110v633h-454v-633h110q25 0 38 -2t28.5 -17.5t15.5 -44.5 q0 -61 -82 -61h-362q-82 0 -82 61q0 29 15.5 44.5t28.5 17.5t38 2h110v633h-456v-633h110q25 0 38 -2t28.5 -17.5t15.5 -44.5q0 -61 -82 -61h-362q-82 0 -82 61zM369 883h456v137q-41 23 -41 78q0 8 1 14t1 8q0 18 -116 19q-123 0 -205 -39q-45 -20 -67.5 -43t-25.5 -37 t-3 -43v-94z" />
<glyph unicode="&#xfb04;" horiz-adv-x="1792" d="M35 61q0 29 15.5 44.5t28.5 17.5t38 2h110v633h-88q-82 0 -82 61q0 63 84 64h86v106q0 137 139.5 206t331.5 69q98 0 159 -14.5t91 -63.5q137 78 350 78q96 0 154 -13h27l2 -6q12 6 24 6q57 0 58 -84v-1042h110q25 0 38 -2t28.5 -17.5t15.5 -44.5q0 -61 -82 -61h-362 q-25 0 -38 2t-28.5 17.5t-15.5 43.5q0 61 82 62h110v633h-454v-633h110q25 0 38 -2t28.5 -17.5t15.5 -44.5q0 -61 -82 -61h-362q-82 0 -82 61q0 29 15.5 44.5t28.5 17.5t38 2h110v633h-456v-633h110q25 0 38 -2t28.5 -17.5t15.5 -44.5q0 -61 -82 -61h-362q-82 0 -82 61z M369 883h456v106q0 43 4 60q-37 25 -36 84q-47 6 -111 6q-125 0 -205 -33q-51 -20 -75.5 -45t-28.5 -40t-4 -44v-94zM967 883h454v188q-29 18 -32 64q-41 4 -107 4q-129 0 -207 -33q-51 -20 -75.5 -45t-28.5 -40t-4 -44v-94z" />
<glyph unicode=" "  horiz-adv-x="716" />
<glyph unicode="&#x09;" horiz-adv-x="716" />
<glyph unicode="&#xa0;" horiz-adv-x="716" />
<glyph unicode="!" horiz-adv-x="598" d="M197 102q0 43 29.5 73t72.5 30t72.5 -30t29.5 -73t-29.5 -72.5t-72.5 -29.5t-72.5 29.5t-29.5 72.5zM197 1157q0 49 23.5 78t43 34t35.5 5t35.5 -5t43 -34t23.5 -78q0 -61 -5 -174t-5 -154l-8 -354q-4 -63 -17.5 -80.5t-66.5 -17.5q-80 0 -82 53l-6 248z" />
<glyph unicode="&#x22;" horiz-adv-x="884" d="M227 813v342q0 74 17 92q4 6 10 10q45 39 90 0q6 -4 10 -10q16 -18 17 -92v-342q0 -20 -14.5 -34.5t-32.5 -14.5h-50q-20 0 -33.5 14.5t-13.5 34.5zM514 813v342q0 74 16 92q4 6 11 10q45 39 90 0q6 -4 10 -10q16 -18 16 -92v-342q0 -20 -14 -34.5t-33 -14.5h-49 q-20 0 -33.5 14.5t-13.5 34.5z" />
<glyph unicode="#" horiz-adv-x="1792" d="M119 471q0 72 92 72h340l70 168h-410q-92 0 -92 71.5t104 71.5h459l141 338q23 59 72 59q31 0 51.5 -21.5t20.5 -49.5q0 -16 -13 -45l-116 -281h309l141 338q23 59 72 59q31 0 51.5 -21.5t20.5 -49.5q0 -16 -13 -45l-116 -281h264q104 0 104 -71.5t-92 -71.5h-338 l-70 -168h408q92 0 92 -72t-104 -72h-457l-143 -340q-23 -59 -72 -59q-31 0 -51.5 21.5t-20.5 50.5q0 16 13 45l118 282h-309l-143 -340q-23 -59 -72 -59q-31 0 -51.5 21.5t-20.5 50.5q0 16 13 45l118 282h-266q-104 0 -104 72zM707 543h309l69 168h-309z" />
<glyph unicode="$" d="M119 340q0 43 20.5 67.5t38 29.5t33.5 5q33 0 61.5 -25.5t28.5 -66.5q0 -49 -33 -71q41 -139 207 -162v475q-96 18 -167.5 55t-106.5 75t-55.5 84t-23.5 70.5t-3 49.5q0 119 97 217t259 117v77q0 84 64 84q61 0 61 -84v-75q172 -14 263 -106.5t91 -219.5 q0 -51 -27.5 -75.5t-64.5 -24.5q-41 0 -65.5 26.5t-24.5 63.5q0 43 31 67q-39 121 -203 142v-426q104 -20 179 -64.5t111 -100t50 -102.5t14 -92q0 -121 -90 -226.5t-264 -131.5v-78q0 -84 -61 -84q-63 0 -64 84v76q-170 16 -263 115.5t-93 234.5zM250 934q0 -74 65.5 -128 t159.5 -71v400q-96 -16 -160.5 -71.5t-64.5 -129.5zM600 119q98 16 160.5 79.5t62.5 143.5t-61.5 141.5t-161.5 81.5v-446z" />
<glyph unicode="%" horiz-adv-x="1792" d="M119 1024q0 168 88 282.5t211 114.5t211 -113.5t88 -285.5q0 -168 -88 -282.5t-211 -114.5t-211 113.5t-88 285.5zM233 1022q0 -115 56.5 -193.5t128 -78.5t128 78.5t56.5 195.5q0 115 -56.5 193.5t-128 78.5t-128 -78.5t-56.5 -195.5zM346 -98q0 20 21 53l942 1429 q25 37 63 37q31 0 51.5 -21.5t20.5 -49.5q0 -25 -21 -54l-940 -1423q-27 -43 -65 -43q-29 0 -50.5 21.5t-21.5 50.5zM1073 229q0 168 88 283t211 115t211 -114t88 -286q0 -168 -88 -282.5t-211 -114.5t-211 113.5t-88 285.5zM1188 227q0 -115 56 -193.5t128 -78.5t128 79 t56 195q0 115 -56 194t-128 79t-128 -79t-56 -196z" />
<glyph unicode="&#x26;" horiz-adv-x="1673" d="M90 283q0 135 121 223l219 153q-70 164 -70 322q0 137 88.5 215t194.5 78q113 0 180.5 -87t67.5 -194q0 -90 -74 -177t-235 -204q96 -178 276 -336q90 88 156.5 182.5t189.5 299.5h-155q-82 0 -82 61q0 29 15 44.5t28.5 17.5t38.5 2h434q25 0 38 -2t28.5 -17.5 t15.5 -44.5q0 -61 -82 -61h-142l-170 -275q-37 -59 -100 -141q-63 -86 -117 -139q147 -100 295 -101q70 0 125.5 29t63.5 84q6 68 57 68l14 -2q14 -2 28.5 -18.5t14.5 -45.5q0 -92 -83 -166t-220 -74q-182 0 -387 142q-178 -141 -383 -142q-162 0 -275.5 86.5t-113.5 219.5z M231 287q0 -78 73 -131.5t177 -53.5q143 0 287 99q-57 47 -143 149q-94 113 -138 195q-156 -100 -206 -146t-50 -112zM475 981q0 -127 51 -252q250 172 250 264q0 55 -34.5 105.5t-98.5 50.5q-57 0 -112.5 -41t-55.5 -127z" />
<glyph unicode="'" horiz-adv-x="598" d="M227 813v342q0 74 17 92q4 6 10 10q45 39 90 0q6 -4 10 -10q16 -18 17 -92v-342q0 -20 -14.5 -34.5t-32.5 -14.5h-50q-20 0 -33.5 14.5t-13.5 34.5z" />
<glyph unicode="(" horiz-adv-x="835" d="M174 627q0 147 44 282t106.5 225.5t132 158t122 98t72.5 30.5q35 0 49.5 -19.5t14.5 -37.5q0 -14 -6.5 -25.5t-13.5 -16.5l-27 -19q-129 -88 -212 -213t-112 -237t-29 -226q0 -190 85 -371.5t264 -302.5l30.5 -21.5t14 -16.5t6.5 -26q0 -18 -14.5 -37.5t-49.5 -19.5 q-41 0 -138 79t-173 185q-166 238 -166 531z" />
<glyph unicode=")" horiz-adv-x="835" d="M119 -111q0 31 47 62q188 127 270 310t82 366q0 66 -11 135t-44 169.5t-114 202t-197 179.5q-33 20 -33 51q0 18 15.5 37.5t47.5 19.5q41 0 138.5 -78.5t173.5 -185.5q166 -238 165 -530q0 -147 -44 -282.5t-106.5 -225.5t-132 -157.5t-121.5 -98.5t-73 -31 q-33 0 -48 19.5t-15 37.5z" />
<glyph unicode="*" d="M139 438q0 18 9.5 32.5t16.5 20t25 15.5l222 121l-224 121q-49 27 -49 65q0 25 19.5 46.5t48.5 21.5q18 0 47 -19l221 -129q-6 80 -6 248q0 86 67.5 86t67.5 -86q0 -168 -6 -248l254 148q82 0 82 -68q0 -37 -51 -68l-221 -120q14 -8 70 -37l104 -53q47 -25 69 -41 q29 -14 29 -56q0 -25 -19.5 -46t-48.5 -21q-20 0 -75 32l-193 115q6 -80 6 -248q0 -86 -67.5 -86t-67.5 86q0 168 6 248l-254 -147q-82 -1 -82 67z" />
<glyph unicode="+" horiz-adv-x="1673" d="M119 626.5q0 71.5 96 71.5h549v549q0 96 71.5 96t71.5 -96v-549h549q96 0 96 -71.5t-96 -71.5h-549v-549q0 -96 -71.5 -96t-71.5 96v549h-549q-96 0 -96 71.5z" />
<glyph unicode="," horiz-adv-x="598" d="M178 -221q0 27 31 53q78 63 90 168q-45 4 -70.5 28.5t-28.5 42t-3 31.5q0 43 28.5 73t73.5 30q53 0 90 -46t37 -139q0 -121 -68.5 -213t-113.5 -92q-25 0 -45.5 20.5t-20.5 43.5z" />
<glyph unicode="-" horiz-adv-x="716" d="M25 442q0 61 81 62h408q25 0 38 -2t28.5 -17.5t15.5 -44.5q0 -61 -82 -61h-408q-25 0 -38 2t-28 17t-15 44z" />
<glyph unicode="." horiz-adv-x="598" d="M197 102q0 43 29.5 73t72.5 30t72.5 -30t29.5 -73t-29.5 -72.5t-72.5 -29.5t-72.5 29.5t-29.5 72.5z" />
<glyph unicode="/" d="M119 -98q0 12 16 49l676 1413q27 57 72 57q31 0 51 -21.5t20 -49.5q0 -12 -16 -50l-676 -1413q-27 -57 -72 -57q-31 0 -51 21.5t-20 50.5z" />
<glyph unicode="0" d="M102 627q0 47 1 79.5t9.5 105.5t24 127t47 120.5t76.5 110.5t115.5 74t161.5 30q434 0 434 -649q0 -47 -1 -80t-9.5 -105.5t-23.5 -127t-47 -121t-77 -110.5t-115.5 -74t-160.5 -30q-435 1 -435 650zM244 645q0 -543 292.5 -543t292.5 543q0 504 -292.5 504t-292.5 -504z " />
<glyph unicode="1" d="M215 1085q0 59 59 64q168 8 244 90q29 35 57 35q61 0 62 -84v-1065h186q25 0 38 -2t28.5 -17.5t15.5 -44.5q0 -61 -82 -61h-514q-82 0 -82 61q0 29 15.5 44.5t29 17.5t37.5 2h187v948q-92 -49 -209 -49q-72 0 -72 61z" />
<glyph unicode="2" d="M106 63q0 29 31 56l453 381q236 197 235 374q0 129 -95 202t-230 73q-84 0 -150.5 -43t-89.5 -115q29 -23 29 -65q0 -41 -28 -66.5t-62 -25.5q-33 0 -63 23.5t-30 74.5q0 135 114 238.5t290 103.5q193 0 325 -109.5t132 -290.5q0 -211 -224 -409q-49 -45 -202 -172 l-203 -168h487q0 37 2 52.5t18.5 29.5t51.5 14q47 0 58.5 -21.5t11.5 -62.5v-53q0 -49 -16.5 -66.5t-65.5 -17.5h-695q-84 0 -84 63z" />
<glyph unicode="3" d="M90 279q0 47 26.5 71.5t65.5 24.5t64.5 -26.5t25.5 -63.5q0 -39 -24 -64q35 -63 123 -91t170 -28q133 0 217 77t84 177q0 98 -83 177t-224 79h-95q-25 0 -38 2t-28.5 17.5t-15.5 44.5q0 41 26 51t122 16q123 6 190 62q86 70 86 178q0 70 -68.5 118t-172.5 48 q-164 0 -228 -64q18 -18 19 -55q0 -41 -28 -66.5t-62.5 -25.5t-63 24.5t-28.5 71.5q0 109 103 174.5t286 65.5q170 0 277.5 -85t107.5 -204q0 -86 -44 -167t-128 -134q104 -47 167.5 -134t63.5 -194q0 -150 -124 -264.5t-318 -114.5q-193 0 -322 83.5t-129 218.5z" />
<glyph unicode="4" d="M59 428q0 45 19 72l467 733q18 31 32.5 37t53.5 6h57q51 0 67.5 -16.5t16.5 -67.5v-721h160q25 0 38 -2t28.5 -17.5t15.5 -43.5q0 -61 -82 -62h-160v-221h127q25 0 38 -2t28.5 -17.5t15.5 -44.5q0 -61 -82 -61h-369q-82 0 -81 61q0 29 15 44.5t28.5 17.5t37.5 2h127v221 h-516q-49 0 -65.5 16.5t-16.5 65.5zM203 471h454v715z" />
<glyph unicode="5" d="M106 291q0 53 30 75.5t63 22.5q35 0 62.5 -24.5t27.5 -67.5q0 -39 -27 -66q66 -129 246 -129q131 0 224 83t93 204q0 109 -70.5 196t-189.5 87q-172 0 -258 -103q-25 -31 -61 -30q-31 0 -46.5 15t-17.5 28.5t-2 40.5v544q0 49 16.5 66.5t65.5 17.5h551q25 0 38 -2 t28.5 -17t15.5 -44q0 -61 -82 -62h-491v-389q111 59 245 60q174 0 287 -123t113 -285q0 -170 -133.5 -291t-325.5 -121q-170 0 -286 92.5t-116 221.5z" />
<glyph unicode="6" d="M109 612q0 297 164.5 479.5t383.5 182.5q137 0 205 -62.5t68 -148.5q0 -45 -26.5 -70.5t-65.5 -25.5t-64.5 26.5t-25.5 63.5q0 39 20 59q-33 33 -113 33q-143 0 -262 -125t-139 -332q131 119 305 119q170 0 288 -121t118 -295q0 -180 -126 -299t-298 -119q-82 0 -155 33 t-137.5 101.5t-102 197.5t-37.5 303zM270 455q0 -88 17 -127q74 -225 254 -226q115 0 198.5 82t83.5 211q0 119 -76.5 204t-197.5 85q-117 0 -198 -66.5t-81 -162.5z" />
<glyph unicode="7" d="M90 1114v86q0 27 2 41t18.5 28.5t49.5 14.5q53 0 65 -33h676q25 0 38 -2t28.5 -17t15.5 -44q0 -20 -7 -30.5t-38 -39.5q-47 -47 -94 -101t-113.5 -155.5t-116 -212t-86 -267.5t-39.5 -323q0 -41 -20 -61.5t-49 -20.5q-72 0 -72 97q0 98 17.5 209.5t60.5 256t132 299 t214 287.5h-541q0 -37 -2 -52t-18 -29.5t-51 -14.5q-47 0 -58.5 21.5t-11.5 62.5z" />
<glyph unicode="8" d="M90 356q0 111 82 197t203 121q-121 39 -188.5 111.5t-67.5 160.5q0 129 119.5 228.5t298 99.5t298 -98.5t119.5 -229.5q0 -88 -66.5 -159.5t-189.5 -112.5q121 -35 203 -121t82 -197q0 -152 -128 -265.5t-318 -113.5q-188 0 -317.5 113.5t-129.5 265.5zM231 358 q0 -106 89.5 -181t216.5 -75t216 75t89 181q0 100 -85 177t-220 77q-133 0 -219.5 -78t-86.5 -176zM260 944q0 -86 82 -146.5t194.5 -60.5t194.5 60.5t82 146.5q0 82 -80 143.5t-196 61.5q-119 0 -198 -61.5t-79 -143.5z" />
<glyph unicode="9" d="M109 856q0 180 129 299t305 119q78 0 148.5 -31t134 -99.5t101.5 -198.5t38 -306q0 -293 -156 -477.5t-367 -184.5q-92 0 -156.5 23t-92 59.5t-39 67.5t-11.5 61q0 45 27 71t65.5 26t64.5 -27t26 -63q0 -35 -19 -58q45 -35 135 -35q145 0 253 132.5t124 324.5 q-131 -119 -305 -119q-170 0 -287.5 121t-117.5 295zM250 856q0 -119 76.5 -204t197.5 -85q123 0 202 70t79 160q0 160 -84 264q-70 88 -178 88q-117 0 -205 -82t-88 -211z" />
<glyph unicode=":" horiz-adv-x="598" d="M197 102q0 43 29.5 73t72.5 30t72.5 -30t29.5 -73t-29.5 -72.5t-72.5 -29.5t-72.5 29.5t-29.5 72.5zM197 780q0 43 29.5 73t72.5 30t72.5 -30t29.5 -73t-29.5 -72.5t-72.5 -29.5t-72.5 29.5t-29.5 72.5z" />
<glyph unicode=";" horiz-adv-x="598" d="M178 -219q0 20 19 39q78 86 86 182q-86 18 -86 100q0 43 28.5 73t73.5 30q109 0 109 -172q0 -131 -60.5 -224.5t-103.5 -93.5q-25 0 -45.5 20.5t-20.5 45.5zM197 780q0 43 29.5 73t72.5 30t72.5 -30t29.5 -73t-29.5 -72.5t-72.5 -29.5t-72.5 29.5t-29.5 72.5z" />
<glyph unicode="&#x3c;" d="M115 627q0 37 45 67l674 424q33 20 53 21q27 0 49 -19.5t22 -52.5q0 -39 -49 -70l-587 -370l587 -371q49 -31 49 -70q0 -33 -22.5 -52t-48.5 -19q-20 0 -53 20l-682 428q-37 27 -37 64z" />
<glyph unicode="=" horiz-adv-x="1673" d="M119 471q0 72 92 72h1249q92 0 92 -72t-104 -72h-1225q-104 0 -104 72zM119 782.5q0 71.5 104 71.5h1225q104 0 104 -71.5t-92 -71.5h-1249q-92 0 -92 71.5z" />
<glyph unicode="&#x3e;" d="M115 186q0 39 49 70l588 371l-588 370q-49 31 -49 70q0 33 22.5 52.5t48.5 19.5q20 0 54 -21l682 -428q37 -27 36.5 -63.5t-45.5 -67.5l-673 -424q-33 -20 -54 -20q-27 0 -49 19t-22 52z" />
<glyph unicode="?" horiz-adv-x="1015" d="M119 1014q0 102 95 176t273 74q121 0 206 -26t126 -68t58.5 -80.5t17.5 -79.5q0 -123 -123 -195q-98 -59 -155.5 -133t-57.5 -188v-35q0 -51 -17.5 -66.5t-64.5 -15.5q-31 0 -47 4t-24.5 20.5t-9.5 30.5t-1 51q0 55 7.5 95t34 99.5t90 120t163.5 120.5q63 43 64 92 q0 55 -66.5 92t-200.5 37q-147 0 -206 -72q20 -25 20 -57q0 -41 -27.5 -66.5t-62.5 -25.5q-37 0 -64.5 25.5t-27.5 70.5zM375 102q0 43 29.5 73t72.5 30t73 -30t30 -73t-30 -72.5t-73 -29.5t-72.5 29.5t-29.5 72.5z" />
<glyph unicode="@" horiz-adv-x="1433" d="M119 627q0 262 209 449.5t503 187.5q481 0 482 -617q0 -209 -121 -319.5t-266 -110.5q-158 0 -271.5 119t-113.5 291q0 168 112.5 287.5t274.5 119.5q115 0 213 -67q-41 86 -111 125q-80 47 -199 47q-246 0 -422 -150.5t-176 -363.5q0 -207 175.5 -359.5t425.5 -152.5 q178 0 333 88q33 20 68 20q78 0 78 -57q0 -25 -13.5 -37t-44.5 -29q-195 -111 -419 -110q-301 0 -509 188.5t-208 450.5zM655 625q0 -115 79 -199t194 -84q109 0 189.5 83t80.5 202q0 115 -79 198.5t-193 83.5q-109 0 -190 -82.5t-81 -201.5z" />
<glyph unicode="A" horiz-adv-x="1552" d="M84 63q0 61 82 62h94l387 1083q12 31 32.5 47.5t35 18.5t41.5 2h39q29 0 43 -2t33.5 -18.5t31.5 -49.5l387 -1081h94q25 0 38.5 -2t28.5 -17.5t15 -44.5q0 -61 -82 -61h-325q-84 0 -84 63q0 61 84 62h82l-82 227h-567l-82 -227h82q84 0 83 -64q0 -61 -83 -61h-326 q-25 0 -38 2t-28.5 17t-15.5 44zM537 477h477l-240 668z" />
<glyph unicode="B" horiz-adv-x="1492" d="M94 61q0 29 15.5 44.5t29 17.5t37.5 2h111v1001h-111q-82 0 -82 62q0 29 15.5 44t29 17t37.5 2h662q201 0 338 -95t137 -222q0 -102 -91.5 -175t-213.5 -104q170 -31 267 -117.5t97 -195.5q0 -137 -137 -239.5t-340 -102.5h-719q-82 0 -82 61zM428 125h410 q162 0 277.5 63.5t115.5 157.5q0 96 -105.5 169t-255.5 73h-442v-463zM428 713h340q176 0 289.5 65.5t113.5 153.5q0 78 -97 136t-240 58h-406v-413z" />
<glyph unicode="C" horiz-adv-x="1552" d="M119 627q0 262 206.5 454.5t510.5 192.5q272 0 434 -127q27 57 37 76q12 29 24 40t39 11q61 0 62 -84v-285q0 -27 -2.5 -41t-19.5 -28.5t-50 -14.5q-57 0 -68 47q-10 43 -19 68t-44 68t-92 75q-119 70 -287 70q-250 0 -420 -155.5t-170 -366.5q0 -213 170 -369t424 -156 q176 0 291 58q47 23 77.5 49.5t44 55t17.5 45t6 42.5q4 59 70 60q72 0 72 -68q0 -160 -161 -263.5t-431 -103.5q-309 0 -515 193t-206 457z" />
<glyph unicode="D" horiz-adv-x="1613" d="M94 61q0 29 15.5 44.5t29 17.5t37.5 2h111v1001h-111q-82 0 -82 62q0 29 15.5 44t29 17t37.5 2h660q270 0 462.5 -187t192.5 -450q0 -252 -191.5 -433t-463.5 -181h-660q-82 0 -82 61zM428 125h371q231 0 391 144.5t160 346.5q0 205 -159 357.5t-394 152.5h-369v-1001z " />
<glyph unicode="E" horiz-adv-x="1433" d="M94 61q0 29 15.5 44.5t29 17.5t37.5 2h111v1001h-111q-82 0 -82 62q0 29 15.5 44t29 17t37.5 2h1055q51 0 66.5 -17t15.5 -67v-149q0 -27 -2 -41t-19.5 -28.5t-50.5 -14.5q-47 0 -58.5 21.5t-11.5 62.5v108h-743v-415h408q0 51 3 70.5t18 32.5t50 13q47 0 58.5 -21.5 t11.5 -62.5v-190q0 -27 -2 -41t-18.5 -28.5t-49.5 -14.5q-49 0 -60 22.5t-11 94.5h-408v-461h803v141q0 27 2 41.5t19.5 28.5t50.5 14q47 0 58 -21.5t11 -62.5v-182q0 -49 -16.5 -66.5t-65.5 -17.5h-1114q-82 0 -82 61z" />
<glyph unicode="F" horiz-adv-x="1374" d="M94 61q0 29 15.5 44.5t29 17.5t37.5 2h111v1001h-111q-82 0 -82 62q0 29 15.5 44t29 17t37.5 2h1024q51 0 66.5 -17t15.5 -67v-149q0 -27 -2 -41t-19.5 -28.5t-50.5 -14.5q-47 0 -58 21.5t-11 62.5v108h-713v-438h395q0 51 3 70.5t18.5 33t50.5 13.5q47 0 58.5 -21.5 t11.5 -62.5v-191q0 -27 -2 -41t-18.5 -28.5t-49.5 -14.5q-49 0 -60.5 23t-11.5 94h-395v-438h160q25 0 38 -2t28.5 -17.5t15.5 -44.5q0 -61 -82 -61h-412q-82 0 -82 61z" />
<glyph unicode="G" horiz-adv-x="1673" d="M119 627q0 262 206.5 454.5t510.5 192.5q272 0 434 -127q27 57 37 76q12 29 24 40t39 11q61 0 62 -84v-285q0 -27 -2.5 -41t-19.5 -28.5t-50 -14.5q-57 0 -68 47q-10 43 -19 68t-44 68t-92 75q-119 70 -287 70q-248 0 -419 -154.5t-171 -369.5t171 -369t411 -154 q166 0 289.5 91.5t152.5 234.5h-180q-25 0 -38 2t-28.5 17.5t-15.5 44.5q0 61 82 61h393q84 0 84 -64q0 -61 -84 -61h-65v-344q0 -27 -2.5 -41t-18.5 -28.5t-49 -14.5t-50.5 14.5t-19.5 28.5t-2 41v74q-180 -180 -459 -181q-295 0 -503.5 191t-208.5 459z" />
<glyph unicode="H" horiz-adv-x="1552" d="M94 61q0 29 15.5 44.5t29 17.5t37.5 2h111v1001h-111q-82 0 -82 62q0 29 15.5 44t29 17t37.5 2h363q25 0 38 -2t28.5 -17t15.5 -44q0 -61 -82 -62h-111v-413h694v413h-110q-82 0 -82 62q0 29 15.5 44t28.5 17t38 2h362q25 0 38 -2t28.5 -17t15.5 -44q0 -61 -82 -62h-110 v-1001h110q25 0 38 -2t28.5 -17.5t15.5 -44.5q0 -61 -82 -61h-362q-82 0 -82 61q0 29 15.5 44.5t28.5 17.5t38 2h110v463h-694v-463h111q25 0 38 -2t28.5 -17.5t15.5 -44.5q0 -61 -82 -61h-363q-82 0 -82 61z" />
<glyph unicode="I" horiz-adv-x="716" d="M84 61q0 29 15.5 44.5t28.5 17.5t38 2h121v1001h-121q-82 0 -82 62q0 29 15.5 44t28.5 17t38 2h383q25 0 38 -2t28.5 -17t15.5 -44q0 -61 -82 -62h-121v-1001h121q25 0 38 -2t28.5 -17.5t15.5 -44.5q0 -61 -82 -61h-383q-82 0 -82 61z" />
<glyph unicode="J" d="M145 203q0 47 27 71.5t65.5 24.5t64.5 -26.5t26 -63.5q0 -33 -17 -53q59 -53 174 -54q25 0 50.5 5.5t65.5 20.5t65.5 56t25.5 103v839h-168q-84 0 -84 64q0 61 84 61h371q84 0 84 -61q0 -63 -84 -64h-61v-852q0 -135 -102.5 -216t-246.5 -81q-152 0 -246 64t-94 162z" />
<glyph unicode="K" horiz-adv-x="1613" d="M109 61q0 29 15 44.5t28.5 17.5t37.5 2h111v1001h-111q-82 0 -81 62q0 29 15 44t28.5 17t37.5 2h336q25 0 38.5 -2t28.5 -17t15 -44q0 -61 -82 -62h-110v-589l725 589q-45 0 -63.5 2t-34 16.5t-15.5 45.5q0 61 82 61h297q84 0 84 -63q0 -61 -84 -62h-82l-487 -395 l526 -606h74q84 0 84 -64q0 -61 -84 -61h-258q-82 0 -82 61q0 31 15 45.5t34.5 16.5t64.5 2l-464 534l-332 -270v-264h110q25 0 38.5 -2t28.5 -17.5t15 -44.5q0 -61 -82 -61h-336q-81 0 -81 61z" />
<glyph unicode="L" horiz-adv-x="1314" d="M94 61q0 29 15.5 44.5t29 17.5t37.5 2h111v1001h-111q-82 0 -82 62q0 29 15.5 44t29 17t37.5 2h412q25 0 38 -2t28.5 -17t15.5 -44q0 -61 -82 -62h-160v-1001h653v141q0 29 2 43.5t19.5 27.5t50.5 13q47 0 58.5 -21.5t11.5 -62.5v-182q0 -49 -16.5 -66.5t-65.5 -17.5 h-965q-82 0 -82 61z" />
<glyph unicode="M" horiz-adv-x="1910" d="M109 61q0 29 15 44.5t28.5 17.5t37.5 2h111v1001h-111q-82 0 -81 62q0 29 15 44t28.5 17t37.5 2h197q51 0 74.5 -15t44.5 -60l448 -1022l449 1026q14 33 36.5 50t38 19t44.5 2h196q25 0 38 -2t28.5 -17t15.5 -44q0 -61 -82 -62h-110v-1001h110q25 0 38 -2t28.5 -17.5 t15.5 -44.5q0 -61 -82 -61h-336q-25 0 -38 2t-28.5 17.5t-15.5 43.5q0 61 82 62h111v991h-2l-447 -1022q-33 -72 -90 -71q-59 0 -90 75l-446 1018h-2v-991h110q25 0 38.5 -2t28.5 -17.5t15 -44.5q0 -61 -82 -61h-336q-81 0 -81 61z" />
<glyph unicode="N" horiz-adv-x="1552" d="M109 61q0 29 15 44.5t28.5 17.5t37.5 2h111v1001h-111q-82 0 -81 62q0 29 15 44t28.5 17t37.5 2h195q29 0 45 -2t41 -18.5t43 -48.5l619 -1078h2v1022h-111q-82 0 -82 62q0 29 15.5 44t28.5 17t38 2h336q25 0 38 -2t28.5 -17t15.5 -44q0 -61 -82 -62h-111v-1042 q0 -53 -16 -68.5t-68 -15.5q-29 0 -45 2t-40.5 18.5t-43.5 49.5l-618 1077h-2v-1022h110q25 0 38.5 -2t28.5 -17.5t15 -44.5q0 -61 -82 -61h-336q-81 0 -81 61z" />
<glyph unicode="O" horiz-adv-x="1673" d="M119 627q0 262 208 454.5t509 192.5q299 0 507.5 -190.5t208.5 -458.5q0 -262 -207.5 -455t-508.5 -193q-299 0 -508 191t-209 459zM260 649q0 -223 168 -385t407.5 -162t407.5 162t168 385q0 205 -168 352.5t-407.5 147.5t-407.5 -147.5t-168 -352.5z" />
<glyph unicode="P" horiz-adv-x="1433" d="M94 61q0 29 15.5 44.5t29 17.5t37.5 2h111v1001h-111q-82 0 -82 62q0 29 15.5 44t29 17t37.5 2h631q215 0 360.5 -111.5t145.5 -263t-145.5 -263t-360.5 -111.5h-379v-377h111q25 0 38 -2t28.5 -17.5t15.5 -44.5q0 -61 -82 -61h-363q-82 0 -82 61zM428 627h344 q166 0 282.5 74.5t116.5 175.5q0 102 -115.5 175.5t-283.5 73.5h-344v-499z" />
<glyph unicode="Q" horiz-adv-x="1673" d="M119 627q0 262 208 454.5t509 192.5q299 0 507.5 -190.5t208.5 -458.5q0 -43 -6 -87t-28.5 -111t-60.5 -126t-108.5 -125.5t-164.5 -118.5l221 -243q45 -49 45 -64q0 -35 -64 -35q-37 0 -54 6.5t-40 30.5l-202 223l-31 33l-15 -4q-106 -27 -208 -27q-299 0 -508 191 t-209 459zM260 625q0 -213 167 -368t409 -155l129 13l-166 190q0 23 8 32t19.5 11t37.5 2q35 0 44.5 -3t27.5 -19q8 -8 54 -60l102 -110q143 63 231 190t88 279q0 213 -167 367.5t-408 154.5q-240 0 -408 -153.5t-168 -370.5z" />
<glyph unicode="R" horiz-adv-x="1552" d="M94 61q0 29 15.5 44.5t29 17.5t37.5 2h111v1001h-111q-82 0 -82 62q0 29 15.5 44t29 17t37.5 2h549q225 0 391 -100t166 -244q0 -84 -62.5 -157.5t-172.5 -120.5q76 -37 114 -94q29 -43 35 -78t6 -127q0 -49 1 -73t6 -59.5t16.5 -52t33 -30t54.5 -13.5q35 0 60.5 24 t29.5 69q6 61 70 61q72 0 71 -63q0 -80 -64.5 -148t-166.5 -68q-131 0 -199 93q-37 51 -45 98t-8 154q0 98 -11.5 129.5t-70.5 64.5q-94 47 -258 47h-293v-438h111q25 0 38 -2t28.5 -17.5t15.5 -44.5q0 -61 -82 -61h-363q-82 0 -82 61zM428 688h279q170 0 302 62.5 t132 156.5t-132 156.5t-302 62.5h-279v-438z" />
<glyph unicode="S" horiz-adv-x="1193" d="M119 61v271q0 27 2 41t19.5 28.5t49.5 14.5q31 0 47.5 -12.5t18.5 -23.5t4 -32q8 -125 113 -188q100 -57 274 -58q133 0 213 70t80 160q0 39 -16.5 75.5t-32.5 53.5l-17 16q-47 41 -84.5 54.5t-140.5 35.5l-88 19q-113 25 -158 36t-94 33.5t-90 61.5q-100 96 -100 221 q0 135 118.5 235.5t303.5 100.5q209 0 331 -105q25 72 36.5 88.5t43.5 16.5q61 0 62 -84v-270q0 -27 -2 -41.5t-19.5 -28.5t-50.5 -14q-29 0 -44 10t-19.5 21.5t-8.5 33.5q-47 248 -331 248q-125 0 -206 -61.5t-81 -141.5q0 -82 67.5 -131t135.5 -63l303 -64 q137 -29 226 -127t89 -221q0 -143 -116.5 -253t-311.5 -110q-250 0 -385 99q-16 -47 -23.5 -62.5t-20.5 -26t-36 -10.5q-61 0 -61 84z" />
<glyph unicode="T" horiz-adv-x="1552" d="M78 1018v149q0 51 16.5 67.5t67.5 16.5h1229q51 0 66.5 -17t15.5 -67v-149q0 -27 -2.5 -41t-19.5 -28.5t-50 -14.5q-47 0 -58.5 21.5t-11.5 62.5v108h-485v-1001h190q84 0 84 -64q0 -61 -84 -61h-522q-84 0 -84 63q0 61 84 62h191v1001h-486v-108q0 -27 -2 -41 t-19.5 -28.5t-50.5 -14.5q-47 0 -58 21.5t-11 62.5z" />
<glyph unicode="U" horiz-adv-x="1552" d="M94 1188q0 29 15.5 44t29 17t37.5 2h363q25 0 38 -2t28.5 -17t15.5 -44q0 -61 -82 -62h-111v-692q0 -160 107.5 -246t240.5 -86q129 0 237.5 86t108.5 246v692h-110q-82 0 -82 62q0 29 15.5 44t28.5 17t38 2h362q25 0 38 -2t28.5 -17t15.5 -44q0 -61 -82 -62h-110v-704 q0 -188 -143.5 -316.5t-346.5 -128.5q-199 0 -343 127t-144 318v704h-111q-82 1 -82 62z" />
<glyph unicode="V" horiz-adv-x="1552" d="M57 1190q0 61 82 61h316q84 0 84 -63q0 -61 -84 -62h-80l401 -1022l400 1022h-80q-84 0 -84 62q0 63 84 63h315q25 0 38 -2t28.5 -17t15.5 -44q0 -61 -82 -62h-84l-420 -1071q-12 -33 -30.5 -49t-35 -19t-46.5 -3h-39q-55 0 -76 15t-37 58l-420 1069h-84q-25 0 -38 2 t-28.5 17.5t-15.5 44.5z" />
<glyph unicode="W" horiz-adv-x="2150" d="M49 1190q0 61 84 61h277q84 0 84 -63q0 -61 -84 -62h-86l311 -1038l330 1094q14 47 36.5 58t73.5 11q31 0 46.5 -2t35 -18.5t29.5 -48.5l327 -1094l312 1038h-86q-84 0 -84 62q0 63 84 63h276q84 0 84 -63q0 -61 -84 -62h-69l-322 -1073q-14 -47 -39.5 -58t-71.5 -11 q-55 0 -75.5 14t-34.5 63l-330 1090l-328 -1092q-16 -51 -38.5 -63t-71.5 -12q-80 0 -103 45l-329 1097h-70q-84 1 -84 64z" />
<glyph unicode="X" horiz-adv-x="1552" d="M86 61q0 63 84 64h100l410 539l-375 462h-100q-84 0 -84 64q0 61 84 61h319q84 0 84 -63q0 -61 -84 -62h-39l275 -344l256 344h-45q-84 0 -84 64q0 61 84 61h319q84 0 84 -63q0 -61 -84 -62h-100l-350 -462l434 -539h102q84 0 84 -64q0 -61 -84 -61h-321q-82 0 -82 61 q0 29 15.5 44.5t28.5 17.5t38 2h43l-338 434l-318 -434h47q84 0 84 -64q0 -61 -84 -61h-319q-84 0 -84 61z" />
<glyph unicode="Y" horiz-adv-x="1552" d="M61 1190q0 61 84 61h320q84 0 84 -63q0 -61 -84 -62h-47l356 -483l359 483h-48q-84 0 -84 64q0 61 84 61h320q84 0 84 -63q0 -61 -84 -62h-98l-461 -626v-375h110q25 0 38.5 -2t28.5 -17.5t15 -44.5q0 -61 -82 -61h-362q-82 0 -82 61q0 29 15.5 44.5t28.5 17.5t38 2h111 v375l-461 626h-99q-84 1 -84 64z" />
<glyph unicode="Z" horiz-adv-x="1314" d="M119 70q0 37 24 63l852 993h-704v-108q0 -27 -2 -41t-19.5 -28.5t-50.5 -14.5q-47 0 -58 21.5t-11 62.5v149q0 51 16 67.5t67 16.5h877q27 0 41 -2t28.5 -18.5t14.5 -48.5q0 -37 -25 -64l-852 -993h748v147q0 27 2 41.5t19.5 28.5t50.5 14q47 0 58 -21.5t11 -62.5v-188 q0 -49 -16 -66.5t-66 -17.5h-921q-27 0 -41.5 2t-28.5 18.5t-14 49.5z" />
<glyph unicode="[" horiz-adv-x="608" d="M225 -86v1423q0 49 16.5 66.5t65.5 17.5h170q25 0 38 -2t28.5 -17.5t15.5 -43.5q0 -61 -82 -62h-110v-1341h110q25 0 38 -2t28.5 -17.5t15.5 -44.5q0 -61 -82 -61h-170q-51 0 -66.5 17.5t-15.5 66.5z" />
<glyph unicode="\" d="M119 1350q0 29 20.5 50t50.5 21q43 0 72 -55l678 -1415q14 -29 14 -49q0 -29 -20.5 -50.5t-50.5 -21.5q-43 0 -72 55l-678 1415q-14 30 -14 50z" />
<glyph unicode="]" horiz-adv-x="608" d="M47 -106q0 61 82 61h111v1341h-111q-25 0 -38 2t-28.5 17.5t-15.5 44.5q0 61 82 61h170q51 0 66.5 -17.5t15.5 -66.5v-1423q0 -49 -16.5 -66.5t-65.5 -17.5h-170q-25 0 -38 2t-28.5 17.5t-15.5 44.5z" />
<glyph unicode="^" d="M150.5 1022q-23.5 53 29.5 80l334 162q23 10 47 0l334 -162q53 -27 28.5 -80t-77.5 -31l-309 133l-310 -133q-53 -22 -76.5 31z" />
<glyph unicode="_" horiz-adv-x="1552" d="M0 -184h1552v-144h-1552v144z" />
<glyph unicode="`" d="M319 1180q0 31 20.5 51t51.5 20l39 -10l272 -123q18 -8 26.5 -13t17 -17.5t8.5 -28.5q0 -23 -16.5 -52.5t-51.5 -29.5q-16 0 -37 10l-272 121q-58 27 -58 72z" />
<glyph unicode="a" horiz-adv-x="1044" d="M109 262q0 139 158.5 220t437.5 85q0 104 -68 156.5t-184 52.5q-51 0 -76 -2t-30 -6t-5 -16q-2 -49 -29.5 -72t-60.5 -23q-39 0 -65.5 25t-26.5 70q0 150 291 149q197 0 296 -95t99 -222v-443q37 -16 115 -16q82 0 81 -62q0 -31 -15 -45t-32.5 -16t-52.5 -2 q-170 0 -215 66q-113 -78 -291 -78q-143 0 -235 80.5t-92 193.5zM250 262q0 -61 56 -105t147 -44q100 0 172 32q37 16 55 41t21.5 41.5t3.5 46.5v172q-227 -8 -341 -59t-114 -125z" />
<glyph unicode="b" horiz-adv-x="1193" d="M35 1188q0 29 15.5 44t28.5 17t38 2h170q51 0 66.5 -17t15.5 -67v-383q127 111 297 111q182 0 309 -133t127 -320q0 -190 -136.5 -322t-322.5 -132q-162 0 -274 121q0 -33 -1 -48.5t-7.5 -32t-21.5 -22.5t-40 -6q-33 0 -50.5 14.5t-19.5 28.5t-2 41v1042h-110 q-82 1 -82 62zM369 399q0 -98 73.5 -192t192.5 -94q131 0 228.5 95t97.5 234q0 133 -88.5 230.5t-219.5 97.5q-111 0 -197.5 -69.5t-86.5 -163.5v-138z" />
<glyph unicode="c" horiz-adv-x="956" d="M90 442q0 74 25.5 149t79 147.5t149.5 117.5t221 45q305 0 305 -149q0 -43 -26.5 -69t-65.5 -26q-88 0 -90 101q0 18 -123 18q-96 0 -166.5 -37t-104.5 -94t-48.5 -107.5t-14.5 -95.5q0 -139 95.5 -234t226.5 -95q145 0 203 123q10 29 24.5 37t42.5 8q72 0 72 -58 q0 -18 -16.5 -52t-52 -78t-111.5 -74.5t-174 -30.5q-190 0 -320.5 134t-130.5 320z" />
<glyph unicode="d" horiz-adv-x="1193" d="M90 440q0 190 134 322.5t325 132.5q156 0 274 -104v335h-110q-25 0 -38 2t-28.5 17.5t-15.5 44.5q0 61 82 61h170q51 0 66.5 -17t15.5 -67v-1042h110q25 0 38 -2t28.5 -17.5t15.5 -44.5q0 -61 -82 -61h-170q-51 0 -66.5 17.5t-15.5 66.5v35q-121 -131 -297 -131 q-178 0 -307 132t-129 320zM231 440q0 -135 89.5 -231t216.5 -96q123 0 204.5 94t81.5 196v136q0 92 -78.5 161.5t-185.5 69.5q-133 0 -230.5 -96.5t-97.5 -233.5z" />
<glyph unicode="e" horiz-adv-x="956" d="M78 446q0 186 125 320.5t305 134.5q182 0 284.5 -122t102.5 -312q0 -27 -6 -43t-19.5 -23.5t-24.5 -8.5t-32 -1h-590q20 -123 114.5 -200.5t213.5 -77.5q154 0 205 123q10 29 24.5 37t42.5 8q72 0 72 -58q0 -63 -93 -149t-263 -86q-193 0 -327 134t-134 324zM225 514h525 q-10 143 -80 202.5t-162 59.5q-102 0 -182.5 -73.5t-100.5 -188.5z" />
<glyph unicode="f" horiz-adv-x="657" d="M35 61q0 29 15.5 44.5t28.5 17.5t38 2h110v633h-88q-82 0 -82 61q0 63 84 64h86v108q0 127 94.5 200t225.5 73q195 0 194 -123q0 -41 -27.5 -65.5t-60.5 -24.5q-45 0 -67.5 34.5t-22.5 53.5q-35 0 -57.5 -3t-59 -16.5t-57 -49.5t-20.5 -91v-96h166q25 0 38 -2t28 -17.5 t15 -44.5q0 -61 -81 -61h-166v-633h159q25 0 38.5 -2t28.5 -17.5t15 -44.5q0 -61 -82 -61h-411q-82 0 -82 61z" />
<glyph unicode="g" d="M59 -168q0 162 152 254q-47 63 -47 147q0 80 41 140q-66 84 -66 194q0 133 98.5 230.5t239.5 97.5q109 0 199 -61q96 72 217 71q76 0 112.5 -33.5t36.5 -76.5q0 -41 -25.5 -62.5t-55.5 -21.5q-23 0 -47.5 16t-32.5 53q-68 -6 -119 -35q53 -88 53 -178q0 -137 -98.5 -233 t-239.5 -96q-109 0 -184 51q-12 -31 -12 -58l6 -26q4 -29 18 -47q25 -29 68 -29q16 -4 59 -4h143q186 0 297 -59q72 -39 107 -103.5t35 -130.5q0 -129 -139.5 -215t-338 -86t-338 85t-139.5 216zM178 -168q0 -70 104.5 -124t254 -54t254 54t104.5 124q0 61 -35 100 t-108.5 54.5t-125 18.5t-145.5 3q-117 0 -149.5 -4t-69.5 -29q-84 -53 -84 -143zM281 565q0 -82 57 -143.5t139 -61.5q80 0 138.5 60.5t58.5 146.5q0 82 -57.5 143.5t-139.5 61.5q-80 0 -138 -60.5t-58 -146.5z" />
<glyph unicode="h" horiz-adv-x="1193" d="M35 61q0 29 15.5 44.5t28.5 17.5t38 2h110v1001h-110q-82 0 -82 62q0 29 15.5 44t28.5 17t38 2h170q51 0 66.5 -17t15.5 -67v-389q127 117 301 117q295 0 295 -299v-471h110q25 0 38 -2t28.5 -17.5t15.5 -44.5q0 -61 -82 -61h-362q-25 0 -38 2t-28.5 17.5t-15.5 43.5 q0 61 82 62h110v459q0 96 -32.5 141t-133.5 45q-63 0 -125.5 -24.5t-112.5 -92t-50 -168.5v-360h110q25 0 38 -2t28.5 -17.5t15.5 -44.5q0 -61 -82 -61h-362q-82 0 -82 61z" />
<glyph unicode="i" horiz-adv-x="598" d="M35 61q0 29 15.5 44.5t28.5 17.5t38 2h110v633h-100q-84 0 -84 63q0 61 84 62h160q51 0 66.5 -17.5t15.5 -66.5v-674h90q84 0 84 -64q0 -61 -82 -61h-344q-82 0 -82 61zM195 1114q0 41 29.5 72t74.5 31q41 0 71.5 -31t30.5 -72t-29.5 -71.5t-74.5 -30.5q-41 0 -71.5 30.5 t-30.5 71.5z" />
<glyph unicode="j" horiz-adv-x="657" d="M-94 -311q0 43 27.5 68.5t64.5 25.5q90 0 90 -109l2 -6q8 -10 62 -10q135 0 135 254v846h-129q-84 0 -84 63q0 61 84 62h188q51 0 66.5 -17.5t15.5 -66.5v-895q0 -84 -23.5 -163t-91 -143.5t-168.5 -64.5q-111 0 -175 42t-64 114zM221 1114q0 41 30 72t75 31 q41 0 71.5 -31t30.5 -72t-29.5 -71.5t-74.5 -30.5q-41 0 -72 30.5t-31 71.5z" />
<glyph unicode="k" horiz-adv-x="1134" d="M49 61q0 29 15.5 44.5t28.5 17.5t38 2h111v1001h-111q-82 0 -82 62q0 29 15.5 44t28.5 17t38 2h143q51 0 66.5 -17t15.5 -67v-725l357 316h-82q-82 0 -82 61q0 29 15.5 44.5t28.5 17.5t38 2h336q84 0 84 -64q0 -61 -84 -61h-80l-266 -236l321 -397h72q84 0 84 -64 q0 -61 -84 -61h-258q-25 0 -38 2t-28.5 17.5t-15.5 43.5q0 61 82 62h39l-260 321l-179 -157v-164h111q25 0 38 -2t28.5 -17.5t15.5 -44.5q0 -61 -82 -61h-336q-82 0 -82 61z" />
<glyph unicode="l" horiz-adv-x="598" d="M35 61q0 29 15.5 44.5t28.5 17.5t38 2h110v1001h-110q-82 0 -82 62q0 29 15.5 44t28.5 17t38 2h170q51 0 66.5 -17t15.5 -67v-1042h110q25 0 38 -2t28.5 -17.5t15.5 -44.5q0 -61 -82 -61h-362q-82 0 -82 61z" />
<glyph unicode="m" horiz-adv-x="1792" d="M35 61q0 29 15.5 44.5t28.5 17.5t38 2h110v633h-110q-82 0 -82 61q0 29 15.5 44.5t28.5 17.5t38 2h170q41 0 58 -12.5t20.5 -30t3.5 -62.5q129 117 301 117q203 0 268 -145q137 145 330 145q297 0 297 -299v-471h110q25 0 38 -2t28.5 -17.5t15.5 -44.5q0 -61 -82 -61 h-362q-82 0 -82 61q0 29 15.5 44.5t28.5 17.5t38 2h110v459q0 98 -33.5 142t-134.5 44q-104 0 -196 -69.5t-92 -215.5v-360h110q25 0 38 -2t28.5 -17.5t15.5 -44.5q0 -61 -82 -61h-362q-82 0 -82 61q0 29 15.5 44.5t28.5 17.5t38 2h110v459q0 98 -33.5 142t-134.5 44 q-104 0 -196 -69.5t-92 -215.5v-360h110q25 0 38 -2t28.5 -17.5t15.5 -44.5q0 -61 -82 -61h-362q-82 0 -82 61z" />
<glyph unicode="n" horiz-adv-x="1193" d="M35 61q0 29 15.5 44.5t28.5 17.5t38 2h110v633h-110q-82 0 -82 61q0 29 15.5 44.5t28.5 17.5t38 2h170q41 0 58 -12.5t20.5 -30t3.5 -62.5q127 117 301 117q295 0 295 -299v-471h110q25 0 38 -2t28.5 -17.5t15.5 -44.5q0 -61 -82 -61h-362q-25 0 -38 2t-28.5 17.5 t-15.5 43.5q0 61 82 62h110v459q0 96 -32.5 141t-133.5 45q-63 0 -125.5 -24.5t-112.5 -92t-50 -168.5v-360h110q25 0 38 -2t28.5 -17.5t15.5 -44.5q0 -61 -82 -61h-362q-82 0 -82 61z" />
<glyph unicode="o" d="M78 442q0 188 134 323.5t324.5 135.5t324.5 -135t134 -324q0 -190 -134 -322t-324.5 -132t-324.5 132t-134 322zM219 457q0 -141 92 -242.5t226 -101.5q131 0 224 101t93 243q0 135 -94 227t-223 92t-223.5 -92t-94.5 -227z" />
<glyph unicode="p" horiz-adv-x="1193" d="M35 -393q0 29 15.5 44t28.5 17t38 2h110v1088h-110q-82 0 -82 61q0 29 15.5 44.5t28.5 17.5t38 2h170q31 0 47 -5.5t24.5 -20.5t9.5 -28.5t1 -44.5q127 111 297 111q182 0 309 -133t127 -320q0 -190 -136.5 -322t-322.5 -132q-162 0 -274 121v-439h110q25 0 38 -2 t28.5 -17.5t15.5 -43.5q0 -61 -82 -62h-362q-82 1 -82 62zM369 399q0 -98 73.5 -192t192.5 -94q131 0 228.5 95t97.5 234q0 133 -88.5 230.5t-219.5 97.5q-111 0 -197.5 -69.5t-86.5 -163.5v-138z" />
<glyph unicode="q" horiz-adv-x="1134" d="M90 440q0 190 136 322.5t323 132.5q154 0 274 -121v37q0 27 2 41t19.5 28.5t50.5 14.5q47 0 58.5 -21.5t11.5 -62.5v-1141h110q25 0 38 -2t28.5 -17.5t15.5 -43.5q0 -61 -82 -62h-362q-25 0 -38 2t-28.5 17.5t-15.5 44.5q0 61 82 61h110v447q-133 -129 -297 -129 q-178 0 -307 132t-129 320zM231 440q0 -135 89.5 -231t216.5 -96q123 0 204.5 93t81.5 193v76q0 111 -74.5 203t-191.5 92q-131 0 -228.5 -95.5t-97.5 -234.5z" />
<glyph unicode="r" horiz-adv-x="835" d="M35 61q0 29 15.5 44.5t28.5 17.5t38 2h110v633h-110q-82 0 -82 61q0 29 15.5 44.5t28.5 17.5t38 2h170q41 0 58 -12.5t20.5 -31t3.5 -69.5q106 125 252 125q72 0 112.5 -40t40.5 -87q0 -39 -25.5 -63.5t-60.5 -24.5q-29 0 -56.5 19.5t-29.5 68.5q-76 -8 -130 -67.5 t-78.5 -140.5t-24.5 -175v-260h159q25 0 38.5 -2t28.5 -17.5t15 -44.5q0 -61 -82 -61h-411q-82 0 -82 61z" />
<glyph unicode="s" horiz-adv-x="847" d="M72 72v196q0 27 2 41.5t19.5 28.5t49.5 14q57 0 70 -51q12 -41 23.5 -67.5t35 -57.5t63.5 -47t95 -16q25 0 49.5 3t69.5 14t72.5 44t27.5 82q0 55 -46 90t-109 49q-35 0 -125 23q-297 55 -297 241q0 35 13 72t47 78t106.5 66.5t177.5 25.5q113 0 184 -41q14 41 59 41 q61 0 62 -84v-141q0 -27 -2 -41t-19.5 -28.5t-50.5 -14.5q-29 0 -45 11t-19 23.5t-5 30.5q-2 23 -7.5 37.5t-20.5 37t-51 33.5t-89 11q-109 0 -162 -32.5t-53 -84.5q0 -57 61 -81.5t207 -51.5q309 -57 309 -270q0 -104 -82 -186t-264 -82q-137 0 -223 69q-16 -70 -72 -69 q-61 0 -61 84z" />
<glyph unicode="t" horiz-adv-x="835" d="M39 819q0 63 84 64h104v168q0 27 2 41t19.5 28.5t50.5 14.5q47 0 58.5 -21.5t11.5 -62.5v-168h227q25 0 38 -2t28.5 -17.5t15.5 -44.5q0 -61 -82 -61h-227v-494q0 -152 100 -151q43 0 73.5 37.5t30.5 107.5q0 25 2.5 38t18.5 27.5t49 14.5t50.5 -14.5t19.5 -27.5t2 -40 q0 -117 -75 -192.5t-179 -75.5q-90 0 -162 61.5t-72 202.5v506h-106q-82 0 -82 61z" />
<glyph unicode="u" horiz-adv-x="1193" d="M35 819q0 29 15.5 44.5t28.5 17.5t38 2h170q51 0 66.5 -17.5t15.5 -66.5v-551q0 -33 3 -49.5t19.5 -40t57 -34.5t106.5 -11q37 0 74 6t85 24.5t78.5 64.5t30.5 114v436h-110q-25 0 -38 2t-28.5 17.5t-15.5 43.5q0 61 82 62h170q51 0 66.5 -17.5t15.5 -66.5v-674h110 q25 0 38 -2t28.5 -17.5t15.5 -44.5q0 -61 -82 -61h-170q-27 0 -40 2t-27.5 19.5t-14.5 50.5q-109 -84 -280 -84q-315 0 -316 248v522h-110q-82 0 -82 61z" />
<glyph unicode="v" horiz-adv-x="1134" d="M53 819q0 29 15.5 44.5t29 17.5t37.5 2h287q84 0 84 -64q0 -61 -84 -61h-84l229 -672l228 672h-84q-84 0 -84 63q0 61 84 62h286q25 0 38.5 -2t28.5 -17.5t15 -44.5q0 -61 -82 -61h-82l-235 -697q-14 -47 -41 -58t-72 -11q-33 0 -48 2t-34.5 18.5t-31.5 50.5l-236 695 h-82q-82 0 -82 61z" />
<glyph unicode="w" horiz-adv-x="1552" d="M47 821q0 61 84 62h277q84 0 84 -64q0 -61 -84 -61h-91l179 -652l190 703q12 41 30.5 57.5t63.5 16.5q33 0 53.5 -12.5t26.5 -23.5t12 -36l189 -688l172 635h-90q-84 0 -84 63q0 61 84 62h276q84 0 84 -64q0 -61 -84 -61h-67l-191 -697q-12 -47 -35.5 -58t-70.5 -11 q-61 0 -80 18.5t-35 81.5l-84 314l-78 331q-10 -88 -89 -388t-89 -318q-20 -39 -100 -39q-35 0 -51.5 3t-34 19.5t-27.5 51.5l-188 692h-68q-84 0 -84 63z" />
<glyph unicode="x" horiz-adv-x="1134" d="M57 61q0 63 84 64h103l258 332l-244 301h-102q-84 0 -84 63q0 61 84 62h286q25 0 38.5 -2t28.5 -17.5t15 -44.5q0 -61 -82 -61h-43l162 -205l154 205h-45q-84 0 -84 63q0 61 84 62h286q25 0 38.5 -2t28.5 -17.5t15 -44.5q0 -61 -82 -61h-102l-236 -301l269 -332h102 q84 0 84 -64q0 -61 -84 -61h-287q-25 0 -38 2t-28 17.5t-15 43.5q0 61 81 62h48l-191 256l-182 -256h51q25 0 38 -2t28.5 -17.5t15.5 -44.5q0 -61 -82 -61h-287q-84 0 -84 61z" />
<glyph unicode="y" horiz-adv-x="1134" d="M41 -299q0 41 24.5 65.5t65.5 24.5q37 0 62.5 -24.5t25.5 -65.5q0 -10 -2 -20.5t-2 -12.5q0 -10 31 -10q178 0 243 215q41 117 46 127l-310 758h-84q-84 0 -84 63q0 61 84 62h287q25 0 38 -2t28.5 -17.5t15.5 -44.5q0 -61 -82 -61h-78l195 -488l47 -129l201 617h-84 q-82 0 -82 61q0 29 15 44.5t28.5 17.5t38.5 2h288q25 0 38.5 -2t28.5 -17.5t15 -44.5q0 -61 -82 -61h-82l-317 -928q-39 -113 -133 -205t-223 -92q-86 0 -143.5 50t-57.5 118z" />
<glyph unicode="z" horiz-adv-x="956" d="M59 72q0 27 7 41l591 645h-426v-53q0 -27 -2 -41.5t-19 -28.5t-50 -14q-47 0 -58.5 21.5t-11.5 62.5v94q0 51 16.5 67.5t67.5 16.5h600q27 0 41 -2t28.5 -19.5t14.5 -50.5q0 -25 -6 -41l-592 -645h463v78q0 27 2 41t19.5 28.5t50.5 14.5q47 0 58 -21.5t11 -62.5v-119 q0 -49 -16.5 -66.5t-65.5 -17.5h-639q-27 0 -41 2t-28.5 19.5t-14.5 50.5z" />
<glyph unicode="{" d="M117 627q0 33 18.5 47t34.5 14q145 0 223 33q51 23 62.5 48.5t11.5 88.5v184q0 160 2 172q41 207 401 207q27 0 41.5 -2t29.5 -17.5t15 -43.5q0 -33 -18 -47.5t-35 -14.5q-250 0 -289 -82q-6 -16 -6 -149v-270q-4 -102 -119 -170q119 -66 119 -197v-330q0 -33 5 -50 t29 -41.5t85 -37t160 -14.5q70 0 69 -61q0 -29 -15 -44.5t-29.5 -17.5t-41.5 -2q-184 0 -297 61q-49 27 -74.5 70t-28.5 70.5t-3 72.5v340q-4 109 -281 119q-69 1 -69 64z" />
<glyph unicode="|" d="M465 -74v1399q0 96 71.5 96t71.5 -96v-1399q0 -96 -71.5 -96t-71.5 96z" />
<glyph unicode="}" d="M117 -106q0 33 18.5 47t34.5 14q86 2 145.5 11t88 20.5t44 33t17.5 35t2 37.5v365q0 14 4 34.5t34 63.5t81 72q-119 63 -119 194v330q0 35 -5 52.5t-28.5 43t-86 36.5t-163.5 13q-68 0 -67 62q0 29 16.5 44t30.5 17t39 2q186 0 299 -61q49 -27 74.5 -70t28.5 -69.5 t3 -69.5v-342q4 -109 279 -121q70 0 69 -63q0 -33 -18 -47.5t-35 -14.5q-143 0 -221 -33q-51 -23 -62.5 -48t-11.5 -89v-184q0 -160 -2 -172q-39 -207 -403 -207q-25 0 -39 2t-30.5 17.5t-16.5 44.5z" />
<glyph unicode="~" d="M180 569q0 37 101 113q92 68 159.5 68t137.5 -70q47 -43 63 -43q47 0 143 90q27 23 50 23q25 0 44 -20.5t19 -45.5q0 -37 -100 -113q-92 -68 -160 -67.5t-137 69.5q-47 43 -64 43q-47 0 -143 -90q-27 -23 -49 -22q-25 0 -44.5 20t-19.5 45z" />
<glyph unicode="&#xa0;" />
<glyph unicode="&#xa1;" horiz-adv-x="598" d="M197 -360q0 61 5 173.5t5 153.5l8 355q4 63 17.5 80.5t66.5 17.5q80 0 82 -51l6 -250l14 -479q0 -49 -23.5 -78t-43 -34t-35.5 -5t-35.5 5t-43 34t-23.5 78zM197 694q0 43 29.5 73t72.5 30t72.5 -30t29.5 -73t-29.5 -72.5t-72.5 -29.5t-72.5 29.5t-29.5 72.5z" />
<glyph unicode="&#xa2;" horiz-adv-x="956" d="M90 442q0 90 34 178.5t122 169t217 103.5v117q0 27 18.5 45t45 18t45 -18.5t18.5 -44.5v-109q281 0 280 -149q0 -43 -26.5 -69t-65.5 -26q-88 0 -90 101q0 18 -98 18v-661q121 14 166 121q10 29 24.5 37t42.5 8q72 0 72 -58q0 -16 -14.5 -48t-45 -73t-96 -73.5 t-149.5 -38.5v-117q0 -27 -18.5 -45t-45 -18t-45 18t-18.5 45v121q-164 27 -268.5 154.5t-104.5 293.5zM231 442q0 -113 64.5 -198.5t167.5 -116.5v637q-86 -23 -142.5 -88.5t-73 -123t-16.5 -110.5z" />
<glyph unicode="&#xa3;" horiz-adv-x="1552" d="M84 168q0 100 99.5 146t244.5 46q90 0 186 -36q-18 80 -96 231h-272q-29 0 -50.5 20.5t-21.5 51.5q0 29 21.5 50t50.5 21h205q-39 98 -39 185q0 160 134 264t316 104q184 0 318.5 -89t134.5 -238q0 -29 -21.5 -50.5t-50.5 -21.5q-31 0 -51.5 21.5t-20.5 50.5 q0 92 -91 138t-218 46q-123 0 -215 -61.5t-92 -163.5q0 -86 39 -185h428q31 0 51.5 -21.5t20.5 -49.5q0 -31 -20.5 -51.5t-51.5 -20.5h-360q98 -197 108 -301q39 -18 76 -37.5t77 -37t77.5 -30t80.5 -20.5t84 -8q68 0 114 51t46 123q0 29 21.5 50.5t50.5 21.5q31 0 51 -21.5 t20 -50.5q0 -131 -88 -224.5t-215 -93.5q-70 0 -146.5 23t-139 55.5t-136.5 67.5q-45 -74 -156.5 -110t-250.5 -36q-102 0 -177 52.5t-75 138.5zM227 168q0 -47 109 -47q78 0 119 2t92 16.5t69 40.5q-111 37 -188 37q-201 0 -201 -49z" />
<glyph unicode="&#xa4;" horiz-adv-x="1673" d="M330 121q-51 49 16 117l105 106q-92 125 -92.5 282.5t92.5 282.5l-105 107q-68 68 -16 117q49 51 116 -17l107 -104q129 92 283 92q160 0 284 -92l105 104q68 68 116 17q51 -49 -16 -117l-104 -105q94 -127 94 -284.5t-94 -284.5l104 -104q68 -68 16 -117 q-49 -51 -116 16l-105 105q-125 -92 -284 -92q-154 0 -283 92l-107 -105q-67 -67 -116 -16zM502 626.5q0 -139.5 97 -236.5t236.5 -97t237.5 97t98 236.5t-98 237t-237.5 97.5t-236.5 -97.5t-97 -237z" />
<glyph unicode="&#xa5;" horiz-adv-x="1552" d="M61 1190q0 61 84 61h320q84 0 84 -63q0 -61 -84 -62h-47l198 -268h318l199 268h-48q-84 0 -84 64q0 61 84 61h320q84 0 84 -63q0 -61 -84 -62h-98l-197 -268h133q29 0 50.5 -21.5t21.5 -50.5q0 -31 -21.5 -51t-50.5 -20h-239l-130 -176h369q29 0 50.5 -20.5t21.5 -51.5 q0 -29 -21.5 -50.5t-50.5 -21.5h-397v-270h110q25 0 38.5 -2t28.5 -17.5t15 -44.5q0 -61 -82 -61h-362q-82 0 -82 61q0 29 15.5 44.5t28.5 17.5t38 2h111v270h-394q-31 0 -51 21.5t-20 50.5q0 31 20.5 51.5t50.5 20.5h365l-129 176h-236q-31 0 -51 20.5t-20 50.5 q0 29 20.5 50.5t50.5 21.5h129l-196 268h-99q-84 1 -84 64zM721 715l53 -72l53 72h-106z" />
<glyph unicode="&#xa6;" d="M465 -74v492q0 27 21.5 45t50 18t50 -18.5t21.5 -44.5v-492q0 -96 -71.5 -96t-71.5 96zM465 834v491q0 96 71.5 96t71.5 -96v-491q0 -27 -21.5 -45.5t-50 -18.5t-50 18.5t-21.5 45.5z" />
<glyph unicode="&#xa7;" horiz-adv-x="1116" d="M96 627q0 72 38 131t99 90q-39 57 -38 125q0 131 107.5 216t255 85t255 -70.5t107.5 -189.5q0 -37 -27 -63.5t-63.5 -26.5t-63.5 26.5t-27 63.5q0 31 19 55q-45 61 -201 61q-88 0 -153.5 -43t-65.5 -114q0 -31 15.5 -56.5t50 -46t57 -31t69.5 -28.5l203 -78 q123 -47 204 -135t81 -201q0 -72 -37 -131t-100 -92q39 -55 39 -123q0 -131 -107.5 -216t-255 -85t-255 70.5t-107.5 189.5q0 37 26.5 63.5t63.5 26.5t63.5 -26.5t26.5 -63.5q0 -31 -19 -55q45 -61 201 -61q88 0 153.5 43t65.5 114q0 31 -15.5 56.5t-50 46t-57 31 t-69.5 28.5l-203 78q-123 47 -204 135t-81 201zM240 627q0 -131 192 -203l203 -78q84 -35 139 -72q43 8 71.5 43t28.5 80q0 131 -192 203l-203 78q-80 31 -139 70q-43 -6 -71.5 -41t-28.5 -80z" />
<glyph unicode="&#xa8;" d="M274 1114q0 35 27 63.5t68 28.5q39 0 65.5 -27.5t26.5 -64.5t-26.5 -64.5t-67.5 -27.5q-37 0 -65 26.5t-28 65.5zM616 1114q0 35 27 63.5t68 28.5q39 0 65.5 -27.5t26.5 -64.5t-26.5 -64.5t-67.5 -27.5q-37 0 -65 26.5t-28 65.5z" />
<glyph unicode="&#xa9;" horiz-adv-x="1251" d="M0 627q0 258 183.5 441t443.5 183q258 0 441 -183t183 -441q0 -260 -183 -443.5t-441 -183.5q-260 0 -443.5 183.5t-183.5 443.5zM117 627q0 -213 148.5 -361.5t361.5 -148.5q211 0 359.5 149.5t148.5 360.5t-148.5 359.5t-359.5 148.5t-360.5 -148.5t-149.5 -359.5z M291 627q0 117 93 202.5t228 85.5q123 0 193 -57q10 25 18 35q10 23 27 22q29 0 29 -36v-127q0 -39 -33 -39q-25 0 -31 22q-16 61 -70 94q-55 31 -127 31q-111 0 -187.5 -69.5t-76.5 -163.5q0 -96 76 -166t191 -70q78 0 129 27q59 29 65 86q2 27 31 26q33 0 33 -30 q0 -72 -72 -118t-193 -46q-139 0 -231 86t-92 205z" />
<glyph unicode="&#xaa;" horiz-adv-x="966" d="M92 827q0 96 133 152.5t367 60.5q0 145 -211 146h-64q-31 -4 -30 -17q-2 -66 -76 -65q-33 0 -54.5 17.5t-21.5 47.5q0 104 244 105q166 0 249 -66.5t83 -154.5v-312q35 -10 96 -10q70 0 70 -43q0 -20 -13.5 -30.5t-28 -12.5t-44.5 -2q-141 0 -181 47q-94 -55 -243 -55 q-121 0 -198 57t-77 135zM156 528.5q0 18.5 18.5 31.5t44.5 13h531q27 0 45 -13t18 -31.5t-18.5 -31t-44.5 -12.5h-531q-27 0 -45 12.5t-18 31zM209 827q0 -43 48 -73.5t124 -30.5q84 0 143 22q31 12 47.5 29t18.5 29t2 33v120q-193 -6 -288 -42t-95 -87z" />
<glyph unicode="&#xab;" horiz-adv-x="1193" d="M252 418q-29 33 0 63q154 168 221 385q10 33 45 33h33q23 0 37 -19.5t8 -41.5q-63 -215 -201 -389q137 -170 201 -388q6 -23 -8.5 -42t-36.5 -19h-33q-35 0 -45 33q-67 217 -221 385zM610 418q-29 33 0 63q154 168 221 385q10 33 46 33h32q23 0 37.5 -19.5t7.5 -41.5 q-63 -215 -200 -389q137 -170 200 -388q6 -23 -8 -42t-37 -19h-32q-35 0 -46 33q-67 217 -221 385z" />
<glyph unicode="&#xac;" horiz-adv-x="1673" d="M119 782.5q0 28.5 21.5 50t49.5 21.5h1291q29 0 50 -21.5t21 -50.5v-311q0 -29 -21.5 -50.5t-50 -21.5t-50 21.5t-21.5 50.5v240h-1219q-29 0 -50 21.5t-21 50z" />
<glyph unicode="&#xad;" horiz-adv-x="716" d="M25 442q0 61 81 62h408q25 0 38 -2t28.5 -17.5t15.5 -44.5q0 -61 -82 -61h-408q-25 0 -38 2t-28 17t-15 44z" />
<glyph unicode="&#xae;" horiz-adv-x="1251" d="M0 627q0 258 183.5 441t443.5 183q258 0 441 -183t183 -441q0 -260 -183 -443.5t-441 -183.5q-260 0 -443.5 183.5t-183.5 443.5zM117 627q0 -213 148.5 -361.5t361.5 -148.5q211 0 359.5 149.5t148.5 360.5t-148.5 359.5t-359.5 148.5t-360.5 -148.5t-149.5 -359.5z M332 379q0 29 37 29h49v446h-49q-37 0 -37 28.5t37 28.5h245q100 0 175 -46t75 -109q0 -76 -106 -123q33 -16 51 -43t18 -92q0 -35 2 -52.5t13.5 -33t34.5 -15.5q39 0 41 41q2 27 30 27q33 0 33 -27q0 -37 -28.5 -66.5t-75.5 -29.5q-57 0 -89 41q-25 33 -24 113q0 43 -5 57 t-32 29q-37 20 -115 20h-131v-194h49q37 0 37 -29q0 -27 -37 -27h-161q-37 0 -37 27zM481 659h125q78 0 136.5 28t58.5 69q0 43 -58.5 70.5t-136.5 27.5h-125v-195z" />
<glyph unicode="&#xaf;" d="M152 1116q0 29 15 44.5t28.5 17.5t37.5 2h611q25 0 38 -2t28.5 -17.5t15.5 -46.5q0 -29 -15.5 -44t-29 -17t-37.5 -2h-608q-25 0 -39.5 2t-29.5 17t-15 46z" />
<glyph unicode="&#xb0;" horiz-adv-x="806" d="M104 952q0 125 87.5 212t211.5 87q123 0 211 -87t88 -212q0 -123 -88 -211t-211 -88q-125 0 -212 88t-87 211zM248 952.5q0 -63.5 46 -109.5t109.5 -46t109.5 46t46 109.5t-46 109.5t-109.5 46t-109.5 -46t-46 -109.5z" />
<glyph unicode="&#xb1;" horiz-adv-x="1673" d="M119 71.5q0 71.5 96 71.5h549v410h-549q-96 0 -96 71.5t96 71.5h549v457q0 96 71.5 96t71.5 -96v-457h549q96 0 96 -71.5t-96 -71.5h-549v-410h549q96 0 96 -71.5t-96 -71.5h-1241q-96 0 -96 71.5z" />
<glyph unicode="&#xb2;" horiz-adv-x="772" d="M76 549q0 14 22 33l326 227q170 117 170 225q0 78 -68.5 122t-165.5 44q-61 0 -109 -26.5t-65 -69.5q23 -12 23 -39q0 -25 -20.5 -40t-45 -15t-46 14t-21.5 45q0 82 82 143.5t209 61.5q139 0 234 -65.5t95 -174.5q0 -127 -161 -246q-37 -29 -149 -104.5t-142 -97.5h350 q0 20 2 30.5t13.5 18.5t35.5 8q35 0 43 -13.5t8 -37.5v-31q0 -31 -11 -41t-48 -10h-500q-61 0 -61 39z" />
<glyph unicode="&#xb3;" horiz-adv-x="772" d="M66 678q0 27 19 42t46 15t46.5 -16.5t19.5 -39t-19 -36.5q49 -72 211 -72q96 0 156.5 46.5t60.5 105.5t-59.5 106.5t-161.5 47.5h-68q-59 0 -59 38q0 12 3 19.5t20.5 11.5t30 6t53.5 4q90 4 137 37q61 43 61 107q0 41 -50 70.5t-124 29.5q-119 0 -164 -39q14 -14 15 -33 q0 -25 -20.5 -40t-45 -15t-45 14.5t-20.5 42.5q0 63 74.5 103.5t203.5 40.5q123 0 201 -51.5t78 -120.5q0 -115 -125 -182q76 -29 122 -81.5t46 -115.5q0 -88 -90.5 -157.5t-229.5 -69.5q-137 0 -230 50t-93 132z" />
<glyph unicode="&#xb4;" d="M322 1059q0 16 8 28.5t16 17.5t27 13l272 123l39 10q31 0 51.5 -20.5t20.5 -50.5q0 -45 -58 -72l-272 -121q-20 -10 -37 -10q-35 0 -51 29.5t-16 52.5z" />
<glyph unicode="&#xb5;" horiz-adv-x="1193" d="M35 -391q0 29 16.5 43t30.5 16t41 2h104v1086h-104q-27 0 -42 2t-30.5 17.5t-15.5 44t16.5 43t30.5 16.5t41 2h160q55 0 71.5 -17.5t16.5 -70.5v-543q0 -35 3 -52.5t19.5 -41t56 -33.5t107.5 -10q111 0 186 49q78 53 78 162v432h-104q-27 0 -42.5 2t-30.5 17.5t-15 44 t16.5 43t30.5 16.5t41 2h160q55 0 71.5 -17.5t16.5 -70.5v-668h104q27 0 42 -2t30.5 -17.5t15.5 -44t-16.5 -43t-30.5 -16.5t-41 -2h-160q-27 0 -42 2t-31.5 18.5t-16.5 49.5q-106 -82 -276 -82q-111 0 -172 24v-342h104q27 0 42 -2t30.5 -17.5t15.5 -44t-16.5 -43 t-30.5 -16.5t-41 -2h-352q-27 0 -42 2t-30.5 17.5t-15.5 44.5z" />
<glyph unicode="&#xb6;" horiz-adv-x="1251" d="M115 948q0 195 149.5 334t362.5 139h497q68 0 68 -41t-68 -41h-102v-1669q0 -68 -41 -67.5t-41 67.5v1669h-143v-1669q0 -68 -41 -67.5t-41 67.5v801q-102 4 -204.5 35t-193 86t-146.5 148t-56 208z" />
<glyph unicode="&#xb7;" horiz-adv-x="1673" d="M733 627q0 43 30 72.5t73 29.5t72.5 -29.5t29.5 -72.5t-29.5 -73t-72.5 -30t-73 30t-30 73z" />
<glyph unicode="&#xb8;" horiz-adv-x="956" d="M287 -362q0 31 17.5 45t36.5 16t60 2q141 0 192.5 20.5t51.5 61.5q0 33 -32.5 55.5t-84.5 26.5q-29 2 -43 16.5t-16 26.5t-2 37v67q0 25 2 38t18.5 27.5t49.5 14.5q49 0 60 -23.5t11 -88.5q80 -20 129 -71.5t49 -127.5q0 -49 -18 -87t-58 -59.5t-76 -35t-96.5 -18.5 t-94 -6t-93.5 -1q-23 0 -43 15.5t-20 48.5z" />
<glyph unicode="&#xb9;" horiz-adv-x="806" d="M156 1161q0 35 41 39q119 0 176 53q20 20 41 21q45 0 45 -49v-639h133q59 0 59 -39q0 -37 -59 -37h-369q-59 0 -59 37q0 39 59 39h133v567q-68 -29 -149 -29q-51 0 -51 37z" />
<glyph unicode="&#xba;" horiz-adv-x="901" d="M66 952q0 133 112.5 227.5t272 94.5t272.5 -94.5t113 -227.5q0 -131 -114 -224t-271.5 -93t-271 93t-113.5 224zM129 528.5q0 18.5 18.5 31.5t45.5 13h516q27 0 45 -13t18 -31.5t-18.5 -31t-44.5 -12.5h-516q-27 0 -45.5 12.5t-18.5 31zM184 963q0 -98 78 -169t188.5 -71 t188.5 70.5t78 169.5q0 96 -79 159.5t-187.5 63.5t-187.5 -63.5t-79 -159.5z" />
<glyph unicode="&#xbb;" horiz-adv-x="1193" d="M240 61q68 217 200 388q-135 174 -200 389q-6 23 8 42t37 19h32q35 0 45 -33q74 -221 222 -385q29 -31 0 -63q-147 -164 -222 -385q-10 -33 -45 -33h-32q-23 0 -37 19t-8 42zM598 61q68 217 201 388q-135 174 -201 389q-6 23 8.5 42t36.5 19h33q35 0 45 -33 q74 -221 221 -385q29 -31 0 -63q-147 -164 -221 -385q-10 -33 -45 -33h-33q-23 0 -37 19t-8 42z" />
<glyph unicode="&#xbc;" horiz-adv-x="1720" d="M156 1161q0 35 41 39q119 0 176 53q20 20 41 21q45 0 45 -49v-639h133q59 0 59 -39q0 -37 -59 -37h-369q-59 0 -59 37q0 39 59 39h133v567q-68 -29 -149 -29q-51 0 -51 37zM444 41q0 20 15 43l860 1169q20 29 57 29q29 0 50.5 -21.5t21.5 -50.5q0 -23 -14 -43l-861 -1169 q-20 -29 -57 -29q-29 0 -50.5 21.5t-21.5 50.5zM877 256q0 29 14 43l336 440q20 27 61 27h43q37 0 48.5 -10.5t11.5 -40.5v-432h114q59 0 60 -39q0 -37 -60 -37h-114v-131h92q57 0 57 -39q0 -37 -57 -37h-266q-59 0 -60 37q0 39 60 39h92v131h-373q-35 0 -47 10t-12 39z M981 283h328v428z" />
<glyph unicode="&#xbd;" horiz-adv-x="1910" d="M156 1161q0 35 41 39q119 0 176 53q20 20 41 21q45 0 45 -49v-639h133q59 0 59 -39q0 -37 -59 -37h-369q-59 0 -59 37q0 39 59 39h133v567q-68 -29 -149 -29q-51 0 -51 37zM455 41q0 25 12 43l860 1169q25 29 59 29q29 0 50.5 -21.5t21.5 -50.5q0 -23 -14 -43l-860 -1169 q-23 -29 -58 -29q-31 0 -51 21.5t-20 50.5zM1137 39q0 16 22 33l326 227q170 119 170 225q0 78 -69.5 122t-166.5 44q-59 0 -107 -26.5t-65 -69.5q20 -14 20.5 -39t-20 -40t-45.5 -15q-23 0 -44 14t-21 45q0 82 81.5 143.5t208.5 61.5q139 0 233.5 -65.5t94.5 -174.5 q0 -125 -160 -245q-37 -29 -157 -111l-135 -92h352q0 20 2 30.5t13 18.5t36 8q23 0 34 -9t13 -17.5t2 -24.5v-31q0 -31 -11 -41t-46 -10h-502q-59 0 -59 39z" />
<glyph unicode="&#xbe;" horiz-adv-x="1720" d="M129 678q0 27 19.5 42t48.5 15q27 0 45 -16.5t18 -38.5q0 -20 -16 -37q49 -72 211 -72q96 0 156.5 46.5t60.5 105.5t-59.5 106.5t-161.5 47.5h-70q-57 0 -57 38q0 25 17 31t89 10q88 4 135 37q63 41 64 107q0 41 -50.5 70.5t-123.5 29.5q-119 0 -164 -39q12 -12 12 -33 q0 -25 -19.5 -40t-43.5 -15q-27 0 -47.5 14.5t-20.5 42.5q0 63 76 103.5t205 40.5q123 0 199.5 -51.5t76.5 -120.5q0 -115 -123 -182q74 -29 120 -81.5t46 -115.5q0 -88 -89 -157.5t-228.5 -69.5t-232.5 50t-93 132zM444 41q0 20 15 43l860 1169q20 29 57 29 q29 0 50.5 -21.5t21.5 -50.5q0 -23 -14 -43l-861 -1169q-20 -29 -57 -29q-29 0 -50.5 21.5t-21.5 50.5zM877 256q0 29 14 43l336 440q20 27 61 27h43q37 0 48.5 -10.5t11.5 -40.5v-432h114q59 0 60 -39q0 -37 -60 -37h-114v-131h92q57 0 57 -39q0 -37 -57 -37h-266 q-59 0 -60 37q0 39 60 39h92v131h-373q-35 0 -47 10t-12 39zM981 283h328v428z" />
<glyph unicode="&#xbf;" horiz-adv-x="1015" d="M119 -213q0 119 108 197q168 119 168 317v35q0 53 16.5 68.5t65.5 15.5q31 0 47.5 -4t24.5 -20.5t9 -31t1 -51.5q0 -51 -6 -89t-27.5 -98t-77 -122.5t-141.5 -124.5q-47 -37 -47 -92q0 -129 219 -129q190 0 252 74q-18 18 -18 55q0 41 27.5 66.5t62.5 25.5 q37 0 64.5 -25.5t27.5 -70.5q0 -106 -102.5 -178t-313.5 -72q-115 0 -192.5 28.5t-110.5 74t-45 81t-12 70.5zM375 694q0 43 29.5 73t72.5 30t73 -30t30 -73t-30 -72.5t-73 -29.5t-72.5 29.5t-29.5 72.5z" />
<glyph unicode="&#xc0;" horiz-adv-x="1552" d="M84 63q0 61 82 62h94l387 1083q12 31 32.5 47.5t35 18.5t41.5 2h39q29 0 43 -2t33.5 -18.5t31.5 -49.5l387 -1081h94q25 0 38.5 -2t28.5 -17.5t15 -44.5q0 -61 -82 -61h-325q-84 0 -84 63q0 61 84 62h82l-82 227h-567l-82 -227h82q84 0 83 -64q0 -61 -83 -61h-326 q-25 0 -38 2t-28.5 17t-15.5 44zM537 477h477l-240 668zM559 1540q0 31 20.5 51.5t51.5 20.5l39 -10l272 -123q18 -8 26.5 -13.5t16.5 -17.5t8 -29q0 -23 -16 -52.5t-51 -29.5q-16 0 -37 11l-273 120q-57 27 -57 72z" />
<glyph unicode="&#xc1;" horiz-adv-x="1552" d="M84 63q0 61 82 62h94l387 1083q12 31 32.5 47.5t35 18.5t41.5 2h39q29 0 43 -2t33.5 -18.5t31.5 -49.5l387 -1081h94q25 0 38.5 -2t28.5 -17.5t15 -44.5q0 -61 -82 -61h-325q-84 0 -84 63q0 61 84 62h82l-82 227h-567l-82 -227h82q84 0 83 -64q0 -61 -83 -61h-326 q-25 0 -38 2t-28.5 17t-15.5 44zM537 477h477l-240 668zM561 1419q0 16 8.5 28.5t16.5 17.5t26 14l273 123l39 10q31 0 51 -20.5t20 -51.5q0 -45 -57 -72l-272 -120q-20 -10 -37 -11q-35 0 -51.5 29.5t-16.5 52.5z" />
<glyph unicode="&#xc2;" horiz-adv-x="1552" d="M84 63q0 61 82 62h94l387 1083q12 31 32.5 47.5t35 18.5t41.5 2h39q29 0 43 -2t33.5 -18.5t31.5 -49.5l387 -1081h94q25 0 38.5 -2t28.5 -17.5t15 -44.5q0 -61 -82 -61h-325q-84 0 -84 63q0 61 84 62h82l-82 227h-567l-82 -227h82q84 0 83 -64q0 -61 -83 -61h-326 q-25 0 -38 2t-28.5 17t-15.5 44zM481.5 1360q-18.5 55 36.5 76l242 88q20 6 39 0l241 -88q53 -20 35 -75.5t-74 -39.5l-223 68l-223 -68q-55 -16 -73.5 39zM537 477h477l-240 668z" />
<glyph unicode="&#xc3;" horiz-adv-x="1552" d="M84 63q0 61 82 62h94l387 1083q12 31 32.5 47.5t35 18.5t41.5 2h39q29 0 43 -2t33.5 -18.5t31.5 -49.5l387 -1081h94q25 0 38.5 -2t28.5 -17.5t15 -44.5q0 -61 -82 -61h-325q-84 0 -84 63q0 61 84 62h82l-82 227h-567l-82 -227h82q84 0 83 -64q0 -61 -83 -61h-326 q-25 0 -38 2t-28.5 17t-15.5 44zM420 1382q0 37 100 113q92 68 160 68t137 -70q47 -43 64 -43q47 0 143 90q27 23 49 23q25 0 44.5 -20.5t19.5 -45.5q0 -37 -101 -113q-92 -68 -159.5 -67.5t-137.5 69.5q-47 43 -63 44q-47 0 -144 -91q-27 -23 -49 -22q-25 0 -44 20t-19 45z M537 477h477l-240 668z" />
<glyph unicode="&#xc4;" horiz-adv-x="1552" d="M84 63q0 61 82 62h94l387 1083q12 31 32.5 47.5t35 18.5t41.5 2h39q29 0 43 -2t33.5 -18.5t31.5 -49.5l387 -1081h94q25 0 38.5 -2t28.5 -17.5t15 -44.5q0 -61 -82 -61h-325q-84 0 -84 63q0 61 84 62h82l-82 227h-567l-82 -227h82q84 0 83 -64q0 -61 -83 -61h-326 q-25 0 -38 2t-28.5 17t-15.5 44zM483 1409q0 35 27 63.5t68 28.5q39 0 65.5 -27.5t26.5 -64.5t-27 -64.5t-68 -27.5q-37 0 -64.5 26.5t-27.5 65.5zM537 477h477l-240 668zM887 1409q0 35 26.5 63.5t67.5 28.5q39 0 65.5 -27.5t26.5 -64.5t-26.5 -64.5t-67.5 -27.5 q-37 0 -64.5 26.5t-27.5 65.5z" />
<glyph unicode="&#xc5;" horiz-adv-x="1552" d="M84 63q0 61 82 62h94l387 1083q12 31 32.5 47.5t35 18.5t41.5 2h39q29 0 43 -2t33.5 -18.5t31.5 -49.5l387 -1081h94q25 0 38.5 -2t28.5 -17.5t15 -44.5q0 -61 -82 -61h-325q-84 0 -84 63q0 61 84 62h82l-82 227h-567l-82 -227h82q84 0 83 -64q0 -61 -83 -61h-326 q-25 0 -38 2t-28.5 17t-15.5 44zM537 477h477l-240 668zM537 1411q0 55 68.5 95t172.5 40q98 0 168 -40t70 -95t-68.5 -95t-173.5 -40q-98 0 -167.5 40t-69.5 95zM672 1411q0 -25 30.5 -42t73.5 -17q39 0 72 16t33 43q0 25 -31 42t-74 17q-39 0 -71.5 -16t-32.5 -43z" />
<glyph unicode="&#xc6;" horiz-adv-x="1910" d="M90 63q0 61 84 62h96l439 1001h-35q-84 0 -84 62q0 63 84 63h1034q51 0 66.5 -17t15.5 -67v-149q0 -27 -2 -41t-19.5 -28.5t-50.5 -14.5q-47 0 -58 21.5t-11 62.5v108h-547v-415h301q0 51 3 70.5t18.5 32.5t50.5 13q47 0 58 -21.5t11 -62.5v-190q0 -27 -2 -41 t-18.5 -28.5t-48.5 -14.5q-49 0 -60.5 22.5t-11.5 94.5h-301v-461h606v141q0 27 2 41.5t19.5 28.5t50.5 14q47 0 58 -21.5t11 -62.5v-182q0 -49 -16 -66.5t-66 -17.5h-868q-84 0 -84 61q0 63 84 64h62v250h-429l-108 -250h76q25 0 38 -2t28.5 -17.5t15.5 -44.5 q0 -61 -82 -61h-326q-84 0 -84 63zM588 500h373v626h-97z" />
<glyph unicode="&#xc7;" horiz-adv-x="1552" d="M119 627q0 262 206.5 454.5t510.5 192.5q272 0 434 -127q27 57 37 76q12 29 24 40t39 11q61 0 62 -84v-285q0 -27 -2.5 -41t-19.5 -28.5t-50 -14.5q-57 0 -68 47q-10 43 -19 68t-44 68t-92 75q-119 70 -287 70q-250 0 -420 -155.5t-170 -366.5q0 -213 170 -369t424 -156 q176 0 291 58q47 23 77.5 49.5t44 55t17.5 45t6 42.5q4 59 70 60q72 0 72 -68q0 -137 -119 -234.5t-328 -123.5v-6q80 -20 129 -71.5t49 -127.5q0 -49 -18.5 -87t-58 -59.5t-75.5 -35t-96.5 -18.5t-94.5 -6t-93 -1q-23 0 -43 15.5t-20 48.5q0 31 17 45t36.5 16t60.5 2 q141 0 192.5 20.5t51.5 61.5q0 33 -33 55.5t-84 26.5q-29 2 -43 16.5t-16 26.5t-2 37v32h-4q-309 0 -515 193t-206 457z" />
<glyph unicode="&#xc8;" horiz-adv-x="1433" d="M94 61q0 29 15.5 44.5t29 17.5t37.5 2h111v1001h-111q-82 0 -82 62q0 29 15.5 44t29 17t37.5 2h1055q51 0 66.5 -17t15.5 -67v-149q0 -27 -2 -41t-19.5 -28.5t-50.5 -14.5q-47 0 -58.5 21.5t-11.5 62.5v108h-743v-415h408q0 51 3 70.5t18 32.5t50 13q47 0 58.5 -21.5 t11.5 -62.5v-190q0 -27 -2 -41t-18.5 -28.5t-49.5 -14.5q-49 0 -60 22.5t-11 94.5h-408v-461h803v141q0 27 2 41.5t19.5 28.5t50.5 14q47 0 58 -21.5t11 -62.5v-182q0 -49 -16.5 -66.5t-65.5 -17.5h-1114q-82 0 -82 61zM500 1540q0 31 20.5 51.5t50.5 20.5l39 -10l273 -123 q18 -8 26.5 -13.5t16.5 -17.5t8 -29q0 -23 -16.5 -52.5t-51.5 -29.5q-16 0 -37 11l-272 120q-57 27 -57 72z" />
<glyph unicode="&#xc9;" horiz-adv-x="1433" d="M94 61q0 29 15.5 44.5t29 17.5t37.5 2h111v1001h-111q-82 0 -82 62q0 29 15.5 44t29 17t37.5 2h1055q51 0 66.5 -17t15.5 -67v-149q0 -27 -2 -41t-19.5 -28.5t-50.5 -14.5q-47 0 -58.5 21.5t-11.5 62.5v108h-743v-415h408q0 51 3 70.5t18 32.5t50 13q47 0 58.5 -21.5 t11.5 -62.5v-190q0 -27 -2 -41t-18.5 -28.5t-49.5 -14.5q-49 0 -60 22.5t-11 94.5h-408v-461h803v141q0 27 2 41.5t19.5 28.5t50.5 14q47 0 58 -21.5t11 -62.5v-182q0 -49 -16.5 -66.5t-65.5 -17.5h-1114q-82 0 -82 61zM502 1419q0 16 8 28.5t16.5 17.5t26.5 14l272 123 l39 10q31 0 51.5 -20.5t20.5 -51.5q0 -45 -57 -72l-273 -120q-20 -10 -37 -11q-35 0 -51 29.5t-16 52.5z" />
<glyph unicode="&#xca;" horiz-adv-x="1433" d="M94 61q0 29 15.5 44.5t29 17.5t37.5 2h111v1001h-111q-82 0 -82 62q0 29 15.5 44t29 17t37.5 2h1055q51 0 66.5 -17t15.5 -67v-149q0 -27 -2 -41t-19.5 -28.5t-50.5 -14.5q-47 0 -58.5 21.5t-11.5 62.5v108h-743v-415h408q0 51 3 70.5t18 32.5t50 13q47 0 58.5 -21.5 t11.5 -62.5v-190q0 -27 -2 -41t-18.5 -28.5t-49.5 -14.5q-49 0 -60 22.5t-11 94.5h-408v-461h803v141q0 27 2 41.5t19.5 28.5t50.5 14q47 0 58 -21.5t11 -62.5v-182q0 -49 -16.5 -66.5t-65.5 -17.5h-1114q-82 0 -82 61zM421.5 1360q-18.5 55 37.5 76l241 88q20 6 39 0 l242 -88q53 -20 34.5 -75.5t-73.5 -39.5l-223 68l-223 -68q-56 -16 -74.5 39z" />
<glyph unicode="&#xcb;" horiz-adv-x="1433" d="M94 61q0 29 15.5 44.5t29 17.5t37.5 2h111v1001h-111q-82 0 -82 62q0 29 15.5 44t29 17t37.5 2h1055q51 0 66.5 -17t15.5 -67v-149q0 -27 -2 -41t-19.5 -28.5t-50.5 -14.5q-47 0 -58.5 21.5t-11.5 62.5v108h-743v-415h408q0 51 3 70.5t18 32.5t50 13q47 0 58.5 -21.5 t11.5 -62.5v-190q0 -27 -2 -41t-18.5 -28.5t-49.5 -14.5q-49 0 -60 22.5t-11 94.5h-408v-461h803v141q0 27 2 41.5t19.5 28.5t50.5 14q47 0 58 -21.5t11 -62.5v-182q0 -49 -16.5 -66.5t-65.5 -17.5h-1114q-82 0 -82 61zM424 1409q0 35 26.5 63.5t67.5 28.5q39 0 65.5 -27.5 t26.5 -64.5t-26.5 -64.5t-67.5 -27.5q-37 0 -64.5 26.5t-27.5 65.5zM827 1409q0 35 27 63.5t68 28.5q39 0 65.5 -27.5t26.5 -64.5t-26.5 -64.5t-67.5 -27.5q-37 0 -65 26.5t-28 65.5z" />
<glyph unicode="&#xcc;" horiz-adv-x="716" d="M84 61q0 29 15.5 44.5t28.5 17.5t38 2h121v1001h-121q-82 0 -82 62q0 29 15.5 44t28.5 17t38 2h383q25 0 38 -2t28.5 -17t15.5 -44q0 -61 -82 -62h-121v-1001h121q25 0 38 -2t28.5 -17.5t15.5 -44.5q0 -61 -82 -61h-383q-82 0 -82 61zM141 1540q0 31 20.5 51.5t51.5 20.5 l39 -10l272 -123q18 -8 26.5 -13.5t16.5 -17.5t8 -29q0 -23 -16 -52.5t-51 -29.5q-16 0 -37 11l-272 120q-58 27 -58 72z" />
<glyph unicode="&#xcd;" horiz-adv-x="716" d="M84 61q0 29 15.5 44.5t28.5 17.5t38 2h121v1001h-121q-82 0 -82 62q0 29 15.5 44t28.5 17t38 2h383q25 0 38 -2t28.5 -17t15.5 -44q0 -61 -82 -62h-121v-1001h121q25 0 38 -2t28.5 -17.5t15.5 -44.5q0 -61 -82 -61h-383q-82 0 -82 61zM143 1419q0 16 8.5 28.5t16.5 17.5 t27 14l272 123l39 10q31 0 51.5 -20.5t20.5 -51.5q0 -45 -58 -72l-272 -120q-20 -10 -37 -11q-35 0 -51.5 29.5t-16.5 52.5z" />
<glyph unicode="&#xce;" horiz-adv-x="716" d="M63.5 1360q-18.5 55 36.5 76l242 88q20 6 39 0l242 -88q53 -20 34.5 -75.5t-73.5 -39.5l-224 68l-223 -68q-55 -16 -73.5 39zM84 61q0 29 15.5 44.5t28.5 17.5t38 2h121v1001h-121q-82 0 -82 62q0 29 15.5 44t28.5 17t38 2h383q25 0 38 -2t28.5 -17t15.5 -44 q0 -61 -82 -62h-121v-1001h121q25 0 38 -2t28.5 -17.5t15.5 -44.5q0 -61 -82 -61h-383q-82 0 -82 61z" />
<glyph unicode="&#xcf;" horiz-adv-x="716" d="M66 1409q0 35 26.5 63.5t67.5 28.5q39 0 65.5 -27.5t26.5 -64.5t-26.5 -64.5t-67.5 -27.5q-37 0 -64.5 26.5t-27.5 65.5zM84 61q0 29 15.5 44.5t28.5 17.5t38 2h121v1001h-121q-82 0 -82 62q0 29 15.5 44t28.5 17t38 2h383q25 0 38 -2t28.5 -17t15.5 -44q0 -61 -82 -62 h-121v-1001h121q25 0 38 -2t28.5 -17.5t15.5 -44.5q0 -61 -82 -61h-383q-82 0 -82 61zM469 1409q0 35 26.5 63.5t67.5 28.5q39 0 65.5 -27.5t26.5 -64.5t-26.5 -64.5t-67.5 -27.5q-37 0 -64.5 26.5t-27.5 65.5z" />
<glyph unicode="&#xd0;" horiz-adv-x="1613" d="M94 61q0 29 15.5 44.5t29 17.5t37.5 2h111v438h-121q-27 0 -45.5 18.5t-18.5 45t18.5 45t45.5 18.5h121v436h-111q-82 0 -82 62q0 29 15.5 44t29 17t37.5 2h660q270 0 462.5 -187t192.5 -450q0 -252 -191.5 -433t-463.5 -181h-660q-82 0 -82 61zM428 125h371 q231 0 391 144.5t160 346.5q0 205 -159 357.5t-394 152.5h-369v-436h379q27 0 45 -18.5t18 -45t-18 -45t-45 -18.5h-379v-438z" />
<glyph unicode="&#xd1;" horiz-adv-x="1552" d="M109 61q0 29 15 44.5t28.5 17.5t37.5 2h111v1001h-111q-82 0 -81 62q0 29 15 44t28.5 17t37.5 2h195q29 0 45 -2t41 -18.5t43 -48.5l619 -1078h2v1022h-111q-82 0 -82 62q0 29 15.5 44t28.5 17t38 2h336q25 0 38 -2t28.5 -17t15.5 -44q0 -61 -82 -62h-111v-1042 q0 -53 -16 -68.5t-68 -15.5q-29 0 -45 2t-40.5 18.5t-43.5 49.5l-618 1077h-2v-1022h110q25 0 38.5 -2t28.5 -17.5t15 -44.5q0 -61 -82 -61h-336q-81 0 -81 61zM420 1382q0 37 100 113q92 68 160 68t137 -70q47 -43 64 -43q47 0 143 90q27 23 49 23q25 0 44.5 -20.5 t19.5 -45.5q0 -37 -101 -113q-92 -68 -159.5 -67.5t-137.5 69.5q-47 43 -63 44q-47 0 -144 -91q-27 -23 -49 -22q-25 0 -44 20t-19 45z" />
<glyph unicode="&#xd2;" horiz-adv-x="1673" d="M119 627q0 262 208 454.5t509 192.5q299 0 507.5 -190.5t208.5 -458.5q0 -262 -207.5 -455t-508.5 -193q-299 0 -508 191t-209 459zM260 649q0 -223 168 -385t407.5 -162t407.5 162t168 385q0 205 -168 352.5t-407.5 147.5t-407.5 -147.5t-168 -352.5zM618 1540 q0 31 20.5 51.5t51.5 20.5l39 -10l272 -123q18 -8 26.5 -13.5t17 -17.5t8.5 -29q0 -23 -16.5 -52.5t-51.5 -29.5q-16 0 -37 11l-272 120q-58 27 -58 72z" />
<glyph unicode="&#xd3;" horiz-adv-x="1673" d="M119 627q0 262 208 454.5t509 192.5q299 0 507.5 -190.5t208.5 -458.5q0 -262 -207.5 -455t-508.5 -193q-299 0 -508 191t-209 459zM260 649q0 -223 168 -385t407.5 -162t407.5 162t168 385q0 205 -168 352.5t-407.5 147.5t-407.5 -147.5t-168 -352.5zM621 1419 q0 16 8 28.5t16 17.5t27 14l272 123l39 10q31 0 51.5 -20.5t20.5 -51.5q0 -45 -58 -72l-272 -120q-20 -10 -37 -11q-35 0 -51 29.5t-16 52.5z" />
<glyph unicode="&#xd4;" horiz-adv-x="1673" d="M119 627q0 262 208 454.5t509 192.5q299 0 507.5 -190.5t208.5 -458.5q0 -262 -207.5 -455t-508.5 -193q-299 0 -508 191t-209 459zM260 649q0 -223 168 -385t407.5 -162t407.5 162t168 385q0 205 -168 352.5t-407.5 147.5t-407.5 -147.5t-168 -352.5zM540.5 1360 q-18.5 55 37.5 76l241 88q18 6 39 0l242 -88q53 -20 34.5 -75.5t-73.5 -39.5l-223 68l-224 -68q-55 -16 -73.5 39z" />
<glyph unicode="&#xd5;" horiz-adv-x="1673" d="M119 627q0 262 208 454.5t509 192.5q299 0 507.5 -190.5t208.5 -458.5q0 -262 -207.5 -455t-508.5 -193q-299 0 -508 191t-209 459zM260 649q0 -223 168 -385t407.5 -162t407.5 162t168 385q0 205 -168 352.5t-407.5 147.5t-407.5 -147.5t-168 -352.5zM479 1382 q0 37 101 113q92 68 159.5 68t137.5 -70q47 -43 63 -43q47 0 143 90q27 23 50 23q25 0 44 -20.5t19 -45.5q0 -37 -100 -113q-92 -68 -160 -67.5t-137 69.5q-47 43 -64 44q-47 0 -143 -91q-27 -23 -49 -22q-25 0 -44.5 20t-19.5 45z" />
<glyph unicode="&#xd6;" horiz-adv-x="1673" d="M119 627q0 262 208 454.5t509 192.5q299 0 507.5 -190.5t208.5 -458.5q0 -262 -207.5 -455t-508.5 -193q-299 0 -508 191t-209 459zM260 649q0 -223 168 -385t407.5 -162t407.5 162t168 385q0 205 -168 352.5t-407.5 147.5t-407.5 -147.5t-168 -352.5zM543 1409 q0 35 26.5 63.5t67.5 28.5q39 0 65.5 -27.5t26.5 -64.5t-26.5 -64.5t-67.5 -27.5q-37 0 -64.5 26.5t-27.5 65.5zM946 1409q0 35 26.5 63.5t67.5 28.5q39 0 66 -27.5t27 -64.5t-27 -64.5t-68 -27.5q-37 0 -64.5 26.5t-27.5 65.5z" />
<glyph unicode="&#xd7;" horiz-adv-x="1673" d="M330 121q-51 49 16 117l389 389l-389 389q-68 68 -16 117q49 51 116 -17l390 -389l389 389q68 68 116 17q51 -49 -16 -117l-389 -389l389 -389q68 -68 16 -117q-49 -51 -116 16l-389 389l-390 -389q-67 -67 -116 -16z" />
<glyph unicode="&#xd8;" horiz-adv-x="1673" d="M119 627q0 262 208 454.5t509 192.5q84 0 170 -18.5t118.5 -36t49.5 -21.5l133 188q27 39 59 39q25 0 45.5 -17t20.5 -46l-5 -16q-4 -16 -18 -35l-129 -176q143 -104 207.5 -239.5t64.5 -270.5q0 -262 -207.5 -455t-508.5 -193q-190 0 -336 76l-140 -192q-25 -35 -55 -35 q-25 0 -45 17.5t-20 45.5q0 20 30 62l121 166q-143 104 -207.5 239.5t-64.5 270.5zM233 625q0 -127 64.5 -234.5t163.5 -175.5l637 883q-137 51 -262 51q-252 0 -427.5 -154.5t-175.5 -369.5zM573 154q137 -51 263 -52q252 0 427 155t175 370q0 129 -66.5 237.5 t-163.5 171.5z" />
<glyph unicode="&#xd9;" horiz-adv-x="1552" d="M94 1188q0 29 15.5 44t29 17t37.5 2h363q25 0 38 -2t28.5 -17t15.5 -44q0 -61 -82 -62h-111v-692q0 -160 107.5 -246t240.5 -86q129 0 237.5 86t108.5 246v692h-110q-82 0 -82 62q0 29 15.5 44t28.5 17t38 2h362q25 0 38 -2t28.5 -17t15.5 -44q0 -61 -82 -62h-110v-704 q0 -188 -143.5 -316.5t-346.5 -128.5q-199 0 -343 127t-144 318v704h-111q-82 1 -82 62zM606 1540q0 31 20.5 51.5t51.5 20.5l39 -10l272 -123q18 -8 26.5 -13.5t16.5 -17.5t8 -29q0 -23 -16 -52.5t-51 -29.5q-16 0 -37 11l-272 120q-58 27 -58 72z" />
<glyph unicode="&#xda;" horiz-adv-x="1552" d="M94 1188q0 29 15.5 44t29 17t37.5 2h363q25 0 38 -2t28.5 -17t15.5 -44q0 -61 -82 -62h-111v-692q0 -160 107.5 -246t240.5 -86q129 0 237.5 86t108.5 246v692h-110q-82 0 -82 62q0 29 15.5 44t28.5 17t38 2h362q25 0 38 -2t28.5 -17t15.5 -44q0 -61 -82 -62h-110v-704 q0 -188 -143.5 -316.5t-346.5 -128.5q-199 0 -343 127t-144 318v704h-111q-82 1 -82 62zM608 1419q0 16 8.5 28.5t16.5 17.5t26 14l273 123l39 10q31 0 51 -20.5t20 -51.5q0 -45 -57 -72l-272 -120q-20 -10 -37 -11q-35 0 -51.5 29.5t-16.5 52.5z" />
<glyph unicode="&#xdb;" horiz-adv-x="1552" d="M94 1188q0 29 15.5 44t29 17t37.5 2h363q25 0 38 -2t28.5 -17t15.5 -44q0 -61 -82 -62h-111v-692q0 -160 107.5 -246t240.5 -86q129 0 237.5 86t108.5 246v692h-110q-82 0 -82 62q0 29 15.5 44t28.5 17t38 2h362q25 0 38 -2t28.5 -17t15.5 -44q0 -61 -82 -62h-110v-704 q0 -188 -143.5 -316.5t-346.5 -128.5q-199 0 -343 127t-144 318v704h-111q-82 1 -82 62zM528.5 1360q-18.5 55 36.5 76l242 88q18 6 39 0l241 -88q53 -20 35 -75.5t-73 -39.5l-224 68l-223 -68q-55 -16 -73.5 39z" />
<glyph unicode="&#xdc;" horiz-adv-x="1552" d="M94 1188q0 29 15.5 44t29 17t37.5 2h363q25 0 38 -2t28.5 -17t15.5 -44q0 -61 -82 -62h-111v-692q0 -160 107.5 -246t240.5 -86q129 0 237.5 86t108.5 246v692h-110q-82 0 -82 62q0 29 15.5 44t28.5 17t38 2h362q25 0 38 -2t28.5 -17t15.5 -44q0 -61 -82 -62h-110v-704 q0 -188 -143.5 -316.5t-346.5 -128.5q-199 0 -343 127t-144 318v704h-111q-82 1 -82 62zM530 1409q0 35 27 63.5t68 28.5q39 0 65.5 -27.5t26.5 -64.5t-26.5 -64.5t-67.5 -27.5q-37 0 -65 26.5t-28 65.5zM934 1409q0 35 26.5 63.5t67.5 28.5q39 0 65.5 -27.5t26.5 -64.5 t-26.5 -64.5t-67.5 -27.5q-37 0 -64.5 26.5t-27.5 65.5z" />
<glyph unicode="&#xdd;" horiz-adv-x="1552" d="M61 1190q0 61 84 61h320q84 0 84 -63q0 -61 -84 -62h-47l356 -483l359 483h-48q-84 0 -84 64q0 61 84 61h320q84 0 84 -63q0 -61 -84 -62h-98l-461 -626v-375h110q25 0 38.5 -2t28.5 -17.5t15 -44.5q0 -61 -82 -61h-362q-82 0 -82 61q0 29 15.5 44.5t28.5 17.5t38 2h111 v375l-461 626h-99q-84 1 -84 64zM561 1419q0 16 8.5 28.5t16.5 17.5t26 14l273 123l39 10q31 0 51 -20.5t20 -51.5q0 -45 -57 -72l-272 -120q-20 -10 -37 -11q-35 0 -51.5 29.5t-16.5 52.5z" />
<glyph unicode="&#xde;" horiz-adv-x="1433" d="M94 61q0 29 15.5 44.5t29 17.5t37.5 2h111v1001h-111q-82 0 -82 62q0 29 15.5 44t29 17t37.5 2h363q25 0 38 -2t28.5 -17t15.5 -44q0 -61 -82 -62h-111v-125h379q215 0 360.5 -111.5t145.5 -263t-145.5 -263t-360.5 -111.5h-379v-127h111q25 0 38 -2t28.5 -17.5 t15.5 -44.5q0 -61 -82 -61h-363q-82 0 -82 61zM428 377h344q166 0 282.5 74.5t116.5 175.5q0 102 -115.5 176t-283.5 74h-344v-500z" />
<glyph unicode="&#xdf;" d="M35 61q0 29 15.5 44.5t28.5 17.5t38 2h110v633h-110q-82 0 -82 61q0 29 15.5 44.5t28.5 17.5t38 2h110v143q0 68 38 117t97.5 73.5t117 36t112.5 11.5q152 0 257 -62.5t105 -161.5q0 -139 -170 -231q131 -92 180.5 -217t49.5 -234q0 -162 -114 -266t-261 -104 q-98 0 -153.5 46t-55.5 107q0 39 24.5 62.5t59.5 23.5q41 0 66 -32q14 -20 14 -74q16 -8 45 -8q88 0 160.5 67.5t72.5 177.5q0 51 -14 109.5t-48 125t-105.5 113t-167.5 52.5l-13 4q-12 4 -24.5 19.5t-12.5 37.5q0 59 58 64q137 4 202.5 56t65.5 99q0 39 -65.5 70t-157.5 31 q-86 0 -152 -29q-47 -20 -58 -40.5t-11 -57.5v-928q0 -49 -16.5 -66.5t-65.5 -17.5h-170q-82 0 -82 61z" />
<glyph unicode="&#xe0;" horiz-adv-x="1044" d="M109 262q0 139 158.5 220t437.5 85q0 104 -68 156.5t-184 52.5q-51 0 -76 -2t-30 -6t-5 -16q-2 -49 -29.5 -72t-60.5 -23q-39 0 -65.5 25t-26.5 70q0 150 291 149q197 0 296 -95t99 -222v-443q37 -16 115 -16q82 0 81 -62q0 -31 -15 -45t-32.5 -16t-52.5 -2 q-170 0 -215 66q-113 -78 -291 -78q-143 0 -235 80.5t-92 193.5zM250 262q0 -61 56 -105t147 -44q100 0 172 32q37 16 55 41t21.5 41.5t3.5 46.5v172q-227 -8 -341 -59t-114 -125zM305 1180q0 31 20.5 51t51.5 20l39 -10l272 -123q18 -8 26.5 -13t16.5 -17.5t8 -28.5 q0 -23 -16 -52.5t-51 -29.5q-16 0 -37 10l-273 121q-57 27 -57 72z" />
<glyph unicode="&#xe1;" horiz-adv-x="1044" d="M109 262q0 139 158.5 220t437.5 85q0 104 -68 156.5t-184 52.5q-51 0 -76 -2t-30 -6t-5 -16q-2 -49 -29.5 -72t-60.5 -23q-39 0 -65.5 25t-26.5 70q0 150 291 149q197 0 296 -95t99 -222v-443q37 -16 115 -16q82 0 81 -62q0 -31 -15 -45t-32.5 -16t-52.5 -2 q-170 0 -215 66q-113 -78 -291 -78q-143 0 -235 80.5t-92 193.5zM250 262q0 -61 56 -105t147 -44q100 0 172 32q37 16 55 41t21.5 41.5t3.5 46.5v172q-227 -8 -341 -59t-114 -125zM307 1059q0 16 8.5 28.5t16.5 17.5t26 13l273 123l39 10q31 0 51 -20.5t20 -50.5 q0 -45 -57 -72l-272 -121q-20 -10 -37 -10q-35 0 -51.5 29.5t-16.5 52.5z" />
<glyph unicode="&#xe2;" horiz-adv-x="1044" d="M109 262q0 139 158.5 220t437.5 85q0 104 -68 156.5t-184 52.5q-51 0 -76 -2t-30 -6t-5 -16q-2 -49 -29.5 -72t-60.5 -23q-39 0 -65.5 25t-26.5 70q0 150 291 149q197 0 296 -95t99 -222v-443q37 -16 115 -16q82 0 81 -62q0 -31 -15 -45t-32.5 -16t-52.5 -2 q-170 0 -215 66q-113 -78 -291 -78q-143 0 -235 80.5t-92 193.5zM230.5 1006.5q-31.5 50.5 19.5 83.5l242 153q31 20 61 0l246 -153q51 -33 19 -83.5t-83 -19.5l-211 127l-211 -127q-51 -31 -82.5 19.5zM250 262q0 -61 56 -105t147 -44q100 0 172 32q37 16 55 41t21.5 41.5 t3.5 46.5v172q-227 -8 -341 -59t-114 -125z" />
<glyph unicode="&#xe3;" horiz-adv-x="1044" d="M109 262q0 139 158.5 220t437.5 85q0 104 -68 156.5t-184 52.5q-51 0 -76 -2t-30 -6t-5 -16q-2 -49 -29.5 -72t-60.5 -23q-39 0 -65.5 25t-26.5 70q0 150 291 149q197 0 296 -95t99 -222v-443q37 -16 115 -16q82 0 81 -62q0 -31 -15 -45t-32.5 -16t-52.5 -2 q-170 0 -215 66q-113 -78 -291 -78q-143 0 -235 80.5t-92 193.5zM166 1057q0 37 100 112q92 68 160 68t137 -70q47 -43 64 -43q47 0 143 90q27 23 49 23q25 0 44.5 -20.5t19.5 -45.5q0 -37 -101 -112q-92 -68 -159.5 -68t-137.5 70q-47 43 -63 43q-47 0 -143 -90 q-27 -23 -50 -23q-25 0 -44 20.5t-19 45.5zM250 262q0 -61 56 -105t147 -44q100 0 172 32q37 16 55 41t21.5 41.5t3.5 46.5v172q-227 -8 -341 -59t-114 -125z" />
<glyph unicode="&#xe4;" horiz-adv-x="1044" d="M109 262q0 139 158.5 220t437.5 85q0 104 -68 156.5t-184 52.5q-51 0 -76 -2t-30 -6t-5 -16q-2 -49 -29.5 -72t-60.5 -23q-39 0 -65.5 25t-26.5 70q0 150 291 149q197 0 296 -95t99 -222v-443q37 -16 115 -16q82 0 81 -62q0 -31 -15 -45t-32.5 -16t-52.5 -2 q-170 0 -215 66q-113 -78 -291 -78q-143 0 -235 80.5t-92 193.5zM250 262q0 -61 56 -105t147 -44q100 0 172 32q37 16 55 41t21.5 41.5t3.5 46.5v172q-227 -8 -341 -59t-114 -125zM260 1114q0 35 26.5 63.5t67.5 28.5q39 0 65.5 -27.5t26.5 -64.5t-26.5 -64.5t-67.5 -27.5 q-37 0 -64.5 26.5t-27.5 65.5zM602 1114q0 35 26.5 63.5t67.5 28.5q39 0 65.5 -27.5t26.5 -64.5t-26.5 -64.5t-67.5 -27.5q-37 0 -64.5 26.5t-27.5 65.5z" />
<glyph unicode="&#xe5;" horiz-adv-x="1044" d="M109 262q0 139 158.5 220t437.5 85q0 104 -68 156.5t-184 52.5q-51 0 -76 -2t-30 -6t-5 -16q-2 -49 -29.5 -72t-60.5 -23q-39 0 -65.5 25t-26.5 70q0 150 291 149q197 0 296 -95t99 -222v-443q37 -16 115 -16q82 0 81 -62q0 -31 -15 -45t-32.5 -16t-52.5 -2 q-170 0 -215 66q-113 -78 -291 -78q-143 0 -235 80.5t-92 193.5zM250 262q0 -61 56 -105t147 -44q100 0 172 32q37 16 55 41t21.5 41.5t3.5 46.5v172q-227 -8 -341 -59t-114 -125zM283 1142.5q0 55.5 68.5 95.5t172.5 40q98 0 168 -40t70 -95.5t-68.5 -95t-173.5 -39.5 q-98 0 -167.5 39.5t-69.5 95zM418 1143q0 -25 30.5 -42.5t73.5 -17.5q39 0 72 16.5t33 43.5q0 25 -31 42t-74 17q-39 0 -71.5 -16t-32.5 -43z" />
<glyph unicode="&#xe6;" horiz-adv-x="1552" d="M109 242q0 250 596 268v61q0 98 -66 151.5t-186 53.5q-47 0 -78 -2q-23 -2 -28 -6t-5 -16q-2 -49 -29.5 -72t-60.5 -23q-39 0 -65.5 25t-26.5 70q0 150 291 149q250 0 352 -164q135 164 325 164q170 0 266.5 -121t96.5 -311q0 -37 -12.5 -54.5t-26.5 -20.5t-43 -3h-559 q18 -123 112.5 -200.5t208.5 -77.5q131 0 181 123q16 45 67 45q72 0 72 -58q0 -61 -88 -148t-244 -87q-209 0 -348 162q-45 -92 -155.5 -127t-219.5 -35q-145 0 -236 76t-91 178zM250 244q0 -55 57.5 -93t147.5 -38q98 0 172 30q88 35 88 117q0 4 -8 127q-184 -8 -275 -29 q-182 -48 -182 -114zM852 514h496q-8 113 -62.5 187.5t-157.5 74.5q-94 0 -173.5 -72.5t-102.5 -189.5z" />
<glyph unicode="&#xe7;" horiz-adv-x="956" d="M90 442q0 74 25.5 149t79 147.5t149.5 117.5t221 45q305 0 305 -149q0 -43 -26.5 -69t-65.5 -26q-88 0 -90 101q0 18 -123 18q-96 0 -166.5 -37t-104.5 -94t-48.5 -107.5t-14.5 -95.5q0 -139 95.5 -234t226.5 -95q145 0 203 123q10 29 24.5 37t42.5 8q72 0 72 -58 q0 -14 -11.5 -40.5t-36 -63.5t-75.5 -70t-117 -49v-20q80 -20 129.5 -71.5t49.5 -127.5q0 -49 -18.5 -87t-58.5 -59.5t-76 -35t-96.5 -18.5t-94 -6t-93.5 -1q-23 0 -43 15.5t-20 48.5q0 31 17.5 45t37 16t60.5 2q141 0 192 20.5t51 61.5q0 33 -32.5 55.5t-84.5 26.5 q-29 2 -43 16.5t-16 26.5t-2 37v43q-180 10 -302 142t-122 312z" />
<glyph unicode="&#xe8;" horiz-adv-x="956" d="M78 446q0 186 125 320.5t305 134.5q182 0 284.5 -122t102.5 -312q0 -27 -6 -43t-19.5 -23.5t-24.5 -8.5t-32 -1h-590q20 -123 114.5 -200.5t213.5 -77.5q154 0 205 123q10 29 24.5 37t42.5 8q72 0 72 -58q0 -63 -93 -149t-263 -86q-193 0 -327 134t-134 324zM225 514h525 q-10 143 -80 202.5t-162 59.5q-102 0 -182.5 -73.5t-100.5 -188.5zM260 1180q0 31 20.5 51t51.5 20l39 -10l272 -123q18 -8 26.5 -13t16.5 -17.5t8 -28.5q0 -23 -16 -52.5t-51 -29.5q-16 0 -37 10l-273 121q-57 27 -57 72z" />
<glyph unicode="&#xe9;" horiz-adv-x="956" d="M78 446q0 186 125 320.5t305 134.5q182 0 284.5 -122t102.5 -312q0 -27 -6 -43t-19.5 -23.5t-24.5 -8.5t-32 -1h-590q20 -123 114.5 -200.5t213.5 -77.5q154 0 205 123q10 29 24.5 37t42.5 8q72 0 72 -58q0 -63 -93 -149t-263 -86q-193 0 -327 134t-134 324zM225 514h525 q-10 143 -80 202.5t-162 59.5q-102 0 -182.5 -73.5t-100.5 -188.5zM262 1059q0 16 8.5 28.5t16.5 17.5t26 13l273 123l39 10q31 0 51 -20.5t20 -50.5q0 -45 -57 -72l-272 -121q-20 -10 -37 -10q-35 0 -51.5 29.5t-16.5 52.5z" />
<glyph unicode="&#xea;" horiz-adv-x="956" d="M78 446q0 186 125 320.5t305 134.5q182 0 284.5 -122t102.5 -312q0 -27 -6 -43t-19.5 -23.5t-24.5 -8.5t-32 -1h-590q20 -123 114.5 -200.5t213.5 -77.5q154 0 205 123q10 29 24.5 37t42.5 8q72 0 72 -58q0 -63 -93 -149t-263 -86q-193 0 -327 134t-134 324z M185.5 1006.5q-31.5 50.5 19.5 83.5l241 153q31 20 62 0l246 -153q51 -33 19 -83.5t-83 -19.5l-211 127l-211 -127q-51 -31 -82.5 19.5zM225 514h525q-10 143 -80 202.5t-162 59.5q-102 0 -182.5 -73.5t-100.5 -188.5z" />
<glyph unicode="&#xeb;" horiz-adv-x="956" d="M78 446q0 186 125 320.5t305 134.5q182 0 284.5 -122t102.5 -312q0 -27 -6 -43t-19.5 -23.5t-24.5 -8.5t-32 -1h-590q20 -123 114.5 -200.5t213.5 -77.5q154 0 205 123q10 29 24.5 37t42.5 8q72 0 72 -58q0 -63 -93 -149t-263 -86q-193 0 -327 134t-134 324zM215 1114 q0 35 26.5 63.5t67.5 28.5q39 0 65.5 -27.5t26.5 -64.5t-26.5 -64.5t-67.5 -27.5q-37 0 -64.5 26.5t-27.5 65.5zM225 514h525q-10 143 -80 202.5t-162 59.5q-102 0 -182.5 -73.5t-100.5 -188.5zM557 1114q0 35 26.5 63.5t67.5 28.5q39 0 65.5 -27.5t26.5 -64.5t-26.5 -64.5 t-67.5 -27.5q-37 0 -64.5 26.5t-27.5 65.5z" />
<glyph unicode="&#xec;" horiz-adv-x="598" d="M35 61q0 29 15.5 44.5t28.5 17.5t38 2h110v633h-100q-84 0 -84 63q0 61 84 62h160q51 0 66.5 -17.5t15.5 -66.5v-674h90q84 0 84 -64q0 -61 -82 -61h-344q-82 0 -82 61zM80 1180q0 31 20.5 51t51.5 20l38 -10l273 -123q18 -8 26.5 -13t16.5 -17.5t8 -28.5 q0 -23 -16.5 -52.5t-51.5 -29.5q-16 0 -36 10l-273 121q-57 27 -57 72z" />
<glyph unicode="&#xed;" horiz-adv-x="598" d="M35 61q0 29 15.5 44.5t28.5 17.5t38 2h110v633h-100q-84 0 -84 63q0 61 84 62h160q51 0 66.5 -17.5t15.5 -66.5v-674h90q84 0 84 -64q0 -61 -82 -61h-344q-82 0 -82 61zM82 1059q0 16 8 28.5t16.5 17.5t26.5 13l273 123l38 10q31 0 51.5 -20.5t20.5 -50.5q0 -45 -57 -72 l-273 -121q-20 -10 -36 -10q-35 0 -51.5 29.5t-16.5 52.5z" />
<glyph unicode="&#xee;" horiz-adv-x="598" d="M5 1006.5q-32 50.5 20 83.5l241 153q31 20 62 0l245 -153q51 -33 19.5 -83.5t-82.5 -19.5l-211 127l-211 -127q-51 -31 -83 19.5zM35 61q0 29 15.5 44.5t28.5 17.5t38 2h110v633h-100q-84 0 -84 63q0 61 84 62h160q51 0 66.5 -17.5t15.5 -66.5v-674h90q84 0 84 -64 q0 -61 -82 -61h-344q-82 0 -82 61z" />
<glyph unicode="&#xef;" horiz-adv-x="598" d="M35 61q0 29 15.5 44.5t28.5 17.5t38 2h110v633h-100q-84 0 -84 63q0 61 84 62h160q51 0 66.5 -17.5t15.5 -66.5v-674h90q84 0 84 -64q0 -61 -82 -61h-344q-82 0 -82 61zM35 1114q0 35 26.5 63.5t67.5 28.5q39 0 65.5 -27.5t26.5 -64.5t-26.5 -64.5t-67.5 -27.5 q-37 0 -64.5 26.5t-27.5 65.5zM377 1114q0 35 26.5 63.5t67.5 28.5q39 0 65.5 -27.5t26.5 -64.5t-26.5 -64.5t-67.5 -27.5q-37 0 -64.5 26.5t-27.5 65.5z" />
<glyph unicode="&#xf0;" d="M78 442q0 188 134 323.5t325 135.5q174 0 307 -117q-16 217 -84 332l-109 -92q-20 -14 -41 -14q-27 0 -45 18.5t-18 44.5q0 31 22 49l103 86q-57 35 -133 35q-31 0 -51.5 21.5t-20.5 50t20.5 50t51.5 21.5q139 0 237 -88l117 99q18 14 41 14q27 0 45 -18.5t18 -44.5 q0 -31 -22 -50l-119 -98q139 -231 139 -758q0 -190 -135 -321q-133 -133 -323.5 -133t-324.5 132t-134 322zM219 457q0 -141 92 -242.5t226 -101.5q131 0 224 101t93 243q0 135 -94 227t-223 92t-223.5 -92t-94.5 -227z" />
<glyph unicode="&#xf1;" horiz-adv-x="1193" d="M35 61q0 29 15.5 44.5t28.5 17.5t38 2h110v633h-110q-82 0 -82 61q0 29 15.5 44.5t28.5 17.5t38 2h170q41 0 58 -12.5t20.5 -30t3.5 -62.5q127 117 301 117q295 0 295 -299v-471h110q25 0 38 -2t28.5 -17.5t15.5 -44.5q0 -61 -82 -61h-362q-25 0 -38 2t-28.5 17.5 t-15.5 43.5q0 61 82 62h110v459q0 96 -32.5 141t-133.5 45q-63 0 -125.5 -24.5t-112.5 -92t-50 -168.5v-360h110q25 0 38 -2t28.5 -17.5t15.5 -44.5q0 -61 -82 -61h-362q-82 0 -82 61zM240 1057q0 37 100 112q92 68 159.5 68t137.5 -70q47 -43 63 -43q47 0 144 90 q27 23 49 23q25 0 44 -20.5t19 -45.5q0 -37 -100 -112q-92 -68 -159.5 -68t-137.5 70q-47 43 -63 43q-47 0 -144 -90q-27 -23 -49 -23q-25 0 -44 20.5t-19 45.5z" />
<glyph unicode="&#xf2;" d="M78 442q0 188 134 323.5t324.5 135.5t324.5 -135t134 -324q0 -190 -134 -322t-324.5 -132t-324.5 132t-134 322zM219 457q0 -141 92 -242.5t226 -101.5q131 0 224 101t93 243q0 135 -94 227t-223 92t-223.5 -92t-94.5 -227zM319 1180q0 31 20.5 51t51.5 20l39 -10 l272 -123q18 -8 26.5 -13t17 -17.5t8.5 -28.5q0 -23 -16.5 -52.5t-51.5 -29.5q-16 0 -37 10l-272 121q-58 27 -58 72z" />
<glyph unicode="&#xf3;" d="M78 442q0 188 134 323.5t324.5 135.5t324.5 -135t134 -324q0 -190 -134 -322t-324.5 -132t-324.5 132t-134 322zM219 457q0 -141 92 -242.5t226 -101.5q131 0 224 101t93 243q0 135 -94 227t-223 92t-223.5 -92t-94.5 -227zM322 1059q0 16 8 28.5t16 17.5t27 13l272 123 l39 10q31 0 51.5 -20.5t20.5 -50.5q0 -45 -58 -72l-272 -121q-20 -10 -37 -10q-35 0 -51 29.5t-16 52.5z" />
<glyph unicode="&#xf4;" d="M78 442q0 188 134 323.5t324.5 135.5t324.5 -135t134 -324q0 -190 -134 -322t-324.5 -132t-324.5 132t-134 322zM219 457q0 -141 92 -242.5t226 -101.5q131 0 224 101t93 243q0 135 -94 227t-223 92t-223.5 -92t-94.5 -227zM244.5 1006.5q-31.5 50.5 19.5 83.5l242 153 q31 20 61 0l246 -153q51 -33 19.5 -83.5t-82.5 -19.5l-211 127l-211 -127q-52 -31 -83.5 19.5z" />
<glyph unicode="&#xf5;" d="M78 442q0 188 134 323.5t324.5 135.5t324.5 -135t134 -324q0 -190 -134 -322t-324.5 -132t-324.5 132t-134 322zM180 1057q0 37 101 112q92 68 159.5 68t137.5 -70q47 -43 63 -43q47 0 143 90q27 23 50 23q25 0 44 -20.5t19 -45.5q0 -37 -100 -112q-92 -68 -160 -68 t-137 70q-47 43 -64 43q-47 0 -143 -90q-27 -23 -49 -23q-25 0 -44.5 20.5t-19.5 45.5zM219 457q0 -141 92 -242.5t226 -101.5q131 0 224 101t93 243q0 135 -94 227t-223 92t-223.5 -92t-94.5 -227z" />
<glyph unicode="&#xf6;" d="M78 442q0 188 134 323.5t324.5 135.5t324.5 -135t134 -324q0 -190 -134 -322t-324.5 -132t-324.5 132t-134 322zM219 457q0 -141 92 -242.5t226 -101.5q131 0 224 101t93 243q0 135 -94 227t-223 92t-223.5 -92t-94.5 -227zM274 1114q0 35 27 63.5t68 28.5 q39 0 65.5 -27.5t26.5 -64.5t-26.5 -64.5t-67.5 -27.5q-37 0 -65 26.5t-28 65.5zM616 1114q0 35 27 63.5t68 28.5q39 0 65.5 -27.5t26.5 -64.5t-26.5 -64.5t-67.5 -27.5q-37 0 -65 26.5t-28 65.5z" />
<glyph unicode="&#xf7;" horiz-adv-x="1673" d="M119 626.5q0 71.5 104 71.5h1225q104 0 104 -71.5t-92 -71.5h-1249q-92 0 -92 71.5zM733 270q0 43 30 73t73 30t72.5 -30t29.5 -73t-29.5 -72.5t-72.5 -29.5t-73 29.5t-30 72.5zM733 983q0 43 30 72.5t73 29.5t72.5 -29.5t29.5 -72.5t-29.5 -72.5t-72.5 -29.5t-73 29.5 t-30 72.5z" />
<glyph unicode="&#xf8;" d="M88 -225q0 18 35 78l135 233q-166 143 -166 356q0 188 130 323.5t315 135.5q84 0 174 -37l153 266q23 39 56 39q23 0 44 -16t21 -45q0 -18 -14 -43l-154 -266q164 -150 164 -357q0 -188 -131 -321t-313 -133q-90 0 -170 35l-158 -271q-20 -39 -55 -39q-23 0 -44.5 16.5 t-21.5 45.5zM207 442q0 -145 112 -249l328 565q-53 18 -110 18q-135 0 -232.5 -98.5t-97.5 -235.5zM430 129q51 -16 107 -16q135 0 232 96t97 233q0 152 -112 250z" />
<glyph unicode="&#xf9;" horiz-adv-x="1193" d="M35 819q0 29 15.5 44.5t28.5 17.5t38 2h170q51 0 66.5 -17.5t15.5 -66.5v-551q0 -33 3 -49.5t19.5 -40t57 -34.5t106.5 -11q37 0 74 6t85 24.5t78.5 64.5t30.5 114v436h-110q-25 0 -38 2t-28.5 17.5t-15.5 43.5q0 61 82 62h170q51 0 66.5 -17.5t15.5 -66.5v-674h110 q25 0 38 -2t28.5 -17.5t15.5 -44.5q0 -61 -82 -61h-170q-27 0 -40 2t-27.5 19.5t-14.5 50.5q-109 -84 -280 -84q-315 0 -316 248v522h-110q-82 0 -82 61zM379 1180q0 31 20.5 51t51.5 20l38 -10l273 -123q18 -8 26.5 -13t16.5 -17.5t8 -28.5q0 -23 -16.5 -52.5t-51.5 -29.5 q-16 0 -36 10l-273 121q-57 27 -57 72z" />
<glyph unicode="&#xfa;" horiz-adv-x="1193" d="M35 819q0 29 15.5 44.5t28.5 17.5t38 2h170q51 0 66.5 -17.5t15.5 -66.5v-551q0 -33 3 -49.5t19.5 -40t57 -34.5t106.5 -11q37 0 74 6t85 24.5t78.5 64.5t30.5 114v436h-110q-25 0 -38 2t-28.5 17.5t-15.5 43.5q0 61 82 62h170q51 0 66.5 -17.5t15.5 -66.5v-674h110 q25 0 38 -2t28.5 -17.5t15.5 -44.5q0 -61 -82 -61h-170q-27 0 -40 2t-27.5 19.5t-14.5 50.5q-109 -84 -280 -84q-315 0 -316 248v522h-110q-82 0 -82 61zM381 1059q0 16 8 28.5t16.5 17.5t26.5 13l273 123l38 10q31 0 51.5 -20.5t20.5 -50.5q0 -45 -57 -72l-273 -121 q-20 -10 -36 -10q-35 0 -51.5 29.5t-16.5 52.5z" />
<glyph unicode="&#xfb;" horiz-adv-x="1193" d="M35 819q0 29 15.5 44.5t28.5 17.5t38 2h170q51 0 66.5 -17.5t15.5 -66.5v-551q0 -33 3 -49.5t19.5 -40t57 -34.5t106.5 -11q37 0 74 6t85 24.5t78.5 64.5t30.5 114v436h-110q-25 0 -38 2t-28.5 17.5t-15.5 43.5q0 61 82 62h170q51 0 66.5 -17.5t15.5 -66.5v-674h110 q25 0 38 -2t28.5 -17.5t15.5 -44.5q0 -61 -82 -61h-170q-27 0 -40 2t-27.5 19.5t-14.5 50.5q-109 -84 -280 -84q-315 0 -316 248v522h-110q-82 0 -82 61zM304 1006.5q-32 50.5 20 83.5l241 153q31 20 62 0l245 -153q51 -33 19.5 -83.5t-82.5 -19.5l-211 127l-211 -127 q-51 -31 -83 19.5z" />
<glyph unicode="&#xfc;" horiz-adv-x="1193" d="M35 819q0 29 15.5 44.5t28.5 17.5t38 2h170q51 0 66.5 -17.5t15.5 -66.5v-551q0 -33 3 -49.5t19.5 -40t57 -34.5t106.5 -11q37 0 74 6t85 24.5t78.5 64.5t30.5 114v436h-110q-25 0 -38 2t-28.5 17.5t-15.5 43.5q0 61 82 62h170q51 0 66.5 -17.5t15.5 -66.5v-674h110 q25 0 38 -2t28.5 -17.5t15.5 -44.5q0 -61 -82 -61h-170q-27 0 -40 2t-27.5 19.5t-14.5 50.5q-109 -84 -280 -84q-315 0 -316 248v522h-110q-82 0 -82 61zM334 1114q0 35 26.5 63.5t67.5 28.5q39 0 65.5 -27.5t26.5 -64.5t-26.5 -64.5t-67.5 -27.5q-37 0 -64.5 26.5 t-27.5 65.5zM676 1114q0 35 26.5 63.5t67.5 28.5q39 0 65.5 -27.5t26.5 -64.5t-26.5 -64.5t-67.5 -27.5q-37 0 -64.5 26.5t-27.5 65.5z" />
<glyph unicode="&#xfd;" horiz-adv-x="1134" d="M41 -299q0 41 24.5 65.5t65.5 24.5q37 0 62.5 -24.5t25.5 -65.5q0 -10 -2 -20.5t-2 -12.5q0 -10 31 -10q178 0 243 215q41 117 46 127l-310 758h-84q-84 0 -84 63q0 61 84 62h287q25 0 38 -2t28.5 -17.5t15.5 -44.5q0 -61 -82 -61h-78l195 -488l47 -129l201 617h-84 q-82 0 -82 61q0 29 15 44.5t28.5 17.5t38.5 2h288q25 0 38.5 -2t28.5 -17.5t15 -44.5q0 -61 -82 -61h-82l-317 -928q-39 -113 -133 -205t-223 -92q-86 0 -143.5 50t-57.5 118zM352 1059q0 16 8.5 28.5t16.5 17.5t26 13l273 123l39 10q31 0 51 -20.5t20 -50.5q0 -45 -57 -72 l-272 -121q-20 -10 -37 -10q-35 0 -51.5 29.5t-16.5 52.5z" />
<glyph unicode="&#xfe;" horiz-adv-x="1193" d="M35 -393q0 29 15.5 44t28.5 17t38 2h110v1456h-110q-82 0 -82 62q0 29 15.5 44t28.5 17t38 2h170q51 0 66.5 -17t15.5 -67v-383q127 111 297 111q182 0 309 -133t127 -320q0 -190 -136.5 -322t-322.5 -132q-162 0 -274 121v-439h110q25 0 38 -2t28.5 -17.5t15.5 -43.5 q0 -61 -82 -62h-362q-82 1 -82 62zM369 399q0 -98 73.5 -192t192.5 -94q131 0 228.5 95t97.5 234q0 133 -88.5 230.5t-219.5 97.5q-111 0 -197.5 -69.5t-86.5 -163.5v-138z" />
<glyph unicode="&#xff;" horiz-adv-x="1134" d="M41 -299q0 41 24.5 65.5t65.5 24.5q37 0 62.5 -24.5t25.5 -65.5q0 -10 -2 -20.5t-2 -12.5q0 -10 31 -10q178 0 243 215q41 117 46 127l-310 758h-84q-84 0 -84 63q0 61 84 62h287q25 0 38 -2t28.5 -17.5t15.5 -44.5q0 -61 -82 -61h-78l195 -488l47 -129l201 617h-84 q-82 0 -82 61q0 29 15 44.5t28.5 17.5t38.5 2h288q25 0 38.5 -2t28.5 -17.5t15 -44.5q0 -61 -82 -61h-82l-317 -928q-39 -113 -133 -205t-223 -92q-86 0 -143.5 50t-57.5 118zM305 1114q0 35 26.5 63.5t67.5 28.5q39 0 66 -27.5t27 -64.5t-27 -64.5t-68 -27.5 q-37 0 -64.5 26.5t-27.5 65.5zM647 1114q0 35 26.5 63.5t67.5 28.5q39 0 66 -27.5t27 -64.5t-27 -64.5t-68 -27.5q-37 0 -64.5 26.5t-27.5 65.5z" />
<glyph unicode="&#x100;" horiz-adv-x="1552" d="M84 63q0 61 82 62h94l387 1083q12 31 32.5 47.5t35 18.5t41.5 2h39q29 0 43 -2t33.5 -18.5t31.5 -49.5l387 -1081h94q25 0 38.5 -2t28.5 -17.5t15 -44.5q0 -61 -82 -61h-325q-84 0 -84 63q0 61 84 62h82l-82 227h-567l-82 -227h82q84 0 83 -64q0 -61 -83 -61h-326 q-25 0 -38 2t-28.5 17t-15.5 44zM391 1423q0 29 15.5 44.5t29 17.5t37.5 2h610q25 0 38.5 -2t28.5 -17.5t15 -46.5q0 -29 -15 -44t-28.5 -17t-38.5 -2h-608q-25 0 -39 2t-29.5 17t-15.5 46zM537 477h477l-240 668z" />
<glyph unicode="&#x101;" horiz-adv-x="1044" d="M109 262q0 139 158.5 220t437.5 85q0 104 -68 156.5t-184 52.5q-51 0 -76 -2t-30 -6t-5 -16q-2 -49 -29.5 -72t-60.5 -23q-39 0 -65.5 25t-26.5 70q0 150 291 149q197 0 296 -95t99 -222v-443q37 -16 115 -16q82 0 81 -62q0 -31 -15 -45t-32.5 -16t-52.5 -2 q-170 0 -215 66q-113 -78 -291 -78q-143 0 -235 80.5t-92 193.5zM137 1116q0 29 15.5 44.5t29 17.5t37.5 2h610q25 0 38.5 -2t28.5 -17.5t15 -46.5q0 -29 -15 -44t-28.5 -17t-38.5 -2h-608q-25 0 -39 2t-29.5 17t-15.5 46zM250 262q0 -61 56 -105t147 -44q100 0 172 32 q37 16 55 41t21.5 41.5t3.5 46.5v172q-227 -8 -341 -59t-114 -125z" />
<glyph unicode="&#x102;" horiz-adv-x="1552" d="M84 63q0 61 82 62h94l387 1083q12 31 32.5 47.5t35 18.5t41.5 2h39q29 0 43 -2t33.5 -18.5t31.5 -49.5l387 -1081h94q25 0 38.5 -2t28.5 -17.5t15 -44.5q0 -61 -82 -61h-325q-84 0 -84 63q0 61 84 62h82l-82 227h-567l-82 -227h82q84 0 83 -64q0 -61 -83 -61h-326 q-25 0 -38 2t-28.5 17t-15.5 44zM418 1505q0 63 63 64q51 0 62 -60q10 -41 235.5 -41t235.5 41q10 59 61 60q63 0 64 -64q0 -59 -34 -96t-99.5 -51.5t-109.5 -17.5t-117.5 -3t-118 3t-110 17.5t-99 51.5t-33.5 96zM537 477h477l-240 668z" />
<glyph unicode="&#x103;" horiz-adv-x="1044" d="M109 262q0 139 158.5 220t437.5 85q0 104 -68 156.5t-184 52.5q-51 0 -76 -2t-30 -6t-5 -16q-2 -49 -29.5 -72t-60.5 -23q-39 0 -65.5 25t-26.5 70q0 150 291 149q197 0 296 -95t99 -222v-443q37 -16 115 -16q82 0 81 -62q0 -31 -15 -45t-32.5 -16t-52.5 -2 q-170 0 -215 66q-113 -78 -291 -78q-143 0 -235 80.5t-92 193.5zM164 1167q0 63 63 64q51 0 62 -60q10 -41 235.5 -41t235.5 41q10 59 61 60q63 0 64 -64q0 -59 -34 -96t-99.5 -51t-109.5 -17.5t-117.5 -3.5t-118 3.5t-110 17.5t-99 51t-33.5 96zM250 262q0 -61 56 -105 t147 -44q100 0 172 32q37 16 55 41t21.5 41.5t3.5 46.5v172q-227 -8 -341 -59t-114 -125z" />
<glyph unicode="&#x104;" horiz-adv-x="1552" d="M84 63q0 61 82 62h94l387 1083q12 31 32.5 47.5t35 18.5t41.5 2h39q29 0 43 -2t33.5 -18.5t31.5 -49.5l387 -1081h94q25 0 38.5 -2t28.5 -17.5t15 -44.5q0 -61 -82 -61h-67q-178 -104 -178 -225q0 -35 29.5 -57.5t60.5 -22.5q29 0 59.5 23.5t50.5 52.5q10 10 36 14t40 -4 q12 -10 16.5 -36t-6.5 -40q-88 -121 -204 -121q-90 0 -146.5 61.5t-56.5 133.5q0 135 133 221h-92q-84 0 -84 63q0 61 84 62h82l-82 227h-567l-82 -227h82q84 0 83 -64q0 -61 -83 -61h-326q-25 0 -38 2t-28.5 17t-15.5 44zM537 477h477l-240 668z" />
<glyph unicode="&#x105;" horiz-adv-x="1044" d="M109 262q0 139 158.5 220t437.5 85q0 104 -68 156.5t-184 52.5q-51 0 -76 -2t-30 -6t-5 -16q-2 -49 -29.5 -72t-60.5 -23q-39 0 -65.5 25t-26.5 70q0 150 291 149q197 0 296 -95t99 -222v-443q37 -16 115 -16q82 0 81 -62q0 -31 -15 -45t-32.5 -16t-52.5 -2 q-193 -113 -192 -225q0 -35 29.5 -57.5t60.5 -22.5q29 0 59.5 23.5t50.5 52.5q10 10 36 14t40 -4q12 -10 16.5 -36t-6.5 -40q-88 -121 -205 -121q-90 0 -146 61.5t-56 133.5q0 68 47 133t112 108q-45 18 -61 46q-113 -78 -291 -78q-143 0 -235 80.5t-92 193.5zM250 262 q0 -61 56 -105t147 -44q100 0 172 32q37 16 55 41t21.5 41.5t3.5 46.5v172q-227 -8 -341 -59t-114 -125z" />
<glyph unicode="&#x106;" horiz-adv-x="1552" d="M119 627q0 262 206.5 454.5t510.5 192.5q272 0 434 -127q27 57 37 76q12 29 24 40t39 11q61 0 62 -84v-285q0 -27 -2.5 -41t-19.5 -28.5t-50 -14.5q-57 0 -68 47q-10 43 -19 68t-44 68t-92 75q-119 70 -287 70q-250 0 -420 -155.5t-170 -366.5q0 -213 170 -369t424 -156 q176 0 291 58q47 23 77.5 49.5t44 55t17.5 45t6 42.5q4 59 70 60q72 0 72 -68q0 -160 -161 -263.5t-431 -103.5q-309 0 -515 193t-206 457zM639 1419q0 16 8 28.5t16.5 17.5t26.5 14l273 123l38 10q31 0 51.5 -20.5t20.5 -51.5q0 -45 -57 -72l-273 -120q-20 -10 -36 -11 q-35 0 -51.5 29.5t-16.5 52.5z" />
<glyph unicode="&#x107;" horiz-adv-x="956" d="M90 442q0 74 25.5 149t79 147.5t149.5 117.5t221 45q305 0 305 -149q0 -43 -26.5 -69t-65.5 -26q-88 0 -90 101q0 18 -123 18q-96 0 -166.5 -37t-104.5 -94t-48.5 -107.5t-14.5 -95.5q0 -139 95.5 -234t226.5 -95q145 0 203 123q10 29 24.5 37t42.5 8q72 0 72 -58 q0 -18 -16.5 -52t-52 -78t-111.5 -74.5t-174 -30.5q-190 0 -320.5 134t-130.5 320zM311 1059q0 16 8.5 28.5t16.5 17.5t26 13l273 123l39 10q31 0 51 -20.5t20 -50.5q0 -45 -57 -72l-272 -121q-20 -10 -37 -10q-35 0 -51.5 29.5t-16.5 52.5z" />
<glyph unicode="&#x108;" horiz-adv-x="1552" d="M119 627q0 262 206.5 454.5t510.5 192.5q272 0 434 -127q27 57 37 76q12 29 24 40t39 11q61 0 62 -84v-285q0 -27 -2.5 -41t-19.5 -28.5t-50 -14.5q-57 0 -68 47q-10 43 -19 68t-44 68t-92 75q-119 70 -287 70q-250 0 -420 -155.5t-170 -366.5q0 -213 170 -369t424 -156 q176 0 291 58q47 23 77.5 49.5t44 55t17.5 45t6 42.5q4 59 70 60q72 0 72 -68q0 -160 -161 -263.5t-431 -103.5q-309 0 -515 193t-206 457zM559.5 1360q-18.5 55 36.5 76l242 88q18 6 39 0l241 -88q53 -20 35 -75.5t-74 -39.5l-223 68l-223 -68q-55 -16 -73.5 39z" />
<glyph unicode="&#x109;" horiz-adv-x="956" d="M90 442q0 74 25.5 149t79 147.5t149.5 117.5t221 45q305 0 305 -149q0 -43 -26.5 -69t-65.5 -26q-88 0 -90 101q0 18 -123 18q-96 0 -166.5 -37t-104.5 -94t-48.5 -107.5t-14.5 -95.5q0 -139 95.5 -234t226.5 -95q145 0 203 123q10 29 24.5 37t42.5 8q72 0 72 -58 q0 -18 -16.5 -52t-52 -78t-111.5 -74.5t-174 -30.5q-190 0 -320.5 134t-130.5 320zM234.5 1006.5q-31.5 50.5 19.5 83.5l242 153q31 20 61 0l246 -153q51 -33 19.5 -83.5t-83.5 -19.5l-211 127l-211 -127q-51 -31 -82.5 19.5z" />
<glyph unicode="&#x10a;" horiz-adv-x="1552" d="M119 627q0 262 206.5 454.5t510.5 192.5q272 0 434 -127q27 57 37 76q12 29 24 40t39 11q61 0 62 -84v-285q0 -27 -2.5 -41t-19.5 -28.5t-50 -14.5q-57 0 -68 47q-10 43 -19 68t-44 68t-92 75q-119 70 -287 70q-250 0 -420 -155.5t-170 -366.5q0 -213 170 -369t424 -156 q176 0 291 58q47 23 77.5 49.5t44 55t17.5 45t6 42.5q4 59 70 60q72 0 72 -68q0 -160 -161 -263.5t-431 -103.5q-309 0 -515 193t-206 457zM750 1442q0 41 29.5 71.5t74.5 30.5q41 0 71.5 -30.5t30.5 -71.5t-29.5 -72t-74.5 -31q-41 0 -71.5 31t-30.5 72z" />
<glyph unicode="&#x10b;" horiz-adv-x="956" d="M90 442q0 74 25.5 149t79 147.5t149.5 117.5t221 45q305 0 305 -149q0 -43 -26.5 -69t-65.5 -26q-88 0 -90 101q0 18 -123 18q-96 0 -166.5 -37t-104.5 -94t-48.5 -107.5t-14.5 -95.5q0 -139 95.5 -234t226.5 -95q145 0 203 123q10 29 24.5 37t42.5 8q72 0 72 -58 q0 -18 -16.5 -52t-52 -78t-111.5 -74.5t-174 -30.5q-190 0 -320.5 134t-130.5 320zM422 1114q0 41 29.5 72t74.5 31q41 0 72 -31t31 -72t-30 -71.5t-75 -30.5q-41 0 -71.5 30.5t-30.5 71.5z" />
<glyph unicode="&#x10c;" horiz-adv-x="1552" d="M119 627q0 262 206.5 454.5t510.5 192.5q272 0 434 -127q27 57 37 76q12 29 24 40t39 11q61 0 62 -84v-285q0 -27 -2.5 -41t-19.5 -28.5t-50 -14.5q-57 0 -68 47q-10 43 -19 68t-44 68t-92 75q-119 70 -287 70q-250 0 -420 -155.5t-170 -366.5q0 -213 170 -369t424 -156 q176 0 291 58q47 23 77.5 49.5t44 55t17.5 45t6 42.5q4 59 70 60q72 0 72 -68q0 -160 -161 -263.5t-431 -103.5q-309 0 -515 193t-206 457zM559.5 1485q18.5 55 73.5 39l223 -68l223 68q55 16 73.5 -39t-36.5 -76l-242 -88q-18 -6 -38 0l-242 88q-53 21 -34.5 76z" />
<glyph unicode="&#x10d;" horiz-adv-x="956" d="M90 442q0 74 25.5 149t79 147.5t149.5 117.5t221 45q305 0 305 -149q0 -43 -26.5 -69t-65.5 -26q-88 0 -90 101q0 18 -123 18q-96 0 -166.5 -37t-104.5 -94t-48.5 -107.5t-14.5 -95.5q0 -139 95.5 -234t226.5 -95q145 0 203 123q10 29 24.5 37t42.5 8q72 0 72 -58 q0 -18 -16.5 -52t-52 -78t-111.5 -74.5t-174 -30.5q-190 0 -320.5 134t-130.5 320zM234.5 1221.5q31.5 50.5 82.5 19.5l211 -127l211 127q51 31 83 -19.5t-19 -82.5l-242 -154q-31 -20 -61 0l-246 154q-51 32 -19.5 82.5z" />
<glyph unicode="&#x10e;" horiz-adv-x="1613" d="M94 61q0 29 15.5 44.5t29 17.5t37.5 2h111v1001h-111q-82 0 -82 62q0 29 15.5 44t29 17t37.5 2h660q270 0 462.5 -187t192.5 -450q0 -252 -191.5 -433t-463.5 -181h-660q-82 0 -82 61zM317.5 1485q18.5 55 73.5 39l223 -68l224 68q55 16 73.5 -39t-37.5 -76l-241 -88 q-18 -6 -39 0l-242 88q-53 21 -34.5 76zM428 125h371q231 0 391 144.5t160 346.5q0 205 -159 357.5t-394 152.5h-369v-1001z" />
<glyph unicode="&#x10f;" horiz-adv-x="1193" d="M90 440q0 190 134 322.5t325 132.5q156 0 274 -104v335h-110q-25 0 -38 2t-28.5 17.5t-15.5 44.5q0 61 82 61h170q51 0 66.5 -17t15.5 -67v-1042h110q25 0 38 -2t28.5 -17.5t15.5 -44.5q0 -61 -82 -61h-170q-51 0 -66.5 17.5t-15.5 66.5v35q-121 -131 -297 -131 q-178 0 -307 132t-129 320zM231 440q0 -135 89.5 -231t216.5 -96q123 0 204.5 94t81.5 196v136q0 92 -78.5 161.5t-185.5 69.5q-133 0 -230.5 -96.5t-97.5 -233.5zM1044 932q0 18 23 41q61 49 68 125q-76 6 -76 78q0 31 21.5 53t54.5 22q41 0 68.5 -33.5t27.5 -103.5 q0 -92 -51.5 -160.5t-85.5 -68.5q-18 0 -34 15.5t-16 31.5z" />
<glyph unicode="&#x110;" horiz-adv-x="1613" d="M94 61q0 29 15.5 44.5t29 17.5t37.5 2h111v438h-121q-27 0 -45.5 18.5t-18.5 45t18.5 45t45.5 18.5h121v436h-111q-82 0 -82 62q0 29 15.5 44t29 17t37.5 2h660q270 0 462.5 -187t192.5 -450q0 -252 -191.5 -433t-463.5 -181h-660q-82 0 -82 61zM428 125h371 q231 0 391 144.5t160 346.5q0 205 -159 357.5t-394 152.5h-369v-436h379q27 0 45 -18.5t18 -45t-18 -45t-45 -18.5h-379v-438z" />
<glyph unicode="&#x111;" horiz-adv-x="1193" d="M90 440q0 190 134 322.5t325 132.5q156 0 274 -104v149h-346q-27 0 -45 18.5t-18 45t18.5 45t44.5 18.5h346v59h-110q-25 0 -38 2t-28.5 17.5t-15.5 44.5q0 61 82 61h170q51 0 66.5 -17t15.5 -67v-100h120q27 0 45.5 -18.5t18.5 -45t-18.5 -45t-45.5 -18.5h-120v-815h110 q25 0 38 -2t28.5 -17.5t15.5 -44.5q0 -61 -82 -61h-170q-51 0 -66.5 17.5t-15.5 66.5v35q-121 -131 -297 -131q-178 0 -307 132t-129 320zM231 440q0 -135 89.5 -231t216.5 -96q123 0 204.5 94t81.5 196v136q0 92 -78.5 161.5t-185.5 69.5q-133 0 -230.5 -96.5t-97.5 -233.5 z" />
<glyph unicode="&#x112;" horiz-adv-x="1433" d="M94 61q0 29 15.5 44.5t29 17.5t37.5 2h111v1001h-111q-82 0 -82 62q0 29 15.5 44t29 17t37.5 2h1055q51 0 66.5 -17t15.5 -67v-149q0 -27 -2 -41t-19.5 -28.5t-50.5 -14.5q-47 0 -58.5 21.5t-11.5 62.5v108h-743v-415h408q0 51 3 70.5t18 32.5t50 13q47 0 58.5 -21.5 t11.5 -62.5v-190q0 -27 -2 -41t-18.5 -28.5t-49.5 -14.5q-49 0 -60 22.5t-11 94.5h-408v-461h803v141q0 27 2 41.5t19.5 28.5t50.5 14q47 0 58 -21.5t11 -62.5v-182q0 -49 -16.5 -66.5t-65.5 -17.5h-1114q-82 0 -82 61zM332 1423q0 29 15 44.5t28.5 17.5t38.5 2h610 q25 0 38 -2t28.5 -17.5t15.5 -46.5q0 -29 -15.5 -44t-28.5 -17t-38 -2h-608q-25 0 -39.5 2t-29.5 17t-15 46z" />
<glyph unicode="&#x113;" horiz-adv-x="956" d="M78 446q0 186 125 320.5t305 134.5q182 0 284.5 -122t102.5 -312q0 -27 -6 -43t-19.5 -23.5t-24.5 -8.5t-32 -1h-590q20 -123 114.5 -200.5t213.5 -77.5q154 0 205 123q10 29 24.5 37t42.5 8q72 0 72 -58q0 -63 -93 -149t-263 -86q-193 0 -327 134t-134 324zM92 1116 q0 29 15.5 44.5t29 17.5t37.5 2h610q25 0 38.5 -2t28.5 -17.5t15 -46.5q0 -29 -15 -44t-28.5 -17t-38.5 -2h-608q-25 0 -39 2t-29.5 17t-15.5 46zM225 514h525q-10 143 -80 202.5t-162 59.5q-102 0 -182.5 -73.5t-100.5 -188.5z" />
<glyph unicode="&#x114;" horiz-adv-x="1433" d="M94 61q0 29 15.5 44.5t29 17.5t37.5 2h111v1001h-111q-82 0 -82 62q0 29 15.5 44t29 17t37.5 2h1055q51 0 66.5 -17t15.5 -67v-149q0 -27 -2 -41t-19.5 -28.5t-50.5 -14.5q-47 0 -58.5 21.5t-11.5 62.5v108h-743v-415h408q0 51 3 70.5t18 32.5t50 13q47 0 58.5 -21.5 t11.5 -62.5v-190q0 -27 -2 -41t-18.5 -28.5t-49.5 -14.5q-49 0 -60 22.5t-11 94.5h-408v-461h803v141q0 27 2 41.5t19.5 28.5t50.5 14q47 0 58 -21.5t11 -62.5v-182q0 -49 -16.5 -66.5t-65.5 -17.5h-1114q-82 0 -82 61zM358 1505q0 63 64 64q51 0 61 -60q10 -41 235.5 -41 t235.5 41q10 59 62 60q63 0 63 -64q0 -59 -33.5 -96t-99 -51.5t-109.5 -17.5t-118 -3t-118 3t-109.5 17.5t-99.5 51.5t-34 96z" />
<glyph unicode="&#x115;" horiz-adv-x="956" d="M78 446q0 186 125 320.5t305 134.5q182 0 284.5 -122t102.5 -312q0 -27 -6 -43t-19.5 -23.5t-24.5 -8.5t-32 -1h-590q20 -123 114.5 -200.5t213.5 -77.5q154 0 205 123q10 29 24.5 37t42.5 8q72 0 72 -58q0 -63 -93 -149t-263 -86q-193 0 -327 134t-134 324zM119 1167 q0 63 63 64q51 0 62 -60q10 -41 235.5 -41t235.5 41q10 59 61 60q63 0 64 -64q0 -59 -34 -96t-99.5 -51t-109.5 -17.5t-117.5 -3.5t-118 3.5t-110 17.5t-99 51t-33.5 96zM225 514h525q-10 143 -80 202.5t-162 59.5q-102 0 -182.5 -73.5t-100.5 -188.5z" />
<glyph unicode="&#x116;" horiz-adv-x="1433" d="M94 61q0 29 15.5 44.5t29 17.5t37.5 2h111v1001h-111q-82 0 -82 62q0 29 15.5 44t29 17t37.5 2h1055q51 0 66.5 -17t15.5 -67v-149q0 -27 -2 -41t-19.5 -28.5t-50.5 -14.5q-47 0 -58.5 21.5t-11.5 62.5v108h-743v-415h408q0 51 3 70.5t18 32.5t50 13q47 0 58.5 -21.5 t11.5 -62.5v-190q0 -27 -2 -41t-18.5 -28.5t-49.5 -14.5q-49 0 -60 22.5t-11 94.5h-408v-461h803v141q0 27 2 41.5t19.5 28.5t50.5 14q47 0 58 -21.5t11 -62.5v-182q0 -49 -16.5 -66.5t-65.5 -17.5h-1114q-82 0 -82 61zM612 1442q0 41 30 71.5t75 30.5q41 0 71.5 -30.5 t30.5 -71.5t-29.5 -72t-74.5 -31q-41 0 -72 31t-31 72z" />
<glyph unicode="&#x117;" horiz-adv-x="956" d="M78 446q0 186 125 320.5t305 134.5q182 0 284.5 -122t102.5 -312q0 -27 -6 -43t-19.5 -23.5t-24.5 -8.5t-32 -1h-590q20 -123 114.5 -200.5t213.5 -77.5q154 0 205 123q10 29 24.5 37t42.5 8q72 0 72 -58q0 -63 -93 -149t-263 -86q-193 0 -327 134t-134 324zM225 514h525 q-10 143 -80 202.5t-162 59.5q-102 0 -182.5 -73.5t-100.5 -188.5zM375 1114q0 41 29.5 72t74.5 31q41 0 72 -31t31 -72t-30 -71.5t-75 -30.5q-41 0 -71.5 30.5t-30.5 71.5z" />
<glyph unicode="&#x118;" horiz-adv-x="1433" d="M94 61q0 29 15.5 44.5t29 17.5t37.5 2h111v1001h-111q-82 0 -82 62q0 29 15.5 44t29 17t37.5 2h1055q51 0 66.5 -17t15.5 -67v-149q0 -27 -2 -41t-19.5 -28.5t-50.5 -14.5q-47 0 -58.5 21.5t-11.5 62.5v108h-743v-415h408q0 51 3 70.5t18 32.5t50 13q47 0 58.5 -21.5 t11.5 -62.5v-190q0 -27 -2 -41t-18.5 -28.5t-49.5 -14.5q-49 0 -60 22.5t-11 94.5h-408v-461h803v141q0 27 2 41.5t19.5 28.5t50.5 14q47 0 58 -21.5t11 -62.5v-182q0 -49 -16.5 -66.5t-65.5 -17.5h-96q-178 -104 -178 -225q0 -35 29.5 -57.5t60.5 -22.5q29 0 59.5 23.5 t51.5 52.5q10 10 35.5 14t39.5 -4q12 -10 16.5 -36t-5.5 -40q-88 -121 -205 -121q-90 0 -146.5 61.5t-56.5 133.5q0 135 133 221h-852q-82 0 -82 61z" />
<glyph unicode="&#x119;" horiz-adv-x="956" d="M78 446q0 186 125 320.5t305 134.5q182 0 284.5 -122t102.5 -312q0 -27 -6 -43t-19.5 -23.5t-24.5 -8.5t-32 -1h-590q20 -123 114.5 -200.5t213.5 -77.5q154 0 205 123q10 29 24.5 37t42.5 8q72 0 72 -58q0 -47 -61.5 -119.5t-171.5 -103.5q-178 -104 -179 -225 q0 -35 30 -57.5t60 -22.5q29 0 60 23.5t51 52.5q10 10 35.5 14t40.5 -4q12 -10 16 -36t-6 -40q-88 -121 -205 -121q-90 0 -146.5 61.5t-56.5 133.5q0 135 121 213q-174 20 -289.5 149t-115.5 305zM225 514h525q-10 143 -80 202.5t-162 59.5q-102 0 -182.5 -73.5 t-100.5 -188.5z" />
<glyph unicode="&#x11a;" horiz-adv-x="1433" d="M94 61q0 29 15.5 44.5t29 17.5t37.5 2h111v1001h-111q-82 0 -82 62q0 29 15.5 44t29 17t37.5 2h1055q51 0 66.5 -17t15.5 -67v-149q0 -27 -2 -41t-19.5 -28.5t-50.5 -14.5q-47 0 -58.5 21.5t-11.5 62.5v108h-743v-415h408q0 51 3 70.5t18 32.5t50 13q47 0 58.5 -21.5 t11.5 -62.5v-190q0 -27 -2 -41t-18.5 -28.5t-49.5 -14.5q-49 0 -60 22.5t-11 94.5h-408v-461h803v141q0 27 2 41.5t19.5 28.5t50.5 14q47 0 58 -21.5t11 -62.5v-182q0 -49 -16.5 -66.5t-65.5 -17.5h-1114q-82 0 -82 61zM421.5 1485q18.5 55 74.5 39l223 -68l223 68 q55 16 73.5 -39t-36.5 -76l-242 -88q-20 -6 -39 0l-241 88q-54 21 -35.5 76z" />
<glyph unicode="&#x11b;" horiz-adv-x="956" d="M78 446q0 186 125 320.5t305 134.5q182 0 284.5 -122t102.5 -312q0 -27 -6 -43t-19.5 -23.5t-24.5 -8.5t-32 -1h-590q20 -123 114.5 -200.5t213.5 -77.5q154 0 205 123q10 29 24.5 37t42.5 8q72 0 72 -58q0 -63 -93 -149t-263 -86q-193 0 -327 134t-134 324z M185.5 1221.5q31.5 50.5 82.5 19.5l211 -127l211 127q51 31 83 -19.5t-19 -82.5l-242 -154q-31 -20 -61 0l-246 154q-51 32 -19.5 82.5zM225 514h525q-10 143 -80 202.5t-162 59.5q-102 0 -182.5 -73.5t-100.5 -188.5z" />
<glyph unicode="&#x11c;" horiz-adv-x="1673" d="M119 627q0 262 206.5 454.5t510.5 192.5q272 0 434 -127q27 57 37 76q12 29 24 40t39 11q61 0 62 -84v-285q0 -27 -2.5 -41t-19.5 -28.5t-50 -14.5q-57 0 -68 47q-10 43 -19 68t-44 68t-92 75q-119 70 -287 70q-248 0 -419 -154.5t-171 -369.5t171 -369t411 -154 q166 0 289.5 91.5t152.5 234.5h-180q-25 0 -38 2t-28.5 17.5t-15.5 44.5q0 61 82 61h393q84 0 84 -64q0 -61 -84 -61h-65v-344q0 -27 -2.5 -41t-18.5 -28.5t-49 -14.5t-50.5 14.5t-19.5 28.5t-2 41v74q-180 -180 -459 -181q-295 0 -503.5 191t-208.5 459zM540.5 1360 q-18.5 55 37.5 76l241 88q18 6 39 0l242 -88q53 -20 34.5 -75.5t-73.5 -39.5l-223 68l-224 -68q-55 -16 -73.5 39z" />
<glyph unicode="&#x11d;" d="M59 -168q0 162 152 254q-47 63 -47 147q0 80 41 140q-66 84 -66 194q0 133 98.5 230.5t239.5 97.5q109 0 199 -61q96 72 217 71q76 0 112.5 -33.5t36.5 -76.5q0 -41 -25.5 -62.5t-55.5 -21.5q-23 0 -47.5 16t-32.5 53q-68 -6 -119 -35q53 -88 53 -178q0 -137 -98.5 -233 t-239.5 -96q-109 0 -184 51q-12 -31 -12 -58l6 -26q4 -29 18 -47q25 -29 68 -29q16 -4 59 -4h143q186 0 297 -59q72 -39 107 -103.5t35 -130.5q0 -129 -139.5 -215t-338 -86t-338 85t-139.5 216zM171 1006.5q-32 50.5 19 83.5l242 153q31 20 62 0l245 -153 q51 -33 19.5 -83.5t-82.5 -19.5l-211 127l-211 -127q-51 -31 -83 19.5zM178 -168q0 -70 104.5 -124t254 -54t254 54t104.5 124q0 61 -35 100t-108.5 54.5t-125 18.5t-145.5 3q-117 0 -149.5 -4t-69.5 -29q-84 -53 -84 -143zM281 565q0 -82 57 -143.5t139 -61.5 q80 0 138.5 60.5t58.5 146.5q0 82 -57.5 143.5t-139.5 61.5q-80 0 -138 -60.5t-58 -146.5z" />
<glyph unicode="&#x11e;" horiz-adv-x="1673" d="M119 627q0 262 206.5 454.5t510.5 192.5q272 0 434 -127q27 57 37 76q12 29 24 40t39 11q61 0 62 -84v-285q0 -27 -2.5 -41t-19.5 -28.5t-50 -14.5q-57 0 -68 47q-10 43 -19 68t-44 68t-92 75q-119 70 -287 70q-248 0 -419 -154.5t-171 -369.5t171 -369t411 -154 q166 0 289.5 91.5t152.5 234.5h-180q-25 0 -38 2t-28.5 17.5t-15.5 44.5q0 61 82 61h393q84 0 84 -64q0 -61 -84 -61h-65v-344q0 -27 -2.5 -41t-18.5 -28.5t-49 -14.5t-50.5 14.5t-19.5 28.5t-2 41v74q-180 -180 -459 -181q-295 0 -503.5 191t-208.5 459zM477 1505 q0 63 64 64q51 0 61 -60q10 -41 235.5 -41t235.5 41q10 59 62 60q63 0 63 -64q0 -59 -34 -96t-99.5 -51.5t-109.5 -17.5t-117.5 -3t-117.5 3t-109.5 17.5t-99.5 51.5t-34 96z" />
<glyph unicode="&#x11f;" d="M59 -168q0 162 152 254q-47 63 -47 147q0 80 41 140q-66 84 -66 194q0 133 98.5 230.5t239.5 97.5q109 0 199 -61q96 72 217 71q76 0 112.5 -33.5t36.5 -76.5q0 -41 -25.5 -62.5t-55.5 -21.5q-23 0 -47.5 16t-32.5 53q-68 -6 -119 -35q53 -88 53 -178q0 -137 -98.5 -233 t-239.5 -96q-109 0 -184 51q-12 -31 -12 -58l6 -26q4 -29 18 -47q25 -29 68 -29q16 -4 59 -4h143q186 0 297 -59q72 -39 107 -103.5t35 -130.5q0 -129 -139.5 -215t-338 -86t-338 85t-139.5 216zM104 1167q0 63 64 64q51 0 61 -60q10 -41 235.5 -41t235.5 41q10 59 62 60 q63 0 63 -64q0 -59 -33.5 -96t-99 -51t-109.5 -17.5t-118 -3.5t-118 3.5t-109.5 17.5t-99.5 51t-34 96zM178 -168q0 -70 104.5 -124t254 -54t254 54t104.5 124q0 61 -35 100t-108.5 54.5t-125 18.5t-145.5 3q-117 0 -149.5 -4t-69.5 -29q-84 -53 -84 -143zM281 565 q0 -82 57 -143.5t139 -61.5q80 0 138.5 60.5t58.5 146.5q0 82 -57.5 143.5t-139.5 61.5q-80 0 -138 -60.5t-58 -146.5z" />
<glyph unicode="&#x120;" horiz-adv-x="1673" d="M119 627q0 262 206.5 454.5t510.5 192.5q272 0 434 -127q27 57 37 76q12 29 24 40t39 11q61 0 62 -84v-285q0 -27 -2.5 -41t-19.5 -28.5t-50 -14.5q-57 0 -68 47q-10 43 -19 68t-44 68t-92 75q-119 70 -287 70q-248 0 -419 -154.5t-171 -369.5t171 -369t411 -154 q166 0 289.5 91.5t152.5 234.5h-180q-25 0 -38 2t-28.5 17.5t-15.5 44.5q0 61 82 61h393q84 0 84 -64q0 -61 -84 -61h-65v-344q0 -27 -2.5 -41t-18.5 -28.5t-49 -14.5t-50.5 14.5t-19.5 28.5t-2 41v74q-180 -180 -459 -181q-295 0 -503.5 191t-208.5 459zM733 1442 q0 41 30 71.5t75 30.5q41 0 71.5 -30.5t30.5 -71.5t-29.5 -72t-74.5 -31q-41 0 -72 31t-31 72z" />
<glyph unicode="&#x121;" d="M59 -168q0 162 152 254q-47 63 -47 147q0 80 41 140q-66 84 -66 194q0 133 98.5 230.5t239.5 97.5q109 0 199 -61q96 72 217 71q76 0 112.5 -33.5t36.5 -76.5q0 -41 -25.5 -62.5t-55.5 -21.5q-23 0 -47.5 16t-32.5 53q-68 -6 -119 -35q53 -88 53 -178q0 -137 -98.5 -233 t-239.5 -96q-109 0 -184 51q-12 -31 -12 -58l6 -26q4 -29 18 -47q25 -29 68 -29q16 -4 59 -4h143q186 0 297 -59q72 -39 107 -103.5t35 -130.5q0 -129 -139.5 -215t-338 -86t-338 85t-139.5 216zM178 -168q0 -70 104.5 -124t254 -54t254 54t104.5 124q0 61 -35 100 t-108.5 54.5t-125 18.5t-145.5 3q-117 0 -149.5 -4t-69.5 -29q-84 -53 -84 -143zM281 565q0 -82 57 -143.5t139 -61.5q80 0 138.5 60.5t58.5 146.5q0 82 -57.5 143.5t-139.5 61.5q-80 0 -138 -60.5t-58 -146.5zM358 1114q0 41 30 72t75 31q41 0 71.5 -31t30.5 -72 t-29.5 -71.5t-74.5 -30.5q-41 0 -72 30.5t-31 71.5z" />
<glyph unicode="&#x122;" horiz-adv-x="1673" d="M119 627q0 262 206.5 454.5t510.5 192.5q272 0 434 -127q27 57 37 76q12 29 24 40t39 11q61 0 62 -84v-285q0 -27 -2.5 -41t-19.5 -28.5t-50 -14.5q-57 0 -68 47q-10 43 -19 68t-44 68t-92 75q-119 70 -287 70q-248 0 -419 -154.5t-171 -369.5t171 -369t411 -154 q166 0 289.5 91.5t152.5 234.5h-180q-25 0 -38 2t-28.5 17.5t-15.5 44.5q0 61 82 61h393q84 0 84 -64q0 -61 -84 -61h-65v-344q0 -27 -2.5 -41t-18.5 -28.5t-49 -14.5t-50.5 14.5t-19.5 28.5t-2 41v74q-180 -180 -459 -181q-295 0 -503.5 191t-208.5 459zM743 -387 q0 18 23 41q61 49 68 125q-76 6 -76 78q0 31 21.5 53t54.5 22q41 0 68.5 -33.5t27.5 -103.5q0 -92 -51.5 -160.5t-85.5 -68.5q-18 0 -34 15.5t-16 31.5z" />
<glyph unicode="&#x123;" d="M59 -168q0 162 152 254q-47 63 -47 147q0 80 41 140q-66 84 -66 194q0 133 98.5 230.5t239.5 97.5q109 0 199 -61q96 72 217 71q76 0 112.5 -33.5t36.5 -76.5q0 -41 -25.5 -62.5t-55.5 -21.5q-23 0 -47.5 16t-32.5 53q-68 -6 -119 -35q53 -88 53 -178q0 -137 -98.5 -233 t-239.5 -96q-109 0 -184 51q-12 -31 -12 -58l6 -26q4 -29 18 -47q25 -29 68 -29q16 -4 59 -4h143q186 0 297 -59q72 -39 107 -103.5t35 -130.5q0 -129 -139.5 -215t-338 -86t-338 85t-139.5 216zM178 -168q0 -70 104.5 -124t254 -54t254 54t104.5 124q0 61 -35 100 t-108.5 54.5t-125 18.5t-145.5 3q-117 0 -149.5 -4t-69.5 -29q-84 -53 -84 -143zM281 565q0 -82 57 -143.5t139 -61.5q80 0 138.5 60.5t58.5 146.5q0 82 -57.5 143.5t-139.5 61.5q-80 0 -138 -60.5t-58 -146.5zM371 1092q0 92 51 160.5t86 68.5q18 0 33.5 -15.5t15.5 -31.5 q0 -18 -22 -41q-61 -49 -68 -125q76 -6 76 -78q0 -31 -21.5 -53.5t-54.5 -22.5q-41 0 -68.5 34t-27.5 104z" />
<glyph unicode="&#x124;" horiz-adv-x="1552" d="M94 61q0 29 15.5 44.5t29 17.5t37.5 2h111v1001h-111q-82 0 -82 62q0 29 15.5 44t29 17t37.5 2h363q25 0 38 -2t28.5 -17t15.5 -44q0 -61 -82 -62h-111v-413h694v413h-110q-82 0 -82 62q0 29 15.5 44t28.5 17t38 2h362q25 0 38 -2t28.5 -17t15.5 -44q0 -61 -82 -62h-110 v-1001h110q25 0 38 -2t28.5 -17.5t15.5 -44.5q0 -61 -82 -61h-362q-82 0 -82 61q0 29 15.5 44.5t28.5 17.5t38 2h110v463h-694v-463h111q25 0 38 -2t28.5 -17.5t15.5 -44.5q0 -61 -82 -61h-363q-82 0 -82 61zM481.5 1360q-18.5 55 36.5 76l242 88q20 6 39 0l241 -88 q53 -20 35 -75.5t-74 -39.5l-223 68l-223 -68q-55 -16 -73.5 39z" />
<glyph unicode="&#x125;" horiz-adv-x="1193" d="M35 61q0 29 15.5 44.5t28.5 17.5t38 2h110v1001h-110q-82 0 -82 62q0 29 15.5 44t28.5 17t38 2h170q51 0 66.5 -17t15.5 -67v-389q127 117 301 117q295 0 295 -299v-471h110q25 0 38 -2t28.5 -17.5t15.5 -44.5q0 -61 -82 -61h-362q-25 0 -38 2t-28.5 17.5t-15.5 43.5 q0 61 82 62h110v459q0 96 -32.5 141t-133.5 45q-63 0 -125.5 -24.5t-112.5 -92t-50 -168.5v-360h110q25 0 38 -2t28.5 -17.5t15.5 -44.5q0 -61 -82 -61h-362q-82 0 -82 61zM301 1360q-18 55 37 76l242 88q18 6 38 0l242 -88q53 -20 35 -75.5t-74 -39.5l-223 68l-223 -68 q-56 -16 -74 39z" />
<glyph unicode="&#x126;" horiz-adv-x="1552" d="M94 61q0 29 15.5 44.5t29 17.5t37.5 2h111v749h-121q-27 0 -45.5 18.5t-18.5 45.5t18.5 45t45.5 18h121v125h-111q-82 0 -82 62q0 29 15.5 44t29 17t37.5 2h363q25 0 38 -2t28.5 -17t15.5 -44q0 -61 -82 -62h-111v-125h694v125h-110q-82 0 -82 62q0 29 15.5 44t28.5 17 t38 2h362q25 0 38 -2t28.5 -17t15.5 -44q0 -61 -82 -62h-110v-125h120q27 0 45.5 -18t18.5 -45t-18.5 -45.5t-45.5 -18.5h-120v-749h110q25 0 38 -2t28.5 -17.5t15.5 -44.5q0 -61 -82 -61h-362q-82 0 -82 61q0 29 15.5 44.5t28.5 17.5t38 2h110v463h-694v-463h111 q25 0 38 -2t28.5 -17.5t15.5 -44.5q0 -61 -82 -61h-363q-82 0 -82 61zM428 713h694v161h-694v-161z" />
<glyph unicode="&#x127;" horiz-adv-x="1193" d="M35 61q0 29 15.5 44.5t28.5 17.5t38 2h110v815h-121q-27 0 -45 18.5t-18 45t18.5 45t44.5 18.5h121v59h-110q-82 0 -82 62q0 29 15.5 44t28.5 17t38 2h170q51 0 66.5 -17t15.5 -67v-100h229q27 0 45.5 -18.5t18.5 -45t-18.5 -45t-45.5 -18.5h-229v-162q127 117 301 117 q295 0 295 -299v-471h110q25 0 38 -2t28.5 -17.5t15.5 -44.5q0 -61 -82 -61h-362q-25 0 -38 2t-28.5 17.5t-15.5 43.5q0 61 82 62h110v459q0 96 -32.5 141t-133.5 45q-63 0 -125.5 -24.5t-112.5 -92t-50 -168.5v-360h110q25 0 38 -2t28.5 -17.5t15.5 -44.5q0 -61 -82 -61 h-362q-82 0 -82 61z" />
<glyph unicode="&#x128;" horiz-adv-x="716" d="M2 1382q0 37 100 113q92 68 160 68t137 -70q47 -43 64 -43q47 0 143 90q27 23 49 23q25 0 44.5 -20.5t19.5 -45.5q0 -37 -101 -113q-92 -68 -159.5 -67.5t-136.5 69.5q-47 43 -64 44q-47 0 -143 -91q-27 -23 -49 -22q-25 0 -44.5 20t-19.5 45zM84 61q0 29 15.5 44.5 t28.5 17.5t38 2h121v1001h-121q-82 0 -82 62q0 29 15.5 44t28.5 17t38 2h383q25 0 38 -2t28.5 -17t15.5 -44q0 -61 -82 -62h-121v-1001h121q25 0 38 -2t28.5 -17.5t15.5 -44.5q0 -61 -82 -61h-383q-82 0 -82 61z" />
<glyph unicode="&#x129;" horiz-adv-x="598" d="M-59 1057q0 37 100 112q92 68 159.5 68t137.5 -70q47 -43 63 -43q47 0 144 90q27 23 49 23q25 0 44 -20.5t19 -45.5q0 -37 -100 -112q-92 -68 -159.5 -68t-137.5 70q-47 43 -63 43q-47 0 -144 -90q-27 -23 -49 -23q-25 0 -44 20.5t-19 45.5zM35 61q0 29 15.5 44.5 t28.5 17.5t38 2h110v633h-100q-84 0 -84 63q0 61 84 62h160q51 0 66.5 -17.5t15.5 -66.5v-674h90q84 0 84 -64q0 -61 -82 -61h-344q-82 0 -82 61z" />
<glyph unicode="&#x12a;" horiz-adv-x="716" d="M-27 1423q0 29 15.5 44.5t29 17.5t37.5 2h611q25 0 38 -2t28.5 -17.5t15.5 -46.5q0 -29 -15.5 -44t-29 -17t-37.5 -2h-609q-25 0 -39 2t-29.5 17t-15.5 46zM84 61q0 29 15.5 44.5t28.5 17.5t38 2h121v1001h-121q-82 0 -82 62q0 29 15.5 44t28.5 17t38 2h383q25 0 38 -2 t28.5 -17t15.5 -44q0 -61 -82 -62h-121v-1001h121q25 0 38 -2t28.5 -17.5t15.5 -44.5q0 -61 -82 -61h-383q-82 0 -82 61z" />
<glyph unicode="&#x12b;" horiz-adv-x="598" d="M-88 1116q0 29 15.5 44.5t28.5 17.5t38 2h610q25 0 38 -2t28.5 -17.5t15.5 -46.5q0 -29 -15.5 -44t-28.5 -17t-38 -2h-608q-25 0 -39 2t-29.5 17t-15.5 46zM35 61q0 29 15.5 44.5t28.5 17.5t38 2h110v633h-100q-84 0 -84 63q0 61 84 62h160q51 0 66.5 -17.5t15.5 -66.5 v-674h90q84 0 84 -64q0 -61 -82 -61h-344q-82 0 -82 61z" />
<glyph unicode="&#x12c;" horiz-adv-x="716" d="M0 1505q0 63 63 64q51 0 62 -60q10 -41 235.5 -41t235.5 41q10 59 61 60q63 0 64 -64q0 -59 -34 -96t-99.5 -51.5t-109.5 -17.5t-117.5 -3t-117.5 3t-109.5 17.5t-99.5 51.5t-34 96zM84 61q0 29 15.5 44.5t28.5 17.5t38 2h121v1001h-121q-82 0 -82 62q0 29 15.5 44 t28.5 17t38 2h383q25 0 38 -2t28.5 -17t15.5 -44q0 -61 -82 -62h-121v-1001h121q25 0 38 -2t28.5 -17.5t15.5 -44.5q0 -61 -82 -61h-383q-82 0 -82 61z" />
<glyph unicode="&#x12d;" horiz-adv-x="598" d="M-61 1167q0 63 63 64q51 0 61 -60q10 -41 235.5 -41t236.5 41q10 59 61 60q63 0 63 -64q0 -59 -33.5 -96t-99 -51t-109.5 -17.5t-118 -3.5t-118 3.5t-109.5 17.5t-99 51t-33.5 96zM35 61q0 29 15.5 44.5t28.5 17.5t38 2h110v633h-100q-84 0 -84 63q0 61 84 62h160 q51 0 66.5 -17.5t15.5 -66.5v-674h90q84 0 84 -64q0 -61 -82 -61h-344q-82 0 -82 61z" />
<glyph unicode="&#x12e;" horiz-adv-x="716" d="M84 61q0 29 15.5 44.5t28.5 17.5t38 2h121v1001h-121q-82 0 -82 62q0 29 15.5 44t28.5 17t38 2h383q25 0 38 -2t28.5 -17t15.5 -44q0 -61 -82 -62h-121v-1001h121q25 0 38 -2t28.5 -17.5t15.5 -44.5q0 -61 -82 -61h-78q-61 -33 -98 -93.5t-37 -131.5q0 -35 29.5 -57.5 t60.5 -22.5q29 0 59.5 23.5t51.5 52.5q10 10 35.5 14t39.5 -4q12 -10 16.5 -36t-5.5 -40q-88 -121 -205 -121q-90 0 -146.5 61.5t-56.5 133.5q0 121 131 221h-180q-82 0 -82 61z" />
<glyph unicode="&#x12f;" horiz-adv-x="598" d="M35 61q0 29 15.5 44.5t28.5 17.5t38 2h110v633h-100q-84 0 -84 63q0 61 84 62h160q51 0 66.5 -17.5t15.5 -66.5v-674h90q84 0 84 -64q0 -61 -82 -61h-115q-61 -33 -97 -93.5t-36 -131.5q0 -35 29.5 -57.5t60.5 -22.5q29 0 59.5 23.5t51.5 52.5q10 10 35.5 14t39.5 -4 q12 -10 16.5 -36t-5.5 -40q-88 -121 -205 -121q-90 0 -146.5 61.5t-56.5 133.5q0 119 129 221h-104q-82 0 -82 61zM164 1151q0 43 29.5 72.5t72.5 29.5t73 -29.5t30 -72.5t-30 -72.5t-73 -29.5t-72.5 29.5t-29.5 72.5z" />
<glyph unicode="&#x130;" horiz-adv-x="716" d="M84 61q0 29 15.5 44.5t28.5 17.5t38 2h121v1001h-121q-82 0 -82 62q0 29 15.5 44t28.5 17t38 2h383q25 0 38 -2t28.5 -17t15.5 -44q0 -61 -82 -62h-121v-1001h121q25 0 38 -2t28.5 -17.5t15.5 -44.5q0 -61 -82 -61h-383q-82 0 -82 61zM254 1442q0 41 29.5 71.5t74.5 30.5 q41 0 72 -30.5t31 -71.5t-30 -72t-75 -31q-41 0 -71.5 31t-30.5 72z" />
<glyph unicode="&#x131;" horiz-adv-x="598" d="M35 61q0 29 15.5 44.5t28.5 17.5t38 2h110v633h-100q-84 0 -84 63q0 61 84 62h160q51 0 66.5 -17.5t15.5 -66.5v-674h90q84 0 84 -64q0 -61 -82 -61h-344q-82 0 -82 61z" />
<glyph unicode="&#x134;" d="M145 203q0 47 27 71.5t65.5 24.5t64.5 -26.5t26 -63.5q0 -33 -17 -53q59 -53 174 -54q25 0 50.5 5.5t65.5 20.5t65.5 56t25.5 103v839h-168q-84 0 -84 64q0 61 84 61h371q84 0 84 -61q0 -63 -84 -64h-61v-852q0 -135 -102.5 -216t-246.5 -81q-152 0 -246 64t-94 162z M415.5 1360q-18.5 55 37.5 76l241 88q18 6 39 0l242 -88q53 -20 34.5 -75.5t-73.5 -39.5l-223 68l-224 -68q-55 -16 -73.5 39z" />
<glyph unicode="&#x135;" horiz-adv-x="657" d="M-94 -311q0 43 27.5 68.5t64.5 25.5q90 0 90 -109l2 -6q8 -10 62 -10q135 0 135 254v846h-129q-84 0 -84 63q0 61 84 62h188q51 0 66.5 -17.5t15.5 -66.5v-895q0 -84 -23.5 -163t-91 -143.5t-168.5 -64.5q-111 0 -175 42t-64 114zM34 1006.5q-32 50.5 19 83.5l242 153 q31 20 61 0l246 -153q51 -33 19.5 -83.5t-82.5 -19.5l-211 127l-211 -127q-51 -31 -83 19.5z" />
<glyph unicode="&#x136;" horiz-adv-x="1613" d="M109 61q0 29 15 44.5t28.5 17.5t37.5 2h111v1001h-111q-82 0 -81 62q0 29 15 44t28.5 17t37.5 2h336q25 0 38.5 -2t28.5 -17t15 -44q0 -61 -82 -62h-110v-589l725 589q-45 0 -63.5 2t-34 16.5t-15.5 45.5q0 61 82 61h297q84 0 84 -63q0 -61 -84 -62h-82l-487 -395 l526 -606h74q84 0 84 -64q0 -61 -84 -61h-258q-82 0 -82 61q0 31 15 45.5t34.5 16.5t64.5 2l-464 534l-332 -270v-264h110q25 0 38.5 -2t28.5 -17.5t15 -44.5q0 -61 -82 -61h-336q-81 0 -81 61zM713 -387q0 18 22 41q61 49 68 125q-76 6 -76 78q0 31 21.5 53t54.5 22 q41 0 68.5 -33.5t27.5 -103.5q0 -92 -51 -160.5t-86 -68.5q-18 0 -33.5 15.5t-15.5 31.5z" />
<glyph unicode="&#x137;" horiz-adv-x="1134" d="M49 61q0 29 15.5 44.5t28.5 17.5t38 2h111v1001h-111q-82 0 -82 62q0 29 15.5 44t28.5 17t38 2h143q51 0 66.5 -17t15.5 -67v-725l357 316h-82q-82 0 -82 61q0 29 15.5 44.5t28.5 17.5t38 2h336q84 0 84 -64q0 -61 -84 -61h-80l-266 -236l321 -397h72q84 0 84 -64 q0 -61 -84 -61h-258q-25 0 -38 2t-28.5 17.5t-15.5 43.5q0 61 82 62h39l-260 321l-179 -157v-164h111q25 0 38 -2t28.5 -17.5t15.5 -44.5q0 -61 -82 -61h-336q-82 0 -82 61zM475 -387q0 18 23 41q61 49 67 125q-76 6 -76 78q0 31 21.5 53t54.5 22q41 0 69 -33.5t28 -103.5 q0 -92 -51.5 -160.5t-86.5 -68.5q-18 0 -33.5 15.5t-15.5 31.5z" />
<glyph unicode="&#x139;" horiz-adv-x="1314" d="M94 61q0 29 15.5 44.5t29 17.5t37.5 2h111v1001h-111q-82 0 -82 62q0 29 15.5 44t29 17t37.5 2h412q25 0 38 -2t28.5 -17t15.5 -44q0 -61 -82 -62h-160v-1001h653v141q0 29 2 43.5t19.5 27.5t50.5 13q47 0 58.5 -21.5t11.5 -62.5v-182q0 -49 -16.5 -66.5t-65.5 -17.5 h-965q-82 0 -82 61zM440 1419q0 16 8.5 28.5t16.5 17.5t27 14l272 123l39 10q31 0 51 -20.5t20 -51.5q0 -45 -57 -72l-272 -120q-20 -10 -37 -11q-35 0 -51.5 29.5t-16.5 52.5z" />
<glyph unicode="&#x13a;" horiz-adv-x="598" d="M35 61q0 29 15.5 44.5t28.5 17.5t38 2h110v1001h-110q-82 0 -82 62q0 29 15.5 44t28.5 17t38 2h170q51 0 66.5 -17t15.5 -67v-1042h110q25 0 38 -2t28.5 -17.5t15.5 -44.5q0 -61 -82 -61h-362q-82 0 -82 61zM82 1419q0 16 8 28.5t16.5 17.5t26.5 14l273 123l38 10 q31 0 51.5 -20.5t20.5 -51.5q0 -45 -57 -72l-273 -120q-20 -10 -36 -11q-35 0 -51.5 29.5t-16.5 52.5z" />
<glyph unicode="&#x13b;" horiz-adv-x="1314" d="M94 61q0 29 15.5 44.5t29 17.5t37.5 2h111v1001h-111q-82 0 -82 62q0 29 15.5 44t29 17t37.5 2h412q25 0 38 -2t28.5 -17t15.5 -44q0 -61 -82 -62h-160v-1001h653v141q0 29 2 43.5t19.5 27.5t50.5 13q47 0 58.5 -21.5t11.5 -62.5v-182q0 -49 -16.5 -66.5t-65.5 -17.5 h-965q-82 0 -82 61zM563 -387q0 18 23 41q61 49 67 125q-76 6 -75 78q0 31 21.5 53t53.5 22q41 0 69 -33.5t28 -103.5q0 -92 -51.5 -160.5t-86.5 -68.5q-18 0 -33.5 15.5t-15.5 31.5z" />
<glyph unicode="&#x13c;" horiz-adv-x="598" d="M35 61q0 29 15.5 44.5t28.5 17.5t38 2h110v1001h-110q-82 0 -82 62q0 29 15.5 44t28.5 17t38 2h170q51 0 66.5 -17t15.5 -67v-1042h110q25 0 38 -2t28.5 -17.5t15.5 -44.5q0 -61 -82 -61h-362q-82 0 -82 61zM205 -387q0 18 22 41q61 49 68 125q-76 6 -76 78q0 31 21.5 53 t54.5 22q41 0 68.5 -33.5t27.5 -103.5q0 -92 -51 -160.5t-86 -68.5q-18 0 -33.5 15.5t-15.5 31.5z" />
<glyph unicode="&#x13d;" horiz-adv-x="1314" d="M94 61q0 29 15.5 44.5t29 17.5t37.5 2h111v1001h-111q-82 0 -82 62q0 29 15.5 44t29 17t37.5 2h412q25 0 38 -2t28.5 -17t15.5 -44q0 -61 -82 -62h-160v-1001h653v141q0 29 2 43.5t19.5 27.5t50.5 13q47 0 58.5 -21.5t11.5 -62.5v-182q0 -49 -16.5 -66.5t-65.5 -17.5 h-965q-82 0 -82 61zM788 932q0 18 23 41q61 49 68 125q-76 6 -76 78q0 31 21.5 53t54.5 22q41 0 68.5 -33.5t27.5 -103.5q0 -92 -51.5 -160.5t-85.5 -68.5q-18 0 -34 15.5t-16 31.5z" />
<glyph unicode="&#x13e;" horiz-adv-x="598" d="M35 61q0 29 15.5 44.5t28.5 17.5t38 2h110v1001h-110q-82 0 -82 62q0 29 15.5 44t28.5 17t38 2h170q51 0 66.5 -17t15.5 -67v-1042h110q25 0 38 -2t28.5 -17.5t15.5 -44.5q0 -61 -82 -61h-362q-82 0 -82 61zM449 932q0 18 22 41q61 49 68 125q-76 6 -76 78q0 31 21.5 53 t54.5 22q41 0 68.5 -33.5t27.5 -103.5q0 -92 -51.5 -160.5t-85.5 -68.5q-18 0 -33.5 15.5t-15.5 31.5z" />
<glyph unicode="&#x13f;" horiz-adv-x="1314" d="M94 61q0 29 15.5 44.5t29 17.5t37.5 2h111v1001h-111q-82 0 -82 62q0 29 15.5 44t29 17t37.5 2h412q25 0 38 -2t28.5 -17t15.5 -44q0 -61 -82 -62h-160v-1001h653v141q0 29 2 43.5t19.5 27.5t50.5 13q47 0 58.5 -21.5t11.5 -62.5v-182q0 -49 -16.5 -66.5t-65.5 -17.5 h-965q-82 0 -82 61zM909 649q0 41 30 72t75 31q41 0 71.5 -31t30.5 -72t-29.5 -71.5t-74.5 -30.5q-41 0 -72 30.5t-31 71.5z" />
<glyph unicode="&#x140;" horiz-adv-x="636" d="M35 61q0 29 15.5 44.5t28.5 17.5t38 2h110v1001h-110q-82 0 -82 62q0 29 15.5 44t28.5 17t38 2h170q51 0 66.5 -17t15.5 -67v-1042h110q25 0 38 -2t28.5 -17.5t15.5 -44.5q0 -61 -82 -61h-362q-82 0 -82 61zM512 649q0 41 29.5 72t74.5 31q41 0 72 -31t31 -72t-30 -71.5 t-75 -30.5q-41 0 -71.5 30.5t-30.5 71.5z" />
<glyph unicode="&#x141;" horiz-adv-x="1314" d="M94 61q0 29 15.5 44.5t29 17.5t37.5 2h111v418l-74 -56q-23 -16 -46.5 -11t-35.5 26h-2q-12 23 -7 46t23 38l142 102v438h-111q-82 0 -82 62q0 29 15.5 44t29 17t37.5 2h412q25 0 38 -2t28.5 -17t15.5 -44q0 -61 -82 -62h-160v-354l344 242q20 14 44 9t38 -26v-2 q14 -23 10 -46t-24 -38l-412 -284v-502h653v141q0 29 2 43.5t19.5 27.5t50.5 13q47 0 58.5 -21.5t11.5 -62.5v-182q0 -49 -16.5 -66.5t-65.5 -17.5h-965q-82 0 -82 61z" />
<glyph unicode="&#x142;" horiz-adv-x="722" d="M-1 547.5q5 23.5 26 38.5l276 194v346h-111q-82 0 -81 62q0 29 15 44t28.5 17t37.5 2h170q51 0 66.5 -17t15.5 -67v-301l209 148q20 14 44 9t38 -26v-2q14 -23 10 -46t-24 -38l-277 -192v-594h111q25 0 38 -2t28.5 -17.5t15.5 -44.5q0 -61 -82 -61h-363q-82 0 -81 61 q0 29 15 44.5t28.5 17.5t37.5 2h111v510l-209 -148q-25 -16 -47 -11t-35 26h-2q-14 22 -9 45.5z" />
<glyph unicode="&#x143;" horiz-adv-x="1552" d="M109 61q0 29 15 44.5t28.5 17.5t37.5 2h111v1001h-111q-82 0 -81 62q0 29 15 44t28.5 17t37.5 2h195q29 0 45 -2t41 -18.5t43 -48.5l619 -1078h2v1022h-111q-82 0 -82 62q0 29 15.5 44t28.5 17t38 2h336q25 0 38 -2t28.5 -17t15.5 -44q0 -61 -82 -62h-111v-1042 q0 -53 -16 -68.5t-68 -15.5q-29 0 -45 2t-40.5 18.5t-43.5 49.5l-618 1077h-2v-1022h110q25 0 38.5 -2t28.5 -17.5t15 -44.5q0 -61 -82 -61h-336q-81 0 -81 61zM561 1419q0 16 8.5 28.5t16.5 17.5t26 14l273 123l39 10q31 0 51 -20.5t20 -51.5q0 -45 -57 -72l-272 -120 q-20 -10 -37 -11q-35 0 -51.5 29.5t-16.5 52.5z" />
<glyph unicode="&#x144;" horiz-adv-x="1193" d="M35 61q0 29 15.5 44.5t28.5 17.5t38 2h110v633h-110q-82 0 -82 61q0 29 15.5 44.5t28.5 17.5t38 2h170q41 0 58 -12.5t20.5 -30t3.5 -62.5q127 117 301 117q295 0 295 -299v-471h110q25 0 38 -2t28.5 -17.5t15.5 -44.5q0 -61 -82 -61h-362q-25 0 -38 2t-28.5 17.5 t-15.5 43.5q0 61 82 62h110v459q0 96 -32.5 141t-133.5 45q-63 0 -125.5 -24.5t-112.5 -92t-50 -168.5v-360h110q25 0 38 -2t28.5 -17.5t15.5 -44.5q0 -61 -82 -61h-362q-82 0 -82 61zM381 1059q0 16 8 28.5t16.5 17.5t26.5 13l273 123l38 10q31 0 51.5 -20.5t20.5 -50.5 q0 -45 -57 -72l-273 -121q-20 -10 -36 -10q-35 0 -51.5 29.5t-16.5 52.5z" />
<glyph unicode="&#x145;" horiz-adv-x="1552" d="M109 61q0 29 15 44.5t28.5 17.5t37.5 2h111v1001h-111q-82 0 -81 62q0 29 15 44t28.5 17t37.5 2h195q29 0 45 -2t41 -18.5t43 -48.5l619 -1078h2v1022h-111q-82 0 -82 62q0 29 15.5 44t28.5 17t38 2h336q25 0 38 -2t28.5 -17t15.5 -44q0 -61 -82 -62h-111v-1042 q0 -53 -16 -68.5t-68 -15.5q-29 0 -45 2t-40.5 18.5t-43.5 49.5l-618 1077h-2v-1022h110q25 0 38.5 -2t28.5 -17.5t15 -44.5q0 -61 -82 -61h-336q-81 0 -81 61zM684 -387q0 18 23 41q61 49 67 125q-76 6 -76 78q0 31 21.5 53t54.5 22q41 0 68.5 -33.5t27.5 -103.5 q0 -92 -51 -160.5t-86 -68.5q-18 0 -33.5 15.5t-15.5 31.5z" />
<glyph unicode="&#x146;" horiz-adv-x="1193" d="M35 61q0 29 15.5 44.5t28.5 17.5t38 2h110v633h-110q-82 0 -82 61q0 29 15.5 44.5t28.5 17.5t38 2h170q41 0 58 -12.5t20.5 -30t3.5 -62.5q127 117 301 117q295 0 295 -299v-471h110q25 0 38 -2t28.5 -17.5t15.5 -44.5q0 -61 -82 -61h-362q-25 0 -38 2t-28.5 17.5 t-15.5 43.5q0 61 82 62h110v459q0 96 -32.5 141t-133.5 45q-63 0 -125.5 -24.5t-112.5 -92t-50 -168.5v-360h110q25 0 38 -2t28.5 -17.5t15.5 -44.5q0 -61 -82 -61h-362q-82 0 -82 61zM504 -387q0 18 22 41q61 49 68 125q-76 6 -76 78q0 31 21.5 53t54.5 22q41 0 68.5 -33.5 t27.5 -103.5q0 -92 -51 -160.5t-86 -68.5q-18 0 -33.5 15.5t-15.5 31.5z" />
<glyph unicode="&#x147;" horiz-adv-x="1552" d="M109 61q0 29 15 44.5t28.5 17.5t37.5 2h111v1001h-111q-82 0 -81 62q0 29 15 44t28.5 17t37.5 2h195q29 0 45 -2t41 -18.5t43 -48.5l619 -1078h2v1022h-111q-82 0 -82 62q0 29 15.5 44t28.5 17t38 2h336q25 0 38 -2t28.5 -17t15.5 -44q0 -61 -82 -62h-111v-1042 q0 -53 -16 -68.5t-68 -15.5q-29 0 -45 2t-40.5 18.5t-43.5 49.5l-618 1077h-2v-1022h110q25 0 38.5 -2t28.5 -17.5t15 -44.5q0 -61 -82 -61h-336q-81 0 -81 61zM481.5 1485q18.5 55 73.5 39l223 -68l223 68q55 16 74 -39t-37 -76l-241 -88q-18 -6 -39 0l-242 88 q-53 21 -34.5 76z" />
<glyph unicode="&#x148;" horiz-adv-x="1193" d="M35 61q0 29 15.5 44.5t28.5 17.5t38 2h110v633h-110q-82 0 -82 61q0 29 15.5 44.5t28.5 17.5t38 2h170q41 0 58 -12.5t20.5 -30t3.5 -62.5q127 117 301 117q295 0 295 -299v-471h110q25 0 38 -2t28.5 -17.5t15.5 -44.5q0 -61 -82 -61h-362q-25 0 -38 2t-28.5 17.5 t-15.5 43.5q0 61 82 62h110v459q0 96 -32.5 141t-133.5 45q-63 0 -125.5 -24.5t-112.5 -92t-50 -168.5v-360h110q25 0 38 -2t28.5 -17.5t15.5 -44.5q0 -61 -82 -61h-362q-82 0 -82 61zM304 1221.5q32 50.5 83 19.5l211 -127l211 127q51 31 83 -19.5t-20 -82.5l-241 -154 q-31 -20 -62 0l-245 154q-52 32 -20 82.5z" />
<glyph unicode="&#x14a;" horiz-adv-x="1552" d="M35 61q0 29 15.5 44.5t28.5 17.5t38 2h110v1001h-110q-82 0 -82 62q0 29 15.5 44t28.5 17t38 2h170q51 0 66.5 -17t15.5 -67v-47q182 154 485 154q262 0 444.5 -190.5t182.5 -456.5q0 -264 -119 -457t-326 -193q-39 0 -64.5 27t-25.5 63.5t25.5 63.5t64.5 27q41 0 66 -29 q119 33 177 173t58 325q0 207 -141 355t-342 148q-186 0 -326.5 -65.5t-158.5 -194.5v-745h110q25 0 38 -2t28.5 -17.5t15.5 -44.5q0 -61 -82 -61h-362q-82 0 -82 61z" />
<glyph unicode="&#x14b;" horiz-adv-x="1193" d="M106 61q0 29 15.5 44.5t29 17.5t37.5 2h111v633h-111q-82 0 -82 61q0 29 15.5 44.5t29 17.5t37.5 2h170q41 0 58.5 -12.5t20.5 -30t3 -62.5q127 117 301 117q295 0 295 -299v-471q0 -260 -61 -410q-76 -193 -246 -192q-29 0 -50.5 20.5t-21.5 50.5q0 29 21.5 50.5 t50.5 21.5q47 0 81 30t50.5 67.5t24.5 111.5t9 119t1 131v459q0 96 -33 141t-133 45q-63 0 -125.5 -24.5t-113 -92t-50.5 -168.5v-360h111q25 0 38 -2t28.5 -17.5t15.5 -44.5q0 -61 -82 -61h-363q-82 0 -82 61z" />
<glyph unicode="&#x14c;" horiz-adv-x="1673" d="M119 627q0 262 208 454.5t509 192.5q299 0 507.5 -190.5t208.5 -458.5q0 -262 -207.5 -455t-508.5 -193q-299 0 -508 191t-209 459zM260 649q0 -223 168 -385t407.5 -162t407.5 162t168 385q0 205 -168 352.5t-407.5 147.5t-407.5 -147.5t-168 -352.5zM451 1423 q0 29 15 44.5t28.5 17.5t37.5 2h611q25 0 38 -2t28.5 -17.5t15.5 -46.5q0 -29 -15.5 -44t-29 -17t-37.5 -2h-608q-25 0 -39.5 2t-29.5 17t-15 46z" />
<glyph unicode="&#x14d;" d="M78 442q0 188 134 323.5t324.5 135.5t324.5 -135t134 -324q0 -190 -134 -322t-324.5 -132t-324.5 132t-134 322zM152 1116q0 29 15 44.5t28.5 17.5t37.5 2h611q25 0 38 -2t28.5 -17.5t15.5 -46.5q0 -29 -15.5 -44t-29 -17t-37.5 -2h-608q-25 0 -39.5 2t-29.5 17t-15 46z M219 457q0 -141 92 -242.5t226 -101.5q131 0 224 101t93 243q0 135 -94 227t-223 92t-223.5 -92t-94.5 -227z" />
<glyph unicode="&#x14e;" horiz-adv-x="1673" d="M119 627q0 262 208 454.5t509 192.5q299 0 507.5 -190.5t208.5 -458.5q0 -262 -207.5 -455t-508.5 -193q-299 0 -508 191t-209 459zM260 649q0 -223 168 -385t407.5 -162t407.5 162t168 385q0 205 -168 352.5t-407.5 147.5t-407.5 -147.5t-168 -352.5zM477 1505 q0 63 64 64q51 0 61 -60q10 -41 235.5 -41t235.5 41q10 59 62 60q63 0 63 -64q0 -59 -34 -96t-99.5 -51.5t-109.5 -17.5t-117.5 -3t-117.5 3t-109.5 17.5t-99.5 51.5t-34 96z" />
<glyph unicode="&#x14f;" d="M78 442q0 188 134 323.5t324.5 135.5t324.5 -135t134 -324q0 -190 -134 -322t-324.5 -132t-324.5 132t-134 322zM178 1167q0 63 64 64q51 0 61 -60q10 -41 235.5 -41t235.5 41q10 59 62 60q63 0 63 -64q0 -59 -34 -96t-99.5 -51t-109.5 -17.5t-117.5 -3.5t-117.5 3.5 t-109.5 17.5t-99.5 51t-34 96zM219 457q0 -141 92 -242.5t226 -101.5q131 0 224 101t93 243q0 135 -94 227t-223 92t-223.5 -92t-94.5 -227z" />
<glyph unicode="&#x150;" horiz-adv-x="1673" d="M119 627q0 262 208 454.5t509 192.5q299 0 507.5 -190.5t208.5 -458.5q0 -262 -207.5 -455t-508.5 -193q-299 0 -508 191t-209 459zM260 649q0 -223 168 -385t407.5 -162t407.5 162t168 385q0 205 -168 352.5t-407.5 147.5t-407.5 -147.5t-168 -352.5zM502 1415 q0 27 35 55l143 115q31 25 53 25q31 0 51.5 -20.5t20.5 -51.5q0 -33 -39 -63l-143 -115q-27 -23 -48 -23q-27 0 -50 26.5t-23 51.5zM922 1415q0 27 34 55l144 115q31 25 53 25q31 0 51.5 -20.5t20.5 -51.5q0 -33 -39 -63l-144 -115q-27 -23 -47 -23q-27 0 -50 26.5t-23 51.5 z" />
<glyph unicode="&#x151;" d="M78 442q0 188 134 323.5t324.5 135.5t324.5 -135t134 -324q0 -190 -134 -322t-324.5 -132t-324.5 132t-134 322zM203 1057q0 27 35 55l143 115q31 25 53 24q31 0 51.5 -20.5t20.5 -50.5q0 -33 -39 -64l-143 -115q-27 -23 -48 -22q-27 0 -50 26.5t-23 51.5zM219 457 q0 -141 92 -242.5t226 -101.5q131 0 224 101t93 243q0 135 -94 227t-223 92t-223.5 -92t-94.5 -227zM623 1057q0 27 34 55l144 115q31 25 53 24q31 0 51.5 -20.5t20.5 -50.5q0 -33 -39 -64l-144 -115q-27 -23 -47 -22q-27 0 -50 26.5t-23 51.5z" />
<glyph unicode="&#x152;" horiz-adv-x="2150" d="M119 627q0 264 208 455.5t509 191.5l125 -8l71 -9q72 -6 111 -6h805q51 0 66.5 -17t15.5 -67v-149q0 -27 -2.5 -41t-19.5 -28.5t-50 -14.5q-47 0 -58.5 21.5t-11.5 62.5v108h-671v-415h454q0 51 3 70.5t18.5 32.5t50.5 13q47 0 58 -21.5t11 -62.5v-190q0 -27 -2 -41 t-18 -28.5t-49 -14.5q-49 0 -60.5 22.5t-11.5 94.5h-454v-461h731v141q0 27 2 41.5t19.5 28.5t49.5 14q47 0 58.5 -21.5t11.5 -62.5v-182q0 -49 -16.5 -66.5t-65.5 -17.5h-864q-63 0 -125 -8q-143 -14 -182 -15q-299 0 -508 191t-209 459zM260 649q0 -217 164 -382t422 -165 q147 0 186 58.5t41 247.5l2 219l-2 213q-2 193 -40 251t-187 58q-260 0 -423 -150.5t-163 -349.5z" />
<glyph unicode="&#x153;" horiz-adv-x="1673" d="M78 444.5q0 190.5 130 323.5t314 133q111 0 209 -54t164 -153q55 94 150.5 150.5t203.5 56.5q170 0 266.5 -121t96.5 -311q0 -37 -12.5 -54.5t-26.5 -20.5t-43 -3h-559q18 -123 112.5 -200.5t208.5 -77.5q131 0 181 123q16 45 67 45q72 0 72 -58q0 -61 -88 -148t-244 -87 q-135 0 -234.5 65.5t-148.5 143.5q-61 -94 -158.5 -151.5t-216.5 -57.5q-184 0 -314 133t-130 323.5zM219 457q0 -141 89 -242.5t214 -101.5t214 101t89 243q0 135 -90 227t-213 92t-213 -92t-90 -227zM973 514h495q-8 113 -62 187.5t-157 74.5q-94 0 -173.5 -72.5 t-102.5 -189.5z" />
<glyph unicode="&#x154;" horiz-adv-x="1552" d="M94 61q0 29 15.5 44.5t29 17.5t37.5 2h111v1001h-111q-82 0 -82 62q0 29 15.5 44t29 17t37.5 2h549q225 0 391 -100t166 -244q0 -84 -62.5 -157.5t-172.5 -120.5q76 -37 114 -94q29 -43 35 -78t6 -127q0 -49 1 -73t6 -59.5t16.5 -52t33 -30t54.5 -13.5q35 0 60.5 24 t29.5 69q6 61 70 61q72 0 71 -63q0 -80 -64.5 -148t-166.5 -68q-131 0 -199 93q-37 51 -45 98t-8 154q0 98 -11.5 129.5t-70.5 64.5q-94 47 -258 47h-293v-438h111q25 0 38 -2t28.5 -17.5t15.5 -44.5q0 -61 -82 -61h-363q-82 0 -82 61zM428 688h279q170 0 302 62.5 t132 156.5t-132 156.5t-302 62.5h-279v-438zM561 1419q0 16 8.5 28.5t16.5 17.5t26 14l273 123l39 10q31 0 51 -20.5t20 -51.5q0 -45 -57 -72l-272 -120q-20 -10 -37 -11q-35 0 -51.5 29.5t-16.5 52.5z" />
<glyph unicode="&#x155;" horiz-adv-x="835" d="M35 61q0 29 15.5 44.5t28.5 17.5t38 2h110v633h-110q-82 0 -82 61q0 29 15.5 44.5t28.5 17.5t38 2h170q41 0 58 -12.5t20.5 -31t3.5 -69.5q106 125 252 125q72 0 112.5 -40t40.5 -87q0 -39 -25.5 -63.5t-60.5 -24.5q-29 0 -56.5 19.5t-29.5 68.5q-76 -8 -130 -67.5 t-78.5 -140.5t-24.5 -175v-260h159q25 0 38.5 -2t28.5 -17.5t15 -44.5q0 -61 -82 -61h-411q-82 0 -82 61zM203 1059q0 16 8 28.5t16.5 17.5t26.5 13l272 123l39 10q31 0 51.5 -20.5t20.5 -50.5q0 -45 -57 -72l-273 -121q-20 -10 -37 -10q-35 0 -51 29.5t-16 52.5z" />
<glyph unicode="&#x156;" horiz-adv-x="1552" d="M94 61q0 29 15.5 44.5t29 17.5t37.5 2h111v1001h-111q-82 0 -82 62q0 29 15.5 44t29 17t37.5 2h549q225 0 391 -100t166 -244q0 -84 -62.5 -157.5t-172.5 -120.5q76 -37 114 -94q29 -43 35 -78t6 -127q0 -49 1 -73t6 -59.5t16.5 -52t33 -30t54.5 -13.5q35 0 60.5 24 t29.5 69q6 61 70 61q72 0 71 -63q0 -80 -64.5 -148t-166.5 -68q-131 0 -199 93q-37 51 -45 98t-8 154q0 98 -11.5 129.5t-70.5 64.5q-94 47 -258 47h-293v-438h111q25 0 38 -2t28.5 -17.5t15.5 -44.5q0 -61 -82 -61h-363q-82 0 -82 61zM428 688h279q170 0 302 62.5 t132 156.5t-132 156.5t-302 62.5h-279v-438zM684 -387q0 18 23 41q61 49 67 125q-76 6 -76 78q0 31 21.5 53t54.5 22q41 0 68.5 -33.5t27.5 -103.5q0 -92 -51 -160.5t-86 -68.5q-18 0 -33.5 15.5t-15.5 31.5z" />
<glyph unicode="&#x157;" horiz-adv-x="835" d="M35 61q0 29 15.5 44.5t28.5 17.5t38 2h110v633h-110q-82 0 -82 61q0 29 15.5 44.5t28.5 17.5t38 2h170q41 0 58 -12.5t20.5 -31t3.5 -69.5q106 125 252 125q72 0 112.5 -40t40.5 -87q0 -39 -25.5 -63.5t-60.5 -24.5q-29 0 -56.5 19.5t-29.5 68.5q-76 -8 -130 -67.5 t-78.5 -140.5t-24.5 -175v-260h159q25 0 38.5 -2t28.5 -17.5t15 -44.5q0 -61 -82 -61h-411q-82 0 -82 61zM207 -387q0 18 22 41q61 49 68 125q-76 6 -76 78q0 31 21.5 53t54.5 22q41 0 68.5 -33.5t27.5 -103.5q0 -92 -51 -160.5t-86 -68.5q-18 0 -33.5 15.5t-15.5 31.5z" />
<glyph unicode="&#x158;" horiz-adv-x="1552" d="M94 61q0 29 15.5 44.5t29 17.5t37.5 2h111v1001h-111q-82 0 -82 62q0 29 15.5 44t29 17t37.5 2h549q225 0 391 -100t166 -244q0 -84 -62.5 -157.5t-172.5 -120.5q76 -37 114 -94q29 -43 35 -78t6 -127q0 -49 1 -73t6 -59.5t16.5 -52t33 -30t54.5 -13.5q35 0 60.5 24 t29.5 69q6 61 70 61q72 0 71 -63q0 -80 -64.5 -148t-166.5 -68q-131 0 -199 93q-37 51 -45 98t-8 154q0 98 -11.5 129.5t-70.5 64.5q-94 47 -258 47h-293v-438h111q25 0 38 -2t28.5 -17.5t15.5 -44.5q0 -61 -82 -61h-363q-82 0 -82 61zM428 688h279q170 0 302 62.5 t132 156.5t-132 156.5t-302 62.5h-279v-438zM481.5 1485q18.5 55 73.5 39l223 -68l223 68q55 16 74 -39t-37 -76l-241 -88q-18 -6 -39 0l-242 88q-53 21 -34.5 76z" />
<glyph unicode="&#x159;" horiz-adv-x="835" d="M35 61q0 29 15.5 44.5t28.5 17.5t38 2h110v633h-110q-82 0 -82 61q0 29 15.5 44.5t28.5 17.5t38 2h170q41 0 58 -12.5t20.5 -31t3.5 -69.5q106 125 252 125q72 0 112.5 -40t40.5 -87q0 -39 -25.5 -63.5t-60.5 -24.5q-29 0 -56.5 19.5t-29.5 68.5q-76 -8 -130 -67.5 t-78.5 -140.5t-24.5 -175v-260h159q25 0 38.5 -2t28.5 -17.5t15 -44.5q0 -61 -82 -61h-411q-82 0 -82 61zM126 1221.5q32 50.5 83 19.5l211 -127l211 127q51 31 82.5 -19.5t-19.5 -82.5l-241 -154q-31 -20 -62 0l-246 154q-51 32 -19 82.5z" />
<glyph unicode="&#x15a;" horiz-adv-x="1193" d="M119 61v271q0 27 2 41t19.5 28.5t49.5 14.5q31 0 47.5 -12.5t18.5 -23.5t4 -32q8 -125 113 -188q100 -57 274 -58q133 0 213 70t80 160q0 39 -16.5 75.5t-32.5 53.5l-17 16q-47 41 -84.5 54.5t-140.5 35.5l-88 19q-113 25 -158 36t-94 33.5t-90 61.5q-100 96 -100 221 q0 135 118.5 235.5t303.5 100.5q209 0 331 -105q25 72 36.5 88.5t43.5 16.5q61 0 62 -84v-270q0 -27 -2 -41.5t-19.5 -28.5t-50.5 -14q-29 0 -44 10t-19.5 21.5t-8.5 33.5q-47 248 -331 248q-125 0 -206 -61.5t-81 -141.5q0 -82 67.5 -131t135.5 -63l303 -64 q137 -29 226 -127t89 -221q0 -143 -116.5 -253t-311.5 -110q-250 0 -385 99q-16 -47 -23.5 -62.5t-20.5 -26t-36 -10.5q-61 0 -61 84zM381 1419q0 16 8 28.5t16.5 17.5t26.5 14l273 123l38 10q31 0 51.5 -20.5t20.5 -51.5q0 -45 -57 -72l-273 -120q-20 -10 -36 -11 q-35 0 -51.5 29.5t-16.5 52.5z" />
<glyph unicode="&#x15b;" horiz-adv-x="847" d="M72 72v196q0 27 2 41.5t19.5 28.5t49.5 14q57 0 70 -51q12 -41 23.5 -67.5t35 -57.5t63.5 -47t95 -16q25 0 49.5 3t69.5 14t72.5 44t27.5 82q0 55 -46 90t-109 49q-35 0 -125 23q-297 55 -297 241q0 35 13 72t47 78t106.5 66.5t177.5 25.5q113 0 184 -41q14 41 59 41 q61 0 62 -84v-141q0 -27 -2 -41t-19.5 -28.5t-50.5 -14.5q-29 0 -45 11t-19 23.5t-5 30.5q-2 23 -7.5 37.5t-20.5 37t-51 33.5t-89 11q-109 0 -162 -32.5t-53 -84.5q0 -57 61 -81.5t207 -51.5q309 -57 309 -270q0 -104 -82 -186t-264 -82q-137 0 -223 69q-16 -70 -72 -69 q-61 0 -61 84zM209 1059q0 16 8 28.5t16.5 17.5t26.5 13l272 123l39 10q31 0 51.5 -20.5t20.5 -50.5q0 -45 -57 -72l-273 -121q-20 -10 -37 -10q-35 0 -51 29.5t-16 52.5z" />
<glyph unicode="&#x15c;" horiz-adv-x="1193" d="M119 61v271q0 27 2 41t19.5 28.5t49.5 14.5q31 0 47.5 -12.5t18.5 -23.5t4 -32q8 -125 113 -188q100 -57 274 -58q133 0 213 70t80 160q0 39 -16.5 75.5t-32.5 53.5l-17 16q-47 41 -84.5 54.5t-140.5 35.5l-88 19q-113 25 -158 36t-94 33.5t-90 61.5q-100 96 -100 221 q0 135 118.5 235.5t303.5 100.5q209 0 331 -105q25 72 36.5 88.5t43.5 16.5q61 0 62 -84v-270q0 -27 -2 -41.5t-19.5 -28.5t-50.5 -14q-29 0 -44 10t-19.5 21.5t-8.5 33.5q-47 248 -331 248q-125 0 -206 -61.5t-81 -141.5q0 -82 67.5 -131t135.5 -63l303 -64 q137 -29 226 -127t89 -221q0 -143 -116.5 -253t-311.5 -110q-250 0 -385 99q-16 -47 -23.5 -62.5t-20.5 -26t-36 -10.5q-61 0 -61 84zM301 1360q-18 55 37 76l242 88q18 6 38 0l242 -88q53 -20 35 -75.5t-74 -39.5l-223 68l-223 -68q-56 -16 -74 39z" />
<glyph unicode="&#x15d;" horiz-adv-x="847" d="M72 72v196q0 27 2 41.5t19.5 28.5t49.5 14q57 0 70 -51q12 -41 23.5 -67.5t35 -57.5t63.5 -47t95 -16q25 0 49.5 3t69.5 14t72.5 44t27.5 82q0 55 -46 90t-109 49q-35 0 -125 23q-297 55 -297 241q0 35 13 72t47 78t106.5 66.5t177.5 25.5q113 0 184 -41q14 41 59 41 q61 0 62 -84v-141q0 -27 -2 -41t-19.5 -28.5t-50.5 -14.5q-29 0 -45 11t-19 23.5t-5 30.5q-2 23 -7.5 37.5t-20.5 37t-51 33.5t-89 11q-109 0 -162 -32.5t-53 -84.5q0 -57 61 -81.5t207 -51.5q309 -57 309 -270q0 -104 -82 -186t-264 -82q-137 0 -223 69q-16 -70 -72 -69 q-61 0 -61 84zM132 1006.5q-32 50.5 20 83.5l241 153q31 20 62 0l245 -153q51 -33 19.5 -83.5t-82.5 -19.5l-211 127l-211 -127q-51 -31 -83 19.5z" />
<glyph unicode="&#x15e;" horiz-adv-x="1193" d="M119 61v271q0 27 2 41t19.5 28.5t49.5 14.5q31 0 47.5 -12.5t18.5 -23.5t4 -32q8 -125 113 -188q100 -57 274 -58q133 0 213 70t80 160q0 39 -16.5 75.5t-32.5 53.5l-17 16q-47 41 -84.5 54.5t-140.5 35.5l-88 19q-113 25 -158 36t-94 33.5t-90 61.5q-100 96 -100 221 q0 135 118.5 235.5t303.5 100.5q209 0 331 -105q25 72 36.5 88.5t43.5 16.5q61 0 62 -84v-270q0 -27 -2 -41.5t-19.5 -28.5t-50.5 -14q-29 0 -44 10t-19.5 21.5t-8.5 33.5q-47 248 -331 248q-125 0 -206 -61.5t-81 -141.5q0 -82 67.5 -131t135.5 -63l303 -64 q137 -29 226 -127t89 -221q0 -127 -93 -229.5t-253 -126.5v-4q80 -20 129 -71.5t49 -127.5q0 -49 -18.5 -87t-58.5 -59.5t-75.5 -35t-96 -18.5t-94.5 -6t-93 -1q-23 0 -43 15.5t-20 48.5q0 31 17 45t36.5 16t60.5 2q141 0 192.5 20.5t51.5 61.5q0 33 -33 55.5t-84 26.5 q-29 2 -43 16.5t-16 26.5t-2 37v35q-203 8 -326 96q-16 -47 -23.5 -62.5t-20.5 -26t-36 -10.5q-61 0 -61 84z" />
<glyph unicode="&#x15f;" horiz-adv-x="847" d="M72 72v196q0 27 2 41.5t19.5 28.5t49.5 14q57 0 70 -51q12 -41 23.5 -67.5t35 -57.5t63.5 -47t95 -16q25 0 49.5 3t69.5 14t72.5 44t27.5 82q0 55 -46 90t-109 49q-35 0 -125 23q-297 55 -297 241q0 35 13 72t47 78t106.5 66.5t177.5 25.5q113 0 184 -41q14 41 59 41 q61 0 62 -84v-141q0 -27 -2 -41t-19.5 -28.5t-50.5 -14.5q-29 0 -45 11t-19 23.5t-5 30.5q-2 23 -7.5 37.5t-20.5 37t-51 33.5t-89 11q-109 0 -162 -32.5t-53 -84.5q0 -57 61 -81.5t207 -51.5q309 -57 309 -270q0 -82 -52 -154.5t-167 -99.5v-22q80 -20 129 -71.5t49 -127.5 q0 -49 -18.5 -87t-58.5 -59.5t-75.5 -35t-96 -18.5t-94.5 -6t-93 -1q-23 0 -43.5 15.5t-20.5 48.5q0 31 17.5 45t37 16t60.5 2q141 0 192.5 20.5t51.5 61.5q0 33 -33 55.5t-84 26.5q-29 2 -43 16.5t-16 26.5t-2 37v43q-127 4 -209 69q-16 -70 -72 -69q-61 0 -61 84z" />
<glyph unicode="&#x160;" horiz-adv-x="1193" d="M119 61v271q0 27 2 41t19.5 28.5t49.5 14.5q31 0 47.5 -12.5t18.5 -23.5t4 -32q8 -125 113 -188q100 -57 274 -58q133 0 213 70t80 160q0 39 -16.5 75.5t-32.5 53.5l-17 16q-47 41 -84.5 54.5t-140.5 35.5l-88 19q-113 25 -158 36t-94 33.5t-90 61.5q-100 96 -100 221 q0 135 118.5 235.5t303.5 100.5q209 0 331 -105q25 72 36.5 88.5t43.5 16.5q61 0 62 -84v-270q0 -27 -2 -41.5t-19.5 -28.5t-50.5 -14q-29 0 -44 10t-19.5 21.5t-8.5 33.5q-47 248 -331 248q-125 0 -206 -61.5t-81 -141.5q0 -82 67.5 -131t135.5 -63l303 -64 q137 -29 226 -127t89 -221q0 -143 -116.5 -253t-311.5 -110q-250 0 -385 99q-16 -47 -23.5 -62.5t-20.5 -26t-36 -10.5q-61 0 -61 84zM301 1485q18 55 74 39l223 -68l223 68q55 16 73.5 -39t-36.5 -76l-242 -88q-20 -6 -38 0l-242 88q-53 21 -35 76z" />
<glyph unicode="&#x161;" horiz-adv-x="847" d="M72 72v196q0 27 2 41.5t19.5 28.5t49.5 14q57 0 70 -51q12 -41 23.5 -67.5t35 -57.5t63.5 -47t95 -16q25 0 49.5 3t69.5 14t72.5 44t27.5 82q0 55 -46 90t-109 49q-35 0 -125 23q-297 55 -297 241q0 35 13 72t47 78t106.5 66.5t177.5 25.5q113 0 184 -41q14 41 59 41 q61 0 62 -84v-141q0 -27 -2 -41t-19.5 -28.5t-50.5 -14.5q-29 0 -45 11t-19 23.5t-5 30.5q-2 23 -7.5 37.5t-20.5 37t-51 33.5t-89 11q-109 0 -162 -32.5t-53 -84.5q0 -57 61 -81.5t207 -51.5q309 -57 309 -270q0 -104 -82 -186t-264 -82q-137 0 -223 69q-16 -70 -72 -69 q-61 0 -61 84zM132 1221.5q32 50.5 83 19.5l211 -127l211 127q51 31 83 -19.5t-20 -82.5l-241 -154q-31 -20 -62 0l-245 154q-52 32 -20 82.5z" />
<glyph unicode="&#x162;" horiz-adv-x="1552" d="M78 1018v149q0 51 16.5 67.5t67.5 16.5h1229q51 0 66.5 -17t15.5 -67v-149q0 -27 -2.5 -41t-19.5 -28.5t-50 -14.5q-47 0 -58.5 21.5t-11.5 62.5v108h-485v-1001h190q84 0 84 -64q0 -61 -84 -61h-190l2 -27q80 -20 129 -71.5t49 -126.5q0 -49 -18.5 -87t-58.5 -59.5 t-75.5 -35t-96 -18.5t-94.5 -6t-93 -1q-23 0 -43.5 15.5t-20.5 47.5q0 31 17.5 45.5t37 16.5t60.5 2q141 0 192.5 20.5t51.5 61.5q0 33 -33 55.5t-84 26.5q-29 2 -43 16t-16 26.5t-2 37.5v61h-193q-84 0 -84 63q0 61 84 62h191v1001h-486v-108q0 -27 -2 -41t-19.5 -28.5 t-50.5 -14.5q-47 0 -58 21.5t-11 62.5z" />
<glyph unicode="&#x163;" horiz-adv-x="835" d="M39 819q0 63 84 64h104v168q0 27 2 41t19.5 28.5t50.5 14.5q47 0 58.5 -21.5t11.5 -62.5v-168h227q25 0 38 -2t28.5 -17.5t15.5 -44.5q0 -61 -82 -61h-227v-494q0 -152 100 -151q43 0 73.5 37.5t30.5 107.5q0 25 2.5 38t18.5 27.5t49 14.5t50.5 -14.5t19.5 -27.5t2 -40 q0 -94 -51.5 -163.5t-131.5 -94.5v-25q80 -20 129.5 -71.5t49.5 -126.5q0 -49 -18.5 -87t-58.5 -59.5t-76 -35t-96.5 -18.5t-94 -6t-93.5 -1q-23 0 -43 15.5t-20 47.5q0 31 17.5 45.5t37 16.5t60.5 2q141 0 192 20.5t51 61.5q0 33 -32.5 55.5t-83.5 26.5q-29 2 -43.5 16 t-16.5 26.5t-2 37.5v59q-164 45 -164 254v506h-106q-82 0 -82 61z" />
<glyph unicode="&#x164;" horiz-adv-x="1552" d="M78 1018v149q0 51 16.5 67.5t67.5 16.5h1229q51 0 66.5 -17t15.5 -67v-149q0 -27 -2.5 -41t-19.5 -28.5t-50 -14.5q-47 0 -58.5 21.5t-11.5 62.5v108h-485v-1001h190q84 0 84 -64q0 -61 -84 -61h-522q-84 0 -84 63q0 61 84 62h191v1001h-486v-108q0 -27 -2 -41 t-19.5 -28.5t-50.5 -14.5q-47 0 -58 21.5t-11 62.5zM481.5 1485q18.5 55 73.5 39l223 -68l223 68q55 16 74 -39t-37 -76l-241 -88q-18 -6 -39 0l-242 88q-53 21 -34.5 76z" />
<glyph unicode="&#x165;" horiz-adv-x="835" d="M39 819q0 63 84 64h104v168q0 27 2 41t19.5 28.5t50.5 14.5q47 0 58.5 -21.5t11.5 -62.5v-168h227q25 0 38 -2t28.5 -17.5t15.5 -44.5q0 -61 -82 -61h-227v-494q0 -152 100 -151q43 0 73.5 37.5t30.5 107.5q0 25 2.5 38t18.5 27.5t49 14.5t50.5 -14.5t19.5 -27.5t2 -40 q0 -117 -75 -192.5t-179 -75.5q-90 0 -162 61.5t-72 202.5v506h-106q-82 0 -82 61zM449 1008q0 18 22 41q61 49 68 125q-76 6 -76 77q0 31 21.5 53.5t54.5 22.5q41 0 68.5 -33.5t27.5 -103.5q0 -92 -51.5 -160.5t-85.5 -68.5q-18 0 -33.5 15.5t-15.5 31.5z" />
<glyph unicode="&#x168;" horiz-adv-x="1552" d="M94 1188q0 29 15.5 44t29 17t37.5 2h363q25 0 38 -2t28.5 -17t15.5 -44q0 -61 -82 -62h-111v-692q0 -160 107.5 -246t240.5 -86q129 0 237.5 86t108.5 246v692h-110q-82 0 -82 62q0 29 15.5 44t28.5 17t38 2h362q25 0 38 -2t28.5 -17t15.5 -44q0 -61 -82 -62h-110v-704 q0 -188 -143.5 -316.5t-346.5 -128.5q-199 0 -343 127t-144 318v704h-111q-82 1 -82 62zM467 1382q0 37 100 113q92 68 160 68t137 -70q47 -43 64 -43q47 0 143 90q27 23 49 23q25 0 44.5 -20.5t19.5 -45.5q0 -37 -101 -113q-92 -68 -159.5 -67.5t-137.5 69.5q-47 43 -63 44 q-47 0 -143 -91q-27 -23 -50 -22q-25 0 -44 20t-19 45z" />
<glyph unicode="&#x169;" horiz-adv-x="1193" d="M35 819q0 29 15.5 44.5t28.5 17.5t38 2h170q51 0 66.5 -17.5t15.5 -66.5v-551q0 -33 3 -49.5t19.5 -40t57 -34.5t106.5 -11q37 0 74 6t85 24.5t78.5 64.5t30.5 114v436h-110q-25 0 -38 2t-28.5 17.5t-15.5 43.5q0 61 82 62h170q51 0 66.5 -17.5t15.5 -66.5v-674h110 q25 0 38 -2t28.5 -17.5t15.5 -44.5q0 -61 -82 -61h-170q-27 0 -40 2t-27.5 19.5t-14.5 50.5q-109 -84 -280 -84q-315 0 -316 248v522h-110q-82 0 -82 61zM240 1057q0 37 100 112q92 68 159.5 68t137.5 -70q47 -43 63 -43q47 0 144 90q27 23 49 23q25 0 44 -20.5t19 -45.5 q0 -37 -100 -112q-92 -68 -159.5 -68t-137.5 70q-47 43 -63 43q-47 0 -144 -90q-27 -23 -49 -23q-25 0 -44 20.5t-19 45.5z" />
<glyph unicode="&#x16a;" horiz-adv-x="1552" d="M94 1188q0 29 15.5 44t29 17t37.5 2h363q25 0 38 -2t28.5 -17t15.5 -44q0 -61 -82 -62h-111v-692q0 -160 107.5 -246t240.5 -86q129 0 237.5 86t108.5 246v692h-110q-82 0 -82 62q0 29 15.5 44t28.5 17t38 2h362q25 0 38 -2t28.5 -17t15.5 -44q0 -61 -82 -62h-110v-704 q0 -188 -143.5 -316.5t-346.5 -128.5q-199 0 -343 127t-144 318v704h-111q-82 1 -82 62zM438 1423q0 29 15.5 44.5t29 17.5t37.5 2h610q25 0 38.5 -2t28.5 -17.5t15 -46.5q0 -29 -15 -44t-28.5 -17t-38.5 -2h-608q-25 0 -39 2t-29.5 17t-15.5 46z" />
<glyph unicode="&#x16b;" horiz-adv-x="1193" d="M35 819q0 29 15.5 44.5t28.5 17.5t38 2h170q51 0 66.5 -17.5t15.5 -66.5v-551q0 -33 3 -49.5t19.5 -40t57 -34.5t106.5 -11q37 0 74 6t85 24.5t78.5 64.5t30.5 114v436h-110q-25 0 -38 2t-28.5 17.5t-15.5 43.5q0 61 82 62h170q51 0 66.5 -17.5t15.5 -66.5v-674h110 q25 0 38 -2t28.5 -17.5t15.5 -44.5q0 -61 -82 -61h-170q-27 0 -40 2t-27.5 19.5t-14.5 50.5q-109 -84 -280 -84q-315 0 -316 248v522h-110q-82 0 -82 61zM211 1116q0 29 15.5 44.5t28.5 17.5t38 2h610q25 0 38 -2t28.5 -17.5t15.5 -46.5q0 -29 -15.5 -44t-28.5 -17t-38 -2 h-608q-25 0 -39 2t-29.5 17t-15.5 46z" />
<glyph unicode="&#x16c;" horiz-adv-x="1552" d="M94 1188q0 29 15.5 44t29 17t37.5 2h363q25 0 38 -2t28.5 -17t15.5 -44q0 -61 -82 -62h-111v-692q0 -160 107.5 -246t240.5 -86q129 0 237.5 86t108.5 246v692h-110q-82 0 -82 62q0 29 15.5 44t28.5 17t38 2h362q25 0 38 -2t28.5 -17t15.5 -44q0 -61 -82 -62h-110v-704 q0 -188 -143.5 -316.5t-346.5 -128.5q-199 0 -343 127t-144 318v704h-111q-82 1 -82 62zM465 1505q0 63 63 64q51 0 62 -60q10 -41 235.5 -41t235.5 41q10 59 61 60q63 0 64 -64q0 -59 -34 -96t-99.5 -51.5t-109.5 -17.5t-117.5 -3t-117.5 3t-110 17.5t-99.5 51.5t-33.5 96z " />
<glyph unicode="&#x16d;" horiz-adv-x="1193" d="M35 819q0 29 15.5 44.5t28.5 17.5t38 2h170q51 0 66.5 -17.5t15.5 -66.5v-551q0 -33 3 -49.5t19.5 -40t57 -34.5t106.5 -11q37 0 74 6t85 24.5t78.5 64.5t30.5 114v436h-110q-25 0 -38 2t-28.5 17.5t-15.5 43.5q0 61 82 62h170q51 0 66.5 -17.5t15.5 -66.5v-674h110 q25 0 38 -2t28.5 -17.5t15.5 -44.5q0 -61 -82 -61h-170q-27 0 -40 2t-27.5 19.5t-14.5 50.5q-109 -84 -280 -84q-315 0 -316 248v522h-110q-82 0 -82 61zM238 1167q0 63 63 64q51 0 61 -60q10 -41 235.5 -41t236.5 41q10 59 61 60q63 0 63 -64q0 -59 -33.5 -96t-99 -51 t-109.5 -17.5t-118 -3.5t-118 3.5t-109.5 17.5t-99 51t-33.5 96z" />
<glyph unicode="&#x16e;" horiz-adv-x="1552" d="M94 1188q0 29 15.5 44t29 17t37.5 2h363q25 0 38 -2t28.5 -17t15.5 -44q0 -61 -82 -62h-111v-692q0 -160 107.5 -246t240.5 -86q129 0 237.5 86t108.5 246v692h-110q-82 0 -82 62q0 29 15.5 44t28.5 17t38 2h362q25 0 38 -2t28.5 -17t15.5 -44q0 -61 -82 -62h-110v-704 q0 -188 -143.5 -316.5t-346.5 -128.5q-199 0 -343 127t-144 318v704h-111q-82 1 -82 62zM584 1411q0 55 68.5 95t172.5 40q98 0 168 -40t70 -95t-68.5 -95t-173.5 -40q-98 0 -167.5 40t-69.5 95zM719 1411q0 -25 30.5 -42t73.5 -17q39 0 72 16t33 43q0 25 -31 42t-74 17 q-39 0 -71.5 -16t-32.5 -43z" />
<glyph unicode="&#x16f;" horiz-adv-x="1193" d="M35 819q0 29 15.5 44.5t28.5 17.5t38 2h170q51 0 66.5 -17.5t15.5 -66.5v-551q0 -33 3 -49.5t19.5 -40t57 -34.5t106.5 -11q37 0 74 6t85 24.5t78.5 64.5t30.5 114v436h-110q-25 0 -38 2t-28.5 17.5t-15.5 43.5q0 61 82 62h170q51 0 66.5 -17.5t15.5 -66.5v-674h110 q25 0 38 -2t28.5 -17.5t15.5 -44.5q0 -61 -82 -61h-170q-27 0 -40 2t-27.5 19.5t-14.5 50.5q-109 -84 -280 -84q-315 0 -316 248v522h-110q-82 0 -82 61zM356 1142.5q0 55.5 69 95.5t173 40q98 0 168 -40t70 -95.5t-69 -95t-173 -39.5q-98 0 -168 39.5t-70 95zM492 1143 q0 -25 30.5 -42.5t73.5 -17.5q39 0 71.5 16.5t32.5 43.5q0 25 -30.5 42t-73.5 17q-39 0 -71.5 -16t-32.5 -43z" />
<glyph unicode="&#x170;" horiz-adv-x="1552" d="M94 1188q0 29 15.5 44t29 17t37.5 2h363q25 0 38 -2t28.5 -17t15.5 -44q0 -61 -82 -62h-111v-692q0 -160 107.5 -246t240.5 -86q129 0 237.5 86t108.5 246v692h-110q-82 0 -82 62q0 29 15.5 44t28.5 17t38 2h362q25 0 38 -2t28.5 -17t15.5 -44q0 -61 -82 -62h-110v-704 q0 -188 -143.5 -316.5t-346.5 -128.5q-199 0 -343 127t-144 318v704h-111q-82 1 -82 62zM489 1415q0 27 35 55l144 115q31 25 53 25q31 0 51.5 -20.5t20.5 -51.5q0 -33 -39 -63l-144 -115q-27 -23 -47 -23q-27 0 -50.5 26.5t-23.5 51.5zM909 1415q0 27 35 55l143 115 q31 25 54 25q31 0 51 -20.5t20 -51.5q0 -33 -38 -63l-144 -115q-27 -23 -47 -23q-27 0 -50.5 26.5t-23.5 51.5z" />
<glyph unicode="&#x171;" horiz-adv-x="1193" d="M35 819q0 29 15.5 44.5t28.5 17.5t38 2h170q51 0 66.5 -17.5t15.5 -66.5v-551q0 -33 3 -49.5t19.5 -40t57 -34.5t106.5 -11q37 0 74 6t85 24.5t78.5 64.5t30.5 114v436h-110q-25 0 -38 2t-28.5 17.5t-15.5 43.5q0 61 82 62h170q51 0 66.5 -17.5t15.5 -66.5v-674h110 q25 0 38 -2t28.5 -17.5t15.5 -44.5q0 -61 -82 -61h-170q-27 0 -40 2t-27.5 19.5t-14.5 50.5q-109 -84 -280 -84q-315 0 -316 248v522h-110q-82 0 -82 61zM262 1057q0 27 35 55l143 115q31 25 54 24q31 0 51 -20.5t20 -50.5q0 -33 -39 -64l-143 -115q-27 -23 -47 -22 q-27 0 -50.5 26.5t-23.5 51.5zM682 1057q0 27 35 55l143 115q31 25 53 24q31 0 51.5 -20.5t20.5 -50.5q0 -33 -39 -64l-143 -115q-27 -23 -47 -22q-27 0 -50.5 26.5t-23.5 51.5z" />
<glyph unicode="&#x172;" horiz-adv-x="1552" d="M94 1188q0 29 15.5 44t29 17t37.5 2h363q25 0 38 -2t28.5 -17t15.5 -44q0 -61 -82 -62h-111v-692q0 -160 107.5 -246t240.5 -86q129 0 237.5 86t108.5 246v692h-110q-82 0 -82 62q0 29 15.5 44t28.5 17t38 2h362q25 0 38 -2t28.5 -17t15.5 -44q0 -61 -82 -62h-110v-704 q0 -184 -137.5 -311t-335.5 -134q-100 -78 -101 -202q0 -35 30 -57.5t60 -22.5q29 0 59.5 23.5t51.5 52.5q10 10 35.5 14t40.5 -4q12 -10 16 -36t-6 -40q-88 -121 -205 -121q-90 0 -146.5 61.5t-56.5 133.5q0 109 113 207q-168 29 -281.5 149.5t-113.5 286.5v704h-111 q-82 1 -82 62z" />
<glyph unicode="&#x173;" horiz-adv-x="1193" d="M35 819q0 29 15.5 44.5t28.5 17.5t38 2h170q51 0 66.5 -17.5t15.5 -66.5v-551q0 -33 3 -49.5t19.5 -40t57 -34.5t106.5 -11q37 0 74 6t85 24.5t78.5 64.5t30.5 114v436h-110q-25 0 -38 2t-28.5 17.5t-15.5 43.5q0 61 82 62h170q51 0 66.5 -17.5t15.5 -66.5v-674h110 q25 0 38 -2t28.5 -17.5t15.5 -44.5q0 -61 -82 -61h-37q-61 -33 -98 -93.5t-37 -131.5q0 -35 30 -57.5t60 -22.5q29 0 59.5 23.5t51.5 52.5q10 10 35.5 14t40.5 -4q12 -10 16 -36t-6 -40q-88 -121 -205 -121q-90 0 -146.5 61.5t-56.5 133.5q0 121 131 221h-8q-27 0 -40 2 t-27.5 19.5t-14.5 50.5q-109 -84 -280 -84q-315 0 -316 248v522h-110q-82 0 -82 61z" />
<glyph unicode="&#x174;" horiz-adv-x="2150" d="M49 1190q0 61 84 61h277q84 0 84 -63q0 -61 -84 -62h-86l311 -1038l330 1094q14 47 36.5 58t73.5 11q31 0 46.5 -2t35 -18.5t29.5 -48.5l327 -1094l312 1038h-86q-84 0 -84 62q0 63 84 63h276q84 0 84 -63q0 -61 -84 -62h-69l-322 -1073q-14 -47 -39.5 -58t-71.5 -11 q-55 0 -75.5 14t-34.5 63l-330 1090l-328 -1092q-16 -51 -38.5 -63t-71.5 -12q-80 0 -103 45l-329 1097h-70q-84 1 -84 64zM780.5 1360q-18.5 55 36.5 76l242 88q18 6 39 0l241 -88q53 -20 35 -75.5t-74 -39.5l-223 68l-223 -68q-55 -16 -73.5 39z" />
<glyph unicode="&#x175;" horiz-adv-x="1552" d="M47 821q0 61 84 62h277q84 0 84 -64q0 -61 -84 -61h-91l179 -652l190 703q12 41 30.5 57.5t63.5 16.5q33 0 53.5 -12.5t26.5 -23.5t12 -36l189 -688l172 635h-90q-84 0 -84 63q0 61 84 62h276q84 0 84 -64q0 -61 -84 -61h-67l-191 -697q-12 -47 -35.5 -58t-70.5 -11 q-61 0 -80 18.5t-35 81.5l-84 314l-78 331q-10 -88 -89 -388t-89 -318q-20 -39 -100 -39q-35 0 -51.5 3t-34 19.5t-27.5 51.5l-188 692h-68q-84 0 -84 63zM484.5 1006.5q-31.5 50.5 19.5 83.5l241 153q31 20 62 0l246 -153q51 -33 19 -83.5t-83 -19.5l-211 127l-211 -127 q-51 -31 -82.5 19.5z" />
<glyph unicode="&#x176;" horiz-adv-x="1552" d="M61 1190q0 61 84 61h320q84 0 84 -63q0 -61 -84 -62h-47l356 -483l359 483h-48q-84 0 -84 64q0 61 84 61h320q84 0 84 -63q0 -61 -84 -62h-98l-461 -626v-375h110q25 0 38.5 -2t28.5 -17.5t15 -44.5q0 -61 -82 -61h-362q-82 0 -82 61q0 29 15.5 44.5t28.5 17.5t38 2h111 v375l-461 626h-99q-84 1 -84 64zM481.5 1360q-18.5 55 36.5 76l242 88q20 6 39 0l241 -88q53 -20 35 -75.5t-74 -39.5l-223 68l-223 -68q-55 -16 -73.5 39z" />
<glyph unicode="&#x177;" horiz-adv-x="1134" d="M41 -299q0 41 24.5 65.5t65.5 24.5q37 0 62.5 -24.5t25.5 -65.5q0 -10 -2 -20.5t-2 -12.5q0 -10 31 -10q178 0 243 215q41 117 46 127l-310 758h-84q-84 0 -84 63q0 61 84 62h287q25 0 38 -2t28.5 -17.5t15.5 -44.5q0 -61 -82 -61h-78l195 -488l47 -129l201 617h-84 q-82 0 -82 61q0 29 15 44.5t28.5 17.5t38.5 2h288q25 0 38.5 -2t28.5 -17.5t15 -44.5q0 -61 -82 -61h-82l-317 -928q-39 -113 -133 -205t-223 -92q-86 0 -143.5 50t-57.5 118zM275.5 1006.5q-31.5 50.5 19.5 83.5l242 153q31 20 61 0l246 -153q51 -33 19 -83.5t-83 -19.5 l-211 127l-211 -127q-51 -31 -82.5 19.5z" />
<glyph unicode="&#x178;" horiz-adv-x="1552" d="M61 1190q0 61 84 61h320q84 0 84 -63q0 -61 -84 -62h-47l356 -483l359 483h-48q-84 0 -84 64q0 61 84 61h320q84 0 84 -63q0 -61 -84 -62h-98l-461 -626v-375h110q25 0 38.5 -2t28.5 -17.5t15 -44.5q0 -61 -82 -61h-362q-82 0 -82 61q0 29 15.5 44.5t28.5 17.5t38 2h111 v375l-461 626h-99q-84 1 -84 64zM483 1409q0 35 27 63.5t68 28.5q39 0 65.5 -27.5t26.5 -64.5t-27 -64.5t-68 -27.5q-37 0 -64.5 26.5t-27.5 65.5zM887 1409q0 35 26.5 63.5t67.5 28.5q39 0 65.5 -27.5t26.5 -64.5t-26.5 -64.5t-67.5 -27.5q-37 0 -64.5 26.5t-27.5 65.5z " />
<glyph unicode="&#x179;" horiz-adv-x="1314" d="M119 70q0 37 24 63l852 993h-704v-108q0 -27 -2 -41t-19.5 -28.5t-50.5 -14.5q-47 0 -58 21.5t-11 62.5v149q0 51 16 67.5t67 16.5h877q27 0 41 -2t28.5 -18.5t14.5 -48.5q0 -37 -25 -64l-852 -993h748v147q0 27 2 41.5t19.5 28.5t50.5 14q47 0 58 -21.5t11 -62.5v-188 q0 -49 -16 -66.5t-66 -17.5h-921q-27 0 -41.5 2t-28.5 18.5t-14 49.5zM440 1419q0 16 8.5 28.5t16.5 17.5t27 14l272 123l39 10q31 0 51 -20.5t20 -51.5q0 -45 -57 -72l-272 -120q-20 -10 -37 -11q-35 0 -51.5 29.5t-16.5 52.5z" />
<glyph unicode="&#x17a;" horiz-adv-x="956" d="M59 72q0 27 7 41l591 645h-426v-53q0 -27 -2 -41.5t-19 -28.5t-50 -14q-47 0 -58.5 21.5t-11.5 62.5v94q0 51 16.5 67.5t67.5 16.5h600q27 0 41 -2t28.5 -19.5t14.5 -50.5q0 -25 -6 -41l-592 -645h463v78q0 27 2 41t19.5 28.5t50.5 14.5q47 0 58 -21.5t11 -62.5v-119 q0 -49 -16.5 -66.5t-65.5 -17.5h-639q-27 0 -41 2t-28.5 19.5t-14.5 50.5zM262 1059q0 16 8.5 28.5t16.5 17.5t26 13l273 123l39 10q31 0 51 -20.5t20 -50.5q0 -45 -57 -72l-272 -121q-20 -10 -37 -10q-35 0 -51.5 29.5t-16.5 52.5z" />
<glyph unicode="&#x17b;" horiz-adv-x="1314" d="M119 70q0 37 24 63l852 993h-704v-108q0 -27 -2 -41t-19.5 -28.5t-50.5 -14.5q-47 0 -58 21.5t-11 62.5v149q0 51 16 67.5t67 16.5h877q27 0 41 -2t28.5 -18.5t14.5 -48.5q0 -37 -25 -64l-852 -993h748v147q0 27 2 41.5t19.5 28.5t50.5 14q47 0 58 -21.5t11 -62.5v-188 q0 -49 -16 -66.5t-66 -17.5h-921q-27 0 -41.5 2t-28.5 18.5t-14 49.5zM553 1442q0 41 29.5 71.5t74.5 30.5q41 0 72 -30.5t31 -71.5t-30 -72t-75 -31q-41 0 -71.5 31t-30.5 72z" />
<glyph unicode="&#x17c;" horiz-adv-x="956" d="M59 72q0 27 7 41l591 645h-426v-53q0 -27 -2 -41.5t-19 -28.5t-50 -14q-47 0 -58.5 21.5t-11.5 62.5v94q0 51 16.5 67.5t67.5 16.5h600q27 0 41 -2t28.5 -19.5t14.5 -50.5q0 -25 -6 -41l-592 -645h463v78q0 27 2 41t19.5 28.5t50.5 14.5q47 0 58 -21.5t11 -62.5v-119 q0 -49 -16.5 -66.5t-65.5 -17.5h-639q-27 0 -41 2t-28.5 19.5t-14.5 50.5zM375 1114q0 41 29.5 72t74.5 31q41 0 72 -31t31 -72t-30 -71.5t-75 -30.5q-41 0 -71.5 30.5t-30.5 71.5z" />
<glyph unicode="&#x17d;" horiz-adv-x="1314" d="M119 70q0 37 24 63l852 993h-704v-108q0 -27 -2 -41t-19.5 -28.5t-50.5 -14.5q-47 0 -58 21.5t-11 62.5v149q0 51 16 67.5t67 16.5h877q27 0 41 -2t28.5 -18.5t14.5 -48.5q0 -37 -25 -64l-852 -993h748v147q0 27 2 41.5t19.5 28.5t50.5 14q47 0 58 -21.5t11 -62.5v-188 q0 -49 -16 -66.5t-66 -17.5h-921q-27 0 -41.5 2t-28.5 18.5t-14 49.5zM360.5 1485q18.5 55 73.5 39l223 -68l224 68q55 16 73.5 -39t-36.5 -76l-242 -88q-20 -6 -39 0l-242 88q-53 21 -34.5 76z" />
<glyph unicode="&#x17e;" horiz-adv-x="956" d="M59 72q0 27 7 41l591 645h-426v-53q0 -27 -2 -41.5t-19 -28.5t-50 -14q-47 0 -58.5 21.5t-11.5 62.5v94q0 51 16.5 67.5t67.5 16.5h600q27 0 41 -2t28.5 -19.5t14.5 -50.5q0 -25 -6 -41l-592 -645h463v78q0 27 2 41t19.5 28.5t50.5 14.5q47 0 58 -21.5t11 -62.5v-119 q0 -49 -16.5 -66.5t-65.5 -17.5h-639q-27 0 -41 2t-28.5 19.5t-14.5 50.5zM185.5 1221.5q31.5 50.5 82.5 19.5l211 -127l211 127q51 31 83 -19.5t-19 -82.5l-242 -154q-31 -20 -61 0l-246 154q-51 32 -19.5 82.5z" />
<glyph unicode="&#x17f;" horiz-adv-x="657" d="M35 61q0 29 15.5 44.5t28.5 17.5t38 2h110v633h-88q-82 0 -82 61q0 63 84 64h86v108q0 127 94.5 200t225.5 73q195 0 194 -123q0 -41 -27.5 -65.5t-60.5 -24.5q-45 0 -67.5 34.5t-22.5 53.5q-35 0 -57.5 -3t-59 -16.5t-57 -49.5t-20.5 -91v-854h159q25 0 38.5 -2 t28.5 -17.5t15 -44.5q0 -61 -82 -61h-411q-82 0 -82 61z" />
<glyph unicode="&#x18e;" horiz-adv-x="1433" d="M94 84v182q0 27 2 41.5t18.5 28.5t49.5 14t50 -14t19.5 -28.5t2.5 -41.5v-141h802v461h-407q0 -51 -3 -70.5t-18.5 -33t-50.5 -13.5q-47 0 -58.5 21.5t-11.5 62.5v190q0 27 2.5 41.5t18.5 28.5t49 14q49 0 60.5 -22.5t11.5 -93.5h407v415h-743v-108q0 -27 -2 -41 t-18.5 -28.5t-49 -14.5t-50 14.5t-19.5 28.5t-2 41v149q0 49 15 66.5t67 17.5h1054q25 0 38 -2t28.5 -17t15.5 -44q0 -61 -82 -62h-110v-1001h110q25 0 38 -2t28.5 -17.5t15.5 -44.5q0 -61 -82 -61h-1114q-49 0 -65.5 17.5t-16.5 66.5z" />
<glyph unicode="&#x192;" horiz-adv-x="657" d="M35 61q0 29 15.5 44.5t28.5 17.5t38 2h110v633h-88q-82 0 -82 61q0 63 84 64h86v108q0 127 94.5 200t225.5 73q195 0 194 -123q0 -41 -27.5 -65.5t-60.5 -24.5q-45 0 -67.5 34.5t-22.5 53.5q-35 0 -57.5 -3t-59 -16.5t-57 -49.5t-20.5 -91v-96h166q25 0 38 -2t28 -17.5 t15 -44.5q0 -61 -81 -61h-166v-633h159q25 0 38.5 -2t28.5 -17.5t15 -44.5q0 -61 -82 -61h-411q-82 0 -82 61z" />
<glyph unicode="&#x1a0;" horiz-adv-x="1671" d="M119 625q0 270 209 458q213 190 506 191q168 0 317 -66q16 16 41 17q27 0 47 32q-66 23 -65 97q0 39 28.5 69.5t73.5 32.5q55 -2 78.5 -43t23.5 -96q0 -131 -92 -189q37 -29 53 -45q209 -186 209 -458q0 -270 -209 -457q-209 -190 -505 -191q-293 0 -506 191 q-98 88 -153.5 208t-55.5 249zM262 651q0 -227 168 -389q170 -160 404 -160q236 0 405 160q168 162 168 389q0 205 -168 353q-170 145 -405.5 145t-403.5 -145.5t-168 -352.5z" />
<glyph unicode="&#x1a1;" d="M78 440q0 190 133 324q135 135 324 135q115 0 217 -53q14 10 32 10q27 0 47 33q-66 23 -65 94q0 41 28.5 70.5t73.5 31.5q55 0 79 -40.5t24 -96.5q0 -139 -101 -194q123 -133 123 -314q0 -188 -135 -319q-137 -133 -323.5 -133t-323.5 133q-133 133 -133 319zM219 459 q0 -141 92 -244q94 -100 224 -100q133 0 223 100q94 100 94 244q0 129 -94 223q-96 92 -223 92t-224 -92q-92 -96 -92 -223z" />
<glyph unicode="&#x1af;" horiz-adv-x="1552" d="M94 1184v10q0 23 16.5 40t41.5 17h411q25 0 41.5 -17t16.5 -40v-10q0 -25 -16.5 -41.5t-41.5 -16.5h-135v-708q0 -131 100 -221q100 -94 246 -94.5t246 94.5q100 90 100 221v708h-135q-25 0 -41 16.5t-16 41.5v10q0 23 16.5 40t40.5 17h219q16 0 33 -10q20 10 31 21 q-53 31 -54 92q0 39 29 69.5t74 32.5q53 -2 77.5 -42t24.5 -95q0 -72 -44 -126t-113 -75v-700q0 -186 -146 -314q-139 -127 -342 -127t-342 127q-145 129 -145 314v708h-135q-25 0 -41.5 16.5t-16.5 41.5z" />
<glyph unicode="&#x1b0;" horiz-adv-x="1193" d="M33 813v10q0 25 17.5 41.5t41.5 16.5h219q23 0 40.5 -16.5t17.5 -41.5v-598q0 -55 34 -80q49 -31 162 -30q109 0 182.5 53t73.5 131v457h-135q-23 0 -40 17.5t-17 39.5v10q0 25 17.5 41.5t39.5 16.5h219q18 0 35 -11q16 6 41 23q-53 31 -53 90q0 41 28.5 71.5t73.5 30.5 q53 0 78 -40.5t25 -94.5q0 -74 -47.5 -128t-120.5 -74v-623h135q23 0 40 -16.5t17 -40.5v-11q0 -23 -17.5 -40t-39.5 -17h-221q-23 0 -40.5 17.5t-17.5 39.5v15q-113 -84 -268 -84q-154 0 -236 53q-90 59 -90 184v531h-135q-25 0 -42 17t-17 40z" />
<glyph unicode="&#x1dd;" horiz-adv-x="956" d="M78 422q0 27 6 43t19.5 23.5t24.5 8.5t32 1h590q-20 123 -114.5 200.5t-213.5 77.5q-154 0 -205 -123q-10 -29 -24.5 -37t-42.5 -8q-72 0 -72 58q0 63 93 149t263 86q193 0 327 -134t134 -325q0 -186 -125 -320t-305 -134q-182 0 -284.5 122t-102.5 312zM223 375 q10 -143 80 -202.5t162 -59.5q102 0 182 73.5t101 188.5h-525z" />
<glyph unicode="&#x1e6;" horiz-adv-x="1673" d="M119 627q0 262 206.5 454.5t510.5 192.5q272 0 434 -127q27 57 37 76q12 29 24 40t39 11q61 0 62 -84v-285q0 -27 -2.5 -41t-19.5 -28.5t-50 -14.5q-57 0 -68 47q-10 43 -19 68t-44 68t-92 75q-119 70 -287 70q-248 0 -419 -154.5t-171 -369.5t171 -369t411 -154 q166 0 289.5 91.5t152.5 234.5h-180q-25 0 -38 2t-28.5 17.5t-15.5 44.5q0 61 82 61h393q84 0 84 -64q0 -61 -84 -61h-65v-344q0 -27 -2.5 -41t-18.5 -28.5t-49 -14.5t-50.5 14.5t-19.5 28.5t-2 41v74q-180 -180 -459 -181q-295 0 -503.5 191t-208.5 459zM540.5 1485 q18.5 55 73.5 39l224 -68l223 68q55 16 73.5 -39t-36.5 -76l-242 -88q-20 -6 -39 0l-242 88q-53 21 -34.5 76z" />
<glyph unicode="&#x1e7;" d="M59 -168q0 162 152 254q-47 63 -47 147q0 80 41 140q-66 84 -66 194q0 133 98.5 230.5t239.5 97.5q109 0 199 -61q96 72 217 71q76 0 112.5 -33.5t36.5 -76.5q0 -41 -25.5 -62.5t-55.5 -21.5q-23 0 -47.5 16t-32.5 53q-68 -6 -119 -35q53 -88 53 -178q0 -137 -98.5 -233 t-239.5 -96q-109 0 -184 51q-12 -31 -12 -58l6 -26q4 -29 18 -47q25 -29 68 -29q16 -4 59 -4h143q186 0 297 -59q72 -39 107 -103.5t35 -130.5q0 -129 -139.5 -215t-338 -86t-338 85t-139.5 216zM171 1221.5q32 50.5 83 19.5l211 -127l211 127q51 31 83 -19.5t-20 -82.5 l-241 -154q-31 -20 -62 0l-246 154q-51 32 -19 82.5zM178 -168q0 -70 104.5 -124t254 -54t254 54t104.5 124q0 61 -35 100t-108.5 54.5t-125 18.5t-145.5 3q-117 0 -149.5 -4t-69.5 -29q-84 -53 -84 -143zM281 565q0 -82 57 -143.5t139 -61.5q80 0 138.5 60.5t58.5 146.5 q0 82 -57.5 143.5t-139.5 61.5q-80 0 -138 -60.5t-58 -146.5z" />
<glyph unicode="&#x1ea;" horiz-adv-x="1673" d="M119 627q0 262 208 454.5t509 192.5q299 0 507.5 -190.5t208.5 -458.5q0 -246 -186 -433.5t-463 -211.5q-102 -76 -102 -205q0 -35 29.5 -57.5t60.5 -22.5q29 0 59.5 23.5t50.5 52.5q10 10 36 14t40 -4q12 -10 16.5 -36t-6.5 -40q-88 -121 -204 -121q-90 0 -146.5 61.5 t-56.5 133.5q0 104 104 201q-283 16 -474 203.5t-191 443.5zM260 649q0 -223 168 -385t407.5 -162t407.5 162t168 385q0 205 -168 352.5t-407.5 147.5t-407.5 -147.5t-168 -352.5z" />
<glyph unicode="&#x1eb;" d="M78 442q0 188 134 323.5t324.5 135.5t324.5 -135t134 -324q0 -174 -116.5 -302t-286.5 -148q-119 -76 -119 -217q0 -35 29.5 -57.5t60.5 -22.5q29 0 59.5 23.5t51.5 52.5q10 10 35.5 14t40.5 -4q12 -10 16 -36t-6 -40q-88 -121 -205 -121q-90 0 -146.5 61.5t-56.5 133.5 q0 115 121 213q-168 23 -281.5 150.5t-113.5 299.5zM219 457q0 -141 92 -242.5t226 -101.5q131 0 224 101t93 243q0 135 -94 227t-223 92t-223.5 -92t-94.5 -227z" />
<glyph unicode="&#x1f4;" horiz-adv-x="1673" d="M119 627q0 262 206.5 454.5t510.5 192.5q272 0 434 -127q27 57 37 76q12 29 24 40t39 11q61 0 62 -84v-285q0 -27 -2.5 -41t-19.5 -28.5t-50 -14.5q-57 0 -68 47q-10 43 -19 68t-44 68t-92 75q-119 70 -287 70q-248 0 -419 -154.5t-171 -369.5t171 -369t411 -154 q166 0 289.5 91.5t152.5 234.5h-180q-25 0 -38 2t-28.5 17.5t-15.5 44.5q0 61 82 61h393q84 0 84 -64q0 -61 -84 -61h-65v-344q0 -27 -2.5 -41t-18.5 -28.5t-49 -14.5t-50.5 14.5t-19.5 28.5t-2 41v74q-180 -180 -459 -181q-295 0 -503.5 191t-208.5 459zM621 1419 q0 16 8 28.5t16 17.5t27 14l272 123l39 10q31 0 51.5 -20.5t20.5 -51.5q0 -45 -58 -72l-272 -120q-20 -10 -37 -11q-35 0 -51 29.5t-16 52.5z" />
<glyph unicode="&#x1f5;" d="M59 -168q0 162 152 254q-47 63 -47 147q0 80 41 140q-66 84 -66 194q0 133 98.5 230.5t239.5 97.5q109 0 199 -61q96 72 217 71q76 0 112.5 -33.5t36.5 -76.5q0 -41 -25.5 -62.5t-55.5 -21.5q-23 0 -47.5 16t-32.5 53q-68 -6 -119 -35q53 -88 53 -178q0 -137 -98.5 -233 t-239.5 -96q-109 0 -184 51q-12 -31 -12 -58l6 -26q4 -29 18 -47q25 -29 68 -29q16 -4 59 -4h143q186 0 297 -59q72 -39 107 -103.5t35 -130.5q0 -129 -139.5 -215t-338 -86t-338 85t-139.5 216zM178 -168q0 -70 104.5 -124t254 -54t254 54t104.5 124q0 61 -35 100 t-108.5 54.5t-125 18.5t-145.5 3q-117 0 -149.5 -4t-69.5 -29q-84 -53 -84 -143zM248 1059q0 16 8 28.5t16.5 17.5t26.5 13l272 123l39 10q31 0 51.5 -20.5t20.5 -50.5q0 -45 -57 -72l-273 -121q-20 -10 -37 -10q-35 0 -51 29.5t-16 52.5zM281 565q0 -82 57 -143.5 t139 -61.5q80 0 138.5 60.5t58.5 146.5q0 82 -57.5 143.5t-139.5 61.5q-80 0 -138 -60.5t-58 -146.5z" />
<glyph unicode="&#x1fa;" horiz-adv-x="1552" d="M84 63q0 61 82 62h94l387 1083q12 31 32.5 47.5t35 18.5t41.5 2h39q29 0 43 -2t33.5 -18.5t31.5 -49.5l387 -1081h94q25 0 38.5 -2t28.5 -17.5t15 -44.5q0 -61 -82 -61h-325q-84 0 -84 63q0 61 84 62h82l-82 227h-567l-82 -227h82q84 0 83 -64q0 -61 -83 -61h-326 q-25 0 -38 2t-28.5 17t-15.5 44zM537 477h477l-240 668zM537 1411q0 55 68.5 95t172.5 40q98 0 168 -40t70 -95t-68.5 -95t-173.5 -40q-98 0 -167.5 40t-69.5 95zM559 1669q0 16 8 28.5t16.5 17.5t26.5 14l273 122l39 11q31 0 51 -20.5t20 -51.5q0 -45 -57 -72l-272 -121 q-20 -10 -37 -10q-35 0 -51.5 29.5t-16.5 52.5zM672 1411q0 -25 30.5 -42t73.5 -17q39 0 72 16t33 43q0 25 -31 42t-74 17q-39 0 -71.5 -16t-32.5 -43z" />
<glyph unicode="&#x1fb;" horiz-adv-x="1044" d="M109 262q0 139 158.5 220t437.5 85q0 104 -68 156.5t-184 52.5q-51 0 -76 -2t-30 -6t-5 -16q-2 -49 -29.5 -72t-60.5 -23q-39 0 -65.5 25t-26.5 70q0 150 291 149q197 0 296 -95t99 -222v-443q37 -16 115 -16q82 0 81 -62q0 -31 -15 -45t-32.5 -16t-52.5 -2 q-170 0 -215 66q-113 -78 -291 -78q-143 0 -235 80.5t-92 193.5zM250 262q0 -61 56 -105t147 -44q100 0 172 32q37 16 55 41t21.5 41.5t3.5 46.5v172q-227 -8 -341 -59t-114 -125zM283 1142.5q0 55.5 68.5 95.5t172.5 40q98 0 168 -40t70 -95.5t-68.5 -95t-173.5 -39.5 q-98 0 -167.5 39.5t-69.5 95zM305 1401q0 16 8.5 28.5t16.5 17.5t26 13l273 123l39 10q31 0 51 -20.5t20 -50.5q0 -45 -57 -72l-272 -121q-20 -10 -37 -10q-35 0 -51.5 29.5t-16.5 52.5zM418 1143q0 -25 30.5 -42.5t73.5 -17.5q39 0 72 16.5t33 43.5q0 25 -31 42t-74 17 q-39 0 -71.5 -16t-32.5 -43z" />
<glyph unicode="&#x1fc;" horiz-adv-x="1910" d="M90 63q0 61 84 62h96l439 1001h-35q-84 0 -84 62q0 63 84 63h1034q51 0 66.5 -17t15.5 -67v-149q0 -27 -2 -41t-19.5 -28.5t-50.5 -14.5q-47 0 -58 21.5t-11 62.5v108h-547v-415h301q0 51 3 70.5t18.5 32.5t50.5 13q47 0 58 -21.5t11 -62.5v-190q0 -27 -2 -41 t-18.5 -28.5t-48.5 -14.5q-49 0 -60.5 22.5t-11.5 94.5h-301v-461h606v141q0 27 2 41.5t19.5 28.5t50.5 14q47 0 58 -21.5t11 -62.5v-182q0 -49 -16 -66.5t-66 -17.5h-868q-84 0 -84 61q0 63 84 64h62v250h-429l-108 -250h76q25 0 38 -2t28.5 -17.5t15.5 -44.5 q0 -61 -82 -61h-326q-84 0 -84 63zM588 500h373v626h-97zM739 1419q0 16 8.5 28.5t16.5 17.5t27 14l272 123l39 10q31 0 51.5 -20.5t20.5 -51.5q0 -45 -58 -72l-272 -120q-20 -10 -37 -11q-35 0 -51.5 29.5t-16.5 52.5z" />
<glyph unicode="&#x1fd;" horiz-adv-x="1552" d="M109 242q0 250 596 268v61q0 98 -66 151.5t-186 53.5q-47 0 -78 -2q-23 -2 -28 -6t-5 -16q-2 -49 -29.5 -72t-60.5 -23q-39 0 -65.5 25t-26.5 70q0 150 291 149q250 0 352 -164q135 164 325 164q170 0 266.5 -121t96.5 -311q0 -37 -12.5 -54.5t-26.5 -20.5t-43 -3h-559 q18 -123 112.5 -200.5t208.5 -77.5q131 0 181 123q16 45 67 45q72 0 72 -58q0 -61 -88 -148t-244 -87q-209 0 -348 162q-45 -92 -155.5 -127t-219.5 -35q-145 0 -236 76t-91 178zM250 244q0 -55 57.5 -93t147.5 -38q98 0 172 30q88 35 88 117q0 4 -8 127q-184 -8 -275 -29 q-182 -48 -182 -114zM561 1059q0 16 8.5 28.5t16.5 17.5t26 13l273 123l39 10q31 0 51 -20.5t20 -50.5q0 -45 -57 -72l-272 -121q-20 -10 -37 -10q-35 0 -51.5 29.5t-16.5 52.5zM852 514h496q-8 113 -62.5 187.5t-157.5 74.5q-94 0 -173.5 -72.5t-102.5 -189.5z" />
<glyph unicode="&#x1fe;" horiz-adv-x="1673" d="M119 627q0 262 208 454.5t509 192.5q84 0 170 -18.5t118.5 -36t49.5 -21.5l133 188q27 39 59 39q25 0 45.5 -17t20.5 -46l-5 -16q-4 -16 -18 -35l-129 -176q143 -104 207.5 -239.5t64.5 -270.5q0 -262 -207.5 -455t-508.5 -193q-190 0 -336 76l-140 -192q-25 -35 -55 -35 q-25 0 -45 17.5t-20 45.5q0 20 30 62l121 166q-143 104 -207.5 239.5t-64.5 270.5zM233 625q0 -127 64.5 -234.5t163.5 -175.5l637 883q-137 51 -262 51q-252 0 -427.5 -154.5t-175.5 -369.5zM573 154q137 -51 263 -52q252 0 427 155t175 370q0 129 -66.5 237.5 t-163.5 171.5zM621 1419q0 16 8 28.5t16 17.5t27 14l272 123l39 10q31 0 51.5 -20.5t20.5 -51.5q0 -45 -58 -72l-272 -120q-20 -10 -37 -11q-35 0 -51 29.5t-16 52.5z" />
<glyph unicode="&#x1ff;" d="M88 -225q0 18 35 78l135 233q-166 143 -166 356q0 188 130 323.5t315 135.5q84 0 174 -37l153 266q23 39 56 39q23 0 44 -16t21 -45q0 -18 -14 -43l-154 -266q164 -150 164 -357q0 -188 -131 -321t-313 -133q-90 0 -170 35l-158 -271q-20 -39 -55 -39q-23 0 -44.5 16.5 t-21.5 45.5zM207 442q0 -145 112 -249l328 565q-53 18 -110 18q-135 0 -232.5 -98.5t-97.5 -235.5zM311 1059q0 16 8.5 28.5t16.5 17.5t26 13l273 123l39 10q31 0 51 -20.5t20 -50.5q0 -45 -57 -72l-272 -121q-20 -10 -37 -10q-35 0 -51.5 29.5t-16.5 52.5zM430 129 q51 -16 107 -16q135 0 232 96t97 233q0 152 -112 250z" />
<glyph unicode="&#x200;" horiz-adv-x="1552" d="M84 63q0 61 82 62h94l387 1083q12 31 32.5 47.5t35 18.5t41.5 2h39q29 0 43 -2t33.5 -18.5t31.5 -49.5l387 -1081h94q25 0 38.5 -2t28.5 -17.5t15 -44.5q0 -61 -82 -61h-325q-84 0 -84 63q0 61 84 62h82l-82 227h-567l-82 -227h82q84 0 83 -64q0 -61 -83 -61h-326 q-25 0 -38 2t-28.5 17t-15.5 44zM330 1538q0 31 20.5 51.5t50.5 20.5q23 0 54 -25l143 -115q35 -29 35 -55q0 -25 -23.5 -51.5t-50.5 -26.5q-20 0 -47 23l-143 115q-39 30 -39 63zM537 477h477l-240 668zM750 1538q0 31 20.5 51.5t50.5 20.5q23 0 53 -25l144 -115 q35 -29 35 -55q0 -25 -23.5 -51.5t-50.5 -26.5q-20 0 -47 23l-144 115q-38 30 -38 63z" />
<glyph unicode="&#x201;" horiz-adv-x="1044" d="M109 262q0 139 158.5 220t437.5 85q0 104 -68 156.5t-184 52.5q-51 0 -76 -2t-30 -6t-5 -16q-2 -49 -29.5 -72t-60.5 -23q-39 0 -65.5 25t-26.5 70q0 150 291 149q197 0 296 -95t99 -222v-443q37 -16 115 -16q82 0 81 -62q0 -31 -15 -45t-32.5 -16t-52.5 -2 q-170 0 -215 66q-113 -78 -291 -78q-143 0 -235 80.5t-92 193.5zM135 1180q0 31 20.5 51t51.5 20q23 0 53 -24l143 -115q35 -29 35 -55q0 -25 -23.5 -51.5t-49.5 -26.5q-20 0 -48 22l-143 115q-39 31 -39 64zM250 262q0 -61 56 -105t147 -44q100 0 172 32q37 16 55 41 t21.5 41.5t3.5 46.5v172q-227 -8 -341 -59t-114 -125zM555 1180q0 31 20.5 51t51.5 20q23 0 53 -24l143 -115q35 -29 35 -55q0 -25 -23.5 -51.5t-50.5 -26.5q-20 0 -47 22l-143 115q-39 31 -39 64z" />
<glyph unicode="&#x204;" horiz-adv-x="1433" d="M94 61q0 29 15.5 44.5t29 17.5t37.5 2h111v1001h-111q-82 0 -82 62q0 29 15.5 44t29 17t37.5 2h1055q51 0 66.5 -17t15.5 -67v-149q0 -27 -2 -41t-19.5 -28.5t-50.5 -14.5q-47 0 -58.5 21.5t-11.5 62.5v108h-743v-415h408q0 51 3 70.5t18 32.5t50 13q47 0 58.5 -21.5 t11.5 -62.5v-190q0 -27 -2 -41t-18.5 -28.5t-49.5 -14.5q-49 0 -60 22.5t-11 94.5h-408v-461h803v141q0 27 2 41.5t19.5 28.5t50.5 14q47 0 58 -21.5t11 -62.5v-182q0 -49 -16.5 -66.5t-65.5 -17.5h-1114q-82 0 -82 61zM330 1538q0 31 20.5 51.5t50.5 20.5q23 0 54 -25 l143 -115q35 -29 35 -55q0 -25 -23.5 -51.5t-50.5 -26.5q-20 0 -47 23l-143 115q-39 30 -39 63zM750 1538q0 31 20.5 51.5t50.5 20.5q23 0 53 -25l144 -115q35 -29 35 -55q0 -25 -23.5 -51.5t-50.5 -26.5q-20 0 -47 23l-144 115q-38 30 -38 63z" />
<glyph unicode="&#x205;" horiz-adv-x="956" d="M78 446q0 186 125 320.5t305 134.5q182 0 284.5 -122t102.5 -312q0 -27 -6 -43t-19.5 -23.5t-24.5 -8.5t-32 -1h-590q20 -123 114.5 -200.5t213.5 -77.5q154 0 205 123q10 29 24.5 37t42.5 8q72 0 72 -58q0 -63 -93 -149t-263 -86q-193 0 -327 134t-134 324zM90 1180 q0 31 20.5 51t51.5 20q23 0 53 -24l143 -115q35 -29 35 -55q0 -25 -23.5 -51.5t-50.5 -26.5q-20 0 -47 22l-143 115q-39 31 -39 64zM225 514h525q-10 143 -80 202.5t-162 59.5q-102 0 -182.5 -73.5t-100.5 -188.5zM510 1180q0 31 20.5 51t51.5 20q23 0 53 -24l143 -115 q35 -29 35 -55q0 -25 -23.5 -51.5t-50.5 -26.5q-20 0 -47 22l-143 115q-39 31 -39 64z" />
<glyph unicode="&#x208;" horiz-adv-x="716" d="M-29 1538q0 31 20.5 51.5t51.5 20.5q23 0 53 -25l144 -115q35 -29 34 -55q0 -25 -23.5 -51.5t-49.5 -26.5q-20 0 -47 23l-144 115q-39 30 -39 63zM84 61q0 29 15.5 44.5t28.5 17.5t38 2h121v1001h-121q-82 0 -82 62q0 29 15.5 44t28.5 17t38 2h383q25 0 38 -2t28.5 -17 t15.5 -44q0 -61 -82 -62h-121v-1001h121q25 0 38 -2t28.5 -17.5t15.5 -44.5q0 -61 -82 -61h-383q-82 0 -82 61zM391 1538q0 31 20.5 51.5t51.5 20.5q23 0 53 -25l143 -115q35 -29 35 -55q0 -25 -23.5 -51.5t-49.5 -26.5q-20 0 -48 23l-143 115q-39 30 -39 63z" />
<glyph unicode="&#x209;" horiz-adv-x="598" d="M-90 1180q0 31 20.5 51t51.5 20q23 0 53 -24l143 -115q35 -29 35 -55q0 -25 -23.5 -51.5t-50.5 -26.5q-20 0 -47 22l-143 115q-39 31 -39 64zM35 61q0 29 15.5 44.5t28.5 17.5t38 2h110v633h-100q-84 0 -84 63q0 61 84 62h160q51 0 66.5 -17.5t15.5 -66.5v-674h90 q84 0 84 -64q0 -61 -82 -61h-344q-82 0 -82 61zM330 1180q0 31 20.5 51t50.5 20q23 0 54 -24l143 -115q35 -29 35 -55q0 -25 -23.5 -51.5t-50.5 -26.5q-20 0 -47 22l-143 115q-39 31 -39 64z" />
<glyph unicode="&#x20c;" horiz-adv-x="1673" d="M119 627q0 262 208 454.5t509 192.5q299 0 507.5 -190.5t208.5 -458.5q0 -262 -207.5 -455t-508.5 -193q-299 0 -508 191t-209 459zM260 649q0 -223 168 -385t407.5 -162t407.5 162t168 385q0 205 -168 352.5t-407.5 147.5t-407.5 -147.5t-168 -352.5zM449 1538 q0 31 20 51.5t51 20.5q23 0 53 -25l144 -115q35 -29 35 -55q0 -25 -23.5 -51.5t-50.5 -26.5q-20 0 -47 23l-144 115q-38 30 -38 63zM868 1538q0 31 20.5 51.5t51.5 20.5q23 0 53 -25l144 -115q35 -29 34 -55q0 -25 -23.5 -51.5t-49.5 -26.5q-20 0 -47 23l-144 115 q-39 30 -39 63z" />
<glyph unicode="&#x20d;" d="M78 442q0 188 134 323.5t324.5 135.5t324.5 -135t134 -324q0 -190 -134 -322t-324.5 -132t-324.5 132t-134 322zM150 1180q0 31 20 51t51 20q23 0 53 -24l144 -115q35 -29 35 -55q0 -25 -23.5 -51.5t-50.5 -26.5q-20 0 -47 22l-144 115q-38 31 -38 64zM219 457 q0 -141 92 -242.5t226 -101.5q131 0 224 101t93 243q0 135 -94 227t-223 92t-223.5 -92t-94.5 -227zM569 1180q0 31 20.5 51t51.5 20q23 0 53 -24l144 -115q35 -29 34 -55q0 -25 -23.5 -51.5t-49.5 -26.5q-20 0 -47 22l-144 115q-39 31 -39 64z" />
<glyph unicode="&#x210;" horiz-adv-x="1552" d="M94 61q0 29 15.5 44.5t29 17.5t37.5 2h111v1001h-111q-82 0 -82 62q0 29 15.5 44t29 17t37.5 2h549q225 0 391 -100t166 -244q0 -84 -62.5 -157.5t-172.5 -120.5q76 -37 114 -94q29 -43 35 -78t6 -127q0 -49 1 -73t6 -59.5t16.5 -52t33 -30t54.5 -13.5q35 0 60.5 24 t29.5 69q6 61 70 61q72 0 71 -63q0 -80 -64.5 -148t-166.5 -68q-131 0 -199 93q-37 51 -45 98t-8 154q0 98 -11.5 129.5t-70.5 64.5q-94 47 -258 47h-293v-438h111q25 0 38 -2t28.5 -17.5t15.5 -44.5q0 -61 -82 -61h-363q-82 0 -82 61zM330 1538q0 31 20.5 51.5t50.5 20.5 q23 0 54 -25l143 -115q35 -29 35 -55q0 -25 -23.5 -51.5t-50.5 -26.5q-20 0 -47 23l-143 115q-39 30 -39 63zM428 688h279q170 0 302 62.5t132 156.5t-132 156.5t-302 62.5h-279v-438zM750 1538q0 31 20.5 51.5t50.5 20.5q23 0 53 -25l144 -115q35 -29 35 -55 q0 -25 -23.5 -51.5t-50.5 -26.5q-20 0 -47 23l-144 115q-38 30 -38 63z" />
<glyph unicode="&#x211;" horiz-adv-x="835" d="M31 1180q0 31 20.5 51t50.5 20q23 0 54 -24l143 -115q35 -29 35 -55q0 -25 -23.5 -51.5t-50.5 -26.5q-20 0 -47 22l-143 115q-39 31 -39 64zM35 61q0 29 15.5 44.5t28.5 17.5t38 2h110v633h-110q-82 0 -82 61q0 29 15.5 44.5t28.5 17.5t38 2h170q41 0 58 -12.5t20.5 -31 t3.5 -69.5q106 125 252 125q72 0 112.5 -40t40.5 -87q0 -39 -25.5 -63.5t-60.5 -24.5q-29 0 -56.5 19.5t-29.5 68.5q-76 -8 -130 -67.5t-78.5 -140.5t-24.5 -175v-260h159q25 0 38.5 -2t28.5 -17.5t15 -44.5q0 -61 -82 -61h-411q-82 0 -82 61zM451 1180q0 31 20.5 51 t50.5 20q23 0 53 -24l144 -115q35 -29 35 -55q0 -25 -23.5 -51.5t-50.5 -26.5q-20 0 -47 22l-144 115q-38 31 -38 64z" />
<glyph unicode="&#x214;" horiz-adv-x="1552" d="M94 1188q0 29 15.5 44t29 17t37.5 2h363q25 0 38 -2t28.5 -17t15.5 -44q0 -61 -82 -62h-111v-692q0 -160 107.5 -246t240.5 -86q129 0 237.5 86t108.5 246v692h-110q-82 0 -82 62q0 29 15.5 44t28.5 17t38 2h362q25 0 38 -2t28.5 -17t15.5 -44q0 -61 -82 -62h-110v-704 q0 -188 -143.5 -316.5t-346.5 -128.5q-199 0 -343 127t-144 318v704h-111q-82 1 -82 62zM436 1538q0 31 20.5 51.5t51.5 20.5q23 0 53 -25l144 -115q35 -29 34 -55q0 -25 -23.5 -51.5t-49.5 -26.5q-20 0 -48 23l-143 115q-39 30 -39 63zM856 1538q0 31 20.5 51.5t51.5 20.5 q23 0 53 -25l143 -115q35 -29 35 -55q0 -25 -23.5 -51.5t-50.5 -26.5q-20 0 -47 23l-143 115q-39 30 -39 63z" />
<glyph unicode="&#x215;" horiz-adv-x="1193" d="M35 819q0 29 15.5 44.5t28.5 17.5t38 2h170q51 0 66.5 -17.5t15.5 -66.5v-551q0 -33 3 -49.5t19.5 -40t57 -34.5t106.5 -11q37 0 74 6t85 24.5t78.5 64.5t30.5 114v436h-110q-25 0 -38 2t-28.5 17.5t-15.5 43.5q0 61 82 62h170q51 0 66.5 -17.5t15.5 -66.5v-674h110 q25 0 38 -2t28.5 -17.5t15.5 -44.5q0 -61 -82 -61h-170q-27 0 -40 2t-27.5 19.5t-14.5 50.5q-109 -84 -280 -84q-315 0 -316 248v522h-110q-82 0 -82 61zM209 1180q0 31 20.5 51t51.5 20q23 0 53 -24l143 -115q35 -29 35 -55q0 -25 -23.5 -51.5t-50.5 -26.5q-20 0 -47 22 l-143 115q-39 31 -39 64zM629 1180q0 31 20.5 51t50.5 20q23 0 54 -24l143 -115q35 -29 35 -55q0 -25 -23.5 -51.5t-50.5 -26.5q-20 0 -47 22l-143 115q-39 31 -39 64z" />
<glyph unicode="&#x218;" horiz-adv-x="1193" d="M119 61v271q0 27 2 41t19.5 28.5t49.5 14.5q31 0 47.5 -12.5t18.5 -23.5t4 -32q8 -125 113 -188q100 -57 274 -58q133 0 213 70t80 160q0 39 -16.5 75.5t-32.5 53.5l-17 16q-47 41 -84.5 54.5t-140.5 35.5l-88 19q-113 25 -158 36t-94 33.5t-90 61.5q-100 96 -100 221 q0 135 118.5 235.5t303.5 100.5q209 0 331 -105q25 72 36.5 88.5t43.5 16.5q61 0 62 -84v-270q0 -27 -2 -41.5t-19.5 -28.5t-50.5 -14q-29 0 -44 10t-19.5 21.5t-8.5 33.5q-47 248 -331 248q-125 0 -206 -61.5t-81 -141.5q0 -82 67.5 -131t135.5 -63l303 -64 q137 -29 226 -127t89 -221q0 -143 -116.5 -253t-311.5 -110q-250 0 -385 99q-16 -47 -23.5 -62.5t-20.5 -26t-36 -10.5q-61 0 -61 84zM504 -387q0 18 22 41q61 49 68 125q-76 6 -76 78q0 31 21.5 53t54.5 22q41 0 68.5 -33.5t27.5 -103.5q0 -92 -51 -160.5t-86 -68.5 q-18 0 -33.5 15.5t-15.5 31.5z" />
<glyph unicode="&#x219;" horiz-adv-x="847" d="M72 72v196q0 27 2 41.5t19.5 28.5t49.5 14q57 0 70 -51q12 -41 23.5 -67.5t35 -57.5t63.5 -47t95 -16q25 0 49.5 3t69.5 14t72.5 44t27.5 82q0 55 -46 90t-109 49q-35 0 -125 23q-297 55 -297 241q0 35 13 72t47 78t106.5 66.5t177.5 25.5q113 0 184 -41q14 41 59 41 q61 0 62 -84v-141q0 -27 -2 -41t-19.5 -28.5t-50.5 -14.5q-29 0 -45 11t-19 23.5t-5 30.5q-2 23 -7.5 37.5t-20.5 37t-51 33.5t-89 11q-109 0 -162 -32.5t-53 -84.5q0 -57 61 -81.5t207 -51.5q309 -57 309 -270q0 -104 -82 -186t-264 -82q-137 0 -223 69q-16 -70 -72 -69 q-61 0 -61 84zM332 -387q0 18 22 41q61 49 68 125q-76 6 -76 78q0 31 21.5 53t54.5 22q41 0 68.5 -33.5t27.5 -103.5q0 -92 -51 -160.5t-86 -68.5q-18 0 -33.5 15.5t-15.5 31.5z" />
<glyph unicode="&#x21a;" horiz-adv-x="1552" d="M78 1018v149q0 51 16.5 67.5t67.5 16.5h1229q51 0 66.5 -17t15.5 -67v-149q0 -27 -2.5 -41t-19.5 -28.5t-50 -14.5q-47 0 -58.5 21.5t-11.5 62.5v108h-485v-1001h190q84 0 84 -64q0 -61 -84 -61h-522q-84 0 -84 63q0 61 84 62h191v1001h-486v-108q0 -27 -2 -41 t-19.5 -28.5t-50.5 -14.5q-47 0 -58 21.5t-11 62.5zM684 -387q0 18 23 41q61 49 67 125q-76 6 -76 78q0 31 21.5 53t54.5 22q41 0 68.5 -33.5t27.5 -103.5q0 -92 -51 -160.5t-86 -68.5q-18 0 -33.5 15.5t-15.5 31.5z" />
<glyph unicode="&#x21b;" horiz-adv-x="835" d="M39 819q0 63 84 64h104v168q0 27 2 41t19.5 28.5t50.5 14.5q47 0 58.5 -21.5t11.5 -62.5v-168h227q25 0 38 -2t28.5 -17.5t15.5 -44.5q0 -61 -82 -61h-227v-494q0 -152 100 -151q43 0 73.5 37.5t30.5 107.5q0 25 2.5 38t18.5 27.5t49 14.5t50.5 -14.5t19.5 -27.5t2 -40 q0 -117 -75 -192.5t-179 -75.5q-90 0 -162 61.5t-72 202.5v506h-106q-82 0 -82 61zM326 -387q0 18 22 41q61 49 68 125q-76 6 -76 78q0 31 21.5 53t54.5 22q41 0 68.5 -33.5t27.5 -103.5q0 -92 -51 -160.5t-86 -68.5q-18 0 -33.5 15.5t-15.5 31.5z" />
<glyph unicode="&#x258;" horiz-adv-x="956" d="M78 223q0 57 72 58q29 0 43 -8.5t24 -36.5q51 -123 205 -123q119 0 213 77.5t115 200.5h-590q-20 0 -31.5 1t-25 8.5t-19.5 23.5t-6 43q0 190 102.5 312t284.5 122q180 0 305 -134t125 -321q0 -190 -134 -324t-327 -134q-170 0 -263 86t-93 149zM223 514h525 q-20 115 -100.5 188.5t-182.5 73.5q-92 0 -162 -59.5t-80 -202.5z" />
<glyph unicode="&#x259;" horiz-adv-x="956" d="M78 422q0 27 6 43t19.5 23.5t24.5 8.5t32 1h590q-20 123 -114.5 200.5t-213.5 77.5q-154 0 -205 -123q-10 -29 -24.5 -37t-42.5 -8q-72 0 -72 58q0 63 93 149t263 86q193 0 327 -134t134 -325q0 -186 -125 -320t-305 -134q-182 0 -284.5 122t-102.5 312zM223 375 q10 -143 80 -202.5t162 -59.5q102 0 182 73.5t101 188.5h-525z" />
<glyph unicode="&#x2be;" horiz-adv-x="839" d="M119 956q0 14 12 40t39 60t83 57.5t132 23.5q143 0 239.5 -99.5t96.5 -238.5q0 -76 -32 -150t-116 -133t-206 -59q-231 0 -232 118q0 37 23.5 58.5t56.5 21.5q74 0 76 -84q0 -4 12 -4t33.5 2t30.5 2q123 0 175 76t52 152q0 94 -64.5 159.5t-152.5 65.5q-98 0 -135 -82 q-14 -39 -60 -39q-63 0 -63 53z" />
<glyph unicode="&#x2bf;" horiz-adv-x="839" d="M119 795q0 76 31.5 149.5t115.5 133t207 59.5q231 0 232 -119q0 -37 -24 -58.5t-56 -21.5q-74 0 -76 84q0 4 -12.5 4t-34 -2t-29.5 -2q-123 0 -175 -76t-52 -151q0 -94 64.5 -160t152.5 -66q98 0 135 82q14 39 59 39q63 0 64 -53q0 -14 -12.5 -40t-39 -59.5t-83 -57 t-131.5 -23.5q-143 0 -239.5 99.5t-96.5 238.5z" />
<glyph unicode="&#x2c6;" d="M244.5 1006.5q-31.5 50.5 19.5 83.5l242 153q31 20 61 0l246 -153q51 -33 19.5 -83.5t-82.5 -19.5l-211 127l-211 -127q-52 -31 -83.5 19.5z" />
<glyph unicode="&#x2c7;" d="M244.5 1221.5q31.5 50.5 83.5 19.5l211 -127l211 127q51 31 82.5 -19.5t-19.5 -82.5l-242 -154q-31 -20 -61 0l-246 154q-51 32 -19.5 82.5z" />
<glyph unicode="&#x2d8;" d="M178 1167q0 63 64 64q51 0 61 -60q10 -41 235.5 -41t235.5 41q10 59 62 60q63 0 63 -64q0 -59 -34 -96t-99.5 -51t-109.5 -17.5t-117.5 -3.5t-117.5 3.5t-109.5 17.5t-99.5 51t-34 96z" />
<glyph unicode="&#x2d9;" horiz-adv-x="598" d="M195 1114q0 41 29.5 72t74.5 31q41 0 71.5 -31t30.5 -72t-29.5 -71.5t-74.5 -30.5q-41 0 -71.5 30.5t-30.5 71.5z" />
<glyph unicode="&#x2da;" horiz-adv-x="1552" d="M537 1142.5q0 55.5 68.5 95.5t172.5 40q98 0 168 -40t70 -95.5t-68.5 -95t-173.5 -39.5q-98 0 -167.5 39.5t-69.5 95zM672 1143q0 -25 30.5 -42.5t73.5 -17.5q39 0 72 16.5t33 43.5q0 25 -31 42t-74 17q-39 0 -71.5 -16t-32.5 -43z" />
<glyph unicode="&#x2db;" d="M330 -221q0 68 47 133t112 108l154 3q-84 -23 -138 -91.5t-54 -156.5q0 -35 29.5 -57.5t60.5 -22.5q29 0 59.5 23.5t50.5 52.5q10 10 36 14t40 -4q12 -10 16.5 -36t-6.5 -40q-88 -121 -205 -121q-90 0 -146 61.5t-56 133.5z" />
<glyph unicode="&#x2dc;" d="M180 1057q0 37 101 112q92 68 159.5 68t137.5 -70q47 -43 63 -43q47 0 143 90q27 23 50 23q25 0 44 -20.5t19 -45.5q0 -37 -100 -112q-92 -68 -160 -68t-137 70q-47 43 -64 43q-47 0 -143 -90q-27 -23 -49 -23q-25 0 -44.5 20.5t-19.5 45.5z" />
<glyph unicode="&#x2dd;" d="M203 1057q0 27 35 55l143 115q31 25 53 24q31 0 51.5 -20.5t20.5 -50.5q0 -33 -39 -64l-143 -115q-27 -23 -48 -22q-27 0 -50 26.5t-23 51.5zM623 1057q0 27 34 55l144 115q31 25 53 24q31 0 51.5 -20.5t20.5 -50.5q0 -33 -39 -64l-144 -115q-27 -23 -47 -22 q-27 0 -50 26.5t-23 51.5z" />
<glyph unicode="&#x300;" horiz-adv-x="0" d="M-741 1180q0 31 20.5 51t50.5 20l39 -10l273 -123q18 -8 26 -13t16.5 -17.5t8.5 -28.5q0 -23 -16.5 -52.5t-51.5 -29.5q-16 0 -37 10l-272 121q-57 27 -57 72z" />
<glyph unicode="&#x301;" horiz-adv-x="0" d="M-739 1059q0 16 8 28.5t16 17.5t27 13l272 123l39 10q31 0 51.5 -20.5t20.5 -50.5q0 -45 -57 -72l-273 -121q-20 -10 -37 -10q-35 0 -51 29.5t-16 52.5z" />
<glyph unicode="&#x302;" horiz-adv-x="0" d="M-816 1006.5q-32 50.5 19 83.5l242 153q31 20 61 0l246 -153q51 -33 19.5 -83.5t-82.5 -19.5l-211 127l-211 -127q-51 -31 -83 19.5z" />
<glyph unicode="&#x303;" horiz-adv-x="0" d="M-881 1057q0 37 101 112q92 68 159.5 68t137.5 -70q47 -43 63 -43q47 0 144 90q27 23 49 23q25 0 44 -20.5t19 -45.5q0 -37 -100 -112q-92 -68 -160 -68t-137 70q-47 43 -64 43q-47 0 -143 -90q-27 -23 -49 -23q-25 0 -44.5 20.5t-19.5 45.5z" />
<glyph unicode="&#x304;" horiz-adv-x="0" d="M-909 1116q0 29 15 44.5t28.5 17.5t38.5 2h610q25 0 38 -2t28.5 -17.5t15.5 -46.5q0 -29 -15.5 -44t-29 -17t-37.5 -2h-608q-25 0 -39.5 2t-29.5 17t-15 46z" />
<glyph unicode="&#x306;" horiz-adv-x="0" d="M-883 1167q0 63 64 64q51 0 61 -60q10 -41 235.5 -41t235.5 41q10 59 62 60q63 0 63 -64q0 -59 -33.5 -96t-99 -51t-110 -17.5t-118 -3.5t-117.5 3.5t-109.5 17.5t-99.5 51t-34 96z" />
<glyph unicode="&#x307;" horiz-adv-x="0" d="M-627 1114q0 41 30 72t75 31q41 0 71.5 -31t30.5 -72t-29.5 -71.5t-74.5 -30.5q-41 0 -72 30.5t-31 71.5z" />
<glyph unicode="&#x308;" horiz-adv-x="0" d="M-786 1114q0 35 26.5 63.5t67.5 28.5q39 0 65.5 -27.5t26.5 -64.5t-26.5 -64.5t-67.5 -27.5q-37 0 -64.5 26.5t-27.5 65.5zM-444 1114q0 35 26.5 63.5t67.5 28.5q39 0 65.5 -27.5t26.5 -64.5t-26.5 -64.5t-67.5 -27.5q-37 0 -64.5 26.5t-27.5 65.5z" />
<glyph unicode="&#x309;" horiz-adv-x="0" d="M-733 1186q2 74 59.5 119t134.5 45h7q92 0 149 -37q70 -49 70 -127q-4 -78 -74 -117q-94 -49 -94 -96v-37q0 -23 -16.5 -40t-41.5 -17q-23 0 -40 17t-17 40v37q0 117 154 198l14 15q0 16 -18 31q-31 18 -93 18q-63 0 -75 -39v-10q0 -20 -17 -41l-2 -2q-16 -16 -41 -17 q-20 0 -41 17v2q-18 18 -18 41z" />
<glyph unicode="&#x30a;" horiz-adv-x="0" d="M-762 1142.5q0 55.5 68.5 95.5t173.5 40q98 0 167.5 -40t69.5 -95.5t-68.5 -95t-172.5 -39.5q-98 0 -168 39.5t-70 95zM-627 1143q0 -25 31 -42.5t74 -17.5q39 0 71.5 16.5t32.5 43.5q0 25 -30.5 42t-73.5 17q-39 0 -72 -16t-33 -43z" />
<glyph unicode="&#x30b;" horiz-adv-x="0" d="M-858 1057q0 27 35 55l143 115q31 25 53 24q31 0 51.5 -20.5t20.5 -50.5q0 -33 -39 -64l-143 -115q-27 -23 -47 -22q-27 0 -50.5 26.5t-23.5 51.5zM-438 1057q0 27 35 55l143 115q31 25 53 24q31 0 51.5 -20.5t20.5 -50.5q0 -33 -39 -64l-143 -115q-27 -23 -48 -22 q-27 0 -50 26.5t-23 51.5z" />
<glyph unicode="&#x30c;" horiz-adv-x="0" d="M-816 1221.5q32 50.5 83 19.5l211 -127l211 127q51 31 82.5 -19.5t-19.5 -82.5l-241 -154q-31 -20 -62 0l-246 154q-51 32 -19 82.5z" />
<glyph unicode="&#x30f;" horiz-adv-x="0" d="M-911 1180q0 31 20.5 51t50.5 20q23 0 54 -24l143 -115q35 -29 35 -55q0 -25 -23.5 -51.5t-50.5 -26.5q-20 0 -47 22l-143 115q-39 31 -39 64zM-492 1180q0 31 20.5 51t51.5 20q23 0 53 -24l144 -115q35 -29 35 -55q0 -25 -24 -51.5t-50 -26.5q-20 0 -47 22l-144 115 q-39 31 -39 64z" />
<glyph unicode="&#x311;" horiz-adv-x="0" d="M-883 1063q0 59 34 96t99.5 51.5t109.5 17.5t117.5 3t118 -3t110 -17.5t99 -51.5t33.5 -96q0 -63 -63 -64q-51 0 -62 60q-10 41 -235.5 41t-235.5 -41q-10 -59 -61 -60q-64 1 -64 64z" />
<glyph unicode="&#x323;" horiz-adv-x="0" d="M-627 -307q0 41 30 71.5t75 30.5q41 0 71.5 -30.5t30.5 -71.5t-29.5 -72t-74.5 -31q-41 0 -72 31t-31 72z" />
<glyph unicode="&#x326;" horiz-adv-x="0" d="M-616 -387q0 18 22 41q61 49 68 125q-76 6 -76 78q0 31 21.5 53t54.5 22q41 0 68.5 -33.5t27.5 -103.5q0 -92 -51 -160.5t-86 -68.5q-18 0 -33.5 15.5t-15.5 31.5z" />
<glyph unicode="&#x32e;" horiz-adv-x="0" d="M-883 -254q0 63 64 64q51 0 61 -60q10 -41 235.5 -41t235.5 41q10 59 62 60q63 0 63 -64q0 -59 -33.5 -96t-99 -51.5t-110 -17.5t-118 -3t-117.5 3t-109.5 17.5t-99.5 51.5t-34 96z" />
<glyph unicode="&#x32f;" horiz-adv-x="0" d="M-883 -358q0 59 34 96t99.5 51t109.5 17.5t117.5 3.5t118 -3.5t110 -17.5t99 -51t33.5 -96q0 -63 -63 -64q-51 0 -62 60q-10 41 -235.5 40.5t-235.5 -40.5q-10 -59 -61 -60q-64 1 -64 64z" />
<glyph unicode="&#x330;" horiz-adv-x="0" d="M-881 -365q0 37 101 113q92 68 159.5 68t137.5 -70q47 -43 63 -43q47 0 144 90q27 23 49 23q25 0 44 -20.5t19 -45.5q0 -37 -100 -112q-92 -68 -160 -68t-137 70q-47 43 -64 43q-47 0 -143 -91q-27 -23 -49 -22q-25 0 -44.5 20t-19.5 45z" />
<glyph unicode="&#x331;" horiz-adv-x="0" d="M-909 -305q0 29 15 44t28.5 17t38.5 2h610q25 0 38 -2t28.5 -17t15.5 -46q0 -29 -15.5 -44.5t-29 -17.5t-37.5 -2h-608q-25 0 -39.5 2t-29.5 17.5t-15 46.5z" />
<glyph unicode="&#x332;" horiz-adv-x="0" d="M-909 -305q0 29 15 44t28.5 17t38.5 2h610q25 0 38 -2t28.5 -17t15.5 -46q0 -29 -15.5 -44.5t-29 -17.5t-37.5 -2h-608q-25 0 -39.5 2t-29.5 17.5t-15 46.5z" />
<glyph unicode="&#x393;" horiz-adv-x="1314" d="M94 61q0 29 15.5 44.5t29 17.5t37.5 2h111v1001h-111q-82 0 -82 62q0 29 15.5 44t29 17t37.5 2h965q51 0 66.5 -17t15.5 -67v-149q0 -27 -2 -41t-19.5 -28.5t-50.5 -14.5q-47 0 -58.5 21.5t-11.5 62.5v108h-653v-1001h160q25 0 38 -2t28.5 -17.5t15.5 -44.5 q0 -61 -82 -61h-412q-82 0 -82 61z" />
<glyph unicode="&#x394;" horiz-adv-x="1792" d="M117 39q0 14 14 39l621 1132q25 43 50 54.5t70 11.5h46q53 0 77.5 -15.5t46.5 -56.5l619 -1130q12 -20 12 -35q0 -39 -65 -39h-1426q-65 0 -65 39zM326 137h1138l-569 1043z" />
<glyph unicode="&#x398;" horiz-adv-x="1673" d="M119 627q0 262 208 454.5t509 192.5q299 0 507.5 -190.5t208.5 -458.5q0 -262 -207.5 -455t-508.5 -193q-299 0 -508 191t-209 459zM260 625q0 -213 167 -368t409 -155q240 0 407.5 154t167.5 371q0 213 -167 367.5t-408 154.5q-240 0 -408 -153.5t-168 -370.5zM381 578 v96q0 27 2 41t19.5 28.5t50.5 14.5q66 0 69 -64h627q4 63 70 64q33 0 50 -14.5t19 -29t2 -40.5v-96q0 -27 -2 -41.5t-19.5 -28.5t-49.5 -14q-66 0 -70 63h-627q-4 -63 -69 -63q-33 0 -50.5 14t-19.5 28.5t-2 41.5z" />
<glyph unicode="&#x39b;" horiz-adv-x="1433" d="M82 61q0 29 15.5 44.5t28.5 17.5t38 2h72l354 1083q10 31 30.5 47.5t35 18.5t40.5 2h39q27 0 41.5 -2t34.5 -18.5t31 -47.5l354 -1083h72q25 0 38 -2t28.5 -17.5t15.5 -44.5q0 -61 -82 -61h-307q-82 0 -82 61q0 29 15 44.5t28.5 17.5t38.5 2h86l-332 1012l-330 -1012h86 q25 0 38 -2t28.5 -17.5t15.5 -44.5q0 -61 -82 -61h-307q-82 0 -82 61z" />
<glyph unicode="&#x39e;" horiz-adv-x="1433" d="M90 84v49q0 27 2 41t18.5 28.5t49.5 14.5q49 0 60 -21.5t11 -74.5h969q0 37 2 52t18.5 29.5t51.5 14.5q47 0 58 -21.5t11 -62.5v-49q0 -49 -16 -66.5t-65 -17.5h-1086q-51 0 -67.5 16.5t-16.5 67.5zM102 1128v39q0 51 16.5 67.5t67.5 16.5h1061q51 0 66.5 -17t15.5 -67 v-39q0 -27 -2 -41t-18.5 -28.5t-49 -14.5t-50 14.5t-19.5 29t-2 42.5h-944q0 -29 -2 -43t-19.5 -28.5t-50.5 -14.5q-47 0 -58.5 21.5t-11.5 62.5zM299 578v145q0 27 2 41t18.5 28.5t49.5 14.5q49 0 60 -21.5t11 -74.5h551q0 37 2 52t18.5 29.5t51.5 14.5q47 0 58.5 -21.5 t11.5 -62.5v-145q0 -27 -2.5 -41.5t-18.5 -28.5t-49 -14q-49 0 -60.5 21.5t-11.5 74.5h-551q0 -37 -2 -52.5t-18.5 -29.5t-50.5 -14q-47 0 -58.5 21.5t-11.5 62.5z" />
<glyph unicode="&#x3a0;" horiz-adv-x="1552" d="M94 61q0 29 15.5 44.5t29 17.5t37.5 2h111v1001h-111q-82 0 -82 62q0 29 15.5 44t29 17t37.5 2h1198q25 0 38 -2t28.5 -17t15.5 -44q0 -61 -82 -62h-110v-1001h110q25 0 38 -2t28.5 -17.5t15.5 -44.5q0 -61 -82 -61h-362q-82 0 -82 61q0 29 15.5 44.5t28.5 17.5t38 2h110 v1001h-694v-1001h111q25 0 38 -2t28.5 -17.5t15.5 -44.5q0 -61 -82 -61h-363q-82 0 -82 61z" />
<glyph unicode="&#x3a3;" horiz-adv-x="1552" d="M119 57q0 20 24 49l435 519l-437 512q-23 29 -22 51q0 63 84 63h1147q51 0 66.5 -17t15.5 -67v-149q0 -27 -2.5 -41t-19.5 -28.5t-50 -14.5q-47 0 -58.5 21.5t-11.5 62.5v108h-954l385 -450q25 -29 24 -51l-4 -17q-4 -16 -20 -35l-375 -444h944v109q0 27 2 41t19.5 28.5 t50.5 14.5q47 0 58.5 -21.5t11.5 -62.5v-154q0 -49 -16.5 -66.5t-65.5 -17.5h-1147q-84 0 -84 57z" />
<glyph unicode="&#x3a5;" horiz-adv-x="1673" d="M119 1008q0 109 97 187.5t235 78.5q86 0 154.5 -38t113.5 -104.5t72.5 -142.5t44.5 -168h2q31 203 128 328t255 125q137 0 234 -79t97 -187q0 -63 -71 -64q-29 0 -45.5 11.5t-19.5 23.5t-5 33q-8 70 -62.5 112.5t-134.5 42.5q-86 0 -148 -51t-95 -134t-48.5 -169 t-15.5 -174v-514h160q25 0 38 -2t28.5 -17.5t15.5 -44.5q0 -61 -82 -61h-461q-25 0 -38 2t-28.5 17.5t-15.5 43.5q0 61 82 62h160v514q0 84 -14.5 169t-47 169t-97 137t-150.5 53q-82 0 -136.5 -44t-60.5 -109q-2 -23 -5 -35t-19.5 -23.5t-45.5 -11.5q-71 1 -71 64z" />
<glyph unicode="&#x3a6;" horiz-adv-x="1552" d="M119 627q0 127 179 214t407 95v190h-160q-82 0 -82 62q0 29 15.5 44t28.5 17t38 2h461q25 0 38 -2t28 -17t15 -44q0 -61 -81 -62h-160v-190q143 -6 275 -43t221.5 -108.5t89.5 -159.5q0 -127 -179.5 -214t-406.5 -96v-190h160q25 0 38 -2t28 -17.5t15 -44.5 q0 -61 -81 -61h-461q-82 0 -82 61q0 29 15.5 44.5t28.5 17.5t38 2h160v190q-143 6 -275.5 43t-221.5 109t-89 160zM260 627q0 -47 49 -84t124 -57.5t144.5 -32t127.5 -13.5v371q-147 -4 -296 -52t-149 -132zM846 440q57 2 126.5 13.5t144.5 32t124 57.5t49 84q0 57 -82 101 t-179 62.5t-183 20.5v-371z" />
<glyph unicode="&#x3a8;" horiz-adv-x="1673" d="M119 926q0 63 76 63q86 0 156.5 -57.5t76.5 -194.5q6 -135 96 -209.5t242 -87.5v686h-160q-25 0 -38 2t-28.5 17.5t-15.5 44.5q0 61 82 61h461q25 0 38 -2t28.5 -17t15.5 -44q0 -61 -82 -62h-160v-686q143 12 236.5 83t99.5 208q4 127 64 184q70 74 170 74q76 0 75 -63 q0 -53 -57 -62q-37 -4 -61.5 -17t-33.5 -38t-11.5 -40t-4.5 -44q-8 -186 -138 -289.5t-339 -120.5v-190h160q25 0 38 -2t28.5 -17.5t15.5 -44.5q0 -61 -82 -61h-461q-25 0 -38 2t-28.5 17.5t-15.5 43.5q0 61 82 62h160v190q-104 8 -184 34t-158 87q-61 49 -97 131t-40 154 q-2 43 -6.5 65.5t-32 48t-80.5 29.5q-49 13 -49 62z" />
<glyph unicode="&#x3a9;" horiz-adv-x="1552" d="M96 84v53q0 84 58 84q27 0 40 -17.5t15 -32.5t2 -46h264q-12 59 -45 117.5t-113 163.5q-66 84 -97.5 132t-66 132t-34.5 161q0 186 189.5 314.5t467.5 128.5q274 0 465 -128t191 -315q0 -78 -35 -161.5t-67 -130.5t-95 -131q-139 -182 -160 -283h264q0 31 2 46t15.5 32.5 t40.5 17.5q57 0 57 -84v-53q0 -49 -16.5 -66.5t-65.5 -17.5h-346q-27 0 -41 2t-28.5 18.5t-14.5 49.5q0 72 35 156.5t64 129.5l83 121q53 72 83 117t56.5 111.5t26.5 125.5q0 129 -148.5 223.5t-367.5 94.5q-215 0 -364.5 -94t-149.5 -224q0 -59 26.5 -126.5t55.5 -110.5 l82 -117q53 -72 85 -120t65.5 -132t33.5 -155q0 -33 -14 -49.5t-28.5 -18.5t-39.5 -2h-346q-51 0 -67.5 16.5t-16.5 67.5z" />
<glyph unicode="&#xe3f;" horiz-adv-x="1492" d="M94 61q0 29 15.5 44.5t29 17.5t37.5 2h111v1001h-111q-82 0 -82 62q0 29 15.5 44t29 17t37.5 2h492v127q0 27 18.5 45.5t45 18.5t45 -18.5t18.5 -45.5v-127h43q201 0 338 -95t137 -222q0 -102 -91.5 -175t-213.5 -104q170 -31 267 -117.5t97 -195.5q0 -137 -137 -239.5 t-340 -102.5h-100v-127q0 -27 -18.5 -45t-45 -18t-45 18t-18.5 45v127h-492q-82 0 -82 61zM428 125h240v463h-240v-463zM428 713h240v413h-240v-413zM795 125h43q162 0 277.5 63.5t115.5 157.5q0 96 -105.5 169t-255.5 73h-75v-463zM795 713q166 6 271 69.5t105 149.5 q0 78 -97 136t-240 58h-39v-413z" />
<glyph unicode="&#x1e0c;" horiz-adv-x="1613" d="M94 61q0 29 15.5 44.5t29 17.5t37.5 2h111v1001h-111q-82 0 -82 62q0 29 15.5 44t29 17t37.5 2h660q270 0 462.5 -187t192.5 -450q0 -252 -191.5 -433t-463.5 -181h-660q-82 0 -82 61zM428 125h371q231 0 391 144.5t160 346.5q0 205 -159 357.5t-394 152.5h-369v-1001z M508 -307q0 41 29.5 71.5t74.5 30.5q41 0 72 -30.5t31 -71.5t-30 -72t-75 -31q-41 0 -71.5 31t-30.5 72z" />
<glyph unicode="&#x1e0d;" horiz-adv-x="1193" d="M90 440q0 190 134 322.5t325 132.5q156 0 274 -104v335h-110q-25 0 -38 2t-28.5 17.5t-15.5 44.5q0 61 82 61h170q51 0 66.5 -17t15.5 -67v-1042h110q25 0 38 -2t28.5 -17.5t15.5 -44.5q0 -61 -82 -61h-170q-51 0 -66.5 17.5t-15.5 66.5v35q-121 -131 -297 -131 q-178 0 -307 132t-129 320zM231 440q0 -135 89.5 -231t216.5 -96q123 0 204.5 94t81.5 196v136q0 92 -78.5 161.5t-185.5 69.5q-133 0 -230.5 -96.5t-97.5 -233.5zM494 -307q0 41 29.5 71.5t74.5 30.5q41 0 71.5 -30.5t30.5 -71.5t-29.5 -72t-74.5 -31q-41 0 -71.5 31 t-30.5 72z" />
<glyph unicode="&#x1e0e;" horiz-adv-x="1613" d="M94 61q0 29 15.5 44.5t29 17.5t37.5 2h111v1001h-111q-82 0 -82 62q0 29 15.5 44t29 17t37.5 2h660q270 0 462.5 -187t192.5 -450q0 -252 -191.5 -433t-463.5 -181h-660q-82 0 -82 61zM227 -305q0 29 15.5 44t29 17t37.5 2h611q25 0 38 -2t28 -17t15 -46q0 -29 -15 -44.5 t-28.5 -17.5t-37.5 -2h-609q-25 0 -39 2t-29.5 17.5t-15.5 46.5zM428 125h371q231 0 391 144.5t160 346.5q0 205 -159 357.5t-394 152.5h-369v-1001z" />
<glyph unicode="&#x1e0f;" horiz-adv-x="1193" d="M90 440q0 190 134 322.5t325 132.5q156 0 274 -104v335h-110q-25 0 -38 2t-28.5 17.5t-15.5 44.5q0 61 82 61h170q51 0 66.5 -17t15.5 -67v-1042h110q25 0 38 -2t28.5 -17.5t15.5 -44.5q0 -61 -82 -61h-170q-51 0 -66.5 17.5t-15.5 66.5v35q-121 -131 -297 -131 q-178 0 -307 132t-129 320zM211 -305q0 29 15.5 44t28.5 17t38 2h610q25 0 38 -2t28.5 -17t15.5 -46q0 -29 -15.5 -44.5t-28.5 -17.5t-38 -2h-608q-25 0 -39 2t-29.5 17.5t-15.5 46.5zM231 440q0 -135 89.5 -231t216.5 -96q123 0 204.5 94t81.5 196v136q0 92 -78.5 161.5 t-185.5 69.5q-133 0 -230.5 -96.5t-97.5 -233.5z" />
<glyph unicode="&#x1e24;" horiz-adv-x="1552" d="M94 61q0 29 15.5 44.5t29 17.5t37.5 2h111v1001h-111q-82 0 -82 62q0 29 15.5 44t29 17t37.5 2h363q25 0 38 -2t28.5 -17t15.5 -44q0 -61 -82 -62h-111v-413h694v413h-110q-82 0 -82 62q0 29 15.5 44t28.5 17t38 2h362q25 0 38 -2t28.5 -17t15.5 -44q0 -61 -82 -62h-110 v-1001h110q25 0 38 -2t28.5 -17.5t15.5 -44.5q0 -61 -82 -61h-362q-82 0 -82 61q0 29 15.5 44.5t28.5 17.5t38 2h110v463h-694v-463h111q25 0 38 -2t28.5 -17.5t15.5 -44.5q0 -61 -82 -61h-363q-82 0 -82 61zM672 -307q0 41 29.5 71.5t74.5 30.5q41 0 72 -30.5t31 -71.5 t-30 -72t-75 -31q-41 0 -71.5 31t-30.5 72z" />
<glyph unicode="&#x1e25;" horiz-adv-x="1193" d="M35 61q0 29 15.5 44.5t28.5 17.5t38 2h110v1001h-110q-82 0 -82 62q0 29 15.5 44t28.5 17t38 2h170q51 0 66.5 -17t15.5 -67v-389q127 117 301 117q295 0 295 -299v-471h110q25 0 38 -2t28.5 -17.5t15.5 -44.5q0 -61 -82 -61h-362q-25 0 -38 2t-28.5 17.5t-15.5 43.5 q0 61 82 62h110v459q0 96 -32.5 141t-133.5 45q-63 0 -125.5 -24.5t-112.5 -92t-50 -168.5v-360h110q25 0 38 -2t28.5 -17.5t15.5 -44.5q0 -61 -82 -61h-362q-82 0 -82 61zM492 -307q0 41 29.5 71.5t74.5 30.5q41 0 71.5 -30.5t30.5 -71.5t-29.5 -72t-74.5 -31 q-41 0 -71.5 31t-30.5 72z" />
<glyph unicode="&#x1e26;" horiz-adv-x="1552" d="M94 61q0 29 15.5 44.5t29 17.5t37.5 2h111v1001h-111q-82 0 -82 62q0 29 15.5 44t29 17t37.5 2h363q25 0 38 -2t28.5 -17t15.5 -44q0 -61 -82 -62h-111v-413h694v413h-110q-82 0 -82 62q0 29 15.5 44t28.5 17t38 2h362q25 0 38 -2t28.5 -17t15.5 -44q0 -61 -82 -62h-110 v-1001h110q25 0 38 -2t28.5 -17.5t15.5 -44.5q0 -61 -82 -61h-362q-82 0 -82 61q0 29 15.5 44.5t28.5 17.5t38 2h110v463h-694v-463h111q25 0 38 -2t28.5 -17.5t15.5 -44.5q0 -61 -82 -61h-363q-82 0 -82 61zM483 1409q0 35 27 63.5t68 28.5q39 0 65.5 -27.5t26.5 -64.5 t-27 -64.5t-68 -27.5q-37 0 -64.5 26.5t-27.5 65.5zM887 1409q0 35 26.5 63.5t67.5 28.5q39 0 65.5 -27.5t26.5 -64.5t-26.5 -64.5t-67.5 -27.5q-37 0 -64.5 26.5t-27.5 65.5z" />
<glyph unicode="&#x1e27;" horiz-adv-x="1193" d="M35 61q0 29 15.5 44.5t28.5 17.5t38 2h110v1001h-110q-82 0 -82 62q0 29 15.5 44t28.5 17t38 2h170q51 0 66.5 -17t15.5 -67v-389q127 117 301 117q295 0 295 -299v-471h110q25 0 38 -2t28.5 -17.5t15.5 -44.5q0 -61 -82 -61h-362q-25 0 -38 2t-28.5 17.5t-15.5 43.5 q0 61 82 62h110v459q0 96 -32.5 141t-133.5 45q-63 0 -125.5 -24.5t-112.5 -92t-50 -168.5v-360h110q25 0 38 -2t28.5 -17.5t15.5 -44.5q0 -61 -82 -61h-362q-82 0 -82 61zM303 1409q0 35 26.5 63.5t67.5 28.5q39 0 65.5 -27.5t26.5 -64.5t-26.5 -64.5t-67.5 -27.5 q-37 0 -64.5 26.5t-27.5 65.5zM707 1409q0 35 26.5 63.5t67.5 28.5q39 0 65.5 -27.5t26.5 -64.5t-26.5 -64.5t-67.5 -27.5q-37 0 -64.5 26.5t-27.5 65.5z" />
<glyph unicode="&#x1e2a;" horiz-adv-x="1552" d="M94 61q0 29 15.5 44.5t29 17.5t37.5 2h111v1001h-111q-82 0 -82 62q0 29 15.5 44t29 17t37.5 2h363q25 0 38 -2t28.5 -17t15.5 -44q0 -61 -82 -62h-111v-413h694v413h-110q-82 0 -82 62q0 29 15.5 44t28.5 17t38 2h362q25 0 38 -2t28.5 -17t15.5 -44q0 -61 -82 -62h-110 v-1001h110q25 0 38 -2t28.5 -17.5t15.5 -44.5q0 -61 -82 -61h-362q-82 0 -82 61q0 29 15.5 44.5t28.5 17.5t38 2h110v463h-694v-463h111q25 0 38 -2t28.5 -17.5t15.5 -44.5q0 -61 -82 -61h-363q-82 0 -82 61zM418 -254q0 63 63 64q51 0 62 -60q10 -41 235.5 -41t235.5 41 q10 59 61 60q63 0 64 -64q0 -59 -34 -96t-99.5 -51.5t-109.5 -17.5t-117.5 -3t-118 3t-110 17.5t-99 51.5t-33.5 96z" />
<glyph unicode="&#x1e2b;" horiz-adv-x="1193" d="M35 61q0 29 15.5 44.5t28.5 17.5t38 2h110v1001h-110q-82 0 -82 62q0 29 15.5 44t28.5 17t38 2h170q51 0 66.5 -17t15.5 -67v-389q127 117 301 117q295 0 295 -299v-471h110q25 0 38 -2t28.5 -17.5t15.5 -44.5q0 -61 -82 -61h-362q-25 0 -38 2t-28.5 17.5t-15.5 43.5 q0 61 82 62h110v459q0 96 -32.5 141t-133.5 45q-63 0 -125.5 -24.5t-112.5 -92t-50 -168.5v-360h110q25 0 38 -2t28.5 -17.5t15.5 -44.5q0 -61 -82 -61h-362q-82 0 -82 61zM238 -254q0 63 63 64q51 0 61 -60q10 -41 235.5 -41t236.5 41q10 59 61 60q63 0 63 -64 q0 -59 -33.5 -96t-99 -51.5t-109.5 -17.5t-118 -3t-118 3t-109.5 17.5t-99 51.5t-33.5 96z" />
<glyph unicode="&#x1e36;" horiz-adv-x="1314" d="M94 61q0 29 15.5 44.5t29 17.5t37.5 2h111v1001h-111q-82 0 -82 62q0 29 15.5 44t29 17t37.5 2h412q25 0 38 -2t28.5 -17t15.5 -44q0 -61 -82 -62h-160v-1001h653v141q0 29 2 43.5t19.5 27.5t50.5 13q47 0 58.5 -21.5t11.5 -62.5v-182q0 -49 -16.5 -66.5t-65.5 -17.5 h-965q-82 0 -82 61zM553 -307q0 41 29.5 71.5t74.5 30.5q41 0 72 -30.5t31 -71.5t-30 -72t-75 -31q-41 0 -71.5 31t-30.5 72z" />
<glyph unicode="&#x1e37;" horiz-adv-x="598" d="M35 61q0 29 15.5 44.5t28.5 17.5t38 2h110v1001h-110q-82 0 -82 62q0 29 15.5 44t28.5 17t38 2h170q51 0 66.5 -17t15.5 -67v-1042h110q25 0 38 -2t28.5 -17.5t15.5 -44.5q0 -61 -82 -61h-362q-82 0 -82 61zM195 -307q0 41 29.5 71.5t74.5 30.5q41 0 71.5 -30.5 t30.5 -71.5t-29.5 -72t-74.5 -31q-41 0 -71.5 31t-30.5 72z" />
<glyph unicode="&#x1e38;" horiz-adv-x="1314" d="M-4 1423q0 29 15.5 44.5t28.5 17.5t38 2h610q25 0 38 -2t28.5 -17.5t15.5 -46.5q0 -29 -15.5 -44t-28.5 -17t-38 -2h-608q-25 0 -39 2t-29.5 17t-15.5 46zM94 61q0 29 15.5 44.5t29 17.5t37.5 2h111v1001h-111q-82 0 -82 62q0 29 15.5 44t29 17t37.5 2h412q25 0 38 -2 t28.5 -17t15.5 -44q0 -61 -82 -62h-160v-1001h653v141q0 29 2 43.5t19.5 27.5t50.5 13q47 0 58.5 -21.5t11.5 -62.5v-182q0 -49 -16.5 -66.5t-65.5 -17.5h-965q-82 0 -82 61zM553 -307q0 41 29.5 71.5t74.5 30.5q41 0 72 -30.5t31 -71.5t-30 -72t-75 -31q-41 0 -71.5 31 t-30.5 72z" />
<glyph unicode="&#x1e39;" horiz-adv-x="598" d="M-127 1423q0 29 15.5 44.5t28.5 17.5t38 2h610q25 0 38 -2t28.5 -17.5t15.5 -46.5q0 -29 -15.5 -44t-28.5 -17t-38 -2h-608q-25 0 -39 2t-29.5 17t-15.5 46zM35 61q0 29 15.5 44.5t28.5 17.5t38 2h110v1001h-110q-82 0 -82 62q0 29 15.5 44t28.5 17t38 2h170 q51 0 66.5 -17t15.5 -67v-1042h110q25 0 38 -2t28.5 -17.5t15.5 -44.5q0 -61 -82 -61h-362q-82 0 -82 61zM195 -307q0 41 29.5 71.5t74.5 30.5q41 0 71.5 -30.5t30.5 -71.5t-29.5 -72t-74.5 -31q-41 0 -71.5 31t-30.5 72z" />
<glyph unicode="&#x1e42;" horiz-adv-x="1910" d="M109 61q0 29 15 44.5t28.5 17.5t37.5 2h111v1001h-111q-82 0 -81 62q0 29 15 44t28.5 17t37.5 2h197q51 0 74.5 -15t44.5 -60l448 -1022l449 1026q14 33 36.5 50t38 19t44.5 2h196q25 0 38 -2t28.5 -17t15.5 -44q0 -61 -82 -62h-110v-1001h110q25 0 38 -2t28.5 -17.5 t15.5 -44.5q0 -61 -82 -61h-336q-25 0 -38 2t-28.5 17.5t-15.5 43.5q0 61 82 62h111v991h-2l-447 -1022q-33 -72 -90 -71q-59 0 -90 75l-446 1018h-2v-991h110q25 0 38.5 -2t28.5 -17.5t15 -44.5q0 -61 -82 -61h-336q-81 0 -81 61zM852 -307q0 41 29.5 71.5t74.5 30.5 q41 0 72 -30.5t31 -71.5t-30 -72t-75 -31q-41 0 -71.5 31t-30.5 72z" />
<glyph unicode="&#x1e43;" horiz-adv-x="1792" d="M35 61q0 29 15.5 44.5t28.5 17.5t38 2h110v633h-110q-82 0 -82 61q0 29 15.5 44.5t28.5 17.5t38 2h170q41 0 58 -12.5t20.5 -30t3.5 -62.5q129 117 301 117q203 0 268 -145q137 145 330 145q297 0 297 -299v-471h110q25 0 38 -2t28.5 -17.5t15.5 -44.5q0 -61 -82 -61 h-362q-82 0 -82 61q0 29 15.5 44.5t28.5 17.5t38 2h110v459q0 98 -33.5 142t-134.5 44q-104 0 -196 -69.5t-92 -215.5v-360h110q25 0 38 -2t28.5 -17.5t15.5 -44.5q0 -61 -82 -61h-362q-82 0 -82 61q0 29 15.5 44.5t28.5 17.5t38 2h110v459q0 98 -33.5 142t-134.5 44 q-104 0 -196 -69.5t-92 -215.5v-360h110q25 0 38 -2t28.5 -17.5t15.5 -44.5q0 -61 -82 -61h-362q-82 0 -82 61zM793 -307q0 41 29.5 71.5t74.5 30.5q41 0 71.5 -30.5t30.5 -71.5t-29.5 -72t-74.5 -31q-41 0 -71.5 31t-30.5 72z" />
</font>
</defs>
</svg>
