<?xml version="1.0" standalone="no"?>
<!DOCTYPE svg PUBLIC "-//W3C//DTD SVG 1.1//EN" "http://www.w3.org/Graphics/SVG/1.1/DTD/svg11.dtd" >
<svg xmlns="http://www.w3.org/2000/svg">
<metadata>
This is a custom SVG webfont generated by Font Squirrel.
Copyright   : Copyright 2003 2008 B Jackowski and J M Nowacki on behalf of TeX users groups This work is released under the GUST Font License   see httptugorgfontslicensesGUSTFONTLICENSEtxt for details
</metadata>
<defs>
<font id="webfontVxVFYwnB" horiz-adv-x="1075" >
<font-face units-per-em="2048" ascent="1604" descent="-444" />
<missing-glyph horiz-adv-x="500" />
<glyph unicode=" " />
<glyph unicode="!" d="M440 117q8 47 47 80.5t88.5 33.5t78 -33.5t20.5 -80.5q-10 -49 -49 -83t-88.5 -34t-77 34t-19.5 83zM512 434l98 709q10 55 42 87t55.5 38t42.5 6q12 0 26.5 -4t34.5 -15.5t29.5 -40t3.5 -71.5l-129 -664q-18 -74 -37 -93t-80 -19q-23 0 -40 3t-33.5 19t-12.5 45z" />
<glyph unicode="&#x22;" d="M399 741l41 406q8 70 47 98.5t82 28.5q37 0 68 -27.5t14 -99.5l-94 -408q-16 -84 -92 -84t-66 86zM762 741l41 406q8 70 47 98.5t82 28.5q37 0 67.5 -27.5t14.5 -99.5l-94 -408q-16 -84 -92 -84t-66 86z" />
<glyph unicode="#" d="M137 412q12 86 125 86h82l76 258h-115q-23 0 -42 3t-39.5 24.5t-14.5 58.5q12 86 125 86h139l64 227q27 96 104 96q37 0 60.5 -26.5t5.5 -85.5l-60 -211h172l66 227q4 20 13 38.5t33.5 38t57.5 19.5q37 0 60.5 -26.5t5.5 -85.5l-62 -211h58q25 0 43 -3t38.5 -23.5 t14.5 -59.5q-14 -86 -125 -86h-80l-76 -258h113q23 0 42 -3t39.5 -24.5t14.5 -58.5q-14 -86 -125 -86h-137l-70 -230q-27 -96 -102 -96q-37 0 -57.5 25.5t-14.5 60.5l70 240h-172l-70 -230q-27 -96 -104 -96q-37 0 -57.5 25.5t-14.5 60.5l72 240h-60q-25 0 -43 3t-38.5 23.5 t-14.5 59.5zM518 498h174l76 258h-174z" />
<glyph unicode="$" d="M170 348q8 47 38 76t50.5 34t38.5 5q39 0 66.5 -30t19.5 -77q-6 -49 -43 -75q18 -109 145 -134l72 433q-92 18 -154.5 57t-90 77t-40 84t-11.5 70.5t5 49.5q18 119 130 217t274 122l10 62q4 23 8 33t13.5 29.5t28 27.5t44.5 8q80 0 60 -98l-9 -59q164 -18 238 -111.5 t53 -220.5q-10 -59 -47 -86t-80 -27q-47 0 -70.5 31t-15.5 72q6 43 41 71q-23 92 -145 115l-64 -385q98 -20 165 -67.5t89.5 -98.5t32.5 -105.5t-2 -91.5q-18 -119 -125 -225t-283 -137l-10 -62q-16 -98 -92 -98q-78 0 -61 98l10 60q-162 20 -235.5 120.5t-53.5 235.5z M422 926q-10 -63 38 -109.5t126 -64.5l59 350q-88 -16 -150.5 -65.5t-72.5 -110.5zM639 152q88 18 150.5 74.5t74.5 123.5q10 68 -33 122t-124 75z" />
<glyph unicode="%" d="M158 -80q2 8 20 49l774 1372q43 76 99 76q37 0 57 -25.5t14 -60.5q-2 -14 -20 -49l-776 -1380q-37 -68 -97 -68q-35 0 -55 25.5t-16 60.5zM248 1135q20 121 90 201.5t147.5 80.5t120.5 -81t22.5 -201.5t-89 -201.5t-148.5 -81q-78 0 -120.5 80t-22.5 203zM393 1044.5 q8 -36.5 24.5 -36.5t37 36.5t29 90t1 90.5t-23.5 37q-18 0 -39 -37t-29 -90.5t0 -90zM653 117q18 119 87 199.5t149 80.5t122 -80.5t23 -199.5q-20 -119 -90 -201t-149.5 -82t-120.5 82t-21 201zM796.5 23.5q8.5 -33.5 25 -33.5t37 35.5t30.5 91.5q8 53 0 89t-24.5 36 t-37 -36t-28.5 -89q-11 -60 -2.5 -93.5z" />
<glyph unicode="&#x26;" d="M102 289q18 129 113 223q4 2 70.5 63.5l79.5 73.5q-25 168 0 320q25 147 105.5 226t168.5 79q72 0 112 -46t44 -110.5t-4 -134.5q-31 -170 -263 -377q16 -76 88 -237q72 111 213 370q-74 4 -59 78q10 76 107 76h184q20 0 32.5 -2t28 -8t20.5 -23.5t1 -44.5 q-12 -76 -109 -76h-51l-164 -301q-80 -137 -133 -205q68 -102 133 -102q51 0 78 98q2 25 21.5 51.5t62.5 26.5l18 -2q16 -2 30.5 -22.5t8.5 -57.5q-14 -90 -81.5 -169t-163.5 -79q-121 0 -211 132q-139 -131 -271 -132q-117 0 -173 93.5t-36 218.5zM268.5 195.5 q14.5 -64.5 65.5 -64.5q80 0 172 100q-57 106 -111 261q-72 -68 -94 -102t-33 -95q-14 -35 0.5 -99.5zM496 776q135 129 147 207q16 137 -33 137q-33 0 -62.5 -40t-41.5 -111q-14 -101 -10 -193z" />
<glyph unicode="'" d="M582 741l41 406q8 70 47 98.5t82 28.5q37 0 67.5 -27.5t14.5 -99.5l-95 -408q-16 -84 -91.5 -84t-65.5 86z" />
<glyph unicode="(" d="M451 627q31 182 123 341.5t194 252t183 144.5t110 52q74 0 67 -71q-4 -25 -16 -38.5t-47 -35.5q-201 -123 -309.5 -298t-137.5 -347q-31 -182 22.5 -355.5t205.5 -287.5q29 -25 37 -37.5t4 -38.5q-2 -25 -22.5 -48.5t-65.5 -23.5q-41 0 -127 79t-146 185 q-124 240 -75 527z" />
<glyph unicode=")" d="M156 -92q4 25 17 39t46 35q139 84 238.5 203.5t144.5 226t64 215.5q8 49 11 97t-6 126t-33 146.5t-78 146.5t-136 139q-33 27 -27 64q2 23 24.5 47t63.5 24t127 -78.5t146 -185.5q125 -233 76 -526q-31 -182 -123.5 -342t-194.5 -252t-183 -144.5t-110 -52.5 q-41 0 -55 23.5t-12 48.5z" />
<glyph unicode="*" d="M206 417.5q3 18.5 1 24.5q8 49 74 80l204 105l-172 104q-29 14 -40 29.5t-5 48.5q4 31 33 56.5t64 25.5q23 0 51 -21l170 -110l30 213q20 98 99 98q37 0 54 -20.5t14 -43t-3 -34.5l-39 -213l248 131q45 0 67.5 -19.5t19.5 -38t-1 -24.5q-8 -49 -74 -80l-204 -104l86 -50 q86 -49 108 -65q29 -29 23 -68q-4 -31 -33 -56.5t-63 -25.5q-25 0 -76 35l-146 97l-30 -213q-20 -98 -99 -99q-37 0 -54 20.5t-14 43t3 35.5l39 213l-248 -132q-45 0 -67.5 19.5t-19.5 38z" />
<glyph unicode="+" d="M178 627q14 86 125 86h266l45 268q16 111 105 111q84 0 67 -111l-45 -268h267q25 0 43 -3t38.5 -23.5t14.5 -59.5q-14 -86 -125 -86h-266l-45 -269q-16 -111 -105 -110q-84 0 -67 110l45 269h-267q-25 0 -43 3t-38.5 23.5t-14.5 59.5z" />
<glyph unicode="," d="M324 -197q8 53 79 70q104 43 150 129q-6 -2 -16 -2q-57 0 -91 39t-24 102q8 57 53 98.5t111 41.5q76 0 119 -59.5t26 -155.5q-27 -152 -147.5 -247t-194.5 -95q-31 0 -50 25t-15 54z" />
<glyph unicode="-" d="M213 627q14 86 125 86h635q25 0 43 -3t38.5 -23.5t14.5 -59.5q-14 -86 -125 -86h-635q-25 0 -43 3t-38.5 23.5t-14.5 59.5z" />
<glyph unicode="." d="M422 141q8 55 55 97.5t109 42.5q55 0 90 -40t24 -102q-8 -55 -55 -97t-108 -42q-55 0 -90 41t-25 100z" />
<glyph unicode="/" d="M98 -80q4 16 29 55l889 1377q39 66 94 65q37 0 57.5 -25.5t14.5 -60.5q-2 -14 -27 -55l-889 -1376q-39 -66 -96 -66q-37 0 -56.5 25.5t-15.5 60.5z" />
<glyph unicode="0" d="M203 627q47 274 208.5 460.5t338.5 186.5q174 0 275 -185.5t54 -463.5q-47 -274 -208.5 -461t-338.5 -187q-174 0 -275 185.5t-54 464.5zM375 647q-35 -213 18 -364.5t166 -151.5t217.5 151.5t138.5 364.5q35 205 -24.5 339t-168 134t-210.5 -134t-137 -339z" />
<glyph unicode="1" d="M231 76q12 78 111 78h166l131 792q-109 -70 -205 -69q-80 0 -65 75q10 74 100 78q131 14 233 187q33 57 86 57q76 0 60 -98l-170 -1022h166q27 0 42 -3.5t29.5 -21.5t8.5 -53q-12 -76 -107 -76h-502q-27 0 -43 3t-31.5 20.5t-9.5 52.5z" />
<glyph unicode="2" d="M115 78q6 37 47 65l502 373q256 182 284 352q18 119 -59.5 185.5t-202.5 66.5q-74 0 -137.5 -36.5t-97.5 -96.5q20 -31 14 -69q-8 -47 -46 -76t-77 -29q-37 0 -66.5 26.5t-19.5 84.5q25 139 157 244.5t310 105.5q195 0 309.5 -111.5t83.5 -294.5q-39 -217 -291 -411 l-199 -147l-212 -156h415q6 49 27 71.5t74 22.5q55 0 66.5 -32t-1.5 -66l-8 -52q-10 -59 -31.5 -78.5t-78.5 -19.5h-678q-27 0 -43.5 3t-31.5 21.5t-9 53.5z" />
<glyph unicode="3" d="M133 287q10 53 45 81.5t78 28.5q45 0 70.5 -30.5t17.5 -73.5q-8 -41 -31 -64q27 -53 101.5 -75.5t148.5 -22.5q121 0 210 69.5t106 161.5q14 90 -49.5 162t-194.5 72h-92q-27 0 -43.5 3t-31.5 21.5t-9 53.5q8 49 43 65.5t131 16.5q102 0 184 57q90 61 105 162 q10 61 -45.5 103t-149.5 42q-139 0 -209 -49q8 -27 4 -51q-8 -47 -45 -77t-76 -30q-41 0 -68.5 29t-19.5 82q18 111 136 180.5t303 69.5q174 0 267 -88t75 -209q-31 -178 -201 -293q86 -51 129 -135t27 -187q-27 -152 -171.5 -268.5t-340.5 -116.5q-195 0 -311 86.5 t-93 223.5z" />
<glyph unicode="4" d="M127 432q6 37 11 48.5t24 31.5l573 715q29 33 46.5 41t60.5 8h55q61 0 76.5 -19.5t5.5 -78.5l-115 -686h140q27 0 43 -3.5t31.5 -21.5t8.5 -53q-12 -76 -108 -76h-139l-31 -184h106q29 0 44.5 -3.5t30 -21.5t7.5 -53q-12 -76 -108 -76h-359q-27 0 -43 3t-31.5 20.5 t-9.5 52.5q12 78 111 78h109l30 184h-487q-57 0 -73.5 18.5t-8.5 75.5zM319 492h398l104 624z" />
<glyph unicode="5" d="M152 299q10 61 49 87t75 26q39 0 67 -30t19 -77q-6 -39 -32 -65q45 -109 200 -109q121 0 220.5 76t117.5 188q16 98 -35 179t-159 81q-156 0 -254 -94q-35 -37 -78 -37q-51 0 -63.5 33t0.5 66l88 530q10 59 31.5 78.5t78.5 19.5h539q27 0 43 -3t30.5 -21.5t8.5 -52.5 q-12 -76 -109 -76h-465l-55 -338q113 49 233 49q176 0 268.5 -125t65.5 -289q-29 -172 -183.5 -295t-348.5 -123q-172 0 -273.5 95.5t-78.5 226.5z" />
<glyph unicode="6" d="M195.5 308q-13.5 122 11.5 304q33 199 139.5 353.5t243.5 231.5t276 77q143 0 201.5 -66.5t44.5 -154.5q-8 -51 -43 -81t-82 -30q-45 0 -68.5 29.5t-17.5 75.5q8 39 23 55q-33 18 -84 18q-127 0 -253 -106.5t-184 -284.5q135 92 293 92q170 0 269.5 -121.5t70.5 -298.5 q-31 -182 -178 -303t-321 -121q-82 0 -148.5 31t-123 104.5t-70 195.5zM367 340q31 -209 196 -209q104 0 195.5 77t109.5 193q18 109 -40 187t-169 78q-106 0 -191 -59.5t-99 -147.5q-8 -86 -2 -119z" />
<glyph unicode="7" d="M266 1055.5q2 21.5 4 46.5l15 84q4 29 10 47t28.5 34.5t61.5 16.5q53 0 68 -33h647q29 0 45 -3t30.5 -21.5t8.5 -52.5q-4 -25 -14.5 -37.5t-49.5 -42.5q-70 -59 -141.5 -135t-168.5 -204t-176 -306.5t-116 -374.5q-16 -96 -100 -97q-80 0 -66 111q16 94 50 201.5 t96.5 245t169 286t243.5 277.5h-473q-8 -49 -27.5 -71.5t-72.5 -22.5q-39 0 -56.5 15t-15.5 36.5z" />
<glyph unicode="8" d="M147 362q16 102 99.5 185.5t197.5 126.5q-96 43 -142 112.5t-34 151.5q23 131 162 233.5t319.5 102.5t285 -101.5t81.5 -234.5q-12 -82 -80.5 -150.5t-181.5 -113.5q100 -41 155.5 -124t39.5 -188q-27 -156 -175.5 -270.5t-341.5 -114.5q-190 0 -301 115.5t-84 269.5z M317 365q-16 -96 54.5 -165t187.5 -69t210 68.5t110 165.5q14 90 -52.5 160.5t-189.5 70.5t-214.5 -70.5t-105.5 -160.5zM438 936q-12 -78 54.5 -132t169 -54t187.5 54t97 132q12 74 -52.5 129t-170.5 55q-109 0 -191 -55t-94 -129z" />
<glyph unicode="9" d="M168 150.5q2 27.5 2 48.5q8 51 43 80.5t82 29.5q45 0 68.5 -29.5t17.5 -74.5q-4 -29 -19 -51q39 -23 105 -23q129 0 244.5 111.5t169.5 279.5q-139 -92 -295 -92q-170 0 -269.5 122t-70.5 298q31 184 181.5 304t328.5 120q80 0 144.5 -30t119.5 -102.5t67.5 -194.5 t-12.5 -308q-49 -293 -235.5 -477.5t-399.5 -184.5q-78 0 -133 16.5t-81.5 42t-43 56.5t-14.5 58.5zM414 850q-18 -109 40 -186.5t169 -77.5q113 0 195.5 62.5t96.5 144.5q20 123 -25.5 225t-160.5 102q-106 0 -200.5 -75.5t-114.5 -194.5z" />
<glyph unicode=":" d="M422 141q8 55 55 97.5t109 42.5q55 0 90 -40t24 -102q-8 -55 -55 -97t-108 -42q-55 0 -90 41t-25 100zM522 752q10 55 57.5 98t108.5 43q55 0 90 -41t25 -102q-10 -55 -56.5 -97.5t-107.5 -42.5q-55 0 -90 41.5t-27 100.5z" />
<glyph unicode=";" d="M324 -197q6 39 59 66q100 49 141 131q-63 6 -86.5 48t-15.5 93q10 59 55 99.5t107 40.5q66 0 99.5 -54.5t16.5 -156.5q-18 -106 -87.5 -191.5t-131 -120t-92.5 -34.5t-50 24t-15 55zM522 752q10 55 57.5 98t108.5 43q55 0 90 -41t25 -102q-10 -55 -56.5 -97.5 t-107.5 -42.5q-55 0 -90 41.5t-27 100.5z" />
<glyph unicode="&#x3c;" d="M213 627q8 49 68 80l723 411q37 23 65 23q33 0 55.5 -22.5t16.5 -61.5q-8 -47 -70 -82l-610 -348l495 -348q49 -39 41 -82q-6 -39 -36.5 -61.5t-63.5 -22.5q-29 0 -57 22l-594 416q-39 31 -33 76z" />
<glyph unicode="=" d="M154 475q14 86 120 86h713q25 0 42.5 -3t36.5 -23.5t13 -59.5q-14 -86 -131 -86h-692q-25 0 -46.5 3t-41.5 24.5t-14 58.5zM203 778q14 86 131 86h692q25 0 46.5 -3t42 -24.5t13.5 -58.5q-12 -86 -120 -86h-713q-23 0 -41 3t-37.5 23.5t-13.5 59.5z" />
<glyph unicode="&#x3e;" d="M141 197q8 47 70 82l610 348l-495 348q-49 39 -41 82q8 39 37.5 61.5t62.5 22.5q29 0 57 -23l594 -416q41 -33 33 -75q-8 -47 -65 -80l-725 -412q-37 -23 -66 -22q-33 0 -55.5 22.5t-16.5 61.5z" />
<glyph unicode="?" d="M289 1004q16 102 125.5 181t312.5 79q111 0 191.5 -20.5t117.5 -50.5t61.5 -66.5t22.5 -69.5t-2 -58q-20 -129 -174 -206q-229 -117 -258 -295l-6 -35q-10 -59 -33.5 -77.5t-79.5 -18.5q-66 0 -78 25.5t5 94.5q6 35 12 61.5t31.5 79t63.5 95.5t112.5 100.5t175.5 108.5 q55 31 59 67q8 47 -53 79t-195 32q-139 0 -208 -55q12 -27 6 -56q-8 -47 -45 -75.5t-76 -28.5q-41 0 -68.5 29t-19.5 80zM410 117q8 47 47 80.5t88 33.5t77.5 -33.5t20.5 -80.5q-10 -49 -49 -83t-88 -34t-76.5 34t-19.5 83z" />
<glyph unicode="@" d="M190.5 626.5q45.5 270.5 235.5 454t405 183.5q360 0 267 -607q-23 -127 -71 -220t-106.5 -139t-108.5 -66.5t-95 -20.5q-121 0 -192.5 117.5t-41.5 298.5q29 174 139.5 293.5t235.5 119.5q45 0 90 -20q-39 90 -143 90q-156 0 -296 -138t-175 -347q-33 -203 60 -343.5 t253 -140.5q111 0 215 82q29 25 74 25q14 0 25.5 -2t28 -8.5t23.5 -21.5t3 -40q-8 -53 -135 -120.5t-258 -67.5q-219 0 -348.5 184t-84 454.5zM631 625q-18 -109 17.5 -184.5t101.5 -75.5q61 0 122.5 74.5t80 185t-17.5 186.5t-101 76q-61 0 -123 -74.5t-80 -187.5z" />
<glyph unicode="A" d="M63 76q8 49 56 71q18 6 82 7l411 1034q25 59 51.5 73.5t86 14.5t82 -15.5t26.5 -74.5l68 -1032q61 0 78 -9q33 -15 32 -50q0 -9 -2 -19q-12 -76 -114 -76h-203q-31 0 -47.5 3t-31.5 20.5t-9 52.5q8 47 34.5 61.5t88.5 16.5l-11 176h-299l-67 -176q59 -2 81 -17 q16 -10 15 -38q0 -10 -2 -23q-6 -35 -26.5 -52.5t-38 -20.5t-48.5 -3h-202q-27 0 -45.5 3t-34.5 22q-12 13 -12 34q-1 8 1 17zM504 483h225l-22 533z" />
<glyph unicode="B" d="M55 76q12 78 113 78h37l155 944h-36q-27 0 -43.5 3t-32 21.5t-8.5 53.5q12 76 108 75h451q164 0 244 -100q63 -78 64 -172q0 -26 -5 -53q-14 -86 -74.5 -157t-150.5 -112q98 -37 144 -121q34 -63 34 -134q0 -25 -4 -52q-25 -135 -139.5 -242.5t-280.5 -107.5h-492 q-25 0 -41 3t-32 21q-12 13 -12 34q-1 9 1 18zM377 154h237q113 0 183.5 60t85.5 138q4 20 3 39q0 57 -31 111q-42 72 -148 71h-261zM471 727h188q123 0 193 62.5t82 134.5q2 13 2 26q0 47 -29 91q-37 56 -141 57h-234z" />
<glyph unicode="C" d="M182 627q45 274 224.5 460.5t381.5 186.5q137 0 240 -88q25 43 27 45q39 43 78 43q62 0 62 -67q0 -14 -3 -31l-47 -277q-4 -25 -8 -38t-14.5 -29.5t-30 -23.5t-50.5 -7q-33 0 -50 12t-19 25.5t-2 40.5q0 113 -57.5 177t-145.5 64q-131 0 -256 -142t-160 -351 q-11 -66 -11 -125q0 -130 53 -229q77 -142 212 -142q80 0 165 53.5t114 175.5q18 72 96 72q20 0 34.5 -2t30 -21.5t9.5 -56.5q-25 -145 -166 -260t-318 -115q-203 0 -318 187q-83 134 -83 315q-1 71 12 148z" />
<glyph unicode="D" d="M47 76q12 78 113 78h28l156 944h-29q-27 0 -43 3t-31.5 20.5t-9.5 52.5q12 78 111 77h412q131 0 221 -90t122 -234q17 -76 16 -158q0 -74 -13 -153q-43 -254 -201 -435t-354 -181h-412q-27 0 -43 3t-33 21q-12 13 -12 34q0 9 2 18zM358 154h177q150 0 258 139t139 323 q8 63 8 123q0 52 -6 102q-12 108 -76.5 182.5t-167.5 74.5h-176z" />
<glyph unicode="E" d="M61 76q12 78 113 78h43l156 944h-43q-27 0 -43.5 3t-31.5 21.5t-9 53.5q12 76 110 75h746q57 0 73 -20q9 -12 9 -38q0 -17 -4 -40l-25 -145q-6 -33 -11 -48.5t-27.5 -33t-63.5 -17.5q-39 0 -56.5 15.5t-15.5 37t4 46.5l14 90h-456l-62 -373h230q14 68 32.5 90.5 t71.5 22.5q39 0 56.5 -15.5t15.5 -36t-4 -45.5l-31 -186q-6 -31 -11 -48.5t-27.5 -33.5t-61.5 -16q-53 0 -66 25q-6 13 -6 35.5t6 53.5h-229l-70 -417h502l18 120q4 25 8.5 38.5t14.5 29.5t29.5 23.5t50.5 7.5q39 0 56 -15.5t15 -37t-4 -46.5l-28 -176q-10 -59 -33 -78.5 t-80 -19.5h-789q-27 0 -43 3t-32 21q-12 13 -12 34q-1 9 1 18z" />
<glyph unicode="F" d="M66 76q12 78 112 78h49l156 944h-49q-27 0 -43.5 3t-31.5 20.5t-9 52.5q12 78 110 77h760q59 0 75 -20q9 -12 9 -38q0 -17 -4 -40l-24 -145q-6 -31 -12.5 -48.5t-29 -34t-61.5 -16.5t-56.5 15.5t-15 37t4.5 46.5l14 90h-467l-66 -396h240q12 68 31.5 91.5t75.5 23.5 q39 0 55 -15.5t15 -37t-3 -45.5l-33 -187q-4 -29 -10 -47t-28.5 -34.5t-61.5 -16.5q-55 0 -68 26q-6 12 -5 31q0 23 7 58h-239l-66 -395h88q27 0 43.5 -3.5t30.5 -21.5t8 -53q-12 -76 -108 -76h-307q-27 0 -43.5 3t-32.5 21q-12 13 -12 34q0 9 2 18z" />
<glyph unicode="G" d="M178 627q45 274 213 460.5t357 186.5q127 0 213 -80q31 47 51 63.5t51 16.5q62 0 62 -67q0 -14 -3 -31l-47 -277q-4 -25 -8 -38t-14.5 -29.5t-29.5 -23.5t-50 -7q-43 0 -57.5 17.5t-14.5 53.5q2 135 -52 191.5t-120 56.5q-117 0 -231.5 -141t-149.5 -354 q-12 -72 -12 -136q0 -121 43 -215q66 -143 184 -143q78 0 146.5 71.5t109.5 215.5h-65q-27 0 -43.5 3t-31.5 21.5t-9 53.5q12 76 110 75h238q25 0 42 -3t32.5 -21.5t9.5 -50.5q-12 -78 -107 -78l-53 -320q-6 -31 -11 -48t-27.5 -33.5t-61.5 -16.5q-78 0 -74 63 q-106 -86 -238 -86q-186 0 -292 187q-74 129 -74 302q0 76 14 161z" />
<glyph unicode="H" d="M53 76q12 78 111 78h35l155 944h-35q-27 0 -42 3t-30.5 20.5t-8.5 52.5q12 78 108 77h238q27 0 43 -3t31.5 -21.5t9.5 -52.5q-12 -76 -111 -76h-33l-61 -371h389l61 371h-32q-27 0 -43.5 3t-30.5 21.5t-8 53.5q12 76 108 75h238q27 0 43 -3t32 -21q11 -13 11 -35 q0 -9 -2 -18q-12 -76 -111 -76h-35l-155 -944h35q27 0 43 -3.5t30.5 -21.5t7.5 -53q-12 -76 -108 -76h-238q-27 0 -43 3t-31.5 21.5t-9.5 53.5q12 76 111 76h33l69 419h-389l-69 -419h32q27 0 43.5 -3.5t30.5 -21.5t8 -53q-12 -76 -108 -76h-238q-27 0 -43 3t-32 21 q-11 12 -11 33q0 9 2 19z" />
<glyph unicode="I" d="M168 78q12 76 113 76h198l156 944h-199q-27 0 -43 3t-31.5 21.5t-9.5 53.5q12 76 111 75h567q27 0 43.5 -3t32.5 -21q12 -13 12 -36q0 -8 -2 -17q-12 -76 -112 -76h-199l-156 -944h199q27 0 43 -3.5t31.5 -21.5t9.5 -53q-12 -76 -111 -76h-567q-27 0 -43 3t-33 22 q-12 13 -12 35q0 9 2 18z" />
<glyph unicode="J" d="M174 213q10 53 46 82t79 29q45 0 71 -31q19 -23 19 -54q0 -10 -2 -20q-6 -33 -18 -49q47 -39 141 -39q23 0 46.5 4t61 18.5t66.5 51.5t39 90l133 803h-149q-25 0 -41.5 3t-32 21.5t-8.5 53.5q12 76 108 75h363q27 0 43 -3t32 -20q12 -13 12 -35q0 -8 -1 -17 q-12 -78 -113 -78h-45l-135 -815q-23 -137 -141.5 -221.5t-264.5 -84.5q-156 0 -240 67q-71 56 -72 137q0 15 3 32z" />
<glyph unicode="K" d="M61 78q12 76 113 76h29l155 944h-28q-27 0 -43.5 3t-31.5 21.5t-9 53.5q12 76 110 75h199q27 0 44 -3t32.5 -21.5t9.5 -52.5q-12 -76 -113 -76h-26l-78 -469l453 471q-55 7 -56 54q0 9 2 20q12 78 111 77h174q25 0 42 -3t34 -21q12 -13 12 -35q0 -8 -2 -16 q-8 -49 -39 -63.5t-96 -14.5l-354 -369l229 -575q55 0 80 -16q18 -12 18 -41q0 -10 -2 -21q-12 -76 -110 -76h-150q-27 0 -44 3t-32.5 21.5t-9.5 53.5q12 70 82 74l-178 456l-203 -211l-39 -243h27q27 0 43 -3.5t31.5 -21.5t9.5 -53q-12 -76 -111 -76h-199q-27 0 -44 3 t-32 22q-11 13 -11 34q-1 9 1 19z" />
<glyph unicode="L" d="M74 76q12 78 110 78h58l155 944h-57q-27 0 -42 3t-30.5 20.5t-9.5 52.5q12 78 109 77h323q25 0 41.5 -3t32.5 -21.5t10 -52.5q-12 -76 -110 -76h-97l-155 -944h448l19 120q6 27 9 38.5t13 28.5t29.5 24.5t50.5 7.5q39 0 56 -15q16 -13 16 -32q0 -2 -4 -52l-29 -176 q-10 -59 -31.5 -78.5t-81.5 -19.5h-749q-27 0 -43.5 3t-31.5 21q-11 12 -11 33q0 9 2 19z" />
<glyph unicode="M" d="M43 76q8 47 37 62.5t84 15.5l155 944q-55 0 -77 15q-17 11 -17 40q0 10 2 23q12 76 109 75h113q88 0 102 -57l88 -578l266 545q25 51 50.5 70.5t86.5 19.5h113q27 0 43 -3t32 -20q11 -12 11 -34q0 -9 -2 -18q-8 -47 -36.5 -62.5t-84.5 -15.5l-155 -944q55 0 77 -16 q17 -11 17 -39q0 -10 -2 -23q-12 -76 -109 -76h-164q-27 0 -43 3t-31.5 20.5t-9.5 52.5q8 47 37 62.5t84 15.5l139 835l-260 -528q-37 -53 -94 -53q-43 0 -67 38l-88 543l-140 -835q53 0 76 -16q17 -11 17 -39q0 -10 -3 -23q-12 -76 -108 -76h-164q-27 0 -43 3t-32 21 q-11 12 -11 33q0 9 2 19z" />
<glyph unicode="N" d="M66 78q12 76 110 76h35l156 944h-35q-27 0 -43.5 3t-30.5 21.5t-8 53.5q12 76 108 75h136q51 0 74.5 -15t33.5 -67l186 -915l140 844h-33q-27 0 -42 3t-30.5 20.5t-9.5 52.5q12 78 109 77h211q27 0 43 -3t31 -21q11 -13 11 -35q0 -9 -1 -18q-12 -76 -111 -76h-35 l-166 -1000q-10 -63 -33.5 -80.5t-80.5 -17.5q-37 0 -54.5 3t-34 21.5t-22.5 57.5l-186 915l-140 -843h33q27 0 43 -3.5t30.5 -21.5t8.5 -53q-12 -76 -109 -76h-210q-27 0 -43.5 3t-31.5 22q-11 13 -11 34q0 9 2 19z" />
<glyph unicode="O" d="M169 195q-2 25 -2 51q0 58 8 124q11 95 38 254.5t47.5 256t52 176.5t62.5 116.5t89 62.5t119.5 32t166.5 6q78 0 128 -3t96 -15.5t70.5 -30t44 -54t23.5 -79.5q2 -25 2 -59q0 -26 -1 -57q-3 -73 -13 -153t-30.5 -198.5t-36 -198.5t-37 -152.5t-40 -115.5t-50.5 -79 t-62.5 -53.5t-81.5 -29.5t-101.5 -15.5t-128.5 -3.5q-104 0 -163.5 5.5t-108.5 32t-67.5 63.5t-23.5 117zM346 262q6 -74 50 -102.5t163 -28.5q123 0 176 31t82 110q39 102 84 371q38 225 38 327q0 19 -1 34q-8 72 -55 94t-160 22q-119 0 -173 -27.5t-91 -117.5 q-29 -78 -74 -332q-40 -265 -40 -359q0 -12 1 -22z" />
<glyph unicode="P" d="M61 76q12 78 113 78h43l156 944h-43q-27 0 -43.5 3t-31.5 21.5t-9 53.5q12 76 110 75h447q172 0 264 -114q72 -89 72 -201q0 -32 -6 -66q-27 -154 -155 -267.5t-302 -113.5h-234l-55 -335h43q27 0 43 -3.5t31.5 -21.5t9.5 -53q-12 -76 -111 -76h-256q-27 0 -43 3t-32 21 q-12 13 -12 34q-1 9 1 18zM469 643h195q125 0 205.5 70.5t95.5 156.5q3 17 2 33q0 65 -45 123q-57 72 -183 72h-194z" />
<glyph unicode="Q" d="M169 195q-2 25 -2 51q0 58 8 124q11 95 38 254.5t47.5 256t52 176.5t62.5 116.5t89 62.5t119.5 32t166.5 6q78 0 128 -3t96 -15.5t70.5 -30t44 -54t23.5 -79.5q2 -25 2 -59q0 -26 -1 -57q-3 -73 -13 -153t-31 -198q-43 -244 -68 -336q-35 -121 -75.5 -182.5t-106.5 -90.5 l41 -104l41 -135q-8 -53 -90 -53h-18q-59 0 -78 30l-80 226l-103 -3q-104 0 -163.5 5.5t-108.5 32t-67.5 63.5t-23.5 117zM344 283q2 -82 42 -117t157 -35h39l-56 154q-6 16 -4 34q8 53 88 54h23q37 0 46 -5.5t21 -33.5l60 -158q37 25 67.5 114t71.5 337q39 226 39 331v11 q0 90 -45 120.5t-170 30.5t-176 -28.5t-84 -108.5q-35 -90 -80 -358q-39 -226 -39 -332v-10z" />
<glyph unicode="R" d="M55 76q12 78 109 78h35l155 944h-35q-27 0 -42 3t-29.5 20.5t-7.5 52.5q12 78 106 77h354q178 0 274 -105q76 -84 76 -190q0 -27 -6 -57q-10 -72 -61 -148.5t-143 -129.5q49 -49 65 -113q3 -16 3 -41q0 -55 -15 -154q-10 -61 -14.5 -93t1 -60.5t23.5 -28.5q20 0 29 49 q16 100 102 101q20 0 34.5 -2.5t28.5 -21.5q9 -13 9 -35q0 -10 -2 -21q-12 -76 -72.5 -150t-152.5 -74q-115 0 -156 101q-17 59 -17 97q0 35 23 165q11 51 11 88q0 44 -23 70q-51 51 -144 51h-139l-65 -395h32q27 0 43.5 -3.5t30.5 -21.5t8 -53q-12 -76 -108 -76h-238 q-27 0 -42 3t-30 21q-11 12 -11 33q-1 9 1 19zM457 702h129q119 0 197.5 60.5t90.5 136.5q3 15 3 29q0 59 -47 108q-58 61 -179 62h-129z" />
<glyph unicode="S" d="M115 76l45 264q6 33 11 48t27.5 31.5t61.5 16.5q37 0 54.5 -12t16.5 -31.5t-1 -40.5q-2 -16 -2 -30q0 -85 71 -138q78 -53 205 -53q104 0 177 63.5t87 143.5q4 21 4 39q0 134 -180 170l-221 55q-121 35 -176 127q-41 69 -42 148q0 26 5 53q23 139 150 241.5t294 102.5 q158 0 256 -82q37 82 97 82q62 0 62 -67q0 -14 -3 -31l-45 -265q-4 -23 -8 -36t-14.5 -29.5t-30 -23.5t-49.5 -7q-39 0 -55.5 14.5t-16.5 53.5q0 238 -221 237q-96 0 -170 -54t-86 -128q-2 -14 -2 -27q0 -45 27 -81q36 -46 96 -64l153 -37q127 -31 177.5 -53.5t101.5 -79.5 q63 -82 63 -184q0 -31 -6 -64q-25 -147 -151.5 -259t-301.5 -112q-193 0 -305 82q-23 -45 -43 -63.5t-53 -18.5q-62 0 -62 67q0 15 3 32z" />
<glyph unicode="T" d="M217 1008l25 145q8 59 31.5 78.5t82.5 19.5h781q59 0 74 -20q9 -12 10 -38q0 -17 -4 -40l-25 -145q-6 -31 -12 -48.5t-29 -34t-61.5 -16.5t-56 15.5t-15.5 37t4 46.5l14 90h-231l-156 -944h88q27 0 43.5 -3.5t30.5 -21.5t8 -53q-12 -76 -108 -76h-346q-27 0 -43.5 3 t-32 21.5t-8.5 53.5q12 76 110 76h88l156 944h-234l-14 -90q-6 -31 -12 -48.5t-28.5 -34t-61.5 -16.5t-57 16q-16 14 -15 32q0 7 0.5 15.5t1.5 19t2 16.5z" />
<glyph unicode="U" d="M203 1176q12 76 110 75h256q27 0 43.5 -3t33 -20.5t9.5 -51.5q-12 -78 -112 -78h-43l-111 -666q-7 -41 -6 -77q0 -87 38 -144q54 -80 138 -80q82 0 164 81t104 220l111 666h-43q-27 0 -43 3t-31.5 21.5t-9.5 53.5q12 76 111 75h256q27 0 43 -3t32 -20q12 -13 12 -35 q0 -8 -1 -17q-12 -78 -113 -78h-43l-111 -674q-31 -188 -169 -317.5t-295.5 -129.5t-250.5 129q-70 97 -70 228q0 43 7 90l111 674h-43q-27 0 -43.5 3t-31.5 21q-11 13 -11 35q0 9 2 19z" />
<glyph unicode="V" d="M229 1176q12 76 111 75h205q25 0 41 -3t32.5 -20.5t10.5 -51.5q-8 -47 -35 -61.5t-86 -16.5l67 -871l355 871q-57 2 -79 17q-16 11 -16 38q0 10 3 23q12 76 108 75h205q27 0 43 -3t33 -20q12 -13 12 -35q0 -8 -2 -17q-8 -49 -39 -63.5t-94 -14.5l-430 -1028 q-16 -39 -40 -59.5t-43.5 -23.5t-55.5 -3q-39 0 -57.5 4t-34 23.5t-19.5 60.5l-90 1026q-63 0 -88 14q-18 11 -19 41q0 11 2 23z" />
<glyph unicode="W" d="M217 1174q12 78 109 77h157q27 0 43.5 -3t31.5 -21.5t9 -52.5q-12 -76 -110 -76h-31l-33 -834l168 445q33 55 103 55q76 0 88 -57l18 -441l242 832h-31q-27 0 -42 3t-30.5 20.5t-9.5 52.5q12 78 109 77h157q25 0 41.5 -3t32.5 -21q12 -13 12 -36q0 -8 -2 -17 q-14 -72 -92 -76l-311 -1030q-27 -84 -113 -84q-78 0 -84 61l-22 481l-191 -491q-35 -51 -100 -51q-16 0 -26.5 2t-26 8t-23.5 25.5t-8 48.5l29 1030q-66 5 -66 55q0 10 2 21z" />
<glyph unicode="X" d="M63 76q12 78 111 78h35l340 510l-160 434h-35q-27 0 -43 3t-31.5 21.5t-9.5 53.5q12 76 111 75h207q27 0 43 -3t31.5 -20.5t9.5 -51.5q-12 -70 -90 -78l88 -240l155 240q-37 2 -55 18.5t-12 59.5q12 76 106 75h209q27 0 43.5 -3t32.5 -21q12 -13 12 -36q0 -8 -2 -17 q-12 -76 -112 -76h-35l-289 -430l188 -514h37q27 0 43.5 -3.5t31.5 -21.5t9 -53q-12 -76 -110 -76h-207q-27 0 -43.5 3t-31.5 20.5t-9 52.5q6 43 29.5 59.5t64.5 18.5l-117 335l-213 -335q71 -4 71 -60q0 -8 -1 -18q-12 -76 -111 -76h-207q-27 0 -43 3t-31 21q-11 12 -11 33 q-1 9 1 19z" />
<glyph unicode="Y" d="M231 1176q12 76 109 75h209q25 0 41 -3t31.5 -20.5t9.5 -51.5q-12 -74 -96 -78l118 -416l250 416q-37 2 -55.5 18.5t-11.5 59.5q12 76 106 75h209q27 0 43 -3t32 -21q11 -13 11 -35q0 -9 -2 -18q-12 -76 -111 -76h-32l-385 -598l-58 -346h33q29 0 44 -3.5t29.5 -21.5 t8.5 -53q-12 -76 -109 -76h-235q-29 0 -45.5 3t-30.5 21.5t-8 53.5q12 76 110 76h33l58 346l-191 598h-33q-27 0 -43 3t-30 21q-10 13 -10 34q-1 10 1 20z" />
<glyph unicode="Z" d="M109 37q-2 9 -2.5 21t2.5 26q6 37 34 70l795 944h-469l-14 -90q-6 -33 -11.5 -48.5t-28 -33t-63.5 -17.5q-39 0 -56 15.5t-15 37t4 46.5l24 145q8 59 32 78.5t83 19.5h668q23 0 35 -2t27 -9t20 -26q2 -9 2 -20.5t-2 -26.5q-6 -37 -35 -69l-795 -944h502l20 127 q4 25 8.5 38t14.5 29.5t29.5 23.5t50.5 7q39 0 56 -15.5t15 -37t-4 -45.5l-30 -183q-10 -59 -32 -78.5t-81 -19.5h-703q-23 0 -35 2t-27 9.5t-19 25.5z" />
<glyph unicode="[" d="M434 -68l232 1387q10 59 31.5 78.5t78.5 19.5h363q27 0 43 -3t30.5 -21.5t8.5 -53.5q-12 -76 -107 -75h-289l-213 -1276h289q27 0 43.5 -3t30.5 -21.5t8 -53.5q-12 -76 -109 -76h-362q-57 0 -72.5 20.5t-5.5 77.5z" />
<glyph unicode="\" d="M334 1331q6 35 34.5 60.5t65.5 25.5q57 0 74 -63l432 -1379q10 -37 6 -55q-4 -35 -33.5 -60.5t-66.5 -25.5q-55 0 -72 64l-432 1378q-10 37 -8 55z" />
<glyph unicode="]" d="M61 -88q12 76 107 76h289l213 1276h-289q-27 0 -43 3t-30.5 21.5t-8.5 52.5q12 76 107 76h362q57 0 72.5 -20.5t5.5 -77.5l-232 -1387q-10 -57 -31.5 -77.5t-78.5 -20.5h-363q-27 0 -42 3t-29.5 21.5t-8.5 53.5z" />
<glyph unicode="^" d="M314.5 1053q9.5 41 54.5 61l352 158q31 12 59 0l299 -158q35 -25 32 -62.5t-40 -65.5t-76 -9l-274 127l-315 -127q-43 -18 -72 8.5t-19.5 67.5z" />
<glyph unicode="_" d="M68 -240q14 86 125 86h634q25 0 43.5 -3t39 -23.5t14.5 -59.5q-12 -86 -125 -86h-635q-25 0 -43.5 3.5t-38.5 23.5t-14 59z" />
<glyph unicode="`" d="M508 1188q6 37 34.5 61.5t65.5 24.5l43 -12l244 -119q29 -12 41 -27.5t6 -46.5q-2 -23 -29.5 -58.5t-68.5 -35.5q-16 0 -41 10l-244 119q-59 27 -51 84z" />
<glyph unicode="a" d="M154 272q25 143 200.5 224.5t450.5 87.5q1 11 1 22q0 72 -48 108q-55 42 -162 42l-100 -6q-10 -57 -48 -83t-75 -26q-43 0 -69 29q-19 22 -19 55q0 11 2 23q29 162 331 161q207 0 292 -98q68 -79 69 -177q0 -24 -4 -48l-70 -420q29 -12 103 -12q27 0 42 -3.5t30 -20.5 q11 -12 11 -34q0 -9 -1 -18q-8 -51 -38 -64.5t-91 -13.5q-166 0 -209 59q-131 -72 -299 -71q-156 0 -237 85q-66 69 -66 158q1 20 4 41zM322 272q-2 -10 -2 -19q0 -43 38 -74q47 -38 131 -38q102 0 177 33q35 14 54 34.5t23.5 34t8.5 40.5l24 151q-199 -8 -320.5 -51 t-133.5 -111z" />
<glyph unicode="b" d="M207 98l166 1000h-74q-25 0 -41 3t-31.5 20.5t-9.5 52.5q12 78 111 77h145q59 0 75 -20q9 -12 9 -38q0 -17 -4 -40l-55 -328q121 78 252 78q166 0 263 -133q73 -100 73 -231q0 -44 -9 -93q-31 -193 -181.5 -325.5t-322.5 -132.5q-121 0 -202 82q-18 -70 -95 -70 q-39 0 -57 14q-17 13 -16 33q0 2 4 51zM428 397q-4 -21 -4 -43q0 -63 32 -127q42 -86 140 -86q104 0 198.5 87t114.5 218q6 35 7 67q0 82 -42 146q-57 90 -161 91q-88 0 -167 -62.5t-93 -144.5z" />
<glyph unicode="c" d="M217 446q12 74 51 151t104.5 148.5t171 117.5t230.5 46q39 0 71 -2t79 -10t76.5 -24.5t49.5 -48.5q14 -22 13 -51q0 -12 -2 -25q-8 -49 -44 -78t-81 -29q-86 0 -86 86q0 13 2 27l-102 2q-90 0 -161 -34t-111 -87t-61.5 -100.5t-29.5 -88.5q-4 -28 -4 -53q0 -93 57 -163 q74 -89 195 -89q135 0 201 111q18 35 37.5 44t52.5 9q14 0 29.5 -2t33 -20.5t10.5 -49.5q-4 -18 -26.5 -54t-66.5 -81t-126 -77.5t-184 -32.5q-193 0 -301 135q-85 105 -85 243q0 38 7 80z" />
<glyph unicode="d" d="M143 444q33 195 182.5 327t321.5 132q121 0 205 -72l43 267h-74q-25 0 -41 3t-31.5 20.5t-9.5 52.5q12 78 111 77h145q59 0 75 -20q9 -12 9 -38q0 -17 -4 -40l-166 -999h74q25 0 41 -3.5t31.5 -20.5t9.5 -52q-12 -78 -111 -78h-145q-57 0 -72 17q-11 14 -11 44q0 9 1 19 q-121 -92 -252 -92q-166 0 -265 133q-75 100 -75 232q0 44 8 91zM311 444q-5 -33 -5 -63q0 -85 42 -151q57 -89 160 -89q98 0 176 86t94 176l23 142q3 17 3 34q0 59 -40 108q-51 62 -137 63q-104 0 -198.5 -87.5t-117.5 -218.5z" />
<glyph unicode="e" d="M182 449q31 190 184.5 325t338.5 135q193 0 277 -126q61 -91 61 -213q0 -47 -9 -99q-6 -43 -25.5 -63.5t-36 -23.5t-48.5 -3h-576q8 -111 87 -175.5t186 -64.5q143 0 210 111q18 33 37 43t54 10q14 0 29.5 -2t32.5 -20.5t11 -49.5q-4 -25 -30.5 -61.5t-74.5 -79.5 t-131 -73.5t-179 -30.5q-199 0 -315 135q-90 105 -90 244q0 40 7 82zM375 532h493q1 12 1 24q0 102 -50 149q-55 51 -139 51q-94 0 -179 -63t-126 -161z" />
<glyph unicode="f" d="M92 78q12 76 113 76h186l96 585h-186q-27 0 -43 3t-31.5 20.5t-9.5 52.5q12 78 113 78h184l14 88q23 131 131.5 207t243.5 76q25 0 49.5 -3.5t64.5 -14.5t60 -42q15 -22 15 -51q0 -12 -2 -25q-8 -47 -45 -75.5t-76 -28.5q-74 0 -86 86q-164 0 -189 -139l-12 -78h229 q27 0 43.5 -3t29.5 -21.5t7 -53.5q-12 -76 -106 -76h-230l-96 -585h186q27 0 43.5 -3.5t32 -21.5t8.5 -53q-12 -76 -110 -76h-541q-27 0 -43 3t-33 22q-12 13 -12 35q0 9 2 18z" />
<glyph unicode="g" d="M31 -147q29 160 184 251q-20 42 -20 94q0 22 4 46q14 80 59 135q-35 58 -35 135q0 27 4 55q23 135 140.5 234.5t263.5 99.5q102 0 182 -55q109 66 223 65q82 0 116 -39q27 -31 27 -66q0 -9 -1 -17q-6 -47 -41 -73t-72 -26q-23 0 -47.5 16.5t-30.5 51.5q-51 -10 -86 -25 q23 -56 23 -114q0 -26 -4 -52q-23 -139 -140.5 -238.5t-261.5 -99.5q-94 0 -164 43q-10 -25 -10 -32v-25q2 -23 10 -37q16 -25 49 -27.5t58 1.5h141q184 0 287 -60q66 -39 90 -106q17 -48 17 -96q0 -20 -3 -39q-20 -131 -175.5 -220.5t-356.5 -89.5q-203 0 -328 88 q-106 75 -106 182q1 20 4 40zM178 -147q-1 -7 -1 -13q0 -55 80 -98q89 -47 228.5 -47t245 47t115.5 111q2 14 2 26q0 21 -6 39q-10 29 -41 45.5t-60.5 25.5t-83 13t-84 5t-88.5 1q-111 0 -142.5 -4t-68.5 -24q-82 -45 -96 -127zM395 567q-3 -17 -3 -32q0 -54 33 -97 q42 -55 115.5 -55t134 54.5t73.5 131.5q3 17 2 33q0 54 -32 95q-42 54 -116 55q-72 0 -132.5 -53.5t-74.5 -131.5z" />
<glyph unicode="h" d="M35 76q12 78 110 78h72l156 944h-74q-25 0 -40 3t-30.5 21.5t-9.5 51.5q12 78 109 77h145q59 0 75 -20q9 -12 9 -38q0 -17 -4 -40l-55 -336q123 86 260 86q233 0 233 -218q0 -39 -8 -85l-74 -446h72q27 0 43 -3.5t31 -21.5q10 -13 10 -34q0 -9 -2 -19q-12 -76 -107 -76 h-305q-25 0 -42 3t-33.5 21.5t-10.5 51.5q12 78 113 78h61l72 436q6 38 6 66q0 36 -10 57q-18 37 -88 37q-86 0 -171 -66t-106 -192l-55 -338h72q27 0 43 -3.5t31.5 -21.5t9.5 -53q-12 -76 -109 -76h-317q-16 0 -28.5 2t-29 8t-22.5 23q-4 10 -4 23q0 9 2 20z" />
<glyph unicode="i" d="M166 76q12 78 113 78h225l96 585h-209q-18 0 -30.5 2t-29 8.5t-22.5 24t-2 43.5q10 76 111 76h282q59 0 75 -21q9 -12 9 -37q0 -17 -4 -40l-106 -641h192q27 0 43.5 -3.5t31.5 -21.5q11 -13 11 -35q0 -9 -2 -18q-12 -76 -110 -76h-588q-27 0 -43 3t-33 21q-12 13 -12 34 q0 9 2 18zM610 1126q8 47 47 81t88.5 34t77.5 -34q22 -26 23 -60q0 -10 -2 -21q-10 -49 -49 -82.5t-88.5 -33.5t-76.5 33q-21 26 -22 62q0 10 2 21z" />
<glyph unicode="j" d="M43 -287q8 49 44 78t79 29q39 0 67 -29q22 -22 23 -56q0 -10 -2 -20l-2 -10q37 -6 90 -6q100 0 170 78q49 57 70 162l133 800h-244q-27 0 -43 3t-31.5 20.5t-9.5 52.5q12 78 113 78h315q59 0 75 -21q9 -12 9 -37q0 -17 -4 -40l-145 -867q-10 -57 -38 -117.5t-77 -123 t-134 -102.5t-192 -40q-37 0 -65.5 2t-73.5 11.5t-72.5 26t-45.5 49.5q-12 23 -12 52q0 13 3 27zM725 1126q8 47 47 81t88 34t78 -34q22 -26 22 -60q0 -10 -2 -21q-10 -49 -49 -82.5t-88 -33.5t-77 33q-21 26 -21 62q0 10 2 21z" />
<glyph unicode="k" d="M51 78q12 76 111 76h82l155 944h-82q-27 0 -43 3t-30.5 21.5t-7.5 53.5q12 76 108 75h131q57 0 73 -20q9 -12 9 -38q0 -17 -4 -40l-111 -666l310 252h-35q-27 0 -42.5 3t-30.5 20.5t-9 52.5q14 78 108 78h308q25 0 42 -3t32 -22q11 -13 11 -34q0 -9 -1 -19 q-12 -76 -111 -76h-63l-265 -217l222 -368h55q27 0 43 -3.5t31.5 -21.5t9.5 -53q-12 -76 -111 -76h-235q-27 0 -43.5 3t-31.5 20.5t-9 52.5q8 45 32.5 60.5t77.5 17.5l-164 270l-163 -131l-23 -139h82q27 0 43 -3.5t30.5 -21.5t8.5 -53q-12 -76 -109 -76h-307q-27 0 -43 3 t-32 22q-11 13 -11 34q0 9 2 19z" />
<glyph unicode="l" d="M125 76q12 78 113 78h241l156 944h-244q-25 0 -41 3t-31.5 20.5t-9.5 52.5q12 78 111 77h315q59 0 75 -20q9 -12 9 -38q0 -17 -4 -40l-166 -999h244q27 0 43 -3.5t31 -21.5q10 -13 10 -34q0 -9 -2 -19q-12 -76 -109 -76h-657q-25 0 -41 3t-33 21q-12 13 -12 34q0 9 2 18z " />
<glyph unicode="m" d="M12 76q8 47 37 62.5t90 15.5l97 585q-61 0 -84 16q-17 11 -17 39q0 10 2 23q10 76 111 76h63q76 0 82 -47q82 57 172 57q100 0 137 -90q96 90 211 90q66 0 104 -34.5t44 -93.5q5 -50 5 -80t-5 -74l-78 -467q61 0 84 -16q17 -11 17 -39q0 -10 -3 -23q-12 -76 -110 -76 h-150q-25 0 -40 3t-29.5 20.5t-8.5 52.5q14 74 95 78l73 448q9 52 10 84q0 38 -12 51q-10 12 -30 13q-59 0 -114.5 -69t-76.5 -185l-55 -342q59 0 81 -16q16 -11 15 -39q0 -11 -2 -23q-12 -76 -104 -76h-150q-25 0 -40 3t-30.5 20.5t-9.5 52.5q8 45 32 60.5t64 17.5l74 448 q8 54 8 87q0 19 -3 30q-7 31 -38 31q-61 0 -115.5 -68t-74.5 -186l-55 -342q59 0 80 -16q15 -11 14 -38q0 -11 -2 -24q-12 -76 -105 -76h-174q-25 0 -42 3t-33 22q-12 13 -12 34q-1 8 1 17z" />
<glyph unicode="n" d="M35 76q12 78 110 78h72l96 585h-73q-16 0 -28.5 2t-29 8.5t-22.5 22.5t-2 43q12 78 110 78h146q57 0 72.5 -17.5t11.5 -58.5q123 86 260 86q233 0 233 -218q0 -39 -8 -85l-74 -446h72q27 0 43 -3.5t31 -21.5q10 -13 10 -34q0 -9 -2 -19q-12 -76 -107 -76h-305 q-25 0 -42 3t-33.5 21.5t-10.5 51.5q12 78 113 78h61l72 436q6 38 6 66q0 36 -10 57q-18 37 -88 37q-86 0 -171 -66t-106 -192l-55 -338h72q27 0 43 -3.5t31.5 -21.5t9.5 -53q-12 -76 -109 -76h-317q-16 0 -28.5 2t-29 8t-22.5 23q-4 10 -4 23q0 9 2 20z" />
<glyph unicode="o" d="M184 446q33 195 181.5 329t322.5 134q176 0 279 -135q78 -102 77 -238q0 -43 -8 -90q-33 -193 -181 -325.5t-320 -132.5q-174 0 -279 132q-80 101 -80 237q0 43 8 89zM358 461q-6 -36 -6 -69q0 -88 44 -156q60 -94 165 -94.5t196 94t113 225.5q5 32 6 61q0 87 -47 150 q-61 84 -165 84q-102 0 -194 -85t-112 -210z" />
<glyph unicode="p" d="M-41 -367q12 78 111 78h71l172 1028h-73q-25 0 -41.5 3t-32.5 20.5t-10 52.5q12 78 112 78h146q53 0 69.5 -16.5t12.5 -53.5q119 80 254 80q166 0 263 -133q73 -100 73 -231q0 -44 -9 -93q-31 -193 -181.5 -325.5t-322.5 -132.5q-121 0 -200 82l-62 -359h72q27 0 44 -3 t32.5 -21.5t9.5 -53.5q-12 -76 -109 -75h-317q-25 0 -41 3t-33 20q-12 13 -12 35q0 8 2 17zM428 397q-4 -21 -4 -43q0 -63 32 -127q42 -86 140 -86q104 0 198.5 87t114.5 218q6 35 7 67q0 82 -42 146q-57 90 -161 91q-88 0 -167 -62.5t-93 -144.5z" />
<glyph unicode="q" d="M154 444q33 195 187.5 327t332.5 132q133 0 217 -88q12 49 31.5 68.5t70.5 19.5q39 0 56 -15q15 -14 15 -34q0 -10 -3 -47l-184 -1096h81q27 0 43.5 -3t31 -21.5t7.5 -53.5q-12 -76 -106 -75h-334q-27 0 -43 3t-31.5 21.5t-9.5 52.5q12 76 109 76h82l63 375 q-129 -98 -270 -98q-172 0 -276 133q-79 101 -78 235q0 42 8 88zM319 444q-5 -30 -5 -58q0 -88 48 -156q63 -89 170 -89t190 86t99 176l13 78q4 25 4 50q0 72 -36 135q-48 84 -147 84q-115 0 -215.5 -88.5t-120.5 -217.5z" />
<glyph unicode="r" d="M74 78q12 76 110 76h146l96 585h-145q-20 0 -32.5 2t-28 8.5t-20.5 24t-1 43.5q10 76 108 76h219q59 0 75 -21q9 -12 9 -37q0 -17 -4 -40l-6 -29q162 137 348 137q119 0 155 -44q28 -34 28 -73q0 -11 -3 -22q-8 -45 -41.5 -72.5t-74.5 -27.5t-67 24q-21 20 -20 48 q0 7 1 14q-156 -4 -260.5 -112t-126.5 -251l-39 -233h205q27 0 43 -3.5t31.5 -21.5t8.5 -53q-12 -76 -110 -76h-520q-27 0 -43.5 3t-31.5 22q-11 13 -11 34q0 9 2 19z" />
<glyph unicode="s" d="M156 86l32 193q4 25 8.5 38t14.5 29t29.5 23.5t50.5 7.5q43 0 56 -15.5t18 -54.5q27 -166 213 -166q121 0 185 35t75 90q4 33 -14.5 56.5t-61.5 39t-71.5 21.5t-76.5 14q-70 10 -113.5 19.5t-101 30t-89 46t-50.5 68.5q-12 28 -12 61q0 18 4 37q6 35 25.5 71t63.5 80 t134 71.5t213 27.5q119 0 199 -35q27 35 76 35q62 0 61 -67q0 -13 -2 -29l-23 -139q-4 -23 -8 -36t-14 -29.5t-29.5 -23.5t-50.5 -7q-51 0 -63.5 21.5t-6.5 59.5q2 43 -32.5 70t-135.5 27q-121 0 -184 -28q-71 -31 -70 -79q0 -50 95 -71l200 -37q31 -4 59.5 -11.5t80 -28 t85 -48t55.5 -76.5q15 -33 15 -72q0 -19 -4 -39q-6 -43 -30.5 -86t-71.5 -89t-135 -74.5t-205 -28.5q-150 0 -240 67q-39 -68 -94 -67q-62 0 -62 66q0 15 3 32z" />
<glyph unicode="t" d="M182 815q12 78 111 78h158l24 147q4 23 8 36.5t14.5 29.5t30 23.5t50.5 7.5q39 0 55 -15.5t15 -36t-3 -45.5l-24 -147h311q20 0 32.5 -2t28 -8t20.5 -24q3 -10 3 -22q0 -10 -2 -22q-12 -76 -109 -76h-311l-76 -460q-4 -22 -4 -41q0 -97 119 -97q29 0 59.5 8.5t64.5 39 t44 81.5q4 27 10 43.5t27.5 31.5t58.5 15q39 0 57.5 -14t17.5 -34.5t-3 -43.5q-23 -133 -132.5 -206.5t-238.5 -73.5t-203 68q-55 51 -55 145q0 31 6 67l78 471h-160q-27 0 -42 3t-31 21q-11 12 -10 34q-1 8 1 18z" />
<glyph unicode="u" d="M158 815q12 78 110 78h146q59 0 74 -21q9 -12 10 -37q0 -17 -4 -40l-91 -539q-4 -31 -4 -55.5t31 -42t96 -17.5q41 0 84 10.5t94.5 56.5t63.5 122l68 409h-74q-25 0 -41 3t-32.5 20.5t-10.5 52.5q12 78 113 78h145q59 0 75 -21q9 -12 9 -37q0 -17 -4 -40l-107 -641h74 q25 0 40 -3.5t31 -21.5q11 -13 11 -34q0 -8 -2 -17q-12 -78 -109 -78h-145q-80 0 -86 51q-106 -63 -234 -63q-133 0 -207 58q-56 44 -57 134q0 30 6 64l82 495h-73q-16 0 -28.5 2t-29 8.5t-22.5 22.5q-4 10 -4 23q0 9 2 20z" />
<glyph unicode="v" d="M180 815q14 78 111 78h233q20 0 32.5 -2t28 -8t20.5 -23.5t1 -44.5q-12 -76 -108 -76h-33l98 -577l291 577h-33q-20 0 -32.5 2t-28 8.5t-20.5 24t-1 43.5q10 76 109 76h233q20 0 32.5 -2t28 -8t20.5 -24q3 -10 3 -22q0 -10 -2 -22q-12 -76 -108 -76h-49l-336 -669 q-27 -51 -58.5 -64.5t-76.5 -13.5q-31 0 -47.5 3t-35 20.5t-24.5 54.5l-115 669h-49q-27 0 -43 3t-32 21q-11 12 -11 34q0 8 2 18z" />
<glyph unicode="w" d="M166 817q10 76 113 76h229q31 0 48 -3t30.5 -21.5t7.5 -53.5t-26.5 -52.5t-38 -20.5t-48.5 -3h-78l5 -508l120 265q37 53 105 53q55 0 71.5 -26.5t28.5 -133.5l12 -153l170 503h-77q-31 0 -48.5 3t-31 21.5t-6.5 53.5q10 76 112 76h230q29 0 46 -3t31 -22q11 -14 12 -37 q0 -7 -1 -14q-8 -49 -36 -63.5t-83 -14.5l-227 -657q-16 -49 -38 -69.5t-81 -20.5q-70 0 -90 43l-29 297l-82 -189q-41 -102 -66.5 -126.5t-91.5 -24.5q-63 0 -78 20q-14 18 -14 59v11l-10 657q-53 0 -76 15q-17 11 -16 39q0 11 2 24z" />
<glyph unicode="x" d="M63 76q12 78 113 78h72l284 305l-176 280h-71q-25 0 -42.5 3t-33.5 21.5t-10 51.5q12 78 112 78h234q25 0 42 -3t31.5 -21.5t10.5 -51.5q-12 -74 -97 -78l95 -159l143 159q-41 2 -58.5 18.5t-9.5 59.5q10 76 107 76h233q25 0 42.5 -3t32.5 -22q11 -13 11 -34q0 -9 -2 -19 q-12 -76 -110 -76h-72l-262 -280l195 -305h71q27 0 43.5 -3.5t31.5 -21.5t9 -53q-12 -76 -110 -76h-234q-27 0 -43 3t-31.5 20.5t-9.5 52.5q6 43 30.5 58.5t70.5 19.5l-115 202l-174 -202q45 -2 63 -18q14 -12 14 -40q0 -9 -1 -20q-12 -76 -109 -76h-233q-25 0 -42.5 3 t-33.5 22q-12 13 -12 34q-1 8 1 17z" />
<glyph unicode="y" d="M39 -274q6 45 39 73.5t80 28.5q45 0 68 -29q19 -23 19 -55q0 -9 -1 -18q-4 -18 -19 -33l-12 -12q31 0 78 34.5t86 89.5q14 20 38 67l45 92l25 52l-166 723h-51q-27 0 -43 3t-31.5 20.5t-9.5 52.5q14 78 111 78h233q20 0 32.5 -2t28 -8t20.5 -23.5t1 -44.5 q-12 -76 -108 -76h-27l115 -534l264 534h-33q-20 0 -32.5 2t-28 8.5t-20.5 24t-1 43.5q10 76 109 76h233q20 0 32.5 -2t28 -8t20.5 -24q3 -10 3 -22q0 -10 -2 -22q-12 -76 -108 -76h-49l-455 -899q-16 -29 -35.5 -59.5t-70 -93t-118 -102.5t-139.5 -40q-78 0 -119 55 q-32 42 -33 94q0 16 3 32z" />
<glyph unicode="z" d="M78 37q-2 9 -2 21t2 26q4 31 13 44t50 48l688 563h-442l-6 -37q-6 -33 -11 -49t-28 -32.5t-63 -16.5q-39 0 -55.5 15.5t-15.5 37t3 45.5l16 93q8 57 32 77.5t83 20.5h680q23 0 35 -2t27.5 -9.5t19.5 -25.5q2 -9 2 -21t-2 -26q-4 -31 -14.5 -45t-51.5 -47l-684 -563h480 l8 59q4 25 8 38t14 29.5t29.5 23.5t50.5 7q39 0 56.5 -15t15.5 -36.5t-4 -46.5l-19 -115q-14 -84 -73 -98h-758q-23 0 -36 2t-28.5 9.5t-19.5 25.5z" />
<glyph unicode="{" d="M215 627q6 39 33.5 57t48.5 18q135 0 217 31q45 20 58.5 42t21.5 77l61 350q23 119 158 167t285 48q29 0 46 -3t32.5 -21.5t9.5 -53.5q-6 -39 -34 -57t-48 -18q-39 -2 -98.5 2t-118 -17.5t-68.5 -68.5l-65 -389q-16 -94 -129 -166q90 -63 69 -193l-53 -319 q-8 -23 -3 -44.5t21.5 -39t71.5 -28.5t146 -13q84 0 71 -76q-12 -78 -114 -78q-182 0 -287 62q-104 68 -74 221l55 332q10 90 -241 100q-84 0 -72 78z" />
<glyph unicode="|" d="M440 -55l228 1362q25 111 104 110q92 0 68 -110l-228 -1362q-16 -111 -104 -111q-84 0 -68 111z" />
<glyph unicode="}" d="M96 -88q6 39 34 57.5t48 18.5q96 2 157.5 11t88.5 29.5t34 35t13 42.5l59 355q0 10 8.5 31.5t39 62.5t79.5 72q-90 66 -67 190l53 320q8 23 3 45t-22.5 39.5t-72.5 29t-148 13.5q-82 0 -69 75q12 78 112 78q186 0 289 -61q104 -66 78 -219l-55 -332q-12 -90 237 -103 q84 0 72 -77q-6 -39 -33.5 -57.5t-48.5 -18.5q-133 0 -215 -31q-45 -20 -58.5 -41.5t-21.5 -77.5l-61 -350q-16 -94 -156.5 -154.5t-290.5 -60.5q-29 0 -45 3t-31.5 21.5t-9.5 53.5z" />
<glyph unicode="~" d="M268 569q8 45 125 123q100 70 176 70q68 0 133 -72q39 -39 46 -39q37 0 143 84q35 27 61 27q31 0 50.5 -25.5t15.5 -54.5q-10 -45 -125 -123q-106 -70 -176 -70t-133 74q-33 37 -45 37q-41 0 -144 -84q-35 -27 -61 -27q-31 0 -50.5 25.5t-15.5 54.5z" />
<glyph unicode="&#xa0;" />
<glyph unicode="&#xa1;" d="M365 -336l129 666q16 72 36.5 91t79.5 19q23 0 39.5 -2t33.5 -17t13 -44l-98 -713q-10 -55 -42 -87t-55.5 -37t-42 -5t-39 5t-42.5 37t-12 87zM535 692q10 49 49 83t88 34t76.5 -34t19.5 -83t-47 -81.5t-88 -32.5t-77.5 32.5t-20.5 81.5z" />
<glyph unicode="&#xa2;" d="M217 446q27 145 141.5 281.5t305.5 171.5l14 100q6 33 33.5 55.5t60.5 22.5q31 0 50.5 -22.5t13.5 -55.5l-15 -90q47 -2 86 -8t80 -22.5t61.5 -50t12.5 -80.5q-8 -49 -44 -78t-81 -29q-98 0 -84 113q0 2 -55 2l-103 -609q94 18 142 105q29 53 90 53q14 0 29.5 -2 t33 -20.5t10.5 -49.5q-10 -53 -95 -137t-236 -104l-17 -101q-4 -31 -31.5 -54t-58.5 -23q-33 0 -52.5 23.5t-14.5 53.5l18 105q-156 31 -240 157.5t-55 292.5zM383 446q-16 -98 27 -177t127 -109l96 581q-80 -25 -137.5 -84t-81 -110.5t-31.5 -100.5z" />
<glyph unicode="&#xa3;" d="M63 180q14 90 103.5 146.5t198.5 56.5q35 0 71 -10q-8 51 -47 168h-119q-35 0 -56 24.5t-15 61.5q6 35 35.5 60.5t64.5 25.5h41q-16 86 -6 164q27 156 155.5 265t284.5 109q152 0 246 -97t72 -239q-8 -41 -44 -71.5t-79 -30.5q-41 0 -66.5 30.5t-17.5 71.5q6 35 30 64 q-14 47 -61 73.5t-109 26.5q-84 0 -154.5 -59t-84.5 -143q-10 -78 6 -164h311q35 0 56.5 -25.5t15.5 -60.5q-6 -37 -36 -61.5t-64 -24.5h-230q59 -180 47 -285q57 -53 104.5 -79.5t108.5 -26.5q70 0 97 153q6 35 35.5 60.5t64.5 25.5q37 0 57.5 -25.5t14.5 -60.5 q-23 -131 -106 -228.5t-191 -97.5q-43 0 -91.5 21.5t-78 43t-78.5 62.5q-53 -57 -137 -92t-174 -35q-86 0 -137.5 59.5t-37.5 143.5zM229 180q-2 -12 7.5 -21t23.5 -9q111 0 154 45q-39 16 -84 16q-97 0 -101 -31z" />
<glyph unicode="&#xa4;" d="M262 301q-49 51 37 137l45 37q-27 66 -14 152q14 80 63 151l-33 39q-59 82 9 137q59 53 135 -14l31 -39q78 39 161 39q76 0 144 -39l41 37l20 14.5t27.5 15.5t31 10t32 -3t30.5 -23q47 -51 -39 -137l-41 -35q27 -76 12.5 -153.5t-63.5 -153.5l33 -37q53 -84 -11 -137 q-61 -57 -133 14l-30 39q-82 -39 -158 -39q-82 0 -148 39l-43 -37q-8 -6 -20 -14t-27.5 -15t-31 -10.5t-32 3t-28.5 22.5zM502 626.5q-10 -59.5 24.5 -100.5t94.5 -41q57 0 104 41t57.5 100.5t-23.5 100.5t-91 41q-59 0 -107.5 -41t-58.5 -100.5z" />
<glyph unicode="&#xa5;" d="M215 471q6 37 36 61.5t64 24.5h203l-45 139h-133q-35 0 -56.5 24.5t-15.5 61.5q6 35 36 60.5t65 25.5h51l-74 230h-33q-27 0 -43 3t-30.5 21.5t-8.5 53.5q12 76 109 75h209q25 0 41 -3t31.5 -20.5t9.5 -51.5q-6 -45 -31 -60.5t-65 -17.5l71 -230h160l137 230 q-37 2 -55.5 18.5t-11.5 59.5q12 76 106 75h209q27 0 43 -3t31.5 -21.5t9.5 -52.5q-12 -76 -111 -76h-32l-148 -230h53q35 0 56.5 -25.5t15.5 -60.5q-6 -37 -35.5 -61.5t-64.5 -24.5h-135l-93 -139h203q35 0 56.5 -24.5t15.5 -61.5q-4 -35 -35 -60.5t-66 -25.5h-229 l-37 -231h33q29 0 44 -3.5t29.5 -21.5t8.5 -53q-12 -76 -109 -76h-235q-29 0 -45.5 3t-30.5 21.5t-8 53.5q12 76 110 76h33l37 231h-229q-35 0 -55.5 25.5t-16.5 60.5zM635 696l12 -51l31 51h-43z" />
<glyph unicode="&#xa6;" d="M440 -55l82 479q4 33 34 55.5t64.5 22.5t56 -22.5t17.5 -55.5l-82 -479q-16 -111 -104 -111q-84 0 -68 111zM588 827l80 480q25 111 104 110q92 0 68 -110l-80 -480q-4 -33 -34 -55t-64.5 -22t-56 22t-17.5 55z" />
<glyph unicode="&#xa7;" d="M131 10q8 43 43 74t78 31t69.5 -31t18.5 -74q-8 -33 -23 -51q37 -37 209 -37q98 0 173 33t87 102q6 35 -23.5 65t-56 42l-83.5 37l-189 75q-123 47 -191.5 139.5t-49.5 211.5q18 115 122 196q-39 66 -24 144q23 137 159 222t302 85t276.5 -67.5t89.5 -192.5 q-8 -43 -44 -74t-79 -31t-68.5 31t-17.5 74q4 29 23 51q-37 37 -209 37q-100 0 -174 -33t-86 -102q-6 -35 23.5 -65t55 -42t83.5 -37l190 -75q121 -47 190.5 -139.5t49.5 -211.5q-18 -119 -123 -198q39 -63 26 -142q-25 -137 -159.5 -222t-300.5 -85q-168 0 -279 67.5 t-88 192.5zM365 627q-20 -117 155 -191l189 -76q76 -31 114 -57q49 33 60 94q20 119 -154 191l-190 76q-70 29 -113 57q-51 -35 -61 -94z" />
<glyph unicode="&#xa8;" d="M450.5 1126q8.5 45 43 75t79.5 30t72 -30t18.5 -75t-44 -75.5t-80.5 -30.5t-71 30.5t-17.5 75.5zM788.5 1126q8.5 45 43 75t79.5 30t72 -30t18.5 -75t-44 -75.5t-81 -30.5t-71 30.5t-17 75.5z" />
<glyph unicode="&#xa9;" d="M88 541q37 223 222.5 380.5t408.5 157.5t354 -157.5t94 -381t-221 -382t-407.5 -158.5t-355.5 158t-95 383zM174 540.5q-31 -188.5 80 -321.5t299 -133q186 0 342 133t186.5 321.5t-80 321.5t-296.5 133q-188 0 -344 -133t-187 -321.5zM376.5 540.5q22.5 137.5 112 229.5 t191.5 92q63 0 113 -39q6 6 10 15q29 25 43 24q47 0 37 -55l-23 -135q-4 -18 -8 -27.5t-17.5 -18t-35.5 -8.5q-18 0 -27.5 8.5t-9.5 13.5v22q-2 53 -27.5 81.5t-64.5 28.5q-63 0 -122 -66.5t-75 -164.5q-16 -100 19.5 -167t99.5 -67q37 0 76 24.5t53 80.5q10 41 51 41 q51 0 43 -47q-10 -72 -81.5 -129.5t-160.5 -57.5q-102 0 -160.5 92t-36 229.5z" />
<glyph unicode="&#xaa;" d="M330 821q16 100 141 159.5t315 63.5q4 57 -33.5 84t-109.5 27h-49l-14 2q-8 -45 -36 -63.5t-55 -18.5q-33 0 -52 21.5t-13 58.5q18 119 238 119q147 0 207.5 -70.5t45.5 -161.5l-49 -292q31 -6 70 -7q18 0 29.5 -2t23.5 -16t8 -39q-6 -37 -29.5 -48t-66.5 -11 q-115 0 -149 41q-92 -49 -209 -50q-111 0 -169 60.5t-44 142.5zM344 530q4 25 29.5 42.5t58.5 17.5h408q33 0 52 -17.5t15 -42.5q-4 -23 -28.5 -40t-57.5 -17h-407q-33 0 -53.5 17t-16.5 40zM459 821q-6 -37 25.5 -60.5t86.5 -23.5q70 0 129 25q41 20 50 67l16 103 q-291 -13 -307 -111z" />
<glyph unicode="&#xab;" d="M193 627q6 37 45 71l491 373q33 20 49 21q25 0 39 -21.5t6 -58.5q-6 -41 -45 -72l-413 -313l309 -314q29 -33 22 -71q-8 -37 -29.5 -58.5t-43.5 -21.5q-18 0 -41 22l-373 375q-22 27 -16 68zM524 627q6 37 45 71l492 373q33 20 49 21q25 0 39 -21.5t6 -58.5 q-6 -41 -45 -72l-414 -313l310 -314q29 -33 22 -71q-8 -37 -29.5 -58.5t-44.5 -21.5q-18 0 -41 22l-372 375q-23 27 -17 68z" />
<glyph unicode="&#xac;" d="M203 778q6 35 35.5 60.5t64.5 25.5h754q35 0 56.5 -25.5t14.5 -60.5l-49 -303q-6 -35 -35.5 -60.5t-64.5 -25.5t-56.5 25.5t-15.5 60.5l35 217h-668q-35 0 -55 25.5t-16 60.5z" />
<glyph unicode="&#xad;" d="M213 627q14 86 125 86h635q25 0 43 -3t38.5 -23.5t14.5 -59.5q-14 -86 -125 -86h-635q-25 0 -43 3t-38.5 23.5t-14.5 59.5z" />
<glyph unicode="&#xae;" d="M88 541q37 223 222.5 380.5t408.5 157.5t354 -157.5t94 -381t-221 -382t-407.5 -158.5t-355.5 158t-95 383zM174 540.5q-31 -188.5 80 -321.5t299 -133q186 0 342 133t186.5 321.5t-80 321.5t-296.5 133q-188 0 -344 -133t-187 -321.5zM350 279q6 45 58 45h10l76 444h-11 q-14 0 -23 2t-16.5 12.5t-5.5 28.5q6 45 60 45h172q90 0 137 -53t35 -125q-14 -84 -94 -135q20 -31 26 -51q6 -25 -6 -99q-12 -82 -2 -82l4 4q6 33 19.5 49.5t21.5 18.5t20 2q45 0 39 -45q-8 -41 -38.5 -78t-79.5 -37q-59 0 -80 49q-12 37 2 132q10 57 -4 71q-23 25 -64 25 h-63l-31 -178h10q16 0 25.5 -2.5t16.5 -12.5t5 -30q-8 -43 -61 -43h-115q-51 0 -43 43zM557 588h55q55 0 92 27.5t41 62.5q6 35 -20.5 62.5t-81.5 27.5h-55z" />
<glyph unicode="&#xaf;" d="M334 1126q12 78 108 78h594q29 0 45.5 -3t30.5 -21.5t8 -55.5q-14 -78 -110 -77h-592q-29 0 -45.5 3t-30.5 21t-8 55z" />
<glyph unicode="&#xb0;" d="M561 1114q8 55 62.5 107.5t124.5 52.5q74 0 108.5 -48t24.5 -112q-10 -61 -61.5 -110.5t-125.5 -49.5q-70 0 -106.5 51.5t-26.5 108.5zM647 1114q-4 -27 12.5 -50.5t49 -23.5t57.5 22.5t29 51.5t-12.5 51.5t-49.5 22.5t-57.5 -23.5t-28.5 -50.5z" />
<glyph unicode="&#xb1;" d="M88 86q14 86 125 86h266l35 207h-266q-25 0 -43.5 3t-39 23.5t-13.5 59.5q14 86 124 86h267l45 270q16 109 104 109q84 0 68 -109l-45 -270h266q25 0 43 -3t38.5 -23.5t14.5 -59.5q-14 -86 -125 -86h-266l-35 -207h267q25 0 43 -3t38.5 -23.5t14.5 -59.5 q-14 -86 -125 -86h-705q-25 0 -43 3t-38.5 23.5t-14.5 59.5z" />
<glyph unicode="&#xb2;" d="M424 668q4 18 27 39l254 186q121 88 135 170q8 57 -28 88t-95 31q-74 0 -107 -58q8 -14 4 -37q-12 -59 -69 -59q-20 0 -38 14.5t-11 49.5q10 72 79.5 127t161.5 55q100 0 159.5 -58.5t45.5 -152.5q-18 -109 -151 -211l-187 -137h178q4 25 16.5 35t43.5 10q51 0 39 -55 l-4 -27q-4 -33 -17.5 -45t-46.5 -12h-340q-14 0 -24.5 2t-18.5 13.5t-6 31.5z" />
<glyph unicode="&#xb3;" d="M434 772q4 31 24.5 47.5t45.5 16.5q27 0 40 -17.5t9 -42.5q-2 -20 -10 -33q27 -41 114 -41q57 0 99.5 33t48.5 76t-23.5 76t-91.5 33h-45q-16 0 -26.5 2t-18.5 13t-4 32q4 27 22.5 36t73.5 13q53 4 88 26q43 33 49 74q4 29 -22.5 47.5t-69.5 18.5q-59 0 -92 -21v-22 q-4 -27 -25.5 -44.5t-44 -17.5t-40 16.5t-11.5 47.5q10 59 70.5 96t157.5 37q92 0 140 -46t36 -110q-14 -86 -94 -145q92 -59 73 -162q-12 -80 -88 -140.5t-176 -60.5q-102 0 -161.5 46t-47.5 116z" />
<glyph unicode="&#xb4;" d="M489 1069q8 49 72 74l285 119l47 12q37 0 57.5 -24.5t14.5 -61.5q-8 -55 -80 -84l-285 -119q-25 -10 -45 -10q-29 0 -45 20.5t-19.5 40t-1.5 33.5z" />
<glyph unicode="&#xb5;" d="M-47 -408q12 78 110 78h72l178 1069h-73q-16 0 -28.5 2t-29 8.5t-22.5 22.5t-2 43q12 78 110 78h146q59 0 74.5 -20.5t5.5 -77.5l-91 -539q-4 -31 -4 -55.5t31 -42t96 -17.5q41 0 84 10.5t94.5 56.5t63.5 122l68 409h-74q-25 0 -41 3t-32.5 20.5t-10.5 52.5q12 78 113 78 h145q59 0 74.5 -20.5t5.5 -77.5l-107 -641h74q25 0 40 -3.5t30.5 -21.5t9.5 -51q-12 -78 -109 -78h-145q-80 0 -86 51q-106 -63 -234 -63q-66 0 -129 12l-55 -330h72q27 0 44 -3t32.5 -21.5t9.5 -53.5q-12 -76 -109 -75h-317q-25 0 -41 3t-32.5 20t-10.5 52z" />
<glyph unicode="&#xb6;" d="M252 940q33 197 185.5 337t336.5 140h418q31 0 50.5 -10t12.5 -45q-8 -57 -81 -57h-70l-268 -1610q-14 -82 -65.5 -82t-37.5 82l268 1610h-88l-268 -1610q-14 -82 -63.5 -82t-34.5 82l129 766q-88 6 -169 37.5t-146.5 88t-96 148.5t-12.5 205z" />
<glyph unicode="&#xb7;" d="M502 627q10 55 56 97t108 42q55 0 91 -40t25 -101q-10 -55 -56 -97.5t-108 -42.5q-55 0 -90.5 40.5t-25.5 101.5z" />
<glyph unicode="&#xb8;" d="M266 -338q8 49 42 63.5t108 14.5q258 0 268 65q4 25 -24.5 43.5t-84.5 20.5q-51 2 -61 27.5t-2 70.5l10 56q6 31 12.5 48t29 33.5t61.5 16.5q53 0 65 -25.5t0 -85.5q94 -23 134 -81t28 -124q-10 -61 -50 -104t-89 -65.5t-125 -35t-128 -14.5t-128 -2t-66 78z" />
<glyph unicode="&#xb9;" d="M469 666q8 49 66 49h75l64 372q-51 -29 -94 -28q-51 0 -43 47q6 45 61 45q51 6 96 70q35 53 64 53q45 0 35 -57l-84 -502h75q16 0 26.5 -2t19 -13.5t4.5 -33.5q-6 -45 -64 -45h-250q-14 0 -24.5 2t-19.5 12.5t-7 30.5z" />
<glyph unicode="&#xba;" d="M385 530.5q4 22.5 30.5 41t57.5 18.5h326q33 0 52 -18.5t15 -41t-28.5 -40t-57.5 -17.5h-325q-33 0 -53.5 17.5t-16.5 40zM393.5 944q22.5 137 128 233.5t230.5 96.5q123 0 195.5 -96.5t49.5 -233.5q-23 -135 -129 -230.5t-227 -95.5q-123 0 -196.5 94.5t-51 231.5z M522 954q-14 -90 27 -153.5t112.5 -63.5t134 63.5t76.5 153.5q14 86 -28.5 143.5t-112.5 57.5q-72 0 -133.5 -57.5t-75.5 -143.5z" />
<glyph unicode="&#xbb;" d="M127 242q6 43 47 71l412 314l-307 313q-31 31 -25 72q8 37 29.5 58.5t44.5 21.5q18 0 41 -21l368 -373q27 -31 21 -71.5t-37 -67.5l-500 -375q-31 -23 -49 -22q-25 0 -39 21.5t-6 58.5zM459 242q6 43 47 71l412 314l-308 313q-31 31 -24 72q8 37 29.5 58.5t43.5 21.5 q18 0 41 -21l369 -373q27 -31 20.5 -71.5t-36.5 -67.5l-500 -375q-31 -23 -49 -22q-25 0 -39 21.5t-6 58.5z" />
<glyph unicode="&#xbc;" d="M158 666q8 49 65 49h76l63 372q-51 -29 -94 -28q-51 0 -43 47q6 45 62 45q51 6 96 70q35 53 63 53q45 0 35 -57l-84 -502h76q16 0 26.5 -2t18.5 -13.5t4 -33.5q-6 -45 -63 -45h-250q-14 0 -24.5 2t-19.5 12.5t-7 30.5zM176 33q4 29 35 65l819 1139q31 45 80 45 q37 0 29 -59q-10 -39 -35 -70l-819 -1139q-31 -45 -84 -45q-14 0 -21.5 20.5t-3.5 43.5zM571 225q6 29 23 43l285 357q25 31 59 30h29q35 0 43 -11t4 -48l-58 -334h64q14 0 24.5 -2t18.5 -13t6 -32q-8 -45 -63 -45h-64l-12 -76h47q14 0 24.5 -2t18.5 -13t4 -34 q-8 -45 -63 -45h-181q-14 0 -23 2t-18.5 12.5t-5.5 30.5q8 49 64 49h45l12 76h-236q-33 0 -42 10t-5 45zM692 262h176l47 279z" />
<glyph unicode="&#xbd;" d="M150 33q4 29 34 65l820 1139q31 45 79 45q37 0 29 -59q-10 -39 -35 -70l-819 -1139q-31 -45 -84 -45q-14 0 -21 20.5t-3 43.5zM158 666q8 49 65 49h76l63 372q-51 -29 -94 -28q-51 0 -43 47q6 45 62 45q51 6 96 70q35 53 63 53q45 0 35 -57l-84 -502h76q16 0 26.5 -2 t18.5 -13.5t4 -33.5q-6 -45 -63 -45h-250q-14 0 -24.5 2t-19.5 12.5t-7 30.5zM590 47.5q4 20.5 28 38.5l250 186q125 92 138 170q10 57 -27 88t-96 31q-72 0 -107 -59q8 -14 4 -35q-4 -27 -25.5 -43t-43.5 -16q-61 0 -52 63q12 72 82 127t162 55q100 0 159.5 -58t43.5 -153 q-18 -111 -148 -211l-186 -137h178q6 45 56 45q51 0 41 -55l-5 -27q-6 -33 -18 -45t-47 -12h-338q-16 0 -25.5 2t-18.5 13.5t-5 32z" />
<glyph unicode="&#xbe;" d="M164 772q4 31 25.5 47.5t46 16.5t39 -17.5t10.5 -42.5q-2 -10 -13 -31q25 -43 115 -43q59 0 101 33t48.5 76t-23.5 76t-91 33h-45q-16 0 -26.5 2t-18.5 13t-4 32q4 29 21.5 38t74.5 11q53 4 86 26q43 29 49 74q4 29 -22.5 47.5t-69.5 18.5q-61 0 -92 -21v-22 q-4 -27 -25.5 -44.5t-44 -17.5t-39 16.5t-10.5 47.5q10 59 70.5 96t156.5 37q90 0 138.5 -46t37.5 -110q-14 -86 -94 -145q90 -59 72 -162q-12 -80 -87 -140.5t-177 -60.5q-100 0 -160.5 46t-48.5 116zM199 33q4 29 34 65l820 1139q31 45 80 45q37 0 28 -59q-10 -39 -35 -70 l-819 -1139q-31 -45 -84 -45q-14 0 -21 20.5t-3 43.5zM571 225q6 29 23 43l285 357q25 31 59 30h29q35 0 43 -11t4 -48l-58 -334h64q14 0 24.5 -2t18.5 -13t6 -32q-8 -45 -63 -45h-64l-12 -76h47q14 0 24.5 -2t18.5 -13t4 -34q-8 -45 -63 -45h-181q-14 0 -23 2t-18.5 12.5 t-5.5 30.5q8 49 64 49h45l12 76h-236q-33 0 -42 10t-5 45zM692 262h176l47 279z" />
<glyph unicode="&#xbf;" d="M85 -238.5q5 29.5 3 45.5q20 127 184 224q166 111 191 278l6 35q10 61 31.5 78.5t79.5 17.5q68 0 80 -25.5t-5 -92.5q-6 -45 -17 -81t-43 -97.5t-99.5 -127t-167.5 -125.5q-61 -39 -70 -84q-6 -37 16.5 -61.5t65.5 -33.5t67.5 -11t51.5 -2q176 0 256 53q-10 23 -6 55 q8 47 46 77t76 30q41 0 69 -28.5t20 -80.5q-12 -72 -62.5 -125t-107 -77.5t-132 -39t-112.5 -16.5t-74 -2q-104 0 -179 22.5t-105.5 55.5t-49 71t-13.5 67.5zM504 692q10 49 49 83t88 34t76.5 -34t19.5 -83t-47 -81.5t-88 -32.5t-77.5 32.5t-20.5 81.5z" />
<glyph unicode="&#xc0;" d="M63 76q8 49 56 71q18 6 82 7l411 1034q25 59 51.5 73.5t86 14.5t82 -15.5t26.5 -74.5l68 -1032q61 0 78 -9q41 -18 30 -69q-12 -76 -114 -76h-203q-31 0 -47.5 3t-31.5 20.5t-9 52.5q8 47 34.5 61.5t88.5 16.5l-11 176h-299l-67 -176q59 -2 80.5 -16.5t13.5 -61.5 q-6 -35 -26.5 -52.5t-38 -20.5t-48.5 -3h-202q-27 0 -45.5 3t-35 21.5t-10.5 51.5zM504 483h225l-22 533zM573 1591q6 37 35 61.5t66 24.5l43 -12l246 -119q29 -12 40 -27.5t7 -45.5q-6 -27 -32 -61t-67 -34q-20 0 -41 11l-243 118q-62 31 -54 84z" />
<glyph unicode="&#xc1;" d="M63 76q8 49 56 71q18 6 82 7l411 1034q25 59 51.5 73.5t86 14.5t82 -15.5t26.5 -74.5l68 -1032q61 0 78 -9q41 -18 30 -69q-12 -76 -114 -76h-203q-31 0 -47.5 3t-31.5 20.5t-9 52.5q8 47 34.5 61.5t88.5 16.5l-11 176h-299l-67 -176q59 -2 80.5 -16.5t13.5 -61.5 q-6 -35 -26.5 -52.5t-38 -20.5t-48.5 -3h-202q-27 0 -45.5 3t-35 21.5t-10.5 51.5zM504 483h225l-22 533zM557 1473q6 49 72 73l282 119l47 12q37 0 57.5 -24.5t14.5 -61.5q-8 -53 -78 -84l-284 -118q-27 -10 -45 -11q-41 0 -56.5 35t-9.5 60z" />
<glyph unicode="&#xc2;" d="M63 76q8 49 56 71q18 6 82 7l411 1034q25 59 51.5 73.5t86 14.5t82 -15.5t26.5 -74.5l68 -1032q61 0 78 -9q41 -18 30 -69q-12 -76 -114 -76h-203q-31 0 -47.5 3t-31.5 20.5t-9 52.5q8 47 34.5 61.5t88.5 16.5l-11 176h-299l-67 -176q59 -2 80.5 -16.5t13.5 -61.5 q-6 -35 -26.5 -52.5t-38 -20.5t-48.5 -3h-202q-27 0 -45.5 3t-35 21.5t-10.5 51.5zM469 1438q6 47 129 88l170 57q35 12 66 0l149 -57q53 -23 78.5 -41.5t21.5 -46.5q-14 -80 -88 -80q-16 0 -94 24l-127 41l-143 -41q-86 -25 -103 -24q-39 0 -52 23.5t-7 56.5zM504 483h225 l-22 533z" />
<glyph unicode="&#xc3;" d="M63 76q8 49 56 71q18 6 82 7l411 1034q25 59 51.5 73.5t86 14.5t82 -15.5t26.5 -74.5l68 -1032q61 0 78 -9q41 -18 30 -69q-12 -76 -114 -76h-203q-31 0 -47.5 3t-31.5 20.5t-9 52.5q8 47 34.5 61.5t88.5 16.5l-11 176h-299l-67 -176q59 -2 80.5 -16.5t13.5 -61.5 q-6 -35 -26.5 -52.5t-38 -20.5t-48.5 -3h-202q-27 0 -45.5 3t-35 21.5t-10.5 51.5zM414 1438q6 47 125 123q100 70 176 69q68 0 133 -71q35 -39 45 -39q35 0 141 84q33 27 63.5 26.5t49 -25t14.5 -55.5q-8 -47 -125 -123q-106 -70 -175.5 -69.5t-133.5 74.5q-33 37 -45 36 q-39 0 -141 -84q-39 -27 -64 -26q-31 0 -49 24.5t-14 55.5zM504 483h225l-22 533z" />
<glyph unicode="&#xc4;" d="M63 76q8 49 56 71q18 6 82 7l411 1034q25 59 51.5 73.5t86 14.5t82 -15.5t26.5 -74.5l68 -1032q61 0 78 -9q41 -18 30 -69q-12 -76 -114 -76h-203q-31 0 -47.5 3t-31.5 20.5t-9 52.5q8 47 34.5 61.5t88.5 16.5l-11 176h-299l-67 -176q59 -2 80.5 -16.5t13.5 -61.5 q-6 -35 -26.5 -52.5t-38 -20.5t-48.5 -3h-202q-27 0 -45.5 3t-35 21.5t-10.5 51.5zM475 1464q8 45 44 75t81 30t70.5 -30t17.5 -75t-44 -75.5t-81 -30.5t-70.5 30.5t-17.5 75.5zM504 483h225l-22 533zM874.5 1464q8.5 45 44 75t80.5 30t71 -30t17.5 -75t-44 -75.5 t-80.5 -30.5t-71 30.5t-17.5 75.5z" />
<glyph unicode="&#xc5;" d="M63 76q8 49 56 71q18 6 82 7l411 1034q25 59 51.5 73.5t86 14.5t82 -15.5t26.5 -74.5l68 -1032q61 0 78 -9q41 -18 30 -69q-12 -76 -114 -76h-203q-31 0 -47.5 3t-31.5 20.5t-9 52.5q8 47 34.5 61.5t88.5 16.5l-11 176h-299l-67 -176q59 -2 80.5 -16.5t13.5 -61.5 q-6 -35 -26.5 -52.5t-38 -20.5t-48.5 -3h-202q-27 0 -45.5 3t-35 21.5t-10.5 51.5zM504 483h225l-22 533zM596 1415q10 53 67.5 94t133 41t121 -41t34.5 -94q-10 -55 -67.5 -97t-133 -42t-120.5 42t-35 97zM711 1413q-2 -18 15 -29.5t42 -11.5t46.5 11.5t23.5 30t-15.5 29.5 t-42.5 11q-63 0 -69 -41z" />
<glyph unicode="&#xc6;" d="M55 76q8 47 36 62.5t77 15.5l348 944q-74 4 -61 78q12 76 106 75h561q59 0 74.5 -20.5t5.5 -77.5l-24 -145q-16 -98 -88 -98.5t-56 98.5l15 90h-199l-62 -373h216q27 0 43 -3t30.5 -21.5t7.5 -53.5q-12 -76 -106 -76h-215l-70 -417h215l19 120q16 98 87.5 98.5 t55.5 -98.5l-29 -176q-10 -59 -32.5 -78.5t-79.5 -19.5h-387q-27 0 -44.5 3t-32.5 21.5t-9 53.5q14 72 94 76l35 211h-193l-78 -211q41 -2 61.5 -17.5t12.5 -60.5q-12 -76 -108 -76h-142q-27 0 -43 3t-31.5 20.5t-9.5 52.5zM446 518h162l97 580h-46z" />
<glyph unicode="&#xc7;" d="M182 627q45 274 224.5 460.5t381.5 186.5q137 0 240 -88q25 43 27 45q39 43 78 43q76 0 59 -98l-47 -277q-4 -25 -8 -38t-14.5 -29.5t-30 -23.5t-50.5 -7q-33 0 -50 12t-19 25.5t-2 40.5q0 113 -57.5 177t-145.5 64q-131 0 -256 -142t-160 -351q-35 -211 42 -353.5 t212 -142.5q80 0 165 53.5t114 175.5q18 72 96 72q20 0 34.5 -2t30 -21.5t9.5 -56.5q-18 -111 -106.5 -207t-213.5 -139q84 -27 118 -82t24 -119q-10 -61 -50.5 -104t-89.5 -65.5t-124.5 -35t-129 -14.5t-129.5 -2q-31 0 -51 19.5t-14 58.5q8 49 42 63.5t109 14.5 q256 0 267 65q4 25 -24 43.5t-83 20.5q-51 2 -61.5 27.5t-1.5 70.5l2 13q-190 16 -295 198.5t-62 448.5z" />
<glyph unicode="&#xc8;" d="M61 76q12 78 113 78h43l156 944h-43q-27 0 -43.5 3t-31.5 21.5t-9 53.5q12 76 110 75h746q57 0 72.5 -20.5t5.5 -77.5l-25 -145q-6 -33 -11 -48.5t-27.5 -33t-63.5 -17.5q-39 0 -56.5 15.5t-15.5 37t4 46.5l14 90h-456l-62 -373h230q14 68 32.5 90.5t71.5 22.5 q39 0 56.5 -15.5t15.5 -36t-4 -45.5l-31 -186q-6 -31 -11 -48.5t-27.5 -33.5t-61.5 -16q-53 0 -65.5 25.5t-0.5 88.5h-229l-70 -417h502l18 120q4 25 8.5 38.5t14.5 29.5t29.5 23.5t50.5 7.5q39 0 56 -15.5t15 -37t-4 -46.5l-28 -176q-10 -59 -33 -78.5t-80 -19.5h-789 q-27 0 -43 3t-32.5 20.5t-10.5 52.5zM573 1591q6 37 35 61.5t66 24.5l43 -12l246 -119q29 -12 40 -27.5t7 -45.5q-6 -27 -32 -61t-67 -34q-20 0 -41 11l-243 118q-62 31 -54 84z" />
<glyph unicode="&#xc9;" d="M61 76q12 78 113 78h43l156 944h-43q-27 0 -43.5 3t-31.5 21.5t-9 53.5q12 76 110 75h746q57 0 72.5 -20.5t5.5 -77.5l-25 -145q-6 -33 -11 -48.5t-27.5 -33t-63.5 -17.5q-39 0 -56.5 15.5t-15.5 37t4 46.5l14 90h-456l-62 -373h230q14 68 32.5 90.5t71.5 22.5 q39 0 56.5 -15.5t15.5 -36t-4 -45.5l-31 -186q-6 -31 -11 -48.5t-27.5 -33.5t-61.5 -16q-53 0 -65.5 25.5t-0.5 88.5h-229l-70 -417h502l18 120q4 25 8.5 38.5t14.5 29.5t29.5 23.5t50.5 7.5q39 0 56 -15.5t15 -37t-4 -46.5l-28 -176q-10 -59 -33 -78.5t-80 -19.5h-789 q-27 0 -43 3t-32.5 20.5t-10.5 52.5zM557 1473q6 49 72 73l282 119l47 12q37 0 57.5 -24.5t14.5 -61.5q-8 -53 -78 -84l-284 -118q-27 -10 -45 -11q-41 0 -56.5 35t-9.5 60z" />
<glyph unicode="&#xca;" d="M61 76q12 78 113 78h43l156 944h-43q-27 0 -43.5 3t-31.5 21.5t-9 53.5q12 76 110 75h746q57 0 72.5 -20.5t5.5 -77.5l-25 -145q-6 -33 -11 -48.5t-27.5 -33t-63.5 -17.5q-39 0 -56.5 15.5t-15.5 37t4 46.5l14 90h-456l-62 -373h230q14 68 32.5 90.5t71.5 22.5 q39 0 56.5 -15.5t15.5 -36t-4 -45.5l-31 -186q-6 -31 -11 -48.5t-27.5 -33.5t-61.5 -16q-53 0 -65.5 25.5t-0.5 88.5h-229l-70 -417h502l18 120q4 25 8.5 38.5t14.5 29.5t29.5 23.5t50.5 7.5q39 0 56 -15.5t15 -37t-4 -46.5l-28 -176q-10 -59 -33 -78.5t-80 -19.5h-789 q-27 0 -43 3t-32.5 20.5t-10.5 52.5zM469 1438q6 47 129 88l170 57q35 12 66 0l149 -57q53 -23 78.5 -41.5t21.5 -46.5q-14 -80 -88 -80q-16 0 -94 24l-127 41l-143 -41q-86 -25 -103 -24q-39 0 -52 23.5t-7 56.5z" />
<glyph unicode="&#xcb;" d="M61 76q12 78 113 78h43l156 944h-43q-27 0 -43.5 3t-31.5 21.5t-9 53.5q12 76 110 75h746q57 0 72.5 -20.5t5.5 -77.5l-25 -145q-6 -33 -11 -48.5t-27.5 -33t-63.5 -17.5q-39 0 -56.5 15.5t-15.5 37t4 46.5l14 90h-456l-62 -373h230q14 68 32.5 90.5t71.5 22.5 q39 0 56.5 -15.5t15.5 -36t-4 -45.5l-31 -186q-6 -31 -11 -48.5t-27.5 -33.5t-61.5 -16q-53 0 -65.5 25.5t-0.5 88.5h-229l-70 -417h502l18 120q4 25 8.5 38.5t14.5 29.5t29.5 23.5t50.5 7.5q39 0 56 -15.5t15 -37t-4 -46.5l-28 -176q-10 -59 -33 -78.5t-80 -19.5h-789 q-27 0 -43 3t-32.5 20.5t-10.5 52.5zM475 1464q8 45 44 75t81 30t70.5 -30t17.5 -75t-44 -75.5t-81 -30.5t-70.5 30.5t-17.5 75.5zM874.5 1464q8.5 45 44 75t80.5 30t71 -30t17.5 -75t-44 -75.5t-80.5 -30.5t-71 30.5t-17.5 75.5z" />
<glyph unicode="&#xcc;" d="M168 78q12 76 113 76h198l156 944h-199q-27 0 -43 3t-31.5 21.5t-9.5 53.5q12 76 111 75h567q27 0 43.5 -3t32.5 -21.5t10 -52.5q-12 -76 -112 -76h-199l-156 -944h199q27 0 43 -3.5t31.5 -21.5t9.5 -53q-12 -76 -111 -76h-567q-27 0 -43 3t-32.5 21.5t-10.5 53.5z M573 1591q6 37 35 61.5t66 24.5l43 -12l246 -119q29 -12 40 -27.5t7 -45.5q-6 -27 -32 -61t-67 -34q-20 0 -41 11l-243 118q-62 31 -54 84z" />
<glyph unicode="&#xcd;" d="M168 78q12 76 113 76h198l156 944h-199q-27 0 -43 3t-31.5 21.5t-9.5 53.5q12 76 111 75h567q27 0 43.5 -3t32.5 -21.5t10 -52.5q-12 -76 -112 -76h-199l-156 -944h199q27 0 43 -3.5t31.5 -21.5t9.5 -53q-12 -76 -111 -76h-567q-27 0 -43 3t-32.5 21.5t-10.5 53.5z M557 1473q6 49 72 73l282 119l47 12q37 0 57.5 -24.5t14.5 -61.5q-8 -53 -78 -84l-284 -118q-27 -10 -45 -11q-41 0 -56.5 35t-9.5 60z" />
<glyph unicode="&#xce;" d="M168 78q12 76 113 76h198l156 944h-199q-27 0 -43 3t-31.5 21.5t-9.5 53.5q12 76 111 75h567q27 0 43.5 -3t32.5 -21.5t10 -52.5q-12 -76 -112 -76h-199l-156 -944h199q27 0 43 -3.5t31.5 -21.5t9.5 -53q-12 -76 -111 -76h-567q-27 0 -43 3t-32.5 21.5t-10.5 53.5z M469 1438q6 47 129 88l170 57q35 12 66 0l149 -57q53 -23 78.5 -41.5t21.5 -46.5q-14 -80 -88 -80q-16 0 -94 24l-127 41l-143 -41q-86 -25 -103 -24q-39 0 -52 23.5t-7 56.5z" />
<glyph unicode="&#xcf;" d="M168 78q12 76 113 76h198l156 944h-199q-27 0 -43 3t-31.5 21.5t-9.5 53.5q12 76 111 75h567q27 0 43.5 -3t32.5 -21.5t10 -52.5q-12 -76 -112 -76h-199l-156 -944h199q27 0 43 -3.5t31.5 -21.5t9.5 -53q-12 -76 -111 -76h-567q-27 0 -43 3t-32.5 21.5t-10.5 53.5z M475 1464q8 45 44 75t81 30t70.5 -30t17.5 -75t-44 -75.5t-81 -30.5t-70.5 30.5t-17.5 75.5zM874.5 1464q8.5 45 44 75t80.5 30t71 -30t17.5 -75t-44 -75.5t-80.5 -30.5t-71 30.5t-17.5 75.5z" />
<glyph unicode="&#xd0;" d="M47 76q12 78 113 78h28l66 395h-41q-33 0 -52.5 22.5t-13 55t32 55.5t58.5 23h41l65 393h-29q-27 0 -43 3t-31.5 20.5t-9.5 52.5q12 78 111 77h412q131 0 221 -90t121.5 -234.5t3.5 -310.5q-43 -254 -201 -435t-354 -181h-412q-27 0 -43 3t-32.5 20.5t-10.5 52.5z M358 154h177q150 0 258 139t139 323q14 117 2 224.5t-76.5 182.5t-167.5 75h-176l-65 -393h102q33 0 52.5 -23t13 -55.5t-32 -55t-58.5 -22.5h-102z" />
<glyph unicode="&#xd1;" d="M66 78q12 76 110 76h35l156 944h-35q-27 0 -43.5 3t-30.5 21.5t-8 53.5q12 76 108 75h136q51 0 74.5 -15t33.5 -67l186 -915l140 844h-33q-27 0 -42 3t-30.5 20.5t-9.5 52.5q12 78 109 77h211q27 0 43 -3t31.5 -21.5t9.5 -52.5q-12 -76 -111 -76h-35l-166 -1000 q-10 -63 -33.5 -80.5t-80.5 -17.5q-37 0 -54.5 3t-34 21.5t-22.5 57.5l-186 915l-140 -843h33q27 0 43 -3.5t30.5 -21.5t8.5 -53q-12 -76 -109 -76h-210q-27 0 -43.5 3t-31.5 21.5t-9 53.5zM414 1438q6 47 125 123q100 70 176 69q68 0 133 -71q35 -39 45 -39q35 0 141 84 q33 27 63.5 26.5t49 -25t14.5 -55.5q-8 -47 -125 -123q-106 -70 -175.5 -69.5t-133.5 74.5q-33 37 -45 36q-39 0 -141 -84q-39 -27 -64 -26q-31 0 -49 24.5t-14 55.5z" />
<glyph unicode="&#xd2;" d="M169 194.5q-5 79.5 6 175t38 255t47.5 256t52 176.5t62.5 116.5t89 62.5t119.5 32t166.5 6q78 0 128 -3t96 -15.5t70.5 -30t44 -54t23.5 -79.5t1 -116t-13 -153t-30.5 -198.5t-36 -198.5t-37 -152.5t-40 -115.5t-50.5 -79t-62.5 -53.5t-81.5 -29.5t-101.5 -15.5 t-128.5 -3.5q-104 0 -163.5 5.5t-108.5 32t-67.5 63.5t-23.5 116.5zM346 262q6 -74 50 -102.5t163 -28.5q123 0 176 31t82 110q39 102 84 371q45 266 37 361q-8 72 -55 94t-160 22q-119 0 -173 -27.5t-91 -117.5q-29 -78 -74 -332q-45 -301 -39 -381zM573 1591q6 37 35 61.5 t66 24.5l43 -12l246 -119q29 -12 40 -27.5t7 -45.5q-6 -27 -32 -61t-67 -34q-20 0 -41 11l-243 118q-62 31 -54 84z" />
<glyph unicode="&#xd3;" d="M169 194.5q-5 79.5 6 175t38 255t47.5 256t52 176.5t62.5 116.5t89 62.5t119.5 32t166.5 6q78 0 128 -3t96 -15.5t70.5 -30t44 -54t23.5 -79.5t1 -116t-13 -153t-30.5 -198.5t-36 -198.5t-37 -152.5t-40 -115.5t-50.5 -79t-62.5 -53.5t-81.5 -29.5t-101.5 -15.5 t-128.5 -3.5q-104 0 -163.5 5.5t-108.5 32t-67.5 63.5t-23.5 116.5zM346 262q6 -74 50 -102.5t163 -28.5q123 0 176 31t82 110q39 102 84 371q45 266 37 361q-8 72 -55 94t-160 22q-119 0 -173 -27.5t-91 -117.5q-29 -78 -74 -332q-45 -301 -39 -381zM557 1473q6 49 72 73 l282 119l47 12q37 0 57.5 -24.5t14.5 -61.5q-8 -53 -78 -84l-284 -118q-27 -10 -45 -11q-41 0 -56.5 35t-9.5 60z" />
<glyph unicode="&#xd4;" d="M169 194.5q-5 79.5 6 175t38 255t47.5 256t52 176.5t62.5 116.5t89 62.5t119.5 32t166.5 6q78 0 128 -3t96 -15.5t70.5 -30t44 -54t23.5 -79.5t1 -116t-13 -153t-30.5 -198.5t-36 -198.5t-37 -152.5t-40 -115.5t-50.5 -79t-62.5 -53.5t-81.5 -29.5t-101.5 -15.5 t-128.5 -3.5q-104 0 -163.5 5.5t-108.5 32t-67.5 63.5t-23.5 116.5zM346 262q6 -74 50 -102.5t163 -28.5q123 0 176 31t82 110q39 102 84 371q45 266 37 361q-8 72 -55 94t-160 22q-119 0 -173 -27.5t-91 -117.5q-29 -78 -74 -332q-45 -301 -39 -381zM469 1438q6 47 129 88 l170 57q35 12 66 0l149 -57q53 -23 78.5 -41.5t21.5 -46.5q-14 -80 -88 -80q-16 0 -94 24l-127 41l-143 -41q-86 -25 -103 -24q-39 0 -52 23.5t-7 56.5z" />
<glyph unicode="&#xd5;" d="M169 194.5q-5 79.5 6 175t38 255t47.5 256t52 176.5t62.5 116.5t89 62.5t119.5 32t166.5 6q78 0 128 -3t96 -15.5t70.5 -30t44 -54t23.5 -79.5t1 -116t-13 -153t-30.5 -198.5t-36 -198.5t-37 -152.5t-40 -115.5t-50.5 -79t-62.5 -53.5t-81.5 -29.5t-101.5 -15.5 t-128.5 -3.5q-104 0 -163.5 5.5t-108.5 32t-67.5 63.5t-23.5 116.5zM346 262q6 -74 50 -102.5t163 -28.5q123 0 176 31t82 110q39 102 84 371q45 266 37 361q-8 72 -55 94t-160 22q-119 0 -173 -27.5t-91 -117.5q-29 -78 -74 -332q-45 -301 -39 -381zM414 1438q6 47 125 123 q100 70 176 69q68 0 133 -71q35 -39 45 -39q35 0 141 84q33 27 63.5 26.5t49 -25t14.5 -55.5q-8 -47 -125 -123q-106 -70 -175.5 -69.5t-133.5 74.5q-33 37 -45 36q-39 0 -141 -84q-39 -27 -64 -26q-31 0 -49 24.5t-14 55.5z" />
<glyph unicode="&#xd6;" d="M169 194.5q-5 79.5 6 175t38 255t47.5 256t52 176.5t62.5 116.5t89 62.5t119.5 32t166.5 6q78 0 128 -3t96 -15.5t70.5 -30t44 -54t23.5 -79.5t1 -116t-13 -153t-30.5 -198.5t-36 -198.5t-37 -152.5t-40 -115.5t-50.5 -79t-62.5 -53.5t-81.5 -29.5t-101.5 -15.5 t-128.5 -3.5q-104 0 -163.5 5.5t-108.5 32t-67.5 63.5t-23.5 116.5zM346 262q6 -74 50 -102.5t163 -28.5q123 0 176 31t82 110q39 102 84 371q45 266 37 361q-8 72 -55 94t-160 22q-119 0 -173 -27.5t-91 -117.5q-29 -78 -74 -332q-45 -301 -39 -381zM475 1464q8 45 44 75 t81 30t70.5 -30t17.5 -75t-44 -75.5t-81 -30.5t-70.5 30.5t-17.5 75.5zM874.5 1464q8.5 45 44 75t80.5 30t71 -30t17.5 -75t-44 -75.5t-80.5 -30.5t-71 30.5t-17.5 75.5z" />
<glyph unicode="&#xd7;" d="M262 301q-49 51 37 137l221 189l-160 190q-59 82 9 137q59 53 135 -14l158 -192l219 190l20 14.5t27.5 15.5t31 10t32 -3t30.5 -23q47 -51 -39 -137l-221 -188l162 -191q53 -84 -11 -137q-61 -57 -133 14l-159 193l-220 -191q-8 -6 -20 -14t-27.5 -15t-31 -10.5t-32 3 t-28.5 22.5z" />
<glyph unicode="&#xd8;" d="M170 307q4 78 43 318q27 160 47.5 256t52 176t62.5 116.5t89 62.5t119.5 32t166.5 6q82 0 127 -4l38 80q35 72 89 71l20 -4q18 -2 34.5 -21.5t12.5 -49.5l-49 -111q82 -43 91 -175t-44 -435q-20 -119 -35.5 -199t-37 -152.5t-40 -115.5t-50.5 -79t-62.5 -53.5 t-81.5 -29.5t-101.5 -15.5t-128.5 -3.5q-82 0 -129 5l-36 -80q-35 -72 -88 -72l-21 2q-18 4 -34.5 23.5t-12.5 50.5l49 110q-61 33 -79.5 99.5t-10.5 191.5zM342 184l457 934q-25 2 -78 2q-125 0 -184.5 -22.5t-94.5 -100.5q-41 -94 -88 -372q-63 -384 -12 -441zM483 133 q25 -2 78 -2q125 0 184.5 22.5t94.5 100.5q41 94 88 373q63 383 12 440z" />
<glyph unicode="&#xd9;" d="M203 1176q12 76 110 75h256q27 0 43.5 -3t33 -20.5t9.5 -51.5q-12 -78 -112 -78h-43l-111 -666q-23 -141 31.5 -221t138.5 -80q82 0 164 81t104 220l111 666h-43q-27 0 -43 3t-31.5 21.5t-9.5 53.5q12 76 111 75h256q27 0 43 -3t32.5 -20.5t10.5 -51.5q-12 -78 -113 -78 h-43l-111 -674q-31 -188 -169 -317.5t-295.5 -129.5t-251 129.5t-62.5 317.5l111 674h-43q-27 0 -43.5 3t-31.5 21.5t-9 53.5zM573 1591q6 37 35 61.5t66 24.5l43 -12l246 -119q29 -12 40 -27.5t7 -45.5q-6 -27 -32 -61t-67 -34q-20 0 -41 11l-243 118q-62 31 -54 84z" />
<glyph unicode="&#xda;" d="M203 1176q12 76 110 75h256q27 0 43.5 -3t33 -20.5t9.5 -51.5q-12 -78 -112 -78h-43l-111 -666q-23 -141 31.5 -221t138.5 -80q82 0 164 81t104 220l111 666h-43q-27 0 -43 3t-31.5 21.5t-9.5 53.5q12 76 111 75h256q27 0 43 -3t32.5 -20.5t10.5 -51.5q-12 -78 -113 -78 h-43l-111 -674q-31 -188 -169 -317.5t-295.5 -129.5t-251 129.5t-62.5 317.5l111 674h-43q-27 0 -43.5 3t-31.5 21.5t-9 53.5zM557 1473q6 49 72 73l282 119l47 12q37 0 57.5 -24.5t14.5 -61.5q-8 -53 -78 -84l-284 -118q-27 -10 -45 -11q-41 0 -56.5 35t-9.5 60z" />
<glyph unicode="&#xdb;" d="M203 1176q12 76 110 75h256q27 0 43.5 -3t33 -20.5t9.5 -51.5q-12 -78 -112 -78h-43l-111 -666q-23 -141 31.5 -221t138.5 -80q82 0 164 81t104 220l111 666h-43q-27 0 -43 3t-31.5 21.5t-9.5 53.5q12 76 111 75h256q27 0 43 -3t32.5 -20.5t10.5 -51.5q-12 -78 -113 -78 h-43l-111 -674q-31 -188 -169 -317.5t-295.5 -129.5t-251 129.5t-62.5 317.5l111 674h-43q-27 0 -43.5 3t-31.5 21.5t-9 53.5zM469 1438q6 47 129 88l170 57q35 12 66 0l149 -57q53 -23 78.5 -41.5t21.5 -46.5q-14 -80 -88 -80q-16 0 -94 24l-127 41l-143 -41 q-86 -25 -103 -24q-39 0 -52 23.5t-7 56.5z" />
<glyph unicode="&#xdc;" d="M203 1176q12 76 110 75h256q27 0 43.5 -3t33 -20.5t9.5 -51.5q-12 -78 -112 -78h-43l-111 -666q-23 -141 31.5 -221t138.5 -80q82 0 164 81t104 220l111 666h-43q-27 0 -43 3t-31.5 21.5t-9.5 53.5q12 76 111 75h256q27 0 43 -3t32.5 -20.5t10.5 -51.5q-12 -78 -113 -78 h-43l-111 -674q-31 -188 -169 -317.5t-295.5 -129.5t-251 129.5t-62.5 317.5l111 674h-43q-27 0 -43.5 3t-31.5 21.5t-9 53.5zM475 1464q8 45 44 75t81 30t70.5 -30t17.5 -75t-44 -75.5t-81 -30.5t-70.5 30.5t-17.5 75.5zM874.5 1464q8.5 45 44 75t80.5 30t71 -30t17.5 -75 t-44 -75.5t-80.5 -30.5t-71 30.5t-17.5 75.5z" />
<glyph unicode="&#xdd;" d="M231 1176q12 76 109 75h209q25 0 41 -3t31.5 -20.5t9.5 -51.5q-12 -74 -96 -78l118 -416l250 416q-37 2 -55.5 18.5t-11.5 59.5q12 76 106 75h209q27 0 43 -3t31.5 -21.5t9.5 -52.5q-12 -76 -111 -76h-32l-385 -598l-58 -346h33q29 0 44 -3.5t29.5 -21.5t8.5 -53 q-12 -76 -109 -76h-235q-29 0 -45.5 3t-30.5 21.5t-8 53.5q12 76 110 76h33l58 346l-191 598h-33q-27 0 -43 3t-30.5 21.5t-8.5 53.5zM557 1473q6 49 72 73l282 119l47 12q37 0 57.5 -24.5t14.5 -61.5q-8 -53 -78 -84l-284 -118q-27 -10 -45 -11q-41 0 -56.5 35t-9.5 60z " />
<glyph unicode="&#xde;" d="M53 76q12 78 111 78h33l155 944h-33q-27 0 -42 3t-30.5 20.5t-8.5 52.5q12 78 108 77h238q27 0 43 -3t30.5 -21.5t8.5 -52.5q-12 -76 -109 -76h-35l-14 -90h233q174 0 265.5 -114t64.5 -267.5t-155 -267t-302 -113.5h-233l-14 -92h34q27 0 42.5 -3.5t29.5 -21.5t8 -53 q-12 -76 -106 -76h-238q-27 0 -43 3t-31.5 20.5t-9.5 52.5zM410 399h194q125 0 205 71t94 157q14 84 -42 155.5t-181 71.5h-195z" />
<glyph unicode="&#xdf;" d="M43 76q12 78 111 78h92l96 585h-92q-27 0 -43.5 3t-31.5 20.5t-9 52.5q14 78 110 78h93l20 123q14 90 92 149.5t160 79t160 19.5q154 0 250 -65.5t79 -168.5q-25 -137 -190 -227q55 -49 90 -111.5t45 -125t11 -109.5t-7 -92q-29 -166 -162 -271.5t-282 -105.5 q-104 0 -154.5 50t-38.5 116q8 45 42 72.5t73 27.5q43 0 72 -39q10 -23 4 -70q16 -4 29 -4q80 0 155.5 61.5t91.5 162.5q2 33 5.5 77.5t-12 95t-40 93.5t-78 73.5t-127.5 34.5l-14 6q-14 4 -26.5 22.5t-8.5 47.5q8 41 40 58.5t106 23.5q96 14 149 54t60 77q4 33 -51.5 57.5 t-139.5 24.5q-74 0 -145 -27q-43 -18 -54.5 -34.5t-15.5 -47.5l-151 -903q-10 -59 -33 -78.5t-80 -19.5h-166q-27 0 -43 3t-31.5 20.5t-9.5 52.5z" />
<glyph unicode="&#xe0;" d="M154 272q25 143 200.5 224.5t450.5 87.5q8 88 -47.5 130t-161.5 42l-100 -6q-10 -57 -48 -83t-75 -26q-43 0 -68.5 28.5t-17.5 78.5q29 162 331 161q207 0 292 -98t65 -225l-70 -420q29 -12 103 -12q27 0 42 -3.5t30.5 -20.5t9.5 -52q-8 -51 -38 -64.5t-91 -13.5 q-166 0 -209 59q-131 -72 -299 -71q-156 0 -236.5 84.5t-62.5 199.5zM322 272q-10 -55 37 -93t130 -38q102 0 177 33q35 14 54 34.5t23.5 34t8.5 40.5l24 151q-199 -8 -320.5 -51t-133.5 -111zM512 1214q6 37 34.5 61.5t65.5 24.5l43 -12l244 -119q29 -12 41 -27.5t6 -45.5 q-2 -23 -29.5 -59t-68.5 -36q-16 0 -41 11l-244 118q-59 27 -51 84z" />
<glyph unicode="&#xe1;" d="M154 272q25 143 200.5 224.5t450.5 87.5q8 88 -47.5 130t-161.5 42l-100 -6q-10 -57 -48 -83t-75 -26q-43 0 -68.5 28.5t-17.5 78.5q29 162 331 161q207 0 292 -98t65 -225l-70 -420q29 -12 103 -12q27 0 42 -3.5t30.5 -20.5t9.5 -52q-8 -51 -38 -64.5t-91 -13.5 q-166 0 -209 59q-131 -72 -299 -71q-156 0 -236.5 84.5t-62.5 199.5zM322 272q-10 -55 37 -93t130 -38q102 0 177 33q35 14 54 34.5t23.5 34t8.5 40.5l24 151q-199 -8 -320.5 -51t-133.5 -111zM494 1096q8 49 71 73l285 119l47 12q37 0 57.5 -24.5t14.5 -61.5 q-8 -55 -80 -84l-285 -118q-25 -10 -45 -11q-29 0 -45 20.5t-19 40.5t-1 34z" />
<glyph unicode="&#xe2;" d="M154 272q25 143 200.5 224.5t450.5 87.5q8 88 -47.5 130t-161.5 42l-100 -6q-10 -57 -48 -83t-75 -26q-43 0 -68.5 28.5t-17.5 78.5q29 162 331 161q207 0 292 -98t65 -225l-70 -420q29 -12 103 -12q27 0 42 -3.5t30.5 -20.5t9.5 -52q-8 -51 -38 -64.5t-91 -13.5 q-166 0 -209 59q-131 -72 -299 -71q-156 0 -236.5 84.5t-62.5 199.5zM322 272q-10 -55 37 -93t130 -38q102 0 177 33q35 14 54 34.5t23.5 34t8.5 40.5l24 151q-199 -8 -320.5 -51t-133.5 -111zM406 1065q2 23 18 42t30.5 28.5t59.5 35.5l205 119q37 23 65 0l164 -119 q37 -27 48.5 -37t21.5 -28.5t6 -40.5q-16 -66 -94 -66q-20 0 -80 43l-125 86l-154 -86q-74 -43 -96 -43q-41 0 -57 16.5t-12 49.5z" />
<glyph unicode="&#xe3;" d="M154 272q25 143 200.5 224.5t450.5 87.5q8 88 -47.5 130t-161.5 42l-100 -6q-10 -57 -48 -83t-75 -26q-43 0 -68.5 28.5t-17.5 78.5q29 162 331 161q207 0 292 -98t65 -225l-70 -420q29 -12 103 -12q27 0 42 -3.5t30.5 -20.5t9.5 -52q-8 -51 -38 -64.5t-91 -13.5 q-166 0 -209 59q-131 -72 -299 -71q-156 0 -236.5 84.5t-62.5 199.5zM322 272q-10 -55 37 -93t130 -38q102 0 177 33q35 14 54 34.5t23.5 34t8.5 40.5l24 151q-199 -8 -320.5 -51t-133.5 -111zM356 1096q6 47 125 123q100 70 176 69q68 0 134 -71q35 -39 45 -39q33 0 143 84 q35 27 61 26q31 0 49.5 -24.5t14.5 -55.5q-8 -47 -125 -123q-106 -70 -174 -69q-76 0 -133 74q-37 37 -45 36q-41 0 -144 -84q-35 -27 -61 -26q-31 0 -50.5 25.5t-15.5 54.5z" />
<glyph unicode="&#xe4;" d="M154 272q25 143 200.5 224.5t450.5 87.5q8 88 -47.5 130t-161.5 42l-100 -6q-10 -57 -48 -83t-75 -26q-43 0 -68.5 28.5t-17.5 78.5q29 162 331 161q207 0 292 -98t65 -225l-70 -420q29 -12 103 -12q27 0 42 -3.5t30.5 -20.5t9.5 -52q-8 -51 -38 -64.5t-91 -13.5 q-166 0 -209 59q-131 -72 -299 -71q-156 0 -236.5 84.5t-62.5 199.5zM322 272q-10 -55 37 -93t130 -38q102 0 177 33q35 14 54 34.5t23.5 34t8.5 40.5l24 151q-199 -8 -320.5 -51t-133.5 -111zM454.5 1153q8.5 45 43 74.5t80 29.5t72 -29.5t18 -74.5t-44 -75.5t-80.5 -30.5 t-71 30.5t-17.5 75.5zM792.5 1153q8.5 45 43 74.5t80 29.5t72 -29.5t18 -74.5t-44 -75.5t-80.5 -30.5t-71 30.5t-17.5 75.5z" />
<glyph unicode="&#xe5;" d="M154 272q25 143 200.5 224.5t450.5 87.5q8 88 -47.5 130t-161.5 42l-100 -6q-10 -57 -48 -83t-75 -26q-43 0 -68.5 28.5t-17.5 78.5q29 162 331 161q207 0 292 -98t65 -225l-70 -420q29 -12 103 -12q27 0 42 -3.5t30.5 -20.5t9.5 -52q-8 -51 -38 -64.5t-91 -13.5 q-166 0 -209 59q-131 -72 -299 -71q-156 0 -236.5 84.5t-62.5 199.5zM322 272q-10 -55 37 -93t130 -38q102 0 177 33q35 14 54 34.5t23.5 34t8.5 40.5l24 151q-199 -8 -320.5 -51t-133.5 -111zM555 1174q10 53 67.5 94t133 41t121 -41t34.5 -94q-8 -55 -66.5 -97.5 t-134 -42.5t-119.5 42.5t-36 97.5zM670 1171.5q-2 -18.5 15 -30t42 -11.5t46.5 11.5t23.5 30t-14.5 29.5t-41 11t-47 -11t-24.5 -29.5z" />
<glyph unicode="&#xe6;" d="M106 252q18 123 144.5 196.5t302.5 77.5l8 52q29 178 -112 178q-18 0 -37 -11q-25 -104 -121 -104q-45 0 -70.5 28.5t-17.5 78.5q12 66 76.5 113.5t199.5 47.5q145 0 209 -129q104 129 234 129q117 0 173 -113.5t21 -314.5q-10 -59 -30.5 -79.5t-81.5 -20.5h-326 q-2 -109 41 -174.5t106 -65.5q51 0 90 68q23 47 44.5 71.5t56.5 24.5q31 0 47 -21.5t12 -50.5q-4 -31 -34.5 -84t-100.5 -107t-152 -54q-123 0 -204 127q-51 -59 -127 -93t-152 -34q-109 0 -163 81t-36 183zM246 254q-8 -43 16.5 -78t75.5 -35q57 0 113 39q39 31 53 103 l18 94q-115 -6 -191.5 -38t-84.5 -85zM709 532h274q23 223 -80 224q-55 0 -111 -68t-83 -156z" />
<glyph unicode="&#xe7;" d="M217 446q12 74 51 151t104.5 148.5t171 117.5t230.5 46q39 0 71 -2t79 -10t76.5 -24.5t49 -48t11.5 -76.5q-8 -49 -44 -78t-81 -29q-98 0 -84 113l-102 2q-90 0 -161 -34t-111 -87t-61.5 -100.5t-29.5 -88.5q-20 -127 53.5 -216t194.5 -89q135 0 201 111q18 35 37.5 44 t52.5 9q14 0 29.5 -2t33 -20.5t10.5 -49.5q-6 -43 -74.5 -119.5t-189.5 -107.5q84 -27 118 -82t24 -119q-10 -61 -50.5 -104t-89.5 -65.5t-124.5 -35t-128 -14.5t-128 -2t-65.5 78q8 49 42 63.5t107 14.5q258 0 269 65q4 25 -25 43.5t-84 20.5q-51 2 -61.5 27.5t-1.5 70.5 l4 25q-168 20 -260.5 150t-63.5 304z" />
<glyph unicode="&#xe8;" d="M182 449q31 190 184.5 325t338.5 135q193 0 277.5 -126t51.5 -312q-6 -43 -25.5 -63.5t-36 -23.5t-48.5 -3h-576q8 -111 87 -175.5t186 -64.5q143 0 210 111q18 33 37 43t54 10q14 0 29.5 -2t32.5 -20.5t11 -49.5q-4 -25 -30.5 -61.5t-74.5 -79.5t-131 -73.5t-179 -30.5 q-199 0 -315 135.5t-83 325.5zM375 532h493q6 121 -49 172.5t-139 51.5q-94 0 -179 -63t-126 -161zM512 1214q6 37 34.5 61.5t65.5 24.5l43 -12l244 -119q29 -12 41 -27.5t6 -45.5q-2 -23 -29.5 -59t-68.5 -36q-16 0 -41 11l-244 118q-59 27 -51 84z" />
<glyph unicode="&#xe9;" d="M182 449q31 190 184.5 325t338.5 135q193 0 277.5 -126t51.5 -312q-6 -43 -25.5 -63.5t-36 -23.5t-48.5 -3h-576q8 -111 87 -175.5t186 -64.5q143 0 210 111q18 33 37 43t54 10q14 0 29.5 -2t32.5 -20.5t11 -49.5q-4 -25 -30.5 -61.5t-74.5 -79.5t-131 -73.5t-179 -30.5 q-199 0 -315 135.5t-83 325.5zM375 532h493q6 121 -49 172.5t-139 51.5q-94 0 -179 -63t-126 -161zM494 1096q8 49 71 73l285 119l47 12q37 0 57.5 -24.5t14.5 -61.5q-8 -55 -80 -84l-285 -118q-25 -10 -45 -11q-29 0 -45 20.5t-19 40.5t-1 34z" />
<glyph unicode="&#xea;" d="M182 449q31 190 184.5 325t338.5 135q193 0 277.5 -126t51.5 -312q-6 -43 -25.5 -63.5t-36 -23.5t-48.5 -3h-576q8 -111 87 -175.5t186 -64.5q143 0 210 111q18 33 37 43t54 10q14 0 29.5 -2t32.5 -20.5t11 -49.5q-4 -25 -30.5 -61.5t-74.5 -79.5t-131 -73.5t-179 -30.5 q-199 0 -315 135.5t-83 325.5zM375 532h493q6 121 -49 172.5t-139 51.5q-94 0 -179 -63t-126 -161zM406 1065q2 23 18 42t30.5 28.5t59.5 35.5l205 119q37 23 65 0l164 -119q37 -27 48.5 -37t21.5 -28.5t6 -40.5q-16 -66 -94 -66q-20 0 -80 43l-125 86l-154 -86 q-74 -43 -96 -43q-41 0 -57 16.5t-12 49.5z" />
<glyph unicode="&#xeb;" d="M182 449q31 190 184.5 325t338.5 135q193 0 277.5 -126t51.5 -312q-6 -43 -25.5 -63.5t-36 -23.5t-48.5 -3h-576q8 -111 87 -175.5t186 -64.5q143 0 210 111q18 33 37 43t54 10q14 0 29.5 -2t32.5 -20.5t11 -49.5q-4 -25 -30.5 -61.5t-74.5 -79.5t-131 -73.5t-179 -30.5 q-199 0 -315 135.5t-83 325.5zM375 532h493q6 121 -49 172.5t-139 51.5q-94 0 -179 -63t-126 -161zM454.5 1153q8.5 45 43 74.5t80 29.5t72 -29.5t18 -74.5t-44 -75.5t-80.5 -30.5t-71 30.5t-17.5 75.5zM792.5 1153q8.5 45 43 74.5t80 29.5t72 -29.5t18 -74.5t-44 -75.5 t-80.5 -30.5t-71 30.5t-17.5 75.5z" />
<glyph unicode="&#xec;" d="M166 76q12 78 113 78h225l96 585h-209q-18 0 -30.5 2t-29 8.5t-22.5 24t-2 43.5q10 76 111 76h282q59 0 75 -20.5t5 -77.5l-106 -641h192q27 0 43.5 -3.5t31.5 -21.5t9 -53q-12 -76 -110 -76h-588q-27 0 -43 3t-32.5 20.5t-10.5 52.5zM508 1188q6 37 34.5 61.5t65.5 24.5 l43 -12l244 -119q29 -12 41 -27.5t6 -46.5q-2 -23 -29.5 -58.5t-68.5 -35.5q-16 0 -41 10l-244 119q-59 27 -51 84z" />
<glyph unicode="&#xed;" d="M166 76q12 78 113 78h225l96 585h-209q-18 0 -30.5 2t-29 8.5t-22.5 24t-2 43.5q10 76 111 76h282q59 0 75 -20.5t5 -77.5l-106 -641h192q27 0 43.5 -3.5t31.5 -21.5t9 -53q-12 -76 -110 -76h-588q-27 0 -43 3t-32.5 20.5t-10.5 52.5zM489 1069q8 49 72 74l285 119l47 12 q37 0 57.5 -24.5t14.5 -61.5q-8 -55 -80 -84l-285 -119q-25 -10 -45 -10q-29 0 -45 20.5t-19.5 40t-1.5 33.5z" />
<glyph unicode="&#xee;" d="M166 76q12 78 113 78h225l96 585h-209q-18 0 -30.5 2t-29 8.5t-22.5 24t-2 43.5q10 76 111 76h282q59 0 75 -20.5t5 -77.5l-106 -641h192q27 0 43.5 -3.5t31.5 -21.5t9 -53q-12 -76 -110 -76h-588q-27 0 -43 3t-32.5 20.5t-10.5 52.5zM401 1038q2 23 18.5 42.5t31 28.5 l59.5 36l205 119q37 23 65 0l164 -119q37 -27 48.5 -37t21.5 -28.5t6 -41.5q-16 -66 -94 -65q-20 0 -80 43l-125 86l-154 -86q-74 -43 -96 -43q-41 0 -57.5 16t-12.5 49z" />
<glyph unicode="&#xef;" d="M166 76q12 78 113 78h225l96 585h-209q-18 0 -30.5 2t-29 8.5t-22.5 24t-2 43.5q10 76 111 76h282q59 0 75 -20.5t5 -77.5l-106 -641h192q27 0 43.5 -3.5t31.5 -21.5t9 -53q-12 -76 -110 -76h-588q-27 0 -43 3t-32.5 20.5t-10.5 52.5zM450.5 1126q8.5 45 43 75t79.5 30 t72 -30t18.5 -75t-44 -75.5t-80.5 -30.5t-71 30.5t-17.5 75.5zM788.5 1126q8.5 45 43 75t79.5 30t72 -30t18.5 -75t-44 -75.5t-81 -30.5t-71 30.5t-17 75.5z" />
<glyph unicode="&#xf0;" d="M184.5 446.5q32.5 194.5 181 328.5t322.5 134q117 0 205 -63q-10 86 -33 143l-26 -22q-29 -25 -62 -25t-51.5 22.5t-13.5 55.5q4 27 32 55l21 19q-43 16 -90 16q-33 0 -51.5 22.5t-12.5 55.5q4 33 31 55.5t59 22.5q113 0 193 -58l39 35q27 23 59.5 23t51 -22.5 t14.5 -55.5q-6 -33 -31 -53l-39 -35q127 -221 53 -654q-29 -190 -180 -325q-150 -133 -321 -133q-174 0 -278.5 132t-72 326.5zM358 461q-23 -131 38 -225.5t165.5 -94.5t195.5 94.5t113 225.5q20 127 -41 211t-165 84q-102 0 -194 -85t-112 -210z" />
<glyph unicode="&#xf1;" d="M35 76q12 78 110 78h72l96 585h-73q-16 0 -28.5 2t-29 8.5t-22.5 22.5t-2 43q12 78 110 78h146q57 0 72.5 -17.5t11.5 -58.5q123 86 260 86q274 0 225 -303l-74 -446h72q27 0 43 -3.5t30.5 -21.5t8.5 -53q-12 -76 -107 -76h-305q-25 0 -42 3t-33.5 21.5t-10.5 51.5 q12 78 113 78h61l72 436q14 86 -4.5 123t-87.5 37q-86 0 -171 -66t-106 -192l-55 -338h72q27 0 43 -3.5t31.5 -21.5t9.5 -53q-12 -76 -109 -76h-317q-16 0 -28.5 2t-29 8t-22.5 22.5t-2 43.5zM352 1069q6 47 125 123q100 70 176 70q68 0 133 -72q35 -39 45 -39q33 0 144 84 q35 27 61 27q31 0 49.5 -25t14.5 -55q-8 -47 -125 -123q-106 -70 -174 -70q-76 0 -133 74q-37 37 -45 37q-41 0 -144 -84q-35 -27 -61 -27q-31 0 -50.5 25.5t-15.5 54.5z" />
<glyph unicode="&#xf2;" d="M184.5 446.5q32.5 194.5 181 328.5t322.5 134q176 0 278.5 -135t70 -327.5t-181 -325.5t-320.5 -133q-174 0 -278.5 132t-72 326.5zM358 461q-23 -131 38 -225.5t165.5 -94.5t195.5 94.5t113 225.5q20 127 -41 211t-165 84q-102 0 -194 -85t-112 -210zM512 1214 q6 37 34.5 61.5t65.5 24.5l43 -12l244 -119q29 -12 41 -27.5t6 -45.5q-2 -23 -29.5 -59t-68.5 -36q-16 0 -41 11l-244 118q-59 27 -51 84z" />
<glyph unicode="&#xf3;" d="M184.5 446.5q32.5 194.5 181 328.5t322.5 134q176 0 278.5 -135t70 -327.5t-181 -325.5t-320.5 -133q-174 0 -278.5 132t-72 326.5zM358 461q-23 -131 38 -225.5t165.5 -94.5t195.5 94.5t113 225.5q20 127 -41 211t-165 84q-102 0 -194 -85t-112 -210zM494 1096 q8 49 71 73l285 119l47 12q37 0 57.5 -24.5t14.5 -61.5q-8 -55 -80 -84l-285 -118q-25 -10 -45 -11q-29 0 -45 20.5t-19 40.5t-1 34z" />
<glyph unicode="&#xf4;" d="M184.5 446.5q32.5 194.5 181 328.5t322.5 134q176 0 278.5 -135t70 -327.5t-181 -325.5t-320.5 -133q-174 0 -278.5 132t-72 326.5zM358 461q-23 -131 38 -225.5t165.5 -94.5t195.5 94.5t113 225.5q20 127 -41 211t-165 84q-102 0 -194 -85t-112 -210zM406 1065 q2 23 18 42t30.5 28.5t59.5 35.5l205 119q37 23 65 0l164 -119q37 -27 48.5 -37t21.5 -28.5t6 -40.5q-16 -66 -94 -66q-20 0 -80 43l-125 86l-154 -86q-74 -43 -96 -43q-41 0 -57 16.5t-12 49.5z" />
<glyph unicode="&#xf5;" d="M184.5 446.5q32.5 194.5 181 328.5t322.5 134q176 0 278.5 -135t70 -327.5t-181 -325.5t-320.5 -133q-174 0 -278.5 132t-72 326.5zM356 1096q6 47 125 123q100 70 176 69q68 0 134 -71q35 -39 45 -39q33 0 143 84q35 27 61 26q31 0 49.5 -24.5t14.5 -55.5 q-8 -47 -125 -123q-106 -70 -174 -69q-76 0 -133 74q-37 37 -45 36q-41 0 -144 -84q-35 -27 -61 -26q-31 0 -50.5 25.5t-15.5 54.5zM358 461q-23 -131 38 -225.5t165.5 -94.5t195.5 94.5t113 225.5q20 127 -41 211t-165 84q-102 0 -194 -85t-112 -210z" />
<glyph unicode="&#xf6;" d="M184.5 446.5q32.5 194.5 181 328.5t322.5 134q176 0 278.5 -135t70 -327.5t-181 -325.5t-320.5 -133q-174 0 -278.5 132t-72 326.5zM358 461q-23 -131 38 -225.5t165.5 -94.5t195.5 94.5t113 225.5q20 127 -41 211t-165 84q-102 0 -194 -85t-112 -210zM454.5 1153 q8.5 45 43 74.5t80 29.5t72 -29.5t18 -74.5t-44 -75.5t-80.5 -30.5t-71 30.5t-17.5 75.5zM792.5 1153q8.5 45 43 74.5t80 29.5t72 -29.5t18 -74.5t-44 -75.5t-80.5 -30.5t-71 30.5t-17.5 75.5z" />
<glyph unicode="&#xf7;" d="M178 627q14 86 131 86h692q25 0 46.5 -3t42 -24.5t14.5 -58.5q-14 -86 -121 -86h-713q-25 0 -42 3t-36.5 23.5t-13.5 59.5zM430 203q8 55 55 98t109 43q55 0 90 -41t25 -102q-8 -55 -55.5 -97.5t-108.5 -42.5q-55 0 -90 41.5t-25 100.5zM571 1051q8 55 55.5 97t108.5 42 q55 0 90 -41t25 -100q-8 -55 -55 -98.5t-109 -43.5q-55 0 -90 41.5t-25 102.5z" />
<glyph unicode="&#xf8;" d="M49 -203q4 20 49 84l164 215q-133 141 -100 350q33 190 186.5 326.5t339.5 136.5q88 0 158 -30l184 247q31 45 74 45q27 0 50.5 -20.5t16.5 -54.5q0 -16 -24 -49l-184 -250q129 -150 96 -351q-31 -190 -185.5 -324t-338.5 -134q-86 0 -154 30l-188 -251q-31 -45 -76 -46 q-27 0 -50.5 20.5t-17.5 55.5zM303 446q-20 -123 55 -217l385 516q-33 10 -81 11q-127 0 -233 -90.5t-126 -219.5zM483 152q31 -10 80 -11q127 0 230.5 89t124.5 216q25 127 -52 220z" />
<glyph unicode="&#xf9;" d="M158 815q12 78 110 78h146q59 0 74.5 -20.5t5.5 -77.5l-91 -539q-4 -31 -4 -55.5t31 -42t96 -17.5q41 0 84 10.5t94.5 56.5t63.5 122l68 409h-74q-25 0 -41 3t-32.5 20.5t-10.5 52.5q12 78 113 78h145q59 0 74.5 -20.5t5.5 -77.5l-107 -641h74q25 0 40 -3.5t30.5 -21.5 t9.5 -51q-12 -78 -109 -78h-145q-80 0 -86 51q-106 -63 -234 -63q-133 0 -207.5 58t-50.5 198l82 495h-73q-16 0 -28.5 2t-29 8.5t-22.5 22.5t-2 43zM508 1188q6 37 34.5 61.5t65.5 24.5l43 -12l244 -119q29 -12 41 -27.5t6 -46.5q-2 -23 -29.5 -58.5t-68.5 -35.5 q-16 0 -41 10l-244 119q-59 27 -51 84z" />
<glyph unicode="&#xfa;" d="M158 815q12 78 110 78h146q59 0 74.5 -20.5t5.5 -77.5l-91 -539q-4 -31 -4 -55.5t31 -42t96 -17.5q41 0 84 10.5t94.5 56.5t63.5 122l68 409h-74q-25 0 -41 3t-32.5 20.5t-10.5 52.5q12 78 113 78h145q59 0 74.5 -20.5t5.5 -77.5l-107 -641h74q25 0 40 -3.5t30.5 -21.5 t9.5 -51q-12 -78 -109 -78h-145q-80 0 -86 51q-106 -63 -234 -63q-133 0 -207.5 58t-50.5 198l82 495h-73q-16 0 -28.5 2t-29 8.5t-22.5 22.5t-2 43zM489 1069q8 49 72 74l285 119l47 12q37 0 57.5 -24.5t14.5 -61.5q-8 -55 -80 -84l-285 -119q-25 -10 -45 -10 q-29 0 -45 20.5t-19.5 40t-1.5 33.5z" />
<glyph unicode="&#xfb;" d="M158 815q12 78 110 78h146q59 0 74.5 -20.5t5.5 -77.5l-91 -539q-4 -31 -4 -55.5t31 -42t96 -17.5q41 0 84 10.5t94.5 56.5t63.5 122l68 409h-74q-25 0 -41 3t-32.5 20.5t-10.5 52.5q12 78 113 78h145q59 0 74.5 -20.5t5.5 -77.5l-107 -641h74q25 0 40 -3.5t30.5 -21.5 t9.5 -51q-12 -78 -109 -78h-145q-80 0 -86 51q-106 -63 -234 -63q-133 0 -207.5 58t-50.5 198l82 495h-73q-16 0 -28.5 2t-29 8.5t-22.5 22.5t-2 43zM401 1038q2 23 18.5 42.5t31 28.5l59.5 36l205 119q37 23 65 0l164 -119q37 -27 48.5 -37t21.5 -28.5t6 -41.5 q-16 -66 -94 -65q-20 0 -80 43l-125 86l-154 -86q-74 -43 -96 -43q-41 0 -57.5 16t-12.5 49z" />
<glyph unicode="&#xfc;" d="M158 815q12 78 110 78h146q59 0 74.5 -20.5t5.5 -77.5l-91 -539q-4 -31 -4 -55.5t31 -42t96 -17.5q41 0 84 10.5t94.5 56.5t63.5 122l68 409h-74q-25 0 -41 3t-32.5 20.5t-10.5 52.5q12 78 113 78h145q59 0 74.5 -20.5t5.5 -77.5l-107 -641h74q25 0 40 -3.5t30.5 -21.5 t9.5 -51q-12 -78 -109 -78h-145q-80 0 -86 51q-106 -63 -234 -63q-133 0 -207.5 58t-50.5 198l82 495h-73q-16 0 -28.5 2t-29 8.5t-22.5 22.5t-2 43zM450.5 1126q8.5 45 43 75t79.5 30t72 -30t18.5 -75t-44 -75.5t-80.5 -30.5t-71 30.5t-17.5 75.5zM788.5 1126q8.5 45 43 75 t79.5 30t72 -30t18.5 -75t-44 -75.5t-81 -30.5t-71 30.5t-17 75.5z" />
<glyph unicode="&#xfd;" d="M39 -274q6 45 39 73.5t80 28.5q45 0 68.5 -28.5t17.5 -73.5q-4 -18 -19 -33l-12 -12q31 0 78 34.5t86 89.5q14 20 38 67l45 92l25 52l-166 723h-51q-27 0 -43 3t-31.5 20.5t-9.5 52.5q14 78 111 78h233q20 0 32.5 -2t28 -8t20.5 -23.5t1 -44.5q-12 -76 -108 -76h-27 l115 -534l264 534h-33q-20 0 -32.5 2t-28 8.5t-20.5 24t-1 43.5q10 76 109 76h233q20 0 32.5 -2t28 -8t20.5 -23.5t1 -44.5q-12 -76 -108 -76h-49l-455 -899q-16 -29 -35.5 -59.5t-70 -93t-118 -102.5t-139.5 -40q-78 0 -119.5 54.5t-29.5 126.5zM489 1069q8 49 72 74 l285 119l47 12q37 0 57.5 -24.5t14.5 -61.5q-8 -55 -80 -84l-285 -119q-25 -10 -45 -10q-29 0 -45 20.5t-19.5 40t-1.5 33.5z" />
<glyph unicode="&#xfe;" d="M-41 -367q12 78 111 78h71l232 1387h-74q-25 0 -41 3t-31.5 20.5t-9.5 52.5q12 78 111 77h145q59 0 74.5 -20.5t5.5 -77.5l-55 -328q121 78 252 78q166 0 263 -133t64 -324q-31 -193 -181.5 -325.5t-322.5 -132.5q-121 0 -200 82l-62 -359h72q27 0 44 -3t32.5 -21.5 t9.5 -53.5q-12 -76 -109 -75h-317q-25 0 -41 3t-32.5 20t-10.5 52zM428 397q-14 -84 28 -170t140 -86q104 0 198.5 87t114.5 218q23 123 -34.5 213.5t-161.5 90.5q-88 0 -167 -62.5t-93 -144.5z" />
<glyph unicode="&#xff;" d="M39 -274q6 45 39 73.5t80 28.5q45 0 68.5 -28.5t17.5 -73.5q-4 -18 -19 -33l-12 -12q31 0 78 34.5t86 89.5q14 20 38 67l45 92l25 52l-166 723h-51q-27 0 -43 3t-31.5 20.5t-9.5 52.5q14 78 111 78h233q20 0 32.5 -2t28 -8t20.5 -23.5t1 -44.5q-12 -76 -108 -76h-27 l115 -534l264 534h-33q-20 0 -32.5 2t-28 8.5t-20.5 24t-1 43.5q10 76 109 76h233q20 0 32.5 -2t28 -8t20.5 -23.5t1 -44.5q-12 -76 -108 -76h-49l-455 -899q-16 -29 -35.5 -59.5t-70 -93t-118 -102.5t-139.5 -40q-78 0 -119.5 54.5t-29.5 126.5zM450.5 1126q8.5 45 43 75 t79.5 30t72 -30t18.5 -75t-44 -75.5t-80.5 -30.5t-71 30.5t-17.5 75.5zM788.5 1126q8.5 45 43 75t79.5 30t72 -30t18.5 -75t-44 -75.5t-81 -30.5t-71 30.5t-17 75.5z" />
<glyph unicode="&#x100;" d="M63 76q8 49 56 71q18 6 82 7l411 1034q25 59 51.5 73.5t86 14.5t82 -15.5t26.5 -74.5l68 -1032q61 0 78 -9q41 -18 30 -69q-12 -76 -114 -76h-203q-31 0 -47.5 3t-31.5 20.5t-9 52.5q8 47 34.5 61.5t88.5 16.5l-11 176h-299l-67 -176q59 -2 80.5 -16.5t13.5 -61.5 q-6 -35 -26.5 -52.5t-38 -20.5t-48.5 -3h-202q-27 0 -45.5 3t-35 21.5t-10.5 51.5zM391 1479q12 78 111 77h594q29 0 44 -3t29.5 -21.5t8.5 -54.5q-12 -78 -109 -78h-592q-29 0 -45 3t-31.5 21.5t-9.5 55.5zM504 483h225l-22 533z" />
<glyph unicode="&#x101;" d="M154 272q25 143 200.5 224.5t450.5 87.5q8 88 -47.5 130t-161.5 42l-100 -6q-10 -57 -48 -83t-75 -26q-43 0 -68.5 28.5t-17.5 78.5q29 162 331 161q207 0 292 -98t65 -225l-70 -420q29 -12 103 -12q27 0 42 -3.5t30.5 -20.5t9.5 -52q-8 -51 -38 -64.5t-91 -13.5 q-166 0 -209 59q-131 -72 -299 -71q-156 0 -236.5 84.5t-62.5 199.5zM322 272q-10 -55 37 -93t130 -38q102 0 177 33q35 14 54 34.5t23.5 34t8.5 40.5l24 151q-199 -8 -320.5 -51t-133.5 -111zM338 1153q12 78 108 78h594q29 0 45.5 -3t30.5 -21.5t8 -55.5q-14 -78 -110 -78 h-592q-29 0 -45.5 3t-30.5 21.5t-8 55.5z" />
<glyph unicode="&#x102;" d="M63 76q8 49 56 71q18 6 82 7l411 1034q25 59 51.5 73.5t86 14.5t82 -15.5t26.5 -74.5l68 -1032q61 0 78 -9q41 -18 30 -69q-12 -76 -114 -76h-203q-31 0 -47.5 3t-31.5 20.5t-9 52.5q8 47 34.5 61.5t88.5 16.5l-11 176h-299l-67 -176q59 -2 80.5 -16.5t13.5 -61.5 q-6 -35 -26.5 -52.5t-38 -20.5t-48.5 -3h-202q-27 0 -45.5 3t-35 21.5t-10.5 51.5zM432 1559q14 78 90 77q63 0 64 -69q4 -29 208.5 -29t217.5 29q8 20 15 31.5t26.5 24.5t46.5 13q37 0 54 -20.5t11 -56.5q-10 -61 -52 -100.5t-108.5 -56t-116.5 -20.5t-120 -4t-118 4 t-109.5 20.5t-90 56t-18.5 100.5zM504 483h225l-22 533z" />
<glyph unicode="&#x103;" d="M154 272q25 143 200.5 224.5t450.5 87.5q8 88 -47.5 130t-161.5 42l-100 -6q-10 -57 -48 -83t-75 -26q-43 0 -68.5 28.5t-17.5 78.5q29 162 331 161q207 0 292 -98t65 -225l-70 -420q29 -12 103 -12q27 0 42 -3.5t30.5 -20.5t9.5 -52q-8 -51 -38 -64.5t-91 -13.5 q-166 0 -209 59q-131 -72 -299 -71q-156 0 -236.5 84.5t-62.5 199.5zM322 272q-10 -55 37 -93t130 -38q102 0 177 33q35 14 54 34.5t23.5 34t8.5 40.5l24 151q-199 -8 -320.5 -51t-133.5 -111zM373 1202q14 78 90 78q63 0 63 -70q4 -29 209 -28.5t217 28.5q8 20 15.5 31.5 t27 25t45.5 13.5q37 0 54.5 -20.5t11.5 -57.5q-10 -61 -52 -100t-108.5 -55.5t-117 -20.5t-120 -4t-117.5 4t-109.5 20.5t-90 55.5t-18.5 100z" />
<glyph unicode="&#x104;" d="M63 76q8 49 56 71q18 6 82 7l411 1034q25 59 51.5 73.5t86 14.5t82 -15.5t26.5 -74.5l68 -1032q61 0 78 -9q41 -18 30 -69q-12 -76 -114 -76h-78q-76 -41 -110 -89t-46 -114q-4 -27 16.5 -45t45.5 -18q23 0 45 16l27 25q13 12 26 21l23 18q11 8 20.5 13t17.5 7t16.5 1 t15.5 -6t13 -13q14 -20 14.5 -50t-16.5 -47q-115 -125 -233 -125q-96 0 -144.5 65t-33.5 142q20 121 133 203q-53 12 -43 72q8 47 34.5 61.5t88.5 16.5l-11 176h-299l-67 -176q59 -2 80.5 -16.5t13.5 -61.5q-6 -35 -26.5 -52.5t-38 -20.5t-48.5 -3h-202q-27 0 -45.5 3 t-35 21.5t-10.5 51.5zM504 483h225l-22 533z" />
<glyph unicode="&#x105;" d="M154 272q25 143 200.5 224.5t450.5 87.5q8 88 -47.5 130t-161.5 42l-100 -6q-10 -57 -48 -83t-75 -26q-43 0 -68.5 28.5t-17.5 78.5q29 162 331 161q207 0 292 -98t65 -225l-70 -420q29 -12 103 -12q27 0 42 -3.5t30.5 -20.5t9.5 -52q-4 -33 -27 -51.5t-43.5 -21.5 t-54.5 -5h-41q-145 -86 -166 -203q-4 -27 16.5 -45t46.5 -18q18 0 45 16q39 35 55.5 48.5t41 27.5t38 10t25.5 -20q14 -23 13 -51.5t-17 -45.5q-115 -125 -231 -125q-96 0 -145.5 65t-35.5 142q20 125 174 230q-20 14 -32 28q-131 -72 -299 -71q-156 0 -236.5 84.5 t-62.5 199.5zM322 272q-10 -55 37 -93t130 -38q102 0 177 33q35 14 54 34.5t23.5 34t8.5 40.5l24 151q-199 -8 -320.5 -51t-133.5 -111z" />
<glyph unicode="&#x106;" d="M182 627q45 274 224.5 460.5t381.5 186.5q137 0 240 -88q25 43 27 45q39 43 78 43q76 0 59 -98l-47 -277q-4 -25 -8 -38t-14.5 -29.5t-30 -23.5t-50.5 -7q-33 0 -50 12t-19 25.5t-2 40.5q0 113 -57.5 177t-145.5 64q-131 0 -256 -142t-160 -351q-35 -211 42 -353.5 t212 -142.5q80 0 165 53.5t114 175.5q18 72 96 72q20 0 34.5 -2t30 -21.5t9.5 -56.5q-25 -145 -166 -260t-318 -115q-203 0 -318.5 187t-70.5 463zM612 1473q6 49 72 73l283 119l47 12q37 0 57.5 -24.5t13.5 -61.5q-8 -53 -77 -84l-285 -118q-27 -10 -45 -11q-41 0 -56.5 35 t-9.5 60z" />
<glyph unicode="&#x107;" d="M217 446q12 74 51 151t104.5 148.5t171 117.5t230.5 46q39 0 71 -2t79 -10t76.5 -24.5t49 -48t11.5 -76.5q-8 -49 -44 -78t-81 -29q-98 0 -84 113l-102 2q-90 0 -161 -34t-111 -87t-61.5 -100.5t-29.5 -88.5q-20 -127 53.5 -216t194.5 -89q135 0 201 111q18 35 37.5 44 t52.5 9q14 0 29.5 -2t33 -20.5t10.5 -49.5q-4 -18 -26.5 -54t-66.5 -81t-126 -77.5t-184 -32.5q-193 0 -301.5 135t-77.5 323zM549 1096q8 49 72 73l284 119l47 12q37 0 57.5 -24.5t14.5 -61.5q-8 -55 -80 -84l-285 -118q-25 -10 -45 -11q-29 0 -45 20.5t-19 40.5t-1 34z " />
<glyph unicode="&#x108;" d="M182 627q45 274 224.5 460.5t381.5 186.5q137 0 240 -88q25 43 27 45q39 43 78 43q76 0 59 -98l-47 -277q-4 -25 -8 -38t-14.5 -29.5t-30 -23.5t-50.5 -7q-33 0 -50 12t-19 25.5t-2 40.5q0 113 -57.5 177t-145.5 64q-131 0 -256 -142t-160 -351q-35 -211 42 -353.5 t212 -142.5q80 0 165 53.5t114 175.5q18 72 96 72q20 0 34.5 -2t30 -21.5t9.5 -56.5q-25 -145 -166 -260t-318 -115q-203 0 -318.5 187t-70.5 463zM524 1438q6 47 129 88l170 57q35 12 66 0l149 -57q53 -23 79 -41.5t22 -46.5q-6 -33 -27.5 -56.5t-60.5 -23.5q-16 0 -95 24 l-127 41l-143 -41q-86 -25 -102 -24q-72 0 -60 80z" />
<glyph unicode="&#x109;" d="M217 446q12 74 51 151t104.5 148.5t171 117.5t230.5 46q39 0 71 -2t79 -10t76.5 -24.5t49 -48t11.5 -76.5q-8 -49 -44 -78t-81 -29q-98 0 -84 113l-102 2q-90 0 -161 -34t-111 -87t-61.5 -100.5t-29.5 -88.5q-20 -127 53.5 -216t194.5 -89q135 0 201 111q18 35 37.5 44 t52.5 9q14 0 29.5 -2t33 -20.5t10.5 -49.5q-4 -18 -26.5 -54t-66.5 -81t-126 -77.5t-184 -32.5q-193 0 -301.5 135t-77.5 323zM461 1065q2 23 18.5 42t30.5 28.5t59 35.5l205 119q37 23 66 0l164 -119q37 -27 48 -37t21 -28.5t6 -40.5q-16 -66 -94 -66q-20 0 -80 43l-125 86 l-153 -86q-74 -43 -97 -43q-41 0 -57 16.5t-12 49.5z" />
<glyph unicode="&#x10a;" d="M182 627q45 274 224.5 460.5t381.5 186.5q137 0 240 -88q25 43 27 45q39 43 78 43q76 0 59 -98l-47 -277q-4 -25 -8 -38t-14.5 -29.5t-30 -23.5t-50.5 -7q-33 0 -50 12t-19 25.5t-2 40.5q0 113 -57.5 177t-145.5 64q-131 0 -256 -142t-160 -351q-35 -211 42 -353.5 t212 -142.5q80 0 165 53.5t114 175.5q18 72 96 72q20 0 34.5 -2t30 -21.5t9.5 -56.5q-25 -145 -166 -260t-318 -115q-203 0 -318.5 187t-70.5 463zM725 1497q8 47 47 81t88 34t78 -34t20 -81q-8 -49 -48 -83t-89 -34t-76.5 34t-19.5 83z" />
<glyph unicode="&#x10b;" d="M217 446q12 74 51 151t104.5 148.5t171 117.5t230.5 46q39 0 71 -2t79 -10t76.5 -24.5t49 -48t11.5 -76.5q-8 -49 -44 -78t-81 -29q-98 0 -84 113l-102 2q-90 0 -161 -34t-111 -87t-61.5 -100.5t-29.5 -88.5q-20 -127 53.5 -216t194.5 -89q135 0 201 111q18 35 37.5 44 t52.5 9q14 0 29.5 -2t33 -20.5t10.5 -49.5q-4 -18 -26.5 -54t-66.5 -81t-126 -77.5t-184 -32.5q-193 0 -301.5 135t-77.5 323zM670 1153q8 47 47 81t88 34t77.5 -34t20.5 -81q-10 -49 -49 -83t-88 -34t-76.5 34t-19.5 83z" />
<glyph unicode="&#x10c;" d="M182 627q45 274 224.5 460.5t381.5 186.5q137 0 240 -88q25 43 27 45q39 43 78 43q76 0 59 -98l-47 -277q-4 -25 -8 -38t-14.5 -29.5t-30 -23.5t-50.5 -7q-33 0 -50 12t-19 25.5t-2 40.5q0 113 -57.5 177t-145.5 64q-131 0 -256 -142t-160 -351q-35 -211 42 -353.5 t212 -142.5q80 0 165 53.5t114 175.5q18 72 96 72q20 0 34.5 -2t30 -21.5t9.5 -56.5q-25 -145 -166 -260t-318 -115q-203 0 -318.5 187t-70.5 463zM537 1511q6 33 26.5 56.5t59.5 23.5q16 0 94 -24l129 -41l141 41q86 25 103 24q74 0 61 -80q-6 -47 -129 -88l-170 -57 q-35 -12 -66 0l-149 57q-53 23 -78.5 41t-21.5 47z" />
<glyph unicode="&#x10d;" d="M217 446q12 74 51 151t104.5 148.5t171 117.5t230.5 46q39 0 71 -2t79 -10t76.5 -24.5t49 -48t11.5 -76.5q-8 -49 -44 -78t-81 -29q-98 0 -84 113l-102 2q-90 0 -161 -34t-111 -87t-61.5 -100.5t-29.5 -88.5q-20 -127 53.5 -216t194.5 -89q135 0 201 111q18 35 37.5 44 t52.5 9q14 0 29.5 -2t33 -20.5t10.5 -49.5q-4 -18 -26.5 -54t-66.5 -81t-126 -77.5t-184 -32.5q-193 0 -301.5 135t-77.5 323zM489 1237q12 66 93 66q20 0 80 -43l124 -86l154 86q80 43 96 43q41 0 58.5 -16.5t13.5 -49.5q-2 -23 -19.5 -42t-32 -28.5t-59.5 -36.5l-204 -118 q-37 -23 -66 0l-164 118q-37 27 -48 37.5t-20.5 28.5t-5.5 41z" />
<glyph unicode="&#x10e;" d="M47 76q12 78 113 78h28l156 944h-29q-27 0 -43 3t-31.5 20.5t-9.5 52.5q12 78 111 77h412q131 0 221 -90t121.5 -234.5t3.5 -310.5q-43 -254 -201 -435t-354 -181h-412q-27 0 -43 3t-32.5 20.5t-10.5 52.5zM352 1511q6 33 26.5 56.5t59.5 23.5q16 0 94 -24l130 -41 l141 41q86 25 102 24q74 0 62 -80q-6 -47 -129 -88l-170 -57q-35 -12 -66 0l-149 57q-53 23 -79 41t-22 47zM358 154h177q150 0 258 139t139 323q14 117 2 224.5t-76.5 182.5t-167.5 75h-176z" />
<glyph unicode="&#x10f;" d="M143 444q33 195 182.5 327t321.5 132q121 0 205 -72l43 267h-74q-25 0 -41 3t-31.5 20.5t-9.5 52.5q12 78 111 77h145q59 0 74.5 -20.5t5.5 -77.5l-166 -999h74q25 0 41 -3.5t31.5 -20.5t9.5 -52q-12 -78 -111 -78h-145q-57 0 -71.5 17.5t-10.5 62.5q-121 -92 -252 -92 q-166 0 -265.5 133t-66.5 323zM311 444q-20 -125 37.5 -214t159.5 -89q98 0 176 86t94 176l23 142q14 80 -37 142.5t-137 62.5q-104 0 -198.5 -87.5t-117.5 -218.5zM1110 889q8 39 64 57q70 20 106 86h-6q-45 0 -72.5 32t-19.5 81q8 43 44 74.5t87 31.5q57 0 91 -45t21 -119 q-20 -117 -113 -189.5t-149 -72.5q-25 0 -41 20.5t-12 43.5z" />
<glyph unicode="&#x110;" d="M47 76q12 78 113 78h28l66 395h-41q-33 0 -52.5 22.5t-13 55t32 55.5t58.5 23h41l65 393h-29q-27 0 -43 3t-31.5 20.5t-9.5 52.5q12 78 111 77h412q131 0 221 -90t121.5 -234.5t3.5 -310.5q-43 -254 -201 -435t-354 -181h-412q-27 0 -43 3t-32.5 20.5t-10.5 52.5z M358 154h177q150 0 258 139t139 323q14 117 2 224.5t-76.5 182.5t-167.5 75h-176l-65 -393h102q33 0 52.5 -23t13 -55.5t-32 -55t-58.5 -22.5h-102z" />
<glyph unicode="&#x111;" d="M143 444q33 195 182.5 327t321.5 132q121 0 205 -72l16 97h-278q-35 0 -54.5 17.5t-13.5 47.5q10 66 88 66h279l6 39h-74q-25 0 -41 3t-31.5 20.5t-9.5 52.5q12 78 111 77h145q59 0 74.5 -20.5t5.5 -77.5l-16 -94h84q33 0 52 -17.5t15 -48.5q-12 -66 -88 -65h-84 l-129 -774h74q25 0 41 -3.5t31.5 -20.5t9.5 -52q-12 -78 -111 -78h-145q-57 0 -71.5 17.5t-10.5 62.5q-121 -92 -252 -92q-166 0 -265.5 133t-66.5 323zM311 444q-20 -125 37.5 -214t159.5 -89q98 0 176 86t94 176l23 142q14 80 -37 142.5t-137 62.5q-104 0 -198.5 -87.5 t-117.5 -218.5z" />
<glyph unicode="&#x112;" d="M61 76q12 78 113 78h43l156 944h-43q-27 0 -43.5 3t-31.5 21.5t-9 53.5q12 76 110 75h746q57 0 72.5 -20.5t5.5 -77.5l-25 -145q-6 -33 -11 -48.5t-27.5 -33t-63.5 -17.5q-39 0 -56.5 15.5t-15.5 37t4 46.5l14 90h-456l-62 -373h230q14 68 32.5 90.5t71.5 22.5 q39 0 56.5 -15.5t15.5 -36t-4 -45.5l-31 -186q-6 -31 -11 -48.5t-27.5 -33.5t-61.5 -16q-53 0 -65.5 25.5t-0.5 88.5h-229l-70 -417h502l18 120q4 25 8.5 38.5t14.5 29.5t29.5 23.5t50.5 7.5q39 0 56 -15.5t15 -37t-4 -46.5l-28 -176q-10 -59 -33 -78.5t-80 -19.5h-789 q-27 0 -43 3t-32.5 20.5t-10.5 52.5zM391 1479q12 78 111 77h594q29 0 44 -3t29.5 -21.5t8.5 -54.5q-12 -78 -109 -78h-592q-29 0 -45 3t-31.5 21.5t-9.5 55.5z" />
<glyph unicode="&#x113;" d="M182 449q31 190 184.5 325t338.5 135q193 0 277.5 -126t51.5 -312q-6 -43 -25.5 -63.5t-36 -23.5t-48.5 -3h-576q8 -111 87 -175.5t186 -64.5q143 0 210 111q18 33 37 43t54 10q14 0 29.5 -2t32.5 -20.5t11 -49.5q-4 -25 -30.5 -61.5t-74.5 -79.5t-131 -73.5t-179 -30.5 q-199 0 -315 135.5t-83 325.5zM338 1153q12 78 108 78h594q29 0 45.5 -3t30.5 -21.5t8 -55.5q-14 -78 -110 -78h-592q-29 0 -45.5 3t-30.5 21.5t-8 55.5zM375 532h493q6 121 -49 172.5t-139 51.5q-94 0 -179 -63t-126 -161z" />
<glyph unicode="&#x114;" d="M61 76q12 78 113 78h43l156 944h-43q-27 0 -43.5 3t-31.5 21.5t-9 53.5q12 76 110 75h746q57 0 72.5 -20.5t5.5 -77.5l-25 -145q-6 -33 -11 -48.5t-27.5 -33t-63.5 -17.5q-39 0 -56.5 15.5t-15.5 37t4 46.5l14 90h-456l-62 -373h230q14 68 32.5 90.5t71.5 22.5 q39 0 56.5 -15.5t15.5 -36t-4 -45.5l-31 -186q-6 -31 -11 -48.5t-27.5 -33.5t-61.5 -16q-53 0 -65.5 25.5t-0.5 88.5h-229l-70 -417h502l18 120q4 25 8.5 38.5t14.5 29.5t29.5 23.5t50.5 7.5q39 0 56 -15.5t15 -37t-4 -46.5l-28 -176q-10 -59 -33 -78.5t-80 -19.5h-789 q-27 0 -43 3t-32.5 20.5t-10.5 52.5zM432 1559q14 78 90 77q63 0 64 -69q4 -29 208.5 -29t217.5 29q8 20 15 31.5t26.5 24.5t46.5 13q37 0 54 -20.5t11 -56.5q-10 -61 -52 -100.5t-108.5 -56t-116.5 -20.5t-120 -4t-118 4t-109.5 20.5t-90 56t-18.5 100.5z" />
<glyph unicode="&#x115;" d="M182 449q31 190 184.5 325t338.5 135q193 0 277.5 -126t51.5 -312q-6 -43 -25.5 -63.5t-36 -23.5t-48.5 -3h-576q8 -111 87 -175.5t186 -64.5q143 0 210 111q18 33 37 43t54 10q14 0 29.5 -2t32.5 -20.5t11 -49.5q-4 -25 -30.5 -61.5t-74.5 -79.5t-131 -73.5t-179 -30.5 q-199 0 -315 135.5t-83 325.5zM373 1202q14 78 90 78q63 0 63 -70q4 -29 209 -28.5t217 28.5q8 20 15.5 31.5t27 25t45.5 13.5q37 0 54.5 -20.5t11.5 -57.5q-10 -61 -52 -100t-108.5 -55.5t-117 -20.5t-120 -4t-117.5 4t-109.5 20.5t-90 55.5t-18.5 100zM375 532h493 q6 121 -49 172.5t-139 51.5q-94 0 -179 -63t-126 -161z" />
<glyph unicode="&#x116;" d="M61 76q12 78 113 78h43l156 944h-43q-27 0 -43.5 3t-31.5 21.5t-9 53.5q12 76 110 75h746q57 0 72.5 -20.5t5.5 -77.5l-25 -145q-6 -33 -11 -48.5t-27.5 -33t-63.5 -17.5q-39 0 -56.5 15.5t-15.5 37t4 46.5l14 90h-456l-62 -373h230q14 68 32.5 90.5t71.5 22.5 q39 0 56.5 -15.5t15.5 -36t-4 -45.5l-31 -186q-6 -31 -11 -48.5t-27.5 -33.5t-61.5 -16q-53 0 -65.5 25.5t-0.5 88.5h-229l-70 -417h502l18 120q4 25 8.5 38.5t14.5 29.5t29.5 23.5t50.5 7.5q39 0 56 -15.5t15 -37t-4 -46.5l-28 -176q-10 -59 -33 -78.5t-80 -19.5h-789 q-27 0 -43 3t-32.5 20.5t-10.5 52.5zM672 1497q8 47 47 81t88 34t77.5 -34t20.5 -81q-8 -49 -48 -83t-89 -34t-76.5 34t-19.5 83z" />
<glyph unicode="&#x117;" d="M182 449q31 190 184.5 325t338.5 135q193 0 277.5 -126t51.5 -312q-6 -43 -25.5 -63.5t-36 -23.5t-48.5 -3h-576q8 -111 87 -175.5t186 -64.5q143 0 210 111q18 33 37 43t54 10q14 0 29.5 -2t32.5 -20.5t11 -49.5q-4 -25 -30.5 -61.5t-74.5 -79.5t-131 -73.5t-179 -30.5 q-199 0 -315 135.5t-83 325.5zM375 532h493q6 121 -49 172.5t-139 51.5q-94 0 -179 -63t-126 -161zM614 1153q8 47 47 81t88.5 34t78 -34t20.5 -81q-10 -49 -49 -83t-88 -34t-77 34t-20 83z" />
<glyph unicode="&#x118;" d="M61 76q12 78 113 78h43l156 944h-43q-27 0 -43.5 3t-31.5 21.5t-9 53.5q12 76 110 75h746q57 0 72.5 -20.5t5.5 -77.5l-25 -145q-6 -33 -11 -48.5t-27.5 -33t-63.5 -17.5q-39 0 -56.5 15.5t-15.5 37t4 46.5l14 90h-456l-62 -373h230q14 68 32.5 90.5t71.5 22.5 q39 0 56.5 -15.5t15.5 -36t-4 -45.5l-31 -186q-6 -31 -11 -48.5t-27.5 -33.5t-61.5 -16q-53 0 -65.5 25.5t-0.5 88.5h-229l-70 -417h502l18 120q4 25 8.5 38.5t14.5 29.5t29.5 23.5t50.5 7.5q39 0 56 -15.5t15 -37t-4 -46.5l-28 -176q-10 -59 -33 -78.5t-80 -19.5h-94 q-76 -41 -110 -89t-46 -114q-4 -27 16.5 -45t45.5 -18q23 0 45 16l27 25q13 12 26 21l23 18q11 8 20.5 13t17.5 7t16.5 1t15.5 -6t13 -13q14 -20 14.5 -50t-16.5 -47q-115 -125 -233 -125q-96 0 -144.5 65t-33.5 142q16 115 129 199h-521q-27 0 -43 3t-32.5 20.5t-10.5 52.5 z" />
<glyph unicode="&#x119;" d="M182 449q31 190 184.5 325t338.5 135q193 0 277.5 -126t51.5 -312q-6 -43 -25.5 -63.5t-36 -23.5t-48.5 -3h-576q8 -111 87 -175.5t186 -64.5q143 0 210 111q18 33 37 43t54 10q14 0 29.5 -2t32.5 -20.5t11 -49.5q-6 -47 -93 -130t-218 -109q-129 -39 -158 -197 q-4 -27 16.5 -45t45.5 -18q23 0 45 16q39 35 55.5 48.5t41 27.5t37.5 10t26 -20q14 -23 13 -51.5t-18 -45.5q-111 -125 -231 -125q-96 0 -144 65t-34 142q20 123 119 195q-164 29 -254.5 157t-61.5 296zM375 532h493q6 121 -49 172.5t-139 51.5q-94 0 -179 -63t-126 -161z " />
<glyph unicode="&#x11a;" d="M61 76q12 78 113 78h43l156 944h-43q-27 0 -43.5 3t-31.5 21.5t-9 53.5q12 76 110 75h746q57 0 72.5 -20.5t5.5 -77.5l-25 -145q-6 -33 -11 -48.5t-27.5 -33t-63.5 -17.5q-39 0 -56.5 15.5t-15.5 37t4 46.5l14 90h-456l-62 -373h230q14 68 32.5 90.5t71.5 22.5 q39 0 56.5 -15.5t15.5 -36t-4 -45.5l-31 -186q-6 -31 -11 -48.5t-27.5 -33.5t-61.5 -16q-53 0 -65.5 25.5t-0.5 88.5h-229l-70 -417h502l18 120q4 25 8.5 38.5t14.5 29.5t29.5 23.5t50.5 7.5q39 0 56 -15.5t15 -37t-4 -46.5l-28 -176q-10 -59 -33 -78.5t-80 -19.5h-789 q-27 0 -43 3t-32.5 20.5t-10.5 52.5zM481 1511q14 80 86 80q16 0 95 -24l129 -41l141 41q86 25 102 24q39 0 53.5 -23.5t8.5 -56.5q-6 -47 -129 -88l-170 -57q-35 -12 -66 0l-149 57q-53 23 -79 41t-22 47z" />
<glyph unicode="&#x11b;" d="M182 449q31 190 184.5 325t338.5 135q193 0 277.5 -126t51.5 -312q-6 -43 -25.5 -63.5t-36 -23.5t-48.5 -3h-576q8 -111 87 -175.5t186 -64.5q143 0 210 111q18 33 37 43t54 10q14 0 29.5 -2t32.5 -20.5t11 -49.5q-4 -25 -30.5 -61.5t-74.5 -79.5t-131 -73.5t-179 -30.5 q-199 0 -315 135.5t-83 325.5zM375 532h493q6 121 -49 172.5t-139 51.5q-94 0 -179 -63t-126 -161zM434 1237q12 66 92 66q20 0 80 -43l125 -86l154 86q80 43 96 43q41 0 58.5 -16.5t13.5 -49.5q-2 -23 -19.5 -42t-32 -28.5t-59.5 -36.5l-205 -118q-37 -23 -65 0l-164 118 q-37 27 -48 37.5t-20.5 28.5t-5.5 41z" />
<glyph unicode="&#x11c;" d="M178 627q45 274 213 460.5t357 186.5q127 0 213 -80q31 47 51 63.5t51 16.5q76 0 59 -98l-47 -277q-4 -25 -8 -38t-14.5 -29.5t-29.5 -23.5t-50 -7q-43 0 -57.5 17.5t-14.5 53.5q2 135 -52 191.5t-120 56.5q-117 0 -231.5 -141t-149.5 -354q-35 -207 30.5 -350.5 t184.5 -143.5q78 0 146.5 71.5t109.5 215.5h-65q-27 0 -43.5 3t-31.5 21.5t-9 53.5q12 76 110 75h238q25 0 42 -3t32.5 -21.5t9.5 -50.5q-12 -78 -107 -78l-53 -320q-6 -31 -11 -48t-27.5 -33.5t-61.5 -16.5q-78 0 -74 63q-106 -86 -238 -86q-186 0 -292.5 187t-59.5 463z M469 1438q6 47 129 88l170 57q35 12 66 0l149 -57q53 -23 78.5 -41.5t21.5 -46.5q-14 -80 -88 -80q-16 0 -94 24l-127 41l-143 -41q-86 -25 -103 -24q-39 0 -52 23.5t-7 56.5z" />
<glyph unicode="&#x11d;" d="M31 -147q29 160 184 251q-29 59 -16 140q14 80 59 135q-47 78 -31 190q23 135 140.5 234.5t263.5 99.5q102 0 182 -55q109 66 223 65q82 0 116 -38.5t26 -83.5q-6 -47 -41 -73t-72 -26q-23 0 -47.5 16.5t-30.5 51.5q-51 -10 -86 -25q33 -80 19 -166 q-23 -139 -140.5 -238.5t-261.5 -99.5q-94 0 -164 43q-10 -25 -10 -32v-25q2 -23 10 -37q16 -25 49 -27.5t58 1.5h141q184 0 287 -60q66 -39 90.5 -106.5t13.5 -134.5q-20 -131 -175.5 -220.5t-356.5 -89.5q-203 0 -328 88.5t-102 221.5zM178 -147q-10 -63 79 -110.5 t228.5 -47.5t245 47t115.5 111q6 37 -4.5 65.5t-41 45t-60 25.5t-83 13t-84 5t-88.5 1q-111 0 -142.5 -4t-68.5 -24q-82 -45 -96 -127zM332 1069q2 23 18.5 42t30.5 28.5t59 36.5l205 118q37 23 66 0l163 -118q37 -27 48.5 -37.5t21.5 -28.5t6 -41q-16 -66 -94 -65 q-20 0 -80 43l-125 86l-153 -86q-74 -43 -97 -43q-41 0 -57 16t-12 49zM395 567q-12 -74 30 -129t115.5 -55t134 54.5t73.5 131.5q12 74 -30 128.5t-116 54.5q-72 0 -132.5 -53.5t-74.5 -131.5z" />
<glyph unicode="&#x11e;" d="M178 627q45 274 213 460.5t357 186.5q127 0 213 -80q31 47 51 63.5t51 16.5q76 0 59 -98l-47 -277q-4 -25 -8 -38t-14.5 -29.5t-29.5 -23.5t-50 -7q-43 0 -57.5 17.5t-14.5 53.5q2 135 -52 191.5t-120 56.5q-117 0 -231.5 -141t-149.5 -354q-35 -207 30.5 -350.5 t184.5 -143.5q78 0 146.5 71.5t109.5 215.5h-65q-27 0 -43.5 3t-31.5 21.5t-9 53.5q12 76 110 75h238q25 0 42 -3t32.5 -21.5t9.5 -50.5q-12 -78 -107 -78l-53 -320q-6 -31 -11 -48t-27.5 -33.5t-61.5 -16.5q-78 0 -74 63q-106 -86 -238 -86q-186 0 -292.5 187t-59.5 463z M432 1559q14 78 90 77q63 0 64 -69q4 -29 208.5 -29t217.5 29q8 20 15 31.5t26.5 24.5t46.5 13q37 0 54 -20.5t11 -56.5q-10 -61 -52 -100.5t-108.5 -56t-116.5 -20.5t-120 -4t-118 4t-109.5 20.5t-90 56t-18.5 100.5z" />
<glyph unicode="&#x11f;" d="M31 -147q29 160 184 251q-29 59 -16 140q14 80 59 135q-47 78 -31 190q23 135 140.5 234.5t263.5 99.5q102 0 182 -55q109 66 223 65q82 0 116 -38.5t26 -83.5q-6 -47 -41 -73t-72 -26q-23 0 -47.5 16.5t-30.5 51.5q-51 -10 -86 -25q33 -80 19 -166 q-23 -139 -140.5 -238.5t-261.5 -99.5q-94 0 -164 43q-10 -25 -10 -32v-25q2 -23 10 -37q16 -25 49 -27.5t58 1.5h141q184 0 287 -60q66 -39 90.5 -106.5t13.5 -134.5q-20 -131 -175.5 -220.5t-356.5 -89.5q-203 0 -328 88.5t-102 221.5zM178 -147q-10 -63 79 -110.5 t228.5 -47.5t245 47t115.5 111q6 37 -4.5 65.5t-41 45t-60 25.5t-83 13t-84 5t-88.5 1q-111 0 -142.5 -4t-68.5 -24q-82 -45 -96 -127zM299 1206q14 78 90 78q63 0 64 -70q4 -29 208.5 -28.5t217.5 28.5q8 20 15 31.5t26.5 25t46.5 13.5q37 0 54 -20.5t11 -57.5 q-10 -61 -52 -100t-108.5 -55.5t-116.5 -20.5t-120 -4t-118 4t-109.5 20.5t-90 55.5t-18.5 100zM395 567q-12 -74 30 -129t115.5 -55t134 54.5t73.5 131.5q12 74 -30 128.5t-116 54.5q-72 0 -132.5 -53.5t-74.5 -131.5z" />
<glyph unicode="&#x120;" d="M178 627q45 274 213 460.5t357 186.5q127 0 213 -80q31 47 51 63.5t51 16.5q76 0 59 -98l-47 -277q-4 -25 -8 -38t-14.5 -29.5t-29.5 -23.5t-50 -7q-43 0 -57.5 17.5t-14.5 53.5q2 135 -52 191.5t-120 56.5q-117 0 -231.5 -141t-149.5 -354q-35 -207 30.5 -350.5 t184.5 -143.5q78 0 146.5 71.5t109.5 215.5h-65q-27 0 -43.5 3t-31.5 21.5t-9 53.5q12 76 110 75h238q25 0 42 -3t32.5 -21.5t9.5 -50.5q-12 -78 -107 -78l-53 -320q-6 -31 -11 -48t-27.5 -33.5t-61.5 -16.5q-78 0 -74 63q-106 -86 -238 -86q-186 0 -292.5 187t-59.5 463z M672 1497q8 47 47 81t88 34t77.5 -34t20.5 -81q-8 -49 -48 -83t-89 -34t-76.5 34t-19.5 83z" />
<glyph unicode="&#x121;" d="M31 -147q29 160 184 251q-29 59 -16 140q14 80 59 135q-47 78 -31 190q23 135 140.5 234.5t263.5 99.5q102 0 182 -55q109 66 223 65q82 0 116 -38.5t26 -83.5q-6 -47 -41 -73t-72 -26q-23 0 -47.5 16.5t-30.5 51.5q-51 -10 -86 -25q33 -80 19 -166 q-23 -139 -140.5 -238.5t-261.5 -99.5q-94 0 -164 43q-10 -25 -10 -32v-25q2 -23 10 -37q16 -25 49 -27.5t58 1.5h141q184 0 287 -60q66 -39 90.5 -106.5t13.5 -134.5q-20 -131 -175.5 -220.5t-356.5 -89.5q-203 0 -328 88.5t-102 221.5zM178 -147q-10 -63 79 -110.5 t228.5 -47.5t245 47t115.5 111q6 37 -4.5 65.5t-41 45t-60 25.5t-83 13t-84 5t-88.5 1q-111 0 -142.5 -4t-68.5 -24q-82 -45 -96 -127zM395 567q-12 -74 30 -129t115.5 -55t134 54.5t73.5 131.5q12 74 -30 128.5t-116 54.5q-72 0 -132.5 -53.5t-74.5 -131.5zM541 1157 q8 47 47 81t88 34t77.5 -34t20.5 -81q-10 -49 -49 -83t-88 -34t-76.5 34t-19.5 83z" />
<glyph unicode="&#x122;" d="M178 627q45 274 213 460.5t357 186.5q127 0 213 -80q31 47 51 63.5t51 16.5q76 0 59 -98l-47 -277q-4 -25 -8 -38t-14.5 -29.5t-29.5 -23.5t-50 -7q-43 0 -57.5 17.5t-14.5 53.5q2 135 -52 191.5t-120 56.5q-117 0 -231.5 -141t-149.5 -354q-35 -207 30.5 -350.5 t184.5 -143.5q78 0 146.5 71.5t109.5 215.5h-65q-27 0 -43.5 3t-31.5 21.5t-9 53.5q12 76 110 75h238q25 0 42 -3t32.5 -21.5t9.5 -50.5q-12 -78 -107 -78l-53 -320q-6 -31 -11 -48t-27.5 -33.5t-61.5 -16.5q-78 0 -74 63q-106 -86 -238 -86q-186 0 -292.5 187t-59.5 463z M332 -397q6 39 61 57q70 16 107 86h-6q-45 0 -73 32t-20 81q8 43 44 74.5t87 31.5q57 0 91 -45t22 -119q-20 -117 -113.5 -189.5t-148.5 -72.5q-25 0 -40 20.5t-11 43.5z" />
<glyph unicode="&#x123;" d="M31 -147q29 160 184 251q-29 59 -16 140q14 80 59 135q-47 78 -31 190q23 135 140.5 234.5t263.5 99.5q102 0 182 -55q109 66 223 65q82 0 116 -38.5t26 -83.5q-6 -47 -41 -73t-72 -26q-23 0 -47.5 16.5t-30.5 51.5q-51 -10 -86 -25q33 -80 19 -166 q-23 -139 -140.5 -238.5t-261.5 -99.5q-94 0 -164 43q-10 -25 -10 -32v-25q2 -23 10 -37q16 -25 49 -27.5t58 1.5h141q184 0 287 -60q66 -39 90.5 -106.5t13.5 -134.5q-20 -131 -175.5 -220.5t-356.5 -89.5q-203 0 -328 88.5t-102 221.5zM178 -147q-10 -63 79 -110.5 t228.5 -47.5t245 47t115.5 111q6 37 -4.5 65.5t-41 45t-60 25.5t-83 13t-84 5t-88.5 1q-111 0 -142.5 -4t-68.5 -24q-82 -45 -96 -127zM395 567q-12 -74 30 -129t115.5 -55t134 54.5t73.5 131.5q12 74 -30 128.5t-116 54.5q-72 0 -132.5 -53.5t-74.5 -131.5zM508 1110 q20 117 113.5 189.5t148.5 72.5q25 0 41 -20.5t12 -42.5q-8 -39 -63 -58q-70 -20 -107 -86h6q45 0 73 -31.5t20 -80.5q-8 -43 -44 -75t-87 -32q-57 0 -91 45t-22 119z" />
<glyph unicode="&#x124;" d="M53 76q12 78 111 78h35l155 944h-35q-27 0 -42 3t-30.5 20.5t-8.5 52.5q12 78 108 77h238q27 0 43 -3t31.5 -21.5t9.5 -52.5q-12 -76 -111 -76h-33l-61 -371h389l61 371h-32q-27 0 -43.5 3t-30.5 21.5t-8 53.5q12 76 108 75h238q27 0 43 -3t31.5 -21.5t9.5 -52.5 q-12 -76 -111 -76h-35l-155 -944h35q27 0 43 -3.5t30.5 -21.5t7.5 -53q-12 -76 -108 -76h-238q-27 0 -43 3t-31.5 21.5t-9.5 53.5q12 76 111 76h33l69 419h-389l-69 -419h32q27 0 43.5 -3.5t30.5 -21.5t8 -53q-12 -76 -108 -76h-238q-27 0 -43 3t-31.5 20.5t-9.5 52.5z M469 1438q6 47 129 88l170 57q35 12 66 0l149 -57q53 -23 78.5 -41.5t21.5 -46.5q-14 -80 -88 -80q-16 0 -94 24l-127 41l-143 -41q-86 -25 -103 -24q-39 0 -52 23.5t-7 56.5z" />
<glyph unicode="&#x125;" d="M35 76q12 78 110 78h72l156 944h-74q-25 0 -40 3t-30.5 21.5t-9.5 51.5q12 78 109 77h145q59 0 74.5 -20.5t5.5 -77.5l-55 -336q123 86 260 86q274 0 225 -303l-74 -446h72q27 0 43 -3.5t30.5 -21.5t8.5 -53q-12 -76 -107 -76h-305q-25 0 -42 3t-33.5 21.5t-10.5 51.5 q12 78 113 78h61l72 436q14 86 -4.5 123t-87.5 37q-86 0 -171 -66t-106 -192l-55 -338h72q27 0 43 -3.5t31.5 -21.5t9.5 -53q-12 -76 -109 -76h-317q-16 0 -28.5 2t-29 8t-22.5 22.5t-2 43.5zM469 1438q6 47 129 88l170 57q35 12 66 0l149 -57q53 -23 78.5 -41.5t21.5 -46.5 q-14 -80 -88 -80q-16 0 -94 24l-127 41l-143 -41q-86 -25 -103 -24q-39 0 -52 23.5t-7 56.5z" />
<glyph unicode="&#x126;" d="M53 76q12 78 111 78h35l114 698h-45q-33 0 -51 22.5t-12 55.5q4 33 30.5 55.5t59.5 22.5h45l14 90h-35q-27 0 -42 3t-30.5 20.5t-8.5 52.5q12 78 108 77h238q27 0 43 -3t31.5 -21.5t9.5 -52.5q-12 -76 -111 -76h-33l-14 -90h389l14 90h-32q-27 0 -43.5 3t-30.5 21.5 t-8 53.5q12 76 108 75h238q27 0 43 -3t31.5 -21.5t9.5 -52.5q-12 -76 -111 -76h-35l-14 -90h45q33 0 51.5 -22.5t14.5 -55.5q-6 -33 -33 -55.5t-60 -22.5h-45l-114 -698h35q27 0 43 -3.5t30.5 -21.5t7.5 -53q-12 -76 -108 -76h-238q-27 0 -43 3t-31.5 21.5t-9.5 53.5 q12 76 111 76h33l69 419h-389l-69 -419h32q27 0 43.5 -3.5t30.5 -21.5t8 -53q-12 -76 -108 -76h-238q-27 0 -43 3t-31.5 20.5t-9.5 52.5zM463 727h389l20 125h-389z" />
<glyph unicode="&#x127;" d="M35 76q12 78 110 78h72l129 774h-84q-33 0 -53.5 17.5t-13.5 47.5q4 31 29.5 48.5t58.5 17.5h84l6 39h-74q-25 0 -40 3t-30.5 21.5t-9.5 51.5q12 78 109 77h145q59 0 74.5 -20.5t5.5 -77.5l-16 -94h178q33 0 52 -17.5t15 -48.5q-12 -66 -88 -65h-178l-18 -111 q123 86 260 86q274 0 225 -303l-74 -446h72q27 0 43 -3.5t30.5 -21.5t8.5 -53q-12 -76 -107 -76h-305q-25 0 -42 3t-33.5 21.5t-10.5 51.5q12 78 113 78h61l72 436q14 86 -4.5 123t-87.5 37q-86 0 -171 -66t-106 -192l-55 -338h72q27 0 43 -3.5t31.5 -21.5t9.5 -53 q-12 -76 -109 -76h-317q-16 0 -28.5 2t-29 8t-22.5 22.5t-2 43.5z" />
<glyph unicode="&#x128;" d="M168 78q12 76 113 76h198l156 944h-199q-27 0 -43 3t-31.5 21.5t-9.5 53.5q12 76 111 75h567q27 0 43.5 -3t32.5 -21.5t10 -52.5q-12 -76 -112 -76h-199l-156 -944h199q27 0 43 -3.5t31.5 -21.5t9.5 -53q-12 -76 -111 -76h-567q-27 0 -43 3t-32.5 21.5t-10.5 53.5z M414 1438q6 47 125 123q100 70 176 69q68 0 133 -71q35 -39 45 -39q35 0 141 84q33 27 63.5 26.5t49 -25t14.5 -55.5q-8 -47 -125 -123q-106 -70 -175.5 -69.5t-133.5 74.5q-33 37 -45 36q-39 0 -141 -84q-39 -27 -64 -26q-31 0 -49 24.5t-14 55.5z" />
<glyph unicode="&#x129;" d="M166 76q12 78 113 78h225l96 585h-209q-18 0 -30.5 2t-29 8.5t-22.5 24t-2 43.5q10 76 111 76h282q59 0 75 -20.5t5 -77.5l-106 -641h192q27 0 43.5 -3.5t31.5 -21.5t9 -53q-12 -76 -110 -76h-588q-27 0 -43 3t-32.5 20.5t-10.5 52.5zM352 1069q6 47 125 123 q100 70 176 70q68 0 133 -72q35 -39 45 -39q33 0 144 84q35 27 61 27q31 0 49.5 -25t14.5 -55q-8 -47 -125 -123q-106 -70 -174 -70q-76 0 -133 74q-37 37 -45 37q-41 0 -144 -84q-35 -27 -61 -27q-31 0 -50.5 25.5t-15.5 54.5z" />
<glyph unicode="&#x12a;" d="M168 78q12 76 113 76h198l156 944h-199q-27 0 -43 3t-31.5 21.5t-9.5 53.5q12 76 111 75h567q27 0 43.5 -3t32.5 -21.5t10 -52.5q-12 -76 -112 -76h-199l-156 -944h199q27 0 43 -3.5t31.5 -21.5t9.5 -53q-12 -76 -111 -76h-567q-27 0 -43 3t-32.5 21.5t-10.5 53.5z M391 1479q12 78 111 77h594q29 0 44 -3t29.5 -21.5t8.5 -54.5q-12 -78 -109 -78h-592q-29 0 -45 3t-31.5 21.5t-9.5 55.5z" />
<glyph unicode="&#x12b;" d="M166 76q12 78 113 78h225l96 585h-209q-18 0 -30.5 2t-29 8.5t-22.5 24t-2 43.5q10 76 111 76h282q59 0 75 -20.5t5 -77.5l-106 -641h192q27 0 43.5 -3.5t31.5 -21.5t9 -53q-12 -76 -110 -76h-588q-27 0 -43 3t-32.5 20.5t-10.5 52.5zM334 1126q12 78 108 78h594 q29 0 45.5 -3t30.5 -21.5t8 -55.5q-14 -78 -110 -77h-592q-29 0 -45.5 3t-30.5 21t-8 55z" />
<glyph unicode="&#x12c;" d="M168 78q12 76 113 76h198l156 944h-199q-27 0 -43 3t-31.5 21.5t-9.5 53.5q12 76 111 75h567q27 0 43.5 -3t32.5 -21.5t10 -52.5q-12 -76 -112 -76h-199l-156 -944h199q27 0 43 -3.5t31.5 -21.5t9.5 -53q-12 -76 -111 -76h-567q-27 0 -43 3t-32.5 21.5t-10.5 53.5z M432 1559q14 78 90 77q63 0 64 -69q4 -29 208.5 -29t217.5 29q8 20 15 31.5t26.5 24.5t46.5 13q37 0 54 -20.5t11 -56.5q-10 -61 -52 -100.5t-108.5 -56t-116.5 -20.5t-120 -4t-118 4t-109.5 20.5t-90 56t-18.5 100.5z" />
<glyph unicode="&#x12d;" d="M166 76q12 78 113 78h225l96 585h-209q-18 0 -30.5 2t-29 8.5t-22.5 24t-2 43.5q10 76 111 76h282q59 0 75 -20.5t5 -77.5l-106 -641h192q27 0 43.5 -3.5t31.5 -21.5t9 -53q-12 -76 -110 -76h-588q-27 0 -43 3t-32.5 20.5t-10.5 52.5zM369 1176q14 78 90 77q63 0 63 -69 q4 -29 209 -29t217 29q8 20 15.5 31.5t27 24.5t45.5 13q37 0 54.5 -20.5t11.5 -56.5q-10 -61 -52 -100.5t-109 -55.5t-117 -20.5t-119.5 -4.5t-117.5 4.5t-109.5 20.5t-90 55.5t-18.5 100.5z" />
<glyph unicode="&#x12e;" d="M168 78q12 76 113 76h198l156 944h-199q-27 0 -43 3t-31.5 21.5t-9.5 53.5q12 76 111 75h567q27 0 43.5 -3t32.5 -21.5t10 -52.5q-12 -76 -112 -76h-199l-156 -944h199q27 0 43 -3.5t31.5 -21.5t9.5 -53q-12 -76 -111 -76h-231q-106 -57 -131 -203q-4 -27 16.5 -45 t44.5 -18q23 0 45 16q39 35 55.5 48.5t41 27.5t38 10t25.5 -20q14 -23 13 -51.5t-17 -45.5q-111 -125 -232 -125q-96 0 -145 65t-35 142q16 102 135 199h-190q-27 0 -43 3t-32.5 21.5t-10.5 53.5z" />
<glyph unicode="&#x12f;" d="M166 76q12 78 113 78h225l96 585h-209q-18 0 -30.5 2t-29 8.5t-22.5 24t-2 43.5q10 76 111 76h282q59 0 75 -20.5t5 -77.5l-106 -641h192q27 0 43.5 -3.5t31.5 -21.5t9 -53q-12 -76 -110 -76h-273q-109 -57 -133 -203q-4 -27 16.5 -45t45.5 -18q20 0 47 16q41 37 55 48.5 t39 26.5t38 11t25 -20q16 -20 15.5 -50t-17.5 -47q-115 -125 -233 -125q-96 0 -144.5 65t-33.5 142q16 102 131 199h-166q-27 0 -43 3t-32.5 20.5t-10.5 52.5zM604 1137q8 49 47 82.5t88 33.5t78 -33.5t21 -82.5q-10 -47 -49 -81t-88.5 -34t-77 34t-19.5 81z" />
<glyph unicode="&#x130;" d="M168 78q12 76 113 76h198l156 944h-199q-27 0 -43 3t-31.5 21.5t-9.5 53.5q12 76 111 75h567q27 0 43.5 -3t32.5 -21.5t10 -52.5q-12 -76 -112 -76h-199l-156 -944h199q27 0 43 -3.5t31.5 -21.5t9.5 -53q-12 -76 -111 -76h-567q-27 0 -43 3t-32.5 21.5t-10.5 53.5z M672 1497q8 47 47 81t88 34t77.5 -34t20.5 -81q-8 -49 -48 -83t-89 -34t-76.5 34t-19.5 83z" />
<glyph unicode="&#x131;" d="M166 76q12 78 113 78h225l96 585h-209q-18 0 -30.5 2t-29 8.5t-22.5 24t-2 43.5q10 76 111 76h282q59 0 75 -20.5t5 -77.5l-106 -641h192q27 0 43.5 -3.5t31.5 -21.5t9 -53q-12 -76 -110 -76h-588q-27 0 -43 3t-32.5 20.5t-10.5 52.5z" />
<glyph unicode="&#x134;" d="M174 213q10 53 46 82t79 29q45 0 70.5 -31t17.5 -74q-6 -33 -18 -49q47 -39 141 -39q23 0 46.5 4t61 18.5t66.5 51.5t39 90l133 803h-149q-25 0 -41.5 3t-32 21.5t-8.5 53.5q12 76 108 75h363q27 0 43 -3t32.5 -20.5t10.5 -51.5q-12 -78 -113 -78h-45l-135 -815 q-23 -137 -141.5 -221.5t-264.5 -84.5q-156 0 -240.5 67t-68.5 169zM643 1438q6 47 129 88l170 57q35 12 66 0l149 -57q53 -23 79 -41.5t21 -46.5q-6 -33 -27.5 -56.5t-60.5 -23.5q-16 0 -94 24l-127 41l-143 -41q-86 -25 -103 -24q-71 0 -59 80z" />
<glyph unicode="&#x135;" d="M43 -287q8 49 44 78t79 29q39 0 67.5 -29t20.5 -76l-2 -10q37 -6 90 -6q100 0 170 78q49 57 70 162l133 800h-244q-27 0 -43 3t-31.5 20.5t-9.5 52.5q12 78 113 78h315q59 0 74.5 -20.5t5.5 -77.5l-145 -867q-10 -57 -38 -117.5t-77 -123t-134 -102.5t-192 -40 q-37 0 -65.5 2t-73.5 11.5t-72.5 26t-45 50t-9.5 78.5zM516 1038q2 23 18.5 42.5t31 28.5l59.5 36l204 119q37 23 66 0l164 -119q37 -27 48 -37t21.5 -28.5t6.5 -41.5q-16 -66 -95 -65q-20 0 -79 43l-125 86l-154 -86q-74 -43 -96 -43q-41 0 -57.5 16t-12.5 49z" />
<glyph unicode="&#x136;" d="M61 78q12 76 113 76h29l155 944h-28q-27 0 -43.5 3t-31.5 21.5t-9 53.5q12 76 110 75h199q27 0 44 -3t32.5 -21.5t9.5 -52.5q-12 -76 -113 -76h-26l-78 -469l453 471q-66 8 -54 74q12 78 111 77h174q25 0 42 -3t33.5 -21.5t10.5 -50.5q-8 -49 -39 -63.5t-96 -14.5 l-354 -369l229 -575q55 0 79.5 -15.5t16.5 -62.5q-12 -76 -110 -76h-150q-27 0 -44 3t-32.5 21.5t-9.5 53.5q12 70 82 74l-178 456l-203 -211l-39 -243h27q27 0 43 -3.5t31.5 -21.5t9.5 -53q-12 -76 -111 -76h-199q-27 0 -44 3t-32.5 21.5t-9.5 53.5zM332 -397q6 39 61 57 q70 16 107 86h-6q-45 0 -73 32t-20 81q8 43 44 74.5t87 31.5q57 0 91 -45t22 -119q-20 -117 -113.5 -189.5t-148.5 -72.5q-25 0 -40 20.5t-11 43.5z" />
<glyph unicode="&#x137;" d="M51 78q12 76 111 76h82l155 944h-82q-27 0 -43 3t-30.5 21.5t-7.5 53.5q12 76 108 75h131q57 0 72.5 -20.5t5.5 -77.5l-111 -666l310 252h-35q-27 0 -42.5 3t-30.5 20.5t-9 52.5q14 78 108 78h308q25 0 42 -3t32.5 -21.5t9.5 -53.5q-12 -76 -111 -76h-63l-265 -217 l222 -368h55q27 0 43 -3.5t31.5 -21.5t9.5 -53q-12 -76 -111 -76h-235q-27 0 -43.5 3t-31.5 20.5t-9 52.5q8 45 32.5 60.5t77.5 17.5l-164 270l-163 -131l-23 -139h82q27 0 43 -3.5t30.5 -21.5t8.5 -53q-12 -76 -109 -76h-307q-27 0 -43 3t-31.5 21.5t-9.5 53.5zM332 -397 q6 39 61 57q70 16 107 86h-6q-45 0 -73 32t-20 81q8 43 44 74.5t87 31.5q57 0 91 -45t22 -119q-20 -117 -113.5 -189.5t-148.5 -72.5q-25 0 -40 20.5t-11 43.5z" />
<glyph unicode="&#x139;" d="M74 76q12 78 110 78h58l155 944h-57q-27 0 -42 3t-30.5 20.5t-9.5 52.5q12 78 109 77h323q25 0 41.5 -3t32.5 -21.5t10 -52.5q-12 -76 -110 -76h-97l-155 -944h448l19 120q6 27 9 38.5t13 28.5t29.5 24.5t50.5 7.5q39 0 56.5 -14.5t15.5 -36.5l-4 -48l-29 -176 q-10 -59 -31.5 -78.5t-81.5 -19.5h-749q-27 0 -43.5 3t-31.5 20.5t-9 52.5zM313 1473q6 49 72 73l283 119l47 12q37 0 57.5 -24.5t13.5 -61.5q-8 -53 -77 -84l-285 -118q-27 -10 -45 -11q-41 0 -56.5 35t-9.5 60z" />
<glyph unicode="&#x13a;" d="M125 76q12 78 113 78h241l156 944h-244q-25 0 -41 3t-31.5 20.5t-9.5 52.5q12 78 111 77h315q59 0 74.5 -20.5t5.5 -77.5l-166 -999h244q27 0 43 -3.5t30.5 -21.5t8.5 -53q-12 -76 -109 -76h-657q-25 0 -41 3t-32.5 20.5t-10.5 52.5zM557 1473q6 49 72 73l282 119l47 12 q37 0 57.5 -24.5t14.5 -61.5q-8 -53 -78 -84l-284 -118q-27 -10 -45 -11q-41 0 -56.5 35t-9.5 60z" />
<glyph unicode="&#x13b;" d="M74 76q12 78 110 78h58l155 944h-57q-27 0 -42 3t-30.5 20.5t-9.5 52.5q12 78 109 77h323q25 0 41.5 -3t32.5 -21.5t10 -52.5q-12 -76 -110 -76h-97l-155 -944h448l19 120q6 27 9 38.5t13 28.5t29.5 24.5t50.5 7.5q39 0 56.5 -14.5t15.5 -36.5l-4 -48l-29 -176 q-10 -59 -31.5 -78.5t-81.5 -19.5h-749q-27 0 -43.5 3t-31.5 20.5t-9 52.5zM332 -397q6 39 61 57q70 16 107 86h-6q-45 0 -73 32t-20 81q8 43 44 74.5t87 31.5q57 0 91 -45t22 -119q-20 -117 -113.5 -189.5t-148.5 -72.5q-25 0 -40 20.5t-11 43.5z" />
<glyph unicode="&#x13c;" d="M125 76q12 78 113 78h241l156 944h-244q-25 0 -41 3t-31.5 20.5t-9.5 52.5q12 78 111 77h315q59 0 74.5 -20.5t5.5 -77.5l-166 -999h244q27 0 43 -3.5t30.5 -21.5t8.5 -53q-12 -76 -109 -76h-657q-25 0 -41 3t-32.5 20.5t-10.5 52.5zM332 -397q6 39 61 57q70 16 107 86 h-6q-45 0 -73 32t-20 81q8 43 44 74.5t87 31.5q57 0 91 -45t22 -119q-20 -117 -113.5 -189.5t-148.5 -72.5q-25 0 -40 20.5t-11 43.5z" />
<glyph unicode="&#x13d;" d="M74 76q12 78 110 78h58l155 944h-57q-27 0 -42 3t-30.5 20.5t-9.5 52.5q12 78 109 77h323q25 0 41.5 -3t32.5 -21.5t10 -52.5q-12 -76 -110 -76h-97l-155 -944h448l19 120q6 27 9 38.5t13 28.5t29.5 24.5t50.5 7.5q39 0 56.5 -14.5t15.5 -36.5l-4 -48l-29 -176 q-10 -59 -31.5 -78.5t-81.5 -19.5h-749q-27 0 -43.5 3t-31.5 20.5t-9 52.5zM844 889q8 39 63 57q70 20 107 86h-6q-45 0 -73 32t-20 81q8 43 44 74.5t88 31.5q57 0 90.5 -45t21.5 -119q-20 -117 -113.5 -189.5t-148.5 -72.5q-25 0 -41 20.5t-12 43.5z" />
<glyph unicode="&#x13e;" d="M125 76q12 78 113 78h241l156 944h-244q-25 0 -41 3t-31.5 20.5t-9.5 52.5q12 78 111 77h315q59 0 74.5 -20.5t5.5 -77.5l-166 -999h244q27 0 43 -3.5t30.5 -21.5t8.5 -53q-12 -76 -109 -76h-657q-25 0 -41 3t-32.5 20.5t-10.5 52.5zM850 889q8 39 63 57q70 20 107 86h-6 q-45 0 -73 32t-19 81q8 43 43.5 74.5t87.5 31.5q57 0 91 -45t21 -119q-20 -117 -113.5 -189.5t-148.5 -72.5q-25 0 -41 20.5t-12 43.5z" />
<glyph unicode="&#x13f;" d="M74 76q12 78 110 78h58l155 944h-57q-27 0 -42 3t-30.5 20.5t-9.5 52.5q12 78 109 77h323q25 0 41.5 -3t32.5 -21.5t10 -52.5q-12 -76 -110 -76h-97l-155 -944h448l19 120q6 27 9 38.5t13 28.5t29.5 24.5t50.5 7.5q39 0 56.5 -14.5t15.5 -36.5l-4 -48l-29 -176 q-10 -59 -31.5 -78.5t-81.5 -19.5h-749q-27 0 -43.5 3t-31.5 20.5t-9 52.5zM829 649q8 47 47 81t88.5 34t78 -34t20.5 -81q-8 -49 -48 -83t-89 -34t-77 34t-20 83z" />
<glyph unicode="&#x140;" d="M125 76q12 78 113 78h241l156 944h-244q-25 0 -41 3t-31.5 20.5t-9.5 52.5q12 78 111 77h315q59 0 74.5 -20.5t5.5 -77.5l-166 -999h244q27 0 43 -3.5t30.5 -21.5t8.5 -53q-12 -76 -109 -76h-657q-25 0 -41 3t-32.5 20.5t-10.5 52.5zM1067 649q8 47 47 81t88 34t78 -34 t20 -81q-8 -49 -48 -83t-89 -34t-76.5 34t-19.5 83z" />
<glyph unicode="&#x141;" d="M74 76q12 78 110 78h58l57 354l-49 -31q-29 -18 -58.5 -12t-44.5 31q-12 25 -0.5 56.5t39.5 47.5l144 88l67 410h-57q-27 0 -42 3t-30.5 20.5t-9.5 52.5q12 78 109 77h323q25 0 41.5 -3t32.5 -21.5t10 -52.5q-12 -76 -110 -76h-97l-47 -293l346 213q29 16 57.5 10 t41.5 -31q14 -25 2.5 -57.5t-37.5 -48.5l-441 -266l-77 -471h448l19 120q6 27 9 38.5t13 28.5t29.5 24.5t50.5 7.5q39 0 56.5 -14.5t15.5 -36.5l-4 -48l-29 -176q-10 -59 -31.5 -78.5t-81.5 -19.5h-749q-27 0 -43.5 3t-31.5 20.5t-9 52.5z" />
<glyph unicode="&#x142;" d="M125 76q12 78 113 78h241l74 444l-199 -121q-33 -18 -60.5 -12t-41.5 31q-12 25 -1 56.5t40 47.5l291 178l53 320h-244q-25 0 -41 3t-31.5 20.5t-9.5 52.5q12 78 111 77h315q59 0 74.5 -20.5t5.5 -77.5l-43 -256l199 121q29 16 57.5 10t40.5 -31q14 -25 3 -57.5 t-38 -48.5l-293 -176l-92 -561h244q27 0 43 -3.5t30.5 -21.5t8.5 -53q-12 -76 -109 -76h-657q-25 0 -41 3t-32.5 20.5t-10.5 52.5z" />
<glyph unicode="&#x143;" d="M66 78q12 76 110 76h35l156 944h-35q-27 0 -43.5 3t-30.5 21.5t-8 53.5q12 76 108 75h136q51 0 74.5 -15t33.5 -67l186 -915l140 844h-33q-27 0 -42 3t-30.5 20.5t-9.5 52.5q12 78 109 77h211q27 0 43 -3t31.5 -21.5t9.5 -52.5q-12 -76 -111 -76h-35l-166 -1000 q-10 -63 -33.5 -80.5t-80.5 -17.5q-37 0 -54.5 3t-34 21.5t-22.5 57.5l-186 915l-140 -843h33q27 0 43 -3.5t30.5 -21.5t8.5 -53q-12 -76 -109 -76h-210q-27 0 -43.5 3t-31.5 21.5t-9 53.5zM557 1473q6 49 72 73l282 119l47 12q37 0 57.5 -24.5t14.5 -61.5q-8 -53 -78 -84 l-284 -118q-27 -10 -45 -11q-41 0 -56.5 35t-9.5 60z" />
<glyph unicode="&#x144;" d="M35 76q12 78 110 78h72l96 585h-73q-16 0 -28.5 2t-29 8.5t-22.5 22.5t-2 43q12 78 110 78h146q57 0 72.5 -17.5t11.5 -58.5q123 86 260 86q274 0 225 -303l-74 -446h72q27 0 43 -3.5t30.5 -21.5t8.5 -53q-12 -76 -107 -76h-305q-25 0 -42 3t-33.5 21.5t-10.5 51.5 q12 78 113 78h61l72 436q14 86 -4.5 123t-87.5 37q-86 0 -171 -66t-106 -192l-55 -338h72q27 0 43 -3.5t31.5 -21.5t9.5 -53q-12 -76 -109 -76h-317q-16 0 -28.5 2t-29 8t-22.5 22.5t-2 43.5zM489 1069q8 49 72 74l285 119l47 12q37 0 57.5 -24.5t14.5 -61.5q-8 -55 -80 -84 l-285 -119q-25 -10 -45 -10q-29 0 -45 20.5t-19.5 40t-1.5 33.5z" />
<glyph unicode="&#x145;" d="M66 78q12 76 110 76h35l156 944h-35q-27 0 -43.5 3t-30.5 21.5t-8 53.5q12 76 108 75h136q51 0 74.5 -15t33.5 -67l186 -915l140 844h-33q-27 0 -42 3t-30.5 20.5t-9.5 52.5q12 78 109 77h211q27 0 43 -3t31.5 -21.5t9.5 -52.5q-12 -76 -111 -76h-35l-166 -1000 q-10 -63 -33.5 -80.5t-80.5 -17.5q-37 0 -54.5 3t-34 21.5t-22.5 57.5l-186 915l-140 -843h33q27 0 43 -3.5t30.5 -21.5t8.5 -53q-12 -76 -109 -76h-210q-27 0 -43.5 3t-31.5 21.5t-9 53.5zM332 -397q6 39 61 57q70 16 107 86h-6q-45 0 -73 32t-20 81q8 43 44 74.5t87 31.5 q57 0 91 -45t22 -119q-20 -117 -113.5 -189.5t-148.5 -72.5q-25 0 -40 20.5t-11 43.5z" />
<glyph unicode="&#x146;" d="M35 76q12 78 110 78h72l96 585h-73q-16 0 -28.5 2t-29 8.5t-22.5 22.5t-2 43q12 78 110 78h146q57 0 72.5 -17.5t11.5 -58.5q123 86 260 86q274 0 225 -303l-74 -446h72q27 0 43 -3.5t30.5 -21.5t8.5 -53q-12 -76 -107 -76h-305q-25 0 -42 3t-33.5 21.5t-10.5 51.5 q12 78 113 78h61l72 436q14 86 -4.5 123t-87.5 37q-86 0 -171 -66t-106 -192l-55 -338h72q27 0 43 -3.5t31.5 -21.5t9.5 -53q-12 -76 -109 -76h-317q-16 0 -28.5 2t-29 8t-22.5 22.5t-2 43.5zM332 -397q6 39 61 57q70 16 107 86h-6q-45 0 -73 32t-20 81q8 43 44 74.5 t87 31.5q57 0 91 -45t22 -119q-20 -117 -113.5 -189.5t-148.5 -72.5q-25 0 -40 20.5t-11 43.5z" />
<glyph unicode="&#x147;" d="M66 78q12 76 110 76h35l156 944h-35q-27 0 -43.5 3t-30.5 21.5t-8 53.5q12 76 108 75h136q51 0 74.5 -15t33.5 -67l186 -915l140 844h-33q-27 0 -42 3t-30.5 20.5t-9.5 52.5q12 78 109 77h211q27 0 43 -3t31.5 -21.5t9.5 -52.5q-12 -76 -111 -76h-35l-166 -1000 q-10 -63 -33.5 -80.5t-80.5 -17.5q-37 0 -54.5 3t-34 21.5t-22.5 57.5l-186 915l-140 -843h33q27 0 43 -3.5t30.5 -21.5t8.5 -53q-12 -76 -109 -76h-210q-27 0 -43.5 3t-31.5 21.5t-9 53.5zM481 1511q14 80 86 80q16 0 95 -24l129 -41l141 41q86 25 102 24q39 0 53.5 -23.5 t8.5 -56.5q-6 -47 -129 -88l-170 -57q-35 -12 -66 0l-149 57q-53 23 -79 41t-22 47z" />
<glyph unicode="&#x148;" d="M35 76q12 78 110 78h72l96 585h-73q-16 0 -28.5 2t-29 8.5t-22.5 22.5t-2 43q12 78 110 78h146q57 0 72.5 -17.5t11.5 -58.5q123 86 260 86q274 0 225 -303l-74 -446h72q27 0 43 -3.5t30.5 -21.5t8.5 -53q-12 -76 -107 -76h-305q-25 0 -42 3t-33.5 21.5t-10.5 51.5 q12 78 113 78h61l72 436q14 86 -4.5 123t-87.5 37q-86 0 -171 -66t-106 -192l-55 -338h72q27 0 43 -3.5t31.5 -21.5t9.5 -53q-12 -76 -109 -76h-317q-16 0 -28.5 2t-29 8t-22.5 22.5t-2 43.5zM430 1210q12 66 92 66q20 0 80 -43l125 -86l154 86q80 43 96 43q41 0 58.5 -16.5 t13.5 -49.5q-2 -23 -19.5 -42t-32 -28.5t-59.5 -35.5l-205 -119q-37 -23 -65 0l-164 119q-37 27 -48.5 37t-20.5 28t-5 41z" />
<glyph unicode="&#x14a;" d="M33 76q12 78 112 78h72l156 944h-74q-25 0 -41 3t-31.5 20.5t-9.5 52.5q12 78 111 77h145q49 0 67.5 -13t16.5 -48q117 84 246 84q102 0 175 -56.5t105.5 -147.5t43 -206.5t-14.5 -236.5q-23 -135 -49.5 -235.5t-72.5 -202t-117.5 -157t-165.5 -55.5q-41 0 -67 31t-17 74 q6 43 41.5 73.5t76.5 30.5q29 0 52 -14q39 31 69.5 114t45 153.5t32.5 187.5q16 119 18.5 224t-45 178t-139.5 73q-90 0 -166 -67.5t-102 -166.5l-119 -714h72q27 0 43 -3.5t31.5 -21.5t9.5 -53q-12 -76 -109 -76h-317q-25 0 -41.5 3t-32.5 20.5t-10 52.5z" />
<glyph unicode="&#x14b;" d="M102 76q12 78 113 78h72l96 585h-74q-25 0 -41 3t-32.5 21.5t-10.5 51.5q12 78 113 78h145q57 0 72.5 -17.5t11.5 -58.5q117 86 260 86q274 0 226 -303l-78 -463q-41 -250 -117 -401q-102 -201 -276 -201q-37 0 -57.5 24.5t-14.5 61.5q6 35 34.5 60.5t65.5 25.5 q35 0 65 28.5t47 64.5t35.5 105.5t25.5 109.5l22 122l76 453q14 86 -4.5 123t-88.5 37q-86 0 -171 -66t-105 -192l-55 -338h71q27 0 43.5 -3.5t31.5 -21.5t9 -53q-12 -76 -108 -76h-318q-25 0 -41 3t-32.5 21.5t-10.5 51.5z" />
<glyph unicode="&#x14c;" d="M169 194.5q-5 79.5 6 175t38 255t47.5 256t52 176.5t62.5 116.5t89 62.5t119.5 32t166.5 6q78 0 128 -3t96 -15.5t70.5 -30t44 -54t23.5 -79.5t1 -116t-13 -153t-30.5 -198.5t-36 -198.5t-37 -152.5t-40 -115.5t-50.5 -79t-62.5 -53.5t-81.5 -29.5t-101.5 -15.5 t-128.5 -3.5q-104 0 -163.5 5.5t-108.5 32t-67.5 63.5t-23.5 116.5zM346 262q6 -74 50 -102.5t163 -28.5q123 0 176 31t82 110q39 102 84 371q45 266 37 361q-8 72 -55 94t-160 22q-119 0 -173 -27.5t-91 -117.5q-29 -78 -74 -332q-45 -301 -39 -381zM391 1479q12 78 111 77 h594q29 0 44 -3t29.5 -21.5t8.5 -54.5q-12 -78 -109 -78h-592q-29 0 -45 3t-31.5 21.5t-9.5 55.5z" />
<glyph unicode="&#x14d;" d="M184.5 446.5q32.5 194.5 181 328.5t322.5 134q176 0 278.5 -135t70 -327.5t-181 -325.5t-320.5 -133q-174 0 -278.5 132t-72 326.5zM338 1153q12 78 108 78h594q29 0 45.5 -3t30.5 -21.5t8 -55.5q-14 -78 -110 -78h-592q-29 0 -45.5 3t-30.5 21.5t-8 55.5zM358 461 q-23 -131 38 -225.5t165.5 -94.5t195.5 94.5t113 225.5q20 127 -41 211t-165 84q-102 0 -194 -85t-112 -210z" />
<glyph unicode="&#x14e;" d="M169 194.5q-5 79.5 6 175t38 255t47.5 256t52 176.5t62.5 116.5t89 62.5t119.5 32t166.5 6q78 0 128 -3t96 -15.5t70.5 -30t44 -54t23.5 -79.5t1 -116t-13 -153t-30.5 -198.5t-36 -198.5t-37 -152.5t-40 -115.5t-50.5 -79t-62.5 -53.5t-81.5 -29.5t-101.5 -15.5 t-128.5 -3.5q-104 0 -163.5 5.5t-108.5 32t-67.5 63.5t-23.5 116.5zM346 262q6 -74 50 -102.5t163 -28.5q123 0 176 31t82 110q39 102 84 371q45 266 37 361q-8 72 -55 94t-160 22q-119 0 -173 -27.5t-91 -117.5q-29 -78 -74 -332q-45 -301 -39 -381zM432 1559q14 78 90 77 q63 0 64 -69q4 -29 208.5 -29t217.5 29q8 20 15 31.5t26.5 24.5t46.5 13q37 0 54 -20.5t11 -56.5q-10 -61 -52 -100.5t-108.5 -56t-116.5 -20.5t-120 -4t-118 4t-109.5 20.5t-90 56t-18.5 100.5z" />
<glyph unicode="&#x14f;" d="M184.5 446.5q32.5 194.5 181 328.5t322.5 134q176 0 278.5 -135t70 -327.5t-181 -325.5t-320.5 -133q-174 0 -278.5 132t-72 326.5zM358 461q-23 -131 38 -225.5t165.5 -94.5t195.5 94.5t113 225.5q20 127 -41 211t-165 84q-102 0 -194 -85t-112 -210zM373 1202 q14 78 90 78q63 0 63 -70q4 -29 209 -28.5t217 28.5q8 20 15.5 31.5t27 25t45.5 13.5q37 0 54.5 -20.5t11.5 -57.5q-10 -61 -52 -100t-108.5 -55.5t-117 -20.5t-120 -4t-117.5 4t-109.5 20.5t-90 55.5t-18.5 100z" />
<glyph unicode="&#x150;" d="M169 194.5q-5 79.5 6 175t38 255t47.5 256t52 176.5t62.5 116.5t89 62.5t119.5 32t166.5 6q78 0 128 -3t96 -15.5t70.5 -30t44 -54t23.5 -79.5t1 -116t-13 -153t-30.5 -198.5t-36 -198.5t-37 -152.5t-40 -115.5t-50.5 -79t-62.5 -53.5t-81.5 -29.5t-101.5 -15.5 t-128.5 -3.5q-104 0 -163.5 5.5t-108.5 32t-67.5 63.5t-23.5 116.5zM346 262q6 -74 50 -102.5t163 -28.5q123 0 176 31t82 110q39 102 84 371q45 266 37 361q-8 72 -55 94t-160 22q-119 0 -173 -27.5t-91 -117.5q-29 -78 -74 -332q-45 -301 -39 -381zM424 1473q6 33 74 86 l110 90q59 41 90 41q35 0 56.5 -27t15.5 -61q-6 -41 -76 -91l-110 -88q-59 -45 -90 -45t-53.5 32t-16.5 63zM821 1473q6 33 74 86l111 90q59 41 90 41q35 0 56.5 -27t14.5 -61q-6 -41 -75 -91l-111 -88q-59 -45 -90 -45t-53.5 32t-16.5 63z" />
<glyph unicode="&#x151;" d="M184.5 446.5q32.5 194.5 181 328.5t322.5 134q176 0 278.5 -135t70 -327.5t-181 -325.5t-320.5 -133q-174 0 -278.5 132t-72 326.5zM358 461q-23 -131 38 -225.5t165.5 -94.5t195.5 94.5t113 225.5q20 127 -41 211t-165 84q-102 0 -194 -85t-112 -210zM360 1090 q4 31 74 86l111 90q59 41 90 41q35 0 56.5 -27t15.5 -61q-8 -43 -76 -91l-111 -88q-59 -45 -90 -45t-53.5 32t-16.5 63zM758 1090q4 31 73 86l111 90q59 41 90 41q35 0 56.5 -27t15.5 -61q-8 -43 -76 -91l-110 -88q-59 -45 -90 -45t-53.5 32t-16.5 63z" />
<glyph unicode="&#x152;" d="M113 174q-6 125 47 453q57 338 108 465q41 102 118 142t226 40q57 0 115 -12q45 -10 88 -11h315q59 0 75 -20.5t5 -77.5l-24 -145q-16 -98 -88 -98.5t-56 98.5l15 90h-211l-62 -373h230q27 0 43 -3t30.5 -21.5t8.5 -53.5q-12 -76 -107 -76h-229l-70 -417h225l19 120 q16 98 88 98.5t55 -98.5l-28 -176q-10 -59 -33 -78.5t-80 -19.5h-330q-43 0 -84 -8q-72 -14 -127 -15q-164 0 -221 46.5t-61 150.5zM257 306.5q1 -25.5 5 -65.5t16.5 -53.5t32 -31t49 -21.5t68.5 -4q68 0 96.5 44t50.5 183l91 535q23 147 7 187t-85 40q-31 0 -56.5 -2 t-47 -13t-38 -17.5t-32 -30t-24.5 -35.5t-20.5 -52l-17.5 -59.5t-17 -77l-16.5 -86t-17.5 -104.5v-4q-16 -94 -22.5 -135t-14.5 -106.5t-7 -91z" />
<glyph unicode="&#x153;" d="M111 449q31 197 143.5 328.5t239.5 131.5q137 0 202 -155q117 156 244 155q111 0 162 -113.5t16 -314.5q-10 -59 -31.5 -79.5t-80.5 -20.5h-293q-4 -102 32.5 -171t94 -69t96.5 103q20 61 82 61q29 0 47 -20.5t12 -53.5q-4 -29 -32.5 -81t-94 -107t-143.5 -55 q-143 0 -209 159q-117 -160 -258 -159q-127 0 -194.5 131t-34.5 330zM252 461q-23 -131 11 -225.5t97.5 -94.5t128 93.5t86.5 226.5q20 127 -14.5 211t-98 84t-127 -84t-83.5 -211zM745 532h240q12 119 -7.5 171.5t-55.5 52.5q-45 0 -95.5 -65t-81.5 -159z" />
<glyph unicode="&#x154;" d="M55 76q12 78 109 78h35l155 944h-35q-27 0 -42 3t-29.5 20.5t-7.5 52.5q12 78 106 77h354q178 0 273.5 -105.5t70.5 -246.5q-10 -72 -61 -148.5t-143 -129.5q49 -49 65 -113q10 -51 -12 -195q-10 -61 -14.5 -93t1 -60.5t23.5 -28.5q20 0 29 49q16 100 102 101 q20 0 34.5 -2.5t28 -21.5t7.5 -56q-12 -76 -72.5 -150t-152.5 -74q-115 0 -156 101q-18 66 -16 105.5t22 156.5q12 55 11 94t-23 64q-51 51 -144 51h-139l-65 -395h32q27 0 43.5 -3.5t30.5 -21.5t8 -53q-12 -76 -108 -76h-238q-27 0 -42 3t-30.5 20.5t-9.5 52.5zM457 702 h129q119 0 197.5 60.5t90.5 136.5q14 76 -44 137.5t-179 61.5h-129zM557 1473q6 49 72 73l282 119l47 12q37 0 57.5 -24.5t14.5 -61.5q-8 -53 -78 -84l-284 -118q-27 -10 -45 -11q-41 0 -56.5 35t-9.5 60z" />
<glyph unicode="&#x155;" d="M74 78q12 76 110 76h146l96 585h-145q-20 0 -32.5 2t-28 8.5t-20.5 24t-1 43.5q10 76 108 76h219q59 0 74.5 -20.5t5.5 -77.5l-6 -29q162 137 348 137q119 0 155 -44t25 -95q-8 -45 -41.5 -72.5t-74.5 -27.5t-66.5 24.5t-19.5 61.5q-156 -4 -260.5 -112t-126.5 -251 l-39 -233h205q27 0 43 -3.5t31.5 -21.5t8.5 -53q-12 -76 -110 -76h-520q-27 0 -43.5 3t-31.5 21.5t-9 53.5zM489 1069q8 49 72 74l285 119l47 12q37 0 57.5 -24.5t14.5 -61.5q-8 -55 -80 -84l-285 -119q-25 -10 -45 -10q-29 0 -45 20.5t-19.5 40t-1.5 33.5z" />
<glyph unicode="&#x156;" d="M55 76q12 78 109 78h35l155 944h-35q-27 0 -42 3t-29.5 20.5t-7.5 52.5q12 78 106 77h354q178 0 273.5 -105.5t70.5 -246.5q-10 -72 -61 -148.5t-143 -129.5q49 -49 65 -113q10 -51 -12 -195q-10 -61 -14.5 -93t1 -60.5t23.5 -28.5q20 0 29 49q16 100 102 101 q20 0 34.5 -2.5t28 -21.5t7.5 -56q-12 -76 -72.5 -150t-152.5 -74q-115 0 -156 101q-18 66 -16 105.5t22 156.5q12 55 11 94t-23 64q-51 51 -144 51h-139l-65 -395h32q27 0 43.5 -3.5t30.5 -21.5t8 -53q-12 -76 -108 -76h-238q-27 0 -42 3t-30.5 20.5t-9.5 52.5zM332 -397 q6 39 61 57q70 16 107 86h-6q-45 0 -73 32t-20 81q8 43 44 74.5t87 31.5q57 0 91 -45t22 -119q-20 -117 -113.5 -189.5t-148.5 -72.5q-25 0 -40 20.5t-11 43.5zM457 702h129q119 0 197.5 60.5t90.5 136.5q14 76 -44 137.5t-179 61.5h-129z" />
<glyph unicode="&#x157;" d="M74 78q12 76 110 76h146l96 585h-145q-20 0 -32.5 2t-28 8.5t-20.5 24t-1 43.5q10 76 108 76h219q59 0 74.5 -20.5t5.5 -77.5l-6 -29q162 137 348 137q119 0 155 -44t25 -95q-8 -45 -41.5 -72.5t-74.5 -27.5t-66.5 24.5t-19.5 61.5q-156 -4 -260.5 -112t-126.5 -251 l-39 -233h205q27 0 43 -3.5t31.5 -21.5t8.5 -53q-12 -76 -110 -76h-520q-27 0 -43.5 3t-31.5 21.5t-9 53.5zM178 -397q6 39 62 57q70 16 106 86h-6q-45 0 -72.5 32t-19.5 81q8 43 44 74.5t87 31.5q57 0 91 -45t22 -119q-20 -117 -113.5 -189.5t-149.5 -72.5q-25 0 -40 20.5 t-11 43.5z" />
<glyph unicode="&#x158;" d="M55 76q12 78 109 78h35l155 944h-35q-27 0 -42 3t-29.5 20.5t-7.5 52.5q12 78 106 77h354q178 0 273.5 -105.5t70.5 -246.5q-10 -72 -61 -148.5t-143 -129.5q49 -49 65 -113q10 -51 -12 -195q-10 -61 -14.5 -93t1 -60.5t23.5 -28.5q20 0 29 49q16 100 102 101 q20 0 34.5 -2.5t28 -21.5t7.5 -56q-12 -76 -72.5 -150t-152.5 -74q-115 0 -156 101q-18 66 -16 105.5t22 156.5q12 55 11 94t-23 64q-51 51 -144 51h-139l-65 -395h32q27 0 43.5 -3.5t30.5 -21.5t8 -53q-12 -76 -108 -76h-238q-27 0 -42 3t-30.5 20.5t-9.5 52.5zM457 702 h129q119 0 197.5 60.5t90.5 136.5q14 76 -44 137.5t-179 61.5h-129zM481 1511q14 80 86 80q16 0 95 -24l129 -41l141 41q86 25 102 24q39 0 53.5 -23.5t8.5 -56.5q-6 -47 -129 -88l-170 -57q-35 -12 -66 0l-149 57q-53 23 -79 41t-22 47z" />
<glyph unicode="&#x159;" d="M74 78q12 76 110 76h146l96 585h-145q-20 0 -32.5 2t-28 8.5t-20.5 24t-1 43.5q10 76 108 76h219q59 0 74.5 -20.5t5.5 -77.5l-6 -29q162 137 348 137q119 0 155 -44t25 -95q-8 -45 -41.5 -72.5t-74.5 -27.5t-66.5 24.5t-19.5 61.5q-156 -4 -260.5 -112t-126.5 -251 l-39 -233h205q27 0 43 -3.5t31.5 -21.5t8.5 -53q-12 -76 -110 -76h-520q-27 0 -43.5 3t-31.5 21.5t-9 53.5zM430 1210q12 66 92 66q20 0 80 -43l125 -86l154 86q80 43 96 43q41 0 58.5 -16.5t13.5 -49.5q-2 -23 -19.5 -42t-32 -28.5t-59.5 -35.5l-205 -119q-37 -23 -65 0 l-164 119q-37 27 -48.5 37t-20.5 28t-5 41z" />
<glyph unicode="&#x15a;" d="M115 76l45 264q6 33 11 48t27.5 31.5t61.5 16.5q37 0 54.5 -12t16.5 -31.5t-1 -40.5q-14 -106 69 -168q78 -53 205 -53q104 0 177 63.5t87 143.5q29 168 -176 209l-221 55q-121 35 -176 127t-37 201q23 139 150 241.5t294 102.5q158 0 256 -82q37 82 97 82q76 0 59 -98 l-45 -265q-4 -23 -8 -36t-14.5 -29.5t-30 -23.5t-49.5 -7q-39 0 -55.5 14.5t-16.5 53.5q0 238 -221 237q-96 0 -170 -54t-86 -128q-10 -61 25.5 -107.5t95.5 -64.5l153 -37q127 -31 177.5 -53.5t101.5 -79.5q82 -106 57 -248q-25 -147 -151.5 -259t-301.5 -112 q-193 0 -305 82q-23 -45 -43 -63.5t-53 -18.5q-75 1 -59 99zM557 1473q6 49 72 73l282 119l47 12q37 0 57.5 -24.5t14.5 -61.5q-8 -53 -78 -84l-284 -118q-27 -10 -45 -11q-41 0 -56.5 35t-9.5 60z" />
<glyph unicode="&#x15b;" d="M156 86l32 193q4 25 8.5 38t14.5 29t29.5 23.5t50.5 7.5q43 0 56 -15.5t18 -54.5q27 -166 213 -166q121 0 185 35t75 90q4 33 -14.5 56.5t-61.5 39t-71.5 21.5t-76.5 14q-70 10 -113.5 19.5t-101 30t-89 46t-50 68.5t-8.5 98q6 35 25.5 71t63.5 80t134 71.5t213 27.5 q119 0 199 -35q27 35 76 35q74 0 59 -96l-23 -139q-4 -23 -8 -36t-14 -29.5t-29.5 -23.5t-50.5 -7q-51 0 -63.5 21.5t-6.5 59.5q2 43 -32.5 70t-135.5 27q-121 0 -184 -28t-69 -69q-10 -57 94 -81l200 -37q31 -4 59.5 -11.5t80 -28t85 -48t55 -76.5t11.5 -111 q-6 -43 -30.5 -86t-71.5 -89t-135 -74.5t-205 -28.5q-150 0 -240 67q-39 -68 -94 -67q-75 0 -59 98zM494 1096q8 49 71 73l285 119l47 12q37 0 57.5 -24.5t14.5 -61.5q-8 -55 -80 -84l-285 -118q-25 -10 -45 -11q-29 0 -45 20.5t-19 40.5t-1 34z" />
<glyph unicode="&#x15c;" d="M115 76l45 264q6 33 11 48t27.5 31.5t61.5 16.5q37 0 54.5 -12t16.5 -31.5t-1 -40.5q-14 -106 69 -168q78 -53 205 -53q104 0 177 63.5t87 143.5q29 168 -176 209l-221 55q-121 35 -176 127t-37 201q23 139 150 241.5t294 102.5q158 0 256 -82q37 82 97 82q76 0 59 -98 l-45 -265q-4 -23 -8 -36t-14.5 -29.5t-30 -23.5t-49.5 -7q-39 0 -55.5 14.5t-16.5 53.5q0 238 -221 237q-96 0 -170 -54t-86 -128q-10 -61 25.5 -107.5t95.5 -64.5l153 -37q127 -31 177.5 -53.5t101.5 -79.5q82 -106 57 -248q-25 -147 -151.5 -259t-301.5 -112 q-193 0 -305 82q-23 -45 -43 -63.5t-53 -18.5q-75 1 -59 99zM469 1438q6 47 129 88l170 57q35 12 66 0l149 -57q53 -23 78.5 -41.5t21.5 -46.5q-14 -80 -88 -80q-16 0 -94 24l-127 41l-143 -41q-86 -25 -103 -24q-39 0 -52 23.5t-7 56.5z" />
<glyph unicode="&#x15d;" d="M156 86l32 193q4 25 8.5 38t14.5 29t29.5 23.5t50.5 7.5q43 0 56 -15.5t18 -54.5q27 -166 213 -166q121 0 185 35t75 90q4 33 -14.5 56.5t-61.5 39t-71.5 21.5t-76.5 14q-70 10 -113.5 19.5t-101 30t-89 46t-50 68.5t-8.5 98q6 35 25.5 71t63.5 80t134 71.5t213 27.5 q119 0 199 -35q27 35 76 35q74 0 59 -96l-23 -139q-4 -23 -8 -36t-14 -29.5t-29.5 -23.5t-50.5 -7q-51 0 -63.5 21.5t-6.5 59.5q2 43 -32.5 70t-135.5 27q-121 0 -184 -28t-69 -69q-10 -57 94 -81l200 -37q31 -4 59.5 -11.5t80 -28t85 -48t55 -76.5t11.5 -111 q-6 -43 -30.5 -86t-71.5 -89t-135 -74.5t-205 -28.5q-150 0 -240 67q-39 -68 -94 -67q-75 0 -59 98zM406 1065q2 23 18 42t30.5 28.5t59.5 35.5l205 119q37 23 65 0l164 -119q37 -27 48.5 -37t21.5 -28.5t6 -40.5q-16 -66 -94 -66q-20 0 -80 43l-125 86l-154 -86 q-74 -43 -96 -43q-41 0 -57 16.5t-12 49.5z" />
<glyph unicode="&#x15e;" d="M115 76l45 264q6 33 11 48t27.5 31.5t61.5 16.5q37 0 54.5 -12t16.5 -31.5t-1 -40.5q-14 -106 69 -168q78 -53 205 -53q104 0 177 63.5t87 143.5q29 168 -176 209l-221 55q-121 35 -176 127t-37 201q23 139 150 241.5t294 102.5q158 0 256 -82q37 82 97 82q76 0 59 -98 l-45 -265q-4 -23 -8 -36t-14.5 -29.5t-30 -23.5t-49.5 -7q-39 0 -55.5 14.5t-16.5 53.5q0 238 -221 237q-96 0 -170 -54t-86 -128q-10 -61 25.5 -107.5t95.5 -64.5l153 -37q127 -31 177.5 -53.5t101.5 -79.5q82 -106 57 -248q-20 -127 -119.5 -229.5t-240.5 -132.5 q90 -25 128 -82.5t25 -120.5q-10 -61 -51 -104.5t-89 -65t-125 -33.5t-128 -14t-129 -2q-33 0 -51.5 18.5t-11.5 59.5q8 49 40.5 63t106.5 14q258 0 268 64q4 27 -24.5 44t-83.5 19q-51 2 -61.5 33t1.5 68l6 37q-133 16 -219 75q-23 -45 -43 -63.5t-53 -18.5q-75 1 -59 99z " />
<glyph unicode="&#x15f;" d="M156 86l32 193q4 25 8.5 38t14.5 29t29.5 23.5t50.5 7.5q43 0 56 -15.5t18 -54.5q27 -166 213 -166q121 0 185 35t75 90q4 33 -14.5 56.5t-61.5 39t-71.5 21.5t-76.5 14q-70 10 -113.5 19.5t-101 30t-89 46t-50 68.5t-8.5 98q6 35 25.5 71t63.5 80t134 71.5t213 27.5 q119 0 199 -35q27 35 76 35q74 0 59 -96l-23 -139q-4 -23 -8 -36t-14 -29.5t-29.5 -23.5t-50.5 -7q-51 0 -63.5 21.5t-6.5 59.5q2 43 -32.5 70t-135.5 27q-121 0 -184 -28t-69 -69q-10 -57 94 -81l200 -37q31 -4 59.5 -11.5t80 -28t85 -48t55 -76.5t11.5 -111 q-14 -84 -83.5 -159.5t-215.5 -104.5q80 -27 112 -81t21.5 -115.5t-50.5 -104.5t-89 -65.5t-125 -35t-129 -14.5t-129 -2q-31 0 -51.5 19.5t-13.5 58.5q8 49 41.5 63.5t107.5 14.5q258 0 268 65q4 25 -24.5 43.5t-83.5 20.5q-49 2 -59.5 27.5t-2.5 70.5l4 25q-106 8 -180 63 q-39 -68 -94 -67q-75 0 -59 98z" />
<glyph unicode="&#x160;" d="M115 76l45 264q6 33 11 48t27.5 31.5t61.5 16.5q37 0 54.5 -12t16.5 -31.5t-1 -40.5q-14 -106 69 -168q78 -53 205 -53q104 0 177 63.5t87 143.5q29 168 -176 209l-221 55q-121 35 -176 127t-37 201q23 139 150 241.5t294 102.5q158 0 256 -82q37 82 97 82q76 0 59 -98 l-45 -265q-4 -23 -8 -36t-14.5 -29.5t-30 -23.5t-49.5 -7q-39 0 -55.5 14.5t-16.5 53.5q0 238 -221 237q-96 0 -170 -54t-86 -128q-10 -61 25.5 -107.5t95.5 -64.5l153 -37q127 -31 177.5 -53.5t101.5 -79.5q82 -106 57 -248q-25 -147 -151.5 -259t-301.5 -112 q-193 0 -305 82q-23 -45 -43 -63.5t-53 -18.5q-75 1 -59 99zM481 1511q14 80 86 80q16 0 95 -24l129 -41l141 41q86 25 102 24q39 0 53.5 -23.5t8.5 -56.5q-6 -47 -129 -88l-170 -57q-35 -12 -66 0l-149 57q-53 23 -79 41t-22 47z" />
<glyph unicode="&#x161;" d="M156 86l32 193q4 25 8.5 38t14.5 29t29.5 23.5t50.5 7.5q43 0 56 -15.5t18 -54.5q27 -166 213 -166q121 0 185 35t75 90q4 33 -14.5 56.5t-61.5 39t-71.5 21.5t-76.5 14q-70 10 -113.5 19.5t-101 30t-89 46t-50 68.5t-8.5 98q6 35 25.5 71t63.5 80t134 71.5t213 27.5 q119 0 199 -35q27 35 76 35q74 0 59 -96l-23 -139q-4 -23 -8 -36t-14 -29.5t-29.5 -23.5t-50.5 -7q-51 0 -63.5 21.5t-6.5 59.5q2 43 -32.5 70t-135.5 27q-121 0 -184 -28t-69 -69q-10 -57 94 -81l200 -37q31 -4 59.5 -11.5t80 -28t85 -48t55 -76.5t11.5 -111 q-6 -43 -30.5 -86t-71.5 -89t-135 -74.5t-205 -28.5q-150 0 -240 67q-39 -68 -94 -67q-75 0 -59 98zM434 1237q12 66 92 66q20 0 80 -43l125 -86l154 86q80 43 96 43q41 0 58.5 -16.5t13.5 -49.5q-2 -23 -19.5 -42t-32 -28.5t-59.5 -36.5l-205 -118q-37 -23 -65 0l-164 118 q-37 27 -48 37.5t-20.5 28.5t-5.5 41z" />
<glyph unicode="&#x162;" d="M199 -344q8 49 41.5 63.5t107.5 14.5q258 0 268 65q4 25 -24.5 43.5t-83.5 20.5q-51 2 -61.5 27.5t-2.5 70.5l9 39h-88q-27 0 -43.5 3t-32 21.5t-8.5 53.5q12 76 110 76h88l156 944h-234l-14 -90q-6 -31 -12 -48.5t-28.5 -34t-61.5 -16.5t-56.5 15.5t-15.5 37t4 46.5 l25 145q8 59 31.5 78.5t82.5 19.5h781q59 0 74.5 -20.5t5.5 -77.5l-25 -145q-6 -31 -12 -48.5t-29 -34t-61.5 -16.5t-56 15.5t-15.5 37t4 46.5l14 90h-231l-156 -944h88q27 0 43.5 -3.5t30.5 -21.5t8 -53q-12 -76 -108 -76h-74q88 -25 123 -81t24 -120q-10 -61 -50 -104 t-89 -65.5t-125 -35t-128 -14.5t-127.5 -2t-65.5 78z" />
<glyph unicode="&#x163;" d="M182 815q12 78 111 78h158l24 147q4 23 8 36.5t14.5 29.5t30 23.5t50.5 7.5q39 0 55 -15.5t15 -36t-3 -45.5l-24 -147h311q20 0 32.5 -2t28 -8t20.5 -23.5t1 -44.5q-12 -76 -109 -76h-311l-76 -460q-27 -137 115 -138q29 0 59.5 8.5t64.5 39t44 81.5q4 27 10 43.5 t27.5 31.5t58.5 15q39 0 57.5 -14t17.5 -34.5t-3 -43.5q-16 -104 -91 -172.5t-178 -95.5q88 -25 124 -80t26 -121q-10 -61 -51 -104t-89 -65.5t-124 -35t-128 -14.5t-128 -2q-33 0 -52.5 19.5t-13.5 58.5q8 49 41 63.5t107 14.5q258 0 270 65q4 25 -25.5 43.5t-83.5 20.5 q-51 2 -63 32.5t0 65.5l6 35q-209 45 -170 272l78 471h-160q-27 0 -42 3t-30.5 20.5t-9.5 52.5z" />
<glyph unicode="&#x164;" d="M213 961.5q2 21.5 4 46.5l25 145q8 59 31.5 78.5t82.5 19.5h781q59 0 74.5 -20.5t5.5 -77.5l-25 -145q-6 -31 -12 -48.5t-29 -34t-61.5 -16.5t-56 15.5t-15.5 37t4 46.5l14 90h-231l-156 -944h88q27 0 43.5 -3.5t30.5 -21.5t8 -53q-12 -76 -108 -76h-346q-27 0 -43.5 3 t-32 21.5t-8.5 53.5q12 76 110 76h88l156 944h-234l-14 -90q-6 -31 -12 -48.5t-28.5 -34t-61.5 -16.5t-56.5 15.5t-15.5 37zM481 1511q14 80 86 80q16 0 95 -24l129 -41l141 41q86 25 102 24q39 0 53.5 -23.5t8.5 -56.5q-6 -47 -129 -88l-170 -57q-35 -12 -66 0l-149 57 q-53 23 -79 41t-22 47z" />
<glyph unicode="&#x165;" d="M182 815q12 78 111 78h158l24 147q4 23 8 36.5t14.5 29.5t30 23.5t50.5 7.5q39 0 55 -15.5t15 -36t-3 -45.5l-24 -147h311q20 0 32.5 -2t28 -8t20.5 -23.5t1 -44.5q-12 -76 -109 -76h-311l-76 -460q-27 -137 115 -138q29 0 59.5 8.5t64.5 39t44 81.5q4 27 10 43.5 t27.5 31.5t58.5 15q39 0 57.5 -14t17.5 -34.5t-3 -43.5q-23 -133 -132.5 -206.5t-238.5 -73.5t-202.5 68.5t-49.5 211.5l78 471h-160q-27 0 -42 3t-30.5 20.5t-9.5 52.5zM721 1024q8 39 63 57q70 20 107 86h-6q-45 0 -73 32t-19 81q8 43 43.5 74.5t87.5 31.5q57 0 91 -45 t21 -118q-20 -117 -113.5 -189.5t-148.5 -72.5q-25 0 -41 20t-12 43z" />
<glyph unicode="&#x168;" d="M203 1176q12 76 110 75h256q27 0 43.5 -3t33 -20.5t9.5 -51.5q-12 -78 -112 -78h-43l-111 -666q-23 -141 31.5 -221t138.5 -80q82 0 164 81t104 220l111 666h-43q-27 0 -43 3t-31.5 21.5t-9.5 53.5q12 76 111 75h256q27 0 43 -3t32.5 -20.5t10.5 -51.5q-12 -78 -113 -78 h-43l-111 -674q-31 -188 -169 -317.5t-295.5 -129.5t-251 129.5t-62.5 317.5l111 674h-43q-27 0 -43.5 3t-31.5 21.5t-9 53.5zM414 1438q6 47 125 123q100 70 176 69q68 0 133 -71q35 -39 45 -39q35 0 141 84q33 27 63.5 26.5t49 -25t14.5 -55.5q-8 -47 -125 -123 q-106 -70 -175.5 -69.5t-133.5 74.5q-33 37 -45 36q-39 0 -141 -84q-39 -27 -64 -26q-31 0 -49 24.5t-14 55.5z" />
<glyph unicode="&#x169;" d="M158 815q12 78 110 78h146q59 0 74.5 -20.5t5.5 -77.5l-91 -539q-4 -31 -4 -55.5t31 -42t96 -17.5q41 0 84 10.5t94.5 56.5t63.5 122l68 409h-74q-25 0 -41 3t-32.5 20.5t-10.5 52.5q12 78 113 78h145q59 0 74.5 -20.5t5.5 -77.5l-107 -641h74q25 0 40 -3.5t30.5 -21.5 t9.5 -51q-12 -78 -109 -78h-145q-80 0 -86 51q-106 -63 -234 -63q-133 0 -207.5 58t-50.5 198l82 495h-73q-16 0 -28.5 2t-29 8.5t-22.5 22.5t-2 43zM352 1069q6 47 125 123q100 70 176 70q68 0 133 -72q35 -39 45 -39q33 0 144 84q35 27 61 27q31 0 49.5 -25t14.5 -55 q-8 -47 -125 -123q-106 -70 -174 -70q-76 0 -133 74q-37 37 -45 37q-41 0 -144 -84q-35 -27 -61 -27q-31 0 -50.5 25.5t-15.5 54.5z" />
<glyph unicode="&#x16a;" d="M203 1176q12 76 110 75h256q27 0 43.5 -3t33 -20.5t9.5 -51.5q-12 -78 -112 -78h-43l-111 -666q-23 -141 31.5 -221t138.5 -80q82 0 164 81t104 220l111 666h-43q-27 0 -43 3t-31.5 21.5t-9.5 53.5q12 76 111 75h256q27 0 43 -3t32.5 -20.5t10.5 -51.5q-12 -78 -113 -78 h-43l-111 -674q-31 -188 -169 -317.5t-295.5 -129.5t-251 129.5t-62.5 317.5l111 674h-43q-27 0 -43.5 3t-31.5 21.5t-9 53.5zM391 1479q12 78 111 77h594q29 0 44 -3t29.5 -21.5t8.5 -54.5q-12 -78 -109 -78h-592q-29 0 -45 3t-31.5 21.5t-9.5 55.5z" />
<glyph unicode="&#x16b;" d="M158 815q12 78 110 78h146q59 0 74.5 -20.5t5.5 -77.5l-91 -539q-4 -31 -4 -55.5t31 -42t96 -17.5q41 0 84 10.5t94.5 56.5t63.5 122l68 409h-74q-25 0 -41 3t-32.5 20.5t-10.5 52.5q12 78 113 78h145q59 0 74.5 -20.5t5.5 -77.5l-107 -641h74q25 0 40 -3.5t30.5 -21.5 t9.5 -51q-12 -78 -109 -78h-145q-80 0 -86 51q-106 -63 -234 -63q-133 0 -207.5 58t-50.5 198l82 495h-73q-16 0 -28.5 2t-29 8.5t-22.5 22.5t-2 43zM334 1126q12 78 108 78h594q29 0 45.5 -3t30.5 -21.5t8 -55.5q-14 -78 -110 -77h-592q-29 0 -45.5 3t-30.5 21t-8 55z" />
<glyph unicode="&#x16c;" d="M203 1176q12 76 110 75h256q27 0 43.5 -3t33 -20.5t9.5 -51.5q-12 -78 -112 -78h-43l-111 -666q-23 -141 31.5 -221t138.5 -80q82 0 164 81t104 220l111 666h-43q-27 0 -43 3t-31.5 21.5t-9.5 53.5q12 76 111 75h256q27 0 43 -3t32.5 -20.5t10.5 -51.5q-12 -78 -113 -78 h-43l-111 -674q-31 -188 -169 -317.5t-295.5 -129.5t-251 129.5t-62.5 317.5l111 674h-43q-27 0 -43.5 3t-31.5 21.5t-9 53.5zM432 1559q14 78 90 77q63 0 64 -69q4 -29 208.5 -29t217.5 29q8 20 15 31.5t26.5 24.5t46.5 13q37 0 54 -20.5t11 -56.5q-10 -61 -52 -100.5 t-108.5 -56t-116.5 -20.5t-120 -4t-118 4t-109.5 20.5t-90 56t-18.5 100.5z" />
<glyph unicode="&#x16d;" d="M158 815q12 78 110 78h146q59 0 74.5 -20.5t5.5 -77.5l-91 -539q-4 -31 -4 -55.5t31 -42t96 -17.5q41 0 84 10.5t94.5 56.5t63.5 122l68 409h-74q-25 0 -41 3t-32.5 20.5t-10.5 52.5q12 78 113 78h145q59 0 74.5 -20.5t5.5 -77.5l-107 -641h74q25 0 40 -3.5t30.5 -21.5 t9.5 -51q-12 -78 -109 -78h-145q-80 0 -86 51q-106 -63 -234 -63q-133 0 -207.5 58t-50.5 198l82 495h-73q-16 0 -28.5 2t-29 8.5t-22.5 22.5t-2 43zM369 1176q14 78 90 77q63 0 63 -69q4 -29 209 -29t217 29q8 20 15.5 31.5t27 24.5t45.5 13q37 0 54.5 -20.5t11.5 -56.5 q-10 -61 -52 -100.5t-109 -55.5t-117 -20.5t-119.5 -4.5t-117.5 4.5t-109.5 20.5t-90 55.5t-18.5 100.5z" />
<glyph unicode="&#x16e;" d="M203 1176q12 76 110 75h256q27 0 43.5 -3t33 -20.5t9.5 -51.5q-12 -78 -112 -78h-43l-111 -666q-23 -141 31.5 -221t138.5 -80q82 0 164 81t104 220l111 666h-43q-27 0 -43 3t-31.5 21.5t-9.5 53.5q12 76 111 75h256q27 0 43 -3t32.5 -20.5t10.5 -51.5q-12 -78 -113 -78 h-43l-111 -674q-31 -188 -169 -317.5t-295.5 -129.5t-251 129.5t-62.5 317.5l111 674h-43q-27 0 -43.5 3t-31.5 21.5t-9 53.5zM596 1415q10 53 67.5 94t133 41t121 -41t34.5 -94q-10 -55 -67.5 -97t-133 -42t-120.5 42t-35 97zM711 1413q-2 -18 15 -29.5t42 -11.5t46.5 11.5 t23.5 30t-15.5 29.5t-42.5 11q-63 0 -69 -41z" />
<glyph unicode="&#x16f;" d="M158 815q12 78 110 78h146q59 0 74.5 -20.5t5.5 -77.5l-91 -539q-4 -31 -4 -55.5t31 -42t96 -17.5q41 0 84 10.5t94.5 56.5t63.5 122l68 409h-74q-25 0 -41 3t-32.5 20.5t-10.5 52.5q12 78 113 78h145q59 0 74.5 -20.5t5.5 -77.5l-107 -641h74q25 0 40 -3.5t30.5 -21.5 t9.5 -51q-12 -78 -109 -78h-145q-80 0 -86 51q-106 -63 -234 -63q-133 0 -207.5 58t-50.5 198l82 495h-73q-16 0 -28.5 2t-29 8.5t-22.5 22.5t-2 43zM551 1147q10 53 67.5 94t133 41t121 -41t34.5 -94q-8 -55 -66.5 -97t-134 -42t-119.5 42t-36 97zM666 1144.5 q-2 -18.5 15 -29.5t42 -11t46.5 11t23.5 29.5t-14.5 30t-41 11.5t-47 -11.5t-24.5 -30z" />
<glyph unicode="&#x170;" d="M203 1176q12 76 110 75h256q27 0 43.5 -3t33 -20.5t9.5 -51.5q-12 -78 -112 -78h-43l-111 -666q-23 -141 31.5 -221t138.5 -80q82 0 164 81t104 220l111 666h-43q-27 0 -43 3t-31.5 21.5t-9.5 53.5q12 76 111 75h256q27 0 43 -3t32.5 -20.5t10.5 -51.5q-12 -78 -113 -78 h-43l-111 -674q-31 -188 -169 -317.5t-295.5 -129.5t-251 129.5t-62.5 317.5l111 674h-43q-27 0 -43.5 3t-31.5 21.5t-9 53.5zM424 1473q6 33 74 86l110 90q59 41 90 41q35 0 56.5 -27t15.5 -61q-6 -41 -76 -91l-110 -88q-59 -45 -90 -45t-53.5 32t-16.5 63zM821 1473 q6 33 74 86l111 90q59 41 90 41q35 0 56.5 -27t14.5 -61q-6 -41 -75 -91l-111 -88q-59 -45 -90 -45t-53.5 32t-16.5 63z" />
<glyph unicode="&#x171;" d="M158 815q12 78 110 78h146q59 0 74.5 -20.5t5.5 -77.5l-91 -539q-4 -31 -4 -55.5t31 -42t96 -17.5q41 0 84 10.5t94.5 56.5t63.5 122l68 409h-74q-25 0 -41 3t-32.5 20.5t-10.5 52.5q12 78 113 78h145q59 0 74.5 -20.5t5.5 -77.5l-107 -641h74q25 0 40 -3.5t30.5 -21.5 t9.5 -51q-12 -78 -109 -78h-145q-80 0 -86 51q-106 -63 -234 -63q-133 0 -207.5 58t-50.5 198l82 495h-73q-16 0 -28.5 2t-29 8.5t-22.5 22.5t-2 43zM356 1063q4 31 74 86l111 90q59 41 90 41q35 0 56.5 -26.5t14.5 -61.5q-8 -43 -75 -90l-111 -88q-59 -45 -90 -45 t-53.5 31.5t-16.5 62.5zM754 1063q4 31 73 86l111 90q59 41 90 41q35 0 56.5 -26.5t15.5 -61.5q-8 -43 -76 -90l-111 -88q-59 -45 -89.5 -45t-53 31.5t-16.5 62.5z" />
<glyph unicode="&#x172;" d="M203 1176q12 76 110 75h256q27 0 43.5 -3t33 -20.5t9.5 -51.5q-12 -78 -112 -78h-43l-111 -666q-23 -141 31.5 -221t138.5 -80q82 0 164 81t104 220l111 666h-43q-27 0 -43 3t-31.5 21.5t-9.5 53.5q12 76 111 75h256q27 0 43 -3t32.5 -20.5t10.5 -51.5q-12 -78 -113 -78 h-43l-111 -674q-29 -164 -139 -285t-248 -151q-106 -68 -129 -191q-4 -27 16.5 -45t45.5 -18q20 0 47 16q39 35 55.5 48.5t41 27.5t37.5 10t26 -20q14 -23 13 -51.5t-18 -45.5q-115 -125 -233 -125q-96 0 -144.5 65t-33.5 142q14 96 119 187q-125 33 -192.5 153.5 t-41.5 282.5l111 674h-43q-27 0 -43.5 3t-31.5 21.5t-9 53.5z" />
<glyph unicode="&#x173;" d="M158 815q12 78 112 78h146q57 0 72.5 -20.5t5.5 -77.5l-91 -539q-4 -31 -4 -55.5t32 -42t97 -17.5q41 0 84 10.5t93.5 56.5t62.5 122l68 409h-74q-25 0 -41 3t-32.5 20.5t-10.5 52.5q12 78 113 78h145q59 0 74.5 -20.5t5.5 -77.5l-107 -641h74q25 0 41 -3.5t31.5 -20.5 t9.5 -52q-12 -78 -111 -78h-53q-106 -57 -131 -203q-4 -27 16.5 -45t44.5 -18q20 0 48 16l53 47q16 14 39.5 27.5t38 10.5t26.5 -19q14 -20 14.5 -50t-16.5 -47q-115 -125 -233 -125q-96 0 -144.5 65t-33.5 142q18 109 137 203q-33 10 -35 47q-111 -63 -236 -63 q-299 0 -256 256l82 495h-73q-25 0 -41.5 3t-32.5 20.5t-10 52.5z" />
<glyph unicode="&#x174;" d="M217 1174q12 78 109 77h157q27 0 43.5 -3t31.5 -21.5t9 -52.5q-12 -76 -110 -76h-31l-33 -834l168 445q33 55 103 55q76 0 88 -57l18 -441l242 832h-31q-27 0 -42 3t-30.5 20.5t-9.5 52.5q12 78 109 77h157q25 0 41.5 -3t32.5 -21.5t10 -52.5q-14 -72 -92 -76l-311 -1030 q-27 -84 -113 -84q-78 0 -84 61l-22 481l-191 -491q-35 -51 -100 -51q-16 0 -26.5 2t-26 8t-23.5 25.5t-8 48.5l29 1030q-78 6 -64 76zM469 1438q6 47 129 88l170 57q35 12 66 0l149 -57q53 -23 78.5 -41.5t21.5 -46.5q-14 -80 -88 -80q-16 0 -94 24l-127 41l-143 -41 q-86 -25 -103 -24q-39 0 -52 23.5t-7 56.5z" />
<glyph unicode="&#x175;" d="M166 817q10 76 113 76h229q31 0 48 -3t30.5 -21.5t7.5 -53.5t-26.5 -52.5t-38 -20.5t-48.5 -3h-78l5 -508l120 265q37 53 105 53q55 0 71.5 -26.5t28.5 -133.5l12 -153l170 503h-77q-31 0 -48.5 3t-31 21.5t-6.5 53.5q10 76 112 76h230q29 0 46 -3t31.5 -21.5t10.5 -51.5 q-8 -49 -36 -63.5t-83 -14.5l-227 -657q-16 -49 -38 -69.5t-81 -20.5q-70 0 -90 43l-29 297l-82 -189q-41 -102 -66.5 -126.5t-91.5 -24.5q-63 0 -78.5 20.5t-13.5 69.5l-10 657q-53 0 -75.5 14.5t-14.5 63.5zM401 1038q2 23 18.5 42.5t31 28.5l59.5 36l205 119q37 23 65 0 l164 -119q37 -27 48.5 -37t21.5 -28.5t6 -41.5q-16 -66 -94 -65q-20 0 -80 43l-125 86l-154 -86q-74 -43 -96 -43q-41 0 -57.5 16t-12.5 49z" />
<glyph unicode="&#x176;" d="M231 1176q12 76 109 75h209q25 0 41 -3t31.5 -20.5t9.5 -51.5q-12 -74 -96 -78l118 -416l250 416q-37 2 -55.5 18.5t-11.5 59.5q12 76 106 75h209q27 0 43 -3t31.5 -21.5t9.5 -52.5q-12 -76 -111 -76h-32l-385 -598l-58 -346h33q29 0 44 -3.5t29.5 -21.5t8.5 -53 q-12 -76 -109 -76h-235q-29 0 -45.5 3t-30.5 21.5t-8 53.5q12 76 110 76h33l58 346l-191 598h-33q-27 0 -43 3t-30.5 21.5t-8.5 53.5zM469 1438q6 47 129 88l170 57q35 12 66 0l149 -57q53 -23 78.5 -41.5t21.5 -46.5q-14 -80 -88 -80q-16 0 -94 24l-127 41l-143 -41 q-86 -25 -103 -24q-39 0 -52 23.5t-7 56.5z" />
<glyph unicode="&#x177;" d="M39 -274q6 45 39 73.5t80 28.5q45 0 68.5 -28.5t17.5 -73.5q-4 -18 -19 -33l-12 -12q31 0 78 34.5t86 89.5q14 20 38 67l45 92l25 52l-166 723h-51q-27 0 -43 3t-31.5 20.5t-9.5 52.5q14 78 111 78h233q20 0 32.5 -2t28 -8t20.5 -23.5t1 -44.5q-12 -76 -108 -76h-27 l115 -534l264 534h-33q-20 0 -32.5 2t-28 8.5t-20.5 24t-1 43.5q10 76 109 76h233q20 0 32.5 -2t28 -8t20.5 -23.5t1 -44.5q-12 -76 -108 -76h-49l-455 -899q-16 -29 -35.5 -59.5t-70 -93t-118 -102.5t-139.5 -40q-78 0 -119.5 54.5t-29.5 126.5zM401 1038q2 23 18.5 42.5 t31 28.5l59.5 36l205 119q37 23 65 0l164 -119q37 -27 48.5 -37t21.5 -28.5t6 -41.5q-16 -66 -94 -65q-20 0 -80 43l-125 86l-154 -86q-74 -43 -96 -43q-41 0 -57.5 16t-12.5 49z" />
<glyph unicode="&#x178;" d="M231 1176q12 76 109 75h209q25 0 41 -3t31.5 -20.5t9.5 -51.5q-12 -74 -96 -78l118 -416l250 416q-37 2 -55.5 18.5t-11.5 59.5q12 76 106 75h209q27 0 43 -3t31.5 -21.5t9.5 -52.5q-12 -76 -111 -76h-32l-385 -598l-58 -346h33q29 0 44 -3.5t29.5 -21.5t8.5 -53 q-12 -76 -109 -76h-235q-29 0 -45.5 3t-30.5 21.5t-8 53.5q12 76 110 76h33l58 346l-191 598h-33q-27 0 -43 3t-30.5 21.5t-8.5 53.5zM475 1464q8 45 44 75t81 30t70.5 -30t17.5 -75t-44 -75.5t-81 -30.5t-70.5 30.5t-17.5 75.5zM874.5 1464q8.5 45 44 75t80.5 30t71 -30 t17.5 -75t-44 -75.5t-80.5 -30.5t-71 30.5t-17.5 75.5z" />
<glyph unicode="&#x179;" d="M108.5 36.5q-4.5 18.5 0.5 47.5q6 37 34 70l795 944h-469l-14 -90q-6 -33 -11.5 -48.5t-28 -33t-63.5 -17.5q-39 0 -56 15.5t-15 37t4 46.5l24 145q8 59 32 78.5t83 19.5h668q23 0 35 -2t27 -9t19.5 -25.5t0.5 -47.5q-6 -37 -35 -69l-795 -944h502l20 127q4 25 8.5 38 t14.5 29.5t29.5 23.5t50.5 7q39 0 56 -15.5t15 -37t-4 -45.5l-30 -183q-10 -59 -32 -78.5t-81 -19.5h-703q-23 0 -35 2t-27 9t-19.5 25.5zM557 1473q6 49 72 73l282 119l47 12q37 0 57.5 -24.5t14.5 -61.5q-8 -53 -78 -84l-284 -118q-27 -10 -45 -11q-41 0 -56.5 35t-9.5 60 z" />
<glyph unicode="&#x17a;" d="M78 36.5q-4 18.5 0 47.5q4 31 13 44t50 48l688 563h-442l-6 -37q-6 -33 -11 -49t-28 -32.5t-63 -16.5q-39 0 -55.5 15.5t-15.5 37t3 45.5l16 93q8 57 32 77.5t83 20.5h680q23 0 35 -2t27.5 -9.5t19.5 -25.5t0 -47q-4 -31 -14.5 -45t-51.5 -47l-684 -563h480l8 59 q4 25 8 38t14 29.5t29.5 23.5t50.5 7q39 0 56.5 -15t15.5 -36.5t-4 -46.5l-19 -115q-14 -84 -73 -98h-758q-23 0 -36 2t-28.5 9t-19.5 25.5zM489 1069q8 49 72 74l285 119l47 12q37 0 57.5 -24.5t14.5 -61.5q-8 -55 -80 -84l-285 -119q-25 -10 -45 -10q-29 0 -45 20.5 t-19.5 40t-1.5 33.5z" />
<glyph unicode="&#x17b;" d="M108.5 36.5q-4.5 18.5 0.5 47.5q6 37 34 70l795 944h-469l-14 -90q-6 -33 -11.5 -48.5t-28 -33t-63.5 -17.5q-39 0 -56 15.5t-15 37t4 46.5l24 145q8 59 32 78.5t83 19.5h668q23 0 35 -2t27 -9t19.5 -25.5t0.5 -47.5q-6 -37 -35 -69l-795 -944h502l20 127q4 25 8.5 38 t14.5 29.5t29.5 23.5t50.5 7q39 0 56 -15.5t15 -37t-4 -45.5l-30 -183q-10 -59 -32 -78.5t-81 -19.5h-703q-23 0 -35 2t-27 9t-19.5 25.5zM672 1497q8 47 47 81t88 34t77.5 -34t20.5 -81q-8 -49 -48 -83t-89 -34t-76.5 34t-19.5 83z" />
<glyph unicode="&#x17c;" d="M78 36.5q-4 18.5 0 47.5q4 31 13 44t50 48l688 563h-442l-6 -37q-6 -33 -11 -49t-28 -32.5t-63 -16.5q-39 0 -55.5 15.5t-15.5 37t3 45.5l16 93q8 57 32 77.5t83 20.5h680q23 0 35 -2t27.5 -9.5t19.5 -25.5t0 -47q-4 -31 -14.5 -45t-51.5 -47l-684 -563h480l8 59 q4 25 8 38t14 29.5t29.5 23.5t50.5 7q39 0 56.5 -15t15.5 -36.5t-4 -46.5l-19 -115q-14 -84 -73 -98h-758q-23 0 -36 2t-28.5 9t-19.5 25.5zM610 1126q8 47 47 81t88.5 34t78 -33.5t20.5 -81.5q-10 -49 -49 -82.5t-88.5 -33.5t-77 33.5t-19.5 82.5z" />
<glyph unicode="&#x17d;" d="M108.5 36.5q-4.5 18.5 0.5 47.5q6 37 34 70l795 944h-469l-14 -90q-6 -33 -11.5 -48.5t-28 -33t-63.5 -17.5q-39 0 -56 15.5t-15 37t4 46.5l24 145q8 59 32 78.5t83 19.5h668q23 0 35 -2t27 -9t19.5 -25.5t0.5 -47.5q-6 -37 -35 -69l-795 -944h502l20 127q4 25 8.5 38 t14.5 29.5t29.5 23.5t50.5 7q39 0 56 -15.5t15 -37t-4 -45.5l-30 -183q-10 -59 -32 -78.5t-81 -19.5h-703q-23 0 -35 2t-27 9t-19.5 25.5zM481 1511q14 80 86 80q16 0 95 -24l129 -41l141 41q86 25 102 24q39 0 53.5 -23.5t8.5 -56.5q-6 -47 -129 -88l-170 -57 q-35 -12 -66 0l-149 57q-53 23 -79 41t-22 47z" />
<glyph unicode="&#x17e;" d="M78 36.5q-4 18.5 0 47.5q4 31 13 44t50 48l688 563h-442l-6 -37q-6 -33 -11 -49t-28 -32.5t-63 -16.5q-39 0 -55.5 15.5t-15.5 37t3 45.5l16 93q8 57 32 77.5t83 20.5h680q23 0 35 -2t27.5 -9.5t19.5 -25.5t0 -47q-4 -31 -14.5 -45t-51.5 -47l-684 -563h480l8 59 q4 25 8 38t14 29.5t29.5 23.5t50.5 7q39 0 56.5 -15t15.5 -36.5t-4 -46.5l-19 -115q-14 -84 -73 -98h-758q-23 0 -36 2t-28.5 9t-19.5 25.5zM430 1210q12 66 92 66q20 0 80 -43l125 -86l154 86q80 43 96 43q41 0 58.5 -16.5t13.5 -49.5q-2 -23 -19.5 -42t-32 -28.5 t-59.5 -35.5l-205 -119q-37 -23 -65 0l-164 119q-37 27 -48.5 37t-20.5 28t-5 41z" />
<glyph unicode="&#x17f;" d="M92 78q12 76 113 76h186l96 585h-186q-27 0 -43 3t-31.5 20.5t-9.5 52.5q12 78 113 78h184l14 88q23 131 131.5 207t243.5 76q25 0 49.5 -3.5t64.5 -14.5t60.5 -41.5t12.5 -76.5q-8 -47 -45 -75.5t-76 -28.5q-45 0 -67.5 29.5t-18.5 56.5q-164 0 -189 -139l-135 -817h186 q27 0 43.5 -3.5t32 -21.5t8.5 -53q-12 -76 -110 -76h-541q-27 0 -43 3t-32.5 21.5t-10.5 53.5z" />
<glyph unicode="&#x18e;" d="M66 98l28 176q6 31 11.5 48.5t28 34t61 16.5t57 -14.5t16.5 -36.5l-4 -48l-18 -120h502l69 417h-229q-12 -68 -32.5 -91t-74.5 -23q-39 0 -56 15t-15 36.5t4 46.5l30 186q6 31 11.5 47.5t28 33t61.5 16.5q53 0 65.5 -23.5t1.5 -89.5h230l61 373h-457l-14 -90 q-6 -31 -11 -47.5t-27.5 -34t-61.5 -17.5q-57 0 -70.5 32t0.5 67l25 145q10 57 31.5 77.5t78.5 20.5h746q27 0 43 -3t32.5 -20.5t10.5 -51.5q-12 -78 -113 -78h-43l-155 -944h43q27 0 43 -3.5t31.5 -21.5t8.5 -53q-12 -76 -110 -76h-789q-57 0 -73 19.5t-6 78.5z" />
<glyph unicode="&#x192;" d="M92 78q12 76 113 76h186l96 585h-186q-27 0 -43 3t-31.5 20.5t-9.5 52.5q12 78 113 78h184l14 88q23 131 131.5 207t243.5 76q25 0 49.5 -3.5t64.5 -14.5t60.5 -41.5t12.5 -76.5q-8 -47 -45 -75.5t-76 -28.5q-74 0 -86 86q-164 0 -189 -139l-12 -78h229q27 0 43.5 -3 t29.5 -21.5t7 -53.5q-12 -76 -106 -76h-230l-96 -585h186q27 0 43.5 -3.5t32 -21.5t8.5 -53q-12 -76 -110 -76h-541q-27 0 -43 3t-32.5 21.5t-10.5 53.5z" />
<glyph unicode="&#x1a0;" d="M193 86q-49 104 22 539q72 432 158 540q39 49 108.5 75t123.5 30t143 4q211 0 284 -45l17 6q-53 33 -39 100q6 45 45 79t90 36q59 -2 78.5 -47t11.5 -105q-25 -133 -129 -196q20 -125 -39 -477q-72 -432 -158 -539q-41 -49 -110.5 -74.5t-125 -30t-143.5 -4.5t-141 4.5 t-113 30t-83 74.5zM356 209q27 -78 201 -78t227 78q55 82 115 442q53 330 27 400q-10 25 -31 40t-53.5 21t-55 7t-65.5 1q-55 0 -86 -2t-74 -19.5t-67 -51.5q-51 -74 -107 -396q-60 -364 -31 -442z" />
<glyph unicode="&#x1a1;" d="M184 444q31 188 181 328q145 135 321 135q102 0 182 -49q16 -2 29 2q10 2 25 17q-49 33 -39 98q8 45 46 78.5t89 36.5q59 0 79.5 -45.5t12.5 -104.5q-25 -133 -127 -197q80 -131 51 -299q-29 -184 -178 -321q-145 -135 -323.5 -135t-276.5 135q-101 133 -72 321zM358 463 q-23 -133 37 -227q61 -92 164 -93q106 0 193 93q94 94 116 227q18 119 -41 207q-61 84 -168 84q-102 0 -190 -84q-93 -88 -111 -207z" />
<glyph unicode="&#x1af;" d="M201 1169q6 35 29.5 58.5t56.5 23.5h307q33 0 48 -24.5t9 -57.5q-6 -31 -29.5 -51t-54.5 -20h-67l-111 -674q-23 -125 31 -213q53 -80 137 -80t164 80q82 84 104 213l111 674h-68q-31 0 -47 20.5t-12 50.5q6 35 29.5 58.5t56.5 23.5h168l31 -6q-35 35 -25 90q6 45 45 79 t90 36q59 -2 79 -46t11 -104q-12 -72 -64 -128t-122 -78l-111 -670q-33 -182 -163 -313q-139 -133 -304 -134q-160 0 -256 134q-90 133 -57 313l111 674h-68q-31 0 -47 20t-12 51z" />
<glyph unicode="&#x1b0;" d="M156 809q4 33 29.5 57.5t56.5 24.5h194q31 0 47.5 -20.5t12.5 -51.5l-99 -583q-6 -49 19 -70q31 -23 116 -23q84 0 152 47.5t78 116.5l72 430h-97q-31 0 -47 20.5t-12 51.5q4 33 28.5 57.5t57.5 24.5h194l43 -4q-33 37 -26 88q8 45 47 80t90 35q59 0 78.5 -44.5 t11.5 -103.5q-14 -74 -67.5 -129t-128.5 -80l-97 -579h95q33 0 49 -24t10 -58q-6 -31 -30.5 -51.5t-55.5 -20.5h-193q-53 0 -63 51q-102 -63 -225 -63q-143 0 -211 57q-78 63 -58 191l84 501h-96q-29 0 -46 21.5t-13 50.5z" />
<glyph unicode="&#x1dd;" d="M178 426q6 43 25.5 63.5t36 23.5t49.5 3h575q-8 111 -86 175.5t-184 64.5q-145 0 -211 -111q-18 -33 -37.5 -43t-54.5 -10q-14 0 -29.5 2t-33 20.5t-11.5 49.5q4 25 30.5 61.5t75 79.5t131.5 73.5t179 30.5q199 0 314.5 -135t84.5 -325q-33 -190 -186.5 -325.5 t-337.5 -135.5q-193 0 -277 126t-53 312zM344 365q-6 -121 50.5 -172.5t140.5 -51.5q94 0 177 62.5t126 161.5h-494z" />
<glyph unicode="&#x1e6;" d="M178 627q45 274 213 460.5t357 186.5q127 0 213 -80q31 47 51 63.5t51 16.5q76 0 59 -98l-47 -277q-4 -25 -8 -38t-14.5 -29.5t-29.5 -23.5t-50 -7q-43 0 -57.5 17.5t-14.5 53.5q2 135 -52 191.5t-120 56.5q-117 0 -231.5 -141t-149.5 -354q-35 -207 30.5 -350.5 t184.5 -143.5q78 0 146.5 71.5t109.5 215.5h-65q-27 0 -43.5 3t-31.5 21.5t-9 53.5q12 76 110 75h238q25 0 42 -3t32.5 -21.5t9.5 -50.5q-12 -78 -107 -78l-53 -320q-6 -31 -11 -48t-27.5 -33.5t-61.5 -16.5q-78 0 -74 63q-106 -86 -238 -86q-186 0 -292.5 187t-59.5 463z M481 1511q14 80 86 80q16 0 95 -24l129 -41l141 41q86 25 102 24q39 0 53.5 -23.5t8.5 -56.5q-6 -47 -129 -88l-170 -57q-35 -12 -66 0l-149 57q-53 23 -79 41t-22 47z" />
<glyph unicode="&#x1e7;" d="M31 -147q29 160 184 251q-29 59 -16 140q14 80 59 135q-47 78 -31 190q23 135 140.5 234.5t263.5 99.5q102 0 182 -55q109 66 223 65q82 0 116 -38.5t26 -83.5q-6 -47 -41 -73t-72 -26q-23 0 -47.5 16.5t-30.5 51.5q-51 -10 -86 -25q33 -80 19 -166 q-23 -139 -140.5 -238.5t-261.5 -99.5q-94 0 -164 43q-10 -25 -10 -32v-25q2 -23 10 -37q16 -25 49 -27.5t58 1.5h141q184 0 287 -60q66 -39 90.5 -106.5t13.5 -134.5q-20 -131 -175.5 -220.5t-356.5 -89.5q-203 0 -328 88.5t-102 221.5zM178 -147q-10 -63 79 -110.5 t228.5 -47.5t245 47t115.5 111q6 37 -4.5 65.5t-41 45t-60 25.5t-83 13t-84 5t-88.5 1q-111 0 -142.5 -4t-68.5 -24q-82 -45 -96 -127zM360 1241q12 66 93 66q20 0 79 -43l125 -86l154 86q80 43 96 43q41 0 58.5 -16.5t13.5 -49.5q-2 -23 -19.5 -42t-32 -28.5t-59.5 -35.5 l-204 -119q-37 -23 -66 0l-164 119q-37 27 -48 37t-20.5 28t-5.5 41zM395 567q-12 -74 30 -129t115.5 -55t134 54.5t73.5 131.5q12 74 -30 128.5t-116 54.5q-72 0 -132.5 -53.5t-74.5 -131.5z" />
<glyph unicode="&#x1ea;" d="M170 173q-4 79 5 179.5t38 272.5q27 160 47.5 256t52 176t62.5 116.5t89 62.5t119.5 32t166.5 6q78 0 128 -3t96 -15.5t70.5 -30t44 -54t23.5 -79.5t1 -116t-13 -153t-31 -198q-37 -225 -67.5 -341t-87 -190t-128 -93t-204.5 -24q-98 -74 -117 -180q-4 -27 16.5 -45 t46.5 -18q18 0 45 16q109 94 160 66q12 -12 12 -46t-16 -51q-115 -125 -231 -125q-96 0 -145.5 65t-35.5 142q14 92 109 179q-88 6 -138 24.5t-82 54t-36 114.5zM346 262q6 -74 50 -102.5t163 -28.5q123 0 176 31t82 110q39 102 84 371q45 266 37 361q-8 72 -55 94t-160 22 q-119 0 -173 -27.5t-91 -117.5q-29 -78 -74 -332q-45 -301 -39 -381z" />
<glyph unicode="&#x1eb;" d="M184 446q33 195 181.5 329t322.5 134q176 0 278.5 -135t69.5 -328q-29 -174 -156.5 -303t-285.5 -151q-115 -70 -137 -195q-4 -27 16.5 -45t44.5 -18q23 0 45 16q109 94 160 66q14 -14 13 -47t-17 -50q-111 -125 -232 -125q-96 0 -144 65t-34 142q16 102 131 199 q-135 37 -209 158.5t-47 287.5zM358 461q-23 -131 38 -225.5t165.5 -94.5t195.5 94.5t113 225.5q20 127 -41 211t-165 84q-102 0 -194 -85t-112 -210z" />
<glyph unicode="&#x1f4;" d="M178 627q45 274 213 460.5t357 186.5q127 0 213 -80q31 47 51 63.5t51 16.5q76 0 59 -98l-47 -277q-4 -25 -8 -38t-14.5 -29.5t-29.5 -23.5t-50 -7q-43 0 -57.5 17.5t-14.5 53.5q2 135 -52 191.5t-120 56.5q-117 0 -231.5 -141t-149.5 -354q-35 -207 30.5 -350.5 t184.5 -143.5q78 0 146.5 71.5t109.5 215.5h-65q-27 0 -43.5 3t-31.5 21.5t-9 53.5q12 76 110 75h238q25 0 42 -3t32.5 -21.5t9.5 -50.5q-12 -78 -107 -78l-53 -320q-6 -31 -11 -48t-27.5 -33.5t-61.5 -16.5q-78 0 -74 63q-106 -86 -238 -86q-186 0 -292.5 187t-59.5 463z M557 1473q6 49 72 73l282 119l47 12q37 0 57.5 -24.5t14.5 -61.5q-8 -53 -78 -84l-284 -118q-27 -10 -45 -11q-41 0 -56.5 35t-9.5 60z" />
<glyph unicode="&#x1f5;" d="M31 -147q29 160 184 251q-29 59 -16 140q14 80 59 135q-47 78 -31 190q23 135 140.5 234.5t263.5 99.5q102 0 182 -55q109 66 223 65q82 0 116 -38.5t26 -83.5q-6 -47 -41 -73t-72 -26q-23 0 -47.5 16.5t-30.5 51.5q-51 -10 -86 -25q33 -80 19 -166 q-23 -139 -140.5 -238.5t-261.5 -99.5q-94 0 -164 43q-10 -25 -10 -32v-25q2 -23 10 -37q16 -25 49 -27.5t58 1.5h141q184 0 287 -60q66 -39 90.5 -106.5t13.5 -134.5q-20 -131 -175.5 -220.5t-356.5 -89.5q-203 0 -328 88.5t-102 221.5zM178 -147q-10 -63 79 -110.5 t228.5 -47.5t245 47t115.5 111q6 37 -4.5 65.5t-41 45t-60 25.5t-83 13t-84 5t-88.5 1q-111 0 -142.5 -4t-68.5 -24q-82 -45 -96 -127zM395 567q-12 -74 30 -129t115.5 -55t134 54.5t73.5 131.5q12 74 -30 128.5t-116 54.5q-72 0 -132.5 -53.5t-74.5 -131.5zM420 1100 q8 49 72 74l284 118l47 13q37 0 57.5 -25t14.5 -61q-8 -55 -80 -84l-285 -119q-25 -10 -45 -10q-29 0 -45 20.5t-19 40t-1 33.5z" />
<glyph unicode="&#x1fa;" d="M63 76q8 49 56 71q18 6 82 7l411 1034q25 59 51.5 73.5t86 14.5t82 -15.5t26.5 -74.5l68 -1032q61 0 78 -9q41 -18 30 -69q-12 -76 -114 -76h-203q-31 0 -47.5 3t-31.5 20.5t-9 52.5q8 47 34.5 61.5t88.5 16.5l-11 176h-299l-67 -176q59 -2 80.5 -16.5t13.5 -61.5 q-6 -35 -26.5 -52.5t-38 -20.5t-48.5 -3h-202q-27 0 -45.5 3t-35 21.5t-10.5 51.5zM504 483h225l-22 533zM592 1686q8 49 72 73l284 119l47 12q37 0 57.5 -24.5t14.5 -61.5q-8 -53 -80 -84l-285 -118q-25 -10 -45 -11q-29 0 -45 20.5t-19 40.5t-1 34zM596 1415 q10 53 67.5 94t133 41t121 -41t34.5 -94q-10 -55 -67.5 -97t-133 -42t-120.5 42t-35 97zM711 1413q-2 -18 15 -29.5t42 -11.5t46.5 11.5t23.5 30t-15.5 29.5t-42.5 11q-63 0 -69 -41z" />
<glyph unicode="&#x1fb;" d="M154 272q25 143 200.5 224.5t450.5 87.5q8 88 -47.5 130t-161.5 42l-100 -6q-10 -57 -48 -83t-75 -26q-43 0 -68.5 28.5t-17.5 78.5q29 162 331 161q207 0 292 -98t65 -225l-70 -420q29 -12 103 -12q27 0 42 -3.5t30.5 -20.5t9.5 -52q-8 -51 -38 -64.5t-91 -13.5 q-166 0 -209 59q-131 -72 -299 -71q-156 0 -236.5 84.5t-62.5 199.5zM322 272q-10 -55 37 -93t130 -38q102 0 177 33q35 14 54 34.5t23.5 34t8.5 40.5l24 151q-199 -8 -320.5 -51t-133.5 -111zM551 1444q8 49 72 74l284 118l47 13q37 0 57.5 -25t14.5 -61q-8 -53 -80 -84 l-282 -119q-27 -10 -46 -10q-41 0 -55 33.5t-12 60.5zM555 1174q10 53 67.5 94t133 41t121 -41t34.5 -94q-8 -55 -66.5 -97.5t-134 -42.5t-119.5 42.5t-36 97.5zM670 1171.5q-2 -18.5 15 -30t42 -11.5t46.5 11.5t23.5 30t-14.5 29.5t-41 11t-47 -11t-24.5 -29.5z" />
<glyph unicode="&#x1fc;" d="M55 76q8 47 36 62.5t77 15.5l348 944q-74 4 -61 78q12 76 106 75h561q59 0 74.5 -20.5t5.5 -77.5l-24 -145q-16 -98 -88 -98.5t-56 98.5l15 90h-199l-62 -373h216q27 0 43 -3t30.5 -21.5t7.5 -53.5q-12 -76 -106 -76h-215l-70 -417h215l19 120q16 98 87.5 98.5 t55.5 -98.5l-29 -176q-10 -59 -32.5 -78.5t-79.5 -19.5h-387q-27 0 -44.5 3t-32.5 21.5t-9 53.5q14 72 94 76l35 211h-193l-78 -211q41 -2 61.5 -17.5t12.5 -60.5q-12 -76 -108 -76h-142q-27 0 -43 3t-31.5 20.5t-9.5 52.5zM446 518h162l97 580h-46zM557 1473q6 49 72 73 l282 119l47 12q37 0 57.5 -24.5t14.5 -61.5q-8 -53 -78 -84l-284 -118q-27 -10 -45 -11q-41 0 -56.5 35t-9.5 60z" />
<glyph unicode="&#x1fd;" d="M106 252q18 123 144.5 196.5t302.5 77.5l8 52q29 178 -112 178q-18 0 -37 -11q-25 -104 -121 -104q-45 0 -70.5 28.5t-17.5 78.5q12 66 76.5 113.5t199.5 47.5q145 0 209 -129q104 129 234 129q117 0 173 -113.5t21 -314.5q-10 -59 -30.5 -79.5t-81.5 -20.5h-326 q-2 -109 41 -174.5t106 -65.5q51 0 90 68q23 47 44.5 71.5t56.5 24.5q31 0 47 -21.5t12 -50.5q-4 -31 -34.5 -84t-100.5 -107t-152 -54q-123 0 -204 127q-51 -59 -127 -93t-152 -34q-109 0 -163 81t-36 183zM246 254q-8 -43 16.5 -78t75.5 -35q57 0 113 39q39 31 53 103 l18 94q-115 -6 -191.5 -38t-84.5 -85zM494 1096q8 49 71 73l285 119l47 12q37 0 57.5 -24.5t14.5 -61.5q-8 -55 -80 -84l-285 -118q-25 -10 -45 -11q-29 0 -45 20.5t-19 40.5t-1 34zM709 532h274q23 223 -80 224q-55 0 -111 -68t-83 -156z" />
<glyph unicode="&#x1fe;" d="M170 307q4 78 43 318q27 160 47.5 256t52 176t62.5 116.5t89 62.5t119.5 32t166.5 6q82 0 127 -4l38 80q35 72 89 71l20 -4q18 -2 34.5 -21.5t12.5 -49.5l-49 -111q82 -43 91 -175t-44 -435q-20 -119 -35.5 -199t-37 -152.5t-40 -115.5t-50.5 -79t-62.5 -53.5 t-81.5 -29.5t-101.5 -15.5t-128.5 -3.5q-82 0 -129 5l-36 -80q-35 -72 -88 -72l-21 2q-18 4 -34.5 23.5t-12.5 50.5l49 110q-61 33 -79.5 99.5t-10.5 191.5zM342 184l457 934q-25 2 -78 2q-125 0 -184.5 -22.5t-94.5 -100.5q-41 -94 -88 -372q-63 -384 -12 -441zM483 133 q25 -2 78 -2q125 0 184.5 22.5t94.5 100.5q41 94 88 373q63 383 12 440zM530 1473q6 49 72 73l283 119l47 12q37 0 57.5 -24.5t14.5 -61.5q-8 -53 -78 -84l-285 -118q-27 -10 -45 -11q-41 0 -56.5 35t-9.5 60z" />
<glyph unicode="&#x1ff;" d="M49 -203q4 20 49 84l164 215q-133 141 -100 350q33 190 186.5 326.5t339.5 136.5q88 0 158 -30l184 247q31 45 74 45q27 0 50.5 -20.5t16.5 -54.5q0 -16 -24 -49l-184 -250q129 -150 96 -351q-31 -190 -185.5 -324t-338.5 -134q-86 0 -154 30l-188 -251q-31 -45 -76 -46 q-27 0 -50.5 20.5t-17.5 55.5zM303 446q-20 -123 55 -217l385 516q-33 10 -81 11q-127 0 -233 -90.5t-126 -219.5zM479 1069q8 49 72 74l285 119l47 12q37 0 57.5 -24.5t13.5 -61.5q-8 -55 -80 -84l-284 -119q-25 -10 -45 -10q-29 0 -45.5 20.5t-19.5 40t-1 33.5zM483 152 q31 -10 80 -11q127 0 230.5 89t124.5 216q25 127 -52 220z" />
<glyph unicode="&#x200;" d="M63 76q8 49 56 71q18 6 82 7l411 1034q25 59 51.5 73.5t86 14.5t82 -15.5t26.5 -74.5l68 -1032q61 0 78 -9q41 -18 30 -69q-12 -76 -114 -76h-203q-31 0 -47.5 3t-31.5 20.5t-9 52.5q8 47 34.5 61.5t88.5 16.5l-11 176h-299l-67 -176q59 -2 80.5 -16.5t13.5 -61.5 q-6 -35 -26.5 -52.5t-38 -20.5t-48.5 -3h-202q-27 0 -45.5 3t-35 21.5t-10.5 51.5zM381 1602q6 35 35.5 61.5t64.5 26.5q31 0 78 -41l82 -90q51 -55 45 -86t-39 -63t-63 -32q-33 0 -74 45l-82 88q-53 46 -47 91zM504 483h225l-22 533zM778 1602q6 35 36 61.5t65 26.5 q31 0 77 -41l82 -90q51 -55 45 -86t-38.5 -63t-63.5 -32q-33 0 -74 45l-82 88q-53 46 -47 91z" />
<glyph unicode="&#x201;" d="M154 272q25 143 200.5 224.5t450.5 87.5q8 88 -47.5 130t-161.5 42l-100 -6q-10 -57 -48 -83t-75 -26q-43 0 -68.5 28.5t-17.5 78.5q29 162 331 161q207 0 292 -98t65 -225l-70 -420q29 -12 103 -12q27 0 42 -3.5t30.5 -20.5t9.5 -52q-8 -51 -38 -64.5t-91 -13.5 q-166 0 -209 59q-131 -72 -299 -71q-156 0 -236.5 84.5t-62.5 199.5zM322 272q-10 -55 37 -93t130 -38q102 0 177 33q35 14 54 34.5t23.5 34t8.5 40.5l24 151q-199 -8 -320.5 -51t-133.5 -111zM377 1219q6 35 35.5 61.5t64.5 26.5q31 0 78 -41l82 -90q49 -53 45 -86 q-6 -31 -39 -63t-63 -32q-33 0 -74 45l-82 88q-55 48 -47 91zM774 1219q6 35 36 61.5t64 26.5q31 0 78 -41l82 -90q49 -53 45 -86q-6 -31 -38.5 -63t-63.5 -32q-33 0 -74 45l-82 88q-55 48 -47 91z" />
<glyph unicode="&#x204;" d="M61 76q12 78 113 78h43l156 944h-43q-27 0 -43.5 3t-31.5 21.5t-9 53.5q12 76 110 75h746q57 0 72.5 -20.5t5.5 -77.5l-25 -145q-6 -33 -11 -48.5t-27.5 -33t-63.5 -17.5q-39 0 -56.5 15.5t-15.5 37t4 46.5l14 90h-456l-62 -373h230q14 68 32.5 90.5t71.5 22.5 q39 0 56.5 -15.5t15.5 -36t-4 -45.5l-31 -186q-6 -31 -11 -48.5t-27.5 -33.5t-61.5 -16q-53 0 -65.5 25.5t-0.5 88.5h-229l-70 -417h502l18 120q4 25 8.5 38.5t14.5 29.5t29.5 23.5t50.5 7.5q39 0 56 -15.5t15 -37t-4 -46.5l-28 -176q-10 -59 -33 -78.5t-80 -19.5h-789 q-27 0 -43 3t-32.5 20.5t-10.5 52.5zM440 1602q6 35 36 61.5t65 26.5q31 0 77 -41l82 -90q51 -55 45 -86t-38.5 -63t-63.5 -32q-33 0 -74 45l-82 88q-53 46 -47 91zM838 1602q6 35 35.5 61.5t64.5 26.5q31 0 78 -41l82 -90q51 -55 45 -86t-39 -63t-64 -32q-33 0 -73 45 l-82 88q-53 46 -47 91z" />
<glyph unicode="&#x205;" d="M182 449q31 190 184.5 325t338.5 135q193 0 277.5 -126t51.5 -312q-6 -43 -25.5 -63.5t-36 -23.5t-48.5 -3h-576q8 -111 87 -175.5t186 -64.5q143 0 210 111q18 33 37 43t54 10q14 0 29.5 -2t32.5 -20.5t11 -49.5q-4 -25 -30.5 -61.5t-74.5 -79.5t-131 -73.5t-179 -30.5 q-199 0 -315 135.5t-83 325.5zM375 532h493q6 121 -49 172.5t-139 51.5q-94 0 -179 -63t-126 -161zM377 1219q6 35 35.5 61.5t64.5 26.5q31 0 78 -41l82 -90q49 -53 45 -86q-6 -31 -39 -63t-63 -32q-33 0 -74 45l-82 88q-55 48 -47 91zM774 1219q6 35 36 61.5t64 26.5 q31 0 78 -41l82 -90q49 -53 45 -86q-6 -31 -38.5 -63t-63.5 -32q-33 0 -74 45l-82 88q-55 48 -47 91z" />
<glyph unicode="&#x208;" d="M168 78q12 76 113 76h198l156 944h-199q-27 0 -43 3t-31.5 21.5t-9.5 53.5q12 76 111 75h567q27 0 43.5 -3t32.5 -21.5t10 -52.5q-12 -76 -112 -76h-199l-156 -944h199q27 0 43 -3.5t31.5 -21.5t9.5 -53q-12 -76 -111 -76h-567q-27 0 -43 3t-32.5 21.5t-10.5 53.5z M440 1602q6 35 36 61.5t65 26.5q31 0 77 -41l82 -90q51 -55 45 -86t-38.5 -63t-63.5 -32q-33 0 -74 45l-82 88q-53 46 -47 91zM838 1602q6 35 35.5 61.5t64.5 26.5q31 0 78 -41l82 -90q51 -55 45 -86t-39 -63t-64 -32q-33 0 -73 45l-82 88q-53 46 -47 91z" />
<glyph unicode="&#x209;" d="M166 76q12 78 113 78h225l96 585h-209q-18 0 -30.5 2t-29 8.5t-22.5 24t-2 43.5q10 76 111 76h282q59 0 75 -20.5t5 -77.5l-106 -641h192q27 0 43.5 -3.5t31.5 -21.5t9 -53q-12 -76 -110 -76h-588q-27 0 -43 3t-32.5 20.5t-10.5 52.5zM373 1192q6 35 35.5 61.5t64.5 26.5 q31 0 78 -41l82 -90q49 -53 45 -86q-6 -31 -39 -62.5t-64 -31.5q-33 0 -73 45l-82 88q-55 47 -47 90zM770 1192q6 35 36 61.5t64 26.5q31 0 78 -41l82 -90q49 -53 45 -86q-6 -31 -38.5 -62.5t-63.5 -31.5q-33 0 -74 45l-82 88q-55 47 -47 90z" />
<glyph unicode="&#x20c;" d="M169 194.5q-5 79.5 6 175t38 255t47.5 256t52 176.5t62.5 116.5t89 62.5t119.5 32t166.5 6q78 0 128 -3t96 -15.5t70.5 -30t44 -54t23.5 -79.5t1 -116t-13 -153t-30.5 -198.5t-36 -198.5t-37 -152.5t-40 -115.5t-50.5 -79t-62.5 -53.5t-81.5 -29.5t-101.5 -15.5 t-128.5 -3.5q-104 0 -163.5 5.5t-108.5 32t-67.5 63.5t-23.5 116.5zM346 262q6 -74 50 -102.5t163 -28.5q123 0 176 31t82 110q39 102 84 371q45 266 37 361q-8 72 -55 94t-160 22q-119 0 -173 -27.5t-91 -117.5q-29 -78 -74 -332q-45 -301 -39 -381zM440 1602q6 35 36 61.5 t65 26.5q31 0 77 -41l82 -90q51 -55 45 -86t-38.5 -63t-63.5 -32q-33 0 -74 45l-82 88q-53 46 -47 91zM838 1602q6 35 35.5 61.5t64.5 26.5q31 0 78 -41l82 -90q51 -55 45 -86t-39 -63t-64 -32q-33 0 -73 45l-82 88q-53 46 -47 91z" />
<glyph unicode="&#x20d;" d="M184.5 446.5q32.5 194.5 181 328.5t322.5 134q176 0 278.5 -135t70 -327.5t-181 -325.5t-320.5 -133q-174 0 -278.5 132t-72 326.5zM358 461q-23 -131 38 -225.5t165.5 -94.5t195.5 94.5t113 225.5q20 127 -41 211t-165 84q-102 0 -194 -85t-112 -210zM377 1219 q6 35 35.5 61.5t64.5 26.5q31 0 78 -41l82 -90q49 -53 45 -86q-6 -31 -39 -63t-63 -32q-33 0 -74 45l-82 88q-55 48 -47 91zM774 1219q6 35 36 61.5t64 26.5q31 0 78 -41l82 -90q49 -53 45 -86q-6 -31 -38.5 -63t-63.5 -32q-33 0 -74 45l-82 88q-55 48 -47 91z" />
<glyph unicode="&#x210;" d="M55 76q12 78 109 78h35l155 944h-35q-27 0 -42 3t-29.5 20.5t-7.5 52.5q12 78 106 77h354q178 0 273.5 -105.5t70.5 -246.5q-10 -72 -61 -148.5t-143 -129.5q49 -49 65 -113q10 -51 -12 -195q-10 -61 -14.5 -93t1 -60.5t23.5 -28.5q20 0 29 49q16 100 102 101 q20 0 34.5 -2.5t28 -21.5t7.5 -56q-12 -76 -72.5 -150t-152.5 -74q-115 0 -156 101q-18 66 -16 105.5t22 156.5q12 55 11 94t-23 64q-51 51 -144 51h-139l-65 -395h32q27 0 43.5 -3.5t30.5 -21.5t8 -53q-12 -76 -108 -76h-238q-27 0 -42 3t-30.5 20.5t-9.5 52.5zM381 1602 q6 35 35.5 61.5t64.5 26.5q31 0 78 -41l82 -90q51 -55 45 -86t-39 -63t-63 -32q-33 0 -74 45l-82 88q-53 46 -47 91zM457 702h129q119 0 197.5 60.5t90.5 136.5q14 76 -44 137.5t-179 61.5h-129zM778 1602q6 35 36 61.5t65 26.5q31 0 77 -41l82 -90q51 -55 45 -86t-38.5 -63 t-63.5 -32q-33 0 -74 45l-82 88q-53 46 -47 91z" />
<glyph unicode="&#x211;" d="M74 78q12 76 110 76h146l96 585h-145q-20 0 -32.5 2t-28 8.5t-20.5 24t-1 43.5q10 76 108 76h219q59 0 74.5 -20.5t5.5 -77.5l-6 -29q162 137 348 137q119 0 155 -44t25 -95q-8 -45 -41.5 -72.5t-74.5 -27.5t-66.5 24.5t-19.5 61.5q-156 -4 -260.5 -112t-126.5 -251 l-39 -233h205q27 0 43 -3.5t31.5 -21.5t8.5 -53q-12 -76 -110 -76h-520q-27 0 -43.5 3t-31.5 21.5t-9 53.5zM373 1192q6 35 35.5 61.5t64.5 26.5q31 0 78 -41l82 -90q49 -53 45 -86q-6 -31 -39 -62.5t-64 -31.5q-33 0 -73 45l-82 88q-55 47 -47 90zM770 1192q6 35 36 61.5 t64 26.5q31 0 78 -41l82 -90q49 -53 45 -86q-6 -31 -38.5 -62.5t-63.5 -31.5q-33 0 -74 45l-82 88q-55 47 -47 90z" />
<glyph unicode="&#x214;" d="M203 1176q12 76 110 75h256q27 0 43.5 -3t33 -20.5t9.5 -51.5q-12 -78 -112 -78h-43l-111 -666q-23 -141 31.5 -221t138.5 -80q82 0 164 81t104 220l111 666h-43q-27 0 -43 3t-31.5 21.5t-9.5 53.5q12 76 111 75h256q27 0 43 -3t32.5 -20.5t10.5 -51.5q-12 -78 -113 -78 h-43l-111 -674q-31 -188 -169 -317.5t-295.5 -129.5t-251 129.5t-62.5 317.5l111 674h-43q-27 0 -43.5 3t-31.5 21.5t-9 53.5zM440 1602q6 35 36 61.5t65 26.5q31 0 77 -41l82 -90q51 -55 45 -86t-38.5 -63t-63.5 -32q-33 0 -74 45l-82 88q-53 46 -47 91zM838 1602 q6 35 35.5 61.5t64.5 26.5q31 0 78 -41l82 -90q51 -55 45 -86t-39 -63t-64 -32q-33 0 -73 45l-82 88q-53 46 -47 91z" />
<glyph unicode="&#x215;" d="M158 815q12 78 110 78h146q59 0 74.5 -20.5t5.5 -77.5l-91 -539q-4 -31 -4 -55.5t31 -42t96 -17.5q41 0 84 10.5t94.5 56.5t63.5 122l68 409h-74q-25 0 -41 3t-32.5 20.5t-10.5 52.5q12 78 113 78h145q59 0 74.5 -20.5t5.5 -77.5l-107 -641h74q25 0 40 -3.5t30.5 -21.5 t9.5 -51q-12 -78 -109 -78h-145q-80 0 -86 51q-106 -63 -234 -63q-133 0 -207.5 58t-50.5 198l82 495h-73q-16 0 -28.5 2t-29 8.5t-22.5 22.5t-2 43zM373 1192q6 35 35.5 61.5t64.5 26.5q31 0 78 -41l82 -90q49 -53 45 -86q-6 -31 -39 -62.5t-64 -31.5q-33 0 -73 45l-82 88 q-55 47 -47 90zM770 1192q6 35 36 61.5t64 26.5q31 0 78 -41l82 -90q49 -53 45 -86q-6 -31 -38.5 -62.5t-63.5 -31.5q-33 0 -74 45l-82 88q-55 47 -47 90z" />
<glyph unicode="&#x218;" d="M115 76l45 264q6 33 11 48t27.5 31.5t61.5 16.5q37 0 54.5 -12t16.5 -31.5t-1 -40.5q-14 -106 69 -168q78 -53 205 -53q104 0 177 63.5t87 143.5q29 168 -176 209l-221 55q-121 35 -176 127t-37 201q23 139 150 241.5t294 102.5q158 0 256 -82q37 82 97 82q76 0 59 -98 l-45 -265q-4 -23 -8 -36t-14.5 -29.5t-30 -23.5t-49.5 -7q-39 0 -55.5 14.5t-16.5 53.5q0 238 -221 237q-96 0 -170 -54t-86 -128q-10 -61 25.5 -107.5t95.5 -64.5l153 -37q127 -31 177.5 -53.5t101.5 -79.5q82 -106 57 -248q-25 -147 -151.5 -259t-301.5 -112 q-193 0 -305 82q-23 -45 -43 -63.5t-53 -18.5q-75 1 -59 99zM332 -397q6 39 61 57q70 16 107 86h-6q-45 0 -73 32t-20 81q8 43 44 74.5t87 31.5q57 0 91 -45t22 -119q-20 -117 -113.5 -189.5t-148.5 -72.5q-25 0 -40 20.5t-11 43.5z" />
<glyph unicode="&#x219;" d="M156 86l32 193q4 25 8.5 38t14.5 29t29.5 23.5t50.5 7.5q43 0 56 -15.5t18 -54.5q27 -166 213 -166q121 0 185 35t75 90q4 33 -14.5 56.5t-61.5 39t-71.5 21.5t-76.5 14q-70 10 -113.5 19.5t-101 30t-89 46t-50 68.5t-8.5 98q6 35 25.5 71t63.5 80t134 71.5t213 27.5 q119 0 199 -35q27 35 76 35q74 0 59 -96l-23 -139q-4 -23 -8 -36t-14 -29.5t-29.5 -23.5t-50.5 -7q-51 0 -63.5 21.5t-6.5 59.5q2 43 -32.5 70t-135.5 27q-121 0 -184 -28t-69 -69q-10 -57 94 -81l200 -37q31 -4 59.5 -11.5t80 -28t85 -48t55 -76.5t11.5 -111 q-6 -43 -30.5 -86t-71.5 -89t-135 -74.5t-205 -28.5q-150 0 -240 67q-39 -68 -94 -67q-75 0 -59 98zM332 -397q6 39 61 57q70 16 107 86h-6q-45 0 -73 32t-20 81q8 43 44 74.5t87 31.5q57 0 91 -45t22 -119q-20 -117 -113.5 -189.5t-148.5 -72.5q-25 0 -40 20.5t-11 43.5z " />
<glyph unicode="&#x21a;" d="M213 961.5q2 21.5 4 46.5l25 145q8 59 31.5 78.5t82.5 19.5h781q59 0 74.5 -20.5t5.5 -77.5l-25 -145q-6 -31 -12 -48.5t-29 -34t-61.5 -16.5t-56 15.5t-15.5 37t4 46.5l14 90h-231l-156 -944h88q27 0 43.5 -3.5t30.5 -21.5t8 -53q-12 -76 -108 -76h-346q-27 0 -43.5 3 t-32 21.5t-8.5 53.5q12 76 110 76h88l156 944h-234l-14 -90q-6 -31 -12 -48.5t-28.5 -34t-61.5 -16.5t-56.5 15.5t-15.5 37zM332 -397q6 39 61 57q70 16 107 86h-6q-45 0 -73 32t-20 81q8 43 44 74.5t87 31.5q57 0 91 -45t22 -119q-20 -117 -113.5 -189.5t-148.5 -72.5 q-25 0 -40 20.5t-11 43.5z" />
<glyph unicode="&#x21b;" d="M182 815q12 78 111 78h158l24 147q4 23 8 36.5t14.5 29.5t30 23.5t50.5 7.5q39 0 55 -15.5t15 -36t-3 -45.5l-24 -147h311q20 0 32.5 -2t28 -8t20.5 -23.5t1 -44.5q-12 -76 -109 -76h-311l-76 -460q-27 -137 115 -138q29 0 59.5 8.5t64.5 39t44 81.5q4 27 10 43.5 t27.5 31.5t58.5 15q39 0 57.5 -14t17.5 -34.5t-3 -43.5q-23 -133 -132.5 -206.5t-238.5 -73.5t-202.5 68.5t-49.5 211.5l78 471h-160q-27 0 -42 3t-30.5 20.5t-9.5 52.5zM332 -397q6 39 61 57q70 16 107 86h-6q-45 0 -73 32t-20 81q8 43 44 74.5t87 31.5q57 0 91 -45 t22 -119q-20 -117 -113.5 -189.5t-148.5 -72.5q-25 0 -40 20.5t-11 43.5z" />
<glyph unicode="&#x258;" d="M145 233q12 72 99 72q35 0 50 -10t23 -43q29 -111 175 -111q106 0 205.5 64.5t144.5 175.5h-576q-33 0 -49 3t-27.5 23.5t-5.5 63.5q33 188 159 313t319 125q184 0 292.5 -135t77.5 -325q-33 -190 -193.5 -325.5t-359.5 -135.5q-180 0 -262 89.5t-72 155.5zM371 532h493 q-8 98 -70.5 161t-156.5 63q-198 -1 -266 -224z" />
<glyph unicode="&#x259;" d="M178 426q6 43 25.5 63.5t36 23.5t49.5 3h575q-8 111 -86 175.5t-184 64.5q-145 0 -211 -111q-18 -33 -37.5 -43t-54.5 -10q-14 0 -29.5 2t-33 20.5t-11.5 49.5q4 25 30.5 61.5t75 79.5t131.5 73.5t179 30.5q199 0 314.5 -135t84.5 -325q-33 -190 -186.5 -325.5 t-337.5 -135.5q-193 0 -277 126t-53 312zM344 365q-6 -121 50.5 -172.5t140.5 -51.5q94 0 177 62.5t126 161.5h-494z" />
<glyph unicode="&#x2be;" d="M342 551q6 41 36 64.5t66 23.5q78 0 72 -82h64q115 0 173 69.5t70 139.5q14 86 -35 146.5t-131 60.5q-86 0 -131 -72q-25 -45 -77 -45q-12 0 -25.5 2t-28 18.5t-10.5 43.5q2 14 19.5 40.5t50 62.5t95 60.5t138.5 24.5q143 0 224 -101.5t59 -240.5q-20 -125 -128 -234.5 t-286 -109.5q-37 0 -68.5 4t-72.5 15.5t-61.5 39t-12.5 70.5z" />
<glyph unicode="&#x2bf;" d="M358 764q20 125 128 234.5t286 109.5q37 0 68.5 -4t72.5 -15.5t62.5 -39t13.5 -70.5q-8 -41 -36.5 -64.5t-65.5 -23.5q-80 0 -74 82h-63q-115 0 -173.5 -69.5t-70.5 -139.5q-14 -86 35 -146.5t131 -60.5q94 0 131 72q27 45 80 45q12 0 25.5 -2t27.5 -18.5t10 -43.5 q-6 -45 -85 -116.5t-220 -71.5q-143 0 -224.5 101.5t-58.5 240.5z" />
<glyph unicode="&#x2c6;" d="M401 1038q2 23 18.5 42.5t31 28.5l59.5 36l205 119q37 23 65 0l164 -119q37 -27 48.5 -37t21.5 -28.5t6 -41.5q-16 -66 -94 -65q-20 0 -80 43l-125 86l-154 -86q-74 -43 -96 -43q-41 0 -57.5 16t-12.5 49z" />
<glyph unicode="&#x2c7;" d="M430 1210q12 66 92 66q20 0 80 -43l125 -86l154 86q80 43 96 43q41 0 58.5 -16.5t13.5 -49.5q-2 -23 -19.5 -42t-32 -28.5t-59.5 -35.5l-205 -119q-37 -23 -65 0l-164 119q-37 27 -48.5 37t-20.5 28t-5 41z" />
<glyph unicode="&#x2d8;" d="M369 1176q14 78 90 77q63 0 63 -69q4 -29 209 -29t217 29q8 20 15.5 31.5t27 24.5t45.5 13q37 0 54.5 -20.5t11.5 -56.5q-10 -61 -52 -100.5t-109 -55.5t-117 -20.5t-119.5 -4.5t-117.5 4.5t-109.5 20.5t-90 55.5t-18.5 100.5z" />
<glyph unicode="&#x2d9;" d="M610 1126q8 47 47 81t88.5 34t78 -33.5t20.5 -81.5q-10 -49 -49 -82.5t-88.5 -33.5t-77 33.5t-19.5 82.5z" />
<glyph unicode="&#x2da;" d="M551 1147q10 53 67.5 94t133 41t121 -41t34.5 -94q-8 -55 -66.5 -97t-134 -42t-119.5 42t-36 97zM666 1144.5q-2 -18.5 15 -29.5t42 -11t46.5 11t23.5 29.5t-14.5 30t-41 11.5t-47 -11.5t-24.5 -30z" />
<glyph unicode="&#x2db;" d="M287 -199q12 70 68.5 136.5t133.5 111.5l156 4v-30q-80 -20 -138 -84t-73 -142q-4 -27 16.5 -45t45.5 -18q20 0 47 16q104 94 157 66q14 -14 13.5 -47t-15.5 -50q-115 -125 -233 -125q-96 0 -144 64.5t-34 142.5z" />
<glyph unicode="&#x2dc;" d="M352 1069q6 47 125 123q100 70 176 70q68 0 133 -72q35 -39 45 -39q33 0 144 84q35 27 61 27q31 0 49.5 -25t14.5 -55q-8 -47 -125 -123q-106 -70 -174 -70q-76 0 -133 74q-37 37 -45 37q-41 0 -144 -84q-35 -27 -61 -27q-31 0 -50.5 25.5t-15.5 54.5z" />
<glyph unicode="&#x2dd;" d="M356 1063q4 31 74 86l111 90q59 41 90 41q35 0 56.5 -26.5t14.5 -61.5q-8 -43 -75 -90l-111 -88q-59 -45 -90 -45t-53.5 31.5t-16.5 62.5zM754 1063q4 31 73 86l111 90q59 41 90 41q35 0 56.5 -26.5t15.5 -61.5q-8 -43 -76 -90l-111 -88q-59 -45 -89.5 -45t-53 31.5 t-16.5 62.5z" />
<glyph unicode="&#x300;" horiz-adv-x="0" d="M-567 1188q6 37 34.5 61.5t65.5 24.5l43 -12l244 -119q29 -12 41 -27.5t6 -46.5q-2 -23 -29.5 -58.5t-68.5 -35.5q-16 0 -41 10l-244 119q-59 27 -51 84z" />
<glyph unicode="&#x301;" horiz-adv-x="0" d="M-586 1069q8 49 72 74l285 119l47 12q37 0 57.5 -24.5t13.5 -61.5q-8 -55 -79 -84l-285 -119q-25 -10 -45 -10q-29 0 -45.5 20.5t-19.5 40t-1 33.5z" />
<glyph unicode="&#x302;" horiz-adv-x="0" d="M-674 1038q2 23 18.5 42.5t31 28.5l59.5 36l205 119q37 23 65 0l164 -119q37 -27 48 -37t21.5 -28.5t6.5 -41.5q-16 -66 -95 -65q-20 0 -79 43l-125 86l-154 -86q-74 -43 -96 -43q-41 0 -57.5 16t-12.5 49z" />
<glyph unicode="&#x303;" horiz-adv-x="0" d="M-723 1069q6 47 125 123q100 70 176 70q68 0 133 -72q35 -39 45 -39q33 0 144 84q35 27 61 27q31 0 49.5 -25t14.5 -55q-8 -47 -125 -123q-106 -70 -174 -70q-76 0 -134 74q-37 37 -45 37q-41 0 -143 -84q-35 -27 -61 -27q-31 0 -50.5 25.5t-15.5 54.5z" />
<glyph unicode="&#x304;" horiz-adv-x="0" d="M-741 1126q12 78 108 78h594q29 0 45.5 -3t30.5 -21.5t8 -55.5q-14 -78 -111 -77h-591q-29 0 -45.5 3t-30.5 21t-8 55z" />
<glyph unicode="&#x306;" horiz-adv-x="0" d="M-707 1176q14 78 91 77q63 0 63 -69q4 -29 209 -29t217 29q8 20 15.5 31.5t26.5 24.5t46 13q37 0 54.5 -20.5t11.5 -56.5q-10 -61 -52.5 -100.5t-109 -55.5t-116.5 -20.5t-119.5 -4.5t-118 4.5t-109.5 20.5t-90 55.5t-19 100.5z" />
<glyph unicode="&#x307;" horiz-adv-x="0" d="M-465 1126q8 47 47 81t88 34t78 -33.5t21 -81.5q-10 -49 -49 -82.5t-88.5 -33.5t-77 33.5t-19.5 82.5z" />
<glyph unicode="&#x308;" horiz-adv-x="0" d="M-624.5 1126q8.5 45 43 75t79.5 30t72 -30t18.5 -75t-44.5 -75.5t-81 -30.5t-70.5 30.5t-17 75.5zM-287 1126q8 45 43 75t80 30t71.5 -30t18.5 -75t-44 -75.5t-81 -30.5t-70.5 30.5t-17.5 75.5z" />
<glyph unicode="&#x309;" horiz-adv-x="0" d="M-551 1194q14 78 83 127t149 49q106 0 156 -47t36 -129q-12 -84 -98 -127q-84 -43 -92 -80l-7 -37q-4 -29 -28.5 -50t-53.5 -21q-31 0 -48 21.5t-13 49.5l6 37q20 119 182 203q18 10 -2 23.5t-67 13.5t-55 -33q-16 -74 -86 -74q-33 0 -49.5 22.5t-12.5 51.5z" />
<glyph unicode="&#x30a;" horiz-adv-x="0" d="M-524 1147q10 53 67.5 94t133 41t120.5 -41t35 -94q-8 -55 -66.5 -97t-134 -42t-119.5 42t-36 97zM-410 1144.5q-2 -18.5 15.5 -29.5t42 -11t46 11t23.5 29.5t-14 30t-40.5 11.5t-47.5 -11.5t-25 -30z" />
<glyph unicode="&#x30b;" horiz-adv-x="0" d="M-719 1063q4 31 74 86l110 90q59 41 91 41q35 0 56 -26.5t15 -61.5q-8 -43 -76 -90l-110 -88q-59 -45 -90 -45t-53.5 31.5t-16.5 62.5zM-322 1063q4 31 74 86l111 90q59 41 90 41q35 0 56.5 -26.5t15.5 -61.5q-8 -43 -76 -90l-111 -88q-59 -45 -90 -45t-53.5 31.5 t-16.5 62.5z" />
<glyph unicode="&#x30c;" horiz-adv-x="0" d="M-645 1210q12 66 92 66q20 0 80 -43l125 -86l153 86q80 43 97 43q41 0 58 -16.5t13 -49.5q-2 -23 -19 -42t-31.5 -28.5t-59.5 -35.5l-205 -119q-37 -23 -66 0l-163 119q-37 27 -48.5 37t-20.5 28t-5 41z" />
<glyph unicode="&#x30f;" horiz-adv-x="0" d="M-702 1192q6 35 35.5 61.5t64.5 26.5q31 0 78 -41l82 -90q49 -53 45 -86q-6 -31 -39 -62.5t-64 -31.5q-33 0 -73 45l-82 88q-55 47 -47 90zM-305 1192q6 35 35.5 61.5t64.5 26.5q31 0 78 -41l82 -90q49 -53 45 -86q-6 -31 -39 -62.5t-63 -31.5q-33 0 -74 45l-82 88 q-55 47 -47 90z" />
<glyph unicode="&#x311;" horiz-adv-x="0" d="M-725 1073q10 61 52 100t108.5 55.5t117 20.5t120 4t117.5 -4t109.5 -20.5t90 -55t18.5 -100.5q-4 -35 -28.5 -56.5t-61.5 -21.5q-63 0 -63 70q-4 29 -209 29t-217 -29q-8 -20 -15.5 -31.5t-27 -25t-45.5 -13.5q-76 0 -66 78z" />
<glyph unicode="&#x323;" horiz-adv-x="0" d="M-700 -283q8 47 47 81t88 34t77.5 -34t20.5 -81q-8 -49 -48 -82.5t-89 -33.5t-76.5 33.5t-19.5 82.5z" />
<glyph unicode="&#x326;" horiz-adv-x="0" d="M-743 -397q6 39 61 57q70 16 107 86h-7q-45 0 -72.5 32t-19.5 81q8 43 44 74.5t87 31.5q57 0 91 -45t22 -119q-20 -117 -113.5 -189.5t-148.5 -72.5q-25 0 -40 20.5t-11 43.5z" />
<glyph unicode="&#x32e;" horiz-adv-x="0" d="M-946 -256q14 78 90 78q61 0 65 -70q2 -29 207 -28.5t219 28.5q25 70 86 70q37 0 54.5 -20.5t11.5 -57.5q-10 -61 -52 -100t-108.5 -55.5t-117 -20.5t-120 -4t-117.5 4t-109.5 20.5t-90 55.5t-18.5 100z" />
<glyph unicode="&#x32f;" horiz-adv-x="0" d="M-963 -358q10 61 51.5 100t108 55.5t116.5 20.5t120 4q53 0 92 -2t93 -12.5t87 -28t53.5 -53t12.5 -84.5q-14 -78 -93 -78q-59 0 -63 69q-4 29 -209 29t-217 -29q-25 -70 -88 -69q-78 0 -64 78z" />
<glyph unicode="&#x330;" horiz-adv-x="0" d="M-963 -362q8 45 125 122q100 70 176 70q68 0 134 -72q39 -39 45 -39q37 0 143 84q31 27 61.5 27t50 -24.5t15.5 -55.5q-10 -45 -125 -123q-106 -70 -176 -69.5t-133 73.5q-33 37 -45 37q-41 0 -144 -84q-35 -27 -61 -26q-31 0 -50.5 25.5t-15.5 54.5z" />
<glyph unicode="&#x331;" horiz-adv-x="0" d="M-981 -305q12 78 109 78h593q29 0 45.5 -3t31 -21.5t7.5 -55.5q-12 -78 -108 -78h-592q-29 0 -45 3t-31.5 21.5t-9.5 55.5z" />
<glyph unicode="&#x332;" horiz-adv-x="0" d="M-981 -305q12 78 109 78h593q29 0 45.5 -3t31 -21.5t7.5 -55.5q-12 -78 -108 -78h-592q-29 0 -45 3t-31.5 21.5t-9.5 55.5z" />
<glyph unicode="&#x393;" d="M74 76q12 78 110 78h58l155 944h-57q-27 0 -42 3t-30.5 20.5t-9.5 52.5q12 78 109 77h749q59 0 74.5 -20.5t5.5 -77.5l-25 -145q-6 -31 -12 -48.5t-28.5 -34t-61.5 -16.5t-56.5 15.5t-15.5 37t4 46.5l15 90h-449l-155 -944h96q25 0 41 -3.5t31.5 -21.5t9.5 -53 q-12 -76 -109 -76h-323q-27 0 -43.5 3t-31.5 20.5t-9 52.5z" />
<glyph unicode="&#x394;" d="M76 59l16 41l520 1098q23 51 54.5 64.5t83.5 13.5q59 0 80.5 -14.5t29.5 -69.5l154 -1092l4 -41q-10 -59 -96 -59h-770q-25 0 -40.5 3t-27.5 16t-8 40zM301 166h528l-120 870z" />
<glyph unicode="&#x398;" d="M169 194.5q-5 79.5 6 175t38 255t47.5 256t52 176.5t62.5 116.5t89 62.5t119.5 32t166.5 6q78 0 128 -3t96 -15.5t70.5 -30t44 -54t23.5 -79.5t1 -116t-13 -153t-30.5 -198.5t-36 -198.5t-37 -152.5t-40 -115.5t-50.5 -79t-62.5 -53.5t-81.5 -29.5t-101.5 -15.5 t-128.5 -3.5q-104 0 -163.5 5.5t-108.5 32t-67.5 63.5t-23.5 116.5zM344 283q0 -90 45 -121t170 -31t176 28.5t84 108.5q35 90 80 359q41 238 39 342q0 90 -45 120.5t-170 30.5t-176 -28.5t-84 -108.5q-35 -90 -80 -358q-41 -238 -39 -342zM422 512q-12 31 0 68l16 92 q6 33 11.5 49t28 32.5t63.5 16.5q72 0 71 -61h86q20 61 93 61q57 0 69 -30.5t0 -67.5l-16 -92q-6 -33 -11.5 -49.5t-28 -33t-63.5 -16.5q-72 0 -71 62h-86q-20 -61 -92 -62q-58 0 -70 31z" />
<glyph unicode="&#x39b;" d="M68 76q8 47 37.5 62.5t93.5 15.5l413 1042q14 37 38 55.5t41.5 21.5t47.5 3h21q31 0 48 -3t33.5 -23.5t18.5 -59.5l68 -1036q61 0 85.5 -15.5t16.5 -62.5q-12 -76 -110 -76h-215q-27 0 -44.5 3t-33 21.5t-9.5 53.5q12 76 113 76h23l-49 847l-332 -847h22q27 0 43.5 -3.5 t31.5 -21.5t9 -53q-12 -76 -110 -76h-215q-27 0 -43.5 3t-32.5 20.5t-10 52.5z" />
<glyph unicode="&#x39e;" d="M80 98l8 47q6 31 11 48.5t28 34t61 16.5q53 0 64.5 -22.5t5.5 -71.5h606q10 49 30.5 71.5t72.5 22.5q39 0 56 -15.5t15 -37t-4 -46.5l-8 -47q-10 -59 -31.5 -78.5t-81.5 -19.5h-751q-59 0 -75.5 19.5t-6.5 78.5zM254 1070.5q2 21.5 4 45.5l6 37q8 59 31.5 78.5t83.5 19.5 h735q59 0 74.5 -20.5t5.5 -77.5l-6 -37q-6 -31 -11.5 -48t-28 -33.5t-61.5 -16.5q-51 0 -64 20.5t-7 63.5h-590q-8 -43 -28.5 -63.5t-71.5 -20.5q-39 0 -56.5 15.5t-15.5 37zM311 555q2 20 4 45l17 98q6 31 12 48.5t28.5 33t61.5 15.5q41 0 57.5 -16.5t14.5 -53.5h303 q18 70 96 70q39 0 57.5 -14.5t16.5 -36t-4 -46.5l-17 -98q-6 -31 -12 -47t-28.5 -31.5t-61.5 -15.5q-41 0 -57.5 16.5t-14.5 52.5h-303q-16 -70 -96 -69q-39 0 -57.5 14.5t-16.5 34.5z" />
<glyph unicode="&#x3a0;" d="M53 76q12 78 111 78h35l155 944h-35q-27 0 -42 3t-30.5 20.5t-8.5 52.5q12 78 108 77h799q27 0 43 -3t31.5 -21.5t9.5 -52.5q-12 -76 -111 -76h-35l-155 -944h35q27 0 43 -3.5t30.5 -21.5t7.5 -53q-12 -76 -108 -76h-238q-27 0 -43 3t-31.5 21.5t-9.5 53.5q12 76 111 76 h33l155 944h-389l-155 -944h32q27 0 43.5 -3.5t30.5 -21.5t8 -53q-12 -76 -108 -76h-238q-27 0 -43 3t-31.5 20.5t-9.5 52.5z" />
<glyph unicode="&#x3a3;" d="M90 72q2 18 29 53l375 500l-211 493q-12 27 -9 56q12 78 111 77h723q59 0 74.5 -20.5t5.5 -77.5l-25 -145q-6 -31 -12 -48.5t-28.5 -34t-61.5 -16.5t-56.5 15.5t-15.5 37t4 46.5l15 90h-521l193 -455q-4 -35 -31 -70l-309 -415h512l14 90q6 31 12.5 48t29 33.5t61.5 16.5 t56 -15.5t15 -37t-4 -45.5l-24 -150q-10 -59 -32 -78.5t-81 -19.5h-723q-23 0 -41 3t-34.5 20.5t-10.5 48.5z" />
<glyph unicode="&#x3a5;" d="M240 999q16 100 100 187.5t192 87.5q164 0 181 -215q90 215 254 215q109 0 162 -87t36 -188q-12 -80 -96 -79q-16 0 -26.5 2t-26 8t-19.5 24.5t0 46.5q18 135 -55 136q-131 0 -199 -410l-94 -573h53q27 0 43.5 -3.5t32 -21.5t8.5 -53q-12 -76 -110 -76h-277q-27 0 -43 3 t-32.5 20.5t-10.5 52.5q12 78 113 78h53l94 573q68 410 -61 410q-78 0 -102 -140q-12 -78 -99 -77q-83 -1 -71 79z" />
<glyph unicode="&#x3a6;" d="M182 627q18 113 139 203t289 110l25 158h-66q-27 0 -43 3t-31.5 21.5t-9.5 53.5q12 76 111 75h301q27 0 43 -3t32.5 -21.5t10.5 -52.5q-12 -76 -113 -76h-65l-25 -158q158 -20 248 -109.5t72 -205.5q-18 -113 -138 -203t-288 -111l-25 -157h66q27 0 43 -3.5t31.5 -21.5 t9.5 -53q-12 -76 -111 -76h-301q-27 0 -43 3t-32.5 21.5t-10.5 53.5q12 76 113 76h65l25 157q-158 18 -250 108.5t-72 207.5zM346 625q-10 -53 40 -98.5t140 -61.5l54 321q-94 -16 -160 -60t-74 -101zM705 465q90 16 155.5 59t75.5 103q8 55 -42 99t-136 60z" />
<glyph unicode="&#x3a8;" d="M227 918q12 78 101 77q164 0 123 -239q-39 -227 81 -281l103 623h-53q-27 0 -43.5 3t-31.5 20.5t-9 52.5q12 78 110 77h277q27 0 44 -3t32.5 -21.5t9.5 -52.5q-12 -76 -113 -76h-53l-103 -623q135 53 172 279q41 242 203 241q20 0 34.5 -2t31 -21.5t10.5 -53.5 q-4 -27 -21.5 -45.5t-26.5 -21.5l-28 -9q-18 -2 -33 -92q-66 -377 -368 -437l-27 -159h53q27 0 43.5 -3.5t32 -21.5t8.5 -53q-12 -76 -110 -76h-277q-27 0 -43 3t-32.5 20.5t-10.5 52.5q12 78 113 78h53l27 159q-109 23 -168 96.5t-64.5 156.5t2.5 165q14 109 3 111 q-62 19 -52 76z" />
<glyph unicode="&#x3a9;" d="M78 98l8 52q16 98 88 98q41 0 51.5 -24.5t5.5 -69.5h95q-4 94 -58 264q-18 63 -27.5 99t-21.5 100.5t-10 102.5t6 105q33 188 189.5 318.5t345 130.5t302 -130t81.5 -319q-25 -147 -181 -393q-117 -180 -151 -278h94q16 94 86 94q72 0 55 -98l-8 -52q-10 -59 -31.5 -78.5 t-81.5 -19.5h-204q-23 0 -36 2t-28.5 9t-19.5 25.5t0 49.5q23 129 170 377l79 135q26 45 52 109.5t35 117.5q20 127 -50.5 211t-189.5 84t-218 -84t-120 -211q-18 -115 45 -352q68 -252 45 -387q-6 -39 -25.5 -59.5t-37 -23.5t-47.5 -3h-205q-59 0 -75.5 19.5t-6.5 78.5z " />
<glyph unicode="&#xe3f;" d="M55 76q12 78 113 78h37l155 944h-36q-27 0 -43.5 3t-32 21.5t-8.5 53.5q12 76 108 75h303l21 109q4 31 30.5 54.5t59.5 23.5t51 -23.5t14 -54.5l-18 -109q160 -2 237.5 -102t55.5 -223q-14 -86 -74.5 -157t-150.5 -112q98 -37 144 -121.5t30 -185.5 q-25 -135 -139.5 -242.5t-280.5 -107.5h-31l-18 -106q-4 -33 -31 -56.5t-59.5 -23.5t-52 23.5t-15.5 53.5l18 109h-303q-25 0 -41 3t-32.5 20.5t-10.5 52.5zM373 154h96l70 419h-97zM467 727h96l62 371h-97zM627 154q109 4 178 64.5t82 133.5q14 78 -29 149.5t-149 71.5h-13 zM723 731q96 16 151.5 73.5t63.5 119.5q10 59 -24.5 113.5t-131.5 60.5z" />
<glyph unicode="&#x1e0c;" d="M47 76q12 78 113 78h28l156 944h-29q-27 0 -43 3t-31.5 20.5t-9.5 52.5q12 78 111 77h412q131 0 221 -90t121.5 -234.5t3.5 -310.5q-43 -254 -201 -435t-354 -181h-412q-27 0 -43 3t-32.5 20.5t-10.5 52.5zM246 -283q8 47 47 81t88 34t77.5 -34t20.5 -81 q-8 -49 -48 -82.5t-89 -33.5t-76.5 33.5t-19.5 82.5zM358 154h177q150 0 258 139t139 323q14 117 2 224.5t-76.5 182.5t-167.5 75h-176z" />
<glyph unicode="&#x1e0d;" d="M143 444q33 195 182.5 327t321.5 132q121 0 205 -72l43 267h-74q-25 0 -41 3t-31.5 20.5t-9.5 52.5q12 78 111 77h145q59 0 74.5 -20.5t5.5 -77.5l-166 -999h74q25 0 41 -3.5t31.5 -20.5t9.5 -52q-12 -78 -111 -78h-145q-57 0 -71.5 17.5t-10.5 62.5q-121 -92 -252 -92 q-166 0 -265.5 133t-66.5 323zM311 444q-20 -125 37.5 -214t159.5 -89q98 0 176 86t94 176l23 142q14 80 -37 142.5t-137 62.5q-104 0 -198.5 -87.5t-117.5 -218.5zM375 -283q8 47 47 81t88 34t77.5 -34t20.5 -81q-8 -49 -48 -82.5t-89 -33.5t-76.5 33.5t-19.5 82.5z" />
<glyph unicode="&#x1e0e;" d="M-35 -305q12 78 109 78h594q29 0 45 -3t30.5 -21.5t8.5 -55.5q-12 -78 -109 -78h-592q-29 0 -45 3t-31.5 21.5t-9.5 55.5zM47 76q12 78 113 78h28l156 944h-29q-27 0 -43 3t-31.5 20.5t-9.5 52.5q12 78 111 77h412q131 0 221 -90t121.5 -234.5t3.5 -310.5 q-43 -254 -201 -435t-354 -181h-412q-27 0 -43 3t-32.5 20.5t-10.5 52.5zM358 154h177q150 0 258 139t139 323q14 117 2 224.5t-76.5 182.5t-167.5 75h-176z" />
<glyph unicode="&#x1e0f;" d="M94 -305q12 78 109 78h594q29 0 45 -3t30.5 -21.5t8.5 -55.5q-12 -78 -109 -78h-592q-29 0 -45 3t-31.5 21.5t-9.5 55.5zM143 444q33 195 182.5 327t321.5 132q121 0 205 -72l43 267h-74q-25 0 -41 3t-31.5 20.5t-9.5 52.5q12 78 111 77h145q59 0 74.5 -20.5t5.5 -77.5 l-166 -999h74q25 0 41 -3.5t31.5 -20.5t9.5 -52q-12 -78 -111 -78h-145q-57 0 -71.5 17.5t-10.5 62.5q-121 -92 -252 -92q-166 0 -265.5 133t-66.5 323zM311 444q-20 -125 37.5 -214t159.5 -89q98 0 176 86t94 176l23 142q14 80 -37 142.5t-137 62.5q-104 0 -198.5 -87.5 t-117.5 -218.5z" />
<glyph unicode="&#x1e24;" d="M53 76q12 78 111 78h35l155 944h-35q-27 0 -42 3t-30.5 20.5t-8.5 52.5q12 78 108 77h238q27 0 43 -3t31.5 -21.5t9.5 -52.5q-12 -76 -111 -76h-33l-61 -371h389l61 371h-32q-27 0 -43.5 3t-30.5 21.5t-8 53.5q12 76 108 75h238q27 0 43 -3t31.5 -21.5t9.5 -52.5 q-12 -76 -111 -76h-35l-155 -944h35q27 0 43 -3.5t30.5 -21.5t7.5 -53q-12 -76 -108 -76h-238q-27 0 -43 3t-31.5 21.5t-9.5 53.5q12 76 111 76h33l69 419h-389l-69 -419h32q27 0 43.5 -3.5t30.5 -21.5t8 -53q-12 -76 -108 -76h-238q-27 0 -43 3t-31.5 20.5t-9.5 52.5z M375 -283q8 47 47 81t88 34t77.5 -34t20.5 -81q-8 -49 -48 -82.5t-89 -33.5t-76.5 33.5t-19.5 82.5z" />
<glyph unicode="&#x1e25;" d="M35 76q12 78 110 78h72l156 944h-74q-25 0 -40 3t-30.5 21.5t-9.5 51.5q12 78 109 77h145q59 0 74.5 -20.5t5.5 -77.5l-55 -336q123 86 260 86q274 0 225 -303l-74 -446h72q27 0 43 -3.5t30.5 -21.5t8.5 -53q-12 -76 -107 -76h-305q-25 0 -42 3t-33.5 21.5t-10.5 51.5 q12 78 113 78h61l72 436q14 86 -4.5 123t-87.5 37q-86 0 -171 -66t-106 -192l-55 -338h72q27 0 43 -3.5t31.5 -21.5t9.5 -53q-12 -76 -109 -76h-317q-16 0 -28.5 2t-29 8t-22.5 22.5t-2 43.5zM375 -283q8 47 47 81t88 34t77.5 -34t20.5 -81q-8 -49 -48 -82.5t-89 -33.5 t-76.5 33.5t-19.5 82.5z" />
<glyph unicode="&#x1e26;" d="M53 76q12 78 111 78h35l155 944h-35q-27 0 -42 3t-30.5 20.5t-8.5 52.5q12 78 108 77h238q27 0 43 -3t31.5 -21.5t9.5 -52.5q-12 -76 -111 -76h-33l-61 -371h389l61 371h-32q-27 0 -43.5 3t-30.5 21.5t-8 53.5q12 76 108 75h238q27 0 43 -3t31.5 -21.5t9.5 -52.5 q-12 -76 -111 -76h-35l-155 -944h35q27 0 43 -3.5t30.5 -21.5t7.5 -53q-12 -76 -108 -76h-238q-27 0 -43 3t-31.5 21.5t-9.5 53.5q12 76 111 76h33l69 419h-389l-69 -419h32q27 0 43.5 -3.5t30.5 -21.5t8 -53q-12 -76 -108 -76h-238q-27 0 -43 3t-31.5 20.5t-9.5 52.5z M475 1464q8 45 44 75t81 30t70.5 -30t17.5 -75t-44 -75.5t-81 -30.5t-70.5 30.5t-17.5 75.5zM874.5 1464q8.5 45 44 75t80.5 30t71 -30t17.5 -75t-44 -75.5t-80.5 -30.5t-71 30.5t-17.5 75.5z" />
<glyph unicode="&#x1e27;" d="M35 76q12 78 110 78h72l156 944h-74q-25 0 -40 3t-30.5 21.5t-9.5 51.5q12 78 109 77h145q59 0 74.5 -20.5t5.5 -77.5l-55 -336q123 86 260 86q274 0 225 -303l-74 -446h72q27 0 43 -3.5t30.5 -21.5t8.5 -53q-12 -76 -107 -76h-305q-25 0 -42 3t-33.5 21.5t-10.5 51.5 q12 78 113 78h61l72 436q14 86 -4.5 123t-87.5 37q-86 0 -171 -66t-106 -192l-55 -338h72q27 0 43 -3.5t31.5 -21.5t9.5 -53q-12 -76 -109 -76h-317q-16 0 -28.5 2t-29 8t-22.5 22.5t-2 43.5zM475 1464q8 45 44 75t81 30t70.5 -30t17.5 -75t-44 -75.5t-81 -30.5t-70.5 30.5 t-17.5 75.5zM874.5 1464q8.5 45 44 75t80.5 30t71 -30t17.5 -75t-44 -75.5t-80.5 -30.5t-71 30.5t-17.5 75.5z" />
</font>
</defs>
</svg>
