<?xml version="1.0" standalone="no"?>
<!DOCTYPE svg PUBLIC "-//W3C//DTD SVG 1.1//EN" "http://www.w3.org/Graphics/SVG/1.1/DTD/svg11.dtd" >
<svg xmlns="http://www.w3.org/2000/svg">
<metadata>
This is a custom SVG webfont generated by Font Squirrel.
Copyright   : Copyright 2003 2008 B Jackowski and J M Nowacki on behalf of TeX users groups This work is released under the GUST Font License   see httptugorgfontslicensesGUSTFONTLICENSEtxt for details
</metadata>
<defs>
<font id="webfonts9BW17Yo" horiz-adv-x="1075" >
<font-face units-per-em="2048" ascent="1577" descent="-471" />
<missing-glyph horiz-adv-x="500" />
<glyph unicode=" " />
<glyph unicode="!" d="M467 84q6 37 34.5 61.5t63.5 24.5t55.5 -24.5t14.5 -61.5q-6 -35 -35 -59.5t-63.5 -24.5t-55 24.5t-14.5 59.5zM545 424l104 752q6 41 29.5 64.5t40 28.5t31.5 5q10 0 20 -3t24.5 -12.5t20.5 -31t2 -51.5l-137 -705q-12 -53 -23.5 -67.5t-54.5 -14.5q-16 0 -26.5 1 t-21.5 9.5t-9 24.5z" />
<glyph unicode="&#x22;" d="M428 752l45 430q4 47 35 69.5t55.5 22.5t47 -20.5t7.5 -71.5l-98 -432q-12 -55 -53 -56q-45 1 -39 58zM803 752l45 430q4 47 34.5 69.5t55.5 22.5t47.5 -20.5t7.5 -71.5l-98 -432q-12 -55 -53 -56q-45 1 -39 58z" />
<glyph unicode="#" d="M143 397q10 53 88 54h123l101 352h-166q-18 0 -30.5 2t-27 14t-10.5 37q8 53 86 53h182l78 275q23 68 68 67q23 0 37 -17t2 -58l-78 -267h262l78 275q23 68 68 67q23 0 37 -17t1 -58l-77 -267h104q18 0 30.5 -2t28 -14t11.5 -37q-10 -53 -88 -53h-121l-101 -352h164 q18 0 30.5 -2.5t27 -14.5t10.5 -37q-8 -51 -86 -51h-180l-80 -276q-29 -70 -68 -70q-25 0 -37 16.5t-8 36.5l86 293h-260l-82 -276q-29 -70 -67 -70q-25 0 -37.5 16.5t-8.5 36.5l86 293h-106q-18 0 -30.5 2t-28 14t-11.5 35zM461 451h262l100 352h-262z" />
<glyph unicode="$" d="M180 330q14 86 90 86q27 0 46.5 -21.5t13.5 -54.5q-6 -41 -49 -64q20 -174 225 -200l90 532q-96 18 -165 54t-96.5 75t-45 81t-12 72t3.5 46q20 117 134.5 212t289.5 114l16 100q10 66 55 65q43 0 33 -65l-16 -98q178 -16 255.5 -105.5t57.5 -212.5q-14 -82 -90 -82 q-31 0 -47.5 21.5t-12.5 50.5q6 35 45 61q-20 152 -223 179l-80 -482q84 -16 147.5 -49t94.5 -71.5t50.5 -83t18.5 -82t-3 -68.5q-20 -119 -130 -221.5t-296 -130.5l-17 -99q-10 -66 -53 -65q-45 0 -35 65l17 99q-176 18 -255.5 114.5t-56.5 227.5zM377 944 q-14 -86 52.5 -147.5t182.5 -83.5l78 465q-127 -20 -213 -85t-100 -149zM594 76q129 23 215 94.5t100 161.5q16 90 -44 161.5t-185 96.5z" />
<glyph unicode="%" d="M166 -123q2 8 18 39l822 1458q33 53 65 53q20 0 34.5 -16t10.5 -37q-2 -8 -18 -39l-834 -1476q-23 -35 -53 -35q-20 0 -34.5 15t-10.5 38zM272 1167q18 109 77 184.5t128.5 75.5t104 -74.5t16.5 -187.5q-18 -111 -76.5 -186.5t-130.5 -75.5q-70 0 -103.5 75.5 t-15.5 188.5zM348 1167q-12 -76 9.5 -125t48 -49t65.5 49.5t51 124.5q12 70 -9 120t-50 50t-66 -50t-49 -120zM684 84q18 111 76.5 186.5t130.5 75.5t104.5 -76.5t14.5 -185.5q-18 -111 -75.5 -185.5t-129.5 -74.5t-105.5 75.5t-15.5 184.5zM760 84q-12 -74 9.5 -122 t49.5 -48q27 0 65 48t50 122q12 76 -9.5 124t-47.5 48q-29 0 -67 -48t-50 -124z" />
<glyph unicode="&#x26;" d="M106.5 268.5q18.5 118.5 110.5 214.5l172 158q-31 193 -2 348q23 137 93.5 211t152.5 74q63 0 98 -43t37 -102.5t-6 -122.5q-29 -164 -283 -392q16 -84 125 -340q100 143 299 510q-37 0 -52 1t-27.5 11.5t-10.5 30.5q8 43 72 43h194q18 0 28.5 -1t21 -12t6.5 -32 q-6 -41 -70 -41h-80l-188 -344q-82 -141 -154 -233q84 -143 178 -144q92 0 133 154q10 33 41 33l9 -2q10 -2 17 -14.5t3 -32.5q-12 -82 -70.5 -153t-146.5 -71q-51 0 -100.5 33t-67.5 57l-53 70q-156 -160 -289 -160q-109 0 -159 86.5t-31.5 205zM209 191.5 q0 -46.5 27.5 -87.5t76.5 -41q111 0 236 144q-33 61 -74 164q-41 90 -67 180q-119 -111 -152 -155t-45 -122q-2 -36 -2 -82.5zM461 707q209 199 225 299q8 45 -3 113.5t-65 68.5q-47 0 -93 -51.5t-62 -147.5q-25 -106 -2 -282z" />
<glyph unicode="'" d="M616 752l46 430q4 47 34.5 69.5t55 22.5t47 -20.5t8.5 -71.5l-98 -432q-12 -55 -54 -56q-45 1 -39 58z" />
<glyph unicode="(" d="M473 627q25 147 91.5 283.5t143 226.5t157.5 158.5t137.5 100t76.5 31.5q45 0 39 -38q-2 -20 -49 -46q-117 -72 -208 -164t-146.5 -189t-89 -186t-47.5 -177q-33 -201 24 -393.5t225 -321.5q39 -27 37 -47q-6 -39 -51 -39q-39 0 -122 80t-140 184q-127 248 -78 537z" />
<glyph unicode=")" d="M166 -135q2 18 49 45q154 94 263.5 227t158.5 251t70 239q12 70 12 143.5t-18.5 181t-87 215t-181.5 193.5q-14 10 -12 29q2 12 15.5 25t35.5 13q39 0 122 -79.5t140 -184.5q127 -248 78 -536q-25 -147 -91.5 -283.5t-143 -226.5t-157.5 -159t-137.5 -100.5t-76.5 -31.5 q-23 0 -32 13.5t-7 25.5z" />
<glyph unicode="*" d="M219 432q4 27 49 51l289 144l-242 143q-35 23 -30 49q4 18 19 33.5t38 15.5l12 -2l252 -164l47 291q10 68 59.5 68t39.5 -68l-52 -288l314 163q49 -2 49 -49q-4 -27 -49 -51l-289 -143l264 -156q12 -18 8 -36.5t-19 -34t-38 -15.5q-12 0 -61 31l-203 131l-47 -287 q-10 -68 -59.5 -68t-39.5 68l50 289l-312 -164q-49 2 -49 49z" />
<glyph unicode="+" d="M188.5 626.5q8.5 53.5 85.5 53.5h322l55 324q8 78 66 77q49 0 41 -77l-56 -324h322q78 0 69.5 -53.5t-85.5 -53.5h-322l-55 -323q-8 -78 -66 -78q-49 0 -41 78l56 323h-322q-78 0 -69.5 53.5z" />
<glyph unicode="," d="M344 -248q2 23 35 35q170 53 217 193l10 40q-29 -20 -69 -20q-45 0 -73 31.5t-20 81.5q8 45 44 77.5t87 32.5q63 0 100.5 -53t22.5 -137q-16 -100 -83.5 -180t-131 -114t-102.5 -34q-18 0 -29.5 15.5t-7.5 31.5z" />
<glyph unicode="-" d="M225 627q8 53 88 53h672q18 0 31.5 -2t29 -14.5t11.5 -36.5q-8 -53 -88 -54h-672q-18 0 -31.5 2.5t-29 14.5t-11.5 37z" />
<glyph unicode="." d="M444 113q8 43 45 76.5t86 33.5q45 0 73 -32.5t20 -79.5q-6 -43 -44 -77t-87 -34q-45 0 -73 33t-20 80z" />
<glyph unicode="/" d="M104 -123q2 8 23 41l942 1462q33 47 64 47q20 0 34.5 -16t10.5 -37q-2 -8 -25 -43l-942 -1460q-29 -47 -61 -47q-23 0 -36.5 16.5t-9.5 36.5z" />
<glyph unicode="0" d="M213 627q45 274 203.5 460.5t333 186.5t270.5 -185.5t49 -463.5q-45 -274 -203.5 -461t-333 -187t-270.5 185.5t-49 464.5zM322 647q-41 -244 26.5 -414t198.5 -170t256 170t166 414q39 236 -34 388.5t-200 152.5q-129 0 -251.5 -152.5t-161.5 -388.5z" />
<glyph unicode="1" d="M246 43q6 43 69 43h215l160 963q-156 -119 -260 -119q-49 0 -43 43q8 35 45 41q184 23 316 235q14 25 43 25q39 0 28 -66l-186 -1122h215q18 0 28.5 -1t20.5 -11.5t8 -30.5q-8 -43 -71 -43h-533q-16 0 -26.5 1t-21.5 11.5t-7 30.5z" />
<glyph unicode="2" d="M121 45q2 20 31 41l532 393q285 209 320 404q23 141 -68.5 223t-239.5 82q-94 0 -178 -51.5t-127 -141.5q31 -29 25 -59q-4 -33 -31 -53.5t-55 -20.5q-27 0 -46.5 19.5t-13.5 60.5q23 133 152 232.5t301 99.5q190 0 303 -107.5t82 -283.5q-33 -188 -246 -371 q-86 -68 -295 -220l-278 -206h581q8 43 12.5 58.5t17.5 28.5t40 13q51 0 41 -65l-10 -55q-6 -39 -20.5 -52.5t-53.5 -13.5h-719q-18 0 -28.5 1t-21.5 12.5t-7 31.5z" />
<glyph unicode="3" d="M141 266q6 37 31 58.5t55.5 21.5t48 -21.5t11.5 -52.5q-4 -31 -41 -61q33 -80 124 -114t181 -34q147 0 253.5 87.5t125.5 197.5q18 109 -56.5 197t-232.5 88h-98q-18 0 -28.5 1t-21 12t-8.5 32q4 27 31 35t111 14q51 2 78.5 6t65.5 18.5t77 43.5q106 76 129 200 q14 80 -53.5 136.5t-184.5 56.5q-178 0 -278 -86q23 -31 16 -58q-6 -33 -30.5 -54t-53 -21t-48 20.5t-13.5 59.5q18 104 130.5 164.5t289.5 60.5q168 0 258 -81t71 -196q-31 -186 -252 -315q242 -119 205 -334q-25 -147 -166 -259t-331.5 -112t-304.5 79t-91 210z" />
<glyph unicode="4" d="M133 422q8 39 17 49l620 770q20 25 32.5 30t45.5 5h57q41 0 52.5 -12.5t5.5 -53.5l-129 -766h186q16 0 26.5 -1t21.5 -12t9 -32q-8 -41 -71 -41h-187l-45 -272h152q18 0 28.5 -1t20.5 -11.5t8 -30.5q-8 -43 -72 -43h-381q-16 0 -26 1t-21.5 11.5t-7.5 30.5q6 43 70 43 h151l45 272h-555q-37 0 -48 12.5t-5 51.5zM227 444h529l125 746h-56z" />
<glyph unicode="5" d="M160 279q6 43 33.5 62t52.5 19q29 0 48 -20.5t13 -52.5q-4 -31 -43 -66q23 -63 74 -101t94 -47.5t86 -9.5q143 0 261 92.5t141 225.5q20 121 -42.5 217t-195.5 96q-188 0 -313 -125q-12 -12 -41 -12q-49 0 -35 66l94 563q6 39 20.5 52t53.5 13h571q18 0 28.5 -1t21 -12 t5.5 -32q-6 -41 -69 -41h-531l-75 -458q150 74 286 73q172 0 262.5 -119.5t63.5 -279.5q-29 -168 -180.5 -286t-339.5 -118q-168 0 -267.5 88.5t-76.5 213.5z" />
<glyph unicode="6" d="M205 309q-12 121 12 303q49 297 244.5 479.5t412.5 182.5q131 0 186.5 -57.5t41.5 -139.5q-6 -35 -30.5 -56.5t-57.5 -21.5q-31 0 -47.5 20.5t-12.5 51.5q8 35 39 62q-47 55 -135 55q-158 0 -311.5 -143.5t-222.5 -403.5q199 156 368 156q166 0 262.5 -119t69.5 -291 q-31 -176 -174 -293t-313 -117q-82 0 -147.5 32t-119 105.5t-65.5 194.5zM309 311q41 -248 242 -248q127 0 235.5 91.5t133.5 232.5q20 131 -49.5 225.5t-202.5 94.5q-129 0 -232.5 -76t-120.5 -182q-14 -79 -6 -138z" />
<glyph unicode="7" d="M285 1130l14 89q4 23 8 33t17.5 22t37.5 12q39 0 48 -35h712q18 0 28.5 -1t21 -12t6.5 -32q-2 -14 -13 -24q-582 -487 -692 -1147q-14 -57 -61 -58q-53 0 -39 78q16 100 54 215t108.5 264.5t197.5 315.5t291 315h-629q-8 -43 -12 -58t-17.5 -28.5t-39.5 -13.5 q-51 -1 -41 65z" />
<glyph unicode="8" d="M154 348q43 240 360 326q-147 51 -195.5 119.5t-33.5 162.5q20 125 155 221.5t309.5 96.5t276.5 -95.5t82 -222.5q-14 -92 -85 -160.5t-237 -121.5q291 -88 248 -326q-25 -150 -170 -260.5t-331.5 -110.5t-295 110.5t-83.5 260.5zM260 350q-20 -119 63 -203t224 -84 t252.5 84t132.5 203q18 109 -61.5 192t-229 83t-256.5 -83t-125 -192zM389 954q-16 -94 62.5 -159.5t205.5 -65.5t228.5 64.5t118.5 160.5q14 92 -63 163t-206 71q-131 0 -231.5 -71t-114.5 -163z" />
<glyph unicode="9" d="M180 174q6 35 31 56.5t57 21.5q31 0 47.5 -20.5t12.5 -51.5q-6 -31 -37 -63q61 -53 158 -54q162 0 304 151t203 394q-197 -154 -366 -153q-166 0 -262.5 118.5t-69.5 290.5q31 178 177.5 294t320.5 116q172 0 268 -148.5t41 -486.5q-49 -293 -234.5 -477.5t-396.5 -184.5 q-88 0 -145.5 20.5t-80 54.5t-27.5 63.5t-1 58.5zM362 864q-20 -131 49.5 -225t202.5 -94q135 0 236.5 78.5t118.5 179.5l8 80q2 25 -9.5 91t-41.5 116q-68 98 -185 98q-129 0 -241.5 -91.5t-137.5 -232.5z" />
<glyph unicode=":" d="M444 113q8 43 45 76.5t86 33.5q45 0 73 -32.5t20 -79.5q-6 -43 -44 -77t-87 -34q-45 0 -73 33t-20 80zM553 760q6 43 44 76.5t87 33.5q45 0 72.5 -32.5t19.5 -79.5q-8 -43 -45 -77t-86 -34q-45 0 -72.5 33t-19.5 80z" />
<glyph unicode=";" d="M344 -248q2 18 27 33q37 18 61.5 33.5t68.5 64.5t70 117q-78 0 -106.5 33t-20.5 80q8 45 45 77.5t84 32.5q55 0 81 -48t12 -138q-25 -143 -128.5 -237.5t-156.5 -94.5q-18 0 -29.5 15.5t-7.5 31.5zM553 760q6 43 44 76.5t87 33.5q45 0 72.5 -32.5t19.5 -79.5 q-8 -43 -45 -77t-86 -34q-45 0 -72.5 33t-19.5 80z" />
<glyph unicode="&#x3c;" d="M225 627q4 29 45 51l770 438q31 18 47 19q20 0 35 -14.5t11 -39.5q-4 -29 -50 -53l-704 -401l569 -402q37 -23 33 -53q-10 -53 -61 -53q-18 0 -43 18l-631 443q-27 20 -21 47z" />
<glyph unicode="=" d="M162 465q8 53 82 53h757q74 0 66 -53q-8 -51 -94 -51h-733q-14 0 -23.5 1t-26 5t-23.5 15.5t-5 29.5zM215 788q8 51 94 52h733q14 0 23.5 -1t26 -5.5t23.5 -15.5t5 -30q-8 -53 -82 -53h-757q-74 0 -66 53z" />
<glyph unicode="&#x3e;" d="M149.5 172q4.5 25 49.5 53l704 402l-569 401q-37 27 -33 53q10 53 61 54q18 0 44 -19l630 -442q27 -20 21 -47q-4 -31 -45 -52l-772 -438q-27 -18 -45 -18q-20 0 -35 14t-10.5 39z" />
<glyph unicode="?" d="M307 1026q16 96 120.5 167t299.5 71q104 0 182 -18.5t115 -46.5t61.5 -60.5t23.5 -63.5t-1 -53q-18 -117 -158 -186q-268 -133 -301 -347l-6 -36q-6 -39 -21.5 -51.5t-52.5 -12.5q-45 0 -52 20.5t3 69.5q8 47 19.5 81t47.5 96.5t112.5 126t189.5 120.5q106 51 117 119 q10 61 -61 108.5t-232 47.5q-178 0 -281 -95q25 -35 19 -61q-4 -33 -30 -53.5t-54.5 -20.5t-48 20.5t-11.5 57.5zM434 84q6 37 35 61.5t63 24.5q37 0 57.5 -24.5t14.5 -61.5q-6 -35 -34.5 -59.5t-65.5 -24.5q-35 0 -55.5 24.5t-14.5 59.5z" />
<glyph unicode="@" d="M201 626.5q45 270.5 233.5 454t401.5 183.5q346 0 251 -605q-20 -123 -66 -213t-100.5 -135t-102.5 -65.5t-91 -20.5q-115 0 -179.5 114t-35.5 288q27 168 129 283.5t223 115.5q63 0 168 -74q-49 225 -211 226q-178 0 -341 -157t-204 -396q-39 -231 71 -391t292 -160 q137 0 268 104q10 8 41 8q59 0 53 -39q-8 -47 -128.5 -103t-245.5 -56q-217 0 -344 184t-82 454.5zM588 625q-23 -131 25.5 -222.5t129.5 -91.5q80 0 160 90.5t103 223.5q23 135 -26.5 225t-131.5 90q-78 0 -157.5 -89t-102.5 -226z" />
<glyph unicode="A" d="M68 43q4 29 30 41q12 2 99 2l448 1126q12 31 29.5 45.5t31 16.5t44.5 2q33 0 46 -2t24 -17.5t14 -46.5l71 -1124q84 0 96 -2q21 -9 22 -33q0 -51 -81 -51h-215q-20 0 -31.5 1t-21.5 11.5t-6 30.5q4 31 29.5 37t99.5 6l-13 264h-376l-103 -264q74 0 97.5 -6t19.5 -37 q-8 -43 -76 -43h-217q-18 0 -29.5 1t-23.5 11q-9 8 -9 21q0 5 1 10zM444 436h332l-33 754h-14z" />
<glyph unicode="B" d="M59 43q6 43 72 43h80l180 1079h-80q-18 0 -28.5 1t-21.5 11.5t-9 30.5q8 43 72 43h479q156 0 233 -94q62 -75 62 -164q0 -24 -4 -49q-35 -203 -312 -291q259 -65 259 -263q0 -28 -5 -58q-23 -129 -132 -230.5t-267 -101.5h-522q-16 0 -26.5 1t-21.5 11q-8 8 -9 21 q0 5 1 10zM313 86h291q137 0 224 77t104 173q4 20 3 40q0 82 -63 149q-78 83 -219 83h-252zM416 694h239q150 0 235 79t101 169q3 16 3 33.5t-3 35.5q-6 36 -26.5 71.5t-67.5 59t-117 23.5h-286z" />
<glyph unicode="C" d="M193 627q45 274 221 460.5t377 186.5q150 0 262 -113q49 72 57 88q25 25 45 25q33 0 33 -42q0 -10 -2 -24l-47 -293q-4 -23 -8.5 -33t-18.5 -21t-39 -11q-20 0 -30.5 8t-11.5 16.5l-3 26.5q0 133 -69.5 210t-174.5 77q-154 0 -301 -161t-188 -400q-13 -73 -13 -139 q0 -151 66 -264q94 -161 250 -161q96 0 200.5 66t139.5 213q10 41 57 41q46 0 46 -37q0 -6 -1 -12q-23 -139 -159 -248t-306 -109q-203 0 -315 187q-80 133 -80 312q0 72 13 151z" />
<glyph unicode="D" d="M51 43q6 43 72 43h67l181 1079h-68q-16 0 -27.5 1t-22.5 11.5t-9 28.5q8 45 73 45h437q197 0 287 -189q62 -129 62 -288q0 -75 -13 -158q-41 -254 -196 -435t-349 -181h-436q-16 0 -27.5 1t-23.5 11q-8 8 -8 21q0 5 1 10zM295 86h223q176 0 305 160t164 370q11 68 11 131 q0 134 -50 249q-74 169 -250 169h-223z" />
<glyph unicode="E" d="M66 43q6 43 71 43h86l180 1079h-86q-16 0 -27 1t-22.5 11.5t-9.5 30.5q8 43 74 43h790q39 0 49 -13q6 -8 7 -27q0 -11 -2 -25l-27 -156q-4 -23 -7 -32t-17.5 -21t-39.5 -12q-43 0 -42 45q0 9 1 20l23 135h-561l-80 -473h322q10 55 15 73.5t18.5 33t37.5 14.5q43 0 43 -45 q0 -9 -2 -20l-33 -197q-4 -23 -7 -32t-16 -21.5t-38 -12.5q-37 0 -41 27q-1 7 -1 16q0 28 9 78h-321l-86 -520h608l29 168q8 66 63 65q35 0 42 -21.5t-1 -43.5l-33 -188q-6 -39 -20.5 -52.5t-52.5 -13.5h-838q-16 0 -27.5 1t-22.5 11q-8 8 -9 21z" />
<glyph unicode="F" d="M70 43q6 43 71 43h92l181 1079h-92q-16 0 -27.5 1t-23 11.5t-9.5 28.5q8 45 74 45h807q41 0 50 -13q6 -8 5 -25q0 -11 -2 -27l-27 -156q-4 -23 -7 -32t-16 -21t-38 -12q-43 0 -43 45q0 9 2 20l23 135h-572l-82 -495h330q8 55 13 74.5t18.5 33t40.5 13.5q43 0 42 -46 q0 -9 -1 -20l-33 -199q-2 -20 -6 -31.5t-17.5 -22.5t-38.5 -11q-37 0 -43 26q-2 8 -1 20q0 27 10 75h-330l-82 -496h131q18 0 28.5 -1t20.5 -11.5t8 -30.5q-8 -43 -71 -43h-328q-16 0 -27.5 1t-22.5 11q-8 8 -8 21q0 5 1 10z" />
<glyph unicode="G" d="M188 627q45 274 209 460.5t351 186.5q129 0 237 -109q41 70 57.5 89.5t38.5 19.5q33 0 33 -42q0 -10 -2 -24l-47 -293q-4 -23 -8 -33t-18.5 -21t-39.5 -11q-43 0 -43 33q0 90 -21.5 154.5t-56 95t-68.5 43t-69 12.5q-137 0 -274 -161t-176 -402q-14 -80 -14 -152 q0 -141 54 -248q81 -162 220 -162q100 0 188 92.5t140 286.5h-113q-16 0 -26.5 1t-21.5 12.5t-7 31.5q6 41 69 41h254q16 0 27.5 -1t23 -11t9.5 -29q-2 -16 -10.5 -25t-26 -13.5t-30.5 -5.5t-42 -1l-63 -376q-2 -20 -6.5 -31.5t-17.5 -23t-38 -11.5q-37 0 -42 28q-1 7 -1 17 q0 29 10 80q-152 -147 -297 -148q-186 0 -286 187q-69 129 -70 300q0 77 14 163z" />
<glyph unicode="H" d="M57 43q6 43 70 43h74l180 1079h-74q-16 0 -26.5 1t-21.5 11.5t-9 28.5q8 45 72 45h251q18 0 28.5 -1t21 -12t6.5 -32q-6 -41 -70 -41h-74l-77 -471h491l78 471h-74q-18 0 -28.5 1t-20.5 11.5t-8 30.5q8 43 72 43h251q18 0 28.5 -1t21.5 -12q7 -8 7 -21q0 -5 -1 -11 q-6 -41 -70 -41h-74l-180 -1079h74q18 0 28.5 -1t20.5 -11.5t8 -30.5q-8 -43 -71 -43h-252q-18 0 -28.5 1t-21 12.5t-6.5 31.5q6 41 70 41h74l88 522h-492l-88 -522h74q18 0 28.5 -1t20.5 -11.5t8 -30.5q-8 -43 -71 -43h-252q-16 0 -26.5 1t-21.5 11q-8 8 -9 21q0 5 1 10z " />
<glyph unicode="I" d="M178 45q6 41 72 41h250l180 1079h-250q-16 0 -27.5 1t-22.5 11.5t-9 30.5q8 43 73 43h605q16 0 27 -1t23 -12q8 -8 8 -21q0 -5 -1 -11q-6 -41 -72 -41h-250l-180 -1079h250q16 0 27.5 -1t22.5 -11.5t9 -30.5q-8 -43 -73 -43h-604q-16 0 -27.5 1t-23.5 12q-8 8 -8 22 q0 5 1 10z" />
<glyph unicode="J" d="M184 188q8 39 33 58.5t55.5 19.5t47 -21.5t12.5 -49.5q-4 -25 -35 -58q70 -74 197 -74q27 0 58.5 6.5t79.5 25t84 64.5t48 115l149 891h-194q-18 0 -28.5 1t-22 11.5t-9.5 30.5q8 43 74 43h383q16 0 27.5 -1t22.5 -11q8 -8 9 -20q0 -5 -1 -11q-6 -43 -72 -43h-84 l-152 -903q-20 -129 -134 -207t-253 -78q-147 0 -229 59q-68 49 -68 122q-1 14 2 30z" />
<glyph unicode="K" d="M66 45q6 41 71 41h64l180 1079h-64q-18 0 -28 1t-21.5 11.5t-9.5 30.5q8 43 74 43h213q18 0 28.5 -1t21.5 -12t7 -32q-6 -41 -72 -41h-67l-109 -645l621 645q-41 0 -59.5 1t-33 11.5t-12.5 28.5q8 45 74 45h186q16 0 27.5 -1t23.5 -11q8 -8 8 -20q0 -5 -1 -11 q-2 -20 -18.5 -29.5t-35 -11.5t-61.5 -2l-409 -426l258 -653q37 0 54 -1t30.5 -11.5t11.5 -30.5q-8 -43 -76 -43h-158q-18 0 -28.5 1t-21.5 12.5t-7 31.5q4 29 27.5 35t79.5 6l-232 590l-268 -279l-51 -311h67q18 0 28.5 -1t22 -11.5t9.5 -30.5q-8 -43 -74 -43h-213 q-18 0 -28.5 1t-21.5 12q-8 8 -9 22z" />
<glyph unicode="L" d="M80 43q6 43 70 43h98l180 1079h-98q-18 0 -28.5 1t-21 11.5t-8.5 28.5q8 45 72 45h342q16 0 27.5 -1t23 -12t6.5 -32q-6 -41 -71 -41h-140l-180 -1079h553l29 168q2 20 6 32.5t17.5 22.5t37.5 10q35 0 42 -21q3 -10 4 -20q0 -12 -5 -24l-32 -188q-6 -39 -20.5 -52.5 t-53.5 -13.5h-795q-18 0 -28.5 1t-20.5 11q-7 7 -7 20q0 5 1 11z" />
<glyph unicode="M" d="M47 43q2 20 18.5 29.5t36 11.5t64.5 2l180 1079q-35 0 -50 1t-31.5 4.5t-21.5 12.5t-3 25q8 43 71 43h119q78 0 84 -37l107 -696h4l323 664q18 37 41 53t72 16h119q16 0 26.5 -1t21.5 -11q8 -8 8 -20q0 -5 -1 -11q-2 -20 -18.5 -29.5t-36 -11.5t-64.5 -2l-180 -1079 q35 0 50 -1t31.5 -4t21.5 -12.5t3 -25.5q-8 -43 -71 -43h-174q-16 0 -26.5 1t-22 11.5t-7.5 30.5q2 20 18.5 29.5t36 11.5t64.5 2l180 1079h-14l-344 -698q-16 -35 -74 -35q-49 0 -57 27l-113 706h-14l-180 -1079q35 0 49 -1t30.5 -4t21.5 -12.5t3 -25.5q-8 -43 -72 -43 h-174q-16 0 -26 1t-22 11q-8 8 -8 21q0 5 1 10z" />
<glyph unicode="N" d="M70 45q6 41 69 41h76l180 1079h-76q-18 0 -28 1t-20.5 11.5t-8.5 30.5q8 43 72 43h145q27 0 42.5 -3t27.5 -17t18 -41l226 -1104h18l180 1079h-73q-16 0 -26.5 1t-22 11.5t-9.5 28.5q8 45 72 45h225q18 0 28.5 -1t20.5 -12q7 -8 8 -21q0 -5 -2 -11q-6 -41 -69 -41h-76 l-184 -1099q-8 -43 -22.5 -54.5t-55.5 -11.5q-27 0 -41 3t-28.5 16.5t-20.5 41.5l-226 1104h-18l-180 -1079h74q18 0 28 -1t20.5 -11.5t8.5 -30.5q-8 -43 -72 -43h-225q-18 0 -28.5 1t-20.5 12q-7 8 -8 21q1 5 2 11z" />
<glyph unicode="O" d="M179 161q-2 21 -1.5 49.5t1.5 64.5q3 73 14.5 152t31.5 198q27 160 46.5 254t50 176t60.5 117.5t87 62.5t117.5 33t163.5 6q76 0 126 -3t94 -16.5t68.5 -30t42 -54t21.5 -79.5q2 -24 2 -59q0 -26 -1 -57q-3 -74 -14.5 -153t-31.5 -197q-27 -160 -46.5 -254.5t-50 -175 t-61.5 -117.5t-87 -62.5t-116.5 -32t-163.5 -6.5q-76 0 -126 3.5t-95 15.5t-68.5 29.5t-42 55.5t-21.5 80zM291 229q4 -90 57 -128t199 -38q150 0 215 40t102 141q49 129 90 399q41 239 41 352q0 23 -2 41q-8 92 -65.5 122t-192.5 30q-145 0 -211.5 -34t-103.5 -132 q-41 -100 -88 -379q-42 -265 -42 -380q0 -19 1 -34z" />
<glyph unicode="P" d="M66 43q6 43 71 43h86l180 1079h-86q-16 0 -27 1t-22.5 11.5t-9.5 30.5q8 43 74 43h475q166 0 254 -110q69 -86 69 -194q0 -30 -6 -62q-25 -145 -148.5 -256t-291.5 -111h-287l-71 -432h86q16 0 27.5 -1t22.5 -11.5t9 -30.5q-8 -43 -74 -43h-274q-16 0 -27.5 1t-22.5 11 q-8 8 -9 21zM412 606h245q152 0 248 87t115 192q4 22 4 44q0 79 -53 148q-68 88 -219 88h-246z" />
<glyph unicode="Q" d="M179 161q-2 21 -1.5 49.5t1.5 64.5q3 73 14.5 152t31.5 198q27 160 46.5 254t50 176t60.5 117.5t87 62.5t117.5 33t163.5 6q76 0 126 -3t94 -16.5t68.5 -30t42 -54t21.5 -79.5q2 -24 2 -59q0 -26 -1 -57q-3 -74 -14.5 -153t-31.5 -197q-43 -250 -74 -353 q-33 -123 -75 -182t-128 -92l56 -148q4 -12 23.5 -65t19.5 -59q-4 -20 -52 -21h-18q-45 0 -53 16l-92 259q-37 -2 -132 -3q-76 0 -126 3.5t-95 15.5t-68.5 29.5t-42 55.5t-21.5 80zM287 254q4 -102 51 -146.5t192 -44.5h103l-80 230v8q2 18 49 18h25q23 0 27.5 -3t13.5 -19 l80 -205q47 29 71.5 58.5t61.5 145.5t71 331q43 268 43 370q-2 111 -55 151t-204.5 40t-215 -38t-104.5 -138q-37 -96 -86 -387q-43 -269 -43 -371z" />
<glyph unicode="R" d="M57 43q6 43 70 43h74l180 1079h-74q-16 0 -26.5 1t-21.5 11.5t-9 28.5q8 45 72 45h374q170 0 263 -99q75 -80 76 -183q0 -25 -5 -51q-33 -182 -246 -293q80 -70 101 -140q3 -13 3 -34q0 -52 -18 -156q-15 -70 -15 -126q0 -20 2 -37q7 -69 54 -69q29 0 52.5 44.5 t29.5 72.5q8 43 58 43q44 0 44 -35q0 -6 -1 -12q-10 -68 -62.5 -133.5t-132.5 -65.5q-96 0 -131 78q-14 35 -16 77q-1 17 -1 32q0 22 2 41q3 31 17 117q13 61 13 103q0 6 -1 12q-2 46 -32 81q-63 63 -177 64h-186l-82 -496h74q18 0 28.5 -1t20.5 -11.5t8 -30.5 q-8 -43 -71 -43h-252q-16 0 -26.5 1t-21.5 11q-8 8 -9 21q0 5 1 10zM403 670h175q145 0 239 76.5t111 171.5q3 18 3 34q0 72 -57 135q-70 78 -215 78h-174z" />
<glyph unicode="S" d="M121 43l45 279q4 20 8 31.5t18.5 22.5t38.5 11q23 0 33 -8t9 -20.5t-1 -24.5q-2 -17 -1 -33q0 -112 77 -168q92 -70 248 -70q127 0 216 79t106 177q4 26 4 49q0 163 -213 212l-232 57q-115 35 -170 122q-41 65 -41 139q0 25 4 50q23 131 145 228.5t283 97.5 q174 0 289 -115q31 70 46.5 92.5t39.5 22.5q33 0 33 -42q0 -10 -2 -24l-45 -278q-4 -20 -8 -31.5t-18.5 -23t-39.5 -11.5q-41 0 -43 31q-2 49 -8 84t-28.5 90t-82 87t-149.5 32q-119 0 -208 -69.5t-105 -162.5q-3 -17 -3 -33q0 -57 33 -104q43 -59 117 -82l166 -39 q129 -31 178 -52t98 -79q62 -80 63 -179q0 -28 -5 -58q-25 -141 -148 -247t-288 -106q-213 0 -344 111q-31 -70 -45.5 -90.5t-38.5 -20.5q-33 0 -33 42q0 11 2 24z" />
<glyph unicode="T" d="M229 1030l27 156q6 39 21.5 52t54.5 13h829q39 0 49 -13q6 -8 7 -27q0 -11 -3 -25l-26 -156q-4 -23 -7 -32t-17.5 -21t-39.5 -12q-43 0 -42 45q0 9 1 20l23 135h-322l-180 -1079h131q18 0 28.5 -1t21 -11.5t8.5 -30.5q-8 -43 -72 -43h-367q-18 0 -28.5 1t-20.5 12.5 t-6 31.5q6 41 70 41h131l180 1079h-324l-22 -135q-4 -23 -7 -32t-17.5 -21t-39.5 -12q-43 0 -42 45q-1 9 1 20z" />
<glyph unicode="U" d="M287 1251h272q16 0 27.5 -1t23 -11t6.5 -31q-6 -43 -71 -43h-84l-125 -743q-8 -48 -8 -90q0 -107 49 -174q68 -94 170 -94.5t202.5 95t127.5 263.5l124 743h-83q-16 0 -27.5 1t-23 11.5t-9.5 30.5q8 43 74 43h272q18 0 28.5 -1t21.5 -11q8 -8 9 -20q0 -5 -1 -11 q-6 -43 -72 -43h-84l-125 -753q-33 -184 -164 -309.5t-284.5 -125.5t-243.5 126q-66 92 -66 215q0 45 8 94l125 753h-84q-18 0 -28.5 1t-21.5 12q-10 9 -9 24q0 49 74 49z" />
<glyph unicode="V" d="M315 1251h217q16 0 27.5 -1t23 -11t7.5 -31q-4 -31 -31 -37t-100 -6l84 -1097l14 2l447 1095q-74 0 -98.5 6.5t-20.5 36.5q8 43 73 43h218q16 0 27 -1t23 -11q8 -8 8 -20q0 -5 -1 -11q-2 -20 -19.5 -29.5t-37 -11.5t-66.5 -2l-469 -1120q-12 -29 -30.5 -43t-32 -16 t-44 -2t-45 2t-26.5 16t-14 45l-97 1118q-37 0 -52 1t-32.5 4.5t-22.5 12.5q-4 7 -4 17q0 51 74 51z" />
<glyph unicode="W" d="M301 1251h168q18 0 28.5 -1t20.5 -12t6 -32q-6 -41 -69 -41h-70l-45 -1095h8l238 632q14 33 73 33q61 0 64 -35l25 -630h8l321 1095h-69q-16 0 -26.5 1t-22 11.5t-9.5 28.5q8 45 72 45h168q16 0 27.5 -1t22.5 -12q8 -8 8 -21q0 -5 -1 -11q-6 -41 -84 -41l-342 -1126 q-16 -55 -84 -55q-59 0 -61 36l-31 619l-244 -627q-20 -29 -69 -28q-68 0 -68 55l35 1126h-20q-52 0 -52 34q0 52 74 52z" />
<glyph unicode="X" d="M68 43q6 43 69 43h60l389 582l-180 497h-62q-18 0 -28.5 1t-21.5 11.5t-9 30.5q8 43 73 43h220q16 0 26 -1t21.5 -11t7.5 -31q-2 -20 -18.5 -29.5t-34 -11.5t-58.5 -2l135 -379l248 379q-33 0 -48 1t-31.5 4.5t-21.5 12.5t-3 25q8 43 71 43h222q16 0 27.5 -1t22.5 -12 q8 -8 8 -21q0 -5 -1 -11q-6 -41 -72 -41h-61l-332 -495l213 -584h62q16 0 27 -1t22.5 -11.5t9.5 -30.5q-8 -43 -74 -43h-221q-16 0 -26.5 1t-21.5 11.5t-7 30.5q2 20 18.5 29.5t34.5 11.5t61 2l-166 481l-307 -481q35 0 49.5 -1t32 -4t22.5 -12.5t3 -25.5q-8 -43 -74 -43 h-221q-16 0 -26.5 1t-21.5 11q-8 8 -9 21z" />
<glyph unicode="Y" d="M315 1251h222q16 0 26 -1t21.5 -11t7.5 -31q-2 -20 -18.5 -29.5t-35 -11.5t-63.5 -2l162 -573l348 573q-33 0 -47 1t-30.5 4.5t-21.5 12.5t-3 25q8 43 71 43h222q18 0 28 -1t21 -12q7 -8 7 -21q0 -5 -1 -11q-6 -41 -70 -41h-57l-430 -665l-70 -414h74q18 0 28.5 -1 t20.5 -11.5t8 -30.5q-8 -43 -71 -43h-252q-18 0 -28.5 1t-21 12.5t-6.5 31.5q6 41 70 41h74l69 414l-211 665h-57q-18 0 -28.5 1t-20.5 12q-9 9 -9 24q0 49 72 49z" />
<glyph unicode="Z" d="M113 51q8 31 28 53l895 1061h-608l-22 -135q-4 -23 -7.5 -32t-17.5 -21t-39 -12q-43 0 -43 45q0 9 2 20l27 156q6 39 21.5 52t56.5 13h706q20 0 30.5 -2t20.5 -13q7 -8 8 -23q0 -6 -2 -13q-8 -31 -28 -53l-895 -1061h643l29 174q4 20 8 31.5t18 23t39 11.5q35 0 41 -21.5 t-2 -44.5l-33 -194q-6 -39 -20.5 -52.5t-53.5 -13.5h-745q-20 0 -30.5 2t-20.5 13q-7 8 -8 23q1 6 2 13z" />
<glyph unicode="[" d="M455 -111l245 1473q6 39 20.5 52t53.5 13h383q18 0 28.5 -1t21 -12t7.5 -32q-8 -43 -71 -43h-342l-238 -1427h342q18 0 28.5 -1t21 -12.5t6.5 -31.5q-6 -43 -70 -43h-383q-39 0 -49 13t-4 52z" />
<glyph unicode="\" d="M354 1374q4 20 21.5 36.5t40.5 16.5q33 0 49 -45l455 -1464q10 -27 8 -41q-4 -20 -22.5 -36.5t-39.5 -16.5q-33 0 -49 45l-455 1464q-12 18 -8 41z" />
<glyph unicode="]" d="M68 -131q8 43 71 43h342l238 1427h-342q-18 0 -28.5 1t-21 12.5t-5.5 31.5q6 43 69 43h383q39 0 49.5 -13t3.5 -52l-245 -1473q-6 -39 -20.5 -52t-53.5 -13h-383q-18 0 -28.5 1t-20.5 12.5t-8 31.5z" />
<glyph unicode="^" d="M322 1075q2 23 51 45l325 144q47 20 90 0l277 -144q41 -23 39 -45q-6 -43 -57 -43q-16 0 -58 21l-260 123l-301 -123q-49 -20 -66 -21q-46 0 -40 43z" />
<glyph unicode="_" d="M68 -313q10 53 90 53h671q80 0 70 -53q-8 -53 -88 -54h-672q-18 0 -31.5 2.5t-28.5 14.5t-11 37z" />
<glyph unicode="`" d="M539 1223q4 23 21.5 37t39.5 14l29 -8l262 -127q35 -16 31 -41q-2 -18 -17.5 -41t-42.5 -23l-14 2l-273 131q-44 21 -36 56z" />
<glyph unicode="a" d="M160 250q25 141 207 216t477 79q6 33 5 62q0 196 -253 196q-139 0 -147 -47q-8 -41 -35 -58.5t-54 -17.5q-31 0 -48 20.5t-11 55.5q20 133 307 133q199 0 283 -92q68 -74 67 -168q0 -23 -4 -47l-77 -471q61 -25 143 -25q18 0 28.5 -1t21.5 -11q10 -9 10 -23 q0 -23 -20 -38q-15 -11 -30.5 -12t-44.5 -1q-51 0 -81 2t-70.5 20.5t-59.5 53.5q-150 -88 -328 -88q-147 0 -226 78q-64 63 -64 145q1 19 4 39zM264 250q-2 -11 -1 -21q0 -58 48 -103q57 -52 164 -52q117 0 203 39q47 20 73.5 46.5t33 46t12.5 56.5l34 201 q-250 -8 -401.5 -68.5t-165.5 -144.5z" />
<glyph unicode="b" d="M219 66l184 1099h-116q-16 0 -26.5 1t-22 11.5t-9.5 28.5q8 45 74 45h154q41 0 50 -13t3 -52l-74 -434q168 131 314 131q160 0 254 -131q71 -99 71 -228q0 -42 -8 -88q-31 -188 -176.5 -318t-312.5 -130q-131 0 -246 139q-12 -78 -23.5 -102.5t-46.5 -24.5q-25 0 -36 10 q-10 9 -10 22q0 9 3 34zM375 383q-4 -24 -4 -49q0 -38 9 -79q15 -69 68.5 -125t137.5 -56q125 0 238.5 103.5t140.5 258.5q6 38 6 74q0 102 -52 180q-71 106 -196 107q-109 0 -207 -79t-115 -179z" />
<glyph unicode="c" d="M231 436q12 72 49 146.5t100.5 145.5t167 116t226.5 45q43 0 84 -4t91 -16.5t78 -41.5q23 -23 23 -56q0 -7 -1 -15q-6 -35 -32 -55.5t-56 -20.5q-60 0 -60 57q0 11 2 25q2 10 -23.5 20.5t-59.5 15.5t-60 5q-106 0 -190.5 -41t-130.5 -103.5t-70.5 -118t-32.5 -104.5 q-6 -35 -6 -68q0 -108 66 -189q87 -105 231 -105q57 0 104 16t80 47t47 47.5t33 46.5q14 16 45 17q10 0 18.5 -1t19.5 -10.5t9 -27.5q-4 -16 -25.5 -49t-63.5 -74t-121 -69.5t-173 -28.5q-188 0 -294 132q-82 102 -82 236q0 38 7 80z" />
<glyph unicode="d" d="M152 434q33 188 176 318.5t311 130.5q129 0 250 -121l67 403h-116q-16 0 -26.5 1t-22 11.5t-9.5 28.5q8 45 74 45h154q41 0 50 -13q6 -8 5 -25q0 -11 -2 -27l-184 -1100h116q16 0 26.5 -1t22 -11.5t9.5 -28.5q-8 -45 -74 -45h-154q-45 0 -51 27q-2 7 -2 18q0 31 12 92 q-172 -150 -313 -149q-162 0 -256 130q-71 98 -71 228q0 42 8 88zM254 434q-6 -38 -6 -73q0 -103 53 -182q72 -105 193 -105q123 0 219 103.5t114 211.5l25 152q3 20 3 39q0 75 -50 138q-63 79 -172 79q-125 0 -238.5 -103.5t-140.5 -259.5z" />
<glyph unicode="e" d="M193 438q31 186 179 318.5t328 132.5q186 0 268 -123q60 -91 59 -214q0 -44 -7 -91q-4 -27 -16.5 -40t-23.5 -15.5t-34 -2.5h-655q2 -156 95 -242.5t226 -86.5q178 0 271 151q14 23 49 23q47 0 45 -39q-10 -59 -116.5 -140t-276.5 -81q-195 0 -309 132q-89 104 -89 241 q0 37 7 77zM307 489h613q2 30 2 57q0 130 -58 187q-70 70 -178 70q-119 0 -223.5 -86.5t-155.5 -227.5z" />
<glyph unicode="f" d="M100 45q6 41 72 41h236l116 698h-235q-16 0 -26.5 1t-22 11.5t-9.5 28.5q8 45 74 45h234l22 134q20 123 123.5 191.5t230.5 68.5q23 0 42.5 -2t55.5 -10.5t54 -31.5q14 -18 14 -43q0 -8 -2 -18q-4 -33 -30.5 -53.5t-53.5 -20.5q-37 0 -48 31t-7 62q-49 0 -81 -4.5 t-79 -19.5t-77.5 -56t-40.5 -107l-21 -121h281q18 0 28.5 -1t20.5 -12t6 -32q-6 -41 -70 -41h-280l-117 -698h235q16 0 27.5 -1t23 -11.5t9.5 -30.5q-8 -43 -74 -43h-573q-16 0 -27.5 1t-22.5 12q-8 8 -9 22q0 5 1 10z" />
<glyph unicode="g" d="M31 -195q31 158 211 256q-36 63 -36 124q0 18 3 36q14 76 72 144q-43 71 -44 149q0 25 5 51q23 129 133 223.5t248 94.5q109 0 194 -68q121 78 238 78q66 0 94 -29q24 -24 24 -51q0 -6 -2 -12q-6 -33 -28.5 -49.5t-44.5 -16.5q-18 0 -34.5 16.5t-19.5 57.5 q-90 -8 -178 -51q34 -81 34 -150q0 -22 -3 -43q-23 -133 -133.5 -226t-247.5 -93q-98 0 -190 63q-31 -55 -39 -92v-33q2 -33 16 -55q16 -27 30.5 -33t45.5 -6q37 -4 63 -4h150q197 0 287 -57q63 -37 86 -100q15 -43 15 -85q0 -19 -3 -39q-20 -127 -173 -208.5t-349 -81.5 q-199 0 -322 82q-105 70 -105 173q0 17 3 35zM113 -195l-2 -16q0 -68 92 -125q102 -63 266 -63t289 63.5t137 140.5q3 19 3 36q0 44 -22 76q-32 44 -104 62.5t-134.5 23.5t-156.5 5q-123 0 -160.5 -5t-82.5 -32q-105 -60 -125 -166zM344 563q-4 -22 -4 -42q0 -68 42 -122 q54 -70 148 -69q92 0 170 68.5t95 166.5q4 22 3 43q0 68 -41 121q-54 70 -149 70q-92 0 -170 -69t-94 -167z" />
<glyph unicode="h" d="M37 43q6 43 72 43h114l180 1079h-116q-16 0 -26.5 1t-22 11.5t-9.5 28.5q8 45 74 45h154q41 0 50 -13t3 -52l-76 -445q168 141 324 142q214 0 214 -201q0 -37 -7 -82l-86 -514h114q18 0 28.5 -1t21.5 -11q10 -9 10 -25q0 -49 -72 -49h-324q-16 0 -27.5 1t-22.5 11.5 t-7 30.5q6 43 72 43h104l84 502q7 44 8 78q0 52 -17 82q-28 49 -120 49q-104 0 -208.5 -79t-131.5 -235l-65 -397h114q18 0 28.5 -1t22 -11.5t9.5 -30.5q-8 -43 -72 -43h-336q-16 0 -26.5 1t-21.5 11q-8 8 -8 21q0 5 1 10z" />
<glyph unicode="i" d="M176 43q6 43 72 43h278l117 698h-262q-16 0 -27.5 1t-23 11.5t-8.5 30.5q8 43 73 43h301q41 0 50.5 -13t3.5 -52l-121 -719h243q16 0 27.5 -1t23.5 -11q10 -9 9 -25q0 -49 -74 -49h-625q-16 0 -27 1t-23 11q-8 8 -8 21q0 5 1 10zM647 1153q6 37 35 61.5t63.5 24.5 t55.5 -25q16 -19 16 -45q0 -8 -2 -16q-6 -35 -34.5 -59.5t-63.5 -24.5t-55 25q-16 20 -16 44q0 8 1 15z" />
<glyph unicode="j" d="M47 -342q6 35 31.5 55.5t54.5 20.5t47.5 -20.5t12.5 -53.5l-17 -35l41 -10q43 -10 107 -10q125 0 202 88q72 82 92 203l150 888h-297q-16 0 -26.5 1t-21.5 11.5t-9 28.5q8 45 73 45h334q41 0 50.5 -13t2.5 -52l-153 -920q-10 -55 -37 -112.5t-74 -118t-129 -99 t-184 -38.5q-35 0 -59.5 1t-67.5 8t-68.5 20.5t-43.5 41.5q-13 21 -12 49q-1 10 1 21zM762 1153q6 37 34.5 61.5t63.5 24.5t55 -25q16 -19 16 -45q0 -8 -1 -16q-6 -35 -35 -59.5t-63.5 -24.5t-55.5 25q-16 20 -16 44q1 8 2 15z" />
<glyph unicode="k" d="M55 45q6 41 70 41h111l180 1079h-111q-18 0 -28.5 1t-20.5 11.5t-8 30.5q8 43 71 43h138q41 0 50 -13t3 -52l-133 -795l483 393h-131q-16 0 -26.5 1t-21.5 11.5t-9 28.5q8 45 71 45h326q16 0 27.5 -1t22.5 -12q8 -8 8 -21q0 -5 -1 -11q-6 -41 -71 -41h-76l-326 -266 l260 -432h72q16 0 27.5 -1t23 -11.5t8.5 -30.5q-8 -43 -73 -43h-250q-16 0 -26.5 1t-21.5 11.5t-7 30.5q2 12 7 20.5t15 12.5t26.5 5t39.5 1h53l-225 375l-224 -174l-32 -197h125q18 0 28 -1t20.5 -11.5t8.5 -30.5q-8 -43 -72 -43h-325q-18 0 -28.5 1t-21.5 12q-7 8 -7 21 q0 5 1 11z" />
<glyph unicode="l" d="M133 43q6 43 72 43h295l180 1079h-297q-16 0 -26.5 1t-21.5 11.5t-9 28.5q8 45 73 45h336q39 0 49.5 -13t3.5 -52l-184 -1100h297q18 0 28.5 -1t20.5 -11q9 -9 9 -24q0 -50 -72 -50h-699q-16 0 -26 1t-22 11q-8 8 -8 21q0 5 1 10z" />
<glyph unicode="m" d="M6 43q4 31 28.5 37t94.5 6l117 698q-70 0 -92.5 6.5t-18.5 36.5q8 43 74 43h67q20 0 29.5 -3t19 -23.5t5.5 -61.5q125 100 213 101q96 0 133 -131q117 131 237 131q57 0 90 -33t38 -86q4 -44 5 -73v-11q-1 -31 -6 -59l-90 -535q70 0 92 -6q19 -5 19 -28q0 -52 -74 -52 h-158q-16 0 -27 1t-22.5 11.5t-7.5 30.5q2 20 17.5 30.5t30 11.5t46.5 1l86 516q9 57 10 96q0 37 -9 57q-17 42 -62 42q-78 0 -149.5 -82t-94.5 -228l-67 -401q70 0 92 -6t18 -37q-8 -43 -74 -43h-157q-16 0 -27.5 1t-23 11.5t-7.5 30.5q2 20 17.5 30.5t30 11.5t47.5 1 l86 516q9 57 9 96q0 37 -8 57q-17 42 -63 42q-76 0 -146.5 -82t-92.5 -228l-68 -401q70 0 92.5 -6t18.5 -37q-8 -43 -74 -43h-187q-16 0 -26 1t-23 11q-9 8 -9 21q0 5 1 10z" />
<glyph unicode="n" d="M37 43q6 43 72 43h114l117 698h-117q-16 0 -26.5 1t-21.5 11.5t-9 28.5q8 45 74 45h153q45 0 51 -25q2 -7 2 -18q0 -29 -12 -86q168 141 324 142q214 0 214 -201q0 -37 -7 -82l-86 -514h114q18 0 28.5 -1t21.5 -11q10 -9 10 -25q0 -49 -72 -49h-324q-16 0 -27.5 1 t-22.5 11.5t-7 30.5q6 43 72 43h104l84 502q7 44 8 78q0 52 -17 82q-28 49 -120 49q-104 0 -208.5 -79t-131.5 -235l-65 -397h114q18 0 28.5 -1t22 -11.5t9.5 -30.5q-8 -43 -72 -43h-336q-16 0 -26.5 1t-21.5 11q-8 8 -8 21q0 5 1 10z" />
<glyph unicode="o" d="M197 436q31 188 174 320.5t313 132.5t270 -132q77 -101 77 -236q0 -41 -7 -85q-33 -188 -177.5 -318t-312 -130t-269.5 130q-77 98 -76 230q0 42 8 88zM303 451q-7 -42 -7 -81q0 -105 53 -186q73 -111 200 -110q125 0 235.5 110.5t137.5 266.5q6 37 6 71q0 105 -58 180 q-76 100 -200 101q-123 0 -232.5 -100t-134.5 -252z" />
<glyph unicode="p" d="M31 -383h114l195 1167h-117q-16 0 -26.5 1t-21.5 11.5t-9 28.5q8 45 74 45h153q43 0 50 -23q2 -8 3 -21q0 -26 -10 -74q168 131 314 131q160 0 254 -131q71 -99 71 -228q0 -42 -8 -88q-31 -188 -176.5 -318t-312.5 -130q-131 0 -246 139l-84 -510h114q18 0 28.5 -1 t22 -12.5t7.5 -31.5q-6 -43 -70 -43h-336q-16 0 -26.5 1t-21.5 11q-10 9 -9 25q0 51 74 51zM375 383q-4 -24 -4 -49q0 -38 9 -79q15 -69 68.5 -125t137.5 -56q125 0 238.5 103.5t140.5 258.5q6 38 6 74q0 102 -52 180q-71 106 -196 107q-109 0 -207 -79t-115 -179z" />
<glyph unicode="q" d="M160 434q31 188 182.5 318.5t325.5 130.5q147 0 260 -150q14 96 26.5 123t51.5 27q35 0 42 -22q3 -10 3 -20q0 -12 -4 -24l-201 -1200h125q18 0 28.5 -1t20.5 -12.5t6 -31.5q-6 -43 -70 -43h-354q-18 0 -28.5 1t-20.5 12.5t-8 31.5q8 43 71 43h125l88 530 q-172 -160 -333 -159q-168 0 -268 130q-76 99 -76 231q1 41 8 85zM262 434q-6 -36 -6 -69q0 -106 59 -186q78 -105 205 -105q129 0 230.5 102.5t119.5 212.5l15 84q5 31 5 60q0 87 -45 162q-60 101 -181 102q-137 0 -256 -104.5t-146 -258.5z" />
<glyph unicode="r" d="M80 45q6 41 70 41h192l117 698h-193q-18 0 -28.5 1t-20.5 11.5t-8 30.5q8 43 72 43h231q41 0 50 -13t3 -52l-22 -129q217 207 415 207q55 0 91 -11.5t50.5 -30t18.5 -34.5q3 -11 3 -23q0 -6 -1 -12q-6 -31 -28.5 -50.5t-51.5 -19.5q-31 0 -46 26q-10 17 -10 41q0 13 3 28 q-205 0 -336 -126t-159 -298l-48 -287h256q18 0 28.5 -1t22 -11.5t9.5 -30.5q-8 -43 -74 -43h-551q-18 0 -28.5 1t-20.5 12q-7 8 -7 21q0 5 1 11z" />
<glyph unicode="s" d="M164 53l35 205q4 23 7 32t17.5 21.5t38.5 12.5q37 0 43 -25q20 -133 90 -179t170 -46q147 0 228 49t94 121q2 11 2 22q0 30 -17 53q-23 33 -68.5 52.5t-86.5 31t-92 19.5q-59 8 -92 14t-85.5 19.5t-82 30t-58 40t-39.5 58.5q-6 19 -5 41q0 17 3 37q6 33 25.5 65.5 t62.5 72.5t128 64.5t202 24.5q129 0 231 -53q14 31 24.5 42t35.5 11q33 0 33 -42q0 -10 -2 -24l-25 -145q-8 -66 -63 -66q-39 0 -44 31q0 7 1 14q0 66 -36 104q-40 42 -173 42q-150 0 -227 -43t-87 -98q-1 -7 -1 -15q0 -34 33 -60q40 -32 82 -45.5t87 -19.5l141 -24 q33 -6 57.5 -11.5t75 -25t82 -44t53.5 -70.5q15 -31 14 -67q0 -17 -3 -36q-6 -41 -29.5 -81t-69 -82t-130.5 -67.5t-195 -25.5q-160 0 -270 94q-47 -94 -82 -94t-35 42q0 10 2 23z" />
<glyph unicode="t" d="M266 870h207l33 195q8 66 61 65q43 0 43 -45q0 -9 -2 -20l-33 -195h369q18 0 28.5 -1t20.5 -12q7 -8 8 -21q0 -5 -2 -11q-6 -41 -69 -41h-369l-88 -526q-2 -33 -6 -74v-7q0 -37 36 -68q40 -35 124 -35q37 0 76.5 10t86 53t58.5 111q8 59 61 59q25 0 36 -9t10 -23.5 t-3 -28.5q-20 -123 -124.5 -190.5t-225.5 -67.5q-119 0 -187 62q-52 47 -52 134q0 29 6 62l90 538h-209q-16 0 -26.5 1t-21.5 12q-10 9 -10 23q0 50 74 50z" />
<glyph unicode="u" d="M240 870h153q41 0 50.5 -13t2.5 -52l-96 -572q-4 -41 -6 -75v-4q0 -33 39 -56q41 -25 129 -24q37 0 76 8t89 30.5t87 74t49 124.5l80 473h-117q-16 0 -26.5 1t-21.5 11.5t-9 28.5q8 45 74 45h153q41 0 50.5 -13t2.5 -52l-120 -719h116q16 0 26.5 -1t21.5 -11 q10 -9 10 -23v-6q-8 -45 -74 -45h-154q-20 0 -30.5 3t-18.5 23.5t-2 61.5q-150 -100 -289 -100q-125 0 -192 52q-52 40 -52 125q0 26 5 56l94 563h-117q-16 0 -26.5 1t-21.5 12q-10 9 -9 23q0 50 74 50z" />
<glyph unicode="v" d="M262 870h248q18 0 28.5 -1t20.5 -12t6 -32q-6 -41 -69 -41h-88l120 -706h41l359 706h-88q-18 0 -28.5 1t-21 11.5t-8.5 30.5q8 43 72 43h248q18 0 28.5 -1t20.5 -12q7 -8 7 -21q0 -5 -1 -11q-6 -41 -70 -41h-75l-371 -737q-29 -55 -106 -55q-25 0 -38.5 2t-28.5 15.5 t-19 39.5l-125 735h-76q-16 0 -26.5 1t-21.5 12q-10 9 -10 23q0 50 72 50z" />
<glyph unicode="w" d="M250 870h244q20 0 31.5 -1t21.5 -12t6 -32q-6 -41 -74 -41h-121l4 -706h13l178 393q16 35 72 35q66 0 65 -37l35 -391h12l240 706h-121q-20 0 -31.5 1t-21.5 11.5t-8 30.5q8 43 75 43h244q18 0 29.5 -1t22.5 -11q8 -8 9 -20q0 -5 -1 -11q-2 -20 -16.5 -29.5t-32 -11.5 t-58.5 -2l-252 -729q-10 -33 -27.5 -48t-60.5 -15q-55 0 -72 24l-37 404h-12l-160 -371q-14 -35 -35.5 -46t-62.5 -11q-47 0 -59.5 14t-9.5 49l-11 729q-31 0 -45 1t-28.5 4.5t-18.5 12.5q-3 6 -3 15q1 53 77 53z" />
<glyph unicode="x" d="M68 43q6 43 71 43h97l329 363l-200 335h-95q-16 0 -27.5 1t-22.5 11.5t-9 28.5q8 45 74 45h247q16 0 26.5 -1t22 -11t7.5 -31q-2 -20 -19.5 -29.5t-38 -11.5t-71.5 -2l157 -274l244 274q-74 0 -98.5 6.5t-20.5 36.5q8 43 72 43h248q16 0 27.5 -1t22.5 -12q8 -8 8 -21 q0 -5 -1 -11q-6 -41 -71 -41h-95l-303 -335l215 -363h97q16 0 27 -1t22.5 -11.5t9.5 -30.5q-8 -43 -74 -43h-248q-18 0 -28.5 1t-20.5 11.5t-6 30.5q4 31 30.5 37t100.5 6l-178 311l-274 -311q78 0 102.5 -6t19.5 -37q-8 -43 -71 -43h-248q-16 0 -26.5 1t-22.5 11 q-9 8 -9 21q0 5 1 10z" />
<glyph unicode="y" d="M39 -330q4 31 27.5 51.5t56.5 20.5q31 0 47 -19.5t10 -50.5l-18 -41l6 -12q6 -14 14 -14q55 0 97.5 23.5t101.5 109.5q23 33 74 135l51 100l-182 811h-72q-16 0 -26.5 1t-21.5 11.5t-9 28.5q8 45 71 45h248q18 0 28.5 -1t20.5 -12t6 -32q-6 -41 -69 -41h-84l151 -712 l355 712h-82q-18 0 -28.5 1t-21 11.5t-8.5 30.5q8 43 72 43h248q18 0 28.5 -1t20.5 -12q7 -8 7 -21q0 -5 -1 -11q-6 -41 -70 -41h-77l-496 -979q-14 -29 -34.5 -58.5t-69 -91t-113 -100t-130 -38.5t-101.5 46q-29 36 -29 81q0 13 2 26z" />
<glyph unicode="z" d="M82 51q4 23 12 34t39 36l809 663h-600l-12 -77q-4 -20 -8.5 -31.5t-18.5 -23t-39 -11.5q-42 0 -42 41q0 11 3 25l17 98q6 39 20 52t55 13h721q20 0 30.5 -2t21.5 -13q7 -8 7 -23q0 -6 -1 -13q-6 -33 -54 -69l-809 -664h644l16 102q4 20 8 31.5t18.5 23t38.5 11.5 q42 0 42 -41q0 -11 -3 -25l-20 -122q-4 -53 -39 -66h-799q-20 0 -31.5 2t-20.5 13q-6 8 -6 22q0 6 1 14z" />
<glyph unicode="{" d="M227 627q4 20 18.5 31.5t24.5 11.5q154 0 244 35q66 27 84 56.5t33 104.5l61 365q74 197 426 196q20 0 31.5 -1t23 -12t9.5 -32q-4 -20 -18.5 -31.5t-24.5 -11.5q-272 0 -334 -96l-82 -442q-20 -94 -174 -176q133 -80 110 -203l-55 -342q-10 -27 -4 -55.5t24.5 -53 t87 -42t181.5 -19.5q43 0 35 -41q-6 -45 -76 -45q-182 0 -285 61q-94 55 -67 201l59 352q16 127 -297 146q-43 0 -35 43z" />
<glyph unicode="|" d="M467 -98l242 1448q8 78 65 77q49 0 41 -77l-242 -1448q-16 -78 -65 -78q-57 0 -41 78z" />
<glyph unicode="}" d="M100 -131q4 20 18.5 31.5t24.5 11.5q117 2 192 16.5t106.5 43t41 48t15.5 54.5l63 377q0 10 10.5 31.5t53.5 65.5t110 79q-76 45 -99.5 92t-12.5 108l57 342q10 29 4 58.5t-24.5 53.5t-86 40t-178.5 18q-47 0 -41 43q6 45 74 45q186 0 289 -61q94 -57 67 -197l-59 -354 q-16 -129 297 -147q41 0 33 -43q-4 -20 -18.5 -31.5t-24.5 -11.5q-152 0 -242 -35q-66 -27 -84 -56.5t-33 -105.5l-61 -365q-72 -197 -430 -196q-18 0 -29.5 1t-23 12.5t-9.5 31.5z" />
<glyph unicode="~" d="M283 565q4 25 112 101q102 66 164 65q45 0 90 -37l35 -38q14 -15 24.5 -24t19.5 -13.5t20 -4.5q55 0 178 99q23 18 41 18q16 0 27.5 -14.5t9.5 -32.5q-4 -29 -113 -98q-102 -66 -164 -66q-49 0 -90 37l-35 38q-14 15 -24.5 24.5t-19.5 13.5t-19 4q-55 0 -179 -100 q-25 -16 -41 -16.5t-28 14t-8 30.5z" />
<glyph unicode="&#xa0;" />
<glyph unicode="&#xa1;" d="M387 -393l135 704q12 51 25.5 65.5t54.5 14.5q14 0 24.5 -1t23 -9t9.5 -23l-104 -751q-8 -41 -30.5 -65.5t-39 -30t-31 -5.5t-29.5 5.5t-30.5 30t-7.5 65.5zM569 696.5q6 34.5 35 59t63.5 24.5t55 -24.5t14.5 -59t-34.5 -59.5t-63.5 -25t-55.5 25t-14.5 59.5z" />
<glyph unicode="&#xa2;" d="M231 436q14 90 63.5 177t155 168t246.5 104l23 137q2 18 18.5 31.5t35 13.5t29.5 -13.5t7 -31.5l-23 -133q39 0 61.5 -2t60.5 -5t60.5 -12.5t45 -24t31 -37t4.5 -52.5q-6 -35 -32 -55.5t-56 -20.5q-70 0 -58 82q2 8 -15.5 18.5t-49 16.5t-66.5 6l-121 -729 q158 20 234 151q18 23 51 23q10 0 18.5 -1t19.5 -10.5t9 -27.5q-6 -47 -96 -126t-250 -95l-23 -140q-2 -18 -18 -31.5t-34.5 -13.5t-30 13.5t-7.5 31.5l23 142q-170 29 -257.5 153.5t-58.5 292.5zM336 436q-20 -129 41 -224t186 -132l119 719q-88 -23 -156.5 -69 t-106.5 -101.5t-57.5 -103.5t-25.5 -89z" />
<glyph unicode="&#xa3;" d="M66 152q14 82 96 130t180 48q43 0 129 -35q-10 98 -65 278h-152q-23 0 -35 15.5t-10 38.5q2 20 20.5 36.5t40.5 16.5h99q-29 129 -13 211q25 150 147 255t271 105q145 0 236.5 -91t68.5 -226q-4 -29 -29.5 -50.5t-54 -21.5t-46 21.5t-13.5 50.5q6 29 39 59 q-16 72 -76.5 112t-142.5 40q-104 0 -191.5 -75t-103.5 -179q-14 -82 10 -211h356q20 0 35 -15.5t10 -37.5q-2 -23 -20 -38.5t-41 -15.5h-305l18 -57q4 -12 15.5 -50t14.5 -54.5t10 -48t8 -52t1 -47t-4 -51.5q53 -45 83 -66.5t79 -43t98 -21.5q113 0 146 203q4 23 22.5 37 t38.5 14q23 0 36 -15.5t9 -35.5q-20 -125 -95 -216.5t-175 -91.5q-43 0 -92 25t-84 51.5t-92 75.5q-119 -152 -324 -152q-76 0 -120.5 50.5t-32.5 124.5zM172 152q-4 -29 15.5 -49.5t50.5 -20.5q162 0 223 104q-78 39 -137 39q-140 1 -152 -73z" />
<glyph unicode="&#xa4;" d="M272 303q-33 37 29 98l72 60q-37 80 -25 166q16 84 80 166l-53 63q-41 59 -2 92q39 35 90 -16l53 -64q92 53 176 54q80 0 158 -54l70 62q63 49 90 20q33 -37 -27 -96l-72 -59q39 -88 25 -168q-14 -84 -82 -168l53 -62q41 -59 2 -92q-39 -35 -90 17l-51 63 q-94 -53 -174 -53q-86 0 -160 53l-69 -61q-70 -46 -93 -21zM454.5 627q-12.5 -78 34 -133.5t123.5 -55.5q76 0 140.5 55.5t77 133.5t-33.5 133t-122 55q-78 0 -142.5 -55t-77 -133z" />
<glyph unicode="&#xa5;" d="M229 461q2 23 20.5 38t41.5 15h274l-71 225h-166q-23 0 -35 15.5t-8 38.5q2 20 20.5 35.5t40.5 15.5h113l-101 321h-57q-18 0 -28.5 1t-20.5 11.5t-8 30.5q8 43 71 43h222q16 0 26 -1t21.5 -11t7.5 -31q-2 -20 -18.5 -29.5t-35 -11.5t-63.5 -2l98 -321h218l194 321 q-33 0 -47 1t-30.5 4.5t-21.5 12.5t-3 25q8 43 71 43h222q18 0 28 -1t20.5 -12t6.5 -32q-6 -41 -70 -41h-57l-207 -321h115q23 0 35 -15.5t10 -35.5q-4 -23 -22.5 -38.5t-41.5 -15.5h-168l-143 -225h274q23 0 35.5 -15.5t9.5 -37.5q-4 -20 -22 -35.5t-41 -15.5h-281 l-53 -324h74q18 0 28.5 -1t20.5 -11.5t8 -30.5q-8 -43 -71 -43h-252q-18 0 -28.5 1t-21 12.5t-6.5 31.5q6 41 70 41h74l53 324h-281q-23 0 -35 15.5t-8 35.5zM604 739l31 -161l92 161h-123z" />
<glyph unicode="&#xa6;" d="M467 -98l86 510q6 43 59 43q23 0 36.5 -12.5t10.5 -30.5l-86 -510q-16 -78 -65 -78q-57 0 -41 78zM623 840l86 510q8 78 65 77q49 0 41 -77l-86 -510q-6 -43 -59 -43q-23 0 -36 12.5t-11 30.5z" />
<glyph unicode="&#xa7;" d="M160 627q12 74 65.5 133t124.5 84q-37 61 -24 137q20 129 147 211t279 82q154 0 253 -69.5t80 -190.5q-6 -31 -30.5 -52.5t-55 -21.5t-49 21.5t-12.5 52.5q2 33 35 57q-35 96 -240 96q-111 0 -199 -50t-102 -136q-12 -74 43 -117t152 -73l213 -68q123 -41 195.5 -126 t51.5 -200q-12 -76 -64 -134t-124 -83q37 -63 25 -137q-23 -129 -149 -211t-277 -82q-154 0 -254.5 69.5t-79.5 190.5q4 31 29.5 52.5t56.5 21.5t48 -21.5t13 -52.5q-6 -33 -37 -57q35 -96 240 -96q111 0 200 50t103 136q10 74 -45 117t-151 73l-211 68q-123 39 -195.5 125 t-54.5 201zM266 627q-12 -80 43.5 -137.5t147.5 -86.5l211 -67q90 -31 151 -74q55 -4 104.5 37t57.5 98q14 80 -41 137.5t-147 86.5l-213 67q-88 31 -152 74q-55 4 -104.5 -37t-57.5 -98z" />
<glyph unicode="&#xa8;" d="M481 1153q4 33 30 54.5t56.5 21.5t48 -21.5t13.5 -54.5q-4 -31 -30 -52.5t-56.5 -21.5t-48 21.5t-13.5 52.5zM831 1153q4 33 30 54.5t56.5 21.5t48 -21.5t13.5 -54.5q-4 -31 -29.5 -52.5t-56.5 -21.5t-48.5 21.5t-13.5 52.5z" />
<glyph unicode="&#xa9;" d="M92 537q37 219 220.5 375.5t404.5 156.5q219 0 351 -156.5t95 -375.5q-37 -221 -220 -379t-404.5 -158t-352.5 157t-94 380zM131 537q-35 -205 86 -351.5t328 -146.5q205 0 375 146.5t204 351.5q35 203 -87 348t-326.5 145t-374.5 -145t-205 -348zM328 535 q27 166 132 277.5t226 111.5q90 0 158 -68q33 49 33 53q18 14 26 15q27 0 21 -39l-29 -176v-2q-2 -14 -5 -19.5t-11.5 -11.5t-22.5 -6q-23 0 -27 30q0 80 -42 126t-105 46q-92 0 -180 -97t-112.5 -240.5t31.5 -240.5t150 -97q57 0 120 38.5t83 129.5q8 25 35 24q33 0 27 -31 q-12 -82 -94.5 -147.5t-184.5 -65.5q-123 0 -190.5 112t-38.5 278z" />
<glyph unicode="&#xaa;" d="M350 834q33 195 477 200q35 193 -176 193h-55q-27 -4 -38 -9.5t-14 -10.5t-5 -19q-10 -47 -54 -47q-20 0 -30.5 12t-5.5 35q14 86 206 86q137 0 195.5 -62.5t44.5 -144.5l-55 -336q41 -18 106 -18q31 0 33 -23q-4 -25 -57 -24q-117 0 -144 55q-113 -66 -235 -66 q-100 0 -152.5 52.5t-40.5 126.5zM365 524q4 27 49 27h432q18 0 30.5 -7t10.5 -20q-4 -23 -49 -22h-432q-18 0 -30.5 6t-10.5 16zM412 834q-10 -53 31.5 -91t119.5 -38q82 0 146 28q35 14 54 33.5t23.5 34t10.5 41.5l24 147q-182 -6 -290.5 -50t-118.5 -105z" />
<glyph unicode="&#xab;" d="M207 627q4 31 31 47l520 393q18 14 26 14q27 0 17 -45q-4 -27 -31 -49l-477 -360l358 -361q18 -23 15 -49q-10 -45 -33 -45q-8 0 -23 14l-393 398q-14 14 -10 43zM551 627q4 31 31 47l520 393q16 14 26 14q27 0 17 -45q-4 -25 -33 -49l-475 -360l356 -361q20 -25 17 -49 q-10 -45 -33 -45q-10 0 -23 14l-393 398q-14 10 -10 43z" />
<glyph unicode="&#xac;" d="M215 788.5q4 22.5 22.5 37t38.5 14.5h799q23 0 36 -15.5t9 -36.5l-53 -323q-2 -20 -20.5 -35.5t-40.5 -15.5q-20 0 -34 14t-9 37l45 270h-748q-20 0 -34.5 15.5t-10.5 38z" />
<glyph unicode="&#xad;" d="M225 627q8 53 88 53h672q18 0 31.5 -2t29 -14.5t11.5 -36.5q-8 -53 -88 -54h-672q-18 0 -31.5 2.5t-29 14.5t-11.5 37z" />
<glyph unicode="&#xae;" d="M92 537q37 219 220.5 375.5t404.5 156.5q219 0 351 -156.5t95 -375.5q-37 -221 -220 -379t-404.5 -158t-352.5 157t-94 380zM131 537q-35 -205 86 -351.5t328 -146.5q205 0 375 146.5t204 351.5q35 203 -87 348t-326.5 145t-374.5 -145t-205 -348zM297 184v9q4 25 41 24 h45l106 647h-45q-31 0 -32 25q6 29 43 29h225q102 0 157.5 -60.5t41.5 -140.5q-18 -111 -146 -176q47 -43 60 -84q6 -25 -9 -115q-23 -137 25 -137q18 0 31.5 25.5t15.5 43.5q6 25 35 25q31 0 27 -27q-6 -41 -37 -80.5t-80 -39.5q-55 0 -80 47q-16 43 2 159q16 86 -10 119 q-39 37 -107 37h-112l-50 -297h45q10 0 16.5 -1t13.5 -6t5 -17q-4 -27 -43 -27h-151q-31 0 -33 18zM502 567h104q88 0 145.5 46t65.5 104q10 55 -32 101t-130 46h-104z" />
<glyph unicode="&#xaf;" d="M352 1155q8 45 72 45h631q18 0 28.5 -1t20.5 -12t6 -34q-8 -43 -72 -43h-628q-18 0 -29.5 1t-22 12.5t-6.5 31.5z" />
<glyph unicode="&#xb0;" d="M575 1116q10 59 60.5 107.5t118.5 48.5q59 0 95 -50.5t25 -103.5q-10 -59 -58 -105t-122 -46q-66 0 -96.5 48t-22.5 101zM653 1116q-6 -31 13.5 -49t46.5 -18q31 0 55.5 19t28.5 50q4 29 -12.5 50.5t-45.5 21.5q-31 0 -56.5 -21.5t-29.5 -52.5z" />
<glyph unicode="&#xb1;" d="M92 53q10 53 88 53h322l49 295h-322q-78 0 -69.5 53.5t86.5 53.5h321l56 323q8 80 65 80q49 0 41 -80l-55 -323h321q78 0 70 -53.5t-86 -53.5h-322l-49 -295h322q16 0 29.5 -2t27.5 -14t10 -37q-8 -53 -86 -53h-749q-78 0 -70 53z" />
<glyph unicode="&#xb2;" d="M426 667.5q2 12.5 18 24.5l258 197q133 98 150 188q10 66 -32 103t-109 37q-98 0 -136 -91q8 -16 7 -28q-6 -43 -47 -43q-6 0 -14.5 2t-16.5 14t-4 31q12 68 76.5 121t150.5 53q96 0 150.5 -56.5t40.5 -142.5q-18 -111 -154 -213l-223 -166h247q2 16 5.5 23.5t11.5 14.5 t24 7q33 0 25 -41l-4 -22q-4 -35 -29 -41h-356q-10 0 -17.5 1t-15.5 8t-6 19.5z" />
<glyph unicode="&#xb3;" d="M438 780q6 45 49 45q18 0 28.5 -12t6.5 -29q-2 -12 -12 -24l-2 -4q-4 -16 33 -43t104 -27q66 0 114 39t58 92q6 49 -26.5 89t-106.5 40h-47q-12 0 -18.5 1t-11.5 8.5t-3 21.5q4 27 29 29l59 4q72 6 108 46t40 77q6 35 -25 59.5t-82 24.5q-86 0 -125 -41l4 -27 q-10 -41 -49 -41q-16 0 -27.5 10t-7.5 33q8 57 68.5 91t146.5 34q82 0 127 -42t35 -101q-14 -98 -114 -154q57 -27 77.5 -72t12.5 -92q-10 -76 -81 -132t-165 -56t-151.5 43.5t-45.5 109.5z" />
<glyph unicode="&#xb4;" d="M518 1098q4 25 47 41l303 127l33 8q23 0 36 -14.5t9 -36.5q-8 -35 -57 -56l-318 -131l-14 -2q-47 1 -39 64z" />
<glyph unicode="&#xb5;" d="M-43 -428q8 43 74 43h114l195 1169h-117q-16 0 -26.5 1t-21.5 11.5t-9 28.5q8 45 74 45h153q41 0 50.5 -13t2.5 -52l-96 -572q-4 -41 -6 -75.5t39 -59t129 -24.5q37 0 76 8t89 30.5t87 74t49 124.5l80 473h-117q-16 0 -26.5 1t-21.5 11.5t-9 28.5q8 45 74 45h153 q41 0 50.5 -13t2.5 -52l-120 -719h116q16 0 26.5 -1t22 -11.5t9.5 -28.5q-8 -45 -74 -45h-154q-20 0 -30.5 3t-18.5 23.5t-2 61.5q-150 -100 -289 -100q-113 0 -170 37l-67 -410h114q18 0 28.5 -1t22 -11.5t7.5 -30.5q-6 -43 -70 -43h-336q-16 0 -26.5 1t-21.5 11.5t-9 30.5 z" />
<glyph unicode="&#xb6;" d="M264 958q33 193 182.5 331t329.5 138h443q12 0 18 -1t12 -6t4 -15q-2 -20 -41 -21h-110l-293 -1746q-2 -14 -13.5 -32t-21.5 -18q-12 0 -17 16.5t-3 33.5l293 1746h-146l-293 -1746q-2 -14 -13 -32t-21.5 -18t-15.5 16.5t-3 33.5l143 847q-94 4 -177 35t-149.5 86.5 t-96 146t-11.5 205.5z" />
<glyph unicode="&#xb7;" d="M530 627q8 43 45 76.5t87 33.5q45 0 72.5 -32.5t19.5 -79.5q-8 -43 -45 -77t-86 -34q-45 0 -73 33t-20 80z" />
<glyph unicode="&#xb8;" d="M281 -395q2 20 18 29.5t34.5 11.5t59.5 2q104 0 212 23.5t118 82.5q6 39 -31 71t-112 36q-33 2 -40.5 22.5t1.5 44.5l10 58q8 68 63 67q35 0 41.5 -26.5t-8.5 -83.5q104 -20 146.5 -72.5t31.5 -116.5q-8 -47 -33.5 -81.5t-71.5 -55t-87 -33t-107.5 -17.5t-104.5 -6 t-104 -1q-44 0 -36 45z" />
<glyph unicode="&#xb9;" d="M475 668q6 31 47 30h90l74 439l-39 -23q-37 -23 -74 -22q-33 0 -28 30q6 29 43 29q63 4 125 102q12 23 32 23q31 0 25 -41l-90 -537h90q10 0 17.5 -1t13.5 -8t4 -21q-4 -29 -45 -29h-248q-10 0 -17.5 1t-14.5 8.5t-5 19.5z" />
<glyph unicode="&#xba;" d="M410 524q4 27 47 27h346q18 0 29.5 -7t9.5 -20q-4 -23 -47 -22h-346q-18 0 -29.5 6t-9.5 16zM414 963q23 131 122 221t215.5 90t184.5 -91t45 -220q-20 -127 -120.5 -217.5t-213.5 -90.5q-115 0 -184 89.5t-49 218.5zM475 975q-18 -113 35 -191.5t145 -78.5 q90 0 170 78.5t99 191.5q18 109 -36 180.5t-144.5 71.5t-170.5 -71.5t-98 -180.5z" />
<glyph unicode="&#xbb;" d="M137 217q4 29 33 49l475 361l-356 360q-20 20 -17 49q10 45 33 45q10 0 23 -14l389 -393q18 -18 14 -47q-2 -27 -22 -43l-529 -398q-16 -14 -26 -14q-27 0 -17 45zM479 217q4 25 33 49l477 361l-358 360q-20 25 -17 49q10 45 35 45q8 0 23 -14l389 -393q18 -25 14 -47 q-2 -23 -22 -43l-529 -398q-18 -14 -26 -14q-29 0 -19 45z" />
<glyph unicode="&#xbc;" d="M170 668q6 31 47 30h90l74 439l-39 -23q-39 -23 -74 -22q-33 0 -28 30q6 29 43 29q63 4 125 102q12 23 32 23q31 0 25 -41l-90 -537h90q10 0 17 -1t13.5 -8t4.5 -21q-4 -29 -45 -29h-248q-10 0 -17.5 1t-14.5 8.5t-5 19.5zM199 12q2 4 10 15.5t8 13.5l873 1214 q25 29 51 29q23 0 16 -37q-6 -23 -22 -39l-869 -1212q-25 -29 -45 -29q-30 0 -22 45zM569 213q4 20 15 33l297 375q16 20 43 20h24q27 0 33 -8t2 -35l-61 -367h77q10 0 17.5 -1t14.5 -8t5 -19q-6 -31 -47 -31h-78l-18 -113h61q10 0 17.5 -1t14.5 -8t5 -19q-6 -31 -47 -31 h-180q-10 0 -17.5 1t-13.5 8t-4 22q4 29 45 28h62l18 113h-250q-23 0 -31 7t-4 34zM641 231h223l60 359z" />
<glyph unicode="&#xbd;" d="M141 12q2 4 10.5 15.5t8.5 13.5l872 1214q25 29 51 29q23 0 17 -37q-6 -23 -23 -39l-868 -1212q-25 -29 -45 -29q-31 0 -23 45zM170 668q6 31 47 30h90l74 439l-39 -23q-39 -23 -74 -22q-33 0 -28 30q6 29 43 29q63 4 125 102q12 23 32 23q31 0 25 -41l-90 -537h90 q10 0 17 -1t13.5 -8t4.5 -21q-4 -29 -45 -29h-248q-10 0 -17.5 1t-14.5 8.5t-5 19.5zM598 32.5q2 14.5 20 26.5l256 191q137 100 152 188q10 63 -32 100t-109 37q-41 0 -79 -22.5t-54 -56.5q14 -10 10 -33q-10 -45 -53 -45q-47 0 -39 49q10 68 76.5 119t154.5 51 q96 0 152.5 -54.5t42.5 -144.5q-18 -106 -146 -205q-29 -23 -115.5 -85t-115.5 -85h244q4 18 6 25.5t11 15t25.5 7.5t23.5 -6.5t6 -15.5t-1 -19l-4 -27q-4 -25 -14 -34t-35 -9h-346q-12 0 -19.5 1t-13.5 9t-4 22.5z" />
<glyph unicode="&#xbe;" d="M176 780q6 45 47 45q18 0 28.5 -12t6.5 -28.5t-10 -24.5l-2 -4q-4 -16 31.5 -43t103.5 -27q66 0 114 39t58 92q6 49 -26.5 89t-106.5 40h-47q-37 0 -33 31q4 27 31 29l57 4q72 6 107.5 46t39.5 77q6 35 -24.5 59.5t-81.5 24.5q-86 0 -125 -41l4 -27q-10 -41 -49 -41 q-41 0 -33 43q8 57 67.5 91t145.5 34q82 0 128 -42t36 -101q-14 -96 -115 -154q57 -27 78 -72t12 -92q-10 -74 -81.5 -131t-166 -57t-150.5 43.5t-44 109.5zM199 12q2 4 10 15.5t8 13.5l873 1214q25 29 51 29q23 0 16 -37q-6 -23 -22 -39l-869 -1212q-25 -29 -45 -29 q-30 0 -22 45zM569 213q4 20 15 33l297 375q16 20 43 20h24q27 0 33 -8t2 -35l-61 -367h77q10 0 17.5 -1t14.5 -8t5 -19q-6 -31 -47 -31h-78l-18 -113h61q10 0 17.5 -1t14.5 -8t5 -19q-6 -31 -47 -31h-180q-10 0 -17.5 1t-13.5 8t-4 22q4 29 45 28h62l18 113h-250 q-23 0 -31 7t-4 34zM641 231h223l60 359z" />
<glyph unicode="&#xbf;" d="M91 -276.5q-3 22.5 3 34.5q18 104 148 191q211 127 247 342l7 35q6 41 21 53t52 12q45 0 52.5 -19.5t-3.5 -68.5q-8 -47 -18 -80t-42 -95t-99.5 -126.5t-165.5 -124.5q-82 -43 -96 -119q-6 -35 6 -62.5t37.5 -42.5t52 -26.5t61.5 -15.5t53.5 -5t36.5 -1q217 0 324 92 q-20 27 -16 61q6 33 30.5 53.5t53 20.5t48 -20.5t13.5 -57.5q-10 -68 -59.5 -116t-102.5 -70.5t-128 -35.5t-108.5 -14t-70.5 -1q-84 0 -148.5 14t-97 37.5t-56.5 51.5t-28 54.5t-7 49zM536.5 696.5q6.5 34.5 35 59t63.5 24.5q37 0 57.5 -24.5t14 -59t-35 -59.5t-65.5 -25 q-35 0 -55.5 25t-14 59.5z" />
<glyph unicode="&#xc0;" d="M68 43q4 29 30 41q12 2 99 2l448 1126q12 31 29.5 45.5t31 16.5t44.5 2q33 0 46 -2t24 -17.5t14 -46.5l71 -1124q84 0 96 -2q25 -10 21 -41q-8 -43 -80 -43h-215q-20 0 -31.5 1t-21.5 11.5t-6 30.5q4 31 29.5 37t99.5 6l-13 264h-376l-103 -264q74 0 97.5 -6t19.5 -37 q-8 -43 -76 -43h-217q-18 0 -29.5 1t-23.5 11.5t-8 30.5zM444 436h332l-33 754h-14zM594 1567q4 23 22.5 38t40.5 15l29 -8l262 -127q35 -18 31 -43q-2 -18 -17.5 -41t-41.5 -23l-15 4l-272 131q-43 19 -39 54z" />
<glyph unicode="&#xc1;" d="M68 43q4 29 30 41q12 2 99 2l448 1126q12 31 29.5 45.5t31 16.5t44.5 2q33 0 46 -2t24 -17.5t14 -46.5l71 -1124q84 0 96 -2q25 -10 21 -41q-8 -43 -80 -43h-215q-20 0 -31.5 1t-21.5 11.5t-6 30.5q4 31 29.5 37t99.5 6l-13 264h-376l-103 -264q74 0 97.5 -6t19.5 -37 q-8 -43 -76 -43h-217q-18 0 -29.5 1t-23.5 11.5t-8 30.5zM444 436h332l-33 754h-14zM574 1419.5q-1 12.5 1 22.5q4 23 48 43l303 127l32 8q23 0 35.5 -15.5t7.5 -37.5q-4 -33 -55 -54l-317 -131l-15 -4q-18 0 -28.5 14.5t-11.5 27z" />
<glyph unicode="&#xc2;" d="M68 43q4 29 30 41q12 2 99 2l448 1126q12 31 29.5 45.5t31 16.5t44.5 2q33 0 46 -2t24 -17.5t14 -46.5l71 -1124q84 0 96 -2q25 -10 21 -41q-8 -43 -80 -43h-215q-20 0 -31.5 1t-21.5 11.5t-6 30.5q4 31 29.5 37t99.5 6l-13 264h-376l-103 -264q74 0 97.5 -6t19.5 -37 q-8 -43 -76 -43h-217q-18 0 -29.5 1t-23.5 11.5t-8 30.5zM444 436h332l-33 754h-14zM477 1403q4 27 53 45l236 82q29 8 53 0l207 -82q41 -16 37 -45q-8 -45 -57 -45q-14 0 -58 14l-172 62l-192 -62q-53 -14 -66 -14q-49 0 -41 45z" />
<glyph unicode="&#xc3;" d="M68 43q4 29 30 41q12 2 99 2l448 1126q12 31 29.5 45.5t31 16.5t44.5 2q33 0 46 -2t24 -17.5t14 -46.5l71 -1124q84 0 96 -2q25 -10 21 -41q-8 -43 -80 -43h-215q-20 0 -31.5 1t-21.5 11.5t-6 30.5q4 31 29.5 37t99.5 6l-13 264h-376l-103 -264q74 0 97.5 -6t19.5 -37 q-8 -43 -76 -43h-217q-18 0 -29.5 1t-23.5 11.5t-8 30.5zM422 1403q4 25 113 100q102 66 163 66q45 0 90 -37l35 -38q14 -15 24.5 -24.5t20 -13.5t19.5 -4q55 0 178 98q23 18 41 19q16 0 27.5 -14.5t9.5 -32.5q-4 -29 -113 -99q-96 -66 -164 -65q-49 0 -90 37q-33 37 -45 48 t-26.5 20.5t-26.5 9.5q-59 0 -178 -99q-25 -16 -41.5 -16t-28.5 14.5t-8 30.5zM444 436h332l-33 754h-14z" />
<glyph unicode="&#xc4;" d="M68 43q4 29 30 41q12 2 99 2l448 1126q12 31 29.5 45.5t31 16.5t44.5 2q33 0 46 -2t24 -17.5t14 -46.5l71 -1124q84 0 96 -2q25 -10 21 -41q-8 -43 -80 -43h-215q-20 0 -31.5 1t-21.5 11.5t-6 30.5q4 31 29.5 37t99.5 6l-13 264h-376l-103 -264q74 0 97.5 -6t19.5 -37 q-8 -43 -76 -43h-217q-18 0 -29.5 1t-23.5 11.5t-8 30.5zM444 436h332l-33 754h-14zM496 1432q6 33 30.5 53t55 20t49 -21.5t12.5 -51.5q-4 -31 -29.5 -52.5t-56.5 -21.5t-48 21.5t-13 52.5zM907 1432q6 33 31 53t55.5 20t49 -21.5t12.5 -51.5q-4 -31 -30 -52.5t-56.5 -21.5 t-48 21.5t-13.5 52.5z" />
<glyph unicode="&#xc5;" d="M68 43q4 29 30 41q12 2 99 2l448 1126q12 31 29.5 45.5t31 16.5t44.5 2q33 0 46 -2t24 -17.5t14 -46.5l71 -1124q84 0 96 -2q25 -10 21 -41q-8 -43 -80 -43h-215q-20 0 -31.5 1t-21.5 11.5t-6 30.5q4 31 29.5 37t99.5 6l-13 264h-376l-103 -264q74 0 97.5 -6t19.5 -37 q-8 -43 -76 -43h-217q-18 0 -29.5 1t-23.5 11.5t-8 30.5zM444 436h332l-33 754h-14zM567 1421q10 61 77 105.5t157 44.5q88 0 141 -44t43 -106q-10 -59 -77.5 -102t-155.5 -43q-90 0 -142.5 43t-42.5 102zM670 1421q-6 -33 22.5 -51t71.5 -18t78 18.5t41 50.5q4 35 -24 54.5 t-71 19.5q-45 0 -79.5 -20.5t-38.5 -53.5z" />
<glyph unicode="&#xc6;" d="M59 43q2 20 18.5 30.5t33 11.5t53.5 1l399 1079q-33 0 -47 1t-26.5 11.5t-10.5 30.5q8 43 72 43h594q41 0 50 -13t3 -52l-27 -156q-12 -66 -47 -65q-41 0 -28 65l22 135h-284l-80 -473h264q18 0 28.5 -1t20.5 -12t8 -32q-8 -41 -71 -41h-265l-86 -520h301l29 168 q12 66 49 65q41 0 29 -65l-33 -188q-6 -39 -20.5 -52.5t-53.5 -13.5h-411q-18 0 -28.5 1t-22 12.5t-7.5 31.5q6 41 90 41l52 301h-273l-112 -301q39 0 55 -1t29.5 -11.5t11.5 -30.5q-8 -43 -72 -43h-151q-16 0 -26.5 1t-22 11.5t-7.5 30.5zM385 475h256l115 690h-117z" />
<glyph unicode="&#xc7;" d="M193 627q45 274 221 460.5t377 186.5q150 0 262 -113q49 72 57 88q25 25 45 25q41 0 31 -66l-47 -293q-4 -23 -8.5 -33t-18.5 -21t-39 -11q-20 0 -30.5 8t-11.5 16.5l-3 26.5q0 133 -69.5 210t-174.5 77q-154 0 -301 -161t-188 -400q-41 -242 53 -403t250 -161 q96 0 200.5 66t139.5 213q10 41 57 41q53 0 45 -49q-23 -137 -141.5 -233.5t-216.5 -110.5l-8 -49l31 -7q33 -6 69.5 -23t62 -58t17.5 -99q-8 -47 -33.5 -81.5t-72 -55t-88.5 -33t-108.5 -17.5t-104 -6t-103.5 -1q-45 0 -37 45q2 20 19.5 30.5t35 11.5t58.5 1 q106 0 212.5 23.5t117.5 82.5q6 39 -31 71t-113 36q-49 2 -37 67l9 47q-209 10 -319.5 195t-65.5 457z" />
<glyph unicode="&#xc8;" d="M66 43q6 43 71 43h86l180 1079h-86q-16 0 -27 1t-22.5 11.5t-9.5 30.5q8 43 74 43h790q39 0 49.5 -13t4.5 -52l-27 -156q-4 -23 -7 -32t-17.5 -21t-39.5 -12q-51 0 -41 65l23 135h-561l-80 -473h322q10 55 15 73.5t18.5 33t37.5 14.5q51 0 41 -65l-33 -197q-4 -23 -7 -32 t-16 -21.5t-38 -12.5q-37 0 -41 27t8 94h-321l-86 -520h608l29 168q8 66 63 65q35 0 42 -21.5t-1 -43.5l-33 -188q-6 -39 -20.5 -52.5t-52.5 -13.5h-838q-16 0 -27.5 1t-22.5 11.5t-7 30.5zM594 1567q4 23 22.5 38t40.5 15l29 -8l262 -127q35 -18 31 -43q-2 -18 -17.5 -41 t-41.5 -23l-15 4l-272 131q-43 19 -39 54z" />
<glyph unicode="&#xc9;" d="M66 43q6 43 71 43h86l180 1079h-86q-16 0 -27 1t-22.5 11.5t-9.5 30.5q8 43 74 43h790q39 0 49.5 -13t4.5 -52l-27 -156q-4 -23 -7 -32t-17.5 -21t-39.5 -12q-51 0 -41 65l23 135h-561l-80 -473h322q10 55 15 73.5t18.5 33t37.5 14.5q51 0 41 -65l-33 -197q-4 -23 -7 -32 t-16 -21.5t-38 -12.5q-37 0 -41 27t8 94h-321l-86 -520h608l29 168q8 66 63 65q35 0 42 -21.5t-1 -43.5l-33 -188q-6 -39 -20.5 -52.5t-52.5 -13.5h-838q-16 0 -27.5 1t-22.5 11.5t-7 30.5zM574 1419.5q-1 12.5 1 22.5q4 23 48 43l303 127l32 8q23 0 35.5 -15.5t7.5 -37.5 q-4 -33 -55 -54l-317 -131l-15 -4q-18 0 -28.5 14.5t-11.5 27z" />
<glyph unicode="&#xca;" d="M66 43q6 43 71 43h86l180 1079h-86q-16 0 -27 1t-22.5 11.5t-9.5 30.5q8 43 74 43h790q39 0 49.5 -13t4.5 -52l-27 -156q-4 -23 -7 -32t-17.5 -21t-39.5 -12q-51 0 -41 65l23 135h-561l-80 -473h322q10 55 15 73.5t18.5 33t37.5 14.5q51 0 41 -65l-33 -197q-4 -23 -7 -32 t-16 -21.5t-38 -12.5q-37 0 -41 27t8 94h-321l-86 -520h608l29 168q8 66 63 65q35 0 42 -21.5t-1 -43.5l-33 -188q-6 -39 -20.5 -52.5t-52.5 -13.5h-838q-16 0 -27.5 1t-22.5 11.5t-7 30.5zM477 1403q4 27 53 45l236 82q29 8 53 0l207 -82q41 -16 37 -45q-8 -45 -57 -45 q-14 0 -58 14l-172 62l-192 -62q-53 -14 -66 -14q-49 0 -41 45z" />
<glyph unicode="&#xcb;" d="M66 43q6 43 71 43h86l180 1079h-86q-16 0 -27 1t-22.5 11.5t-9.5 30.5q8 43 74 43h790q39 0 49.5 -13t4.5 -52l-27 -156q-4 -23 -7 -32t-17.5 -21t-39.5 -12q-51 0 -41 65l23 135h-561l-80 -473h322q10 55 15 73.5t18.5 33t37.5 14.5q51 0 41 -65l-33 -197q-4 -23 -7 -32 t-16 -21.5t-38 -12.5q-37 0 -41 27t8 94h-321l-86 -520h608l29 168q8 66 63 65q35 0 42 -21.5t-1 -43.5l-33 -188q-6 -39 -20.5 -52.5t-52.5 -13.5h-838q-16 0 -27.5 1t-22.5 11.5t-7 30.5zM496 1432q6 33 30.5 53t55 20t49 -21.5t12.5 -51.5q-4 -31 -29.5 -52.5 t-56.5 -21.5t-48 21.5t-13 52.5zM907 1432q6 33 31 53t55.5 20t49 -21.5t12.5 -51.5q-4 -31 -30 -52.5t-56.5 -21.5t-48 21.5t-13.5 52.5z" />
<glyph unicode="&#xcc;" d="M178 45q6 41 72 41h250l180 1079h-250q-16 0 -27.5 1t-22.5 11.5t-9 30.5q8 43 73 43h605q16 0 27 -1t22.5 -12t7.5 -32q-6 -41 -72 -41h-250l-180 -1079h250q16 0 27.5 -1t22.5 -11.5t9 -30.5q-8 -43 -73 -43h-604q-16 0 -27.5 1t-23 12.5t-7.5 31.5zM594 1567 q4 23 22.5 38t40.5 15l29 -8l262 -127q35 -18 31 -43q-2 -18 -17.5 -41t-41.5 -23l-15 4l-272 131q-43 19 -39 54z" />
<glyph unicode="&#xcd;" d="M178 45q6 41 72 41h250l180 1079h-250q-16 0 -27.5 1t-22.5 11.5t-9 30.5q8 43 73 43h605q16 0 27 -1t22.5 -12t7.5 -32q-6 -41 -72 -41h-250l-180 -1079h250q16 0 27.5 -1t22.5 -11.5t9 -30.5q-8 -43 -73 -43h-604q-16 0 -27.5 1t-23 12.5t-7.5 31.5zM574 1419.5 q-1 12.5 1 22.5q4 23 48 43l303 127l32 8q23 0 35.5 -15.5t7.5 -37.5q-4 -33 -55 -54l-317 -131l-15 -4q-18 0 -28.5 14.5t-11.5 27z" />
<glyph unicode="&#xce;" d="M178 45q6 41 72 41h250l180 1079h-250q-16 0 -27.5 1t-22.5 11.5t-9 30.5q8 43 73 43h605q16 0 27 -1t22.5 -12t7.5 -32q-6 -41 -72 -41h-250l-180 -1079h250q16 0 27.5 -1t22.5 -11.5t9 -30.5q-8 -43 -73 -43h-604q-16 0 -27.5 1t-23 12.5t-7.5 31.5zM477 1403 q4 27 53 45l236 82q29 8 53 0l207 -82q41 -16 37 -45q-8 -45 -57 -45q-14 0 -58 14l-172 62l-192 -62q-53 -14 -66 -14q-49 0 -41 45z" />
<glyph unicode="&#xcf;" d="M178 45q6 41 72 41h250l180 1079h-250q-16 0 -27.5 1t-22.5 11.5t-9 30.5q8 43 73 43h605q16 0 27 -1t22.5 -12t7.5 -32q-6 -41 -72 -41h-250l-180 -1079h250q16 0 27.5 -1t22.5 -11.5t9 -30.5q-8 -43 -73 -43h-604q-16 0 -27.5 1t-23 12.5t-7.5 31.5zM496 1432 q6 33 30.5 53t55 20t49 -21.5t12.5 -51.5q-4 -31 -29.5 -52.5t-56.5 -21.5t-48 21.5t-13 52.5zM907 1432q6 33 31 53t55.5 20t49 -21.5t12.5 -51.5q-4 -31 -30 -52.5t-56.5 -21.5t-48 21.5t-13.5 52.5z" />
<glyph unicode="&#xd0;" d="M51 43q6 43 72 43h67l82 496h-79q-18 0 -28.5 12t-8.5 33q2 18 18 31.5t35 13.5h80l82 493h-68q-16 0 -27.5 1t-22.5 11.5t-9 28.5q8 45 73 45h437q197 0 288 -189.5t48 -445.5q-41 -254 -196 -435t-349 -181h-436q-16 0 -27.5 1t-23 11.5t-7.5 30.5zM295 86h223 q176 0 305 160t164 370.5t-39 379.5t-250 169h-223l-82 -493h146q18 0 29.5 -13.5t6.5 -31.5q-2 -20 -18 -32.5t-35 -12.5h-145z" />
<glyph unicode="&#xd1;" d="M70 45q6 41 69 41h76l180 1079h-76q-18 0 -28 1t-20.5 11.5t-8.5 30.5q8 43 72 43h145q27 0 42.5 -3t27.5 -17t18 -41l226 -1104h18l180 1079h-73q-16 0 -26.5 1t-22 11.5t-9.5 28.5q8 45 72 45h225q18 0 28.5 -1t21 -12t5.5 -32q-6 -41 -69 -41h-76l-184 -1099 q-8 -43 -22.5 -54.5t-55.5 -11.5q-27 0 -41 3t-28.5 16.5t-20.5 41.5l-226 1104h-18l-180 -1079h74q18 0 28 -1t20.5 -11.5t8.5 -30.5q-8 -43 -72 -43h-225q-18 0 -28.5 1t-20.5 12.5t-6 31.5zM422 1403q4 25 113 100q102 66 163 66q45 0 90 -37l35 -38q14 -15 24.5 -24.5 t20 -13.5t19.5 -4q55 0 178 98q23 18 41 19q16 0 27.5 -14.5t9.5 -32.5q-4 -29 -113 -99q-96 -66 -164 -65q-49 0 -90 37q-33 37 -45 48t-26.5 20.5t-26.5 9.5q-59 0 -178 -99q-25 -16 -41.5 -16t-28.5 14.5t-8 30.5z" />
<glyph unicode="&#xd2;" d="M179 161q-3 42 0 114.5t14.5 151.5t31.5 198q27 160 46.5 254t50 176t60.5 117.5t87 62.5t117.5 33t163.5 6q76 0 126 -3t94 -16.5t68.5 -30t42 -54t21.5 -79.5t1 -116t-14.5 -153t-31.5 -197q-27 -160 -46.5 -254.5t-50 -175t-61.5 -117.5t-87 -62.5t-116.5 -32 t-163.5 -6.5q-76 0 -126 3.5t-95 15.5t-68.5 29.5t-42 55.5t-21.5 80zM291 229q4 -90 57 -128t199 -38q150 0 215 40t102 141q49 129 90 399q49 289 39 393q-8 92 -65.5 122t-192.5 30q-145 0 -211.5 -34t-103.5 -132q-41 -100 -88 -379q-49 -310 -41 -414zM594 1567 q4 23 22.5 38t40.5 15l29 -8l262 -127q35 -18 31 -43q-2 -18 -17.5 -41t-41.5 -23l-15 4l-272 131q-43 19 -39 54z" />
<glyph unicode="&#xd3;" d="M179 161q-3 42 0 114.5t14.5 151.5t31.5 198q27 160 46.5 254t50 176t60.5 117.5t87 62.5t117.5 33t163.5 6q76 0 126 -3t94 -16.5t68.5 -30t42 -54t21.5 -79.5t1 -116t-14.5 -153t-31.5 -197q-27 -160 -46.5 -254.5t-50 -175t-61.5 -117.5t-87 -62.5t-116.5 -32 t-163.5 -6.5q-76 0 -126 3.5t-95 15.5t-68.5 29.5t-42 55.5t-21.5 80zM291 229q4 -90 57 -128t199 -38q150 0 215 40t102 141q49 129 90 399q49 289 39 393q-8 92 -65.5 122t-192.5 30q-145 0 -211.5 -34t-103.5 -132q-41 -100 -88 -379q-49 -310 -41 -414zM574 1419.5 q-1 12.5 1 22.5q4 23 48 43l303 127l32 8q23 0 35.5 -15.5t7.5 -37.5q-4 -33 -55 -54l-317 -131l-15 -4q-18 0 -28.5 14.5t-11.5 27z" />
<glyph unicode="&#xd4;" d="M179 161q-3 42 0 114.5t14.5 151.5t31.5 198q27 160 46.5 254t50 176t60.5 117.5t87 62.5t117.5 33t163.5 6q76 0 126 -3t94 -16.5t68.5 -30t42 -54t21.5 -79.5t1 -116t-14.5 -153t-31.5 -197q-27 -160 -46.5 -254.5t-50 -175t-61.5 -117.5t-87 -62.5t-116.5 -32 t-163.5 -6.5q-76 0 -126 3.5t-95 15.5t-68.5 29.5t-42 55.5t-21.5 80zM291 229q4 -90 57 -128t199 -38q150 0 215 40t102 141q49 129 90 399q49 289 39 393q-8 92 -65.5 122t-192.5 30q-145 0 -211.5 -34t-103.5 -132q-41 -100 -88 -379q-49 -310 -41 -414zM477 1403 q4 27 53 45l236 82q29 8 53 0l207 -82q41 -16 37 -45q-8 -45 -57 -45q-14 0 -58 14l-172 62l-192 -62q-53 -14 -66 -14q-49 0 -41 45z" />
<glyph unicode="&#xd5;" d="M179 161q-3 42 0 114.5t14.5 151.5t31.5 198q27 160 46.5 254t50 176t60.5 117.5t87 62.5t117.5 33t163.5 6q76 0 126 -3t94 -16.5t68.5 -30t42 -54t21.5 -79.5t1 -116t-14.5 -153t-31.5 -197q-27 -160 -46.5 -254.5t-50 -175t-61.5 -117.5t-87 -62.5t-116.5 -32 t-163.5 -6.5q-76 0 -126 3.5t-95 15.5t-68.5 29.5t-42 55.5t-21.5 80zM291 229q4 -90 57 -128t199 -38q150 0 215 40t102 141q49 129 90 399q49 289 39 393q-8 92 -65.5 122t-192.5 30q-145 0 -211.5 -34t-103.5 -132q-41 -100 -88 -379q-49 -310 -41 -414zM422 1403 q4 25 113 100q102 66 163 66q45 0 90 -37l35 -38q14 -15 24.5 -24.5t20 -13.5t19.5 -4q55 0 178 98q23 18 41 19q16 0 27.5 -14.5t9.5 -32.5q-4 -29 -113 -99q-96 -66 -164 -65q-49 0 -90 37q-33 37 -45 48t-26.5 20.5t-26.5 9.5q-59 0 -178 -99q-25 -16 -41.5 -16 t-28.5 14.5t-8 30.5z" />
<glyph unicode="&#xd6;" d="M179 161q-3 42 0 114.5t14.5 151.5t31.5 198q27 160 46.5 254t50 176t60.5 117.5t87 62.5t117.5 33t163.5 6q76 0 126 -3t94 -16.5t68.5 -30t42 -54t21.5 -79.5t1 -116t-14.5 -153t-31.5 -197q-27 -160 -46.5 -254.5t-50 -175t-61.5 -117.5t-87 -62.5t-116.5 -32 t-163.5 -6.5q-76 0 -126 3.5t-95 15.5t-68.5 29.5t-42 55.5t-21.5 80zM291 229q4 -90 57 -128t199 -38q150 0 215 40t102 141q49 129 90 399q49 289 39 393q-8 92 -65.5 122t-192.5 30q-145 0 -211.5 -34t-103.5 -132q-41 -100 -88 -379q-49 -310 -41 -414zM496 1432 q6 33 30.5 53t55 20t49 -21.5t12.5 -51.5q-4 -31 -29.5 -52.5t-56.5 -21.5t-48 21.5t-13 52.5zM907 1432q6 33 31 53t55.5 20t49 -21.5t12.5 -51.5q-4 -31 -30 -52.5t-56.5 -21.5t-48 21.5t-13.5 52.5z" />
<glyph unicode="&#xd7;" d="M272 303q-33 37 29 98l266 226l-192 229q-41 59 -2 92q39 35 90 -16l190 -232l265 230q70 45 92 20q33 -37 -27 -96l-268 -227l192 -230q41 -59 2 -92q-39 -35 -90 17l-190 231l-267 -229q-63 -50 -90 -21z" />
<glyph unicode="&#xd8;" d="M180 293q6 113 45 332q27 160 46.5 254t50 176t60.5 117.5t87 62.5t117.5 33t163.5 6q92 0 161 -4l58 112q20 49 51 50q6 0 14 -2.5t17.5 -12.5t7.5 -28l-64 -138q100 -45 109.5 -179t-47.5 -447q-27 -160 -46.5 -254.5t-50 -175t-61.5 -117.5t-87 -62.5t-116.5 -32 t-163.5 -6.5q-92 0 -163 5l-56 -113q-20 -49 -51 -49q-6 0 -14 2t-17.5 12t-7.5 29l64 135q-76 37 -95.5 101.5t-11.5 193.5zM267 303q-1 -115 14.5 -144.5t54.5 -64.5l530 1080q-41 12 -47 12q-23 2 -84 2q-147 0 -221 -31t-117 -127q-41 -98 -94 -405q-35 -207 -36 -322z M416 78q41 -12 47 -12q23 -2 84 -3q147 0 221 31t117 127q41 98 94 406q35 207 36 321.5t-14.5 144t-54.5 64.5z" />
<glyph unicode="&#xd9;" d="M213 1208q8 43 74 43h272q16 0 27.5 -1t23 -11t6.5 -31q-6 -43 -71 -43h-84l-125 -743q-27 -170 40.5 -264.5t170 -94.5t203 95.5t127.5 263.5l124 743h-83q-16 0 -27.5 1t-23 11.5t-9.5 30.5q8 43 74 43h272q18 0 28.5 -1t22 -11t7.5 -31q-6 -43 -72 -43h-84l-125 -753 q-33 -184 -164 -309.5t-284.5 -125.5t-243.5 126t-58 309l125 753h-84q-18 0 -28.5 1t-21.5 11.5t-9 30.5zM594 1567q4 23 22.5 38t40.5 15l29 -8l262 -127q35 -18 31 -43q-2 -18 -17.5 -41t-41.5 -23l-15 4l-272 131q-43 19 -39 54z" />
<glyph unicode="&#xda;" d="M213 1208q8 43 74 43h272q16 0 27.5 -1t23 -11t6.5 -31q-6 -43 -71 -43h-84l-125 -743q-27 -170 40.5 -264.5t170 -94.5t203 95.5t127.5 263.5l124 743h-83q-16 0 -27.5 1t-23 11.5t-9.5 30.5q8 43 74 43h272q18 0 28.5 -1t22 -11t7.5 -31q-6 -43 -72 -43h-84l-125 -753 q-33 -184 -164 -309.5t-284.5 -125.5t-243.5 126t-58 309l125 753h-84q-18 0 -28.5 1t-21.5 11.5t-9 30.5zM574 1419.5q-1 12.5 1 22.5q4 23 48 43l303 127l32 8q23 0 35.5 -15.5t7.5 -37.5q-4 -33 -55 -54l-317 -131l-15 -4q-18 0 -28.5 14.5t-11.5 27z" />
<glyph unicode="&#xdb;" d="M213 1208q8 43 74 43h272q16 0 27.5 -1t23 -11t6.5 -31q-6 -43 -71 -43h-84l-125 -743q-27 -170 40.5 -264.5t170 -94.5t203 95.5t127.5 263.5l124 743h-83q-16 0 -27.5 1t-23 11.5t-9.5 30.5q8 43 74 43h272q18 0 28.5 -1t22 -11t7.5 -31q-6 -43 -72 -43h-84l-125 -753 q-33 -184 -164 -309.5t-284.5 -125.5t-243.5 126t-58 309l125 753h-84q-18 0 -28.5 1t-21.5 11.5t-9 30.5zM477 1403q4 27 53 45l236 82q29 8 53 0l207 -82q41 -16 37 -45q-8 -45 -57 -45q-14 0 -58 14l-172 62l-192 -62q-53 -14 -66 -14q-49 0 -41 45z" />
<glyph unicode="&#xdc;" d="M213 1208q8 43 74 43h272q16 0 27.5 -1t23 -11t6.5 -31q-6 -43 -71 -43h-84l-125 -743q-27 -170 40.5 -264.5t170 -94.5t203 95.5t127.5 263.5l124 743h-83q-16 0 -27.5 1t-23 11.5t-9.5 30.5q8 43 74 43h272q18 0 28.5 -1t22 -11t7.5 -31q-6 -43 -72 -43h-84l-125 -753 q-33 -184 -164 -309.5t-284.5 -125.5t-243.5 126t-58 309l125 753h-84q-18 0 -28.5 1t-21.5 11.5t-9 30.5zM496 1432q6 33 30.5 53t55 20t49 -21.5t12.5 -51.5q-4 -31 -29.5 -52.5t-56.5 -21.5t-48 21.5t-13 52.5zM907 1432q6 33 31 53t55.5 20t49 -21.5t12.5 -51.5 q-4 -31 -30 -52.5t-56.5 -21.5t-48 21.5t-13.5 52.5z" />
<glyph unicode="&#xdd;" d="M244 1208q8 43 71 43h222q16 0 26 -1t21.5 -11t7.5 -31q-2 -20 -18.5 -29.5t-35 -11.5t-63.5 -2l162 -573l348 573q-33 0 -47 1t-30.5 4.5t-21.5 12.5t-3 25q8 43 71 43h222q18 0 28 -1t20.5 -12t6.5 -32q-6 -41 -70 -41h-57l-430 -665l-70 -414h74q18 0 28.5 -1 t20.5 -11.5t8 -30.5q-8 -43 -71 -43h-252q-18 0 -28.5 1t-21 12.5t-6.5 31.5q6 41 70 41h74l69 414l-211 665h-57q-18 0 -28.5 1t-20.5 11.5t-8 30.5zM574 1419.5q-1 12.5 1 22.5q4 23 48 43l303 127l32 8q23 0 35.5 -15.5t7.5 -37.5q-4 -33 -55 -54l-317 -131l-15 -4 q-18 0 -28.5 14.5t-11.5 27z" />
<glyph unicode="&#xde;" d="M57 43q6 43 70 43h74l180 1079h-74q-16 0 -26.5 1t-21.5 11.5t-9 28.5q8 45 72 45h251q18 0 28.5 -1t21 -12t6.5 -32q-6 -41 -70 -41h-74l-28 -172h286q166 0 254 -110.5t63.5 -256t-148.5 -256t-291 -110.5h-287l-29 -174h74q18 0 28.5 -1t20.5 -11.5t8 -30.5 q-8 -43 -71 -43h-252q-16 0 -26.5 1t-22 11.5t-7.5 30.5zM348 348h246q152 0 248 87t114.5 191.5t-49 191.5t-219.5 87h-246z" />
<glyph unicode="&#xdf;" d="M47 43q6 43 70 43h135l117 698h-136q-16 0 -26 1t-21.5 11.5t-9.5 28.5q8 45 72 45h135l29 170q10 66 55 113t107.5 69.5t119 32t111.5 9.5q147 0 240.5 -57.5t78.5 -151.5q-23 -131 -235 -238q227 -180 180 -467q-27 -160 -155 -261t-273 -101q-92 0 -136 40t-36 97 q6 31 28.5 49.5t49.5 18.5q31 0 45 -25q8 -18 -2 -78q33 -16 65 -16q100 0 193.5 75.5t116.5 200.5q2 39 5 90.5t-15.5 109.5t-47 107.5t-90 84t-145.5 40.5q-31 10 -27 43q8 41 47 45q154 4 237 65.5t91 117.5q6 45 -60.5 85t-171.5 40q-92 0 -172 -33q-43 -18 -65.5 -39 t-27.5 -35t-11 -47l-160 -958q-6 -39 -20.5 -52.5t-52.5 -13.5h-177q-16 0 -26 1t-21.5 11.5t-7.5 30.5z" />
<glyph unicode="&#xe0;" d="M160 250q25 141 207 216t477 79q43 258 -248 258q-139 0 -147 -47q-8 -41 -35 -58.5t-54 -17.5q-31 0 -48 20.5t-11 55.5q20 133 307 133q199 0 283 -92t63 -215l-77 -471q61 -25 143 -25q18 0 28.5 -1t21.5 -11.5t9 -28.5q-4 -20 -19.5 -31.5t-30.5 -12.5t-44 -1 q-51 0 -81 2t-70.5 20.5t-59.5 53.5q-150 -88 -328 -88q-147 0 -225.5 78t-60.5 184zM264 250q-10 -72 47.5 -124t163.5 -52q117 0 203 39q47 20 73.5 46.5t33 46t12.5 56.5l34 201q-250 -8 -401.5 -68.5t-165.5 -144.5zM539 1223q4 23 21.5 37t39.5 14l29 -8l262 -127 q35 -16 31 -41q-2 -18 -17.5 -41t-42.5 -23l-14 2l-273 131q-44 21 -36 56z" />
<glyph unicode="&#xe1;" d="M160 250q25 141 207 216t477 79q43 258 -248 258q-139 0 -147 -47q-8 -41 -35 -58.5t-54 -17.5q-31 0 -48 20.5t-11 55.5q20 133 307 133q199 0 283 -92t63 -215l-77 -471q61 -25 143 -25q18 0 28.5 -1t21.5 -11.5t9 -28.5q-4 -20 -19.5 -31.5t-30.5 -12.5t-44 -1 q-51 0 -81 2t-70.5 20.5t-59.5 53.5q-150 -88 -328 -88q-147 0 -225.5 78t-60.5 184zM264 250q-10 -72 47.5 -124t163.5 -52q117 0 203 39q47 20 73.5 46.5t33 46t12.5 56.5l34 201q-250 -8 -401.5 -68.5t-165.5 -144.5zM518 1098q4 25 47 41l303 127l33 8q23 0 36 -14.5 t9 -36.5q-8 -35 -57 -56l-318 -131l-14 -2q-47 1 -39 64z" />
<glyph unicode="&#xe2;" d="M160 250q25 141 207 216t477 79q43 258 -248 258q-139 0 -147 -47q-8 -41 -35 -58.5t-54 -17.5q-31 0 -48 20.5t-11 55.5q20 133 307 133q199 0 283 -92t63 -215l-77 -471q61 -25 143 -25q18 0 28.5 -1t21.5 -11.5t9 -28.5q-4 -20 -19.5 -31.5t-30.5 -12.5t-44 -1 q-51 0 -81 2t-70.5 20.5t-59.5 53.5q-150 -88 -328 -88q-147 0 -225.5 78t-60.5 184zM264 250q-10 -72 47.5 -124t163.5 -52q117 0 203 39q47 20 73.5 46.5t33 46t12.5 56.5l34 201q-250 -8 -401.5 -68.5t-165.5 -144.5zM426 1081q2 14 53 45l234 136q39 23 69 0l193 -136 q39 -27 37 -45q-8 -45 -58 -45q-8 0 -55 31l-164 111l-200 -111q-55 -31 -68 -31q-49 0 -41 45z" />
<glyph unicode="&#xe3;" d="M160 250q25 141 207 216t477 79q43 258 -248 258q-139 0 -147 -47q-8 -41 -35 -58.5t-54 -17.5q-31 0 -48 20.5t-11 55.5q20 133 307 133q199 0 283 -92t63 -215l-77 -471q61 -25 143 -25q18 0 28.5 -1t21.5 -11.5t9 -28.5q-4 -20 -19.5 -31.5t-30.5 -12.5t-44 -1 q-51 0 -81 2t-70.5 20.5t-59.5 53.5q-150 -88 -328 -88q-147 0 -225.5 78t-60.5 184zM264 250q-10 -72 47.5 -124t163.5 -52q117 0 203 39q47 20 73.5 46.5t33 46t12.5 56.5l34 201q-250 -8 -401.5 -68.5t-165.5 -144.5zM371 1094q4 25 112 100q102 66 164 66q45 0 90 -37 l35 -38q14 -15 24.5 -24.5t19.5 -13.5t20 -4q55 0 178 98q23 18 41 19q16 0 27.5 -14.5t9.5 -33.5q-4 -29 -113 -98q-102 -66 -164 -65q-49 0 -90 36l-35 38q-14 15 -24.5 24.5t-19.5 13.5t-19 4q-55 0 -178 -100q-25 -16 -41.5 -16t-27.5 14.5t-9 30.5z" />
<glyph unicode="&#xe4;" d="M160 250q25 141 207 216t477 79q43 258 -248 258q-139 0 -147 -47q-8 -41 -35 -58.5t-54 -17.5q-31 0 -48 20.5t-11 55.5q20 133 307 133q199 0 283 -92t63 -215l-77 -471q61 -25 143 -25q18 0 28.5 -1t21.5 -11.5t9 -28.5q-4 -20 -19.5 -31.5t-30.5 -12.5t-44 -1 q-51 0 -81 2t-70.5 20.5t-59.5 53.5q-150 -88 -328 -88q-147 0 -225.5 78t-60.5 184zM264 250q-10 -72 47.5 -124t163.5 -52q117 0 203 39q47 20 73.5 46.5t33 46t12.5 56.5l34 201q-250 -8 -401.5 -68.5t-165.5 -144.5zM481 1153q4 33 30 54.5t56.5 21.5t48 -21.5 t13.5 -54.5q-4 -31 -30 -52.5t-56.5 -21.5t-48 21.5t-13.5 52.5zM831 1153q4 33 30 54.5t56.5 21.5t48 -21.5t13.5 -54.5q-4 -31 -29.5 -52.5t-56.5 -21.5t-48.5 21.5t-13.5 52.5z" />
<glyph unicode="&#xe5;" d="M160 250q25 141 207 216t477 79q43 258 -248 258q-139 0 -147 -47q-8 -41 -35 -58.5t-54 -17.5q-31 0 -48 20.5t-11 55.5q20 133 307 133q199 0 283 -92t63 -215l-77 -471q61 -25 143 -25q18 0 28.5 -1t21.5 -11.5t9 -28.5q-4 -20 -19.5 -31.5t-30.5 -12.5t-44 -1 q-51 0 -81 2t-70.5 20.5t-59.5 53.5q-150 -88 -328 -88q-147 0 -225.5 78t-60.5 184zM264 250q-10 -72 47.5 -124t163.5 -52q117 0 203 39q47 20 73.5 46.5t33 46t12.5 56.5l34 201q-250 -8 -401.5 -68.5t-165.5 -144.5zM522 1153q10 61 77 105.5t157 44.5q88 0 141 -44.5 t43 -105.5q-10 -59 -76.5 -102t-156.5 -43q-88 0 -141.5 43t-43.5 102zM625 1153q-6 -33 22.5 -51.5t71.5 -18.5t77.5 18.5t41.5 51.5q6 35 -23 54.5t-72 19.5t-77.5 -19.5t-40.5 -54.5z" />
<glyph unicode="&#xe6;" d="M113 229q18 121 146 186.5t319 67.5l16 90q18 111 -24 170.5t-130 59.5q-27 0 -52.5 -10.5t-27.5 -20.5v-8q0 -6 -2 -10q-16 -74 -84 -74q-31 0 -48 20.5t-11 55.5q8 55 67.5 94t178.5 39q147 0 215 -174q129 174 256 174q111 0 159 -110.5t17 -305.5q-8 -41 -21.5 -55.5 t-54.5 -14.5h-387q-12 -154 44 -241.5t138 -87.5q98 0 158 137q2 6 15.5 21.5t30 15.5t26.5 -11.5t6 -27.5q-8 -53 -81 -137t-179 -84q-57 0 -106.5 35.5t-66 60.5t-40.5 68q-125 -164 -299 -164q-98 0 -146 74.5t-32 166.5zM188 231q-10 -61 24 -109t105 -48q76 0 146 49 q63 43 76 139q14 82 28 139q-158 -6 -262.5 -52t-116.5 -118zM659 489h373q20 166 -16.5 240t-97.5 74q-74 0 -150 -93.5t-109 -220.5z" />
<glyph unicode="&#xe7;" d="M231 436q12 72 49 146.5t100.5 145.5t167 116t226.5 45q51 0 86 -3t89.5 -13.5t80 -40t19.5 -76.5q-6 -35 -32 -55.5t-56 -20.5q-70 0 -58 82q2 10 -23.5 20.5t-59.5 15.5t-60 5q-106 0 -190.5 -41t-130.5 -103.5t-70.5 -118t-32.5 -104.5q-27 -152 60 -257t231 -105 q57 0 104 16t80 47t47 47.5t33 46.5q14 16 45 17q10 0 19.5 -1t21.5 -10.5t6 -27.5q-31 -92 -128 -149.5t-173 -65.5l-8 -51l51 -13q51 -10 96 -57t33 -119q-8 -47 -33.5 -81.5t-72 -55t-88.5 -33t-108.5 -17.5t-104 -6t-103.5 -1q-45 0 -37 45q2 20 19.5 30.5t35 11.5 t58.5 1q106 0 212.5 23.5t117.5 82.5q6 39 -31 71t-113 36q-49 2 -37 67l11 60q-184 16 -281 144t-68 304z" />
<glyph unicode="&#xe8;" d="M192.5 438.5q30.5 186.5 179 318.5t328.5 132q186 0 267.5 -123t52.5 -305q-4 -27 -16.5 -40t-23.5 -15.5t-34 -2.5h-655q2 -156 95 -242.5t226 -86.5q178 0 271 151q14 23 49 23q47 0 45 -39q-10 -59 -116.5 -140t-276.5 -81q-195 0 -308.5 132t-83 318.5zM307 489h613 q14 174 -55.5 244t-178.5 70q-119 0 -223.5 -86.5t-155.5 -227.5zM539 1223q4 23 21.5 37t39.5 14l29 -8l262 -127q35 -16 31 -41q-2 -18 -17.5 -41t-42.5 -23l-14 2l-273 131q-44 21 -36 56z" />
<glyph unicode="&#xe9;" d="M192.5 438.5q30.5 186.5 179 318.5t328.5 132q186 0 267.5 -123t52.5 -305q-4 -27 -16.5 -40t-23.5 -15.5t-34 -2.5h-655q2 -156 95 -242.5t226 -86.5q178 0 271 151q14 23 49 23q47 0 45 -39q-10 -59 -116.5 -140t-276.5 -81q-195 0 -308.5 132t-83 318.5zM307 489h613 q14 174 -55.5 244t-178.5 70q-119 0 -223.5 -86.5t-155.5 -227.5zM518 1098q4 25 47 41l303 127l33 8q23 0 36 -14.5t9 -36.5q-8 -35 -57 -56l-318 -131l-14 -2q-47 1 -39 64z" />
<glyph unicode="&#xea;" d="M192.5 438.5q30.5 186.5 179 318.5t328.5 132q186 0 267.5 -123t52.5 -305q-4 -27 -16.5 -40t-23.5 -15.5t-34 -2.5h-655q2 -156 95 -242.5t226 -86.5q178 0 271 151q14 23 49 23q47 0 45 -39q-10 -59 -116.5 -140t-276.5 -81q-195 0 -308.5 132t-83 318.5zM307 489h613 q14 174 -55.5 244t-178.5 70q-119 0 -223.5 -86.5t-155.5 -227.5zM426 1081q2 14 53 45l234 136q39 23 69 0l193 -136q39 -27 37 -45q-8 -45 -58 -45q-8 0 -55 31l-164 111l-200 -111q-55 -31 -68 -31q-49 0 -41 45z" />
<glyph unicode="&#xeb;" d="M192.5 438.5q30.5 186.5 179 318.5t328.5 132q186 0 267.5 -123t52.5 -305q-4 -27 -16.5 -40t-23.5 -15.5t-34 -2.5h-655q2 -156 95 -242.5t226 -86.5q178 0 271 151q14 23 49 23q47 0 45 -39q-10 -59 -116.5 -140t-276.5 -81q-195 0 -308.5 132t-83 318.5zM307 489h613 q14 174 -55.5 244t-178.5 70q-119 0 -223.5 -86.5t-155.5 -227.5zM481 1153q4 33 30 54.5t56.5 21.5t48 -21.5t13.5 -54.5q-4 -31 -30 -52.5t-56.5 -21.5t-48 21.5t-13.5 52.5zM831 1153q4 33 30 54.5t56.5 21.5t48 -21.5t13.5 -54.5q-4 -31 -29.5 -52.5t-56.5 -21.5 t-48.5 21.5t-13.5 52.5z" />
<glyph unicode="&#xec;" d="M176 43q6 43 72 43h278l117 698h-262q-16 0 -27.5 1t-23 11.5t-8.5 30.5q8 43 73 43h301q41 0 50.5 -13t3.5 -52l-121 -719h243q16 0 27.5 -1t23 -11.5t9.5 -30.5q-8 -43 -74 -43h-625q-16 0 -27 1t-22.5 11.5t-7.5 30.5zM539 1223q4 23 21.5 37t39.5 14l29 -8l262 -127 q35 -16 31 -41q-2 -18 -17.5 -41t-42.5 -23l-14 2l-273 131q-44 21 -36 56z" />
<glyph unicode="&#xed;" d="M176 43q6 43 72 43h278l117 698h-262q-16 0 -27.5 1t-23 11.5t-8.5 30.5q8 43 73 43h301q41 0 50.5 -13t3.5 -52l-121 -719h243q16 0 27.5 -1t23 -11.5t9.5 -30.5q-8 -43 -74 -43h-625q-16 0 -27 1t-22.5 11.5t-7.5 30.5zM518 1098q4 25 47 41l303 127l33 8 q23 0 36 -14.5t9 -36.5q-8 -35 -57 -56l-318 -131l-14 -2q-47 1 -39 64z" />
<glyph unicode="&#xee;" d="M176 43q6 43 72 43h278l117 698h-262q-16 0 -27.5 1t-23 11.5t-8.5 30.5q8 43 73 43h301q41 0 50.5 -13t3.5 -52l-121 -719h243q16 0 27.5 -1t23 -11.5t9.5 -30.5q-8 -43 -74 -43h-625q-16 0 -27 1t-22.5 11.5t-7.5 30.5zM426 1081q2 14 53 45l234 136q39 23 69 0 l193 -136q39 -27 37 -45q-8 -45 -58 -45q-8 0 -55 31l-164 111l-200 -111q-55 -31 -68 -31q-49 0 -41 45z" />
<glyph unicode="&#xef;" d="M176 43q6 43 72 43h278l117 698h-262q-16 0 -27.5 1t-23 11.5t-8.5 30.5q8 43 73 43h301q41 0 50.5 -13t3.5 -52l-121 -719h243q16 0 27.5 -1t23 -11.5t9.5 -30.5q-8 -43 -74 -43h-625q-16 0 -27 1t-22.5 11.5t-7.5 30.5zM481 1153q4 33 30 54.5t56.5 21.5t48 -21.5 t13.5 -54.5q-4 -31 -30 -52.5t-56.5 -21.5t-48 21.5t-13.5 52.5zM831 1153q4 33 30 54.5t56.5 21.5t48 -21.5t13.5 -54.5q-4 -31 -29.5 -52.5t-56.5 -21.5t-48.5 21.5t-13.5 52.5z" />
<glyph unicode="&#xf0;" d="M197 436q31 188 174 320.5t313 132.5q131 0 268 -121q-8 199 -65 305l-64 -59q-20 -14 -38.5 -14.5t-29 13t-5.5 31.5q2 14 18 31l63 58q-80 45 -153 45q-18 0 -29.5 13t-7.5 32q2 16 17.5 29.5t33.5 13.5q117 0 209 -72l68 59q16 12 32 13q18 0 29.5 -12.5t9.5 -30.5 q-2 -16 -16 -31l-72 -59q145 -236 72 -697q-33 -190 -178 -319q-141 -129 -311 -129q-168 0 -269.5 130t-68.5 318zM303 451q-27 -156 46 -266.5t200 -110.5q125 0 235.5 110.5t137.5 266.5q25 152 -51 252t-201 100q-123 0 -232.5 -100t-134.5 -252z" />
<glyph unicode="&#xf1;" d="M37 43q6 43 72 43h114l117 698h-117q-16 0 -26.5 1t-21.5 11.5t-9 28.5q8 45 74 45h153q45 0 51.5 -25.5t-10.5 -103.5q168 141 324 142q254 0 207 -283l-86 -514h114q18 0 28.5 -1t22 -11.5t9.5 -30.5q-8 -43 -72 -43h-324q-16 0 -27.5 1t-22.5 11.5t-7 30.5q6 43 72 43 h104l84 502q18 111 -9.5 160t-119.5 49q-104 0 -208.5 -79t-131.5 -235l-65 -397h114q18 0 28.5 -1t22 -11.5t9.5 -30.5q-8 -43 -72 -43h-336q-16 0 -26.5 1t-21.5 11.5t-7 30.5zM371 1094q4 25 112 100q102 66 164 66q45 0 90 -37l35 -38q14 -15 24.5 -24.5t19.5 -13.5 t20 -4q55 0 178 98q23 18 41 19q16 0 27.5 -14.5t9.5 -33.5q-4 -29 -113 -98q-102 -66 -164 -65q-49 0 -90 36l-35 38q-14 15 -24.5 24.5t-19.5 13.5t-19 4q-55 0 -178 -100q-25 -16 -41.5 -16t-27.5 14.5t-9 30.5z" />
<glyph unicode="&#xf2;" d="M197 436q31 188 174 320.5t313 132.5t270.5 -132t69.5 -321q-33 -188 -177.5 -318t-312 -130t-269 130t-68.5 318zM303 451q-27 -156 46 -266.5t200 -110.5q125 0 235.5 110.5t137.5 266.5q25 152 -51 252t-201 100q-123 0 -232.5 -100t-134.5 -252zM539 1223 q4 23 21.5 37t39.5 14l29 -8l262 -127q35 -16 31 -41q-2 -18 -17.5 -41t-42.5 -23l-14 2l-273 131q-44 21 -36 56z" />
<glyph unicode="&#xf3;" d="M197 436q31 188 174 320.5t313 132.5t270.5 -132t69.5 -321q-33 -188 -177.5 -318t-312 -130t-269 130t-68.5 318zM303 451q-27 -156 46 -266.5t200 -110.5q125 0 235.5 110.5t137.5 266.5q25 152 -51 252t-201 100q-123 0 -232.5 -100t-134.5 -252zM518 1098q4 25 47 41 l303 127l33 8q23 0 36 -14.5t9 -36.5q-8 -35 -57 -56l-318 -131l-14 -2q-47 1 -39 64z" />
<glyph unicode="&#xf4;" d="M197 436q31 188 174 320.5t313 132.5t270.5 -132t69.5 -321q-33 -188 -177.5 -318t-312 -130t-269 130t-68.5 318zM303 451q-27 -156 46 -266.5t200 -110.5q125 0 235.5 110.5t137.5 266.5q25 152 -51 252t-201 100q-123 0 -232.5 -100t-134.5 -252zM426 1081q2 14 53 45 l234 136q39 23 69 0l193 -136q39 -27 37 -45q-8 -45 -58 -45q-8 0 -55 31l-164 111l-200 -111q-55 -31 -68 -31q-49 0 -41 45z" />
<glyph unicode="&#xf5;" d="M197 436q31 188 174 320.5t313 132.5t270.5 -132t69.5 -321q-33 -188 -177.5 -318t-312 -130t-269 130t-68.5 318zM303 451q-27 -156 46 -266.5t200 -110.5q125 0 235.5 110.5t137.5 266.5q25 152 -51 252t-201 100q-123 0 -232.5 -100t-134.5 -252zM371 1094 q4 25 112 100q102 66 164 66q45 0 90 -37l35 -38q14 -15 24.5 -24.5t19.5 -13.5t20 -4q55 0 178 98q23 18 41 19q16 0 27.5 -14.5t9.5 -33.5q-4 -29 -113 -98q-102 -66 -164 -65q-49 0 -90 36l-35 38q-14 15 -24.5 24.5t-19.5 13.5t-19 4q-55 0 -178 -100q-25 -16 -41.5 -16 t-27.5 14.5t-9 30.5z" />
<glyph unicode="&#xf6;" d="M197 436q31 188 174 320.5t313 132.5t270.5 -132t69.5 -321q-33 -188 -177.5 -318t-312 -130t-269 130t-68.5 318zM303 451q-27 -156 46 -266.5t200 -110.5q125 0 235.5 110.5t137.5 266.5q25 152 -51 252t-201 100q-123 0 -232.5 -100t-134.5 -252zM481 1153 q4 33 30 54.5t56.5 21.5t48 -21.5t13.5 -54.5q-4 -31 -30 -52.5t-56.5 -21.5t-48 21.5t-13.5 52.5zM831 1153q4 33 30 54.5t56.5 21.5t48 -21.5t13.5 -54.5q-4 -31 -29.5 -52.5t-56.5 -21.5t-48.5 21.5t-13.5 52.5z" />
<glyph unicode="&#xf7;" d="M188.5 626.5q8.5 53.5 94.5 53.5h733q20 0 33.5 -2t31 -14.5t13.5 -36.5q-8 -53 -82 -54h-758q-74 0 -65.5 53.5zM455 178q6 43 44 77t87 34q45 0 71.5 -33t18.5 -80q-6 -43 -44 -76.5t-87 -33.5q-45 0 -71.5 32.5t-18.5 79.5zM604 1075q6 43 44 77t87 34q45 0 72 -33 t18 -80q-6 -43 -44 -76.5t-87 -33.5q-45 0 -71.5 32.5t-18.5 79.5z" />
<glyph unicode="&#xf8;" d="M51 -254q2 10 45 70l193 256q-154 154 -117 364q31 186 180.5 319.5t331.5 133.5q84 0 182 -43l217 291q23 31 43 30q16 0 29.5 -11t11.5 -32l-18 -34l-215 -289q150 -162 115 -365q-33 -186 -184.5 -317t-329.5 -131q-90 0 -179 41l-231 -310q-16 -16 -32.5 -16 t-30 11.5t-11.5 31.5zM248 436q-29 -158 94 -293l469 631q-76 29 -141 29q-150 0 -273.5 -107.5t-148.5 -259.5zM412 100q76 -27 137 -26q150 0 273.5 105.5t150.5 256.5q25 164 -96 291z" />
<glyph unicode="&#xf9;" d="M166 825q8 45 74 45h153q41 0 50.5 -13t2.5 -52l-96 -572q-4 -41 -6 -75.5t39 -59t129 -24.5q37 0 76 8t89 30.5t87 74t49 124.5l80 473h-117q-16 0 -26.5 1t-21.5 11.5t-9 28.5q8 45 74 45h153q41 0 50.5 -13t2.5 -52l-120 -719h116q16 0 26.5 -1t22 -11.5t9.5 -28.5 q-8 -45 -74 -45h-154q-20 0 -30.5 3t-18.5 23.5t-2 61.5q-150 -100 -289 -100q-125 0 -192.5 52t-46.5 181l94 563h-117q-16 0 -26.5 1t-21.5 11.5t-9 28.5zM539 1223q4 23 21.5 37t39.5 14l29 -8l262 -127q35 -16 31 -41q-2 -18 -17.5 -41t-42.5 -23l-14 2l-273 131 q-44 21 -36 56z" />
<glyph unicode="&#xfa;" d="M166 825q8 45 74 45h153q41 0 50.5 -13t2.5 -52l-96 -572q-4 -41 -6 -75.5t39 -59t129 -24.5q37 0 76 8t89 30.5t87 74t49 124.5l80 473h-117q-16 0 -26.5 1t-21.5 11.5t-9 28.5q8 45 74 45h153q41 0 50.5 -13t2.5 -52l-120 -719h116q16 0 26.5 -1t22 -11.5t9.5 -28.5 q-8 -45 -74 -45h-154q-20 0 -30.5 3t-18.5 23.5t-2 61.5q-150 -100 -289 -100q-125 0 -192.5 52t-46.5 181l94 563h-117q-16 0 -26.5 1t-21.5 11.5t-9 28.5zM518 1098q4 25 47 41l303 127l33 8q23 0 36 -14.5t9 -36.5q-8 -35 -57 -56l-318 -131l-14 -2q-47 1 -39 64z" />
<glyph unicode="&#xfb;" d="M166 825q8 45 74 45h153q41 0 50.5 -13t2.5 -52l-96 -572q-4 -41 -6 -75.5t39 -59t129 -24.5q37 0 76 8t89 30.5t87 74t49 124.5l80 473h-117q-16 0 -26.5 1t-21.5 11.5t-9 28.5q8 45 74 45h153q41 0 50.5 -13t2.5 -52l-120 -719h116q16 0 26.5 -1t22 -11.5t9.5 -28.5 q-8 -45 -74 -45h-154q-20 0 -30.5 3t-18.5 23.5t-2 61.5q-150 -100 -289 -100q-125 0 -192.5 52t-46.5 181l94 563h-117q-16 0 -26.5 1t-21.5 11.5t-9 28.5zM426 1081q2 14 53 45l234 136q39 23 69 0l193 -136q39 -27 37 -45q-8 -45 -58 -45q-8 0 -55 31l-164 111l-200 -111 q-55 -31 -68 -31q-49 0 -41 45z" />
<glyph unicode="&#xfc;" d="M166 825q8 45 74 45h153q41 0 50.5 -13t2.5 -52l-96 -572q-4 -41 -6 -75.5t39 -59t129 -24.5q37 0 76 8t89 30.5t87 74t49 124.5l80 473h-117q-16 0 -26.5 1t-21.5 11.5t-9 28.5q8 45 74 45h153q41 0 50.5 -13t2.5 -52l-120 -719h116q16 0 26.5 -1t22 -11.5t9.5 -28.5 q-8 -45 -74 -45h-154q-20 0 -30.5 3t-18.5 23.5t-2 61.5q-150 -100 -289 -100q-125 0 -192.5 52t-46.5 181l94 563h-117q-16 0 -26.5 1t-21.5 11.5t-9 28.5zM481 1153q4 33 30 54.5t56.5 21.5t48 -21.5t13.5 -54.5q-4 -31 -30 -52.5t-56.5 -21.5t-48 21.5t-13.5 52.5z M831 1153q4 33 30 54.5t56.5 21.5t48 -21.5t13.5 -54.5q-4 -31 -29.5 -52.5t-56.5 -21.5t-48.5 21.5t-13.5 52.5z" />
<glyph unicode="&#xfd;" d="M39 -330q4 31 27.5 51.5t56.5 20.5q31 0 47 -19.5t10 -50.5l-18 -41l6 -12q6 -14 14 -14q55 0 97.5 23.5t101.5 109.5q23 33 74 135l51 100l-182 811h-72q-16 0 -26.5 1t-21.5 11.5t-9 28.5q8 45 71 45h248q18 0 28.5 -1t20.5 -12t6 -32q-6 -41 -69 -41h-84l151 -712 l355 712h-82q-18 0 -28.5 1t-21 11.5t-8.5 30.5q8 43 72 43h248q18 0 28.5 -1t20.5 -12t6 -32q-6 -41 -70 -41h-77l-496 -979q-14 -29 -34.5 -58.5t-69 -91t-113 -100t-130 -38.5t-102 46t-26.5 107zM518 1098q4 25 47 41l303 127l33 8q23 0 36 -14.5t9 -36.5 q-8 -35 -57 -56l-318 -131l-14 -2q-47 1 -39 64z" />
<glyph unicode="&#xfe;" d="M-43 -428q8 45 74 45h114l258 1548h-116q-16 0 -26.5 1t-22 11.5t-9.5 28.5q8 45 74 45h154q41 0 50 -13t3 -52l-74 -434q168 131 314 131q160 0 254 -131t63 -316q-31 -188 -176.5 -318t-312.5 -130q-131 0 -246 139l-84 -510h114q18 0 28.5 -1t22 -12.5t7.5 -31.5 q-6 -43 -70 -43h-336q-16 0 -26.5 1t-21.5 11.5t-9 30.5zM375 383q-10 -59 5 -128t68.5 -125t137.5 -56q125 0 238.5 103.5t140.5 258.5q25 147 -46 254t-196 107q-109 0 -207 -79t-115 -179z" />
<glyph unicode="&#xff;" d="M39 -330q4 31 27.5 51.5t56.5 20.5q31 0 47 -19.5t10 -50.5l-18 -41l6 -12q6 -14 14 -14q55 0 97.5 23.5t101.5 109.5q23 33 74 135l51 100l-182 811h-72q-16 0 -26.5 1t-21.5 11.5t-9 28.5q8 45 71 45h248q18 0 28.5 -1t20.5 -12t6 -32q-6 -41 -69 -41h-84l151 -712 l355 712h-82q-18 0 -28.5 1t-21 11.5t-8.5 30.5q8 43 72 43h248q18 0 28.5 -1t20.5 -12t6 -32q-6 -41 -70 -41h-77l-496 -979q-14 -29 -34.5 -58.5t-69 -91t-113 -100t-130 -38.5t-102 46t-26.5 107zM481 1153q4 33 30 54.5t56.5 21.5t48 -21.5t13.5 -54.5q-4 -31 -30 -52.5 t-56.5 -21.5t-48 21.5t-13.5 52.5zM831 1153q4 33 30 54.5t56.5 21.5t48 -21.5t13.5 -54.5q-4 -31 -29.5 -52.5t-56.5 -21.5t-48.5 21.5t-13.5 52.5z" />
<glyph unicode="&#x100;" d="M68 43q4 29 30 41q12 2 99 2l448 1126q12 31 29.5 45.5t31 16.5t44.5 2q33 0 46 -2t24 -17.5t14 -46.5l71 -1124q84 0 96 -2q25 -10 21 -41q-8 -43 -80 -43h-215q-20 0 -31.5 1t-21.5 11.5t-6 30.5q4 31 29.5 37t99.5 6l-13 264h-376l-103 -264q74 0 97.5 -6t19.5 -37 q-8 -43 -76 -43h-217q-18 0 -29.5 1t-23.5 11.5t-8 30.5zM399 1444q8 45 72 45h631q18 0 28.5 -1t20.5 -12.5t6 -33.5q-6 -43 -70 -43h-628q-18 0 -29.5 1t-22 12.5t-8.5 31.5zM444 436h332l-33 754h-14z" />
<glyph unicode="&#x101;" d="M160 250q25 141 207 216t477 79q43 258 -248 258q-139 0 -147 -47q-8 -41 -35 -58.5t-54 -17.5q-31 0 -48 20.5t-11 55.5q20 133 307 133q199 0 283 -92t63 -215l-77 -471q61 -25 143 -25q18 0 28.5 -1t21.5 -11.5t9 -28.5q-4 -20 -19.5 -31.5t-30.5 -12.5t-44 -1 q-51 0 -81 2t-70.5 20.5t-59.5 53.5q-150 -88 -328 -88q-147 0 -225.5 78t-60.5 184zM264 250q-10 -72 47.5 -124t163.5 -52q117 0 203 39q47 20 73.5 46.5t33 46t12.5 56.5l34 201q-250 -8 -401.5 -68.5t-165.5 -144.5zM352 1155q8 45 72 45h631q18 0 28.5 -1t20.5 -12 t6 -34q-8 -43 -72 -43h-628q-18 0 -29.5 1t-22 12.5t-6.5 31.5z" />
<glyph unicode="&#x102;" d="M68 43q4 29 30 41q12 2 99 2l448 1126q12 31 29.5 45.5t31 16.5t44.5 2q33 0 46 -2t24 -17.5t14 -46.5l71 -1124q84 0 96 -2q25 -10 21 -41q-8 -43 -80 -43h-215q-20 0 -31.5 1t-21.5 11.5t-6 30.5q4 31 29.5 37t99.5 6l-13 264h-376l-103 -264q74 0 97.5 -6t19.5 -37 q-8 -43 -76 -43h-217q-18 0 -29.5 1t-23.5 11.5t-8 30.5zM440 1530q10 45 54 45q29 0 32 -23q10 -82 258 -82q250 0 283 82q10 23 41 23q47 0 37 -45q-8 -53 -47 -87t-105.5 -46.5t-109.5 -15.5t-115 -3t-114 3t-104.5 15.5t-90 46.5t-19.5 87zM444 436h332l-33 754h-14z " />
<glyph unicode="&#x103;" d="M160 250q25 141 207 216t477 79q43 258 -248 258q-139 0 -147 -47q-8 -41 -35 -58.5t-54 -17.5q-31 0 -48 20.5t-11 55.5q20 133 307 133q199 0 283 -92t63 -215l-77 -471q61 -25 143 -25q18 0 28.5 -1t21.5 -11.5t9 -28.5q-4 -20 -19.5 -31.5t-30.5 -12.5t-44 -1 q-51 0 -81 2t-70.5 20.5t-59.5 53.5q-150 -88 -328 -88q-147 0 -225.5 78t-60.5 184zM264 250q-10 -72 47.5 -124t163.5 -52q117 0 203 39q47 20 73.5 46.5t33 46t12.5 56.5l34 201q-250 -8 -401.5 -68.5t-165.5 -144.5zM387 1208q10 45 53 45q29 0 33 -22q10 -82 258 -82 q250 0 283 82q10 23 41 22q47 0 37 -45q-8 -53 -47 -87t-106 -46t-110 -15t-114.5 -3t-113.5 3t-104.5 15t-90 46t-19.5 87z" />
<glyph unicode="&#x104;" d="M68 43q4 29 30 41q12 2 99 2l448 1126q12 31 29.5 45.5t31 16.5t44.5 2q33 0 46 -2t24 -17.5t14 -46.5l71 -1124q84 0 96 -2q25 -10 21 -41q-8 -43 -80 -43h-45q-225 -121 -248 -254q-6 -45 27 -74.5t72 -29.5q35 0 76.5 26.5t68.5 59.5q29 23 49 6q8 -8 8 -22.5 t-10 -24.5q-102 -117 -213 -117q-84 0 -127 56.5t-31 123.5q10 70 60.5 127t163.5 123q-84 0 -107.5 6t-17.5 37q4 31 29.5 37t99.5 6l-13 264h-376l-103 -264q74 0 97.5 -6t19.5 -37q-8 -43 -76 -43h-217q-18 0 -29.5 1t-23.5 11.5t-8 30.5zM444 436h332l-35 754h-14z" />
<glyph unicode="&#x105;" d="M160 250q25 141 207 216t477 79q43 258 -248 258q-139 0 -147 -47q-8 -41 -35 -58.5t-54 -17.5q-31 0 -48 20.5t-11 55.5q20 133 307 133q199 0 283 -92t63 -215l-77 -471q61 -25 143 -25q18 0 28.5 -1t21.5 -11.5t9 -28.5q-2 -16 -10 -25.5t-24.5 -13.5t-28.5 -5t-37 -1 q-229 -123 -252 -254q-8 -45 24.5 -74.5t73.5 -29.5q33 0 75 26.5t69 59.5q33 25 51 6q20 -20 -2 -47q-102 -117 -215 -117q-84 0 -127 56.5t-31 123.5q20 131 232 254q-47 14 -66.5 28.5t-36.5 43.5q-150 -88 -328 -88q-147 0 -225.5 78t-60.5 184zM264 250 q-10 -72 47.5 -124t163.5 -52q117 0 203 39q47 20 73.5 46.5t33 46t12.5 56.5l34 201q-250 -8 -401.5 -68.5t-165.5 -144.5z" />
<glyph unicode="&#x106;" d="M193 627q45 274 221 460.5t377 186.5q150 0 262 -113q49 72 57 88q25 25 45 25q41 0 31 -66l-47 -293q-4 -23 -8.5 -33t-18.5 -21t-39 -11q-20 0 -30.5 8t-11.5 16.5l-3 26.5q0 133 -69.5 210t-174.5 77q-154 0 -301 -161t-188 -400q-41 -242 53 -403t250 -161 q96 0 200.5 66t139.5 213q10 41 57 41q53 0 45 -49q-23 -139 -159 -248t-306 -109q-203 0 -315 187t-67 463zM630 1419.5q-1 12.5 1 22.5q4 23 47 43l303 127l33 8q23 0 35 -15.5t8 -37.5q-4 -33 -56 -54l-317 -131l-14 -4q-18 0 -28.5 14.5t-11.5 27z" />
<glyph unicode="&#x107;" d="M231 436q12 72 49 146.5t100.5 145.5t167 116t226.5 45q43 0 84 -4t91 -16.5t78 -41t22 -71.5q-6 -35 -32 -55.5t-56 -20.5q-72 0 -58 82q2 10 -23.5 20.5t-59.5 15.5t-60 5q-106 0 -190.5 -41t-130.5 -103.5t-70.5 -118t-32.5 -104.5q-27 -152 60 -257t231 -105 q57 0 104 16t80 47t47 47.5t33 46.5q14 16 45 17q10 0 18.5 -1t19.5 -10.5t9 -27.5q-4 -16 -25.5 -49t-63.5 -74t-121 -69.5t-173 -28.5q-188 0 -294 132t-75 316zM573 1098q4 25 48 41l303 127l32 8q23 0 36.5 -14.5t8.5 -36.5q-8 -35 -57 -56l-317 -131l-15 -2 q-47 1 -39 64z" />
<glyph unicode="&#x108;" d="M193 627q45 274 221 460.5t377 186.5q150 0 262 -113q49 72 57 88q25 25 45 25q41 0 31 -66l-47 -293q-4 -23 -8.5 -33t-18.5 -21t-39 -11q-20 0 -30.5 8t-11.5 16.5l-3 26.5q0 133 -69.5 210t-174.5 77q-154 0 -301 -161t-188 -400q-41 -242 53 -403t250 -161 q96 0 200.5 66t139.5 213q10 41 57 41q53 0 45 -49q-23 -139 -159 -248t-306 -109q-203 0 -315 187t-67 463zM532 1403q4 27 54 45l235 82q29 8 53 0l207 -82q41 -16 37 -45q-8 -45 -57 -45q-14 0 -57 14l-173 62l-192 -62q-53 -14 -66 -14q-49 0 -41 45z" />
<glyph unicode="&#x109;" d="M231 436q12 72 49 146.5t100.5 145.5t167 116t226.5 45q43 0 84 -4t91 -16.5t78 -41t22 -71.5q-6 -35 -32 -55.5t-56 -20.5q-72 0 -58 82q2 10 -23.5 20.5t-59.5 15.5t-60 5q-106 0 -190.5 -41t-130.5 -103.5t-70.5 -118t-32.5 -104.5q-27 -152 60 -257t231 -105 q57 0 104 16t80 47t47 47.5t33 46.5q14 16 45 17q10 0 18.5 -1t19.5 -10.5t9 -27.5q-4 -16 -25.5 -49t-63.5 -74t-121 -69.5t-173 -28.5q-188 0 -294 132t-75 316zM481 1081q2 14 54 45l233 136q39 23 70 0l192 -136q39 -27 37 -45q-8 -45 -57 -45q-8 0 -56 31l-163 111 l-201 -111q-57 -31 -68 -31q-49 0 -41 45z" />
<glyph unicode="&#x10a;" d="M193 627q45 274 221 460.5t377 186.5q150 0 262 -113q49 72 57 88q25 25 45 25q41 0 31 -66l-47 -293q-4 -23 -8.5 -33t-18.5 -21t-39 -11q-20 0 -30.5 8t-11.5 16.5l-3 26.5q0 133 -69.5 210t-174.5 77q-154 0 -301 -161t-188 -400q-41 -242 53 -403t250 -161 q96 0 200.5 66t139.5 213q10 41 57 41q53 0 45 -49q-23 -139 -159 -248t-306 -109q-203 0 -315 187t-67 463zM751.5 1464.5q6.5 34.5 35 60t63.5 25.5t55.5 -25.5t14 -60t-35 -59.5t-63.5 -25t-55.5 25t-14 59.5z" />
<glyph unicode="&#x10b;" d="M231 436q12 72 49 146.5t100.5 145.5t167 116t226.5 45q43 0 84 -4t91 -16.5t78 -41t22 -71.5q-6 -35 -32 -55.5t-56 -20.5q-72 0 -58 82q2 10 -23.5 20.5t-59.5 15.5t-60 5q-106 0 -190.5 -41t-130.5 -103.5t-70.5 -118t-32.5 -104.5q-27 -152 60 -257t231 -105 q57 0 104 16t80 47t47 47.5t33 46.5q14 16 45 17q10 0 18.5 -1t19.5 -10.5t9 -27.5q-4 -16 -25.5 -49t-63.5 -74t-121 -69.5t-173 -28.5q-188 0 -294 132t-75 316zM702 1153q6 37 35 61.5t64 24.5t55.5 -24.5t13.5 -61.5q-6 -35 -34.5 -59.5t-63.5 -24.5t-55.5 24.5 t-14.5 59.5z" />
<glyph unicode="&#x10c;" d="M193 627q45 274 221 460.5t377 186.5q150 0 262 -113q49 72 57 88q25 25 45 25q41 0 31 -66l-47 -293q-4 -23 -8.5 -33t-18.5 -21t-39 -11q-20 0 -30.5 8t-11.5 16.5l-3 26.5q0 133 -69.5 210t-174.5 77q-154 0 -301 -161t-188 -400q-41 -242 53 -403t250 -161 q96 0 200.5 66t139.5 213q10 41 57 41q53 0 45 -49q-23 -139 -159 -248t-306 -109q-203 0 -315 187t-67 463zM547 1491q8 45 57 45q12 0 60 -14l172 -62l192 62q47 14 64 14q49 0 41 -45q-4 -27 -52 -45l-237 -82q-29 -8 -53 0l-205 82q-43 16 -39 45z" />
<glyph unicode="&#x10d;" d="M231 436q12 72 49 146.5t100.5 145.5t167 116t226.5 45q43 0 84 -4t91 -16.5t78 -41t22 -71.5q-6 -35 -32 -55.5t-56 -20.5q-72 0 -58 82q2 10 -23.5 20.5t-59.5 15.5t-60 5q-106 0 -190.5 -41t-130.5 -103.5t-70.5 -118t-32.5 -104.5q-27 -152 60 -257t231 -105 q57 0 104 16t80 47t47 47.5t33 46.5q14 16 45 17q10 0 18.5 -1t19.5 -10.5t9 -27.5q-4 -16 -25.5 -49t-63.5 -74t-121 -69.5t-173 -28.5q-188 0 -294 132t-75 316zM506 1227q8 45 57 45q10 0 55 -31l164 -111l201 111q55 31 68 31q49 0 41 -45q-2 -14 -54 -45l-233 -135 q-39 -23 -70 0l-192 135q-39 27 -37 45z" />
<glyph unicode="&#x10e;" d="M51 43q6 43 72 43h67l181 1079h-68q-16 0 -27.5 1t-22.5 11.5t-9 28.5q8 45 73 45h437q197 0 288 -189.5t48 -445.5q-41 -254 -196 -435t-349 -181h-436q-16 0 -27.5 1t-23 11.5t-7.5 30.5zM295 86h223q176 0 305 160t164 370.5t-39 379.5t-250 169h-223zM362 1491 q8 45 58 45q12 0 59 -14l172 -62l193 62q47 14 63 14q49 0 41 -45q-4 -27 -51 -45l-238 -82q-29 -8 -53 0l-205 82q-43 16 -39 45z" />
<glyph unicode="&#x10f;" d="M152 434q33 188 176 318.5t311 130.5q129 0 250 -121l67 403h-116q-16 0 -26.5 1t-22 11.5t-9.5 28.5q8 45 74 45h154q41 0 50 -13t3 -52l-184 -1100h116q16 0 26.5 -1t22 -11.5t9.5 -28.5q-8 -45 -74 -45h-154q-45 0 -51 26.5t10 110.5q-172 -150 -313 -149 q-162 0 -256 130t-63 316zM254 434q-25 -150 47 -255t193 -105q123 0 219 103.5t114 211.5l25 152q16 98 -47.5 177t-171.5 79q-125 0 -238.5 -103.5t-140.5 -259.5zM1096 905q4 16 20 21q156 49 178 182q-25 -12 -57.5 -12t-51 22.5t-11.5 57.5q4 31 29.5 53t62.5 22 q47 0 72.5 -37.5t15.5 -99.5q-18 -104 -101.5 -172t-132.5 -68q-12 0 -19 9.5t-5 21.5z" />
<glyph unicode="&#x110;" d="M51 43q6 43 72 43h67l82 496h-79q-18 0 -28.5 12t-8.5 33q2 18 18 31.5t35 13.5h80l82 493h-68q-16 0 -27.5 1t-22.5 11.5t-9 28.5q8 45 73 45h437q197 0 288 -189.5t48 -445.5q-41 -254 -196 -435t-349 -181h-436q-16 0 -27.5 1t-23 11.5t-7.5 30.5zM295 86h223 q176 0 305 160t164 370.5t-39 379.5t-250 169h-223l-82 -493h146q18 0 29.5 -13.5t6.5 -31.5q-2 -20 -18 -32.5t-35 -12.5h-145z" />
<glyph unicode="&#x111;" d="M152 434q33 188 176 318.5t311 130.5q129 0 250 -121l35 211h-336q-18 0 -28.5 12t-6.5 31q8 45 49 45h336l18 104h-116q-16 0 -26.5 1t-22 11.5t-9.5 28.5q8 45 74 45h154q41 0 50 -13t3 -52l-23 -125h127q18 0 29.5 -13.5t9.5 -32t-18.5 -30.5t-34.5 -12h-127 l-147 -887h116q16 0 26.5 -1t22 -11.5t9.5 -28.5q-8 -45 -74 -45h-154q-45 0 -51 26.5t10 110.5q-172 -150 -313 -149q-162 0 -256 130t-63 316zM254 434q-25 -150 47 -255t193 -105q123 0 219 103.5t114 211.5l25 152q16 98 -47.5 177t-171.5 79q-125 0 -238.5 -103.5 t-140.5 -259.5z" />
<glyph unicode="&#x112;" d="M66 43q6 43 71 43h86l180 1079h-86q-16 0 -27 1t-22.5 11.5t-9.5 30.5q8 43 74 43h790q39 0 49.5 -13t4.5 -52l-27 -156q-4 -23 -7 -32t-17.5 -21t-39.5 -12q-51 0 -41 65l23 135h-561l-80 -473h322q10 55 15 73.5t18.5 33t37.5 14.5q51 0 41 -65l-33 -197q-4 -23 -7 -32 t-16 -21.5t-38 -12.5q-37 0 -41 27t8 94h-321l-86 -520h608l29 168q8 66 63 65q35 0 42 -21.5t-1 -43.5l-33 -188q-6 -39 -20.5 -52.5t-52.5 -13.5h-838q-16 0 -27.5 1t-22.5 11.5t-7 30.5zM399 1444q8 45 72 45h631q18 0 28.5 -1t20.5 -12.5t6 -33.5q-6 -43 -70 -43h-628 q-18 0 -29.5 1t-22 12.5t-8.5 31.5z" />
<glyph unicode="&#x113;" d="M192.5 438.5q30.5 186.5 179 318.5t328.5 132q186 0 267.5 -123t52.5 -305q-4 -27 -16.5 -40t-23.5 -15.5t-34 -2.5h-655q2 -156 95 -242.5t226 -86.5q178 0 271 151q14 23 49 23q47 0 45 -39q-10 -59 -116.5 -140t-276.5 -81q-195 0 -308.5 132t-83 318.5zM307 489h613 q14 174 -55.5 244t-178.5 70q-119 0 -223.5 -86.5t-155.5 -227.5zM352 1155q8 45 72 45h631q18 0 28.5 -1t20.5 -12t6 -34q-8 -43 -72 -43h-628q-18 0 -29.5 1t-22 12.5t-6.5 31.5z" />
<glyph unicode="&#x114;" d="M66 43q6 43 71 43h86l180 1079h-86q-16 0 -27 1t-22.5 11.5t-9.5 30.5q8 43 74 43h790q39 0 49.5 -13t4.5 -52l-27 -156q-4 -23 -7 -32t-17.5 -21t-39.5 -12q-51 0 -41 65l23 135h-561l-80 -473h322q10 55 15 73.5t18.5 33t37.5 14.5q51 0 41 -65l-33 -197q-4 -23 -7 -32 t-16 -21.5t-38 -12.5q-37 0 -41 27t8 94h-321l-86 -520h608l29 168q8 66 63 65q35 0 42 -21.5t-1 -43.5l-33 -188q-6 -39 -20.5 -52.5t-52.5 -13.5h-838q-16 0 -27.5 1t-22.5 11.5t-7 30.5zM440 1530q10 45 54 45q29 0 32 -23q10 -82 258 -82q250 0 283 82q10 23 41 23 q47 0 37 -45q-8 -53 -47 -87t-105.5 -46.5t-109.5 -15.5t-115 -3t-114 3t-104.5 15.5t-90 46.5t-19.5 87z" />
<glyph unicode="&#x115;" d="M192.5 438.5q30.5 186.5 179 318.5t328.5 132q186 0 267.5 -123t52.5 -305q-4 -27 -16.5 -40t-23.5 -15.5t-34 -2.5h-655q2 -156 95 -242.5t226 -86.5q178 0 271 151q14 23 49 23q47 0 45 -39q-10 -59 -116.5 -140t-276.5 -81q-195 0 -308.5 132t-83 318.5zM307 489h613 q14 174 -55.5 244t-178.5 70q-119 0 -223.5 -86.5t-155.5 -227.5zM387 1208q10 45 53 45q29 0 33 -22q10 -82 258 -82q250 0 283 82q10 23 41 22q47 0 37 -45q-8 -53 -47 -87t-106 -46t-110 -15t-114.5 -3t-113.5 3t-104.5 15t-90 46t-19.5 87z" />
<glyph unicode="&#x116;" d="M66 43q6 43 71 43h86l180 1079h-86q-16 0 -27 1t-22.5 11.5t-9.5 30.5q8 43 74 43h790q39 0 49.5 -13t4.5 -52l-27 -156q-4 -23 -7 -32t-17.5 -21t-39.5 -12q-51 0 -41 65l23 135h-561l-80 -473h322q10 55 15 73.5t18.5 33t37.5 14.5q51 0 41 -65l-33 -197q-4 -23 -7 -32 t-16 -21.5t-38 -12.5q-37 0 -41 27t8 94h-321l-86 -520h608l29 168q8 66 63 65q35 0 42 -21.5t-1 -43.5l-33 -188q-6 -39 -20.5 -52.5t-52.5 -13.5h-838q-16 0 -27.5 1t-22.5 11.5t-7 30.5zM698.5 1464.5q6.5 34.5 35 60t63 25.5t55 -25.5t14.5 -60t-34.5 -59.5t-63.5 -25 t-55.5 25t-14 59.5z" />
<glyph unicode="&#x117;" d="M192.5 438.5q30.5 186.5 179 318.5t328.5 132q186 0 267.5 -123t52.5 -305q-4 -27 -16.5 -40t-23.5 -15.5t-34 -2.5h-655q2 -156 95 -242.5t226 -86.5q178 0 271 151q14 23 49 23q47 0 45 -39q-10 -59 -116.5 -140t-276.5 -81q-195 0 -308.5 132t-83 318.5zM307 489h613 q14 174 -55.5 244t-178.5 70q-119 0 -223.5 -86.5t-155.5 -227.5zM647 1153q6 37 35 61.5t63.5 24.5t55 -24.5t14.5 -61.5q-6 -35 -34.5 -59.5t-63.5 -24.5t-55.5 24.5t-14.5 59.5z" />
<glyph unicode="&#x118;" d="M66 43q6 43 71 43h86l180 1079h-86q-16 0 -27 1t-22.5 11.5t-9.5 30.5q8 43 74 43h790q39 0 49.5 -13t4.5 -52l-27 -156q-4 -23 -7 -32t-17.5 -21t-39.5 -12q-51 0 -41 65l23 135h-561l-80 -473h322q10 55 15 73.5t18.5 33t37.5 14.5q51 0 41 -65l-33 -197q-4 -23 -7 -32 t-16 -21.5t-38 -12.5q-37 0 -41 27t8 94h-321l-86 -520h608l29 168q8 66 63 65q35 0 42 -21.5t-1 -43.5l-33 -188q-6 -39 -20.5 -52.5t-52.5 -13.5h-62q-227 -123 -250 -254q-6 -45 27 -74.5t72 -29.5q35 0 76.5 26.5t68.5 59.5q29 23 49 6q8 -8 8 -22.5t-10 -24.5 q-102 -117 -213 -117q-84 0 -127 56.5t-31 123.5q10 70 61.5 127t164.5 123h-672q-16 0 -27.5 1t-22.5 11.5t-7 30.5z" />
<glyph unicode="&#x119;" d="M193 438q31 186 179 318.5t328 132.5q186 0 267.5 -123t52.5 -305q-4 -27 -16.5 -40t-23.5 -15.5t-34 -2.5h-655q2 -156 95 -242.5t226 -86.5q178 0 271 151q14 23 49 23q49 0 45 -39q-6 -41 -73.5 -97.5t-121.5 -84.5q-145 -80 -216.5 -145.5t-84.5 -135.5 q-6 -45 27 -74.5t72 -29.5q33 0 74.5 26.5t68.5 59.5q33 25 51 6q20 -20 -2 -47q-102 -117 -215 -117q-84 0 -127 56.5t-31 123.5q12 74 51 127t140 111q-219 18 -323.5 144t-73.5 306zM307 489h613q14 174 -55.5 244t-178.5 70q-119 0 -223.5 -86.5t-155.5 -227.5z" />
<glyph unicode="&#x11a;" d="M66 43q6 43 71 43h86l180 1079h-86q-16 0 -27 1t-22.5 11.5t-9.5 30.5q8 43 74 43h790q39 0 49.5 -13t4.5 -52l-27 -156q-4 -23 -7 -32t-17.5 -21t-39.5 -12q-51 0 -41 65l23 135h-561l-80 -473h322q10 55 15 73.5t18.5 33t37.5 14.5q51 0 41 -65l-33 -197q-4 -23 -7 -32 t-16 -21.5t-38 -12.5q-37 0 -41 27t8 94h-321l-86 -520h608l29 168q8 66 63 65q35 0 42 -21.5t-1 -43.5l-33 -188q-6 -39 -20.5 -52.5t-52.5 -13.5h-838q-16 0 -27.5 1t-22.5 11.5t-7 30.5zM492 1491q8 45 57 45q12 0 59 -14l172 -62l193 62q47 14 63 14q49 0 41 -45 q-4 -27 -51 -45l-238 -82q-29 -8 -53 0l-205 82q-42 16 -38 45z" />
<glyph unicode="&#x11b;" d="M192.5 438.5q30.5 186.5 179 318.5t328.5 132q186 0 267.5 -123t52.5 -305q-4 -27 -16.5 -40t-23.5 -15.5t-34 -2.5h-655q2 -156 95 -242.5t226 -86.5q178 0 271 151q14 23 49 23q47 0 45 -39q-10 -59 -116.5 -140t-276.5 -81q-195 0 -308.5 132t-83 318.5zM307 489h613 q14 174 -55.5 244t-178.5 70q-119 0 -223.5 -86.5t-155.5 -227.5zM451 1227q8 45 57 45q10 0 55 -31l164 -111l201 111q55 31 67 31q49 0 41 -45q-2 -14 -53 -45l-233 -135q-39 -23 -70 0l-193 135q-38 27 -36 45z" />
<glyph unicode="&#x11c;" d="M188 627q45 274 209 460.5t351 186.5q129 0 237 -109q41 70 57.5 89.5t38.5 19.5q41 0 31 -66l-47 -293q-4 -23 -8 -33t-18.5 -21t-39.5 -11q-43 0 -43 33q0 90 -21.5 154.5t-56 95t-68.5 43t-69 12.5q-137 0 -274 -161t-176 -402q-41 -238 40 -400t220 -162 q100 0 188 92.5t140 286.5h-113q-16 0 -26.5 1t-21.5 12.5t-7 31.5q6 41 69 41h254q16 0 27.5 -1t23 -11t9.5 -29q-2 -16 -10.5 -25t-26 -13.5t-30.5 -5.5t-42 -1l-63 -376q-2 -20 -6.5 -31.5t-17.5 -23t-38 -11.5q-37 0 -42 27.5t9 97.5q-152 -147 -297 -148 q-186 0 -286.5 187t-55.5 463zM477 1403q4 27 53 45l236 82q29 8 53 0l207 -82q41 -16 37 -45q-8 -45 -57 -45q-14 0 -58 14l-172 62l-192 -62q-53 -14 -66 -14q-49 0 -41 45z" />
<glyph unicode="&#x11d;" d="M31 -195q31 158 211 256q-47 82 -33 160q14 76 72 144q-57 94 -39 200q23 129 133 223.5t248 94.5q109 0 194 -68q121 78 238 78q66 0 94.5 -28.5t21.5 -63.5q-6 -33 -28.5 -49.5t-44.5 -16.5q-18 0 -34.5 16.5t-19.5 57.5q-90 -8 -178 -51q45 -106 31 -193 q-23 -133 -133.5 -226t-247.5 -93q-98 0 -190 63q-31 -55 -39 -92v-33q2 -33 16 -55q16 -27 30.5 -33t45.5 -6q37 -4 63 -4h150q197 0 287 -57q63 -37 85.5 -99.5t12.5 -124.5q-20 -127 -173 -208.5t-349 -81.5q-199 0 -321.5 81.5t-102.5 208.5zM113 -195q-12 -78 90 -141 t266 -63t289 63.5t137 140.5q12 68 -19.5 112t-103.5 62.5t-134.5 23.5t-156.5 5q-123 0 -160.5 -5t-82.5 -32q-105 -60 -125 -166zM344 563q-16 -94 38 -163.5t148 -69.5q92 0 170 68.5t95 166.5q16 94 -38.5 164t-148.5 70q-92 0 -170 -69t-94 -167zM352 1081q2 14 54 45 l233 136q39 23 70 0l192 -136q39 -27 37 -45q-8 -45 -57 -45q-8 0 -56 31l-163 111l-201 -111q-57 -31 -68 -31q-49 0 -41 45z" />
<glyph unicode="&#x11e;" d="M188 627q45 274 209 460.5t351 186.5q129 0 237 -109q41 70 57.5 89.5t38.5 19.5q41 0 31 -66l-47 -293q-4 -23 -8 -33t-18.5 -21t-39.5 -11q-43 0 -43 33q0 90 -21.5 154.5t-56 95t-68.5 43t-69 12.5q-137 0 -274 -161t-176 -402q-41 -238 40 -400t220 -162 q100 0 188 92.5t140 286.5h-113q-16 0 -26.5 1t-21.5 12.5t-7 31.5q6 41 69 41h254q16 0 27.5 -1t23 -11t9.5 -29q-2 -16 -10.5 -25t-26 -13.5t-30.5 -5.5t-42 -1l-63 -376q-2 -20 -6.5 -31.5t-17.5 -23t-38 -11.5q-37 0 -42 27.5t9 97.5q-152 -147 -297 -148 q-186 0 -286.5 187t-55.5 463zM440 1530q10 45 54 45q29 0 32 -23q10 -82 258 -82q250 0 283 82q10 23 41 23q47 0 37 -45q-8 -53 -47 -87t-105.5 -46.5t-109.5 -15.5t-115 -3t-114 3t-104.5 15.5t-90 46.5t-19.5 87z" />
<glyph unicode="&#x11f;" d="M31 -195q31 158 211 256q-47 82 -33 160q14 76 72 144q-57 94 -39 200q23 129 133 223.5t248 94.5q109 0 194 -68q121 78 238 78q66 0 94.5 -28.5t21.5 -63.5q-6 -33 -28.5 -49.5t-44.5 -16.5q-18 0 -34.5 16.5t-19.5 57.5q-90 -8 -178 -51q45 -106 31 -193 q-23 -133 -133.5 -226t-247.5 -93q-98 0 -190 63q-31 -55 -39 -92v-33q2 -33 16 -55q16 -27 30.5 -33t45.5 -6q37 -4 63 -4h150q197 0 287 -57q63 -37 85.5 -99.5t12.5 -124.5q-20 -127 -173 -208.5t-349 -81.5q-199 0 -321.5 81.5t-102.5 208.5zM113 -195q-12 -78 90 -141 t266 -63t289 63.5t137 140.5q12 68 -19.5 112t-103.5 62.5t-134.5 23.5t-156.5 5q-123 0 -160.5 -5t-82.5 -32q-105 -60 -125 -166zM313 1208q10 45 54 45q29 0 32 -22q10 -82 258 -82q250 0 283 82q10 23 41 22q47 0 37 -45q-8 -53 -47 -87t-105.5 -46t-109.5 -15t-115 -3 t-114 3t-104.5 15t-90 46t-19.5 87zM344 563q-16 -94 38 -163.5t148 -69.5q92 0 170 68.5t95 166.5q16 94 -38.5 164t-148.5 70q-92 0 -170 -69t-94 -167z" />
<glyph unicode="&#x120;" d="M188 627q45 274 209 460.5t351 186.5q129 0 237 -109q41 70 57.5 89.5t38.5 19.5q41 0 31 -66l-47 -293q-4 -23 -8 -33t-18.5 -21t-39.5 -11q-43 0 -43 33q0 90 -21.5 154.5t-56 95t-68.5 43t-69 12.5q-137 0 -274 -161t-176 -402q-41 -238 40 -400t220 -162 q100 0 188 92.5t140 286.5h-113q-16 0 -26.5 1t-21.5 12.5t-7 31.5q6 41 69 41h254q16 0 27.5 -1t23 -11t9.5 -29q-2 -16 -10.5 -25t-26 -13.5t-30.5 -5.5t-42 -1l-63 -376q-2 -20 -6.5 -31.5t-17.5 -23t-38 -11.5q-37 0 -42 27.5t9 97.5q-152 -147 -297 -148 q-186 0 -286.5 187t-55.5 463zM698.5 1464.5q6.5 34.5 35 60t63 25.5t55 -25.5t14.5 -60t-34.5 -59.5t-63.5 -25t-55.5 25t-14 59.5z" />
<glyph unicode="&#x121;" d="M31 -195q31 158 211 256q-47 82 -33 160q14 76 72 144q-57 94 -39 200q23 129 133 223.5t248 94.5q109 0 194 -68q121 78 238 78q66 0 94.5 -28.5t21.5 -63.5q-6 -33 -28.5 -49.5t-44.5 -16.5q-18 0 -34.5 16.5t-19.5 57.5q-90 -8 -178 -51q45 -106 31 -193 q-23 -133 -133.5 -226t-247.5 -93q-98 0 -190 63q-31 -55 -39 -92v-33q2 -33 16 -55q16 -27 30.5 -33t45.5 -6q37 -4 63 -4h150q197 0 287 -57q63 -37 85.5 -99.5t12.5 -124.5q-20 -127 -173 -208.5t-349 -81.5q-199 0 -321.5 81.5t-102.5 208.5zM113 -195q-12 -78 90 -141 t266 -63t289 63.5t137 140.5q12 68 -19.5 112t-103.5 62.5t-134.5 23.5t-156.5 5q-123 0 -160.5 -5t-82.5 -32q-105 -60 -125 -166zM344 563q-16 -94 38 -163.5t148 -69.5q92 0 170 68.5t95 166.5q16 94 -38.5 164t-148.5 70q-92 0 -170 -69t-94 -167zM573 1153 q6 37 35 61.5t64 24.5t55.5 -24.5t13.5 -61.5q-6 -35 -34.5 -59.5t-63.5 -24.5t-55.5 24.5t-14.5 59.5z" />
<glyph unicode="&#x122;" d="M188 627q45 274 209 460.5t351 186.5q129 0 237 -109q41 70 57.5 89.5t38.5 19.5q41 0 31 -66l-47 -293q-4 -23 -8 -33t-18.5 -21t-39.5 -11q-43 0 -43 33q0 90 -21.5 154.5t-56 95t-68.5 43t-69 12.5q-137 0 -274 -161t-176 -402q-41 -238 40 -400t220 -162 q100 0 188 92.5t140 286.5h-113q-16 0 -26.5 1t-21.5 12.5t-7 31.5q6 41 69 41h254q16 0 27.5 -1t23 -11t9.5 -29q-2 -16 -10.5 -25t-26 -13.5t-30.5 -5.5t-42 -1l-63 -376q-2 -20 -6.5 -31.5t-17.5 -23t-38 -11.5q-37 0 -42 27.5t9 97.5q-152 -147 -297 -148 q-186 0 -286.5 187t-55.5 463zM350 -459q0 16 21 21q156 49 178 182q-29 -12 -57 -12q-33 0 -51.5 22.5t-12.5 57.5q4 31 29.5 53t62.5 22q45 0 70.5 -37.5t17.5 -99.5q-18 -104 -101 -171.5t-132 -67.5q-12 0 -20.5 10t-4.5 20z" />
<glyph unicode="&#x123;" d="M31 -195q31 158 211 256q-47 82 -33 160q14 76 72 144q-57 94 -39 200q23 129 133 223.5t248 94.5q109 0 194 -68q121 78 238 78q66 0 94.5 -28.5t21.5 -63.5q-6 -33 -28.5 -49.5t-44.5 -16.5q-18 0 -34.5 16.5t-19.5 57.5q-90 -8 -178 -51q45 -106 31 -193 q-23 -133 -133.5 -226t-247.5 -93q-98 0 -190 63q-31 -55 -39 -92v-33q2 -33 16 -55q16 -27 30.5 -33t45.5 -6q37 -4 63 -4h150q197 0 287 -57q63 -37 85.5 -99.5t12.5 -124.5q-20 -127 -173 -208.5t-349 -81.5q-199 0 -321.5 81.5t-102.5 208.5zM113 -195q-12 -78 90 -141 t266 -63t289 63.5t137 140.5q12 68 -19.5 112t-103.5 62.5t-134.5 23.5t-156.5 5q-123 0 -160.5 -5t-82.5 -32q-105 -60 -125 -166zM344 563q-16 -94 38 -163.5t148 -69.5q92 0 170 68.5t95 166.5q16 94 -38.5 164t-148.5 70q-92 0 -170 -69t-94 -167zM537 1108 q18 104 101 172t132 68q12 0 19.5 -9.5t5.5 -21.5q-4 -16 -21 -21q-156 -49 -178 -182q25 12 57.5 12t51 -22.5t12.5 -56.5q-4 -31 -29.5 -53.5t-62.5 -22.5q-47 0 -72.5 38t-15.5 99z" />
<glyph unicode="&#x124;" d="M57 43q6 43 70 43h74l180 1079h-74q-16 0 -26.5 1t-21.5 11.5t-9 28.5q8 45 72 45h251q18 0 28.5 -1t21 -12t6.5 -32q-6 -41 -70 -41h-74l-77 -471h491l78 471h-74q-18 0 -28.5 1t-20.5 11.5t-8 30.5q8 43 72 43h251q18 0 28.5 -1t21 -12t6.5 -32q-6 -41 -70 -41h-74 l-180 -1079h74q18 0 28.5 -1t20.5 -11.5t8 -30.5q-8 -43 -71 -43h-252q-18 0 -28.5 1t-21 12.5t-6.5 31.5q6 41 70 41h74l88 522h-492l-88 -522h74q18 0 28.5 -1t20.5 -11.5t8 -30.5q-8 -43 -71 -43h-252q-16 0 -26.5 1t-22 11.5t-7.5 30.5zM477 1403q4 27 53 45l236 82 q29 8 53 0l207 -82q41 -16 37 -45q-8 -45 -57 -45q-14 0 -58 14l-172 62l-192 -62q-53 -14 -66 -14q-49 0 -41 45z" />
<glyph unicode="&#x125;" d="M37 43q6 43 72 43h114l180 1079h-116q-16 0 -26.5 1t-22 11.5t-9.5 28.5q8 45 74 45h154q41 0 50 -13t3 -52l-76 -445q168 141 324 142q254 0 207 -283l-86 -514h114q18 0 28.5 -1t22 -11.5t9.5 -30.5q-8 -43 -72 -43h-324q-16 0 -27.5 1t-22.5 11.5t-7 30.5q6 43 72 43 h104l84 502q18 111 -9.5 160t-119.5 49q-104 0 -208.5 -79t-131.5 -235l-65 -397h114q18 0 28.5 -1t22 -11.5t9.5 -30.5q-8 -43 -72 -43h-336q-16 0 -26.5 1t-21.5 11.5t-7 30.5zM477 1403q4 27 53 45l236 82q29 8 53 0l207 -82q41 -16 37 -45q-8 -45 -57 -45q-14 0 -58 14 l-172 62l-192 -62q-53 -14 -66 -14q-49 0 -41 45z" />
<glyph unicode="&#x126;" d="M57 43q6 43 70 43h74l137 817h-84q-18 0 -29.5 13.5t-9.5 32t18.5 31.5t34.5 13h84l29 172h-74q-16 0 -26.5 1t-21.5 11.5t-9 28.5q8 45 72 45h251q18 0 28.5 -1t21 -12t6.5 -32q-6 -41 -70 -41h-74l-28 -172h491l29 172h-74q-18 0 -28.5 1t-20.5 11.5t-8 30.5 q8 43 72 43h251q18 0 28.5 -1t21 -12t6.5 -32q-6 -41 -70 -41h-74l-28 -172h84q18 0 29.5 -13t7.5 -32q-8 -45 -52 -45h-84l-137 -817h74q18 0 28.5 -1t20.5 -11.5t8 -30.5q-8 -43 -71 -43h-252q-18 0 -28.5 1t-21 12.5t-6.5 31.5q6 41 70 41h74l88 522h-492l-88 -522h74 q18 0 28.5 -1t20.5 -11.5t8 -30.5q-8 -43 -71 -43h-252q-16 0 -26.5 1t-22 11.5t-7.5 30.5zM408 694h491l35 209h-492z" />
<glyph unicode="&#x127;" d="M37 43q6 43 72 43h114l148 887h-127q-18 0 -28.5 12t-8.5 31q8 45 51 45h127l18 104h-116q-16 0 -26.5 1t-22 11.5t-9.5 28.5q8 45 74 45h154q41 0 50 -13t3 -52l-23 -125h228q18 0 29.5 -13.5t9.5 -31.5q-8 -43 -54 -43h-227l-39 -232q168 141 324 142q254 0 207 -283 l-86 -514h114q18 0 28.5 -1t22 -11.5t9.5 -30.5q-8 -43 -72 -43h-324q-16 0 -27.5 1t-22.5 11.5t-7 30.5q6 43 72 43h104l84 502q18 111 -9.5 160t-119.5 49q-104 0 -208.5 -79t-131.5 -235l-65 -397h114q18 0 28.5 -1t22 -11.5t9.5 -30.5q-8 -43 -72 -43h-336 q-16 0 -26.5 1t-21.5 11.5t-7 30.5z" />
<glyph unicode="&#x128;" d="M178 45q6 41 72 41h250l180 1079h-250q-16 0 -27.5 1t-22.5 11.5t-9 30.5q8 43 73 43h605q16 0 27 -1t22.5 -12t7.5 -32q-6 -41 -72 -41h-250l-180 -1079h250q16 0 27.5 -1t22.5 -11.5t9 -30.5q-8 -43 -73 -43h-604q-16 0 -27.5 1t-23 12.5t-7.5 31.5zM422 1403 q4 25 113 100q102 66 163 66q45 0 90 -37l35 -38q14 -15 24.5 -24.5t20 -13.5t19.5 -4q55 0 178 98q23 18 41 19q16 0 27.5 -14.5t9.5 -32.5q-4 -29 -113 -99q-96 -66 -164 -65q-49 0 -90 37q-33 37 -45 48t-26.5 20.5t-26.5 9.5q-59 0 -178 -99q-25 -16 -41.5 -16 t-28.5 14.5t-8 30.5z" />
<glyph unicode="&#x129;" d="M176 43q6 43 72 43h278l117 698h-262q-16 0 -27.5 1t-23 11.5t-8.5 30.5q8 43 73 43h301q41 0 50.5 -13t3.5 -52l-121 -719h243q16 0 27.5 -1t23 -11.5t9.5 -30.5q-8 -43 -74 -43h-625q-16 0 -27 1t-22.5 11.5t-7.5 30.5zM371 1094q4 25 112 100q102 66 164 66 q45 0 90 -37l35 -38q14 -15 24.5 -24.5t19.5 -13.5t20 -4q55 0 178 98q23 18 41 19q16 0 27.5 -14.5t9.5 -33.5q-4 -29 -113 -98q-102 -66 -164 -65q-49 0 -90 36l-35 38q-14 15 -24.5 24.5t-19.5 13.5t-19 4q-55 0 -178 -100q-25 -16 -41.5 -16t-27.5 14.5t-9 30.5z" />
<glyph unicode="&#x12a;" d="M178 45q6 41 72 41h250l180 1079h-250q-16 0 -27.5 1t-22.5 11.5t-9 30.5q8 43 73 43h605q16 0 27 -1t22.5 -12t7.5 -32q-6 -41 -72 -41h-250l-180 -1079h250q16 0 27.5 -1t22.5 -11.5t9 -30.5q-8 -43 -73 -43h-604q-16 0 -27.5 1t-23 12.5t-7.5 31.5zM399 1444 q8 45 72 45h631q18 0 28.5 -1t20.5 -12.5t6 -33.5q-6 -43 -70 -43h-628q-18 0 -29.5 1t-22 12.5t-8.5 31.5z" />
<glyph unicode="&#x12b;" d="M176 43q6 43 72 43h278l117 698h-262q-16 0 -27.5 1t-23 11.5t-8.5 30.5q8 43 73 43h301q41 0 50.5 -13t3.5 -52l-121 -719h243q16 0 27.5 -1t23 -11.5t9.5 -30.5q-8 -43 -74 -43h-625q-16 0 -27 1t-22.5 11.5t-7.5 30.5zM352 1155q8 45 72 45h631q18 0 28.5 -1t20.5 -12 t6 -34q-8 -43 -72 -43h-628q-18 0 -29.5 1t-22 12.5t-6.5 31.5z" />
<glyph unicode="&#x12c;" d="M178 45q6 41 72 41h250l180 1079h-250q-16 0 -27.5 1t-22.5 11.5t-9 30.5q8 43 73 43h605q16 0 27 -1t22.5 -12t7.5 -32q-6 -41 -72 -41h-250l-180 -1079h250q16 0 27.5 -1t22.5 -11.5t9 -30.5q-8 -43 -73 -43h-604q-16 0 -27.5 1t-23 12.5t-7.5 31.5zM440 1530 q10 45 54 45q29 0 32 -23q10 -82 258 -82q250 0 283 82q10 23 41 23q47 0 37 -45q-8 -53 -47 -87t-105.5 -46.5t-109.5 -15.5t-115 -3t-114 3t-104.5 15.5t-90 46.5t-19.5 87z" />
<glyph unicode="&#x12d;" d="M176 43q6 43 72 43h278l117 698h-262q-16 0 -27.5 1t-23 11.5t-8.5 30.5q8 43 73 43h301q41 0 50.5 -13t3.5 -52l-121 -719h243q16 0 27.5 -1t23 -11.5t9.5 -30.5q-8 -43 -74 -43h-625q-16 0 -27 1t-22.5 11.5t-7.5 30.5zM387 1208q10 45 53 45q29 0 33 -22 q10 -82 258 -82q250 0 283 82q10 23 41 22q47 0 37 -45q-8 -53 -47 -87t-106 -46t-110 -15t-114.5 -3t-113.5 3t-104.5 15t-90 46t-19.5 87z" />
<glyph unicode="&#x12e;" d="M178 45q6 41 72 41h250l180 1079h-250q-16 0 -27.5 1t-22.5 11.5t-9 30.5q8 43 73 43h605q16 0 27 -1t22.5 -12t7.5 -32q-6 -41 -72 -41h-250l-180 -1079h250q16 0 27.5 -1t22.5 -11.5t9 -30.5q-8 -43 -73 -43h-213q-82 -43 -143.5 -110.5t-73.5 -143.5 q-8 -45 24.5 -74.5t71.5 -29.5q35 0 77 26.5t68 59.5q33 25 51 6q23 -20 -4 -47q-102 -117 -213 -117q-84 0 -127 56.5t-30 123.5q20 135 188 250h-280q-16 0 -27.5 1t-23 12.5t-7.5 31.5z" />
<glyph unicode="&#x12f;" d="M176 43q6 43 72 43h278l117 698h-262q-16 0 -27.5 1t-23 11.5t-8.5 30.5q8 43 73 43h301q41 0 50.5 -13t3.5 -52l-121 -719h243q16 0 27.5 -1t23 -11.5t9.5 -30.5q-8 -43 -74 -43h-258q-82 -43 -143.5 -110.5t-73.5 -143.5q-6 -45 26.5 -74.5t71.5 -29.5q68 0 146 86 q6 6 22.5 9t26.5 -3q8 -8 7 -22.5t-9 -24.5q-102 -117 -213 -117q-84 0 -127 56.5t-31 123.5q18 129 195 250h-265q-16 0 -27 1t-22.5 11.5t-7.5 30.5zM641 1169.5q6 34.5 35 59t63.5 24.5t55 -24.5t14.5 -59t-35 -60.5t-63.5 -26t-55 26t-14.5 60.5z" />
<glyph unicode="&#x130;" d="M178 45q6 41 72 41h250l180 1079h-250q-16 0 -27.5 1t-22.5 11.5t-9 30.5q8 43 73 43h605q16 0 27 -1t22.5 -12t7.5 -32q-6 -41 -72 -41h-250l-180 -1079h250q16 0 27.5 -1t22.5 -11.5t9 -30.5q-8 -43 -73 -43h-604q-16 0 -27.5 1t-23 12.5t-7.5 31.5zM698.5 1464.5 q6.5 34.5 35 60t63 25.5t55 -25.5t14.5 -60t-34.5 -59.5t-63.5 -25t-55.5 25t-14 59.5z" />
<glyph unicode="&#x131;" d="M176 43q6 43 72 43h278l117 698h-262q-16 0 -27.5 1t-23 11.5t-8.5 30.5q8 43 73 43h301q41 0 50.5 -13t3.5 -52l-121 -719h243q16 0 27.5 -1t23 -11.5t9.5 -30.5q-8 -43 -74 -43h-625q-16 0 -27 1t-22.5 11.5t-7.5 30.5z" />
<glyph unicode="&#x134;" d="M184 188q8 39 33 58.5t55.5 19.5t47 -21.5t12.5 -49.5q-4 -25 -35 -58q70 -74 197 -74q27 0 58.5 6.5t79.5 25t84 64.5t48 115l149 891h-194q-18 0 -28.5 1t-22 11.5t-9.5 30.5q8 43 74 43h383q16 0 27.5 -1t23 -11t7.5 -31q-6 -43 -72 -43h-84l-152 -903 q-20 -129 -134 -207t-253 -78q-147 0 -229 58.5t-66 152.5zM651 1403q4 27 54 45l235 82q29 8 53 0l207 -82q41 -16 37 -45q-8 -45 -57 -45q-14 0 -58 14l-172 62l-192 -62q-53 -14 -66 -14q-49 0 -41 45z" />
<glyph unicode="&#x135;" d="M47 -342q6 35 31.5 55.5t54.5 20.5t47.5 -20.5t12.5 -53.5l-17 -35l41 -10q43 -10 107 -10q125 0 202 88q72 82 92 203l150 888h-297q-16 0 -26.5 1t-21.5 11.5t-9 28.5q8 45 73 45h334q41 0 50.5 -13t2.5 -52l-153 -920q-10 -55 -37 -112.5t-74 -118t-129 -99 t-184 -38.5q-35 0 -59.5 1t-67.5 8t-68.5 20.5t-43 42t-11.5 69.5zM541 1081q2 14 53 45l233 136q39 23 70 0l193 -136q39 -27 36 -45q-8 -45 -57 -45q-8 0 -55 31l-164 111l-201 -111q-55 -31 -67 -31q-49 0 -41 45z" />
<glyph unicode="&#x136;" d="M66 45q6 41 71 41h64l180 1079h-64q-18 0 -28 1t-21.5 11.5t-9.5 30.5q8 43 74 43h213q18 0 28.5 -1t21.5 -12t7 -32q-6 -41 -72 -41h-67l-109 -645l621 645q-41 0 -59.5 1t-33 11.5t-12.5 28.5q8 45 74 45h186q16 0 27.5 -1t23 -11t7.5 -31q-2 -20 -18.5 -29.5 t-35 -11.5t-61.5 -2l-409 -426l258 -653q37 0 54 -1t30.5 -11.5t11.5 -30.5q-8 -43 -76 -43h-158q-18 0 -28.5 1t-21.5 12.5t-7 31.5q4 29 27.5 35t79.5 6l-232 590l-268 -279l-51 -311h67q18 0 28.5 -1t22 -11.5t9.5 -30.5q-8 -43 -74 -43h-213q-18 0 -28.5 1t-21.5 12.5 t-7 31.5zM350 -459q0 16 21 21q156 49 178 182q-29 -12 -57 -12q-33 0 -51.5 22.5t-12.5 57.5q4 31 29.5 53t62.5 22q45 0 70.5 -37.5t17.5 -99.5q-18 -104 -101 -171.5t-132 -67.5q-12 0 -20.5 10t-4.5 20z" />
<glyph unicode="&#x137;" d="M55 45q6 41 70 41h111l180 1079h-111q-18 0 -28.5 1t-20.5 11.5t-8 30.5q8 43 71 43h138q41 0 50 -13t3 -52l-133 -795l483 393h-131q-16 0 -26.5 1t-21.5 11.5t-9 28.5q8 45 71 45h326q16 0 27.5 -1t22.5 -12t7 -32q-6 -41 -71 -41h-76l-326 -266l260 -432h72 q16 0 27.5 -1t23 -11.5t8.5 -30.5q-8 -43 -73 -43h-250q-16 0 -26.5 1t-21.5 11.5t-7 30.5q2 12 7 20.5t15 12.5t26.5 5t39.5 1h53l-225 375l-224 -174l-32 -197h125q18 0 28 -1t20.5 -11.5t8.5 -30.5q-8 -43 -72 -43h-325q-18 0 -28.5 1t-21 12.5t-6.5 31.5zM350 -459 q0 16 21 21q156 49 178 182q-29 -12 -57 -12q-33 0 -51.5 22.5t-12.5 57.5q4 31 29.5 53t62.5 22q45 0 70.5 -37.5t17.5 -99.5q-18 -104 -101 -171.5t-132 -67.5q-12 0 -20.5 10t-4.5 20z" />
<glyph unicode="&#x139;" d="M80 43q6 43 70 43h98l180 1079h-98q-18 0 -28.5 1t-21 11.5t-8.5 28.5q8 45 72 45h342q16 0 27.5 -1t23 -12t6.5 -32q-6 -41 -71 -41h-140l-180 -1079h553l29 168q2 20 6 32.5t17.5 22.5t37.5 10q35 0 42 -21.5t-1 -43.5l-32 -188q-6 -39 -20.5 -52.5t-53.5 -13.5h-795 q-18 0 -28.5 1t-20.5 11.5t-6 30.5zM331 1419.5q-1 12.5 1 22.5q4 23 47 43l303 127l33 8q23 0 35 -15.5t8 -37.5q-4 -33 -56 -54l-317 -131l-14 -4q-18 0 -28.5 14.5t-11.5 27z" />
<glyph unicode="&#x13a;" d="M133 43q6 43 72 43h295l180 1079h-297q-16 0 -26.5 1t-21.5 11.5t-9 28.5q8 45 73 45h336q39 0 49.5 -13t3.5 -52l-184 -1100h297q18 0 28.5 -1t21 -11.5t7.5 -30.5q-8 -43 -71 -43h-699q-16 0 -26 1t-21.5 11.5t-7.5 30.5zM574 1419.5q-1 12.5 1 22.5q4 23 48 43 l303 127l32 8q23 0 35.5 -15.5t7.5 -37.5q-4 -33 -55 -54l-317 -131l-15 -4q-18 0 -28.5 14.5t-11.5 27z" />
<glyph unicode="&#x13b;" d="M80 43q6 43 70 43h98l180 1079h-98q-18 0 -28.5 1t-21 11.5t-8.5 28.5q8 45 72 45h342q16 0 27.5 -1t23 -12t6.5 -32q-6 -41 -71 -41h-140l-180 -1079h553l29 168q2 20 6 32.5t17.5 22.5t37.5 10q35 0 42 -21.5t-1 -43.5l-32 -188q-6 -39 -20.5 -52.5t-53.5 -13.5h-795 q-18 0 -28.5 1t-20.5 11.5t-6 30.5zM350 -459q0 16 21 21q156 49 178 182q-29 -12 -57 -12q-33 0 -51.5 22.5t-12.5 57.5q4 31 29.5 53t62.5 22q45 0 70.5 -37.5t17.5 -99.5q-18 -104 -101 -171.5t-132 -67.5q-12 0 -20.5 10t-4.5 20z" />
<glyph unicode="&#x13c;" d="M133 43q6 43 72 43h295l180 1079h-297q-16 0 -26.5 1t-21.5 11.5t-9 28.5q8 45 73 45h336q39 0 49.5 -13t3.5 -52l-184 -1100h297q18 0 28.5 -1t21 -11.5t7.5 -30.5q-8 -43 -71 -43h-699q-16 0 -26 1t-21.5 11.5t-7.5 30.5zM350 -459q0 16 21 21q156 49 178 182 q-29 -12 -57 -12q-33 0 -51.5 22.5t-12.5 57.5q4 31 29.5 53t62.5 22q45 0 70.5 -37.5t17.5 -99.5q-18 -104 -101 -171.5t-132 -67.5q-12 0 -20.5 10t-4.5 20z" />
<glyph unicode="&#x13d;" d="M80 43q6 43 70 43h98l180 1079h-98q-18 0 -28.5 1t-21 11.5t-8.5 28.5q8 45 72 45h342q16 0 27.5 -1t23 -12t6.5 -32q-6 -41 -71 -41h-140l-180 -1079h553l29 168q2 20 6 32.5t17.5 22.5t37.5 10q35 0 42 -21.5t-1 -43.5l-32 -188q-6 -39 -20.5 -52.5t-53.5 -13.5h-795 q-18 0 -28.5 1t-20.5 11.5t-6 30.5zM813 905q4 16 21 21q156 49 178 182q-25 -12 -57.5 -12t-51 22.5t-12.5 57.5q4 31 29.5 53t62.5 22q47 0 72.5 -37.5t15.5 -99.5q-18 -104 -101 -172t-132 -68q-12 0 -19.5 9.5t-5.5 21.5z" />
<glyph unicode="&#x13e;" d="M133 43q6 43 72 43h295l180 1079h-297q-16 0 -26.5 1t-21.5 11.5t-9 28.5q8 45 73 45h336q39 0 49.5 -13t3.5 -52l-184 -1100h297q18 0 28.5 -1t21 -11.5t7.5 -30.5q-8 -43 -71 -43h-699q-16 0 -26 1t-21.5 11.5t-7.5 30.5zM821 905q4 16 21 21q156 49 178 182 q-25 -12 -57.5 -12t-51 22.5t-12.5 57.5q4 31 29.5 53t62.5 22q47 0 73 -37.5t15 -99.5q-18 -104 -101 -172t-132 -68q-12 0 -19.5 9.5t-5.5 21.5z" />
<glyph unicode="&#x13f;" d="M80 43q6 43 70 43h98l180 1079h-98q-18 0 -28.5 1t-21 11.5t-8.5 28.5q8 45 72 45h342q16 0 27.5 -1t23 -12t6.5 -32q-6 -41 -71 -41h-140l-180 -1079h553l29 168q2 20 6 32.5t17.5 22.5t37.5 10q35 0 42 -21.5t-1 -43.5l-32 -188q-6 -39 -20.5 -52.5t-53.5 -13.5h-795 q-18 0 -28.5 1t-20.5 11.5t-6 30.5zM848 647q6 37 34.5 61.5t63.5 24.5t55.5 -24.5t14.5 -61.5q-6 -35 -35 -59.5t-63.5 -24.5t-55 24.5t-14.5 59.5z" />
<glyph unicode="&#x140;" d="M133 43q6 43 72 43h295l180 1079h-297q-16 0 -26.5 1t-21.5 11.5t-9 28.5q8 45 73 45h336q39 0 49.5 -13t3.5 -52l-184 -1100h297q18 0 28.5 -1t21 -11.5t7.5 -30.5q-8 -43 -71 -43h-699q-16 0 -26 1t-21.5 11.5t-7.5 30.5zM1100 647q6 37 34.5 61.5t63.5 24.5 t55.5 -24.5t14.5 -61.5q-6 -35 -35 -59.5t-63.5 -24.5t-55 24.5t-14.5 59.5z" />
<glyph unicode="&#x141;" d="M80 43q6 43 70 43h98l82 487l-119 -73q-39 -25 -55 10q-18 33 18 57l172 107l82 491h-98q-18 0 -28.5 1t-21 11.5t-8.5 28.5q8 45 72 45h342q16 0 27.5 -1t23 -12t6.5 -32q-6 -41 -71 -41h-140l-69 -422l434 267q16 8 31.5 4t21.5 -19q18 -33 -20 -57l-484 -293l-94 -559 h553l29 168q2 20 6 32.5t17.5 22.5t37.5 10q35 0 42 -21.5t-1 -43.5l-32 -188q-6 -39 -20.5 -52.5t-53.5 -13.5h-795q-18 0 -28.5 1t-20.5 11.5t-6 30.5z" />
<glyph unicode="&#x142;" d="M133 43q6 43 72 43h295l98 584l-276 -170q-39 -25 -56 10q-18 35 19 57l329 201l66 397h-297q-16 0 -26.5 1t-21.5 11.5t-9 28.5q8 45 73 45h336q39 0 49.5 -13t3.5 -52l-57 -344l275 168q35 20 53 -13q8 -14 3 -31.5t-22 -27.5l-327 -199l-109 -653h297q18 0 28.5 -1 t21 -11.5t7.5 -30.5q-8 -43 -71 -43h-699q-16 0 -26 1t-21.5 11.5t-7.5 30.5z" />
<glyph unicode="&#x143;" d="M70 45q6 41 69 41h76l180 1079h-76q-18 0 -28 1t-20.5 11.5t-8.5 30.5q8 43 72 43h145q27 0 42.5 -3t27.5 -17t18 -41l226 -1104h18l180 1079h-73q-16 0 -26.5 1t-22 11.5t-9.5 28.5q8 45 72 45h225q18 0 28.5 -1t21 -12t5.5 -32q-6 -41 -69 -41h-76l-184 -1099 q-8 -43 -22.5 -54.5t-55.5 -11.5q-27 0 -41 3t-28.5 16.5t-20.5 41.5l-226 1104h-18l-180 -1079h74q18 0 28 -1t20.5 -11.5t8.5 -30.5q-8 -43 -72 -43h-225q-18 0 -28.5 1t-20.5 12.5t-6 31.5zM574 1419.5q-1 12.5 1 22.5q4 23 48 43l303 127l32 8q23 0 35.5 -15.5 t7.5 -37.5q-4 -33 -55 -54l-317 -131l-15 -4q-18 0 -28.5 14.5t-11.5 27z" />
<glyph unicode="&#x144;" d="M37 43q6 43 72 43h114l117 698h-117q-16 0 -26.5 1t-21.5 11.5t-9 28.5q8 45 74 45h153q45 0 51.5 -25.5t-10.5 -103.5q168 141 324 142q254 0 207 -283l-86 -514h114q18 0 28.5 -1t22 -11.5t9.5 -30.5q-8 -43 -72 -43h-324q-16 0 -27.5 1t-22.5 11.5t-7 30.5q6 43 72 43 h104l84 502q18 111 -9.5 160t-119.5 49q-104 0 -208.5 -79t-131.5 -235l-65 -397h114q18 0 28.5 -1t22 -11.5t9.5 -30.5q-8 -43 -72 -43h-336q-16 0 -26.5 1t-21.5 11.5t-7 30.5zM518 1098q4 25 47 41l303 127l33 8q23 0 36 -14.5t9 -36.5q-8 -35 -57 -56l-318 -131l-14 -2 q-47 1 -39 64z" />
<glyph unicode="&#x145;" d="M70 45q6 41 69 41h76l180 1079h-76q-18 0 -28 1t-20.5 11.5t-8.5 30.5q8 43 72 43h145q27 0 42.5 -3t27.5 -17t18 -41l226 -1104h18l180 1079h-73q-16 0 -26.5 1t-22 11.5t-9.5 28.5q8 45 72 45h225q18 0 28.5 -1t21 -12t5.5 -32q-6 -41 -69 -41h-76l-184 -1099 q-8 -43 -22.5 -54.5t-55.5 -11.5q-27 0 -41 3t-28.5 16.5t-20.5 41.5l-226 1104h-18l-180 -1079h74q18 0 28 -1t20.5 -11.5t8.5 -30.5q-8 -43 -72 -43h-225q-18 0 -28.5 1t-20.5 12.5t-6 31.5zM350 -459q0 16 21 21q156 49 178 182q-29 -12 -57 -12q-33 0 -51.5 22.5 t-12.5 57.5q4 31 29.5 53t62.5 22q45 0 70.5 -37.5t17.5 -99.5q-18 -104 -101 -171.5t-132 -67.5q-12 0 -20.5 10t-4.5 20z" />
<glyph unicode="&#x146;" d="M37 43q6 43 72 43h114l117 698h-117q-16 0 -26.5 1t-21.5 11.5t-9 28.5q8 45 74 45h153q45 0 51.5 -25.5t-10.5 -103.5q168 141 324 142q254 0 207 -283l-86 -514h114q18 0 28.5 -1t22 -11.5t9.5 -30.5q-8 -43 -72 -43h-324q-16 0 -27.5 1t-22.5 11.5t-7 30.5q6 43 72 43 h104l84 502q18 111 -9.5 160t-119.5 49q-104 0 -208.5 -79t-131.5 -235l-65 -397h114q18 0 28.5 -1t22 -11.5t9.5 -30.5q-8 -43 -72 -43h-336q-16 0 -26.5 1t-21.5 11.5t-7 30.5zM350 -459q0 16 21 21q156 49 178 182q-29 -12 -57 -12q-33 0 -51.5 22.5t-12.5 57.5 q4 31 29.5 53t62.5 22q45 0 70.5 -37.5t17.5 -99.5q-18 -104 -101 -171.5t-132 -67.5q-12 0 -20.5 10t-4.5 20z" />
<glyph unicode="&#x147;" d="M70 45q6 41 69 41h76l180 1079h-76q-18 0 -28 1t-20.5 11.5t-8.5 30.5q8 43 72 43h145q27 0 42.5 -3t27.5 -17t18 -41l226 -1104h18l180 1079h-73q-16 0 -26.5 1t-22 11.5t-9.5 28.5q8 45 72 45h225q18 0 28.5 -1t21 -12t5.5 -32q-6 -41 -69 -41h-76l-184 -1099 q-8 -43 -22.5 -54.5t-55.5 -11.5q-27 0 -41 3t-28.5 16.5t-20.5 41.5l-226 1104h-18l-180 -1079h74q18 0 28 -1t20.5 -11.5t8.5 -30.5q-8 -43 -72 -43h-225q-18 0 -28.5 1t-20.5 12.5t-6 31.5zM492 1491q8 45 57 45q12 0 59 -14l172 -62l193 62q47 14 63 14q49 0 41 -45 q-4 -27 -51 -45l-238 -82q-29 -8 -53 0l-205 82q-42 16 -38 45z" />
<glyph unicode="&#x148;" d="M37 43q6 43 72 43h114l117 698h-117q-16 0 -26.5 1t-21.5 11.5t-9 28.5q8 45 74 45h153q45 0 51.5 -25.5t-10.5 -103.5q168 141 324 142q254 0 207 -283l-86 -514h114q18 0 28.5 -1t22 -11.5t9.5 -30.5q-8 -43 -72 -43h-324q-16 0 -27.5 1t-22.5 11.5t-7 30.5q6 43 72 43 h104l84 502q18 111 -9.5 160t-119.5 49q-104 0 -208.5 -79t-131.5 -235l-65 -397h114q18 0 28.5 -1t22 -11.5t9.5 -30.5q-8 -43 -72 -43h-336q-16 0 -26.5 1t-21.5 11.5t-7 30.5zM451 1227q8 45 57 45q10 0 55 -31l164 -111l201 111q55 31 67 31q49 0 41 -45q-2 -14 -53 -45 l-233 -135q-39 -23 -70 0l-193 135q-38 27 -36 45z" />
<glyph unicode="&#x14a;" d="M37 43q6 43 72 43h114l180 1079h-116q-16 0 -26.5 1t-22 11.5t-9.5 28.5q8 45 74 45h154q41 0 49 -19.5t-4 -90.5q164 133 305 133q133 0 213 -97.5t92 -240.5t-10 -309l-29 -156q-12 -63 -34.5 -146t-50 -138.5t-65.5 -106.5t-89.5 -77t-114.5 -26q-29 0 -46.5 21.5 t-13 50.5t30 50.5t54 21.5t51.5 -25q80 51 124 187.5t78 343.5q18 137 15.5 258t-60 202.5t-164.5 81.5q-111 0 -202.5 -80.5t-126.5 -201.5l-133 -801h114q18 0 28.5 -1t22 -11.5t9.5 -30.5q-8 -43 -72 -43h-336q-16 0 -26.5 1t-21.5 11.5t-7 30.5z" />
<glyph unicode="&#x14b;" d="M111 43q6 43 71 43h115l117 698h-117q-16 0 -26.5 1t-21.5 11.5t-9 28.5q8 45 73 45h156q45 0 51 -25.5t-10 -103.5q166 141 321 142q254 0 207 -283l-82 -491q-45 -264 -118 -416q-96 -186 -252 -187q-23 0 -36 15.5t-9 38t21.5 38t39.5 15.5q55 0 98 43t72 124 t46.5 153.5t35.5 175.5l80 479q18 111 -9.5 160t-119.5 49q-104 0 -207.5 -79t-130.5 -235l-66 -397h113q18 0 28.5 -1t21.5 -11.5t9 -30.5q-8 -43 -71 -43h-336q-16 0 -26.5 1t-21.5 11.5t-7 30.5z" />
<glyph unicode="&#x14c;" d="M179 161q-3 42 0 114.5t14.5 151.5t31.5 198q27 160 46.5 254t50 176t60.5 117.5t87 62.5t117.5 33t163.5 6q76 0 126 -3t94 -16.5t68.5 -30t42 -54t21.5 -79.5t1 -116t-14.5 -153t-31.5 -197q-27 -160 -46.5 -254.5t-50 -175t-61.5 -117.5t-87 -62.5t-116.5 -32 t-163.5 -6.5q-76 0 -126 3.5t-95 15.5t-68.5 29.5t-42 55.5t-21.5 80zM291 229q4 -90 57 -128t199 -38q150 0 215 40t102 141q49 129 90 399q49 289 39 393q-8 92 -65.5 122t-192.5 30q-145 0 -211.5 -34t-103.5 -132q-41 -100 -88 -379q-49 -310 -41 -414zM399 1444 q8 45 72 45h631q18 0 28.5 -1t20.5 -12.5t6 -33.5q-6 -43 -70 -43h-628q-18 0 -29.5 1t-22 12.5t-8.5 31.5z" />
<glyph unicode="&#x14d;" d="M197 436q31 188 174 320.5t313 132.5t270.5 -132t69.5 -321q-33 -188 -177.5 -318t-312 -130t-269 130t-68.5 318zM303 451q-27 -156 46 -266.5t200 -110.5q125 0 235.5 110.5t137.5 266.5q25 152 -51 252t-201 100q-123 0 -232.5 -100t-134.5 -252zM352 1155q8 45 72 45 h631q18 0 28.5 -1t20.5 -12t6 -34q-8 -43 -72 -43h-628q-18 0 -29.5 1t-22 12.5t-6.5 31.5z" />
<glyph unicode="&#x14e;" d="M179 161q-3 42 0 114.5t14.5 151.5t31.5 198q27 160 46.5 254t50 176t60.5 117.5t87 62.5t117.5 33t163.5 6q76 0 126 -3t94 -16.5t68.5 -30t42 -54t21.5 -79.5t1 -116t-14.5 -153t-31.5 -197q-27 -160 -46.5 -254.5t-50 -175t-61.5 -117.5t-87 -62.5t-116.5 -32 t-163.5 -6.5q-76 0 -126 3.5t-95 15.5t-68.5 29.5t-42 55.5t-21.5 80zM291 229q4 -90 57 -128t199 -38q150 0 215 40t102 141q49 129 90 399q49 289 39 393q-8 92 -65.5 122t-192.5 30q-145 0 -211.5 -34t-103.5 -132q-41 -100 -88 -379q-49 -310 -41 -414zM440 1530 q10 45 54 45q29 0 32 -23q10 -82 258 -82q250 0 283 82q10 23 41 23q47 0 37 -45q-8 -53 -47 -87t-105.5 -46.5t-109.5 -15.5t-115 -3t-114 3t-104.5 15.5t-90 46.5t-19.5 87z" />
<glyph unicode="&#x14f;" d="M197 436q31 188 174 320.5t313 132.5t270.5 -132t69.5 -321q-33 -188 -177.5 -318t-312 -130t-269 130t-68.5 318zM303 451q-27 -156 46 -266.5t200 -110.5q125 0 235.5 110.5t137.5 266.5q25 152 -51 252t-201 100q-123 0 -232.5 -100t-134.5 -252zM387 1208 q10 45 53 45q29 0 33 -22q10 -82 258 -82q250 0 283 82q10 23 41 22q47 0 37 -45q-8 -53 -47 -87t-106 -46t-110 -15t-114.5 -3t-113.5 3t-104.5 15t-90 46t-19.5 87z" />
<glyph unicode="&#x150;" d="M179 161q-3 42 0 114.5t14.5 151.5t31.5 198q27 160 46.5 254t50 176t60.5 117.5t87 62.5t117.5 33t163.5 6q76 0 126 -3t94 -16.5t68.5 -30t42 -54t21.5 -79.5t1 -116t-14.5 -153t-31.5 -197q-27 -160 -46.5 -254.5t-50 -175t-61.5 -117.5t-87 -62.5t-116.5 -32 t-163.5 -6.5q-76 0 -126 3.5t-95 15.5t-68.5 29.5t-42 55.5t-21.5 80zM291 229q4 -90 57 -128t199 -38q150 0 215 40t102 141q49 129 90 399q49 289 39 393q-8 92 -65.5 122t-192.5 30q-145 0 -211.5 -34t-103.5 -132q-41 -100 -88 -379q-49 -310 -41 -414zM438 1440 q2 14 27 33l153 126q39 29 72 35q20 0 33.5 -16t9.5 -39q-2 -18 -63 -66l-113 -92q-55 -43 -72 -43q-20 0 -35.5 21t-11.5 41zM850 1440q2 14 27 33l153 126q39 29 72 35q20 0 33.5 -16t9.5 -39q-2 -18 -64 -66l-112 -92q-55 -43 -72 -43q-20 0 -35.5 21t-11.5 41z" />
<glyph unicode="&#x151;" d="M197 436q31 188 174 320.5t313 132.5t270.5 -132t69.5 -321q-33 -188 -177.5 -318t-312 -130t-269 130t-68.5 318zM303 451q-27 -156 46 -266.5t200 -110.5q125 0 235.5 110.5t137.5 266.5q25 152 -51 252t-201 100q-123 0 -232.5 -100t-134.5 -252zM381 1087q0 8 25 33 l155 127q35 29 70 35q20 0 34.5 -16.5t10.5 -38.5q-4 -16 -64 -66l-114 -92q-49 -43 -69.5 -43t-36 20.5t-11.5 40.5zM793 1087q0 8 24 33l156 127q35 29 69 35q20 0 35 -16.5t10 -38.5q-4 -16 -63 -66l-115 -92q-49 -43 -69.5 -43t-35.5 20.5t-11 40.5z" />
<glyph unicode="&#x152;" d="M121 156q-10 131 47 471q61 356 113 483q37 94 109.5 129t213.5 35q57 0 113 -12q51 -10 102 -11h336q39 0 49 -13t4 -52l-26 -156q-12 -66 -49 -65q-41 0 -29 65l22 135h-297l-79 -473h278q18 0 28.5 -1t20.5 -12t8 -32q-8 -41 -71 -41h-279l-86 -520h314l28 168 q12 66 47 65q41 0 29 -65l-33 -188q-6 -39 -20.5 -52.5t-52.5 -13.5h-351q-51 0 -96 -8q-72 -14 -127 -15q-156 0 -209 41.5t-57 137.5zM203 225q6 -35 17 -72.5t38 -53t63.5 -26t92.5 -10.5q86 0 129 53.5t71 225.5l95 567q25 186 2 232.5t-113 46.5q-63 0 -107.5 -8.5 t-79 -39t-55 -62t-41 -104.5t-34 -139.5t-33.5 -191.5l-27.5 -175t-16.5 -135t-1 -108z" />
<glyph unicode="&#x153;" d="M117 438.5q33 192.5 136 321.5t224 129q139 0 211 -209q137 209 262 209q104 0 148.5 -109.5t11.5 -306.5q-8 -41 -22.5 -55.5t-53.5 -14.5h-352q-10 -145 39 -237t125 -92q88 0 145 141q6 33 41 33q16 0 25.5 -11.5t7.5 -29.5q-10 -53 -75.5 -136t-166.5 -83 q-147 0 -211 215q-150 -215 -284 -215q-121 0 -182.5 129t-28.5 321.5zM195 451q-27 -156 20 -266.5t127 -110.5q78 0 162 110.5t110 266.5q25 154 -23 253t-128 99t-161.5 -99t-106.5 -253zM698 489h336q20 172 -13.5 243t-84.5 71q-61 0 -132 -89.5t-106 -224.5z" />
<glyph unicode="&#x154;" d="M57 43q6 43 70 43h74l180 1079h-74q-16 0 -26.5 1t-21.5 11.5t-9 28.5q8 45 72 45h374q170 0 263.5 -99t70.5 -234q-33 -182 -246 -293q80 -70 101 -140q10 -43 -15 -190q-20 -94 -13 -163t54 -69q29 0 52.5 44.5t29.5 72.5q8 43 58 43q51 0 43 -47q-10 -68 -62.5 -133.5 t-132.5 -65.5q-96 0 -131 78q-14 35 -16 77t1 73t17 117q14 70 12 115.5t-32 80.5q-63 63 -177 64h-186l-82 -496h74q18 0 28.5 -1t20.5 -11.5t8 -30.5q-8 -43 -71 -43h-252q-16 0 -26.5 1t-22 11.5t-7.5 30.5zM403 670h175q145 0 239 76.5t111 171.5q16 92 -53.5 169.5 t-215.5 77.5h-174zM574 1419.5q-1 12.5 1 22.5q4 23 48 43l303 127l32 8q23 0 35.5 -15.5t7.5 -37.5q-4 -33 -55 -54l-317 -131l-15 -4q-18 0 -28.5 14.5t-11.5 27z" />
<glyph unicode="&#x155;" d="M80 45q6 41 70 41h192l117 698h-193q-18 0 -28.5 1t-20.5 11.5t-8 30.5q8 43 72 43h231q41 0 50 -13t3 -52l-22 -129q217 207 415 207q55 0 91 -11.5t50.5 -30t18.5 -34.5t2 -35q-6 -31 -28.5 -50.5t-51.5 -19.5q-31 0 -46 26t-7 69q-205 0 -336 -126t-159 -298l-48 -287 h256q18 0 28.5 -1t22 -11.5t9.5 -30.5q-8 -43 -74 -43h-551q-18 0 -28.5 1t-20.5 12.5t-6 31.5zM518 1098q4 25 47 41l303 127l33 8q23 0 36 -14.5t9 -36.5q-8 -35 -57 -56l-318 -131l-14 -2q-47 1 -39 64z" />
<glyph unicode="&#x156;" d="M57 43q6 43 70 43h74l180 1079h-74q-16 0 -26.5 1t-21.5 11.5t-9 28.5q8 45 72 45h374q170 0 263.5 -99t70.5 -234q-33 -182 -246 -293q80 -70 101 -140q10 -43 -15 -190q-20 -94 -13 -163t54 -69q29 0 52.5 44.5t29.5 72.5q8 43 58 43q51 0 43 -47q-10 -68 -62.5 -133.5 t-132.5 -65.5q-96 0 -131 78q-14 35 -16 77t1 73t17 117q14 70 12 115.5t-32 80.5q-63 63 -177 64h-186l-82 -496h74q18 0 28.5 -1t20.5 -11.5t8 -30.5q-8 -43 -71 -43h-252q-16 0 -26.5 1t-22 11.5t-7.5 30.5zM350 -459q0 16 21 21q156 49 178 182q-29 -12 -57 -12 q-33 0 -51.5 22.5t-12.5 57.5q4 31 29.5 53t62.5 22q45 0 70.5 -37.5t17.5 -99.5q-18 -104 -101 -171.5t-132 -67.5q-12 0 -20.5 10t-4.5 20zM403 670h175q145 0 239 76.5t111 171.5q16 92 -53.5 169.5t-215.5 77.5h-174z" />
<glyph unicode="&#x157;" d="M80 45q6 41 70 41h192l117 698h-193q-18 0 -28.5 1t-20.5 11.5t-8 30.5q8 43 72 43h231q41 0 50 -13t3 -52l-22 -129q217 207 415 207q55 0 91 -11.5t50.5 -30t18.5 -34.5t2 -35q-6 -31 -28.5 -50.5t-51.5 -19.5q-31 0 -46 26t-7 69q-205 0 -336 -126t-159 -298l-48 -287 h256q18 0 28.5 -1t22 -11.5t9.5 -30.5q-8 -43 -74 -43h-551q-18 0 -28.5 1t-20.5 12.5t-6 31.5zM197 -459q0 16 20 21q156 49 178 182q-29 -12 -57 -12q-33 0 -51.5 22.5t-12.5 57.5q4 31 30 53t63 22q45 0 70.5 -37.5t17.5 -99.5q-18 -104 -101.5 -171.5t-132.5 -67.5 q-12 0 -20 10t-4 20z" />
<glyph unicode="&#x158;" d="M57 43q6 43 70 43h74l180 1079h-74q-16 0 -26.5 1t-21.5 11.5t-9 28.5q8 45 72 45h374q170 0 263.5 -99t70.5 -234q-33 -182 -246 -293q80 -70 101 -140q10 -43 -15 -190q-20 -94 -13 -163t54 -69q29 0 52.5 44.5t29.5 72.5q8 43 58 43q51 0 43 -47q-10 -68 -62.5 -133.5 t-132.5 -65.5q-96 0 -131 78q-14 35 -16 77t1 73t17 117q14 70 12 115.5t-32 80.5q-63 63 -177 64h-186l-82 -496h74q18 0 28.5 -1t20.5 -11.5t8 -30.5q-8 -43 -71 -43h-252q-16 0 -26.5 1t-22 11.5t-7.5 30.5zM403 670h175q145 0 239 76.5t111 171.5q16 92 -53.5 169.5 t-215.5 77.5h-174zM492 1491q8 45 57 45q12 0 59 -14l172 -62l193 62q47 14 63 14q49 0 41 -45q-4 -27 -51 -45l-238 -82q-29 -8 -53 0l-205 82q-42 16 -38 45z" />
<glyph unicode="&#x159;" d="M80 45q6 41 70 41h192l117 698h-193q-18 0 -28.5 1t-20.5 11.5t-8 30.5q8 43 72 43h231q41 0 50 -13t3 -52l-22 -129q217 207 415 207q55 0 91 -11.5t50.5 -30t18.5 -34.5t2 -35q-6 -31 -28.5 -50.5t-51.5 -19.5q-31 0 -46 26t-7 69q-205 0 -336 -126t-159 -298l-48 -287 h256q18 0 28.5 -1t22 -11.5t9.5 -30.5q-8 -43 -74 -43h-551q-18 0 -28.5 1t-20.5 12.5t-6 31.5zM451 1227q8 45 57 45q10 0 55 -31l164 -111l201 111q55 31 67 31q49 0 41 -45q-2 -14 -53 -45l-233 -135q-39 -23 -70 0l-193 135q-38 27 -36 45z" />
<glyph unicode="&#x15a;" d="M121 43l45 279q4 20 8 31.5t18.5 22.5t38.5 11q23 0 33 -8t9 -20.5t-1 -24.5q-12 -137 76 -201q92 -70 248 -70q127 0 216 79t106 177q35 205 -209 261l-232 57q-115 35 -170 122t-37 189q23 131 145 228.5t283 97.5q174 0 289 -115q31 70 46.5 92.5t39.5 22.5 q41 0 31 -66l-45 -278q-4 -20 -8 -31.5t-18.5 -23t-39.5 -11.5q-41 0 -43 31q-2 49 -8 84t-28.5 90t-82 87t-149.5 32q-119 0 -208 -69.5t-105 -162.5q-12 -78 30.5 -137t116.5 -82l166 -39q129 -31 178 -52t98 -79q80 -102 58 -237q-25 -141 -148 -247t-288 -106 q-213 0 -344 111q-31 -70 -45.5 -90.5t-38.5 -20.5q-41 0 -31 66zM574 1419.5q-1 12.5 1 22.5q4 23 48 43l303 127l32 8q23 0 35.5 -15.5t7.5 -37.5q-4 -33 -55 -54l-317 -131l-15 -4q-18 0 -28.5 14.5t-11.5 27z" />
<glyph unicode="&#x15b;" d="M164 53l35 205q4 23 7 32t17.5 21.5t38.5 12.5q37 0 43 -25q20 -133 90 -179t170 -46q147 0 228 49t94 121q8 43 -14.5 75.5t-68.5 52t-87 31t-92 19.5q-59 8 -92 14t-85.5 19.5t-82 30t-58 40t-39 58t-2.5 78.5q6 33 25.5 65.5t62.5 72.5t128 64.5t202 24.5 q129 0 231 -53q14 31 24.5 42t35.5 11q41 0 31 -66l-25 -145q-8 -66 -63 -66q-39 0 -44 31q4 76 -35.5 118t-172.5 42q-150 0 -227 -43t-87 -98q-8 -43 32 -75t82 -45.5t87 -19.5l141 -24q33 -6 57.5 -11.5t75 -25t82 -44t53 -70.5t11.5 -103q-6 -41 -29.5 -81t-69 -82 t-130.5 -67.5t-195 -25.5q-160 0 -270 94q-47 -94 -82 -94q-43 -1 -33 65zM518 1098q4 25 47 41l303 127l33 8q23 0 36 -14.5t9 -36.5q-8 -35 -57 -56l-318 -131l-14 -2q-47 1 -39 64z" />
<glyph unicode="&#x15c;" d="M121 43l45 279q4 20 8 31.5t18.5 22.5t38.5 11q23 0 33 -8t9 -20.5t-1 -24.5q-12 -137 76 -201q92 -70 248 -70q127 0 216 79t106 177q35 205 -209 261l-232 57q-115 35 -170 122t-37 189q23 131 145 228.5t283 97.5q174 0 289 -115q31 70 46.5 92.5t39.5 22.5 q41 0 31 -66l-45 -278q-4 -20 -8 -31.5t-18.5 -23t-39.5 -11.5q-41 0 -43 31q-2 49 -8 84t-28.5 90t-82 87t-149.5 32q-119 0 -208 -69.5t-105 -162.5q-12 -78 30.5 -137t116.5 -82l166 -39q129 -31 178 -52t98 -79q80 -102 58 -237q-25 -141 -148 -247t-288 -106 q-213 0 -344 111q-31 -70 -45.5 -90.5t-38.5 -20.5q-41 0 -31 66zM477 1403q4 27 53 45l236 82q29 8 53 0l207 -82q41 -16 37 -45q-8 -45 -57 -45q-14 0 -58 14l-172 62l-192 -62q-53 -14 -66 -14q-49 0 -41 45z" />
<glyph unicode="&#x15d;" d="M164 53l35 205q4 23 7 32t17.5 21.5t38.5 12.5q37 0 43 -25q20 -133 90 -179t170 -46q147 0 228 49t94 121q8 43 -14.5 75.5t-68.5 52t-87 31t-92 19.5q-59 8 -92 14t-85.5 19.5t-82 30t-58 40t-39 58t-2.5 78.5q6 33 25.5 65.5t62.5 72.5t128 64.5t202 24.5 q129 0 231 -53q14 31 24.5 42t35.5 11q41 0 31 -66l-25 -145q-8 -66 -63 -66q-39 0 -44 31q4 76 -35.5 118t-172.5 42q-150 0 -227 -43t-87 -98q-8 -43 32 -75t82 -45.5t87 -19.5l141 -24q33 -6 57.5 -11.5t75 -25t82 -44t53 -70.5t11.5 -103q-6 -41 -29.5 -81t-69 -82 t-130.5 -67.5t-195 -25.5q-160 0 -270 94q-47 -94 -82 -94q-43 -1 -33 65zM426 1081q2 14 53 45l234 136q39 23 69 0l193 -136q39 -27 37 -45q-8 -45 -58 -45q-8 0 -55 31l-164 111l-200 -111q-55 -31 -68 -31q-49 0 -41 45z" />
<glyph unicode="&#x15e;" d="M121 43l45 279q4 20 8 31.5t18.5 22.5t38.5 11q23 0 33 -8t9 -20.5t-1 -24.5q-12 -137 76 -201q92 -70 248 -70q127 0 216 79t106 177q35 205 -209 261l-232 57q-115 35 -170 122t-37 189q23 131 145 228.5t283 97.5q174 0 289 -115q31 70 46.5 92.5t39.5 22.5 q41 0 31 -66l-45 -278q-4 -20 -8 -31.5t-18.5 -23t-39.5 -11.5q-41 0 -43 31q-2 49 -8 84t-28.5 90t-82 87t-149.5 32q-119 0 -208 -69.5t-105 -162.5q-12 -78 30.5 -137t116.5 -82l166 -39q129 -31 178 -52t98 -79q80 -102 58 -237q-20 -127 -127 -227.5t-264 -125.5 l-11 -59q104 -20 147.5 -72.5t33.5 -113.5q-8 -47 -34 -82t-72 -55.5t-88 -33t-108.5 -17.5t-104.5 -6t-103 -1q-45 0 -37 43q2 16 10 25.5t25.5 13.5t32 5t44.5 1q106 0 213 23.5t117 83.5q6 39 -30.5 70.5t-112.5 33.5q-31 2 -38 23.5t1 44.5l12 76q-180 18 -286 108 q-31 -70 -45.5 -90.5t-38.5 -20.5q-41 0 -31 66z" />
<glyph unicode="&#x15f;" d="M164 53l35 205q4 23 7 32t17.5 21.5t38.5 12.5q37 0 43 -25q20 -133 90 -179t170 -46q147 0 228 49t94 121q8 43 -14.5 75.5t-68.5 52t-87 31t-92 19.5q-59 8 -92 14t-85.5 19.5t-82 30t-58 40t-39 58t-2.5 78.5q6 33 25.5 65.5t62.5 72.5t128 64.5t202 24.5 q129 0 231 -53q14 31 24.5 42t35.5 11q41 0 31 -66l-25 -145q-8 -66 -63 -66q-39 0 -44 31q4 76 -35.5 118t-172.5 42q-150 0 -227 -43t-87 -98q-8 -43 32 -75t82 -45.5t87 -19.5l141 -24q33 -6 57.5 -11.5t75 -25t82 -44t53 -70.5t11.5 -103q-18 -111 -116.5 -176.5 t-229.5 -75.5l-9 -51q23 -2 52.5 -11.5t63.5 -30t53.5 -58.5t11.5 -87q-8 -47 -34 -81.5t-72 -55t-88 -33t-108.5 -17.5t-104.5 -6t-103 -1q-45 0 -37 45q2 20 19.5 30.5t35 11.5t58.5 1q106 0 212.5 23.5t116.5 82.5q6 39 -30.5 71t-112.5 36q-49 2 -37 67l10 60 q-147 12 -245 94q-47 -94 -82 -94q-43 -1 -33 65z" />
<glyph unicode="&#x160;" d="M121 43l45 279q4 20 8 31.5t18.5 22.5t38.5 11q23 0 33 -8t9 -20.5t-1 -24.5q-12 -137 76 -201q92 -70 248 -70q127 0 216 79t106 177q35 205 -209 261l-232 57q-115 35 -170 122t-37 189q23 131 145 228.5t283 97.5q174 0 289 -115q31 70 46.5 92.5t39.5 22.5 q41 0 31 -66l-45 -278q-4 -20 -8 -31.5t-18.5 -23t-39.5 -11.5q-41 0 -43 31q-2 49 -8 84t-28.5 90t-82 87t-149.5 32q-119 0 -208 -69.5t-105 -162.5q-12 -78 30.5 -137t116.5 -82l166 -39q129 -31 178 -52t98 -79q80 -102 58 -237q-25 -141 -148 -247t-288 -106 q-213 0 -344 111q-31 -70 -45.5 -90.5t-38.5 -20.5q-41 0 -31 66zM492 1491q8 45 57 45q12 0 59 -14l172 -62l193 62q47 14 63 14q49 0 41 -45q-4 -27 -51 -45l-238 -82q-29 -8 -53 0l-205 82q-42 16 -38 45z" />
<glyph unicode="&#x161;" d="M164 53l35 205q4 23 7 32t17.5 21.5t38.5 12.5q37 0 43 -25q20 -133 90 -179t170 -46q147 0 228 49t94 121q8 43 -14.5 75.5t-68.5 52t-87 31t-92 19.5q-59 8 -92 14t-85.5 19.5t-82 30t-58 40t-39 58t-2.5 78.5q6 33 25.5 65.5t62.5 72.5t128 64.5t202 24.5 q129 0 231 -53q14 31 24.5 42t35.5 11q41 0 31 -66l-25 -145q-8 -66 -63 -66q-39 0 -44 31q4 76 -35.5 118t-172.5 42q-150 0 -227 -43t-87 -98q-8 -43 32 -75t82 -45.5t87 -19.5l141 -24q33 -6 57.5 -11.5t75 -25t82 -44t53 -70.5t11.5 -103q-6 -41 -29.5 -81t-69 -82 t-130.5 -67.5t-195 -25.5q-160 0 -270 94q-47 -94 -82 -94q-43 -1 -33 65zM451 1227q8 45 57 45q10 0 55 -31l164 -111l201 111q55 31 67 31q49 0 41 -45q-2 -14 -53 -45l-233 -135q-39 -23 -70 0l-193 135q-38 27 -36 45z" />
<glyph unicode="&#x162;" d="M211 -401q2 20 18.5 30.5t35 11.5t59.5 1q104 0 211.5 23.5t117.5 82.5q6 39 -30.5 70.5t-112.5 36.5q-33 2 -40 22.5t1 44.5l10 58q0 8 4 20h-131q-18 0 -28.5 1t-20.5 12.5t-6 31.5q6 41 70 41h131l180 1079h-324l-22 -135q-4 -23 -7 -32t-17.5 -21t-39.5 -12 q-51 0 -41 65l27 156q6 39 21.5 52t54.5 13h829q39 0 49.5 -13t3.5 -52l-26 -156q-4 -23 -7 -32t-17.5 -21t-39.5 -12q-51 0 -41 65l23 135h-322l-180 -1079h131q18 0 28.5 -1t21 -11.5t8.5 -30.5q-8 -43 -72 -43h-133q-2 -8 -5 -30.5t-5 -32.5q104 -20 146 -72.5t32 -116.5 q-8 -47 -34 -82t-72 -55.5t-87 -32.5t-107.5 -17t-104.5 -6t-103 -1q-45 0 -37 45z" />
<glyph unicode="&#x163;" d="M193 825q8 45 73 45h207l33 195q8 66 61 65q51 0 41 -65l-33 -195h369q18 0 28.5 -1t21 -12t5.5 -32q-6 -41 -69 -41h-369l-88 -526q-2 -33 -6 -74t36 -75.5t124 -34.5q37 0 76.5 10t86 53t58.5 111q8 59 61 59q25 0 36 -9t10 -23.5t-3 -28.5q-18 -109 -102 -174.5 t-193 -79.5q0 -10 -8 -55q104 -20 146.5 -72.5t31.5 -116.5q-8 -47 -33.5 -82t-71.5 -55.5t-87 -32.5t-107.5 -17t-104.5 -6t-104 -1q-45 0 -36 45q2 20 18 30.5t34.5 11.5t59.5 1q104 0 212 23.5t118 82.5q6 39 -31 70.5t-112 36.5q-33 2 -40 22.5t1 44.5l10 58l2 10 q-100 12 -153.5 74.5t-32.5 181.5l90 538h-209q-16 0 -26.5 1t-21.5 11.5t-9 28.5z" />
<glyph unicode="&#x164;" d="M229 1030l27 156q6 39 21.5 52t54.5 13h829q39 0 49.5 -13t3.5 -52l-26 -156q-4 -23 -7 -32t-17.5 -21t-39.5 -12q-51 0 -41 65l23 135h-322l-180 -1079h131q18 0 28.5 -1t21 -11.5t8.5 -30.5q-8 -43 -72 -43h-367q-18 0 -28.5 1t-20.5 12.5t-6 31.5q6 41 70 41h131 l180 1079h-324l-22 -135q-4 -23 -7 -32t-17.5 -21t-39.5 -12q-51 -1 -41 65zM492 1491q8 45 57 45q12 0 59 -14l172 -62l193 62q47 14 63 14q49 0 41 -45q-4 -27 -51 -45l-238 -82q-29 -8 -53 0l-205 82q-42 16 -38 45z" />
<glyph unicode="&#x165;" d="M193 825q8 45 73 45h207l33 195q8 66 61 65q51 0 41 -65l-33 -195h369q18 0 28.5 -1t21 -12t5.5 -32q-6 -41 -69 -41h-369l-88 -526q-2 -33 -6 -74t36 -75.5t124 -34.5q37 0 76.5 10t86 53t58.5 111q8 59 61 59q25 0 36 -9t10 -23.5t-3 -28.5q-20 -123 -124.5 -190.5 t-225.5 -67.5q-119 0 -187.5 62.5t-45.5 195.5l90 538h-209q-16 0 -26.5 1t-21.5 11.5t-9 28.5zM676 991q4 16 20 21q156 49 178 182q-25 -12 -57.5 -12t-50.5 22.5t-12 57.5q4 31 29.5 53t62.5 22q47 0 72.5 -37.5t15.5 -99.5q-18 -104 -101 -171.5t-133 -67.5q-12 0 -19 9 t-5 21z" />
<glyph unicode="&#x168;" d="M213 1208q8 43 74 43h272q16 0 27.5 -1t23 -11t6.5 -31q-6 -43 -71 -43h-84l-125 -743q-27 -170 40.5 -264.5t170 -94.5t203 95.5t127.5 263.5l124 743h-83q-16 0 -27.5 1t-23 11.5t-9.5 30.5q8 43 74 43h272q18 0 28.5 -1t22 -11t7.5 -31q-6 -43 -72 -43h-84l-125 -753 q-33 -184 -164 -309.5t-284.5 -125.5t-243.5 126t-58 309l125 753h-84q-18 0 -28.5 1t-21.5 11.5t-9 30.5zM422 1403q4 25 113 100q102 66 163 66q45 0 90 -37l35 -38q14 -15 24.5 -24.5t20 -13.5t19.5 -4q55 0 178 98q23 18 41 19q16 0 27.5 -14.5t9.5 -32.5 q-4 -29 -113 -99q-96 -66 -164 -65q-49 0 -90 37q-33 37 -45 48t-26.5 20.5t-26.5 9.5q-59 0 -178 -99q-25 -16 -41.5 -16t-28.5 14.5t-8 30.5z" />
<glyph unicode="&#x169;" d="M166 825q8 45 74 45h153q41 0 50.5 -13t2.5 -52l-96 -572q-4 -41 -6 -75.5t39 -59t129 -24.5q37 0 76 8t89 30.5t87 74t49 124.5l80 473h-117q-16 0 -26.5 1t-21.5 11.5t-9 28.5q8 45 74 45h153q41 0 50.5 -13t2.5 -52l-120 -719h116q16 0 26.5 -1t22 -11.5t9.5 -28.5 q-8 -45 -74 -45h-154q-20 0 -30.5 3t-18.5 23.5t-2 61.5q-150 -100 -289 -100q-125 0 -192.5 52t-46.5 181l94 563h-117q-16 0 -26.5 1t-21.5 11.5t-9 28.5zM371 1094q4 25 112 100q102 66 164 66q45 0 90 -37l35 -38q14 -15 24.5 -24.5t19.5 -13.5t20 -4q55 0 178 98 q23 18 41 19q16 0 27.5 -14.5t9.5 -33.5q-4 -29 -113 -98q-102 -66 -164 -65q-49 0 -90 36l-35 38q-14 15 -24.5 24.5t-19.5 13.5t-19 4q-55 0 -178 -100q-25 -16 -41.5 -16t-27.5 14.5t-9 30.5z" />
<glyph unicode="&#x16a;" d="M213 1208q8 43 74 43h272q16 0 27.5 -1t23 -11t6.5 -31q-6 -43 -71 -43h-84l-125 -743q-27 -170 40.5 -264.5t170 -94.5t203 95.5t127.5 263.5l124 743h-83q-16 0 -27.5 1t-23 11.5t-9.5 30.5q8 43 74 43h272q18 0 28.5 -1t22 -11t7.5 -31q-6 -43 -72 -43h-84l-125 -753 q-33 -184 -164 -309.5t-284.5 -125.5t-243.5 126t-58 309l125 753h-84q-18 0 -28.5 1t-21.5 11.5t-9 30.5zM399 1444q8 45 72 45h631q18 0 28.5 -1t20.5 -12.5t6 -33.5q-6 -43 -70 -43h-628q-18 0 -29.5 1t-22 12.5t-8.5 31.5z" />
<glyph unicode="&#x16b;" d="M166 825q8 45 74 45h153q41 0 50.5 -13t2.5 -52l-96 -572q-4 -41 -6 -75.5t39 -59t129 -24.5q37 0 76 8t89 30.5t87 74t49 124.5l80 473h-117q-16 0 -26.5 1t-21.5 11.5t-9 28.5q8 45 74 45h153q41 0 50.5 -13t2.5 -52l-120 -719h116q16 0 26.5 -1t22 -11.5t9.5 -28.5 q-8 -45 -74 -45h-154q-20 0 -30.5 3t-18.5 23.5t-2 61.5q-150 -100 -289 -100q-125 0 -192.5 52t-46.5 181l94 563h-117q-16 0 -26.5 1t-21.5 11.5t-9 28.5zM352 1155q8 45 72 45h631q18 0 28.5 -1t20.5 -12t6 -34q-8 -43 -72 -43h-628q-18 0 -29.5 1t-22 12.5t-6.5 31.5z " />
<glyph unicode="&#x16c;" d="M213 1208q8 43 74 43h272q16 0 27.5 -1t23 -11t6.5 -31q-6 -43 -71 -43h-84l-125 -743q-27 -170 40.5 -264.5t170 -94.5t203 95.5t127.5 263.5l124 743h-83q-16 0 -27.5 1t-23 11.5t-9.5 30.5q8 43 74 43h272q18 0 28.5 -1t22 -11t7.5 -31q-6 -43 -72 -43h-84l-125 -753 q-33 -184 -164 -309.5t-284.5 -125.5t-243.5 126t-58 309l125 753h-84q-18 0 -28.5 1t-21.5 11.5t-9 30.5zM440 1530q10 45 54 45q29 0 32 -23q10 -82 258 -82q250 0 283 82q10 23 41 23q47 0 37 -45q-8 -53 -47 -87t-105.5 -46.5t-109.5 -15.5t-115 -3t-114 3t-104.5 15.5 t-90 46.5t-19.5 87z" />
<glyph unicode="&#x16d;" d="M166 825q8 45 74 45h153q41 0 50.5 -13t2.5 -52l-96 -572q-4 -41 -6 -75.5t39 -59t129 -24.5q37 0 76 8t89 30.5t87 74t49 124.5l80 473h-117q-16 0 -26.5 1t-21.5 11.5t-9 28.5q8 45 74 45h153q41 0 50.5 -13t2.5 -52l-120 -719h116q16 0 26.5 -1t22 -11.5t9.5 -28.5 q-8 -45 -74 -45h-154q-20 0 -30.5 3t-18.5 23.5t-2 61.5q-150 -100 -289 -100q-125 0 -192.5 52t-46.5 181l94 563h-117q-16 0 -26.5 1t-21.5 11.5t-9 28.5zM387 1208q10 45 53 45q29 0 33 -22q10 -82 258 -82q250 0 283 82q10 23 41 22q47 0 37 -45q-8 -53 -47 -87 t-106 -46t-110 -15t-114.5 -3t-113.5 3t-104.5 15t-90 46t-19.5 87z" />
<glyph unicode="&#x16e;" d="M213 1208q8 43 74 43h272q16 0 27.5 -1t23 -11t6.5 -31q-6 -43 -71 -43h-84l-125 -743q-27 -170 40.5 -264.5t170 -94.5t203 95.5t127.5 263.5l124 743h-83q-16 0 -27.5 1t-23 11.5t-9.5 30.5q8 43 74 43h272q18 0 28.5 -1t22 -11t7.5 -31q-6 -43 -72 -43h-84l-125 -753 q-33 -184 -164 -309.5t-284.5 -125.5t-243.5 126t-58 309l125 753h-84q-18 0 -28.5 1t-21.5 11.5t-9 30.5zM567 1421q10 61 77 105.5t157 44.5q88 0 141 -44t43 -106q-10 -59 -77.5 -102t-155.5 -43q-90 0 -142.5 43t-42.5 102zM670 1421q-6 -33 22.5 -51t71.5 -18t78 18.5 t41 50.5q4 35 -24 54.5t-71 19.5q-45 0 -79.5 -20.5t-38.5 -53.5z" />
<glyph unicode="&#x16f;" d="M166 825q8 45 74 45h153q41 0 50.5 -13t2.5 -52l-96 -572q-4 -41 -6 -75.5t39 -59t129 -24.5q37 0 76 8t89 30.5t87 74t49 124.5l80 473h-117q-16 0 -26.5 1t-21.5 11.5t-9 28.5q8 45 74 45h153q41 0 50.5 -13t2.5 -52l-120 -719h116q16 0 26.5 -1t22 -11.5t9.5 -28.5 q-8 -45 -74 -45h-154q-20 0 -30.5 3t-18.5 23.5t-2 61.5q-150 -100 -289 -100q-125 0 -192.5 52t-46.5 181l94 563h-117q-16 0 -26.5 1t-21.5 11.5t-9 28.5zM522 1153q10 61 77 105.5t157 44.5q88 0 141 -44.5t43 -105.5q-10 -59 -76.5 -102t-156.5 -43q-88 0 -141.5 43 t-43.5 102zM625 1153q-6 -33 22.5 -51.5t71.5 -18.5t77.5 18.5t41.5 51.5q6 35 -23 54.5t-72 19.5t-77.5 -19.5t-40.5 -54.5z" />
<glyph unicode="&#x170;" d="M213 1208q8 43 74 43h272q16 0 27.5 -1t23 -11t6.5 -31q-6 -43 -71 -43h-84l-125 -743q-27 -170 40.5 -264.5t170 -94.5t203 95.5t127.5 263.5l124 743h-83q-16 0 -27.5 1t-23 11.5t-9.5 30.5q8 43 74 43h272q18 0 28.5 -1t22 -11t7.5 -31q-6 -43 -72 -43h-84l-125 -753 q-33 -184 -164 -309.5t-284.5 -125.5t-243.5 126t-58 309l125 753h-84q-18 0 -28.5 1t-21.5 11.5t-9 30.5zM438 1440q2 14 27 33l153 126q39 29 72 35q20 0 33.5 -16t9.5 -39q-2 -18 -63 -66l-113 -92q-55 -43 -72 -43q-20 0 -35.5 21t-11.5 41zM850 1440q2 14 27 33 l153 126q39 29 72 35q20 0 33.5 -16t9.5 -39q-2 -18 -64 -66l-112 -92q-55 -43 -72 -43q-20 0 -35.5 21t-11.5 41z" />
<glyph unicode="&#x171;" d="M166 825q8 45 74 45h153q41 0 50.5 -13t2.5 -52l-96 -572q-4 -41 -6 -75.5t39 -59t129 -24.5q37 0 76 8t89 30.5t87 74t49 124.5l80 473h-117q-16 0 -26.5 1t-21.5 11.5t-9 28.5q8 45 74 45h153q41 0 50.5 -13t2.5 -52l-120 -719h116q16 0 26.5 -1t22 -11.5t9.5 -28.5 q-8 -45 -74 -45h-154q-20 0 -30.5 3t-18.5 23.5t-2 61.5q-150 -100 -289 -100q-125 0 -192.5 52t-46.5 181l94 563h-117q-16 0 -26.5 1t-21.5 11.5t-9 28.5zM381 1087q0 8 25 33l155 127q35 29 70 35q20 0 34.5 -16.5t10.5 -38.5q-4 -16 -64 -66l-114 -92q-49 -43 -69.5 -43 t-36 20.5t-11.5 40.5zM793 1087q0 8 24 33l156 127q35 29 69 35q20 0 35 -16.5t10 -38.5q-4 -16 -63 -66l-115 -92q-49 -43 -69.5 -43t-35.5 20.5t-11 40.5z" />
<glyph unicode="&#x172;" d="M213 1208q8 43 74 43h272q16 0 27.5 -1t23 -11t6.5 -31q-6 -43 -71 -43h-84l-125 -743q-27 -170 40.5 -264.5t170 -94.5t203 95.5t127.5 263.5l124 743h-83q-16 0 -27.5 1t-23 11.5t-9.5 30.5q8 43 74 43h272q18 0 28.5 -1t22 -11t7.5 -31q-6 -43 -72 -43h-84l-125 -753 q-27 -162 -126 -272.5t-237 -143.5q-70 -43 -121 -111.5t-63 -138.5q-6 -45 27 -74.5t71 -29.5q68 0 146 86q6 6 22.5 9t26.5 -3q8 -8 7 -22.5t-9 -24.5q-102 -117 -213 -117q-86 0 -128 56.5t-30 123.5q16 121 160 232q-162 27 -236.5 142.5t-46.5 287.5l125 753h-84 q-18 0 -28.5 1t-21.5 11.5t-9 30.5z" />
<glyph unicode="&#x173;" d="M166 825q8 45 74 45h153q41 0 50.5 -13t2.5 -52l-96 -572q-4 -41 -6 -75.5t39 -59t129 -24.5q37 0 76 8t89 30.5t87 74t49 124.5l80 473h-117q-16 0 -26.5 1t-21.5 11.5t-9 28.5q8 45 74 45h153q41 0 50.5 -13t2.5 -52l-120 -719h116q16 0 26.5 -1t22 -11.5t9.5 -28.5 q-8 -45 -74 -45h-21q-82 -43 -144 -110.5t-75 -143.5q-6 -45 27 -74.5t72 -29.5q33 0 74.5 26.5t68.5 59.5q33 25 51 6q20 -20 -2 -47q-102 -117 -213 -117q-84 0 -127 56.5t-31 123.5q18 125 201 250q-68 0 -81 13.5t-5 74.5q-150 -100 -289 -100q-125 0 -192.5 52 t-46.5 181l94 563h-117q-16 0 -26.5 1t-21.5 11.5t-9 28.5z" />
<glyph unicode="&#x174;" d="M227 1206q8 45 74 45h168q18 0 28.5 -1t20.5 -12t6 -32q-6 -41 -69 -41h-70l-45 -1095h8l238 632q14 33 73 33q61 0 64 -35l25 -630h8l321 1095h-69q-16 0 -26.5 1t-22 11.5t-9.5 28.5q8 45 72 45h168q16 0 27.5 -1t22.5 -12t7 -32q-6 -41 -84 -41l-342 -1126 q-16 -55 -84 -55q-59 0 -61 36l-31 619l-244 -627q-20 -29 -69 -28q-68 0 -68 55l35 1126h-20q-58 0 -52 41zM477 1403q4 27 53 45l236 82q29 8 53 0l207 -82q41 -16 37 -45q-8 -45 -57 -45q-14 0 -58 14l-172 62l-192 -62q-53 -14 -66 -14q-49 0 -41 45z" />
<glyph unicode="&#x175;" d="M174 827q8 43 76 43h244q20 0 31.5 -1t21.5 -12t6 -32q-6 -41 -74 -41h-121l4 -706h13l178 393q16 35 72 35q66 0 65 -37l35 -391h12l240 706h-121q-20 0 -31.5 1t-21.5 11.5t-8 30.5q8 43 75 43h244q18 0 29.5 -1t23 -11t7.5 -31q-2 -20 -16.5 -29.5t-32 -11.5t-58.5 -2 l-252 -729q-10 -33 -27.5 -48t-60.5 -15q-55 0 -72 24l-37 404h-12l-160 -371q-14 -35 -35.5 -46t-62.5 -11q-47 0 -59.5 14t-9.5 49l-11 729q-31 0 -45 1t-28.5 4.5t-18.5 12.5t-2 25zM426 1081q2 14 53 45l234 136q39 23 69 0l193 -136q39 -27 37 -45q-8 -45 -58 -45 q-8 0 -55 31l-164 111l-200 -111q-55 -31 -68 -31q-49 0 -41 45z" />
<glyph unicode="&#x176;" d="M244 1208q8 43 71 43h222q16 0 26 -1t21.5 -11t7.5 -31q-2 -20 -18.5 -29.5t-35 -11.5t-63.5 -2l162 -573l348 573q-33 0 -47 1t-30.5 4.5t-21.5 12.5t-3 25q8 43 71 43h222q18 0 28 -1t20.5 -12t6.5 -32q-6 -41 -70 -41h-57l-430 -665l-70 -414h74q18 0 28.5 -1 t20.5 -11.5t8 -30.5q-8 -43 -71 -43h-252q-18 0 -28.5 1t-21 12.5t-6.5 31.5q6 41 70 41h74l69 414l-211 665h-57q-18 0 -28.5 1t-20.5 11.5t-8 30.5zM477 1403q4 27 53 45l236 82q29 8 53 0l207 -82q41 -16 37 -45q-8 -45 -57 -45q-14 0 -58 14l-172 62l-192 -62 q-53 -14 -66 -14q-49 0 -41 45z" />
<glyph unicode="&#x177;" d="M39 -330q4 31 27.5 51.5t56.5 20.5q31 0 47 -19.5t10 -50.5l-18 -41l6 -12q6 -14 14 -14q55 0 97.5 23.5t101.5 109.5q23 33 74 135l51 100l-182 811h-72q-16 0 -26.5 1t-21.5 11.5t-9 28.5q8 45 71 45h248q18 0 28.5 -1t20.5 -12t6 -32q-6 -41 -69 -41h-84l151 -712 l355 712h-82q-18 0 -28.5 1t-21 11.5t-8.5 30.5q8 43 72 43h248q18 0 28.5 -1t20.5 -12t6 -32q-6 -41 -70 -41h-77l-496 -979q-14 -29 -34.5 -58.5t-69 -91t-113 -100t-130 -38.5t-102 46t-26.5 107zM426 1081q2 14 53 45l234 136q39 23 69 0l193 -136q39 -27 37 -45 q-8 -45 -58 -45q-8 0 -55 31l-164 111l-200 -111q-55 -31 -68 -31q-49 0 -41 45z" />
<glyph unicode="&#x178;" d="M244 1208q8 43 71 43h222q16 0 26 -1t21.5 -11t7.5 -31q-2 -20 -18.5 -29.5t-35 -11.5t-63.5 -2l162 -573l348 573q-33 0 -47 1t-30.5 4.5t-21.5 12.5t-3 25q8 43 71 43h222q18 0 28 -1t20.5 -12t6.5 -32q-6 -41 -70 -41h-57l-430 -665l-70 -414h74q18 0 28.5 -1 t20.5 -11.5t8 -30.5q-8 -43 -71 -43h-252q-18 0 -28.5 1t-21 12.5t-6.5 31.5q6 41 70 41h74l69 414l-211 665h-57q-18 0 -28.5 1t-20.5 11.5t-8 30.5zM496 1432q6 33 30.5 53t55 20t49 -21.5t12.5 -51.5q-4 -31 -29.5 -52.5t-56.5 -21.5t-48 21.5t-13 52.5zM907 1432 q6 33 31 53t55.5 20t49 -21.5t12.5 -51.5q-4 -31 -30 -52.5t-56.5 -21.5t-48 21.5t-13.5 52.5z" />
<glyph unicode="&#x179;" d="M113 51q8 31 28 53l895 1061h-608l-22 -135q-4 -23 -7.5 -32t-17.5 -21t-39 -12q-51 0 -41 65l27 156q6 39 21.5 52t56.5 13h706q20 0 30.5 -2t21 -13t5.5 -36q-8 -31 -28 -53l-895 -1061h643l29 174q4 20 8 31.5t18 23t39 11.5q35 0 41 -21.5t-2 -44.5l-33 -194 q-6 -39 -20.5 -52.5t-53.5 -13.5h-745q-20 0 -30.5 2t-20.5 13t-6 36zM574 1419.5q-1 12.5 1 22.5q4 23 48 43l303 127l32 8q23 0 35.5 -15.5t7.5 -37.5q-4 -33 -55 -54l-317 -131l-15 -4q-18 0 -28.5 14.5t-11.5 27z" />
<glyph unicode="&#x17a;" d="M82 51q4 23 12 34t39 36l809 663h-600l-12 -77q-4 -20 -8.5 -31.5t-18.5 -23t-39 -11.5q-53 0 -39 66l17 98q6 39 20 52t55 13h721q20 0 30.5 -2t21 -13t6.5 -36q-6 -33 -54 -69l-809 -664h644l16 102q4 20 8 31.5t18.5 23t38.5 11.5q53 0 39 -66l-20 -122 q-4 -53 -39 -66h-799q-20 0 -31.5 2t-20.5 13t-5 36zM518 1098q4 25 47 41l303 127l33 8q23 0 36 -14.5t9 -36.5q-8 -35 -57 -56l-318 -131l-14 -2q-47 1 -39 64z" />
<glyph unicode="&#x17b;" d="M113 51q8 31 28 53l895 1061h-608l-22 -135q-4 -23 -7.5 -32t-17.5 -21t-39 -12q-51 0 -41 65l27 156q6 39 21.5 52t56.5 13h706q20 0 30.5 -2t21 -13t5.5 -36q-8 -31 -28 -53l-895 -1061h643l29 174q4 20 8 31.5t18 23t39 11.5q35 0 41 -21.5t-2 -44.5l-33 -194 q-6 -39 -20.5 -52.5t-53.5 -13.5h-745q-20 0 -30.5 2t-20.5 13t-6 36zM698.5 1464.5q6.5 34.5 35 60t63 25.5t55 -25.5t14.5 -60t-34.5 -59.5t-63.5 -25t-55.5 25t-14 59.5z" />
<glyph unicode="&#x17c;" d="M82 51q4 23 12 34t39 36l809 663h-600l-12 -77q-4 -20 -8.5 -31.5t-18.5 -23t-39 -11.5q-53 0 -39 66l17 98q6 39 20 52t55 13h721q20 0 30.5 -2t21 -13t6.5 -36q-6 -33 -54 -69l-809 -664h644l16 102q4 20 8 31.5t18.5 23t38.5 11.5q53 0 39 -66l-20 -122 q-4 -53 -39 -66h-799q-20 0 -31.5 2t-20.5 13t-5 36zM647 1153q6 37 35 61.5t63.5 24.5t55 -24.5t14.5 -61.5q-6 -35 -34.5 -59.5t-63.5 -24.5t-55.5 24.5t-14.5 59.5z" />
<glyph unicode="&#x17d;" d="M113 51q8 31 28 53l895 1061h-608l-22 -135q-4 -23 -7.5 -32t-17.5 -21t-39 -12q-51 0 -41 65l27 156q6 39 21.5 52t56.5 13h706q20 0 30.5 -2t21 -13t5.5 -36q-8 -31 -28 -53l-895 -1061h643l29 174q4 20 8 31.5t18 23t39 11.5q35 0 41 -21.5t-2 -44.5l-33 -194 q-6 -39 -20.5 -52.5t-53.5 -13.5h-745q-20 0 -30.5 2t-20.5 13t-6 36zM492 1491q8 45 57 45q12 0 59 -14l172 -62l193 62q47 14 63 14q49 0 41 -45q-4 -27 -51 -45l-238 -82q-29 -8 -53 0l-205 82q-42 16 -38 45z" />
<glyph unicode="&#x17e;" d="M82 51q4 23 12 34t39 36l809 663h-600l-12 -77q-4 -20 -8.5 -31.5t-18.5 -23t-39 -11.5q-53 0 -39 66l17 98q6 39 20 52t55 13h721q20 0 30.5 -2t21 -13t6.5 -36q-6 -33 -54 -69l-809 -664h644l16 102q4 20 8 31.5t18.5 23t38.5 11.5q53 0 39 -66l-20 -122 q-4 -53 -39 -66h-799q-20 0 -31.5 2t-20.5 13t-5 36zM451 1227q8 45 57 45q10 0 55 -31l164 -111l201 111q55 31 67 31q49 0 41 -45q-2 -14 -53 -45l-233 -135q-39 -23 -70 0l-193 135q-38 27 -36 45z" />
<glyph unicode="&#x17f;" d="M100 45q6 41 72 41h236l116 698h-235q-16 0 -26.5 1t-22 11.5t-9.5 28.5q8 45 74 45h234l22 134q20 123 123.5 191.5t230.5 68.5q23 0 42.5 -2t55.5 -10.5t54 -32t12 -60.5q-4 -33 -30.5 -53.5t-53.5 -20.5q-47 0 -56 35t1 58q-49 0 -81 -4.5t-79 -19.5t-77.5 -56 t-40.5 -107l-152 -905h235q16 0 27.5 -1t23 -11.5t9.5 -30.5q-8 -43 -74 -43h-573q-16 0 -27.5 1t-23 12.5t-7.5 31.5z" />
<glyph unicode="&#x18e;" d="M68 66l32 188q8 66 62 65q25 0 36 -10t10 -24.5t-3 -30.5l-29 -168h608l86 520h-321q-8 -55 -13.5 -74.5t-18.5 -33t-38 -13.5q-53 0 -41 66l33 197q2 20 6 31.5t17.5 22.5t37.5 11q37 0 41.5 -26.5t-10.5 -94.5h322l80 473h-562l-22 -135q-2 -20 -6 -31.5t-17.5 -22.5 t-38.5 -11q-35 0 -43 21.5t0 43.5l27 156q6 39 20.5 52t53.5 13h790q16 0 27.5 -1t23 -11t7.5 -31q-6 -43 -72 -43h-86l-180 -1079h86q18 0 28.5 -1t21.5 -11.5t9 -30.5q-8 -43 -74 -43h-837q-39 0 -49 13.5t-4 52.5z" />
<glyph unicode="&#x192;" d="M100 45q6 41 72 41h236l116 698h-235q-16 0 -26.5 1t-22 11.5t-9.5 28.5q8 45 74 45h234l22 134q20 123 123.5 191.5t230.5 68.5q23 0 42.5 -2t55.5 -10.5t54 -32t12 -60.5q-4 -33 -30.5 -53.5t-53.5 -20.5q-37 0 -48 31t-7 62q-49 0 -81 -4.5t-79 -19.5t-77.5 -56 t-40.5 -107l-21 -121h281q18 0 28.5 -1t20.5 -12t6 -32q-6 -41 -70 -41h-280l-117 -698h235q16 0 27.5 -1t23 -11.5t9.5 -30.5q-8 -43 -74 -43h-573q-16 0 -27.5 1t-23 12.5t-7.5 31.5z" />
<glyph unicode="&#x1a0;" d="M177 170q-5 59 5.5 153.5t17.5 143.5t25 158q72 446 160 553q37 45 104.5 67.5t117.5 25.5t141 3q221 0 294 -49q43 6 93 65q-76 29 -66 88q6 33 33.5 57.5t64.5 26.5q84 -2 66 -123q-20 -127 -143 -190q29 -135 -35 -524q-72 -444 -160 -551q-37 -45 -105.5 -67.5 t-118.5 -26t-140.5 -3.5t-139.5 3.5t-109.5 26t-80.5 67.5q-19 37 -24 96zM303 166q33 -102 242 -103q211 0 280 103q66 98 127 485q61 350 27 443q-23 59 -85.5 76.5t-160.5 17.5q-209 0 -276 -94q-59 -80 -123 -443q-64 -395 -31 -485z" />
<glyph unicode="&#x1a1;" d="M195 434q33 193 176 320q139 133 311 133q104 0 192 -60q61 6 86 24.5t39 57.5q-74 27 -63 86q6 33 33.5 57.5t64.5 26.5q82 0 64 -121q-23 -133 -152 -196q106 -150 74 -328q-29 -186 -174 -315q-141 -131 -313.5 -131t-266.5 131q-100 129 -71 315zM303 453 q-27 -156 45 -265q70 -113 199 -112q131 0 237 112q109 109 136 265q23 143 -50 245q-76 102 -202 103q-125 0 -233.5 -102.5t-131.5 -245.5z" />
<glyph unicode="&#x1af;" d="M213 1206q8 45 45 45h326q39 0 30 -45q-8 -41 -45 -41h-108l-125 -753q-25 -147 37 -250q66 -98 172 -99q109 0 207 99q96 100 122 250l125 753h-108q-33 0 -33 41q8 45 47 45h176q57 0 111 35q-66 39 -59 92q6 33 33.5 57.5t64.5 26.5q47 -2 60.5 -37.5t4.5 -83.5 q-10 -66 -63 -115.5t-127 -60.5l-125 -753q-33 -180 -160 -308q-137 -127 -291 -127q-156 0 -245 127q-86 133 -56 308l125 753h-110q-31 0 -31 41z" />
<glyph unicode="&#x1b0;" d="M164 821q8 47 45 47h209q35 0 31 -39l-105 -618q-12 -72 27 -100q41 -35 149 -35q104 0 188.5 62.5t100.5 150.5l82 491h-141q-14 0 -23.5 12.5t-7.5 28.5q8 47 45 47h209q63 0 119 37q-66 25 -58 90q6 33 35 58.5t66 25.5q82 0 63 -118q-10 -70 -66.5 -119t-136.5 -62 l-116 -694h139q41 0 33 -45q-8 -41 -47 -41h-205q-37 0 -33 39l10 57q-41 -33 -127 -70.5t-155 -37.5q-141 0 -205 53q-66 55 -47 170l96 569h-143q-14 0 -23.5 12.5t-7.5 28.5z" />
<glyph unicode="&#x1dd;" d="M188 416q4 27 16.5 40t24 15t33.5 2h656q-4 156 -97.5 243t-226.5 87q-176 0 -270 -152q-14 -23 -50 -22q-47 0 -45 39q10 59 117 140t277 81q197 0 310.5 -132t82.5 -318.5t-180.5 -318.5t-329.5 -132q-188 0 -268.5 123t-49.5 305zM289 387q-25 -313 231 -313 q119 0 224.5 86t156.5 227h-612z" />
<glyph unicode="&#x1e6;" d="M188 627q45 274 209 460.5t351 186.5q129 0 237 -109q41 70 57.5 89.5t38.5 19.5q41 0 31 -66l-47 -293q-4 -23 -8 -33t-18.5 -21t-39.5 -11q-43 0 -43 33q0 90 -21.5 154.5t-56 95t-68.5 43t-69 12.5q-137 0 -274 -161t-176 -402q-41 -238 40 -400t220 -162 q100 0 188 92.5t140 286.5h-113q-16 0 -26.5 1t-21.5 12.5t-7 31.5q6 41 69 41h254q16 0 27.5 -1t23 -11t9.5 -29q-2 -16 -10.5 -25t-26 -13.5t-30.5 -5.5t-42 -1l-63 -376q-2 -20 -6.5 -31.5t-17.5 -23t-38 -11.5q-37 0 -42 27.5t9 97.5q-152 -147 -297 -148 q-186 0 -286.5 187t-55.5 463zM492 1491q8 45 57 45q12 0 59 -14l172 -62l193 62q47 14 63 14q49 0 41 -45q-4 -27 -51 -45l-238 -82q-29 -8 -53 0l-205 82q-42 16 -38 45z" />
<glyph unicode="&#x1e7;" d="M31 -195q31 158 211 256q-47 82 -33 160q14 76 72 144q-57 94 -39 200q23 129 133 223.5t248 94.5q109 0 194 -68q121 78 238 78q66 0 94.5 -28.5t21.5 -63.5q-6 -33 -28.5 -49.5t-44.5 -16.5q-18 0 -34.5 16.5t-19.5 57.5q-90 -8 -178 -51q45 -106 31 -193 q-23 -133 -133.5 -226t-247.5 -93q-98 0 -190 63q-31 -55 -39 -92v-33q2 -33 16 -55q16 -27 30.5 -33t45.5 -6q37 -4 63 -4h150q197 0 287 -57q63 -37 85.5 -99.5t12.5 -124.5q-20 -127 -173 -208.5t-349 -81.5q-199 0 -321.5 81.5t-102.5 208.5zM113 -195q-12 -78 90 -141 t266 -63t289 63.5t137 140.5q12 68 -19.5 112t-103.5 62.5t-134.5 23.5t-156.5 5q-123 0 -160.5 -5t-82.5 -32q-105 -60 -125 -166zM344 563q-16 -94 38 -163.5t148 -69.5q92 0 170 68.5t95 166.5q16 94 -38.5 164t-148.5 70q-92 0 -170 -69t-94 -167zM377 1227q8 45 57 45 q10 0 55 -31l164 -111l201 111q55 31 68 31q49 0 41 -45q-2 -14 -54 -45l-233 -135q-39 -23 -70 0l-192 135q-39 27 -37 45z" />
<glyph unicode="&#x1ea;" d="M177 179q-3 40 2 114t17 145l29 187q27 160 46.5 254t50 176t60.5 117.5t87 62.5t117.5 33t163.5 6q76 0 126 -3t94 -16.5t68.5 -30t42 -54t21.5 -79.5t1 -116t-14.5 -153t-31.5 -197q-25 -152 -45.5 -245t-48 -171t-56 -118t-77 -67.5t-101.5 -35.5t-137 -11 q-152 -106 -174 -231q-6 -45 26.5 -74.5t71.5 -29.5q33 0 75 26.5t68 59.5q8 6 24.5 8t27.5 -2q16 -27 -2 -47q-102 -117 -215 -117q-84 0 -127 56.5t-31 123.5q16 106 170 225q-72 2 -121 8.5t-89 23t-63.5 34.5t-38 58t-17.5 80zM291 229q4 -90 57 -128t199 -38 q150 0 215 40t102 141q49 129 90 399q49 289 39 393q-8 92 -65.5 122t-192.5 30q-145 0 -211.5 -34t-103.5 -132q-41 -100 -88 -379q-49 -310 -41 -414z" />
<glyph unicode="&#x1eb;" d="M197 436q31 188 174 320.5t313 132.5t270.5 -132t69.5 -321q-29 -174 -155 -298t-263 -142q-76 -41 -131 -109.5t-67 -140.5q-8 -45 24.5 -74.5t71.5 -29.5q35 0 77 26.5t68 59.5q29 23 49 6q8 -8 8.5 -22.5t-10.5 -24.5q-102 -117 -213 -117q-84 0 -127 56.5t-30 123.5 q18 123 182 240q-172 31 -256 151.5t-55 294.5zM303 451q-27 -156 46 -266.5t200 -110.5q125 0 235.5 110.5t137.5 266.5q25 152 -51 252t-201 100q-123 0 -232.5 -100t-134.5 -252z" />
<glyph unicode="&#x1f4;" d="M188 627q45 274 209 460.5t351 186.5q129 0 237 -109q41 70 57.5 89.5t38.5 19.5q41 0 31 -66l-47 -293q-4 -23 -8 -33t-18.5 -21t-39.5 -11q-43 0 -43 33q0 90 -21.5 154.5t-56 95t-68.5 43t-69 12.5q-137 0 -274 -161t-176 -402q-41 -238 40 -400t220 -162 q100 0 188 92.5t140 286.5h-113q-16 0 -26.5 1t-21.5 12.5t-7 31.5q6 41 69 41h254q16 0 27.5 -1t23 -11t9.5 -29q-2 -16 -10.5 -25t-26 -13.5t-30.5 -5.5t-42 -1l-63 -376q-2 -20 -6.5 -31.5t-17.5 -23t-38 -11.5q-37 0 -42 27.5t9 97.5q-152 -147 -297 -148 q-186 0 -286.5 187t-55.5 463zM574 1419.5q-1 12.5 1 22.5q4 23 48 43l303 127l32 8q23 0 35.5 -15.5t7.5 -37.5q-4 -33 -55 -54l-317 -131l-15 -4q-18 0 -28.5 14.5t-11.5 27z" />
<glyph unicode="&#x1f5;" d="M31 -195q31 158 211 256q-47 82 -33 160q14 76 72 144q-57 94 -39 200q23 129 133 223.5t248 94.5q109 0 194 -68q121 78 238 78q66 0 94.5 -28.5t21.5 -63.5q-6 -33 -28.5 -49.5t-44.5 -16.5q-18 0 -34.5 16.5t-19.5 57.5q-90 -8 -178 -51q45 -106 31 -193 q-23 -133 -133.5 -226t-247.5 -93q-98 0 -190 63q-31 -55 -39 -92v-33q2 -33 16 -55q16 -27 30.5 -33t45.5 -6q37 -4 63 -4h150q197 0 287 -57q63 -37 85.5 -99.5t12.5 -124.5q-20 -127 -173 -208.5t-349 -81.5q-199 0 -321.5 81.5t-102.5 208.5zM113 -195q-12 -78 90 -141 t266 -63t289 63.5t137 140.5q12 68 -19.5 112t-103.5 62.5t-134.5 23.5t-156.5 5q-123 0 -160.5 -5t-82.5 -32q-105 -60 -125 -166zM344 563q-16 -94 38 -163.5t148 -69.5q92 0 170 68.5t95 166.5q16 94 -38.5 164t-148.5 70q-92 0 -170 -69t-94 -167zM444 1098q4 25 48 41 l303 127l32 8q23 0 36.5 -14.5t8.5 -36.5q-8 -35 -57 -56l-317 -131l-15 -2q-47 1 -39 64z" />
<glyph unicode="&#x1fa;" d="M68 43q4 29 30 41q12 2 99 2l448 1126q12 31 29.5 45.5t31 16.5t44.5 2q33 0 46 -2t24 -17.5t14 -46.5l71 -1124q84 0 96 -2q25 -10 21 -41q-8 -43 -80 -43h-215q-20 0 -31.5 1t-21.5 11.5t-6 30.5q4 31 29.5 37t99.5 6l-13 264h-376l-103 -264q74 0 97.5 -6t19.5 -37 q-8 -43 -76 -43h-217q-18 0 -29.5 1t-23.5 11.5t-8 30.5zM444 436h332l-33 754h-14zM567 1421q10 61 77 105.5t157 44.5q88 0 141 -44t43 -106q-10 -59 -77.5 -102t-155.5 -43q-90 0 -142.5 43t-42.5 102zM613 1652.5q-1 12.5 1 22.5q4 23 48 43l303 127l32 8q23 0 35 -15 t8 -38q-4 -33 -55 -53l-317 -131l-15 -4q-18 0 -28.5 14t-11.5 26.5zM670 1421q-6 -33 22.5 -51t71.5 -18t78 18.5t41 50.5q4 35 -24 54.5t-71 19.5q-45 0 -79.5 -20.5t-38.5 -53.5z" />
<glyph unicode="&#x1fb;" d="M160 250q25 141 207 216t477 79q43 258 -248 258q-139 0 -147 -47q-8 -41 -35 -58.5t-54 -17.5q-31 0 -48 20.5t-11 55.5q20 133 307 133q199 0 283 -92t63 -215l-77 -471q61 -25 143 -25q18 0 28.5 -1t21.5 -11.5t9 -28.5q-4 -20 -19.5 -31.5t-30.5 -12.5t-44 -1 q-51 0 -81 2t-70.5 20.5t-59.5 53.5q-150 -88 -328 -88q-147 0 -225.5 78t-60.5 184zM264 250q-10 -72 47.5 -124t163.5 -52q117 0 203 39q47 20 73.5 46.5t33 46t12.5 56.5l34 201q-250 -8 -401.5 -68.5t-165.5 -144.5zM522 1153q10 61 77 105.5t157 44.5q88 0 141 -44.5 t43 -105.5q-10 -59 -76.5 -102t-156.5 -43q-88 0 -141.5 43t-43.5 102zM571 1407q4 25 45 43l304 127l32 8q23 0 36 -15.5t9 -37.5q-8 -35 -57 -53l-315 -131l-17 -5q-27 0 -34 23t-3 41zM625 1153q-6 -33 22.5 -51.5t71.5 -18.5t77.5 18.5t41.5 51.5q6 35 -23 54.5 t-72 19.5t-77.5 -19.5t-40.5 -54.5z" />
<glyph unicode="&#x1fc;" d="M59 43q2 20 18.5 30.5t33 11.5t53.5 1l399 1079q-33 0 -47 1t-26.5 11.5t-10.5 30.5q8 43 72 43h594q41 0 50 -13t3 -52l-27 -156q-12 -66 -47 -65q-41 0 -28 65l22 135h-284l-80 -473h264q18 0 28.5 -1t20.5 -12t8 -32q-8 -41 -71 -41h-265l-86 -520h301l29 168 q12 66 49 65q41 0 29 -65l-33 -188q-6 -39 -20.5 -52.5t-53.5 -13.5h-411q-18 0 -28.5 1t-22 12.5t-7.5 31.5q6 41 90 41l52 301h-273l-112 -301q39 0 55 -1t29.5 -11.5t11.5 -30.5q-8 -43 -72 -43h-151q-16 0 -26.5 1t-22 11.5t-7.5 30.5zM385 475h256l115 690h-117z M574 1419.5q-1 12.5 1 22.5q4 23 48 43l303 127l32 8q23 0 35.5 -15.5t7.5 -37.5q-4 -33 -55 -54l-317 -131l-15 -4q-18 0 -28.5 14.5t-11.5 27z" />
<glyph unicode="&#x1fd;" d="M113 229q18 121 146 186.5t319 67.5l16 90q18 111 -24 170.5t-130 59.5q-27 0 -52.5 -10.5t-27.5 -20.5v-8q0 -6 -2 -10q-16 -74 -84 -74q-31 0 -48 20.5t-11 55.5q8 55 67.5 94t178.5 39q147 0 215 -174q129 174 256 174q111 0 159 -110.5t17 -305.5q-8 -41 -21.5 -55.5 t-54.5 -14.5h-387q-12 -154 44 -241.5t138 -87.5q98 0 158 137q2 6 15.5 21.5t30 15.5t26.5 -11.5t6 -27.5q-8 -53 -81 -137t-179 -84q-57 0 -106.5 35.5t-66 60.5t-40.5 68q-125 -164 -299 -164q-98 0 -146 74.5t-32 166.5zM188 231q-10 -61 24 -109t105 -48q76 0 146 49 q63 43 76 139q14 82 28 139q-158 -6 -262.5 -52t-116.5 -118zM518 1098q4 25 47 41l303 127l33 8q23 0 36 -14.5t9 -36.5q-8 -35 -57 -56l-318 -131l-14 -2q-47 1 -39 64zM659 489h373q20 166 -16.5 240t-97.5 74q-74 0 -150 -93.5t-109 -220.5z" />
<glyph unicode="&#x1fe;" d="M180 293q6 113 45 332q27 160 46.5 254t50 176t60.5 117.5t87 62.5t117.5 33t163.5 6q92 0 161 -4l58 112q20 49 51 50q6 0 14 -2.5t17.5 -12.5t7.5 -28l-64 -138q100 -45 109.5 -179t-47.5 -447q-27 -160 -46.5 -254.5t-50 -175t-61.5 -117.5t-87 -62.5t-116.5 -32 t-163.5 -6.5q-92 0 -163 5l-56 -113q-20 -49 -51 -49q-6 0 -14 2t-17.5 12t-7.5 29l64 135q-76 37 -95.5 101.5t-11.5 193.5zM267 303q-1 -115 14.5 -144.5t54.5 -64.5l530 1080q-41 12 -47 12q-23 2 -84 2q-147 0 -221 -31t-117 -127q-41 -98 -94 -405q-35 -207 -36 -322z M416 78q41 -12 47 -12q23 -2 84 -3q147 0 221 31t117 127q41 98 94 406q35 207 36 321.5t-14.5 144t-54.5 64.5zM548 1419.5q-1 12.5 1 22.5q4 23 47 43l303 127l33 8q23 0 35 -15.5t8 -37.5q-4 -33 -55 -54l-318 -131l-14 -4q-18 0 -28.5 14.5t-11.5 27z" />
<glyph unicode="&#x1ff;" d="M51 -254q2 10 45 70l193 256q-154 154 -117 364q31 186 180.5 319.5t331.5 133.5q84 0 182 -43l217 291q23 31 43 30q16 0 29.5 -11t11.5 -32l-18 -34l-215 -289q150 -162 115 -365q-33 -186 -184.5 -317t-329.5 -131q-90 0 -179 41l-231 -310q-16 -16 -32.5 -16 t-30 11.5t-11.5 31.5zM248 436q-29 -158 94 -293l469 631q-76 29 -141 29q-150 0 -273.5 -107.5t-148.5 -259.5zM412 100q76 -27 137 -26q150 0 273.5 105.5t150.5 256.5q25 164 -96 291zM508 1098q4 25 47 41l303 127l33 8q23 0 36 -14.5t9 -36.5q-8 -35 -57 -56l-318 -131 l-14 -2q-47 1 -39 64z" />
<glyph unicode="&#x200;" d="M68 43q4 29 30 41q12 2 99 2l448 1126q12 31 29.5 45.5t31 16.5t44.5 2q33 0 46 -2t24 -17.5t14 -46.5l71 -1124q84 0 96 -2q25 -10 21 -41q-8 -43 -80 -43h-215q-20 0 -31.5 1t-21.5 11.5t-6 30.5q4 31 29.5 37t99.5 6l-13 264h-376l-103 -264q74 0 97.5 -6t19.5 -37 q-8 -43 -76 -43h-217q-18 0 -29.5 1t-23.5 11.5t-8 30.5zM395 1579q4 23 23.5 39t40.5 16q33 -6 59 -35l113 -126q16 -23 14 -33q-4 -20 -25.5 -41t-41.5 -21q-25 0 -56 43l-84 92q-45 50 -43 66zM444 436h332l-33 754h-14zM807 1579q4 23 23.5 39t39.5 16q33 -6 60 -35 l112 -126q16 -23 15 -33q-4 -20 -25.5 -41t-42.5 -21q-25 0 -55 43l-84 92q-45 50 -43 66z" />
<glyph unicode="&#x201;" d="M160 250q25 141 207 216t477 79q43 258 -248 258q-139 0 -147 -47q-8 -41 -35 -58.5t-54 -17.5q-31 0 -48 20.5t-11 55.5q20 133 307 133q199 0 283 -92t63 -215l-77 -471q61 -25 143 -25q18 0 28.5 -1t21.5 -11.5t9 -28.5q-4 -20 -19.5 -31.5t-30.5 -12.5t-44 -1 q-51 0 -81 2t-70.5 20.5t-59.5 53.5q-150 -88 -328 -88q-147 0 -225.5 78t-60.5 184zM264 250q-10 -72 47.5 -124t163.5 -52q117 0 203 39q47 20 73.5 46.5t33 46t12.5 56.5l34 201q-250 -8 -401.5 -68.5t-165.5 -144.5zM397 1227q4 23 22.5 39t39.5 16q33 -6 61 -35 l111 -127q16 -16 16 -33q-4 -20 -26.5 -40.5t-40.5 -20.5q-20 0 -58 43l-82 92q-47 48 -43 66zM809 1227q4 23 22.5 39t38.5 16q33 -6 62 -35l110 -127q16 -16 17 -33q-4 -20 -26.5 -40.5t-41.5 -20.5q-20 0 -57 43l-82 92q-47 48 -43 66z" />
<glyph unicode="&#x204;" d="M66 43q6 43 71 43h86l180 1079h-86q-16 0 -27 1t-22.5 11.5t-9.5 30.5q8 43 74 43h790q39 0 49.5 -13t4.5 -52l-27 -156q-4 -23 -7 -32t-17.5 -21t-39.5 -12q-51 0 -41 65l23 135h-561l-80 -473h322q10 55 15 73.5t18.5 33t37.5 14.5q51 0 41 -65l-33 -197q-4 -23 -7 -32 t-16 -21.5t-38 -12.5q-37 0 -41 27t8 94h-321l-86 -520h608l29 168q8 66 63 65q35 0 42 -21.5t-1 -43.5l-33 -188q-6 -39 -20.5 -52.5t-52.5 -13.5h-838q-16 0 -27.5 1t-22.5 11.5t-7 30.5zM455 1579q4 23 23.5 39t39.5 16q33 -6 60 -35l112 -126q16 -23 15 -33 q-4 -20 -26 -41t-42 -21q-25 0 -55 43l-84 92q-45 50 -43 66zM866 1579q4 23 23.5 39t40.5 16q33 -6 59 -35l113 -126q16 -23 14 -33q-4 -20 -25.5 -41t-41.5 -21q-25 0 -56 43l-84 92q-45 50 -43 66z" />
<glyph unicode="&#x205;" d="M192.5 438.5q30.5 186.5 179 318.5t328.5 132q186 0 267.5 -123t52.5 -305q-4 -27 -16.5 -40t-23.5 -15.5t-34 -2.5h-655q2 -156 95 -242.5t226 -86.5q178 0 271 151q14 23 49 23q47 0 45 -39q-10 -59 -116.5 -140t-276.5 -81q-195 0 -308.5 132t-83 318.5zM307 489h613 q14 174 -55.5 244t-178.5 70q-119 0 -223.5 -86.5t-155.5 -227.5zM397 1227q4 23 22.5 39t39.5 16q33 -6 61 -35l111 -127q16 -16 16 -33q-4 -20 -26.5 -40.5t-40.5 -20.5q-20 0 -58 43l-82 92q-47 48 -43 66zM809 1227q4 23 22.5 39t38.5 16q33 -6 62 -35l110 -127 q16 -16 17 -33q-4 -20 -26.5 -40.5t-41.5 -20.5q-20 0 -57 43l-82 92q-47 48 -43 66z" />
<glyph unicode="&#x208;" d="M178 45q6 41 72 41h250l180 1079h-250q-16 0 -27.5 1t-22.5 11.5t-9 30.5q8 43 73 43h605q16 0 27 -1t22.5 -12t7.5 -32q-6 -41 -72 -41h-250l-180 -1079h250q16 0 27.5 -1t22.5 -11.5t9 -30.5q-8 -43 -73 -43h-604q-16 0 -27.5 1t-23 12.5t-7.5 31.5zM455 1579 q4 23 23.5 39t39.5 16q33 -6 60 -35l112 -126q16 -23 15 -33q-4 -20 -26 -41t-42 -21q-25 0 -55 43l-84 92q-45 50 -43 66zM866 1579q4 23 23.5 39t40.5 16q33 -6 59 -35l113 -126q16 -23 14 -33q-4 -20 -25.5 -41t-41.5 -21q-25 0 -56 43l-84 92q-45 50 -43 66z" />
<glyph unicode="&#x209;" d="M176 43q6 43 72 43h278l117 698h-262q-16 0 -27.5 1t-23 11.5t-8.5 30.5q8 43 73 43h301q41 0 50.5 -13t3.5 -52l-121 -719h243q16 0 27.5 -1t23 -11.5t9.5 -30.5q-8 -43 -74 -43h-625q-16 0 -27 1t-22.5 11.5t-7.5 30.5zM397 1227q4 23 22.5 39t39.5 16q33 -6 61 -35 l111 -127q16 -16 16 -33q-4 -20 -26.5 -40.5t-40.5 -20.5q-20 0 -58 43l-82 92q-47 48 -43 66zM809 1227q4 23 22.5 39t38.5 16q33 -6 62 -35l110 -127q16 -16 17 -33q-4 -20 -26.5 -40.5t-41.5 -20.5q-20 0 -57 43l-82 92q-47 48 -43 66z" />
<glyph unicode="&#x20c;" d="M179 161q-3 42 0 114.5t14.5 151.5t31.5 198q27 160 46.5 254t50 176t60.5 117.5t87 62.5t117.5 33t163.5 6q76 0 126 -3t94 -16.5t68.5 -30t42 -54t21.5 -79.5t1 -116t-14.5 -153t-31.5 -197q-27 -160 -46.5 -254.5t-50 -175t-61.5 -117.5t-87 -62.5t-116.5 -32 t-163.5 -6.5q-76 0 -126 3.5t-95 15.5t-68.5 29.5t-42 55.5t-21.5 80zM291 229q4 -90 57 -128t199 -38q150 0 215 40t102 141q49 129 90 399q49 289 39 393q-8 92 -65.5 122t-192.5 30q-145 0 -211.5 -34t-103.5 -132q-41 -100 -88 -379q-49 -310 -41 -414zM455 1579 q4 23 23.5 39t39.5 16q33 -6 60 -35l112 -126q16 -23 15 -33q-4 -20 -26 -41t-42 -21q-25 0 -55 43l-84 92q-45 50 -43 66zM866 1579q4 23 23.5 39t40.5 16q33 -6 59 -35l113 -126q16 -23 14 -33q-4 -20 -25.5 -41t-41.5 -21q-25 0 -56 43l-84 92q-45 50 -43 66z" />
<glyph unicode="&#x20d;" d="M197 436q31 188 174 320.5t313 132.5t270.5 -132t69.5 -321q-33 -188 -177.5 -318t-312 -130t-269 130t-68.5 318zM303 451q-27 -156 46 -266.5t200 -110.5q125 0 235.5 110.5t137.5 266.5q25 152 -51 252t-201 100q-123 0 -232.5 -100t-134.5 -252zM397 1227 q4 23 22.5 39t39.5 16q33 -6 61 -35l111 -127q16 -16 16 -33q-4 -20 -26.5 -40.5t-40.5 -20.5q-20 0 -58 43l-82 92q-47 48 -43 66zM809 1227q4 23 22.5 39t38.5 16q33 -6 62 -35l110 -127q16 -16 17 -33q-4 -20 -26.5 -40.5t-41.5 -20.5q-20 0 -57 43l-82 92q-47 48 -43 66 z" />
<glyph unicode="&#x210;" d="M57 43q6 43 70 43h74l180 1079h-74q-16 0 -26.5 1t-21.5 11.5t-9 28.5q8 45 72 45h374q170 0 263.5 -99t70.5 -234q-33 -182 -246 -293q80 -70 101 -140q10 -43 -15 -190q-20 -94 -13 -163t54 -69q29 0 52.5 44.5t29.5 72.5q8 43 58 43q51 0 43 -47q-10 -68 -62.5 -133.5 t-132.5 -65.5q-96 0 -131 78q-14 35 -16 77t1 73t17 117q14 70 12 115.5t-32 80.5q-63 63 -177 64h-186l-82 -496h74q18 0 28.5 -1t20.5 -11.5t8 -30.5q-8 -43 -71 -43h-252q-16 0 -26.5 1t-22 11.5t-7.5 30.5zM395 1579q4 23 23.5 39t40.5 16q33 -6 59 -35l113 -126 q16 -23 14 -33q-4 -20 -25.5 -41t-41.5 -21q-25 0 -56 43l-84 92q-45 50 -43 66zM403 670h175q145 0 239 76.5t111 171.5q16 92 -53.5 169.5t-215.5 77.5h-174zM807 1579q4 23 23.5 39t39.5 16q33 -6 60 -35l112 -126q16 -23 15 -33q-4 -20 -25.5 -41t-42.5 -21 q-25 0 -55 43l-84 92q-45 50 -43 66z" />
<glyph unicode="&#x211;" d="M80 45q6 41 70 41h192l117 698h-193q-18 0 -28.5 1t-20.5 11.5t-8 30.5q8 43 72 43h231q41 0 50 -13t3 -52l-22 -129q217 207 415 207q55 0 91 -11.5t50.5 -30t18.5 -34.5t2 -35q-6 -31 -28.5 -50.5t-51.5 -19.5q-31 0 -46 26t-7 69q-205 0 -336 -126t-159 -298l-48 -287 h256q18 0 28.5 -1t22 -11.5t9.5 -30.5q-8 -43 -74 -43h-551q-18 0 -28.5 1t-20.5 12.5t-6 31.5zM397 1227q4 23 22.5 39t39.5 16q33 -6 61 -35l111 -127q16 -16 16 -33q-4 -20 -26.5 -40.5t-40.5 -20.5q-20 0 -58 43l-82 92q-47 48 -43 66zM809 1227q4 23 22.5 39t38.5 16 q33 -6 62 -35l110 -127q16 -16 17 -33q-4 -20 -26.5 -40.5t-41.5 -20.5q-20 0 -57 43l-82 92q-47 48 -43 66z" />
<glyph unicode="&#x214;" d="M213 1208q8 43 74 43h272q16 0 27.5 -1t23 -11t6.5 -31q-6 -43 -71 -43h-84l-125 -743q-27 -170 40.5 -264.5t170 -94.5t203 95.5t127.5 263.5l124 743h-83q-16 0 -27.5 1t-23 11.5t-9.5 30.5q8 43 74 43h272q18 0 28.5 -1t22 -11t7.5 -31q-6 -43 -72 -43h-84l-125 -753 q-33 -184 -164 -309.5t-284.5 -125.5t-243.5 126t-58 309l125 753h-84q-18 0 -28.5 1t-21.5 11.5t-9 30.5zM455 1579q4 23 23.5 39t39.5 16q33 -6 60 -35l112 -126q16 -23 15 -33q-4 -20 -26 -41t-42 -21q-25 0 -55 43l-84 92q-45 50 -43 66zM866 1579q4 23 23.5 39t40.5 16 q33 -6 59 -35l113 -126q16 -23 14 -33q-4 -20 -25.5 -41t-41.5 -21q-25 0 -56 43l-84 92q-45 50 -43 66z" />
<glyph unicode="&#x215;" d="M166 825q8 45 74 45h153q41 0 50.5 -13t2.5 -52l-96 -572q-4 -41 -6 -75.5t39 -59t129 -24.5q37 0 76 8t89 30.5t87 74t49 124.5l80 473h-117q-16 0 -26.5 1t-21.5 11.5t-9 28.5q8 45 74 45h153q41 0 50.5 -13t2.5 -52l-120 -719h116q16 0 26.5 -1t22 -11.5t9.5 -28.5 q-8 -45 -74 -45h-154q-20 0 -30.5 3t-18.5 23.5t-2 61.5q-150 -100 -289 -100q-125 0 -192.5 52t-46.5 181l94 563h-117q-16 0 -26.5 1t-21.5 11.5t-9 28.5zM397 1227q4 23 22.5 39t39.5 16q33 -6 61 -35l111 -127q16 -16 16 -33q-4 -20 -26.5 -40.5t-40.5 -20.5 q-20 0 -58 43l-82 92q-47 48 -43 66zM809 1227q4 23 22.5 39t38.5 16q33 -6 62 -35l110 -127q16 -16 17 -33q-4 -20 -26.5 -40.5t-41.5 -20.5q-20 0 -57 43l-82 92q-47 48 -43 66z" />
<glyph unicode="&#x218;" d="M121 43l45 279q4 20 8 31.5t18.5 22.5t38.5 11q23 0 33 -8t9 -20.5t-1 -24.5q-12 -137 76 -201q92 -70 248 -70q127 0 216 79t106 177q35 205 -209 261l-232 57q-115 35 -170 122t-37 189q23 131 145 228.5t283 97.5q174 0 289 -115q31 70 46.5 92.5t39.5 22.5 q41 0 31 -66l-45 -278q-4 -20 -8 -31.5t-18.5 -23t-39.5 -11.5q-41 0 -43 31q-2 49 -8 84t-28.5 90t-82 87t-149.5 32q-119 0 -208 -69.5t-105 -162.5q-12 -78 30.5 -137t116.5 -82l166 -39q129 -31 178 -52t98 -79q80 -102 58 -237q-25 -141 -148 -247t-288 -106 q-213 0 -344 111q-31 -70 -45.5 -90.5t-38.5 -20.5q-41 0 -31 66zM350 -459q0 16 21 21q156 49 178 182q-29 -12 -57 -12q-33 0 -51.5 22.5t-12.5 57.5q4 31 29.5 53t62.5 22q45 0 70.5 -37.5t17.5 -99.5q-18 -104 -101 -171.5t-132 -67.5q-12 0 -20.5 10t-4.5 20z" />
<glyph unicode="&#x219;" d="M164 53l35 205q4 23 7 32t17.5 21.5t38.5 12.5q37 0 43 -25q20 -133 90 -179t170 -46q147 0 228 49t94 121q8 43 -14.5 75.5t-68.5 52t-87 31t-92 19.5q-59 8 -92 14t-85.5 19.5t-82 30t-58 40t-39 58t-2.5 78.5q6 33 25.5 65.5t62.5 72.5t128 64.5t202 24.5 q129 0 231 -53q14 31 24.5 42t35.5 11q41 0 31 -66l-25 -145q-8 -66 -63 -66q-39 0 -44 31q4 76 -35.5 118t-172.5 42q-150 0 -227 -43t-87 -98q-8 -43 32 -75t82 -45.5t87 -19.5l141 -24q33 -6 57.5 -11.5t75 -25t82 -44t53 -70.5t11.5 -103q-6 -41 -29.5 -81t-69 -82 t-130.5 -67.5t-195 -25.5q-160 0 -270 94q-47 -94 -82 -94q-43 -1 -33 65zM350 -459q0 16 21 21q156 49 178 182q-29 -12 -57 -12q-33 0 -51.5 22.5t-12.5 57.5q4 31 29.5 53t62.5 22q45 0 70.5 -37.5t17.5 -99.5q-18 -104 -101 -171.5t-132 -67.5q-12 0 -20.5 10t-4.5 20z " />
<glyph unicode="&#x21a;" d="M229 1030l27 156q6 39 21.5 52t54.5 13h829q39 0 49.5 -13t3.5 -52l-26 -156q-4 -23 -7 -32t-17.5 -21t-39.5 -12q-51 0 -41 65l23 135h-322l-180 -1079h131q18 0 28.5 -1t21 -11.5t8.5 -30.5q-8 -43 -72 -43h-367q-18 0 -28.5 1t-20.5 12.5t-6 31.5q6 41 70 41h131 l180 1079h-324l-22 -135q-4 -23 -7 -32t-17.5 -21t-39.5 -12q-51 -1 -41 65zM350 -459q0 16 21 21q156 49 178 182q-29 -12 -57 -12q-33 0 -51.5 22.5t-12.5 57.5q4 31 29.5 53t62.5 22q45 0 70.5 -37.5t17.5 -99.5q-18 -104 -101 -171.5t-132 -67.5q-12 0 -20.5 10t-4.5 20 z" />
<glyph unicode="&#x21b;" d="M193 825q8 45 73 45h207l33 195q8 66 61 65q51 0 41 -65l-33 -195h369q18 0 28.5 -1t21 -12t5.5 -32q-6 -41 -69 -41h-369l-88 -526q-2 -33 -6 -74t36 -75.5t124 -34.5q37 0 76.5 10t86 53t58.5 111q8 59 61 59q25 0 36 -9t10 -23.5t-3 -28.5q-20 -123 -124.5 -190.5 t-225.5 -67.5q-119 0 -187.5 62.5t-45.5 195.5l90 538h-209q-16 0 -26.5 1t-21.5 11.5t-9 28.5zM350 -459q0 16 21 21q156 49 178 182q-29 -12 -57 -12q-33 0 -51.5 22.5t-12.5 57.5q4 31 29.5 53t62.5 22q45 0 70.5 -37.5t17.5 -99.5q-18 -104 -101 -171.5t-132 -67.5 q-12 0 -20.5 10t-4.5 20z" />
<glyph unicode="&#x258;" d="M154 209q6 39 57 39q37 0 41 -23q25 -86 89.5 -118.5t131.5 -32.5q133 0 255 87t177 242h-655q-16 0 -24.5 1.5t-19.5 6.5t-10 16t1 34q29 182 149.5 305t308.5 123q180 0 286 -132t75 -318.5t-188.5 -318.5t-354.5 -132q-90 0 -159.5 26.5t-102.5 65.5t-47 72.5 t-10 56.5zM305 489h613q-4 141 -81 227.5t-196 86.5q-256 -1 -336 -314z" />
<glyph unicode="&#x259;" d="M188 416q4 27 16.5 40t24 15t33.5 2h656q-4 156 -97.5 243t-226.5 87q-176 0 -270 -152q-14 -23 -50 -22q-47 0 -45 39q10 59 117 140t277 81q197 0 310.5 -132t82.5 -318.5t-180.5 -318.5t-329.5 -132q-188 0 -268.5 123t-49.5 305zM289 387q-25 -313 231 -313 q119 0 224.5 86t156.5 227h-612z" />
<glyph unicode="&#x2be;" d="M362 614q4 29 27 47.5t49 18.5q66 0 54 -72q-2 -8 28.5 -12t63.5 -4q135 0 206.5 84t86.5 168q16 104 -43.5 176t-157.5 72q-51 0 -93 -24t-54.5 -39t-30.5 -44q-14 -18 -45 -18q-8 0 -16.5 2t-18.5 11t-8 26q6 43 80.5 107.5t207.5 64.5q141 0 220 -98.5t57 -235.5 q-20 -123 -126 -230.5t-280 -107.5q-45 0 -89 6t-85 32.5t-33 69.5z" />
<glyph unicode="&#x2bf;" d="M381 840q20 123 125.5 230.5t279.5 107.5q45 0 89.5 -6.5t85 -33t32.5 -69.5q-4 -29 -26.5 -47t-48.5 -18q-66 0 -52 71q2 8 -29.5 12.5t-64.5 4.5q-72 0 -130 -28t-90 -71t-49.5 -81t-23.5 -72q-16 -104 43.5 -176t157.5 -72q51 0 93 23.5t54.5 39t30.5 43.5 q14 18 45 19q8 0 16.5 -2t18.5 -11.5t8 -25.5q-6 -43 -80.5 -107.5t-208.5 -64.5q-141 0 -220 98.5t-56 235.5z" />
<glyph unicode="&#x2c6;" d="M426 1081q2 14 53 45l234 136q39 23 69 0l193 -136q39 -27 37 -45q-8 -45 -58 -45q-8 0 -55 31l-164 111l-200 -111q-55 -31 -68 -31q-49 0 -41 45z" />
<glyph unicode="&#x2c7;" d="M451 1227q8 45 57 45q10 0 55 -31l164 -111l201 111q55 31 67 31q49 0 41 -45q-2 -14 -53 -45l-233 -135q-39 -23 -70 0l-193 135q-38 27 -36 45z" />
<glyph unicode="&#x2d8;" d="M387 1208q10 45 53 45q29 0 33 -22q10 -82 258 -82q250 0 283 82q10 23 41 22q47 0 37 -45q-8 -53 -47 -87t-106 -46t-110 -15t-114.5 -3t-113.5 3t-104.5 15t-90 46t-19.5 87z" />
<glyph unicode="&#x2d9;" d="M647 1153q6 37 35 61.5t63.5 24.5t55 -24.5t14.5 -61.5q-6 -35 -34.5 -59.5t-63.5 -24.5t-55.5 24.5t-14.5 59.5z" />
<glyph unicode="&#x2da;" d="M522 1153q10 61 77 105.5t157 44.5q88 0 141 -44.5t43 -105.5q-10 -59 -76.5 -102t-156.5 -43q-88 0 -141.5 43t-43.5 102zM625 1153q-6 -33 22.5 -51.5t71.5 -18.5t77.5 18.5t41.5 51.5q6 35 -23 54.5t-72 19.5t-77.5 -19.5t-40.5 -54.5z" />
<glyph unicode="&#x2db;" d="M303 -250q20 125 182 227h56q-61 -39 -103.5 -100t-54.5 -131q-6 -45 26.5 -74.5t71.5 -29.5q68 0 146 86q6 6 22.5 9t26.5 -3q8 -8 7 -22.5t-9 -24.5q-102 -117 -213 -117q-84 0 -127 56t-31 124z" />
<glyph unicode="&#x2dc;" d="M371 1094q4 25 112 100q102 66 164 66q45 0 90 -37l35 -38q14 -15 24.5 -24.5t19.5 -13.5t20 -4q55 0 178 98q23 18 41 19q16 0 27.5 -14.5t9.5 -33.5q-4 -29 -113 -98q-102 -66 -164 -65q-49 0 -90 36l-35 38q-14 15 -24.5 24.5t-19.5 13.5t-19 4q-55 0 -178 -100 q-25 -16 -41.5 -16t-27.5 14.5t-9 30.5z" />
<glyph unicode="&#x2dd;" d="M381 1087q0 8 25 33l155 127q35 29 70 35q20 0 34.5 -16.5t10.5 -38.5q-4 -16 -64 -66l-114 -92q-49 -43 -69.5 -43t-36 20.5t-11.5 40.5zM793 1087q0 8 24 33l156 127q35 29 69 35q20 0 35 -16.5t10 -38.5q-4 -16 -63 -66l-115 -92q-49 -43 -69.5 -43t-35.5 20.5 t-11 40.5z" />
<glyph unicode="&#x300;" horiz-adv-x="0" d="M-537 1223q4 23 21.5 37t40.5 14l29 -8l262 -127q35 -16 30 -41q-2 -18 -17 -41t-42 -23l-14 2l-273 131q-45 21 -37 56z" />
<glyph unicode="&#x301;" horiz-adv-x="0" d="M-557 1098q4 25 47 41l303 127l33 8q23 0 36 -14.5t9 -36.5q-8 -35 -57 -56l-318 -131l-14 -2q-47 1 -39 64z" />
<glyph unicode="&#x302;" horiz-adv-x="0" d="M-649 1081q2 14 53 45l234 136q39 23 69 0l193 -136q39 -27 37 -45q-8 -45 -58 -45q-10 0 -55 31l-164 111l-201 -111q-57 -31 -67 -31q-49 0 -41 45z" />
<glyph unicode="&#x303;" horiz-adv-x="0" d="M-705 1094q4 25 113 100q102 66 164 66q45 0 90 -37l35 -38q14 -15 24.5 -24.5t19.5 -13.5t19 -4q55 0 179 98q23 18 41 19q16 0 27 -14.5t9 -33.5q-4 -29 -112 -98q-102 -66 -164 -65q-49 0 -90 36l-35 38q-14 15 -24.5 24.5t-19.5 13.5t-20 4q-55 0 -178 -100 q-25 -16 -41 -16t-28.5 14.5t-8.5 30.5z" />
<glyph unicode="&#x304;" horiz-adv-x="0" d="M-723 1155q8 45 72 45h631q18 0 28 -1t20.5 -12t6.5 -34q-8 -43 -72 -43h-629q-18 0 -29.5 1t-21.5 12.5t-6 31.5z" />
<glyph unicode="&#x306;" horiz-adv-x="0" d="M-688 1208q10 45 53 45q29 0 33 -22q10 -82 258 -82q250 0 283 82q12 23 41 22q47 0 36 -45q-8 -53 -47 -87t-105.5 -46t-109.5 -15t-114.5 -3t-113.5 3t-104.5 15t-90 46t-19.5 87z" />
<glyph unicode="&#x307;" horiz-adv-x="0" d="M-428 1153q6 37 34.5 61.5t63.5 24.5t55.5 -24.5t14.5 -61.5q-6 -35 -35 -59.5t-63.5 -24.5t-55 24.5t-14.5 59.5z" />
<glyph unicode="&#x308;" horiz-adv-x="0" d="M-594 1153q4 33 29.5 54.5t56.5 21.5t48.5 -21.5t13.5 -54.5q-4 -31 -30 -52.5t-56.5 -21.5t-48 21.5t-13.5 52.5zM-244 1153q4 33 30 54.5t56.5 21.5t48 -21.5t13.5 -54.5q-4 -31 -30 -52.5t-56.5 -21.5t-48 21.5t-13.5 52.5z" />
<glyph unicode="&#x309;" horiz-adv-x="0" d="M-520 1227q10 66 68.5 107.5t127.5 41.5q86 0 136 -35q55 -43 42.5 -112.5t-79.5 -102.5q-113 -55 -123 -118l-6 -39q-8 -37 -43 -37q-16 0 -26.5 10t-6.5 27l6 39q16 104 174 186l29 29q6 37 -19 55q-33 23 -96 22q-37 0 -68.5 -22.5t-35.5 -50.5q-8 -39 -45 -39 q-41 0 -35 39z" />
<glyph unicode="&#x30a;" horiz-adv-x="0" d="M-553 1153q10 61 76.5 105.5t157.5 44.5q88 0 141 -44.5t43 -105.5q-10 -59 -77 -102t-157 -43q-88 0 -141 43t-43 102zM-451 1153q-6 -33 22 -51.5t73 -18.5q43 0 77.5 18.5t40.5 51.5q6 35 -22.5 54.5t-71.5 19.5t-78 -19.5t-41 -54.5z" />
<glyph unicode="&#x30b;" horiz-adv-x="0" d="M-694 1087q0 8 24 33l156 127q35 29 70 35q20 0 34.5 -16.5t10.5 -38.5q-4 -16 -64 -66l-115 -92q-49 -43 -69.5 -43t-35.5 20.5t-11 40.5zM-283 1087q0 8 25 33l156 127q35 29 69 35q20 0 34.5 -16.5t10.5 -38.5q-4 -16 -63 -66l-115 -92q-49 -43 -69.5 -43t-36 20.5 t-11.5 40.5z" />
<glyph unicode="&#x30c;" horiz-adv-x="0" d="M-625 1227q8 45 58 45q10 0 55 -31l164 -111l201 111q57 31 67 31q49 0 41 -45q-2 -14 -53 -45l-234 -135q-39 -23 -69 0l-193 135q-39 27 -37 45z" />
<glyph unicode="&#x30f;" horiz-adv-x="0" d="M-678 1227q4 23 22.5 39t39.5 16q33 -6 61 -35l111 -127q16 -16 16 -33q-4 -20 -26.5 -40.5t-41.5 -20.5q-20 0 -57 43l-82 92q-47 48 -43 66zM-266 1227q4 23 22.5 39t38.5 16q33 -6 62 -35l110 -127q16 -16 17 -33q-4 -20 -27 -40.5t-41 -20.5q-20 0 -57 43l-82 92 q-47 48 -43 66z" />
<glyph unicode="&#x311;" horiz-adv-x="0" d="M-705 1102q8 53 47.5 87t106 46t109.5 15t114.5 3t113.5 -3t104.5 -15t90 -46t19.5 -87q-10 -45 -53 -45q-29 0 -33 22q-8 82 -256 82t-285 -82q-12 -23 -41 -22q-47 0 -37 45z" />
<glyph unicode="&#x323;" horiz-adv-x="0" d="M-678 -338q6 35 35 59.5t63.5 24.5t55 -24.5t14.5 -59.5q-6 -37 -34.5 -61.5t-63.5 -24.5t-55.5 24.5t-14.5 61.5z" />
<glyph unicode="&#x326;" horiz-adv-x="0" d="M-725 -459q0 16 20 21q156 49 179 182q-27 -12 -58 -12q-33 0 -51 22.5t-12 57.5q4 31 29.5 53t62.5 22q45 0 70.5 -37.5t17.5 -99.5q-18 -104 -101 -171.5t-132 -67.5q-12 0 -20.5 10t-4.5 20z" />
<glyph unicode="&#x32e;" horiz-adv-x="0" d="M-932 -254q6 45 53 45q29 0 33 -22q8 -82 256 -82t285 82q10 23 41 22q43 0 37 -45q-8 -53 -47 -87t-105.5 -46t-109.5 -15.5t-115 -3.5t-114 3.5t-104.5 15.5t-90 46t-19.5 87z" />
<glyph unicode="&#x32f;" horiz-adv-x="0" d="M-948 -360q8 53 47 86.5t105.5 46t109.5 15.5t114.5 3t113.5 -3t104.5 -15.5t90 -46t19.5 -86.5q-10 -45 -53 -46q-29 0 -33 23q-10 82 -258 82q-250 0 -282 -82q-10 -23 -41 -23q-47 1 -37 46z" />
<glyph unicode="&#x330;" horiz-adv-x="0" d="M-948 -367q4 25 112 101q102 66 164 65q45 0 90 -37l35 -37q14 -15 24.5 -24.5t19.5 -13.5t20 -4q55 0 178 98q23 18 41 18q16 0 27.5 -14t9.5 -33q-4 -29 -113 -98q-96 -66 -164 -66q-49 0 -90 37q-33 37 -45 48.5t-26.5 20.5t-26.5 9q-57 0 -178 -98 q-25 -16 -41.5 -16.5t-27.5 14t-9 30.5z" />
<glyph unicode="&#x331;" horiz-adv-x="0" d="M-967 -307q8 45 72 45h631q18 0 28.5 -1t20.5 -12.5t6 -33.5q-8 -43 -72 -43h-628q-18 0 -29.5 1t-22 12.5t-6.5 31.5z" />
<glyph unicode="&#x332;" horiz-adv-x="0" d="M-967 -307q8 45 72 45h631q18 0 28.5 -1t20.5 -12.5t6 -33.5q-8 -43 -72 -43h-628q-18 0 -29.5 1t-22 12.5t-6.5 31.5z" />
<glyph unicode="&#x393;" d="M80 43q6 43 70 43h98l180 1079h-98q-18 0 -28.5 1t-21 11.5t-8.5 28.5q8 45 72 45h795q41 0 50 -13t3 -52l-27 -156q-4 -23 -7 -32t-17.5 -21t-38.5 -12q-49 0 -39 65l22 135h-553l-180 -1079h140q16 0 27 -1t22.5 -11.5t9.5 -30.5q-8 -43 -74 -43h-342q-18 0 -28.5 1 t-20.5 11.5t-6 30.5z" />
<glyph unicode="&#x394;" d="M80 25v2l565 1196q25 53 105 53q47 0 63 -10.5t23 -51.5l165 -1187v-2q-4 -25 -55 -25h-819q-14 0 -22.5 1t-17.5 6.5t-7 17.5zM221 100h664l-146 1090h-8z" />
<glyph unicode="&#x398;" d="M179 161q-3 42 0 114.5t14.5 151.5t31.5 198q27 160 46.5 254t50 176t60.5 117.5t87 62.5t117.5 33t163.5 6q76 0 126 -3t94 -16.5t68.5 -30t42 -54t21.5 -79.5t1 -116t-14.5 -153t-31.5 -197q-27 -160 -46.5 -254.5t-50 -175t-61.5 -117.5t-87 -62.5t-116.5 -32 t-163.5 -6.5q-76 0 -126 3.5t-95 15.5t-68.5 29.5t-42 55.5t-21.5 80zM287 254q2 -111 55 -151t204.5 -40t215 38t104.5 139q37 96 86 387q43 268 43 370q-2 111 -55 151t-204.5 40t-215 -38t-104.5 -138q-37 -96 -86 -387q-43 -269 -43 -371zM446.5 531.5 q-8.5 21.5 -0.5 43.5l17 101q4 23 7 32t17.5 21t38.5 12q47 0 41 -65h164q6 31 19.5 46t21.5 17t21 2q35 0 43 -21.5t0 -43.5l-17 -101q-4 -23 -7 -31.5t-17.5 -21t-38.5 -12.5q-47 0 -41 65h-164q-6 -31 -19.5 -46t-21.5 -17t-21 -2q-34 0 -42.5 21.5z" />
<glyph unicode="&#x39b;" d="M72 43q2 20 19.5 29.5t36.5 11.5t67 2l450 1135q12 27 29.5 39t30 14t34.5 2h21q25 0 36 -2t24.5 -16.5t15.5 -43.5l71 -1128q47 0 66.5 -2t33 -11.5t11.5 -29.5q-8 -43 -76 -43h-227q-18 0 -28.5 1t-22 12.5t-7.5 31.5q6 41 72 41h70l-60 1104h-10l-428 -1104h72 q18 0 28.5 -1t21.5 -11.5t9 -30.5q-8 -43 -74 -43h-229q-16 0 -27.5 1t-22.5 11.5t-7 30.5z" />
<glyph unicode="&#x39e;" d="M84 66l10 51q10 66 60 65q37 0 42 -24.5t-6 -75.5h721q8 57 20.5 78.5t49.5 21.5q49 0 39 -65l-10 -51q-6 -39 -20.5 -52.5t-53.5 -13.5h-797q-39 0 -50 12.5t-5 53.5zM272 1145l9 41q6 39 20 52t55 13h781q41 0 50 -13t3 -52l-8 -41q-2 -20 -6.5 -31.5t-17.5 -23 t-38 -11.5q-35 0 -41 23.5t4 66.5h-704q-4 -35 -9 -50t-18.5 -27.5t-38.5 -12.5q-51 0 -41 66zM334 556q-8 19 0 44l16 102q4 23 7 32t17.5 20.5t39.5 11.5q29 0 38 -15.5t1 -58.5h397q8 43 21.5 58.5t41.5 15.5q35 0 43.5 -20.5t-0.5 -43.5l-16 -102q-4 -23 -7 -33 t-17.5 -20t-38.5 -10q-29 0 -38.5 15t-0.5 58h-398q-8 -43 -21 -58t-42 -15q-35 0 -43 19z" />
<glyph unicode="&#x3a0;" d="M57 43q6 43 70 43h74l180 1079h-74q-16 0 -26.5 1t-21.5 11.5t-9 28.5q8 45 72 45h847q18 0 28.5 -1t21 -12t6.5 -32q-6 -41 -70 -41h-74l-180 -1079h74q18 0 28.5 -1t20.5 -11.5t8 -30.5q-8 -43 -71 -43h-252q-18 0 -28.5 1t-21 12.5t-6.5 31.5q6 41 70 41h74l180 1079 h-492l-180 -1079h74q18 0 28.5 -1t20.5 -11.5t8 -30.5q-8 -43 -71 -43h-252q-16 0 -26.5 1t-22 11.5t-7.5 30.5z" />
<glyph unicode="&#x3a3;" d="M94 39l4 10l430 576l-231 542q-8 16 -8 39q8 45 73 45h768q41 0 50.5 -13t3.5 -52l-27 -156q-4 -23 -7 -32t-17.5 -21t-38.5 -12q-51 0 -41 65l22 135h-655l223 -532q-6 -20 -25 -45l-370 -498h647l23 135q4 20 8 31.5t18 23t39 11.5q53 0 39 -66l-27 -159 q-6 -39 -20 -52.5t-53 -13.5h-768q-16 0 -26.5 1t-23 10.5t-10.5 27.5z" />
<glyph unicode="&#x3a5;" d="M254 1022q14 92 90 172t174 80q88 0 133 -79t41 -275q66 201 131.5 277.5t157.5 76.5q98 0 146.5 -80t31.5 -172q-6 -45 -57 -45q-14 0 -22.5 1t-16.5 13.5t-4 34.5q10 72 -10.5 126t-81.5 54q-57 0 -105.5 -54t-78 -140t-45 -151.5t-25.5 -127.5l-109 -647h94 q18 0 28.5 -1t22 -11.5t9.5 -30.5q-8 -43 -74 -43h-293q-18 0 -28.5 1t-21.5 11.5t-7 30.5q6 43 72 43h94l108 647q74 473 -100 473q-59 0 -98 -53t-54 -131q-6 -45 -57 -45t-45 45z" />
<glyph unicode="&#x3a6;" d="M193 627q18 111 142 195.5t304 103.5l41 239h-109q-16 0 -27.5 1t-22.5 11.5t-9 30.5q8 43 74 43h321q16 0 27.5 -1t23 -12t7.5 -32q-6 -41 -72 -41h-109l-41 -239q172 -18 268.5 -103.5t78.5 -197.5q-18 -109 -142.5 -194t-302.5 -105l-41 -240h109q16 0 27.5 -1 t22.5 -11.5t9 -30.5q-8 -43 -74 -43h-321q-16 0 -27.5 1t-23 12.5t-7.5 31.5q6 41 72 41h109l41 240q-172 16 -269 101t-79 200zM295 625q-12 -74 57.5 -134.5t202.5 -78.5l70 428q-137 -18 -227.5 -78.5t-102.5 -136.5zM659 412q131 18 221.5 76.5t104.5 138.5 q12 76 -57.5 135t-198.5 78z" />
<glyph unicode="&#x3a8;" d="M240 936q8 45 63 45q57 0 83 -35t23 -83t-10 -99q-8 -72 -9 -138.5t40 -126t125 -85.5l125 751h-94q-18 0 -28.5 1t-22 11.5t-9.5 28.5q8 45 74 45h293q18 0 28.5 -1t21.5 -12t7 -32q-6 -41 -71 -41h-95l-125 -751q221 66 269 348q6 41 13 67.5t25.5 67.5t51.5 62.5 t80 21.5q14 0 22 -1t18.5 -12.5t6.5 -31.5q-4 -37 -45 -43q-25 -6 -43.5 -50t-24.5 -85q-70 -377 -387 -430l-41 -242h94q18 0 28.5 -1t22 -11.5t9.5 -30.5q-8 -43 -74 -43h-293q-18 0 -28.5 1t-21.5 11.5t-7 30.5q6 43 72 43h94l41 242q-90 16 -149.5 61t-79 103.5t-28 124 t6.5 120.5q23 143 -19 156q-36 6 -32 43z" />
<glyph unicode="&#x3a9;" d="M82 66l10 55q12 66 47 65q27 0 30 -29.5t-7 -70.5h180q2 137 -59 336q-16 59 -23.5 82.5t-20 78t-15.5 87t-3 80t6 88.5q31 184 184.5 310t338 126t295 -126t79.5 -310q-23 -143 -184 -402q-80 -123 -116 -191.5t-64 -158.5h180l11 53q3 14 14.5 30.5t29.5 16.5 q39 0 27 -65l-10 -55q-6 -39 -20.5 -52.5t-53.5 -13.5h-217q-20 0 -31.5 2t-21 14.5t-4.5 36.5q20 123 176 385q160 268 180 400q25 150 -60.5 250t-224.5 100t-260 -100.5t-145 -249.5q-14 -84 4 -186.5t82 -348.5q29 -143 10 -250q-4 -25 -16.5 -37t-23.5 -14t-32 -2h-217 q-39 0 -50 12.5t-5 53.5z" />
<glyph unicode="&#xe3f;" d="M59 43q6 43 72 43h80l180 1079h-80q-18 0 -28.5 1t-21.5 11.5t-9 30.5q8 43 72 43h360l25 152q4 18 19 31.5t36 13.5q18 0 28.5 -13.5t6.5 -31.5l-25 -152h29q156 0 233.5 -94t57.5 -213q-35 -203 -312 -291q295 -74 254 -321q-23 -129 -132 -230.5t-267 -101.5h-74 l-24 -152q-8 -45 -50 -45q-20 0 -30 13.5t-6 31.5l24 152h-362q-16 0 -26.5 1t-22 11.5t-7.5 30.5zM313 86h179l88 522h-179zM416 694h178l78 471h-178zM578 86h26q137 0 224 77t104 173q16 92 -50.5 182t-201.5 90h-14zM682 694q143 16 219 91t90 157q12 80 -38 151.5 t-193 71.5z" />
<glyph unicode="&#x1e0c;" d="M51 43q6 43 72 43h67l181 1079h-68q-16 0 -27.5 1t-22.5 11.5t-9 28.5q8 45 73 45h437q197 0 288 -189.5t48 -445.5q-41 -254 -196 -435t-349 -181h-436q-16 0 -27.5 1t-23 11.5t-7.5 30.5zM268 -338q6 35 35 59.5t63.5 24.5t55 -24.5t14.5 -59.5q-6 -37 -34.5 -61.5 t-63.5 -24.5t-55.5 24.5t-14.5 61.5zM295 86h223q176 0 305 160t164 370.5t-39 379.5t-250 169h-223z" />
<glyph unicode="&#x1e0d;" d="M152 434q33 188 176 318.5t311 130.5q129 0 250 -121l67 403h-116q-16 0 -26.5 1t-22 11.5t-9.5 28.5q8 45 74 45h154q41 0 50 -13t3 -52l-184 -1100h116q16 0 26.5 -1t22 -11.5t9.5 -28.5q-8 -45 -74 -45h-154q-45 0 -51 26.5t10 110.5q-172 -150 -313 -149 q-162 0 -256 130t-63 316zM254 434q-25 -150 47 -255t193 -105q123 0 219 103.5t114 211.5l25 152q16 98 -47.5 177t-171.5 79q-125 0 -238.5 -103.5t-140.5 -259.5zM397 -338q6 35 35 59.5t63.5 24.5t55 -24.5t14.5 -59.5q-6 -37 -34.5 -61.5t-63.5 -24.5t-55.5 24.5 t-14.5 61.5z" />
<glyph unicode="&#x1e0e;" d="M-20 -307q8 45 71 45h631q18 0 28.5 -1t20.5 -12.5t6 -33.5q-8 -43 -71 -43h-629q-18 0 -29.5 1t-21.5 12.5t-6 31.5zM51 43q6 43 72 43h67l181 1079h-68q-16 0 -27.5 1t-22.5 11.5t-9 28.5q8 45 73 45h437q197 0 288 -189.5t48 -445.5q-41 -254 -196 -435t-349 -181 h-436q-16 0 -27.5 1t-23 11.5t-7.5 30.5zM295 86h223q176 0 305 160t164 370.5t-39 379.5t-250 169h-223z" />
<glyph unicode="&#x1e0f;" d="M109 -307q8 45 71 45h631q18 0 28.5 -1t20.5 -12.5t6 -33.5q-8 -43 -71 -43h-629q-18 0 -29.5 1t-21.5 12.5t-6 31.5zM152 434q33 188 176 318.5t311 130.5q129 0 250 -121l67 403h-116q-16 0 -26.5 1t-22 11.5t-9.5 28.5q8 45 74 45h154q41 0 50 -13t3 -52l-184 -1100 h116q16 0 26.5 -1t22 -11.5t9.5 -28.5q-8 -45 -74 -45h-154q-45 0 -51 26.5t10 110.5q-172 -150 -313 -149q-162 0 -256 130t-63 316zM254 434q-25 -150 47 -255t193 -105q123 0 219 103.5t114 211.5l25 152q16 98 -47.5 177t-171.5 79q-125 0 -238.5 -103.5t-140.5 -259.5z " />
<glyph unicode="&#x1e24;" d="M57 43q6 43 70 43h74l180 1079h-74q-16 0 -26.5 1t-21.5 11.5t-9 28.5q8 45 72 45h251q18 0 28.5 -1t21 -12t6.5 -32q-6 -41 -70 -41h-74l-77 -471h491l78 471h-74q-18 0 -28.5 1t-20.5 11.5t-8 30.5q8 43 72 43h251q18 0 28.5 -1t21 -12t6.5 -32q-6 -41 -70 -41h-74 l-180 -1079h74q18 0 28.5 -1t20.5 -11.5t8 -30.5q-8 -43 -71 -43h-252q-18 0 -28.5 1t-21 12.5t-6.5 31.5q6 41 70 41h74l88 522h-492l-88 -522h74q18 0 28.5 -1t20.5 -11.5t8 -30.5q-8 -43 -71 -43h-252q-16 0 -26.5 1t-22 11.5t-7.5 30.5zM397 -338q6 35 35 59.5 t63.5 24.5t55 -24.5t14.5 -59.5q-6 -37 -34.5 -61.5t-63.5 -24.5t-55.5 24.5t-14.5 61.5z" />
<glyph unicode="&#x1e25;" d="M37 43q6 43 72 43h114l180 1079h-116q-16 0 -26.5 1t-22 11.5t-9.5 28.5q8 45 74 45h154q41 0 50 -13t3 -52l-76 -445q168 141 324 142q254 0 207 -283l-86 -514h114q18 0 28.5 -1t22 -11.5t9.5 -30.5q-8 -43 -72 -43h-324q-16 0 -27.5 1t-22.5 11.5t-7 30.5q6 43 72 43 h104l84 502q18 111 -9.5 160t-119.5 49q-104 0 -208.5 -79t-131.5 -235l-65 -397h114q18 0 28.5 -1t22 -11.5t9.5 -30.5q-8 -43 -72 -43h-336q-16 0 -26.5 1t-21.5 11.5t-7 30.5zM397 -338q6 35 35 59.5t63.5 24.5t55 -24.5t14.5 -59.5q-6 -37 -34.5 -61.5t-63.5 -24.5 t-55.5 24.5t-14.5 61.5z" />
<glyph unicode="&#x1e26;" d="M57 43q6 43 70 43h74l180 1079h-74q-16 0 -26.5 1t-21.5 11.5t-9 28.5q8 45 72 45h251q18 0 28.5 -1t21 -12t6.5 -32q-6 -41 -70 -41h-74l-77 -471h491l78 471h-74q-18 0 -28.5 1t-20.5 11.5t-8 30.5q8 43 72 43h251q18 0 28.5 -1t21 -12t6.5 -32q-6 -41 -70 -41h-74 l-180 -1079h74q18 0 28.5 -1t20.5 -11.5t8 -30.5q-8 -43 -71 -43h-252q-18 0 -28.5 1t-21 12.5t-6.5 31.5q6 41 70 41h74l88 522h-492l-88 -522h74q18 0 28.5 -1t20.5 -11.5t8 -30.5q-8 -43 -71 -43h-252q-16 0 -26.5 1t-22 11.5t-7.5 30.5zM496 1432q6 33 30.5 53t55 20 t49 -21.5t12.5 -51.5q-4 -31 -29.5 -52.5t-56.5 -21.5t-48 21.5t-13 52.5zM907 1432q6 33 31 53t55.5 20t49 -21.5t12.5 -51.5q-4 -31 -30 -52.5t-56.5 -21.5t-48 21.5t-13.5 52.5z" />
<glyph unicode="&#x1e27;" d="M37 43q6 43 72 43h114l180 1079h-116q-16 0 -26.5 1t-22 11.5t-9.5 28.5q8 45 74 45h154q41 0 50 -13t3 -52l-76 -445q168 141 324 142q254 0 207 -283l-86 -514h114q18 0 28.5 -1t22 -11.5t9.5 -30.5q-8 -43 -72 -43h-324q-16 0 -27.5 1t-22.5 11.5t-7 30.5q6 43 72 43 h104l84 502q18 111 -9.5 160t-119.5 49q-104 0 -208.5 -79t-131.5 -235l-65 -397h114q18 0 28.5 -1t22 -11.5t9.5 -30.5q-8 -43 -72 -43h-336q-16 0 -26.5 1t-21.5 11.5t-7 30.5zM496 1432q6 33 30.5 53t55 20t49 -21.5t12.5 -51.5q-4 -31 -29.5 -52.5t-56.5 -21.5t-48 21.5 t-13 52.5zM907 1432q6 33 31 53t55.5 20t49 -21.5t12.5 -51.5q-4 -31 -30 -52.5t-56.5 -21.5t-48 21.5t-13.5 52.5z" />
<glyph unicode="&#x1e2a;" d="M57 43q6 43 70 43h74l180 1079h-74q-16 0 -26.5 1t-21.5 11.5t-9 28.5q8 45 72 45h251q18 0 28.5 -1t21 -12t6.5 -32q-6 -41 -70 -41h-74l-77 -471h491l78 471h-74q-18 0 -28.5 1t-20.5 11.5t-8 30.5q8 43 72 43h251q18 0 28.5 -1t21 -12t6.5 -32q-6 -41 -70 -41h-74 l-180 -1079h74q18 0 28.5 -1t20.5 -11.5t8 -30.5q-8 -43 -71 -43h-252q-18 0 -28.5 1t-21 12.5t-6.5 31.5q6 41 70 41h74l88 522h-492l-88 -522h74q18 0 28.5 -1t20.5 -11.5t8 -30.5q-8 -43 -71 -43h-252q-16 0 -26.5 1t-22 11.5t-7.5 30.5zM143 -254q6 45 54 45 q29 0 32 -22q8 -82 256 -82t285 82q12 23 41 22q43 0 37 -45q-8 -53 -47 -87t-105.5 -46t-109.5 -15.5t-115 -3.5t-114 3.5t-104.5 15.5t-90 46t-19.5 87z" />
<glyph unicode="&#x1e2b;" d="M37 43q6 43 72 43h114l180 1079h-116q-16 0 -26.5 1t-22 11.5t-9.5 28.5q8 45 74 45h154q41 0 50 -13t3 -52l-76 -445q168 141 324 142q254 0 207 -283l-86 -514h114q18 0 28.5 -1t22 -11.5t9.5 -30.5q-8 -43 -72 -43h-324q-16 0 -27.5 1t-22.5 11.5t-7 30.5q6 43 72 43 h104l84 502q18 111 -9.5 160t-119.5 49q-104 0 -208.5 -79t-131.5 -235l-65 -397h114q18 0 28.5 -1t22 -11.5t9.5 -30.5q-8 -43 -72 -43h-336q-16 0 -26.5 1t-21.5 11.5t-7 30.5zM143 -254q6 45 54 45q29 0 32 -22q8 -82 256 -82t285 82q12 23 41 22q43 0 37 -45 q-8 -53 -47 -87t-105.5 -46t-109.5 -15.5t-115 -3.5t-114 3.5t-104.5 15.5t-90 46t-19.5 87z" />
<glyph unicode="&#x1e36;" d="M80 43q6 43 70 43h98l180 1079h-98q-18 0 -28.5 1t-21 11.5t-8.5 28.5q8 45 72 45h342q16 0 27.5 -1t23 -12t6.5 -32q-6 -41 -71 -41h-140l-180 -1079h553l29 168q2 20 6 32.5t17.5 22.5t37.5 10q35 0 42 -21.5t-1 -43.5l-32 -188q-6 -39 -20.5 -52.5t-53.5 -13.5h-795 q-18 0 -28.5 1t-20.5 11.5t-6 30.5zM397 -338q6 35 35 59.5t63.5 24.5t55 -24.5t14.5 -59.5q-6 -37 -34.5 -61.5t-63.5 -24.5t-55.5 24.5t-14.5 61.5z" />
<glyph unicode="&#x1e37;" d="M133 43q6 43 72 43h295l180 1079h-297q-16 0 -26.5 1t-21.5 11.5t-9 28.5q8 45 73 45h336q39 0 49.5 -13t3.5 -52l-184 -1100h297q18 0 28.5 -1t21 -11.5t7.5 -30.5q-8 -43 -71 -43h-699q-16 0 -26 1t-21.5 11.5t-7.5 30.5zM397 -338q6 35 35 59.5t63.5 24.5t55 -24.5 t14.5 -59.5q-6 -37 -34.5 -61.5t-63.5 -24.5t-55.5 24.5t-14.5 61.5z" />
<glyph unicode="&#x1e38;" d="M80 43q6 43 70 43h98l180 1079h-98q-18 0 -28.5 1t-21 11.5t-8.5 28.5q8 45 72 45h342q16 0 27.5 -1t23 -12t6.5 -32q-6 -41 -71 -41h-140l-180 -1079h553l29 168q2 20 6 32.5t17.5 22.5t37.5 10q35 0 42 -21.5t-1 -43.5l-32 -188q-6 -39 -20.5 -52.5t-53.5 -13.5h-795 q-18 0 -28.5 1t-20.5 11.5t-6 30.5zM170 1444q8 45 72 45h630q18 0 28.5 -1t21 -12.5t6.5 -33.5q-6 -43 -70 -43h-629q-18 0 -29.5 1t-21.5 12.5t-8 31.5zM397 -338q6 35 35 59.5t63.5 24.5t55 -24.5t14.5 -59.5q-6 -37 -34.5 -61.5t-63.5 -24.5t-55.5 24.5t-14.5 61.5z" />
<glyph unicode="&#x1e39;" d="M133 43q6 43 72 43h295l180 1079h-297q-16 0 -26.5 1t-21.5 11.5t-9 28.5q8 45 73 45h336q39 0 49.5 -13t3.5 -52l-184 -1100h297q18 0 28.5 -1t21 -11.5t7.5 -30.5q-8 -43 -71 -43h-699q-16 0 -26 1t-21.5 11.5t-7.5 30.5zM297 1444q8 45 72 45h630q18 0 28.5 -1 t21 -12.5t6.5 -33.5q-6 -43 -70 -43h-629q-18 0 -29.5 1t-21.5 12.5t-8 31.5zM397 -338q6 35 35 59.5t63.5 24.5t55 -24.5t14.5 -59.5q-6 -37 -34.5 -61.5t-63.5 -24.5t-55.5 24.5t-14.5 61.5z" />
<glyph unicode="&#x1e42;" d="M47 43q2 20 18.5 29.5t36 11.5t64.5 2l180 1079q-35 0 -50 1t-31.5 4.5t-21.5 12.5t-3 25q8 43 71 43h119q78 0 84 -37l107 -696h4l323 664q18 37 41 53t72 16h119q16 0 26.5 -1t21.5 -11t7 -31q-2 -20 -18.5 -29.5t-36 -11.5t-64.5 -2l-180 -1079q35 0 50 -1t31.5 -4 t21.5 -12.5t3 -25.5q-8 -43 -71 -43h-174q-16 0 -26.5 1t-22 11.5t-7.5 30.5q2 20 18.5 29.5t36 11.5t64.5 2l180 1079h-14l-344 -698q-16 -35 -74 -35q-49 0 -57 27l-113 706h-14l-180 -1079q35 0 49 -1t30.5 -4t21.5 -12.5t3 -25.5q-8 -43 -72 -43h-174q-16 0 -26 1 t-21.5 11.5t-7.5 30.5zM397 -338q6 35 35 59.5t63.5 24.5t55 -24.5t14.5 -59.5q-6 -37 -34.5 -61.5t-63.5 -24.5t-55.5 24.5t-14.5 61.5z" />
<glyph unicode="&#x1e43;" d="M6 43q4 31 28.5 37t94.5 6l117 698q-70 0 -92.5 6.5t-18.5 36.5q8 43 74 43h67q20 0 29.5 -3t19 -23.5t5.5 -61.5q125 100 213 101q96 0 133 -131q117 131 237 131q57 0 90 -33t38.5 -86t4 -84t-5.5 -59l-90 -535q70 0 92.5 -6t18.5 -37q-8 -43 -74 -43h-158q-16 0 -27 1 t-22.5 11.5t-7.5 30.5q2 20 17.5 30.5t30 11.5t46.5 1l86 516q18 111 1 153t-62 42q-78 0 -149.5 -82t-94.5 -228l-67 -401q70 0 92 -6t18 -37q-8 -43 -74 -43h-157q-16 0 -27.5 1t-23 11.5t-7.5 30.5q2 20 17.5 30.5t30 11.5t47.5 1l86 516q18 111 0.5 153t-62.5 42 q-76 0 -146.5 -82t-92.5 -228l-68 -401q70 0 92.5 -6t18.5 -37q-8 -43 -74 -43h-187q-16 0 -26 1t-22.5 11.5t-8.5 30.5zM397 -338q6 35 35 59.5t63.5 24.5t55 -24.5t14.5 -59.5q-6 -37 -34.5 -61.5t-63.5 -24.5t-55.5 24.5t-14.5 61.5z" />
<glyph unicode="&#x1e44;" d="M70 45q6 41 69 41h76l180 1079h-76q-18 0 -28 1t-20.5 11.5t-8.5 30.5q8 43 72 43h145q27 0 42.5 -3t27.5 -17t18 -41l226 -1104h18l180 1079h-73q-16 0 -26.5 1t-22 11.5t-9.5 28.5q8 45 72 45h225q18 0 28.5 -1t21 -12t5.5 -32q-6 -41 -69 -41h-76l-184 -1099 q-8 -43 -22.5 -54.5t-55.5 -11.5q-27 0 -41 3t-28.5 16.5t-20.5 41.5l-226 1104h-18l-180 -1079h74q18 0 28 -1t20.5 -11.5t8.5 -30.5q-8 -43 -72 -43h-225q-18 0 -28.5 1t-20.5 12.5t-6 31.5zM694 1442q6 35 35 60.5t63.5 25.5t55 -25.5t14.5 -60.5t-34.5 -59.5 t-63.5 -24.5t-55.5 24.5t-14.5 59.5z" />
<glyph unicode="&#x1e45;" d="M37 43q6 43 72 43h114l117 698h-117q-16 0 -26.5 1t-21.5 11.5t-9 28.5q8 45 74 45h153q45 0 51.5 -25.5t-10.5 -103.5q168 141 324 142q254 0 207 -283l-86 -514h114q18 0 28.5 -1t22 -11.5t9.5 -30.5q-8 -43 -72 -43h-324q-16 0 -27.5 1t-22.5 11.5t-7 30.5q6 43 72 43 h104l84 502q18 111 -9.5 160t-119.5 49q-104 0 -208.5 -79t-131.5 -235l-65 -397h114q18 0 28.5 -1t22 -11.5t9.5 -30.5q-8 -43 -72 -43h-336q-16 0 -26.5 1t-21.5 11.5t-7 30.5zM647 1153q6 37 35 61.5t63.5 24.5t55 -24.5t14.5 -61.5q-6 -35 -34.5 -59.5t-63.5 -24.5 t-55.5 24.5t-14.5 59.5z" />
</font>
</defs>
</svg>
