<?xml version="1.0" standalone="no"?>
<!DOCTYPE svg PUBLIC "-//W3C//DTD SVG 1.1//EN" "http://www.w3.org/Graphics/SVG/1.1/DTD/svg11.dtd" >
<svg xmlns="http://www.w3.org/2000/svg">
<metadata>
This is a custom SVG webfont generated by Font Squirrel.
Copyright   : Copyright 2003 2008 B Jackowski and J M Nowacki on behalf of TeX users groups This work is released under the GUST Font License   see httptugorgfontslicensesGUSTFONTLICENSEtxt for details
</metadata>
<defs>
<font id="webfonthGALy9HT" horiz-adv-x="1075" >
<font-face units-per-em="2048" ascent="1593" descent="-455" />
<missing-glyph horiz-adv-x="716" />
<glyph unicode="IJ" horiz-adv-x="1720" d="M94 61q10 63 92 64h121l168 1001h-121q-23 0 -36 2t-26 16.5t-9 43.5q10 63 92 63h383q25 0 38 -2t25.5 -17t7.5 -44q-10 -61 -92 -62h-121l-167 -1001h120q25 0 38.5 -2t25.5 -17.5t8 -44.5q-10 -61 -92 -61h-383q-23 0 -36 2t-26.5 16t-9.5 43zM825 203q8 47 38 71.5 t69 24.5t60.5 -26.5t15.5 -63.5q-6 -35 -25 -53q49 -53 164 -54q25 0 51.5 5.5t69.5 20.5t74.5 56t41.5 103l142 839h-168q-23 0 -37 2t-27.5 17.5t-9.5 44.5q10 61 94 61h371q23 0 37 -2t27.5 -16t9.5 -43q-10 -63 -94 -64h-62l-143 -852q-23 -135 -138.5 -216t-259.5 -81 q-152 0 -234.5 64t-66.5 162z" />
<glyph unicode="ij" horiz-adv-x="1193" d="M45 61q10 63 92 64h111l106 633h-100q-23 0 -37 2t-27.5 17.5t-9.5 43.5q10 61 94 62h160q51 0 63.5 -17.5t4.5 -66.5l-113 -674h90q25 0 38 -2t26.5 -17.5t9.5 -44.5q-10 -61 -92 -61h-344q-23 0 -36 2t-26.5 16t-9.5 43zM348 1114q6 41 42 72t81 31q41 0 66.5 -31 t17.5 -72q-6 -41 -41 -71.5t-80 -30.5q-41 0 -66.5 30.5t-19.5 71.5zM391 -311q6 43 38 68.5t69 25.5q90 0 71 -109l2 -6q6 -10 60 -10q43 0 76.5 27.5t54 72.5t31 81t16.5 73l141 846h-129q-25 0 -38 2t-26.5 17.5t-8.5 43.5q10 61 94 62h188q51 0 63.5 -17.5t4.5 -66.5 l-150 -895q-14 -84 -51 -164t-114.5 -143.5t-178.5 -63.5q-111 0 -168 42t-45 114zM944 1114q6 41 42 72t81 31q41 0 66.5 -31t17.5 -72q-6 -41 -41 -71.5t-80 -30.5q-41 0 -66.5 30.5t-19.5 71.5z" />
<glyph unicode="fk" horiz-adv-x="1751" d="M45 61q10 63 92 64h111l106 633h-88q-23 0 -36 2t-26.5 16.5t-8.5 42.5q10 63 94 64h86l18 106q23 135 170.5 205t347.5 70q96 0 152 -13h27v-6q16 6 26 6q37 0 44 -27.5t-3 -56.5l-121 -725l410 316h-82q-23 0 -36 2t-26.5 16.5t-9.5 42.5q10 63 92 64h336q23 0 37.5 -2 t27.5 -17.5t9 -44.5q-10 -61 -94 -61h-80l-305 -236l254 -397h71q23 0 37.5 -2t27.5 -17.5t9 -44.5q-10 -61 -94 -61h-258q-25 0 -38 2t-25.5 17.5t-8.5 43.5q10 61 92 62h39l-207 321l-200 -157l-29 -164h111q25 0 38 -2t25 -17.5t8 -44.5q-10 -61 -92 -61h-362 q-25 0 -38 2t-25.5 17.5t-8.5 43.5q10 61 92 62h111l106 633h-454l-107 -633h111q25 0 38 -2t25 -17.5t8 -44.5q-10 -61 -92 -61h-362q-23 0 -36 2t-26.5 16t-9.5 43zM516 883h455l30 188q-23 18 -22 64q-39 4 -105 4q-129 0 -212 -33q-55 -20 -84 -45t-35 -40t-11 -44z" />
<glyph unicode="&#xfb00;" horiz-adv-x="1255" d="M45 61q10 63 92 64h111l106 633h-88q-23 0 -36 2t-26.5 16.5t-8.5 42.5q10 63 94 64h86l18 106q23 137 172.5 206t341.5 69q186 0 230 -62q94 61 217 62q25 0 45 -2t59 -12.5t57.5 -38t12.5 -70.5q-8 -41 -39 -65.5t-64 -24.5q-45 0 -62 35.5t-13 52.5q-195 0 -222 -160 l-16 -96h166q25 0 38 -2t25.5 -17.5t8.5 -44.5q-10 -61 -93 -61h-165l-107 -633h160q25 0 38 -2t25.5 -17.5t8.5 -44.5q-10 -61 -93 -61h-411q-25 0 -38 2t-25.5 17.5t-8.5 43.5q10 61 92 62h111l145 866q4 31 12 58q-33 25 -22 84q-43 6 -107 6q-127 0 -210 -33 q-55 -20 -84 -45t-35 -40t-11 -44l-16 -94h166q25 0 38 -2t25.5 -17.5t8.5 -44.5q-10 -61 -92 -61h-166l-107 -633h111q25 0 38 -2t25 -17.5t8 -44.5q-10 -61 -92 -61h-362q-23 0 -36 2t-26.5 16t-9.5 43z" />
<glyph unicode="&#xfb01;" horiz-adv-x="1193" d="M45 61q10 63 92 64h111l106 633h-88q-23 0 -36 2t-26.5 16.5t-8.5 42.5q10 63 94 64h86l18 106q16 98 107.5 164t192 88.5t200.5 22.5q29 0 51.5 -1t67.5 -10.5t74.5 -25t50 -48t12.5 -79.5q-8 -43 -39 -68.5t-70 -25.5q-37 0 -59.5 25.5t-15.5 66.5q6 20 6 22 q4 18 -113 19q-119 0 -209 -39q-49 -20 -75.5 -43t-31.5 -38t-10 -42l-16 -94h514q51 0 63.5 -17.5t4.5 -66.5l-113 -674h111q25 0 38 -2t25 -17.5t8 -44.5q-10 -61 -92 -61h-362q-25 0 -38 2t-25.5 17.5t-8.5 43.5q10 61 92 62h111l106 633h-454l-107 -633h111q25 0 38 -2 t25 -17.5t8 -44.5q-10 -61 -92 -61h-362q-23 0 -36 2t-26.5 16t-9.5 43z" />
<glyph unicode="&#xfb02;" horiz-adv-x="1193" d="M45 61q10 63 92 64h111l106 633h-88q-23 0 -36 2t-26.5 16.5t-8.5 42.5q10 63 94 64h86l18 106q23 135 170.5 205t347.5 70q96 0 152 -13h27v-6q16 6 26 6q55 0 43 -84l-174 -1042h111q25 0 38 -2t25 -17.5t8 -44.5q-10 -61 -92 -61h-362q-25 0 -38 2t-25.5 17.5 t-8.5 43.5q10 61 92 62h111l106 633h-454l-107 -633h111q25 0 38 -2t25 -17.5t8 -44.5q-10 -61 -92 -61h-362q-23 0 -36 2t-26.5 16t-9.5 43zM516 883h455l30 188q-23 18 -22 64q-39 4 -105 4q-129 0 -212 -33q-55 -20 -84 -45t-35 -40t-11 -44z" />
<glyph unicode="&#xfb03;" horiz-adv-x="1792" d="M45 61q10 63 92 64h111l106 633h-88q-23 0 -36 2t-26.5 16.5t-8.5 42.5q10 63 94 64h86l18 106q16 100 108.5 166t192 87.5t199.5 21.5q197 0 244 -84q152 84 354 84q29 0 51.5 -1t67.5 -10.5t74.5 -25t50 -48t12.5 -79.5q-8 -43 -39 -68.5t-70 -25.5q-37 0 -59.5 25.5 t-15.5 66.5l6 22q4 18 -113 19q-119 0 -209 -39q-49 -20 -75.5 -43t-31.5 -38t-10 -42l-16 -94h514q51 0 63.5 -17.5t4.5 -66.5l-113 -674h111q25 0 38 -2t25 -17.5t8 -44.5q-10 -61 -92 -61h-362q-25 0 -38 2t-25.5 17.5t-8.5 43.5q10 61 92 62h111l106 633h-454l-107 -633 h111q25 0 38 -2t25.5 -17.5t7.5 -44.5q-10 -61 -92 -61h-362q-23 0 -36 2t-26.5 16.5t-9.5 42.5q10 63 92 64h111l106 633h-456l-107 -633h111q25 0 38 -2t25 -17.5t8 -44.5q-10 -61 -92 -61h-362q-23 0 -36 2t-26.5 16t-9.5 43zM516 883h457l22 137q-37 25 -28 78 q6 20 6 22q4 18 -113 19q-123 0 -211 -39q-49 -20 -74.5 -43t-31.5 -38t-11 -42z" />
<glyph unicode="&#xfb04;" horiz-adv-x="1792" d="M45 61q10 63 92 64h111l106 633h-88q-23 0 -36 2t-26.5 16.5t-8.5 42.5q10 63 94 64h86l18 106q16 94 98 157.5t188.5 90.5t229.5 27q98 0 155.5 -14.5t82.5 -63.5q150 78 362 78q96 0 152 -13h27v-6q16 6 26 6q55 0 43 -84l-174 -1042h111q25 0 38 -2t25 -17.5t8 -44.5 q-10 -61 -92 -61h-362q-25 0 -38 2t-25.5 17.5t-8.5 43.5q10 61 92 62h111l106 633h-454l-107 -633h111q25 0 38 -2t25.5 -17.5t7.5 -44.5q-10 -61 -92 -61h-362q-23 0 -36 2t-26.5 16.5t-9.5 42.5q10 63 92 64h111l106 633h-456l-107 -633h111q25 0 38 -2t25 -17.5t8 -44.5 q-10 -61 -92 -61h-362q-23 0 -36 2t-26.5 16t-9.5 43zM516 883h457l18 106q4 39 13 60q-33 25 -23 84q-45 6 -109 6q-125 0 -210 -33q-55 -20 -84 -45t-35 -40t-11 -44zM1114 883h455l30 188q-23 18 -22 64q-39 4 -104 4q-129 0 -213 -33q-55 -20 -84 -45t-35 -40t-11 -44z " />
<glyph unicode=" "  horiz-adv-x="716" />
<glyph unicode="&#x09;" horiz-adv-x="716" />
<glyph unicode="&#xa0;" horiz-adv-x="716" />
<glyph unicode="!" horiz-adv-x="598" d="M213 102q8 43 43 73t78 30t67.5 -30t16.5 -73q-6 -43 -41 -72.5t-78 -29.5t-67.5 29.5t-18.5 72.5zM289 430l35 248l65 479q8 49 37 78t49.5 34t36.5 5t34.5 -5t37 -34t10.5 -78q-10 -55 -32.5 -165.5t-31.5 -162.5l-67 -354q-14 -63 -30.5 -80.5t-70.5 -17.5 q-20 0 -33.5 2t-27.5 14t-12 37z" />
<glyph unicode="&#x22;" horiz-adv-x="884" d="M362 813l58 342q14 76 33 92q4 6 10 10q51 39 90 0q6 -4 10 -10q14 -20 0 -92l-57 -342q-2 -20 -19.5 -34.5t-35.5 -14.5h-50q-20 0 -31.5 14.5t-7.5 34.5zM649 813l58 342q14 76 32 92q4 6 11 10q51 39 90 0q6 -4 10 -10q14 -20 0 -92l-57 -342q-2 -20 -19.5 -34.5 t-36.5 -14.5h-49q-20 0 -31.5 14.5t-7.5 34.5z" />
<glyph unicode="#" horiz-adv-x="1792" d="M197 471q12 72 104 72h340l98 168h-409q-20 0 -35.5 2t-33 19.5t-11.5 49.5q12 72 117 72h458l197 338q33 59 82 59q31 0 47 -21.5t12 -49.5q-6 -23 -20 -45l-162 -281h309l197 338q33 59 82 59q31 0 47 -21.5t12 -49.5q-6 -23 -20 -45l-162 -281h264q25 0 42 -2 t36.5 -19.5t13.5 -50.5q-12 -72 -104 -71h-338l-98 -168h407q20 0 35.5 -2t33 -19.5t11.5 -50.5q-10 -72 -115 -72h-456l-201 -340q-33 -59 -82 -59q-31 0 -47.5 21.5t-11.5 50.5q0 12 20 45l166 282h-309l-201 -340q-33 -59 -82 -59q-31 0 -47 21.5t-12 50.5q0 12 20 45 l166 282h-266q-25 0 -42.5 2t-36.5 19.5t-15 50.5zM797 543h309l98 168h-309z" />
<glyph unicode="$" d="M176 340q6 43 30.5 67.5t43 29.5t35.5 5q33 0 57.5 -25.5t17.5 -66.5q-8 -47 -45 -71q16 -139 181 -162l77 475q-94 18 -160.5 54t-92 76t-42 83t-10.5 73.5t4 47.5q20 121 134 218t280 116l12 77q4 25 8.5 38.5t23 29.5t46.5 16q63 0 47 -84l-12 -75 q170 -14 244.5 -106.5t54.5 -219.5q-16 -100 -109 -100q-39 0 -59 26.5t-16 63.5q10 43 43 67q-18 121 -181 142l-69 -426q100 -20 168.5 -65.5t92.5 -96.5t35 -105.5t-1 -91.5q-20 -121 -128 -226.5t-288 -131.5l-12 -78q-4 -25 -8.5 -38t-21.5 -29.5t-46 -16.5 q-66 0 -49 84l12 76q-168 16 -244 115.5t-53 234.5zM406 934q-12 -74 45 -128t147 -71l66 400q-98 -16 -172 -72.5t-86 -128.5zM621 119q100 16 172.5 79.5t87.5 143.5q12 80 -39 141.5t-148 81.5z" />
<glyph unicode="%" horiz-adv-x="1792" d="M289 1024q29 168 136 282.5t230 114.5t191.5 -113.5t40.5 -285.5q-27 -168 -134.5 -282.5t-230.5 -114.5t-192.5 113.5t-40.5 285.5zM330 -98q2 20 28 53l1182 1429q29 37 70 37q31 0 47 -21.5t12 -49.5q-4 -23 -29 -54l-1177 -1423q-35 -43 -74 -43q-29 0 -46 21.5 t-13 50.5zM403 1022q-18 -115 25 -193.5t114.5 -78.5t141.5 78.5t88 195.5q20 115 -22.5 193.5t-114.5 78.5t-143 -78.5t-89 -195.5zM1112 229q27 168 134.5 283t230 115t192.5 -114t41 -286q-29 -168 -136.5 -282.5t-230 -114.5t-191.5 113.5t-40 285.5zM1227 227 q-20 -115 22.5 -193.5t114.5 -78.5t142.5 79t88.5 195q18 115 -24.5 194t-114.5 79t-141.5 -79t-87.5 -196z" />
<glyph unicode="&#x26;" horiz-adv-x="1673" d="M137 283q20 133 158 223l246 153q-43 160 -17 322q23 137 124.5 215t207.5 78q113 0 165 -87t36 -194q-14 -90 -102.5 -177t-270.5 -204q68 -182 221 -336q74 61 142.5 135t119.5 137l164 210h-155q-23 0 -36.5 2t-26.5 16.5t-9 42.5q10 63 92 64h434q25 0 38 -2 t25.5 -17.5t8.5 -44.5q-10 -61 -92 -61h-142l-217 -275q-59 -74 -123 -141q-72 -80 -139 -139q131 -100 277 -101q70 0 131 29t78 84q12 68 67 68l14 -2q14 -2 25.5 -18.5t7.5 -45.5q-14 -92 -110.5 -166t-233.5 -74q-180 0 -362 142q-201 -141 -408 -142 q-162 0 -261.5 86.5t-76.5 219.5zM279 287q-12 -78 51 -131.5t168 -53.5q143 0 303 99q-51 51 -117 149q-72 102 -106 195l-133 -79q-36 -22 -82 -56.5t-62 -61t-22 -61.5zM632 899q-1 -59 15 -170q106 63 195.5 137t99.5 127q8 57 -17.5 106.5t-88.5 49.5q-57 0 -120 -41 t-77 -127q-6 -23 -7 -82z" />
<glyph unicode="'" horiz-adv-x="598" d="M362 813l58 342q14 76 33 92q4 6 10 10q51 39 90 0q6 -4 10 -10q14 -20 0 -92l-57 -342q-2 -20 -19.5 -34.5t-35.5 -14.5h-50q-20 0 -31.5 14.5t-7.5 34.5z" />
<glyph unicode="(" horiz-adv-x="835" d="M279 627q25 147 91 282t144 225.5t159 158t138 98t78 30.5q61 0 53 -57q-2 -12 -5 -19.5t-12.5 -15.5t-14.5 -11l-25 -15q-143 -88 -246.5 -213t-152 -237t-66.5 -226q-33 -190 22.5 -371.5t212.5 -302.5q20 -14 27.5 -20.5t11.5 -17.5t2 -26q-2 -18 -20.5 -37.5 t-52.5 -19.5q-39 0 -123 79t-144 185q-126 236 -77 531z" />
<glyph unicode=")" horiz-adv-x="835" d="M100 -111q4 31 58 62q111 68 196.5 155t139 178t84 175t45.5 168q10 66 11 135t-15.5 169.5t-80 202t-167.5 179.5q-29 18 -25 51q2 18 21.5 37.5t52.5 19.5q39 0 123 -78.5t143 -185.5q127 -236 78 -530q-25 -147 -91.5 -282.5t-144 -225.5t-158.5 -157.5t-138.5 -98.5 t-77.5 -31q-60 0 -54 57z" />
<glyph unicode="*" d="M212 416.5q3 15.5 1 21.5q2 18 14.5 32.5t19.5 18.5l27 17l242 121l-203 121q-45 27 -39 65q4 25 28 46.5t52 21.5q18 0 43 -19l201 -129q6 82 35 248q10 86 82 86q63 0 53 -86q-31 -172 -47 -248l278 148q37 0 55.5 -15.5t15.5 -31t-1 -21.5q-2 -18 -13.5 -32.5 t-20.5 -19.5l-27 -16l-242 -120q211 -123 221 -131q29 -14 21 -56q-4 -25 -28 -46t-52 -21q-20 0 -70 32l-174 115q-6 -82 -35 -248q-10 -86 -82 -86q-63 0 -53 86q31 172 47 248l-278 -147q-37 0 -55.5 15t-15.5 30.5z" />
<glyph unicode="+" horiz-adv-x="1673" d="M223 627q12 72 109 71h549l92 549q16 96 86 96q74 0 57 -96l-92 -549h549q23 0 38 -2t33.5 -19.5t12.5 -49.5q-12 -72 -109 -72h-549l-90 -549q0 -10 -6 -25l-13 -32q-7 -16 -25.5 -27.5t-43.5 -11.5q-47 0 -57 39t2 57l90 549h-549q-23 0 -38 2t-33.5 19.5t-12.5 50.5z " />
<glyph unicode="," horiz-adv-x="598" d="M141 -221q4 27 39 53q88 61 119 168q-45 4 -66.5 27.5t-19.5 44t0 30.5q8 43 42 73t79 30q53 0 81.5 -46t14.5 -139q-20 -121 -104 -213t-129 -92q-25 0 -42.5 20.5t-13.5 43.5z" />
<glyph unicode="-" horiz-adv-x="716" d="M98 442q10 61 92 62h408q25 0 38 -2t25.5 -17.5t8.5 -44.5q-10 -61 -92 -61h-408q-25 0 -38 2t-25.5 17t-8.5 44z" />
<glyph unicode="." horiz-adv-x="598" d="M213 102q8 43 43 73t78 30t67.5 -30t16.5 -73q-6 -43 -41 -72.5t-78 -29.5t-67.5 29.5t-18.5 72.5z" />
<glyph unicode="/" d="M102 -98q2 12 25 49l911 1413q35 57 82 57q31 0 47.5 -21.5t12.5 -49.5q-2 -12 -25 -50l-911 -1413q-35 -57 -82 -57q-31 0 -47.5 21.5t-12.5 50.5z" />
<glyph unicode="0" d="M207 627l14 79q6 34 26.5 106.5t45 126.5t67.5 120.5t95.5 110.5t128 74t166.5 30q432 0 325 -649l-14 -79q-6 -34 -26.5 -106.5t-45 -127t-67.5 -121t-95.5 -110.5t-128 -74t-166.5 -30q-431 1 -325 650zM352 645q-92 -543 201 -543t385 543q82 504 -209 504 q-295 0 -377 -504z" />
<glyph unicode="1" d="M238 61q10 63 92 64h186l158 948q-98 -49 -217 -49q-72 0 -62 61q10 59 72 64q168 8 258 90q35 35 63 35q63 0 48 -84l-179 -1065h187q25 0 38 -2t25.5 -17.5t7.5 -44.5q-10 -61 -92 -61h-514q-23 0 -36 2t-26 16t-9 43z" />
<glyph unicode="2" d="M117 63q6 31 41 56l516 381q268 197 297 374q23 129 -60.5 202t-218.5 73q-84 0 -158.5 -44t-107.5 -114q25 -20 16 -65q-6 -41 -37.5 -66.5t-66.5 -25.5q-33 0 -58.5 23.5t-17.5 74.5q23 135 154 238.5t307 103.5q193 0 306.5 -109.5t82.5 -290.5q-35 -211 -291 -409 q-57 -47 -234 -174l-229 -166h488q6 37 11 52.5t23.5 29.5t53.5 14q45 0 55 -27.5t0 -56.5l-8 -53q-8 -49 -27.5 -66.5t-68.5 -17.5h-695q-25 0 -38 2t-26 17t-9 44z" />
<glyph unicode="3" d="M137 279q8 47 39 71.5t70 24.5t59.5 -26.5t13.5 -63.5q-6 -39 -34 -64q25 -63 107.5 -91t164.5 -28q133 0 230.5 77t113.5 177q16 98 -52.5 177t-211.5 79h-94q-25 0 -38 2t-25.5 17.5t-8.5 44.5q8 41 34.5 51t125.5 16q123 6 200 62q96 72 115 178q12 70 -48 118 t-165 48q-164 0 -239 -64q16 -16 10 -55q-8 -41 -40 -66.5t-67 -25.5t-58.5 24.5t-16.5 71.5q18 109 132.5 174.5t297.5 65.5q172 0 264 -85t71 -204q-33 -190 -221 -301q96 -47 145.5 -134t30.5 -194q-25 -150 -168 -264.5t-337 -114.5q-193 0 -308 83.5t-92 218.5z" />
<glyph unicode="4" d="M131 428q6 43 31 72l588 733q25 31 40 37t54 6h57q51 0 65.5 -16.5t4.5 -67.5l-121 -721h160q25 0 38 -2t25 -17.5t8 -43.5q-10 -61 -92 -62h-160l-36 -221h127q25 0 38 -2t25 -17.5t8 -44.5q-10 -61 -92 -61h-369q-23 0 -36 2t-26 16.5t-9 42.5q10 63 92 64h127l37 221 h-516q-49 0 -62.5 16.5t-5.5 65.5zM281 471h454l121 715z" />
<glyph unicode="5" d="M156 291q8 53 41.5 75.5t66.5 22.5q35 0 58.5 -24.5t15.5 -67.5q-6 -39 -37 -66q45 -129 223 -129q131 0 238.5 83t128.5 204q18 109 -38 196t-175 87q-170 0 -277 -103q-29 -31 -65 -30q-43 0 -52.5 27.5t1.5 56.5l90 544q8 49 27.5 66.5t68.5 17.5h551q25 0 38 -2 t25.5 -17t8.5 -44q-10 -61 -93 -62h-491l-66 -389q121 59 256 60q174 0 266.5 -123t65.5 -285q-29 -170 -183.5 -291t-344.5 -121q-170 0 -270.5 92.5t-77.5 221.5z" />
<glyph unicode="6" d="M211 612q33 199 139.5 353.5t243.5 231.5t276 77q137 0 194.5 -62.5t43.5 -148.5q-8 -45 -39 -70.5t-69.5 -25.5t-60 26.5t-15.5 63.5q6 39 30 59q-27 33 -106 33q-143 0 -283.5 -125t-195.5 -332q152 119 325 119q170 0 267.5 -121t68.5 -295q-31 -180 -176 -299 t-317 -119q-178 0 -279.5 150.5t-46.5 484.5zM342 328q37 -225 215 -226q115 0 213 82t119 211q20 117 -42.5 203t-182.5 86q-117 0 -209.5 -66.5t-108.5 -162.5q-12 -92 -4 -127z" />
<glyph unicode="7" d="M276.5 1057.5q-10.5 27.5 -0.5 56.5l15 86q4 27 9 41t23.5 28.5t51.5 14.5q53 0 59 -33h676q25 0 38 -2t25.5 -17t8.5 -44q-4 -20 -13.5 -30.5t-44.5 -39.5q-55 -47 -111.5 -101t-139 -155.5t-150.5 -212t-130.5 -267.5t-92.5 -323q-14 -82 -84 -82t-56 97 q16 98 52.5 209.5t103 256t182 299t263.5 287.5h-541q-6 -37 -11.5 -52t-23.5 -29.5t-53 -14.5q-45 0 -55.5 27.5z" />
<glyph unicode="8" d="M150 356q18 111 114 198t223 120q-115 39 -170 111.5t-41 160.5q23 129 159 228.5t314.5 99.5t282 -99.5t80.5 -228.5q-14 -88 -93 -159.5t-208 -112.5q115 -35 182.5 -121t48.5 -197q-25 -152 -172 -265.5t-338 -113.5q-188 0 -297.5 113.5t-84.5 265.5zM291 358 q-16 -106 59.5 -181t202.5 -75t229.5 75t118.5 181q16 100 -55.5 177t-206.5 77q-133 0 -232.5 -78t-115.5 -176zM418 944q-14 -86 57.5 -146.5t184 -60.5t204.5 60.5t107 146.5q14 82 -55.5 143.5t-186.5 61.5q-119 0 -208 -61.5t-103 -143.5z" />
<glyph unicode="9" d="M174 188q8 45 39 71t70 26t60.5 -27t14.5 -63q-6 -35 -28 -58q41 -35 129 -35q145 0 276 132.5t178 324.5q-152 -119 -325 -119q-170 0 -267.5 121t-68.5 295q31 180 179.5 299t324.5 119q78 0 142.5 -30t118.5 -102.5t66.5 -195.5t-12.5 -307q-49 -293 -235.5 -477.5 t-397.5 -184.5q-92 0 -152.5 23t-83 59.5t-27.5 67t-1 61.5zM393 856q-20 -117 42.5 -203t182.5 -86q123 0 214.5 71t105.5 159q27 160 -41 264q-53 88 -162 88q-117 0 -219.5 -82t-122.5 -211z" />
<glyph unicode=":" horiz-adv-x="598" d="M213 102q8 43 43 73t78 30t67.5 -30t16.5 -73q-6 -43 -41 -72.5t-78 -29.5t-67.5 29.5t-18.5 72.5zM328 780q6 43 40.5 73t77.5 30t68 -30t18 -73q-8 -43 -42.5 -72.5t-77.5 -29.5t-67.5 29.5t-16.5 72.5z" />
<glyph unicode=";" horiz-adv-x="598" d="M141 -219q2 20 25 39q92 86 117 182q-37 8 -54.5 31.5t-15.5 42t0 26.5q8 43 42 73t79 30q37 0 58.5 -18.5t24.5 -54.5t2 -51t-5 -48q-23 -131 -97.5 -224.5t-119.5 -93.5q-25 0 -42.5 20.5t-13.5 45.5zM328 780q6 43 40.5 73t77.5 30t68 -30t18 -73q-8 -43 -42.5 -72.5 t-77.5 -29.5t-67.5 29.5t-16.5 72.5z" />
<glyph unicode="&#x3c;" d="M219 627q6 37 57 67l744 424q37 20 57 21q27 0 46.5 -19.5t13.5 -52.5q-6 -37 -62 -70l-649 -370l526 -371q43 -31 37 -70q-6 -33 -31.5 -52t-52.5 -19q-20 0 -49 20l-610 428q-33 25 -27 64z" />
<glyph unicode="=" horiz-adv-x="1673" d="M197 471q12 72 104 72h1249q20 0 36 -2t33 -19.5t11 -50.5q-10 -72 -114 -72h-1225q-25 0 -42.5 2t-36.5 19.5t-15 50.5zM250 782q12 72 117 72h1224q25 0 42.5 -2t37 -19.5t12.5 -50.5q-12 -72 -104 -71h-1249q-20 0 -35.5 2t-33 19t-11.5 50z" />
<glyph unicode="&#x3e;" d="M145 186q6 37 62 70l649 371l-526 370q-43 31 -37 70q6 33 31.5 52.5t52.5 19.5q23 0 49 -21l610 -428q33 -25 27 -63.5t-55 -67.5l-746 -424q-35 -20 -57 -20q-27 0 -46.5 19t-13.5 52z" />
<glyph unicode="?" horiz-adv-x="1015" d="M289 1014q16 102 123.5 176t285.5 74q121 0 202 -26t115 -68t44 -80.5t4 -79.5q-20 -123 -156 -195q-109 -59 -177 -133t-89 -188l-6 -35q-8 -51 -27.5 -66.5t-66.5 -15.5q-57 0 -67.5 23.5t1.5 82.5q10 55 24.5 95t50.5 99.5t109.5 120t184.5 120.5q70 43 78 92 q10 55 -50.5 92t-193.5 37q-147 0 -219 -72q16 -25 10 -57q-6 -41 -38 -66.5t-66 -25.5q-37 0 -60.5 25.5t-15.5 70.5zM391 102q8 43 43 73t78 30t67.5 -30t16.5 -73q-6 -43 -41 -72.5t-78 -29.5t-67.5 29.5t-18.5 72.5z" />
<glyph unicode="@" horiz-adv-x="1433" d="M223 627q43 262 284 449.5t535 187.5q481 0 379 -617q-35 -209 -174 -319.5t-284 -110.5q-158 0 -252.5 119t-65.5 291q29 168 161 287.5t294 119.5q115 0 203 -67q-27 88 -91 125q-72 47 -190 47q-246 0 -447.5 -150.5t-236.5 -363.5q-35 -207 114.5 -359.5 t399.5 -152.5q176 0 348 88q37 20 72 20q18 0 30.5 -2t26.5 -15.5t10 -39.5q-2 -25 -17 -37t-50 -29q-213 -111 -438 -110q-301 0 -477.5 187.5t-133.5 451.5zM760 625q-18 -115 46 -199t179 -84q109 0 203 83t115 202q18 115 -46.5 198.5t-179.5 83.5q-109 0 -203 -82.5 t-114 -201.5z" />
<glyph unicode="A" horiz-adv-x="1552" d="M94 63q10 61 92 62h95l567 1083q16 31 39.5 47.5t39 18.5t42.5 2h39q29 0 43 -2t30.5 -18.5t22.5 -49.5l207 -1081h94q25 0 38 -2t25 -18q9 -12 10 -30q0 -6 -1 -14q-10 -61 -93 -61h-325q-23 0 -37 2t-27.5 17.5t-9.5 43.5q10 61 94 62h82l-43 227h-567l-121 -227h82 q23 0 37 -2t27.5 -17.5t9.5 -44.5q-10 -61 -94 -61h-326q-25 0 -38 2t-26 17q-9 12 -9 31q0 6 1 13zM616 477h478l-129 668z" />
<glyph unicode="B" horiz-adv-x="1492" d="M104 61q10 63 93 64h110l168 1001h-110q-23 0 -36.5 2t-26.5 16.5t-9 43.5q10 63 92 63h662q201 0 322 -95q103 -80 103 -183q0 -19 -4 -39q-16 -102 -120.5 -175t-231.5 -104q166 -31 249 -117q68 -71 68 -157q0 -19 -3 -39q-23 -135 -177.5 -238.5t-357.5 -103.5h-719 q-23 0 -36 2t-26 16q-10 11 -11 31q0 5 1 12zM449 125h409q162 0 289 63.5t141 157.5q2 14 3 28q0 79 -80 141q-93 73 -242 73h-443zM547 713h340q176 0 301 65.5t139 153.5q2 10 2 19q0 66 -77 117q-87 58 -230 58h-406z" />
<glyph unicode="C" horiz-adv-x="1552" d="M223 627q43 262 282.5 454.5t543.5 192.5q272 0 411 -127q41 63 51 76q31 51 72 51q50 0 51 -53q0 -14 -4 -31l-47 -285q-6 -29 -10 -42t-23.5 -27.5t-52.5 -14.5q-57 0 -59 47q-2 29 -4 38t-9.5 39t-18.5 47.5t-34.5 42t-54.5 44.5q-109 70 -275 70 q-250 0 -445.5 -155.5t-231.5 -366.5q-7 -42 -7 -81q0 -162 115 -288q143 -156 397 -156q178 0 301 58q147 66 179 192q14 59 80 60q18 0 29 -2t23.5 -18.5t6.5 -47.5q-27 -160 -205 -263.5t-448 -103.5q-309 0 -484 193q-138 153 -138 351q0 52 9 106z" />
<glyph unicode="D" horiz-adv-x="1613" d="M104 61q10 63 93 64h110l168 1001h-110q-23 0 -36.5 2t-26.5 16.5t-9 43.5q10 63 92 63h659q270 0 433 -187q127 -147 126 -339q0 -54 -10 -111q-41 -252 -263 -433t-494 -181h-660q-23 0 -36 2t-26 16q-10 11 -11 31q0 5 1 12zM449 125h370q231 0 414.5 144.5 t218.5 346.5q7 42 7 83q0 154 -105 275q-133 153 -369 152h-369z" />
<glyph unicode="E" horiz-adv-x="1433" d="M104 61q10 63 93 64h110l168 1001h-110q-23 0 -36.5 2t-26.5 16.5t-9 43.5q10 63 92 63h1055q51 0 63 -17q7 -10 8 -32q0 -15 -4 -35l-24 -149q-4 -27 -9.5 -41t-24.5 -28.5t-52 -14.5q-45 0 -55.5 27.5t-0.5 56.5l19 108h-744l-69 -415h407q6 41 10.5 55t13.5 32.5 t24.5 23.5t41.5 5q47 0 55.5 -21.5t2.5 -62.5l-33 -190q-4 -27 -9 -41t-23.5 -28.5t-51.5 -14.5q-49 0 -57 27q-3 10 -3 24q0 25 9 66h-408l-77 -461h802l25 141q4 27 9 41.5t24.5 28.5t52.5 14q45 0 55 -27.5t0 -56.5l-31 -182q-8 -49 -27.5 -66.5t-68.5 -17.5h-1114 q-23 0 -36 2t-26 16q-10 11 -11 31q0 5 1 12z" />
<glyph unicode="F" horiz-adv-x="1374" d="M104 61q10 63 93 64h110l168 1001h-110q-23 0 -36.5 2t-26.5 16.5t-9 43.5q10 63 92 63h1024q51 0 64 -17q7 -10 7 -32q0 -15 -3 -35l-25 -149q-4 -27 -9 -41t-24.5 -28.5t-52.5 -14.5q-45 0 -55.5 27.5t0.5 56.5l18 108h-713l-73 -438h395q8 49 14 69.5t24.5 34 t53.5 13.5q45 0 55.5 -27.5t-0.5 -56.5l-32 -191q-4 -27 -9.5 -41t-24 -28.5t-50.5 -14.5q-49 0 -58 27q-3 10 -3 24q0 25 10 66h-396l-73 -438h159q25 0 38 -2t25.5 -17.5t8.5 -44.5q-10 -61 -92 -61h-412q-23 0 -36 2t-26 16q-10 11 -11 31q0 5 1 12z" />
<glyph unicode="G" horiz-adv-x="1673" d="M223 627q43 262 282.5 454.5t543.5 192.5q272 0 411 -127q41 63 51 76q31 51 72 51q50 0 51 -53q0 -14 -4 -31l-47 -285q-6 -29 -10 -42t-23.5 -27.5t-52.5 -14.5q-57 0 -59 47q-2 29 -4 38t-9.5 39t-18.5 47.5t-34.5 42t-54.5 44.5q-109 70 -275 70 q-248 0 -445.5 -154.5t-231.5 -369.5q-7 -42 -7 -82q0 -164 116 -287q144 -154 384 -154q166 0 305.5 91.5t192.5 234.5h-180q-25 0 -38.5 2t-25.5 17.5t-8 44.5q10 61 92 61h393q25 0 38 -2t27 -17q10 -12 10 -32q0 -6 -1 -13q-10 -61 -94 -61h-66l-57 -344q-4 -27 -9 -41 t-23.5 -28.5t-51.5 -14.5q-47 0 -57.5 26.5t0.5 57.5l12 74q-211 -180 -490 -181q-295 0 -472 191q-141 152 -141 353q0 52 9 106z" />
<glyph unicode="H" horiz-adv-x="1552" d="M104 61q10 63 93 64h110l168 1001h-110q-23 0 -36.5 2t-26.5 16.5t-9 43.5q10 63 92 63h363q25 0 38 -2t25 -17t8 -44q-10 -61 -92 -62h-111l-69 -413h694l70 413h-111q-23 0 -36 2t-26.5 16.5t-9.5 43.5q10 63 93 63h362q25 0 38 -2t26 -17q9 -12 9 -31q0 -6 -1 -13 q-10 -61 -92 -62h-111l-168 -1001h111q25 0 38 -2t25 -17.5t8 -44.5q-10 -61 -92 -61h-362q-23 0 -36 2t-26.5 16.5t-9.5 42.5q10 63 92 64h111l78 463h-695l-77 -463h110q25 0 38 -2t25.5 -17.5t8.5 -44.5q-10 -61 -92 -61h-363q-23 0 -36 2t-26 16q-10 11 -11 31q0 5 1 12 z" />
<glyph unicode="I" horiz-adv-x="716" d="M94 61q10 63 92 64h121l168 1001h-121q-23 0 -36 2t-26 16.5t-9 43.5q10 63 92 63h383q25 0 38 -2t25 -17q9 -12 9 -31q0 -6 -1 -13q-10 -61 -92 -62h-121l-167 -1001h120q25 0 38.5 -2t25.5 -17.5t8 -44.5q-10 -61 -92 -61h-383q-23 0 -36 2t-27 16q-10 11 -10 31 q0 5 1 12z" />
<glyph unicode="J" d="M180 203q8 47 38 71.5t69 24.5t60 -27q17 -21 17 -47q0 -8 -2 -16q-6 -35 -24 -53q49 -53 164 -54q25 0 51.5 5.5t69.5 20.5t74.5 56t41.5 103l142 839h-168q-23 0 -37 2t-27.5 17.5t-9.5 44.5q10 61 94 61h371q23 0 37 -2t27 -16q10 -11 11 -30q0 -6 -1 -13 q-10 -63 -95 -64h-61l-143 -852q-23 -135 -138.5 -216t-259.5 -81q-152 0 -234 64q-69 53 -69 130q-1 16 2 32z" />
<glyph unicode="K" horiz-adv-x="1613" d="M119 61q10 63 92 64h111l167 1001h-110q-23 0 -36 2t-26.5 16.5t-9.5 43.5q10 63 92 63h336q25 0 38 -2t25.5 -17t8.5 -44q-10 -61 -92 -62h-111l-98 -589l823 589q-45 0 -63.5 2t-30.5 16.5t-8 45.5q10 61 92 61h297q23 0 37 -2t27 -17q10 -12 11 -31q0 -6 -1 -13 q-10 -61 -95 -62h-82l-552 -395l423 -606h74q23 0 37 -2t27.5 -17.5t9.5 -44.5q-10 -61 -94 -61h-258q-23 0 -36.5 2t-26.5 16.5t-9 42.5q4 31 22.5 45.5t38 16.5t64.5 2l-375 534l-377 -270l-45 -264h111q25 0 38 -2t25.5 -17.5t7.5 -44.5q-10 -61 -92 -61h-336 q-23 0 -36 2t-26 16q-10 11 -10 31q0 5 1 12z" />
<glyph unicode="L" horiz-adv-x="1314" d="M104 61q10 63 93 64h110l168 1001h-110q-23 0 -36.5 2t-26.5 16.5t-9 43.5q10 63 92 63h412q25 0 38 -2t25 -17t8 -44q-10 -61 -92 -62h-160l-167 -1001h653l24 141q4 27 9.5 42.5t25 28.5t51.5 13q47 0 57 -26q4 -13 4 -27q0 -15 -5 -31l-31 -182q-8 -49 -27.5 -66.5 t-68.5 -17.5h-965q-23 0 -36 2t-26 16q-10 11 -11 31q0 5 1 12z" />
<glyph unicode="M" horiz-adv-x="1910" d="M119 61q10 63 92 64h111l167 1001h-110q-23 0 -36 2t-26.5 16.5t-9.5 43.5q10 63 92 63h197q51 0 72.5 -15t33.5 -60l279 -1022l618 1026q20 33 46 50t41.5 19t44.5 2h196q25 0 38 -2t26 -17q9 -12 9 -31q0 -6 -1 -13q-10 -61 -92 -62h-111l-168 -1001h111q25 0 38 -2 t25.5 -17.5t7.5 -44.5q-10 -61 -92 -61h-336q-25 0 -38 2t-25 17.5t-8 43.5q10 61 92 62h110l166 991h-2l-616 -1022q-43 -72 -102.5 -71.5t-77.5 75.5l-277 1018h-2l-166 -991h111q25 0 38 -2t25.5 -17.5t7.5 -44.5q-10 -61 -92 -61h-336q-23 0 -36 2t-26 16q-10 11 -10 31 q0 5 1 12z" />
<glyph unicode="N" horiz-adv-x="1552" d="M119 61q10 63 92 64h111l167 1001h-110q-23 0 -36 2t-26.5 16.5t-9.5 43.5q10 63 92 63h195q29 0 44 -2t36.5 -18.5t36.5 -48.5l440 -1078h2l170 1022h-111q-23 0 -36 2t-26 16.5t-9 43.5q10 63 92 63h336q25 0 38 -2t25 -17q9 -12 9 -31q0 -6 -1 -13q-10 -61 -92 -62 h-110l-174 -1042q-8 -53 -27.5 -68.5t-71.5 -15.5q-29 0 -44 2t-36.5 18.5t-35.5 49.5l-441 1077h-2l-170 -1022h111q25 0 38 -2t25.5 -17.5t7.5 -44.5q-10 -61 -92 -61h-336q-23 0 -36 2t-26 16q-10 11 -10 31q0 5 1 12z" />
<glyph unicode="O" horiz-adv-x="1673" d="M223 627q43 262 284 454.5t542 192.5q299 0 476 -191q141 -152 141 -353q0 -51 -9 -105q-43 -262 -283.5 -455t-542.5 -193q-299 0 -476 191q-141 152 -141 353q0 52 9 106zM369 649q-8 -46 -8 -90q0 -167 111 -295q140 -162 380 -162t435.5 162t232.5 385q7 40 6 78 q0 156 -115 274q-143 147 -383 147.5t-432 -147t-227 -352.5z" />
<glyph unicode="P" horiz-adv-x="1433" d="M104 61q10 63 93 64h110l168 1001h-110q-23 0 -36.5 2t-26.5 16.5t-9 43.5q10 63 92 63h631q215 0 342 -111q105 -92 105 -212q0 -25 -5 -51q-25 -152 -188.5 -263.5t-378.5 -111.5h-379l-63 -377h110q25 0 38 -2t25.5 -17.5t8.5 -44.5q-10 -61 -92 -61h-363q-23 0 -36 2 t-26 16q-10 11 -11 31q0 5 1 12zM532 627h345q168 0 295.5 74.5t144.5 175.5q2 14 2 27q0 85 -88 149q-102 74 -270 73h-345z" />
<glyph unicode="Q" horiz-adv-x="1673" d="M223 627q43 262 284 454.5t542 192.5q299 0 476 -191q141 -152 141 -353q0 -51 -9 -105q-8 -55 -30.5 -114.5t-71 -141.5t-141.5 -165t-220 -147l180 -243q35 -49 35 -62q0 -36 -70 -37q-37 0 -53 6.5t-35 30.5l-166 223l-24 33l-17 -4q-109 -27 -213 -27 q-299 0 -476 191q-141 152 -141 353q0 52 9 106zM365 625q-7 -42 -7 -83q0 -161 112 -285q140 -155 382 -155l131 13l-133 190q4 23 14 32t21.5 11t38.5 2q35 0 43 -3t24 -19q4 -6 42 -58l85 -112q156 63 264.5 190t133.5 279q7 42 6 82q0 161 -112 285q-140 155 -382 155 q-240 0 -434 -153.5t-229 -370.5z" />
<glyph unicode="R" horiz-adv-x="1552" d="M104 61q10 63 93 64h110l168 1001h-110q-23 0 -36.5 2t-26.5 16.5t-9 43.5q10 63 92 63h549q225 0 375 -100q128 -86 128 -204q0 -19 -3 -40q-14 -84 -89 -157.5t-194 -120.5q70 -39 100 -94q23 -43 23 -78t-17 -127q-17 -65 -16 -116q0 -24 3 -45q11 -67 85 -67 q82 0 107 93q16 61 80 61q16 0 28 -2t25 -17q9 -12 9 -31q0 -6 -1 -13q-14 -80 -90 -148t-178 -68q-131 0 -183 93q-30 53 -29 113q0 55 17 139q13 65 13 101q0 14 -2 24q-7 36 -60 69q-86 47 -250 47h-293l-73 -438h110q25 0 38 -2t25.5 -17.5t8.5 -44.5q-10 -61 -92 -61 h-363q-23 0 -36 2t-26 16q-10 11 -11 31q0 5 1 12zM543 688h278q170 0 312.5 62.5t158.5 156.5q2 10 2 20q0 81 -108 137q-121 62 -291 62h-279z" />
<glyph unicode="S" horiz-adv-x="1193" d="M129 61l45 271q4 27 9 41t24.5 28.5t52.5 14.5q59 0 59 -51q0 -8 -2 -17q-1 -16 -1 -31q0 -47 15 -79q19 -43 68 -78q90 -57 265 -58q133 0 225 70t106 160q2 15 3 29q0 24 -7 47q-10 37 -24 53l-13 16q-41 41 -75.5 54.5t-135.5 35.5l-84 19q-154 33 -213 55.5 t-108 75.5q-68 77 -68 173q0 23 4 48q23 135 158 235.5t322 100.5q209 0 313 -105q37 72 51.5 88.5t46.5 16.5q50 0 51 -53q0 -14 -4 -31l-45 -270q-4 -27 -9 -41.5t-24.5 -28.5t-52.5 -14q-29 0 -42 10t-15 20.5t-4 34.5q-4 248 -289 248q-125 0 -217 -61.5t-104 -141.5 q-3 -16 -3 -30q0 -61 49 -101q60 -49 124 -63l292 -64q133 -29 206 -127q57 -77 57 -168q0 -26 -5 -53q-25 -143 -159.5 -253t-329.5 -110q-250 0 -369 99q-33 -63 -48 -81t-48 -18q-50 0 -50 54q0 13 3 30z" />
<glyph unicode="T" horiz-adv-x="1552" d="M248 962q-5 14 -5 28t5 28l24 149q10 51 28.5 67.5t70.5 16.5h1228q51 0 64 -17q7 -10 7 -32q0 -15 -3 -35l-25 -149q-4 -27 -9 -41t-24.5 -28.5t-52.5 -14.5q-45 0 -55 27.5t0 56.5l19 108h-486l-168 -1001h191q23 0 37 -2t27.5 -17.5t8.5 -44.5q-10 -61 -94 -61h-522 q-23 0 -37 2t-27.5 17.5t-9.5 43.5q10 61 95 62h190l168 1001h-485l-19 -108q-4 -27 -9 -41t-24.5 -28.5t-52.5 -14.5q-45 0 -55 28z" />
<glyph unicode="U" horiz-adv-x="1552" d="M293 1188q10 63 92 63h363q25 0 38 -2t25 -17t8 -44q-10 -61 -92 -62h-111l-116 -692q-5 -34 -5 -64q0 -114 72 -182q92 -86 226 -86q129 0 251.5 86t149.5 246l117 692h-111q-23 0 -36 2t-26.5 16.5t-9.5 43.5q10 63 93 63h362q25 0 38 -2t26 -17q9 -12 9 -31 q0 -6 -1 -13q-10 -61 -92 -62h-111l-119 -704q-31 -188 -195.5 -316.5t-367.5 -128.5q-199 0 -321 127q-98 102 -99 244q0 36 6 74l119 704h-110q-23 0 -36.5 2t-26.5 17q-10 11 -10 30q0 6 1 13z" />
<glyph unicode="V" horiz-adv-x="1552" d="M256 1190q10 61 92 61h316q25 0 38 -2t26 -17t9 -44q-10 -61 -94 -62h-80l232 -1022l569 1022h-80q-23 0 -37 2t-27.5 16.5t-9.5 43.5q10 63 95 63h315q25 0 38 -2t25 -17q9 -12 10 -31q0 -6 -1 -13q-10 -61 -93 -62h-83l-598 -1071q-18 -33 -40 -49t-38.5 -19t-46.5 -3 h-39q-55 0 -72.5 15t-28.5 58l-241 1069h-84q-25 0 -38.5 2t-25.5 18q-9 12 -9 30q0 7 1 14z" />
<glyph unicode="W" horiz-adv-x="2150" d="M248 1190q10 61 94 61h276q23 0 37.5 -2t27.5 -17t9 -44q-10 -61 -94 -62h-86l137 -1038l512 1094q23 47 47.5 58t75.5 11q31 0 46.5 -2t31.5 -18.5t20 -48.5l146 -1094l485 1038h-86q-23 0 -36 2t-27.5 16.5t-10.5 43.5q10 63 95 63h276q23 0 37 -2t28 -17 q10 -12 10 -31q0 -6 -1 -13q-10 -61 -94 -62h-70l-502 -1073q-20 -47 -48 -58t-73 -11q-55 0 -73.5 14t-24.5 63l-147 1090l-510 -1092q-25 -51 -49.5 -63t-73.5 -12q-80 0 -96 45l-146 1097h-69q-23 0 -37.5 2t-27.5 18q-10 12 -10 31q0 6 1 13z" />
<glyph unicode="X" horiz-adv-x="1552" d="M96 61q10 63 94 64h101l500 539l-297 462h-101q-25 0 -38 2t-26.5 17.5t-9.5 44.5q10 61 95 61h319q25 0 38 -2t26.5 -17t9.5 -44q-10 -61 -94 -62h-39l217 -344l313 344h-45q-23 0 -37 2t-27.5 17.5t-9.5 44.5q10 61 95 61h319q23 0 37 -2t28 -17q10 -12 10 -31 q0 -6 -1 -13q-10 -61 -94 -62h-101l-428 -462l344 -539h103q23 0 37 -2t27.5 -17.5t8.5 -44.5q-10 -61 -94 -61h-321q-23 0 -36 2t-26.5 16.5t-9.5 42.5q10 63 92 64h43l-264 434l-391 -434h47q25 0 38 -2t26.5 -17.5t9.5 -44.5q-10 -61 -95 -61h-319q-23 0 -36 2t-28 16 q-11 11 -11 31q0 6 1 12z" />
<glyph unicode="Y" horiz-adv-x="1552" d="M260 1190q10 61 94 61h320q23 0 37 -2t27.5 -17t9.5 -44q-10 -61 -95 -62h-47l275 -483l440 483h-47q-23 0 -37 2t-27.5 17.5t-9.5 44.5q10 61 94 61h320q23 0 37 -2t27 -17q10 -12 11 -31q0 -6 -1 -13q-10 -61 -95 -62h-98l-565 -626l-64 -375h111q25 0 38 -2 t25.5 -17.5t8.5 -44.5q-10 -61 -93 -61h-362q-23 0 -36 2t-26.5 16.5t-9.5 42.5q10 63 92 64h111l63 375l-356 626h-98q-23 0 -37 2t-28 18q-10 12 -10 31q0 6 1 13z" />
<glyph unicode="Z" horiz-adv-x="1314" d="M131 70q4 35 35 63l1018 993h-705l-18 -108q-4 -27 -9.5 -41t-24.5 -28.5t-52 -14.5q-45 0 -55.5 27.5t-0.5 56.5l25 149q10 51 28.5 67.5t69.5 16.5h877q27 0 40 -2t25 -18q8 -11 9 -29q0 -9 -2 -20q-4 -35 -35 -64l-1018 -993h747l25 147q6 29 10 42.5t23.5 27.5 t52.5 14q45 0 55.5 -27.5t-0.5 -56.5l-30 -188q-8 -49 -27.5 -66.5t-69.5 -17.5h-921q-27 0 -40 2t-26 18q-8 11 -8 30q0 9 2 20z" />
<glyph unicode="[" horiz-adv-x="608" d="M211 -86l238 1423q8 49 27.5 66.5t68.5 17.5h170q25 0 38 -2t25.5 -17.5t7.5 -43.5q-10 -61 -92 -62h-110l-226 -1341h111q25 0 38 -2t25.5 -17.5t8.5 -44.5q-10 -61 -92 -61h-170q-51 0 -63.5 17.5t-4.5 66.5z" />
<glyph unicode="\" d="M344 1350q4 29 28.5 50t55.5 21q45 0 61 -55l443 -1415q8 -27 6 -49q-4 -29 -28.5 -50.5t-55.5 -21.5q-45 0 -61 55l-443 1415q-8 27 -6 50z" />
<glyph unicode="]" horiz-adv-x="608" d="M29 -106q10 61 92 61h110l226 1341h-111q-25 0 -38 2t-25.5 17.5t-8.5 44.5q10 61 93 61h170q51 0 63 -17.5t4 -66.5l-237 -1423q-8 -49 -28 -66.5t-69 -17.5h-170q-25 0 -38 2t-25 17.5t-8 44.5z" />
<glyph unicode="^" d="M321.5 1022q-14.5 53 43.5 80l360 162q25 10 47 0l307 -162q49 -27 15.5 -80t-82.5 -31l-287 133l-332 -133q-57 -22 -71.5 31z" />
<glyph unicode="_" horiz-adv-x="1552" d="M-55 -328l24 144h1553l-25 -144h-1552z" />
<glyph unicode="`" d="M516 1180q4 31 28.5 51t55.5 20l37 -10l252 -123q16 -8 24.5 -13t13.5 -17.5t3 -28.5q-2 -23 -23.5 -52.5t-56.5 -29.5q-16 0 -37 10l-252 121q-53 27 -45 72z" />
<glyph unicode="a" horiz-adv-x="1044" d="M152 262q25 139 196.5 220t450.5 85q4 25 4 47q0 70 -45 110q-59 52 -176 52q-51 0 -76 -2t-30 -6t-9 -16q-10 -49 -41 -72t-64 -23q-39 0 -62 25q-17 18 -17 48q0 10 2 22q25 150 315 149q197 0 281 -95q68 -77 67 -174q0 -24 -4 -48l-74 -443q33 -16 111 -16 q23 0 36 -2t26 -17q10 -11 11 -30q0 -6 -1 -13q-4 -31 -22.5 -45t-36 -16t-52.5 -2q-168 0 -205 66q-125 -78 -303 -78q-143 0 -222 81q-64 66 -64 152q1 20 4 41zM293 262q-2 -11 -2 -21q0 -48 41 -84q49 -44 139 -44q100 0 178 32q41 16 63.5 41t27.5 42.5t10 45.5l28 172 q-227 -8 -349 -59t-136 -125z" />
<glyph unicode="b" horiz-adv-x="1193" d="M233 1188q10 63 93 63h170q51 0 63 -17q7 -10 7 -32q0 -15 -3 -35l-63 -383q145 111 315 111q182 0 287 -133q81 -103 81 -238q0 -40 -7 -82q-33 -190 -191 -322t-344 -132q-164 0 -254 121q-8 -45 -13 -62.5t-23.5 -32t-51.5 -14.5q-47 0 -57.5 26.5t0.5 57.5l174 1042 h-111q-23 0 -36 2t-26 17q-10 11 -10 30q-1 6 0 13zM436 399q-4 -24 -4 -47q0 -74 44 -145q58 -94 177 -94q131 0 245 95t136 234q5 32 6 62q0 95 -55 169q-72 97 -203 97q-111 0 -210 -69.5t-113 -163.5z" />
<glyph unicode="c" horiz-adv-x="956" d="M164 442q12 74 51 149t102.5 147.5t168 117.5t229.5 45q35 0 56.5 -1t62 -4t66.5 -13.5t52.5 -25.5t37.5 -43q7 -18 7 -39q0 -11 -2 -23q-8 -43 -37.5 -69t-68.5 -26q-76 0 -76 75q0 12 2 26q0 8 -23.5 12t-44 5t-53.5 1q-96 0 -173 -37t-120 -94t-65.5 -107.5 t-30.5 -95.5q-5 -31 -5 -59q0 -101 61 -175q79 -95 210 -95q147 0 224 123q25 45 75 45q14 0 25.5 -2.5t26 -15.5t10.5 -40q-4 -18 -25.5 -52t-64.5 -78t-124 -74.5t-179 -30.5q-190 0 -298 134q-84 104 -84 240q0 39 7 80z" />
<glyph unicode="d" horiz-adv-x="1193" d="M164 440q33 190 188.5 322.5t345.5 132.5q154 0 256 -104l58 335h-111q-25 0 -38 2t-25.5 17.5t-8.5 44.5q10 61 93 61h170q51 0 63 -17q7 -10 7 -32q0 -15 -3 -35l-174 -1042h111q25 0 38 -2t25 -18q9 -12 9 -30q0 -6 -1 -14q-10 -61 -92 -61h-170q-51 0 -63 17 q-7 10 -8 33q0 15 4 34l6 35q-145 -131 -320 -131q-180 0 -286 132q-81 101 -82 235q0 41 8 85zM305 440q-5 -32 -5 -61q0 -96 55 -170q73 -96 200 -96q123 0 221 94t115 196l22 136q3 18 4 35q0 71 -55 126q-68 70 -174 70q-133 0 -246.5 -96.5t-136.5 -233.5z" />
<glyph unicode="e" horiz-adv-x="956" d="M152 446q31 186 178 320.5t327 134.5q182 0 266 -122q59 -87 59 -210q0 -48 -9 -102q-6 -35 -21.5 -52.5t-30 -20.5t-42.5 -3h-590q0 -123 81 -200.5t199 -77.5q154 0 226 123q25 45 75 45q14 0 25.5 -2.5t26 -15.5t10.5 -40q-10 -63 -117.5 -149t-277.5 -86 q-193 0 -305 134q-88 105 -87 245q0 38 7 79zM311 514h525q2 25 2 47q0 107 -50 156q-59 59 -151 59q-102 0 -194.5 -73.5t-131.5 -188.5z" />
<glyph unicode="f" horiz-adv-x="657" d="M45 61q10 63 92 64h111l106 633h-88q-23 0 -36 2t-26.5 16.5t-8.5 42.5q10 63 94 64h86l18 108q20 127 127 200t238 73q25 0 45 -2t59 -12.5t58 -38.5q14 -21 13 -50q0 -10 -1 -20q-8 -41 -39 -65.5t-64 -24.5q-45 0 -62 35.5t-13 52.5q-195 0 -222 -160l-16 -96h166 q25 0 38 -2t25.5 -17.5t8.5 -44.5q-10 -61 -92 -61h-166l-107 -633h160q25 0 38 -2t25.5 -17.5t8.5 -44.5q-10 -61 -93 -61h-411q-23 0 -36 2t-27 16q-10 11 -10 31q0 5 1 12z" />
<glyph unicode="g" d="M31 -168q31 164 194 254q-27 46 -26 102q0 22 4 45q12 78 63 140q-38 63 -37 138q0 27 4 56q23 133 137.5 230.5t256.5 97.5q111 0 188 -61q111 72 229 71q76 0 108 -34q25 -27 25 -59q0 -8 -1 -17q-6 -41 -36 -62.5t-61 -21.5q-23 0 -44 16t-23 53q-68 -4 -125 -35 q27 -63 26 -127q0 -25 -4 -51q-23 -137 -137.5 -233t-255.5 -96q-63 0 -113.5 20.5t-60.5 30.5q-14 -23 -23 -58v-26q0 -29 13 -47q20 -29 63 -29q14 -4 58 -4h143q193 0 287 -59q66 -39 89 -104q16 -45 16 -90q0 -20 -3 -40q-20 -129 -174 -215t-352.5 -86t-323.5 85 q-107 73 -107 180q0 18 3 36zM150 -168q-1 -7 -1 -13q0 -62 85 -111q95 -54 245 -54t263.5 54t123.5 124q3 18 4 34q0 22 -7 41q-11 32 -44 50t-63.5 29.5t-87 15.5t-90 5t-95.5 1q-117 0 -150.5 -4t-74.5 -29q-94 -53 -108 -143zM375 565q-3 -19 -4 -37q0 -59 37 -106 q47 -61 129 -62q80 0 148.5 60.5t82.5 146.5q3 19 3 37q0 59 -36 107q-47 61 -129 61q-80 0 -148.5 -60.5t-82.5 -146.5z" />
<glyph unicode="h" horiz-adv-x="1193" d="M45 61q10 63 92 64h111l168 1001h-111q-23 0 -36 2t-26.5 16.5t-9.5 43.5q10 63 93 63h170q51 0 63 -17q7 -10 7 -32q0 -15 -3 -35l-65 -389q145 117 321 117q253 0 253 -220q0 -37 -7 -79l-80 -471h111q25 0 38 -2t25 -18q9 -12 9 -30q0 -6 -1 -14q-10 -61 -92 -61h-362 q-25 0 -38 2t-25.5 17.5t-8.5 43.5q10 61 92 62h111l78 459q6 38 6 67q0 47 -16 74q-26 45 -126 45q-63 0 -129.5 -24.5t-128 -92t-77.5 -168.5l-62 -360h111q25 0 38 -2t25 -17.5t8 -44.5q-10 -61 -92 -61h-362q-23 0 -36 2t-27 16q-10 11 -10 31q0 5 1 12z" />
<glyph unicode="i" horiz-adv-x="598" d="M45 61q10 63 92 64h111l106 633h-100q-23 0 -37 2t-27.5 17.5t-9.5 43.5q10 61 94 62h160q51 0 64 -18q7 -10 7 -32q0 -15 -3 -34l-113 -674h90q25 0 38 -2t26.5 -17.5t9.5 -44.5q-10 -61 -92 -61h-344q-23 0 -36 2t-27 16q-10 11 -10 31q0 5 1 12zM381 1114q6 41 41 72 t80 31q41 0 66 -31q21 -25 21 -56q0 -8 -1 -16q-6 -41 -42 -71.5t-81 -30.5q-41 0 -67 30q-19 23 -19 53q0 9 2 19z" />
<glyph unicode="j" horiz-adv-x="657" d="M-145 -311q6 43 37.5 68.5t68.5 25.5q75 0 75 -75q0 -15 -3 -34l2 -6q6 -10 59 -10q43 0 77 27.5t54.5 72.5t30.5 81t16 73l142 846h-129q-25 0 -38.5 2t-26.5 17.5t-9 43.5q10 61 94 62h189q51 0 63 -18q7 -10 7 -32q0 -15 -3 -34l-149 -895q-14 -84 -51 -164 t-115 -143.5t-178 -63.5q-111 0 -168 42q-47 35 -48 89q1 12 3 25zM408 1114q6 41 40.5 72t79.5 31q41 0 67 -31q21 -25 21 -56q0 -8 -2 -16q-6 -41 -41.5 -71.5t-80.5 -30.5q-41 0 -67 30q-19 23 -19 53q0 9 2 19z" />
<glyph unicode="k" horiz-adv-x="1134" d="M59 61q10 63 93 64h110l168 1001h-111q-23 0 -36 2t-26 16.5t-9 43.5q10 63 92 63h143q51 0 64 -17q7 -10 7 -32q0 -15 -3 -35l-121 -725l410 316h-82q-23 0 -36 2t-26.5 16.5t-9.5 42.5q10 63 92 64h336q23 0 37 -2t28 -18q10 -12 10 -31q0 -6 -1 -13q-10 -61 -94 -61 h-80l-305 -236l254 -397h71q23 0 37 -2t27.5 -17.5t9.5 -44.5q-10 -61 -94 -61h-258q-25 0 -38 2t-25.5 17.5t-8.5 43.5q10 61 92 62h39l-207 321l-202 -157l-29 -164h110q25 0 38.5 -2t25.5 -17.5t8 -44.5q-10 -61 -92 -61h-336q-23 0 -36 2t-26 16q-10 11 -11 31q0 5 1 12 z" />
<glyph unicode="l" horiz-adv-x="598" d="M45 61q10 63 92 64h111l168 1001h-111q-23 0 -36 2t-26.5 16.5t-9.5 43.5q10 63 93 63h170q51 0 63 -17q7 -10 7 -32q0 -15 -3 -35l-174 -1042h111q25 0 38 -2t25 -18q9 -12 9 -30q0 -6 -1 -14q-10 -61 -92 -61h-362q-23 0 -36 2t-27 16q-10 11 -10 31q0 5 1 12z" />
<glyph unicode="m" horiz-adv-x="1792" d="M45 61q10 63 92 64h111l106 633h-110q-23 0 -36 2t-26.5 16.5t-9.5 42.5q10 63 92 64h170q57 0 68 -24q4 -10 4 -25q0 -22 -8 -56q150 117 321 117q203 0 244 -145q162 145 354 145q254 0 255 -222q0 -36 -7 -77l-80 -471h111q25 0 38 -2t25 -18q9 -12 9 -30q0 -6 -1 -14 q-10 -61 -92 -61h-362q-23 0 -36 2t-26.5 16.5t-9.5 42.5q10 63 92 64h111l78 459q5 35 5 63q0 51 -17 79q-26 44 -126 44q-63 0 -128.5 -23.5t-128 -92t-78.5 -169.5l-62 -360h111q25 0 38 -2t25.5 -17.5t7.5 -44.5q-10 -61 -92 -61h-362q-23 0 -36 2t-26.5 16.5t-9.5 42.5 q10 63 92 64h111l78 459q5 35 5 63q0 51 -17 79q-26 44 -126 44q-63 0 -128.5 -23.5t-128 -92t-78.5 -169.5l-62 -360h111q25 0 38 -2t25 -17.5t8 -44.5q-10 -61 -92 -61h-362q-23 0 -36 2t-27 16q-10 11 -10 31q0 5 1 12z" />
<glyph unicode="n" horiz-adv-x="1193" d="M45 61q10 63 92 64h111l106 633h-110q-23 0 -36 2t-26.5 16.5t-9.5 42.5q10 63 92 64h170q57 0 68 -24q4 -10 4 -25q0 -22 -8 -56q145 117 321 117q253 0 253 -220q0 -37 -7 -79l-80 -471h111q25 0 38 -2t25 -18q9 -12 9 -30q0 -6 -1 -14q-10 -61 -92 -61h-362 q-25 0 -38 2t-25.5 17.5t-8.5 43.5q10 61 92 62h111l78 459q6 38 6 67q0 47 -16 74q-26 45 -126 45q-63 0 -129.5 -24.5t-128 -92t-77.5 -168.5l-62 -360h111q25 0 38 -2t25 -17.5t8 -44.5q-10 -61 -92 -61h-362q-23 0 -36 2t-27 16q-10 11 -10 31q0 5 1 12z" />
<glyph unicode="o" d="M152 442q31 188 187.5 323.5t347 135.5t301.5 -135q88 -106 88 -245q0 -38 -7 -79q-33 -190 -188.5 -322t-346 -132t-303.5 132q-87 102 -87 239q1 40 8 83zM295 457q-5 -33 -5 -64q0 -101 57 -179q75 -101 208 -101q131 0 241.5 101t133.5 243q5 30 5 58q0 98 -62 169 q-79 92 -207.5 92t-238 -92t-132.5 -227z" />
<glyph unicode="p" horiz-adv-x="1193" d="M-31 -393q10 63 92 63h111l182 1088h-110q-23 0 -36 2t-26.5 16.5t-9.5 42.5q10 63 92 64h170q57 0 68 -24q5 -11 4 -27q0 -20 -6 -48q145 111 315 111q182 0 287 -133q81 -103 81 -238q0 -40 -7 -82q-33 -190 -191 -322t-344 -132q-164 0 -254 121l-74 -439h111 q25 0 38 -2t25.5 -17.5t8.5 -43.5q-10 -61 -93 -62h-362q-23 0 -36 2t-27 17q-10 11 -10 30q0 6 1 13zM436 399q-4 -24 -4 -47q0 -74 44 -145q58 -94 177 -94q131 0 245 95t136 234q5 32 6 62q0 95 -55 169q-72 97 -203 97q-111 0 -210 -69.5t-113 -163.5z" />
<glyph unicode="q" horiz-adv-x="1134" d="M164 440q33 190 190.5 322.5t343.5 132.5q158 0 254 -121l6 37q4 27 9.5 41t25 28.5t51.5 14.5q45 0 56 -28q5 -14 5 -28t-5 -28l-191 -1141h111q25 0 38 -2t25.5 -17.5t8.5 -43.5q-10 -61 -93 -62h-362q-25 0 -38 2t-25.5 17.5t-8.5 44.5q10 61 92 61h111l76 447 q-154 -129 -320 -129q-180 0 -286 132q-81 101 -82 235q0 41 8 85zM305 440q-5 -32 -5 -61q0 -96 55 -170q73 -96 200 -96q123 0 221 93t115 193l12 76q4 26 5 51q0 81 -46 152q-59 92 -176 92q-131 0 -244.5 -95.5t-136.5 -234.5z" />
<glyph unicode="r" horiz-adv-x="835" d="M45 61q10 63 92 64h111l106 633h-110q-23 0 -36 2t-26.5 16.5t-9.5 42.5q10 63 92 64h170q57 0 68 -24q4 -10 4 -27q0 -24 -8 -62q129 125 272 125q72 0 106 -39q29 -33 28 -73q0 -7 -1 -15q-8 -39 -37.5 -63.5t-64.5 -24.5q-29 0 -52 19q-19 15 -19 50q0 9 1 19 q-115 -12 -194.5 -124t-104.5 -259l-43 -260h160q25 0 38 -2t25.5 -17.5t8.5 -44.5q-10 -61 -93 -61h-411q-23 0 -36 2t-27 16q-10 11 -10 31q0 5 1 12z" />
<glyph unicode="s" horiz-adv-x="847" d="M84 72l33 196q4 27 9 41.5t24.5 28.5t52.5 14q37 0 48 -13t13 -38q4 -41 12.5 -67.5t25.5 -57.5t54 -47t93 -16q25 0 49 3t71 14t81 44t42 82q2 11 2 21q0 41 -32 69q-41 35 -103 49q-31 0 -121 23q-35 6 -59.5 12t-69.5 25.5t-72.5 43t-45.5 65.5q-12 29 -11 63 q0 16 2 32q6 35 25.5 72t59.5 78t117 66.5t181 25.5q115 0 178 -41q20 41 66 41q29 0 41 -14q11 -12 10 -28q0 -7 -1 -21t-1 -21l-24 -141q-4 -27 -9.5 -41t-25 -28.5t-51.5 -14.5q-59 0 -59 49q0 7 1 16q2 23 -1 37.5t-15 37t-46 33.5t-87 11q-109 0 -167.5 -32.5 t-66.5 -84.5q-2 -9 -1 -16q0 -44 48 -65q57 -25 199 -52q268 -51 268 -227q0 -21 -4 -43q-16 -104 -112.5 -186t-278.5 -82q-139 0 -211 69q-35 -70 -84 -69q-50 0 -50 53q0 14 3 31z" />
<glyph unicode="t" horiz-adv-x="835" d="M176 819q10 63 94 64h105l28 168q4 29 8.5 42t24 27.5t51.5 14.5q47 0 55.5 -21.5t2.5 -62.5l-29 -168h227q25 0 38.5 -2t25.5 -18q9 -12 9 -30q0 -6 -1 -14q-10 -61 -92 -61h-227l-82 -494q-6 -32 -6 -57q0 -95 79 -94q43 0 80 37.5t49 107.5q4 25 9.5 38t24 27.5 t50.5 14.5q47 0 57.5 -26.5t0.5 -55.5q-20 -117 -107.5 -192.5t-191.5 -75.5q-90 0 -151 61q-44 45 -44 132q0 32 6 71l84 506h-106q-23 0 -36 2t-27 16q-10 11 -10 31q0 5 1 12z" />
<glyph unicode="u" horiz-adv-x="1193" d="M172 819q10 63 92 64h170q51 0 64 -18q7 -10 7 -32q0 -15 -3 -34l-92 -551q-3 -50 -3 -65q0 -30 39 -50q41 -20 127 -20q27 0 55.5 3t71.5 15t77 33.5t62.5 61.5t37.5 96l73 436h-110q-25 0 -38.5 2t-25.5 17.5t-8 43.5q10 61 92 62h170q51 0 64 -18q7 -10 7 -32 q0 -15 -3 -34l-113 -674h111q25 0 38 -2t25 -18q9 -12 9 -30q0 -6 -1 -14q-10 -61 -92 -61h-170q-27 0 -40 2t-24.5 19.5t-4.5 50.5q-121 -84 -295 -84q-55 0 -98.5 7t-93.5 29.5t-73 76.5q-15 35 -14 81q0 25 4 54l88 522h-110q-23 0 -36 2t-27 16q-10 11 -10 31q0 5 1 12z " />
<glyph unicode="v" horiz-adv-x="1134" d="M190 819q10 63 93 64h286q25 0 38.5 -2t26.5 -17.5t9 -44.5q-10 -61 -94 -61h-84l117 -672l340 672h-84q-25 0 -38.5 2t-26.5 17.5t-9 43.5q10 61 94 62h287q25 0 38 -2t25 -18q9 -12 10 -30q0 -6 -1 -14q-10 -61 -93 -61h-82l-352 -697q-23 -47 -51.5 -58t-73.5 -11 q-33 0 -48 2t-31.5 18.5t-22.5 50.5l-119 695h-82q-23 0 -36 2t-26 16q-10 11 -10 31v12z" />
<glyph unicode="w" horiz-adv-x="1552" d="M184 821q10 61 95 62h276q23 0 37 -2t27.5 -17.5t9.5 -44.5q-10 -61 -94 -61h-91l70 -652l307 703q18 41 40 57.5t67 16.5q33 0 51 -12.5t22.5 -24.5t6.5 -35l73 -688l279 635h-90q-23 0 -37 2t-27.5 17.5t-9.5 43.5q10 61 94 62h277q23 0 37 -2t27 -18q10 -12 10 -31 q0 -6 -1 -13q-10 -61 -94 -61h-67l-308 -697q-20 -47 -45.5 -58t-72.5 -11q-61 0 -76.5 18.5t-20.5 81.5l-32 314l-23 331q-25 -88 -154 -388t-141 -318q-29 -39 -108 -39q-27 0 -39.5 1t-27.5 8t-23.5 22.5t-10.5 42.5l-71 692h-68q-23 0 -37 2t-27 17q-10 12 -11 31 q0 6 1 13z" />
<glyph unicode="x" horiz-adv-x="1134" d="M68 61q10 63 94 64h102l314 332l-193 301h-102q-25 0 -38.5 2t-26.5 17.5t-9 43.5q10 61 94 62h287q25 0 38 -2t25.5 -17.5t8.5 -44.5q-10 -61 -93 -61h-43l127 -205l189 205h-45q-23 0 -37.5 2t-27.5 17.5t-9 43.5q10 61 94 62h287q25 0 38 -2t25 -18q9 -12 10 -30 q0 -6 -1 -14q-10 -61 -93 -61h-102l-287 -301l213 -332h103q23 0 37 -2t27 -17.5t9 -44.5q-10 -61 -94 -61h-287q-25 0 -38 2t-25 17.5t-8 43.5q10 61 92 62h47l-147 256l-226 -256h52q25 0 38 -2t25 -17.5t8 -44.5q-10 -61 -92 -61h-287q-23 0 -37 2t-27 16q-10 11 -10 31 q0 5 1 12z" />
<glyph unicode="y" horiz-adv-x="1134" d="M-8 -299q6 41 34.5 65.5t69.5 24.5q37 0 59 -24q17 -19 16 -49q0 -8 -1 -17q-2 -8 -6 -18.5t-4 -14.5q-2 -10 28 -10q178 0 281 215q61 121 66 127l-183 758h-84q-23 0 -37 2t-27.5 17.5t-8.5 43.5q10 61 94 62h286q25 0 38.5 -2t25.5 -17.5t8 -44.5q-10 -61 -92 -61h-78 l113 -488l26 -129l304 617h-84q-23 0 -36.5 2t-26.5 16.5t-9 42.5q10 63 92 64h289q25 0 38 -2t25 -18q9 -12 10 -30q0 -6 -1 -14q-10 -61 -93 -61h-82l-473 -928q-57 -113 -166.5 -205t-238.5 -92q-86 0 -135 50q-39 40 -40 92q1 12 3 26z" />
<glyph unicode="z" horiz-adv-x="956" d="M72 72q6 31 12 41l700 645h-426l-10 -53q-4 -29 -8 -42.5t-23.5 -27.5t-52.5 -14q-47 0 -55 21.5t-2 62.5l16 94q10 51 28.5 67.5t70.5 16.5h600q27 0 41 -2t25 -20q7 -11 7 -29q0 -10 -2 -21q-6 -31 -12 -41l-700 -645h462l15 78q4 29 8 42t23.5 27.5t52.5 14.5 q47 0 55 -21.5t2 -62.5l-20 -119q-8 -49 -28 -66.5t-69 -17.5h-639q-27 0 -41 2t-25 20q-7 11 -7 28q0 10 2 22z" />
<glyph unicode="{" d="M221 627q6 33 26.5 47t37.5 14q143 0 229 33q53 23 69.5 49.5t26.5 87.5l31 184l31 172q76 207 436 207q18 0 29.5 -1t26 -6t19.5 -19.5t1 -36.5q-6 -33 -26.5 -47.5t-37.5 -14.5q-252 0 -303 -82q-10 -20 -31 -149l-45 -270q-20 -100 -147 -170q106 -63 86 -197 l-55 -330q-10 -25 -4 -49t23.5 -43.5t76.5 -34t158 -16.5q70 0 59 -61q-4 -29 -22.5 -44.5t-33 -17.5t-40.5 -2q-184 0 -287 61q-45 27 -62.5 71t-16.5 70.5t9 71.5l56 340q14 109 -260 119q-70 1 -60 64z" />
<glyph unicode="|" d="M453 -74l233 1399q16 96 88 96t55 -96l-233 -1399q-16 -96 -87.5 -96t-55.5 96z" />
<glyph unicode="}" d="M98 -106q6 33 26.5 47t37.5 14q106 2 173.5 13.5t96.5 36t37 40.5t14 47l60 365q27 106 147 170q-109 63 -86 194l55 330q8 25 3 50.5t-22 46t-77.5 33.5t-161.5 15q-70 0 -57 62q10 63 96 63q184 0 289 -61q45 -27 62.5 -71t16.5 -68.5t-7 -69.5l-58 -342 q-14 -109 258 -121q70 0 60 -63q-6 -33 -26.5 -47.5t-37.5 -14.5q-141 0 -227 -33q-53 -23 -69.5 -49t-26.5 -88l-31 -184l-31 -172q-74 -207 -438 -207q-25 0 -39 2t-27.5 17.5t-9.5 44.5z" />
<glyph unicode="~" d="M274 569q6 39 121 113q100 68 170 68q72 0 125 -70q39 -43 58 -43q49 0 157 90q31 23 53 23q25 0 41.5 -20.5t12.5 -45.5q-6 -35 -119 -113q-102 -68 -172 -67q-66 0 -125 69q-39 43 -57 43q-45 0 -158 -90q-31 -23 -53 -22q-25 0 -41.5 20t-12.5 45z" />
<glyph unicode="&#xa0;" />
<glyph unicode="&#xa1;" horiz-adv-x="598" d="M137 -360q8 59 32 170.5t32 156.5l67 355q14 63 30.5 80.5t70.5 17.5q14 0 23 -1t23.5 -5t21.5 -15.5t5 -29.5l-34 -250l-66 -479q-8 -49 -37 -78t-49 -34t-36.5 -5t-35 5t-37 34t-10.5 78zM313 694q6 43 41 73t78 30t67.5 -30t18.5 -73q-8 -43 -43 -72.5t-78 -29.5 t-67.5 29.5t-16.5 72.5z" />
<glyph unicode="&#xa2;" horiz-adv-x="956" d="M164 442q25 145 140.5 281.5t307.5 169.5l19 117q4 27 25.5 45t48 18t42 -18.5t11.5 -44.5l-19 -109q281 0 256 -149q-8 -43 -37.5 -69t-68.5 -26q-88 0 -74 101q2 10 -25.5 14t-70.5 4l-111 -661q125 14 187 121q25 45 75 45q14 0 25.5 -2.5t26 -15.5t10.5 -40 q-2 -16 -21.5 -48t-57.5 -73t-108.5 -73.5t-156.5 -38.5l-19 -117q-4 -27 -26.5 -45t-49 -18t-41 18t-10.5 45l19 121q-158 27 -242 154.5t-55 293.5zM305 442q-18 -113 32 -198.5t146 -116.5l107 637q-129 -33 -199 -132.5t-86 -189.5z" />
<glyph unicode="&#xa3;" horiz-adv-x="1552" d="M113 168q16 100 123.5 146t250.5 46q90 0 181 -36q-4 80 -58 231h-272q-29 0 -46.5 20.5t-12.5 51.5q4 29 29.5 50t53.5 21h205q-20 100 -8 185q27 160 178.5 264t333.5 104q184 0 303 -89t94 -238q-4 -29 -29.5 -50.5t-54.5 -21.5q-31 0 -47 21.5t-12 50.5 q16 92 -67.5 138t-210.5 46q-123 0 -225.5 -61.5t-119.5 -163.5q-12 -84 9 -185h428q31 0 47 -21.5t12 -49.5q-4 -31 -28.5 -51.5t-55.5 -20.5h-360q66 -197 59 -301q41 -25 87 -48.5t89 -42t94.5 -30.5t102.5 -12q68 0 122 51t66 123q4 29 30 50.5t54 21.5q31 0 47.5 -21.5 t12.5 -50.5q-23 -131 -126.5 -224.5t-230.5 -93.5q-70 0 -142.5 23t-128.5 55.5t-126 67.5q-113 -145 -432 -146q-102 0 -167.5 52.5t-51.5 138.5zM256 168q-6 -29 22.5 -38t77.5 -9q78 0 119 2t95.5 16.5t76.5 40.5q-106 37 -182 37q-201 0 -209 -49z" />
<glyph unicode="&#xa4;" horiz-adv-x="1673" d="M350 121q-43 49 35 117l123 106q-72 125 -45.5 282.5t139.5 282.5l-86 107q-59 68 2 117q57 51 115 -17l88 -104q145 92 299 92q160 0 268 -92l123 104q78 68 119 17q43 -49 -35 -117l-123 -105q74 -127 47.5 -284.5t-141.5 -284.5l86 -104q59 -68 -2 -117 q-57 -51 -115 16l-86 105q-139 -92 -301 -92q-154 0 -266 92l-125 -105q-78 -67 -119 -16zM606 627q-23 -137 58 -235.5t220.5 -98.5t254 97t137 236.5t-59 237t-221.5 97.5q-137 0 -251.5 -97.5t-137.5 -236.5z" />
<glyph unicode="&#xa5;" horiz-adv-x="1552" d="M260 1190q10 61 94 61h320q23 0 37 -2t27.5 -17t9.5 -44q-10 -61 -95 -62h-47l154 -268h317l244 268h-47q-23 0 -37 2t-27.5 17.5t-9.5 44.5q10 61 94 61h320q23 0 37 -2t27.5 -17t9.5 -44q-10 -61 -95 -62h-98l-242 -268h133q29 0 46.5 -21.5t13.5 -50.5 q-4 -31 -28.5 -51t-55.5 -20h-240l-157 -176h368q29 0 46.5 -20.5t13.5 -51.5q-4 -29 -30 -50.5t-54 -21.5h-398l-45 -270h111q25 0 38 -2t25.5 -17.5t8.5 -44.5q-10 -61 -93 -61h-362q-23 0 -36 2t-26.5 16.5t-9.5 42.5q10 63 92 64h111l45 270h-393q-31 0 -47.5 21.5 t-12.5 50.5q4 31 29 51.5t55 20.5h365l-100 176h-236q-31 0 -47 20.5t-12 50.5q4 29 28.5 50.5t55.5 21.5h129l-152 268h-98q-23 0 -37 2t-27.5 17.5t-9.5 44.5zM840 715l41 -72l65 72h-106z" />
<glyph unicode="&#xa6;" d="M453 -74l82 492q4 27 28.5 45t52.5 18q31 0 48.5 -18.5t13.5 -44.5l-82 -492q-16 -96 -87.5 -96t-55.5 96zM604 834l82 491q16 96 88 96t55 -96l-81 -491q-4 -27 -29 -45.5t-53 -18.5q-31 0 -48.5 18.5t-13.5 45.5z" />
<glyph unicode="&#xa7;" horiz-adv-x="1116" d="M197 10q6 37 36.5 63.5t67.5 26.5t59.5 -26.5t16.5 -63.5q-6 -33 -29 -55q35 -61 191 -61q88 0 160.5 43t84.5 114q6 41 -21.5 75t-57 48t-87.5 39l-188 78q-117 47 -182.5 135t-46.5 201q12 72 59 131t115 90q-31 59 -19 125q23 131 145 216t269.5 85t242.5 -70.5 t77 -189.5q-6 -37 -38 -63.5t-69 -26.5t-58.5 26.5t-15.5 63.5q2 29 27 55q-35 61 -191 61q-88 0 -160.5 -43t-84.5 -114q-4 -31 6 -56.5t43 -46t52.5 -31t64.5 -28.5l190 -78q115 -47 180.5 -135t46.5 -201q-25 -152 -174 -223q31 -57 19 -123q-20 -131 -142 -216 t-269.5 -85t-243.5 70.5t-76 189.5zM344 627q-20 -131 160 -203l188 -78q80 -35 127 -72q45 8 79 43t42 80q25 131 -158 203l-190 78q-74 31 -127 70q-45 -6 -79 -41t-42 -80z" />
<glyph unicode="&#xa8;" d="M461 1114q4 35 35.5 63.5t72.5 28.5q39 0 61.5 -27.5t16.5 -64.5t-37.5 -64.5t-72.5 -27.5q-37 0 -59.5 26.5t-16.5 65.5zM803 1114q4 35 35.5 63.5t72.5 28.5q39 0 61.5 -27.5t16.5 -64.5t-37.5 -64.5t-72.5 -27.5q-37 0 -59.5 26.5t-16.5 65.5z" />
<glyph unicode="&#xa9;" horiz-adv-x="1251" d="M104 627q43 258 257 441t475 183q258 0 410.5 -183t109.5 -441q-43 -260 -257 -443.5t-472 -183.5q-260 0 -413 183.5t-110 443.5zM221 627q-35 -211 89 -360.5t337 -149.5q211 0 384 149.5t208 360.5t-89 359.5t-335 148.5t-385 -148.5t-209 -359.5zM395 627 q20 117 128 202.5t243 85.5q121 0 182 -57q10 18 25 35q12 23 31 22q29 0 22 -36l-22 -127q-4 -39 -39 -39q-25 0 -27 22q-6 61 -53 94q-51 31 -123 31q-111 0 -199 -69.5t-104 -163.5q-16 -96 48 -166t179 -70q80 0 133 27q63 29 80 86q6 27 35 26q33 0 29 -30 q-12 -72 -92 -118t-201 -46q-137 0 -215 86t-60 205z" />
<glyph unicode="&#xaa;" horiz-adv-x="966" d="M229 827q16 96 159.5 152.5t377.5 60.5q23 145 -186 146h-64q-33 -4 -35 -17q-12 -66 -86 -65q-33 0 -51 17.5t-14 47.5q18 104 262 105q164 0 236.5 -66.5t58.5 -154.5l-53 -312q35 -10 96 -10q20 0 31.5 -1t22.5 -11t7 -31q-2 -16 -10 -25.5t-23.5 -13.5t-26.5 -5 t-34 -1q-141 0 -172 47q-102 -55 -252 -55q-121 0 -188.5 57t-55.5 135zM244 528q4 18 24.5 31.5t46.5 13.5h531q27 0 43 -13t12 -32q-8 -43 -70 -43h-530q-27 0 -43 12.5t-14 30.5zM346 827q-6 -43 37 -73.5t119 -30.5q84 0 147 22q74 25 82 91l21 120q-193 -6 -294.5 -42 t-111.5 -87z" />
<glyph unicode="&#xab;" horiz-adv-x="1193" d="M322 418q-23 31 10 63q182 170 286 385q14 33 50 33h32q25 0 35 -19.5t0 -41.5q-102 -219 -264 -389q106 -170 135 -388q2 -23 -15.5 -42t-39.5 -19h-33q-35 0 -39 33q-34 219 -157 385zM680 418q-23 31 10 63q182 170 287 385q14 33 49 33h33q25 0 35 -19.5t0 -41.5 q-102 -219 -265 -389q106 -170 136 -388q2 -23 -15.5 -42t-40.5 -19h-32q-35 0 -39 33q-35 219 -158 385z" />
<glyph unicode="&#xac;" horiz-adv-x="1673" d="M250 782.5q4 28.5 29.5 50t54.5 21.5h1290q29 0 46.5 -21.5t12.5 -50.5l-53 -311q-4 -29 -28.5 -50.5t-53 -21.5t-47 21.5t-14.5 50.5l41 240h-1219q-29 0 -46 21.5t-13 50z" />
<glyph unicode="&#xad;" horiz-adv-x="716" d="M98 442q10 61 92 62h408q25 0 38 -2t25.5 -17.5t8.5 -44.5q-10 -61 -92 -61h-408q-25 0 -38 2t-25.5 17t-8.5 44z" />
<glyph unicode="&#xae;" horiz-adv-x="1251" d="M104 627q43 258 257 441t475 183q258 0 410.5 -183t109.5 -441q-43 -260 -257 -443.5t-472 -183.5q-260 0 -413 183.5t-110 443.5zM221 627q-35 -211 89 -360.5t337 -149.5q211 0 384 149.5t208 360.5t-89 359.5t-335 148.5t-385 -148.5t-209 -359.5zM395 371v8 q4 29 41 29h49l76 446h-49q-31 0 -33 18v11q4 29 41 28h246q100 0 167.5 -46t57.5 -109q-12 -76 -127 -123q31 -18 43 -43q14 -27 4 -92q-12 -41 -7 -71t38 -30q37 0 49 41q6 27 35 27t29 -27q-6 -37 -40 -66.5t-81 -29.5q-57 0 -82 41q-18 33 -6 113q8 39 5 55t-28 31 q-33 20 -110 20h-131l-33 -194h49q10 0 16.5 -1t12.5 -8.5t4 -19.5q-4 -27 -41 -27h-162q-31 1 -33 19zM592 659h125q76 0 139.5 28t71.5 69q6 43 -47.5 70.5t-130.5 27.5h-125z" />
<glyph unicode="&#xaf;" d="M338 1116q10 63 92 64h610q25 0 38.5 -2t25.5 -17.5t8 -46.5q-10 -63 -92 -63h-608q-25 0 -38.5 2t-26.5 17t-9 46z" />
<glyph unicode="&#xb0;" horiz-adv-x="806" d="M264 952q20 125 121.5 212t226.5 87q123 0 197 -87t53 -212q-23 -123 -125 -211t-225 -88q-125 0 -198 88t-50 211zM407.5 952.5q-10.5 -65.5 27.5 -110.5t102 -45q66 0 119 46t63 109.5t-28 109.5t-103 46q-63 0 -116.5 -45t-64 -110.5z" />
<glyph unicode="&#xb1;" horiz-adv-x="1673" d="M131 72q12 72 109 71h548l68 410h-549q-23 0 -38 2t-33.5 19.5t-12.5 50.5q12 72 109 71h549l75 457q16 96 88 96t56 -96l-76 -457h549q23 0 38 -2t33.5 -19.5t12.5 -49.5q-12 -72 -109 -72h-549l-67 -410h549q23 0 38 -2t33.5 -19.5t12.5 -49.5q-12 -72 -109 -72h-1241 q-23 0 -38 2t-33.5 19.5t-12.5 50.5z" />
<glyph unicode="&#xb2;" horiz-adv-x="772" d="M168 549q2 12 27 33l364 227q188 117 207 225q12 78 -48.5 122t-156.5 44q-61 0 -113.5 -26.5t-76.5 -69.5q20 -14 16 -39t-27.5 -40t-48 -15t-44 14t-13.5 45q14 82 106.5 143.5t219.5 61.5q139 0 223 -65.5t65 -174.5q-20 -127 -202 -246q-41 -29 -166 -105l-158 -97 h350q2 20 5 30.5t16.5 18.5t38.5 8q35 0 41 -13.5t2 -37.5l-4 -31q-6 -31 -18.5 -41t-49.5 -10h-500q-18 0 -27.5 1t-19.5 10.5t-8 27.5z" />
<glyph unicode="&#xb3;" horiz-adv-x="772" d="M178 678q4 27 26.5 42t49.5 15q29 0 44 -16.5t11 -38.5q-4 -25 -24 -37q39 -72 200 -72q96 0 164 46.5t78 105.5t-42 106.5t-155 47.5h-67q-18 0 -27.5 1t-18.5 10t-5 27q2 12 6 19.5t21.5 11.5t29.5 6t55 4q88 4 144 37q70 43 80 107q6 43 -39 71.5t-119 28.5 q-119 0 -170 -39q10 -20 8 -33q-4 -25 -27.5 -40t-48 -15t-42 14.5t-13.5 42.5q10 63 92 103.5t211 40.5q123 0 191.5 -51.5t58.5 -120.5q-20 -117 -156 -182q72 -29 109 -81.5t26 -115.5q-14 -88 -116.5 -157.5t-241.5 -69.5q-137 0 -222 50t-71 132z" />
<glyph unicode="&#xb4;" d="M498 1059q6 37 61 59l293 123l41 10q31 0 47 -20.5t12 -50.5q-8 -45 -69 -72l-293 -121q-20 -10 -37 -10q-35 0 -46 29.5t-9 52.5z" />
<glyph unicode="&#xb5;" horiz-adv-x="1193" d="M-31 -391q10 61 99 61h104l182 1086h-104q-20 0 -30.5 1t-26 6t-20.5 19.5t-1 36.5q10 61 98 62h160q55 0 68.5 -16.5t5.5 -71.5l-92 -543q-2 -37 -3 -66.5t39.5 -50t126.5 -20.5q111 0 195 49q88 53 104 162l74 432h-104q-20 0 -30.5 1t-26 6t-20.5 19.5t-1 36.5 q10 61 98 62h160q55 0 68.5 -16.5t5.5 -71.5l-113 -668h105q20 0 30 -1t25.5 -6t20.5 -19.5t1 -37.5q-10 -61 -98 -61h-160q-27 0 -41 2t-28.5 18.5t-8.5 49.5q-119 -82 -290 -82q-106 0 -168 24l-58 -342h105q20 0 30.5 -1t26 -6t20.5 -19.5t1 -36.5q-10 -61 -99 -62h-352 q-20 0 -30.5 1t-26 6.5t-20.5 19.5t-1 37z" />
<glyph unicode="&#xb6;" horiz-adv-x="1251" d="M272 948q33 195 206 334t386 139h498q20 0 31.5 -1t21.5 -11t6 -29q-6 -41 -73 -41h-103l-278 -1669q-10 -68 -51.5 -67.5t-30.5 67.5l278 1669h-143l-279 -1669q-10 -68 -51 -67.5t-31 67.5l134 801q-102 4 -198.5 35t-178.5 86t-122 148t-22 208z" />
<glyph unicode="&#xb7;" horiz-adv-x="1673" d="M837.5 627q8.5 43 42 72.5t76.5 29.5t69 -29.5t17.5 -72.5t-42 -73t-76.5 -30t-69 30t-17.5 73z" />
<glyph unicode="&#xb8;" horiz-adv-x="956" d="M225 -362q6 31 26.5 45t40 16t60.5 2q141 0 195.5 20.5t60.5 61.5q6 33 -22.5 55.5t-79.5 26.5q-29 2 -41 15.5t-11 29.5t3 35l12 67q4 25 9 38t23.5 27.5t51.5 14.5q49 0 57 -27.5t-6 -84.5q76 -20 117 -71.5t29 -127.5q-8 -43 -30 -77t-48.5 -55.5t-69.5 -36.5 t-75.5 -22.5t-86 -11.5t-82.5 -4h-79q-23 0 -41.5 15.5t-12.5 48.5z" />
<glyph unicode="&#xb9;" horiz-adv-x="806" d="M256 547q6 39 66 39h133l94 567q-74 -29 -154 -29q-51 0 -45 37q6 35 47 39q119 0 185 53q23 20 45 21q43 0 37 -49l-107 -639h133q18 0 27.5 -1t18.5 -10.5t7 -27.5q-6 -37 -65 -37h-369q-16 0 -26.5 1t-19.5 10.5t-7 25.5z" />
<glyph unicode="&#xba;" horiz-adv-x="901" d="M217 528.5q2 18.5 23.5 31.5t48.5 13h516q27 0 43 -13t12 -32q-8 -43 -69 -43h-517q-27 0 -43 12.5t-14 31zM225 952q23 133 151 227.5t287.5 94.5t257 -94.5t74.5 -227.5q-23 -131 -151.5 -224t-286.5 -93q-160 0 -257.5 93t-74.5 224zM344 963q-16 -98 50.5 -169 t177 -71t199.5 70.5t106 169.5q16 96 -51.5 159.5t-176 63.5t-199 -63.5t-106.5 -159.5z" />
<glyph unicode="&#xbb;" horiz-adv-x="1193" d="M250 61q100 215 264 388q-109 182 -133 389q-2 23 14.5 42t38.5 19h33q33 0 41 -33q31 -213 158 -385q23 -33 -13 -63q-178 -166 -284 -385q-18 -33 -52 -33h-32q-23 0 -34 19t-1 42zM608 61q100 215 264 388q-109 182 -133 389q-2 23 14.5 42t39.5 19h32q33 0 41 -33 q31 -213 158 -385q23 -33 -12 -63q-178 -166 -285 -385q-18 -33 -51 -33h-33q-23 0 -34 19t-1 42z" />
<glyph unicode="&#xbc;" horiz-adv-x="1720" d="M256 547q6 39 66 39h133l94 567q-74 -29 -154 -29q-51 0 -45 37q6 35 47 39q119 0 185 53q23 20 45 21q43 0 37 -49l-107 -639h133q18 0 27.5 -1t18.5 -10.5t7 -27.5q-6 -37 -65 -37h-369q-16 0 -26.5 1t-19.5 10.5t-7 25.5zM451 41q6 23 22 43l1055 1169q25 29 61 29 q29 0 47.5 -21.5t14.5 -50.5q-6 -23 -23 -43l-1055 -1169q-29 -29 -63 -29q-29 0 -46 21.5t-13 50.5zM919.5 256q4.5 29 20.5 43l410 440q25 27 65 27h43q37 0 47.5 -10.5t3.5 -40.5l-71 -432h114q18 0 27.5 -1t19 -10.5t7.5 -27.5q-6 -37 -66 -37h-115l-22 -131h92 q16 0 25.5 -1t18.5 -10.5t7 -27.5q-6 -37 -63 -37h-266q-16 0 -26.5 1t-20 10t-7.5 26q6 39 66 39h92l22 131h-372q-35 0 -45.5 10t-6 39zM1028 283h328l71 428z" />
<glyph unicode="&#xbd;" horiz-adv-x="1910" d="M256 547q6 39 66 39h133l94 567q-74 -29 -154 -29q-51 0 -45 37q6 35 47 39q119 0 185 53q23 20 45 21q43 0 37 -49l-107 -639h133q18 0 27.5 -1t18.5 -10.5t7 -27.5q-6 -37 -65 -37h-369q-16 0 -26.5 1t-19.5 10.5t-7 25.5zM461 41q6 27 20 43l1055 1169q29 29 63 29 q29 0 47.5 -21.5t14.5 -50.5q-6 -23 -23 -43l-1054 -1169q-29 -29 -64 -29q-31 0 -47 21.5t-12 50.5zM1143 39q4 18 28 33l363 227q190 119 209 225q12 78 -50.5 122t-158.5 44q-59 0 -111.5 -26.5t-76.5 -69.5q18 -12 14 -39q-4 -25 -26.5 -40t-47 -15t-43 14t-12.5 45 q12 82 104 143.5t219 61.5q139 0 223.5 -65.5t65.5 -174.5q-20 -123 -201 -245q-43 -29 -175 -110l-152 -93h352q4 20 7 29.5t16.5 18.5t38.5 9q23 0 33 -8t10 -19.5t-3 -23.5l-6 -31q-4 -31 -17 -41t-48 -10h-502q-16 0 -26.5 1t-19.5 10.5t-7 27.5z" />
<glyph unicode="&#xbe;" horiz-adv-x="1720" d="M242 678q4 27 26.5 42t50.5 15q27 0 42.5 -16.5t11.5 -39t-23 -36.5q39 -72 201 -72q96 0 163.5 46.5t78 105.5t-42 106.5t-154.5 47.5h-70q-16 0 -25 1t-18.5 10t-5.5 27q2 25 21.5 31t91.5 10q88 4 141 37q72 43 82 107q6 43 -39 71.5t-119 28.5q-119 0 -170 -39 q8 -16 7 -33q-4 -25 -27 -40t-47 -15q-27 0 -44.5 14.5t-13.5 42.5q10 63 93.5 103.5t212.5 40.5q123 0 190.5 -51.5t56.5 -120.5q-20 -117 -153 -182q70 -29 106.5 -81.5t26.5 -115.5q-14 -88 -115.5 -157.5t-241 -69.5t-224 50t-70.5 132zM451 41q6 23 22 43l1055 1169 q25 29 61 29q29 0 47.5 -21.5t14.5 -50.5q-6 -23 -23 -43l-1055 -1169q-29 -29 -63 -29q-29 0 -46 21.5t-13 50.5zM919.5 256q4.5 29 20.5 43l410 440q25 27 65 27h43q37 0 47.5 -10.5t3.5 -40.5l-71 -432h114q18 0 27.5 -1t19 -10.5t7.5 -27.5q-6 -37 -66 -37h-115 l-22 -131h92q16 0 25.5 -1t18.5 -10.5t7 -27.5q-6 -37 -63 -37h-266q-16 0 -26.5 1t-20 10t-7.5 26q6 39 66 39h92l22 131h-372q-35 0 -45.5 10t-6 39zM1028 283h328l71 428z" />
<glyph unicode="&#xbf;" horiz-adv-x="1015" d="M81 -266.5q3 30.5 3 53.5q18 119 141 197q188 121 221 317l5 35q8 53 27.5 68.5t68.5 15.5q57 0 68.5 -23.5t-3.5 -83.5q-10 -51 -22 -89t-44 -98t-97.5 -122.5t-161.5 -124.5q-53 -37 -62 -92q-8 -45 13.5 -73.5t64.5 -39t66.5 -13.5t52.5 -3q190 0 264 74q-14 23 -8 55 q6 41 38 66.5t66 25.5q37 0 60.5 -25.5t15.5 -70.5q-16 -106 -131 -178t-326 -72q-92 0 -158.5 19.5t-97 49t-49 65.5t-15.5 66.5zM492 694q6 43 40.5 73t77.5 30t67.5 -30t18.5 -73q-8 -43 -43 -72.5t-78 -29.5t-67 29.5t-16 72.5z" />
<glyph unicode="&#xc0;" horiz-adv-x="1552" d="M94 63q10 61 92 62h95l567 1083q16 31 39.5 47.5t39 18.5t42.5 2h39q29 0 43 -2t30.5 -18.5t22.5 -49.5l207 -1081h94q25 0 38 -2t25.5 -17.5t8.5 -44.5q-10 -61 -93 -61h-325q-23 0 -37 2t-27.5 17.5t-9.5 43.5q10 61 94 62h82l-43 227h-567l-121 -227h82q23 0 37 -2 t27.5 -17.5t9.5 -44.5q-10 -61 -94 -61h-326q-25 0 -38 2t-25.5 17t-8.5 44zM616 477h478l-129 668zM815 1540q6 31 29.5 51.5t54.5 20.5l37 -10l252 -123q16 -8 24.5 -13.5t13.5 -17.5t3 -29q-2 -23 -23.5 -52.5t-56.5 -29.5q-18 0 -35 11l-254 120q-53 27 -45 72z" />
<glyph unicode="&#xc1;" horiz-adv-x="1552" d="M94 63q10 61 92 62h95l567 1083q16 31 39.5 47.5t39 18.5t42.5 2h39q29 0 43 -2t30.5 -18.5t22.5 -49.5l207 -1081h94q25 0 38 -2t25.5 -17.5t8.5 -44.5q-10 -61 -93 -61h-325q-23 0 -37 2t-27.5 17.5t-9.5 43.5q10 61 94 62h82l-43 227h-567l-121 -227h82q23 0 37 -2 t27.5 -17.5t9.5 -44.5q-10 -61 -94 -61h-326q-25 0 -38 2t-25.5 17t-8.5 44zM616 477h478l-129 668zM797 1419q6 37 61 60l293 123l41 10q31 0 48 -20.5t11 -51.5q-8 -45 -69 -72l-291 -120q-25 -10 -39 -11q-35 0 -46 29.5t-9 52.5z" />
<glyph unicode="&#xc2;" horiz-adv-x="1552" d="M94 63q10 61 92 62h95l567 1083q16 31 39.5 47.5t39 18.5t42.5 2h39q29 0 43 -2t30.5 -18.5t22.5 -49.5l207 -1081h94q25 0 38 -2t25.5 -17.5t8.5 -44.5q-10 -61 -93 -61h-325q-23 0 -37 2t-27.5 17.5t-9.5 43.5q10 61 94 62h82l-43 227h-567l-121 -227h82q23 0 37 -2 t27.5 -17.5t9.5 -44.5q-10 -61 -94 -61h-326q-25 0 -38 2t-25.5 17t-8.5 44zM616 477h478l-129 668zM710.5 1390.5q10.5 32.5 47.5 45.5l256 88q18 6 39 0l227 -88q51 -20 22.5 -75.5t-81.5 -39.5l-211 68l-236 -68q-37 -10 -55.5 13.5t-8 56z" />
<glyph unicode="&#xc3;" horiz-adv-x="1552" d="M94 63q10 61 92 62h95l567 1083q16 31 39.5 47.5t39 18.5t42.5 2h39q29 0 43 -2t30.5 -18.5t22.5 -49.5l207 -1081h94q25 0 38 -2t25.5 -17.5t8.5 -44.5q-10 -61 -93 -61h-325q-23 0 -37 2t-27.5 17.5t-9.5 43.5q10 61 94 62h82l-43 227h-567l-121 -227h82q23 0 37 -2 t27.5 -17.5t9.5 -44.5q-10 -61 -94 -61h-326q-25 0 -38 2t-25.5 17t-8.5 44zM616 477h478l-129 668zM649 1382q6 39 121 113q100 68 170 68q72 0 125 -70q39 -43 57 -43q49 0 158 90q31 23 53 23q25 0 41.5 -20.5t11.5 -45.5q-6 -35 -118 -113q-102 -68 -172 -67 q-66 0 -125 69q-39 43 -58 44q-45 0 -157 -91q-31 -23 -54 -22q-25 0 -41 20t-12 45z" />
<glyph unicode="&#xc4;" horiz-adv-x="1552" d="M94 63q10 61 92 62h95l567 1083q16 31 39.5 47.5t39 18.5t42.5 2h39q29 0 43 -2t30.5 -18.5t22.5 -49.5l207 -1081h94q25 0 38 -2t25.5 -17.5t8.5 -44.5q-10 -61 -93 -61h-325q-23 0 -37 2t-27.5 17.5t-9.5 43.5q10 61 94 62h82l-43 227h-567l-121 -227h82q23 0 37 -2 t27.5 -17.5t9.5 -44.5q-10 -61 -94 -61h-326q-25 0 -38 2t-25.5 17t-8.5 44zM616 477h478l-129 668zM719 1409q4 35 35.5 63.5t72.5 28.5q39 0 61.5 -27.5t16.5 -64.5t-37.5 -64.5t-72.5 -27.5q-37 0 -60.5 27.5t-15.5 64.5zM1122 1409q4 35 36 63.5t73 28.5 q39 0 61.5 -27.5t16.5 -64.5t-38 -64.5t-73 -27.5q-37 0 -60.5 27.5t-15.5 64.5z" />
<glyph unicode="&#xc5;" horiz-adv-x="1552" d="M94 63q10 61 92 62h95l567 1083q16 31 39.5 47.5t39 18.5t42.5 2h39q29 0 43 -2t30.5 -18.5t22.5 -49.5l207 -1081h94q25 0 38 -2t25.5 -17.5t8.5 -44.5q-10 -61 -93 -61h-325q-23 0 -37 2t-27.5 17.5t-9.5 43.5q10 61 94 62h82l-43 227h-567l-121 -227h82q23 0 37 -2 t27.5 -17.5t9.5 -44.5q-10 -61 -94 -61h-326q-25 0 -38 2t-25.5 17t-8.5 44zM616 477h478l-129 668zM772 1411q10 55 85 95t179 40q98 0 162 -40t53.5 -95t-85 -95t-179.5 -40q-98 0 -161.5 40t-53.5 95zM907 1411q-4 -25 23.5 -42t70.5 -17q39 0 75 16t40 43q4 25 -23.5 42 t-70.5 17q-39 0 -75 -16t-40 -43z" />
<glyph unicode="&#xc6;" horiz-adv-x="1910" d="M100 63q10 61 95 62h96l606 1001h-35q-23 0 -36 2t-27.5 16.5t-10.5 43.5q10 63 95 63h1034q51 0 63.5 -17t4.5 -67l-25 -149q-4 -27 -9 -41t-24.5 -28.5t-52.5 -14.5q-45 0 -55.5 27.5t0.5 56.5l18 108h-547l-69 -415h301q6 41 10 55t13 32.5t24.5 23.5t42.5 5 q47 0 55 -21.5t2 -62.5l-33 -190q-4 -27 -9 -41t-23.5 -28.5t-51.5 -14.5q-49 0 -57 26.5t6 90.5h-301l-78 -461h607l24 141q4 27 9 41.5t24.5 28.5t52.5 14q45 0 55.5 -27.5t-0.5 -56.5l-30 -182q-8 -49 -27.5 -66.5t-69.5 -17.5h-868q-23 0 -37 2t-27.5 16.5t-9.5 42.5 q10 63 95 64h61l43 250h-428l-152 -250h76q25 0 38 -2t25.5 -17.5t8.5 -44.5q-10 -61 -92 -61h-326q-25 0 -38 2t-26.5 17t-9.5 44zM672 500h372l105 626h-96z" />
<glyph unicode="&#xc7;" horiz-adv-x="1552" d="M223 627q43 262 282.5 454.5t543.5 192.5q272 0 411 -127q41 63 51 76q31 51 72 51q63 0 47 -84l-47 -285q-6 -29 -10 -42t-23.5 -27.5t-52.5 -14.5q-57 0 -59 47q-2 29 -4 38t-9.5 39t-18.5 47.5t-34.5 42t-54.5 44.5q-109 70 -275 70q-250 0 -445.5 -155.5 t-231.5 -366.5q-35 -213 108 -369t397 -156q178 0 301 58q147 66 179 192q14 59 80 60q18 0 29 -2t23.5 -18.5t6.5 -47.5q-23 -137 -158 -234.5t-348 -123.5l-2 -6q76 -20 117 -71.5t28 -127.5q-8 -43 -29.5 -77t-48 -55.5t-69.5 -36.5t-76 -22.5t-86 -11.5t-82 -4h-80 q-23 0 -41 15.5t-12 48.5q6 31 26.5 45t40 16t60.5 2q141 0 195.5 20.5t60.5 61.5q6 33 -22.5 55.5t-79.5 26.5q-29 2 -41.5 15.5t-11.5 29.5t4 35l6 32h-4q-309 0 -483.5 193t-129.5 457z" />
<glyph unicode="&#xc8;" horiz-adv-x="1433" d="M104 61q10 63 93 64h110l168 1001h-110q-23 0 -36.5 2t-26.5 16.5t-9 43.5q10 63 92 63h1055q51 0 63.5 -17t3.5 -67l-24 -149q-4 -27 -9.5 -41t-24.5 -28.5t-52 -14.5q-45 0 -55.5 27.5t-0.5 56.5l19 108h-744l-69 -415h407q6 41 10.5 55t13.5 32.5t24.5 23.5t41.5 5 q47 0 55.5 -21.5t2.5 -62.5l-33 -190q-4 -27 -9 -41t-23.5 -28.5t-51.5 -14.5q-49 0 -57 26.5t6 90.5h-408l-77 -461h802l25 141q4 27 9 41.5t24.5 28.5t52.5 14q45 0 55 -27.5t0 -56.5l-31 -182q-8 -49 -27.5 -66.5t-68.5 -17.5h-1114q-23 0 -36 2t-26.5 16t-9.5 43z M756 1540q6 31 29.5 51.5t54.5 20.5l37 -10l251 -123q16 -8 24.5 -13.5t13.5 -17.5t3 -29q-2 -23 -23.5 -52.5t-55.5 -29.5q-18 0 -35 11l-254 120q-53 27 -45 72z" />
<glyph unicode="&#xc9;" horiz-adv-x="1433" d="M104 61q10 63 93 64h110l168 1001h-110q-23 0 -36.5 2t-26.5 16.5t-9 43.5q10 63 92 63h1055q51 0 63.5 -17t3.5 -67l-24 -149q-4 -27 -9.5 -41t-24.5 -28.5t-52 -14.5q-45 0 -55.5 27.5t-0.5 56.5l19 108h-744l-69 -415h407q6 41 10.5 55t13.5 32.5t24.5 23.5t41.5 5 q47 0 55.5 -21.5t2.5 -62.5l-33 -190q-4 -27 -9 -41t-23.5 -28.5t-51.5 -14.5q-49 0 -57 26.5t6 90.5h-408l-77 -461h802l25 141q4 27 9 41.5t24.5 28.5t52.5 14q45 0 55 -27.5t0 -56.5l-31 -182q-8 -49 -27.5 -66.5t-68.5 -17.5h-1114q-23 0 -36 2t-26.5 16t-9.5 43z M737 1419q6 37 62 60l293 123l41 10q31 0 48 -20.5t11 -51.5q-8 -45 -70 -72l-291 -120q-25 -10 -38 -11q-35 0 -46.5 29.5t-9.5 52.5z" />
<glyph unicode="&#xca;" horiz-adv-x="1433" d="M104 61q10 63 93 64h110l168 1001h-110q-23 0 -36.5 2t-26.5 16.5t-9 43.5q10 63 92 63h1055q51 0 63.5 -17t3.5 -67l-24 -149q-4 -27 -9.5 -41t-24.5 -28.5t-52 -14.5q-45 0 -55.5 27.5t-0.5 56.5l19 108h-744l-69 -415h407q6 41 10.5 55t13.5 32.5t24.5 23.5t41.5 5 q47 0 55.5 -21.5t2.5 -62.5l-33 -190q-4 -27 -9 -41t-23.5 -28.5t-51.5 -14.5q-49 0 -57 26.5t6 90.5h-408l-77 -461h802l25 141q4 27 9 41.5t24.5 28.5t52.5 14q45 0 55 -27.5t0 -56.5l-31 -182q-8 -49 -27.5 -66.5t-68.5 -17.5h-1114q-23 0 -36 2t-26.5 16t-9.5 43z M651.5 1390.5q10.5 32.5 46.5 45.5l256 88q18 6 39 0l228 -88q51 -20 22 -75.5t-82 -39.5l-211 68l-235 -68q-37 -10 -55.5 13.5t-8 56z" />
<glyph unicode="&#xcb;" horiz-adv-x="1433" d="M104 61q10 63 93 64h110l168 1001h-110q-23 0 -36.5 2t-26.5 16.5t-9 43.5q10 63 92 63h1055q51 0 63.5 -17t3.5 -67l-24 -149q-4 -27 -9.5 -41t-24.5 -28.5t-52 -14.5q-45 0 -55.5 27.5t-0.5 56.5l19 108h-744l-69 -415h407q6 41 10.5 55t13.5 32.5t24.5 23.5t41.5 5 q47 0 55.5 -21.5t2.5 -62.5l-33 -190q-4 -27 -9 -41t-23.5 -28.5t-51.5 -14.5q-49 0 -57 26.5t6 90.5h-408l-77 -461h802l25 141q4 27 9 41.5t24.5 28.5t52.5 14q45 0 55 -27.5t0 -56.5l-31 -182q-8 -49 -27.5 -66.5t-68.5 -17.5h-1114q-23 0 -36 2t-26.5 16t-9.5 43z M659 1409q4 35 36 63.5t73 28.5q39 0 61.5 -27.5t16.5 -64.5t-38 -64.5t-73 -27.5q-37 0 -60.5 27.5t-15.5 64.5zM1063 1409q4 35 35.5 63.5t72.5 28.5q39 0 61.5 -27.5t16.5 -64.5t-37.5 -64.5t-72.5 -27.5q-37 0 -60.5 27.5t-15.5 64.5z" />
<glyph unicode="&#xcc;" horiz-adv-x="716" d="M94 61q10 63 92 64h121l168 1001h-121q-23 0 -36 2t-26 16.5t-9 43.5q10 63 92 63h383q25 0 38 -2t25.5 -17t7.5 -44q-10 -61 -92 -62h-121l-167 -1001h120q25 0 38.5 -2t25.5 -17.5t8 -44.5q-10 -61 -92 -61h-383q-23 0 -36 2t-26.5 16t-9.5 43zM397 1540q6 31 30 51.5 t54 20.5l37 -10l252 -123q16 -8 24.5 -13.5t13.5 -17.5t3 -29q-2 -23 -23.5 -52.5t-56.5 -29.5q-18 0 -35 11l-254 120q-53 27 -45 72z" />
<glyph unicode="&#xcd;" horiz-adv-x="716" d="M94 61q10 63 92 64h121l168 1001h-121q-23 0 -36 2t-26 16.5t-9 43.5q10 63 92 63h383q25 0 38 -2t25.5 -17t7.5 -44q-10 -61 -92 -62h-121l-167 -1001h120q25 0 38.5 -2t25.5 -17.5t8 -44.5q-10 -61 -92 -61h-383q-23 0 -36 2t-26.5 16t-9.5 43zM379 1419q6 37 61 60 l293 123l41 10q31 0 48.5 -20.5t11.5 -51.5q-8 -45 -70 -72l-291 -120q-25 -10 -39 -11q-35 0 -46 29.5t-9 52.5z" />
<glyph unicode="&#xce;" horiz-adv-x="716" d="M94 61q10 63 92 64h121l168 1001h-121q-23 0 -36 2t-26 16.5t-9 43.5q10 63 92 63h383q25 0 38 -2t25.5 -17t7.5 -44q-10 -61 -92 -62h-121l-167 -1001h120q25 0 38.5 -2t25.5 -17.5t8 -44.5q-10 -61 -92 -61h-383q-23 0 -36 2t-26.5 16t-9.5 43zM293 1390.5 q10 32.5 47 45.5l256 88q18 6 39 0l227 -88q51 -20 22.5 -75.5t-81.5 -39.5l-211 68l-236 -68q-37 -10 -55 13.5t-8 56z" />
<glyph unicode="&#xcf;" horiz-adv-x="716" d="M94 61q10 63 92 64h121l168 1001h-121q-23 0 -36 2t-26 16.5t-9 43.5q10 63 92 63h383q25 0 38 -2t25.5 -17t7.5 -44q-10 -61 -92 -62h-121l-167 -1001h120q25 0 38.5 -2t25.5 -17.5t8 -44.5q-10 -61 -92 -61h-383q-23 0 -36 2t-26.5 16t-9.5 43zM301 1409q4 35 36 63.5 t73 28.5q39 0 61.5 -27.5t16 -64.5t-38 -64.5t-72.5 -27.5q-37 0 -60.5 27.5t-15.5 64.5zM705 1409q4 35 35.5 63.5t72.5 28.5q39 0 61.5 -27.5t16.5 -64.5t-38 -64.5t-73 -27.5q-37 0 -60 27.5t-15 64.5z" />
<glyph unicode="&#xd0;" horiz-adv-x="1613" d="M104 61q10 63 93 64h110l74 438h-121q-27 0 -42 18.5t-11 45t25.5 45t48.5 18.5h120l74 436h-110q-23 0 -36.5 2t-26.5 16.5t-9 43.5q10 63 92 63h659q270 0 432 -187t117 -450q-41 -252 -263 -433t-494 -181h-660q-23 0 -36 2t-26.5 16t-9.5 43zM449 125h370 q231 0 414.5 144.5t218.5 346.5q35 205 -98 357.5t-369 152.5h-369l-73 -436h379q27 0 42 -18.5t11 -45t-25.5 -45t-48.5 -18.5h-379z" />
<glyph unicode="&#xd1;" horiz-adv-x="1552" d="M119 61q10 63 92 64h111l167 1001h-110q-23 0 -36 2t-26.5 16.5t-9.5 43.5q10 63 92 63h195q29 0 44 -2t36.5 -18.5t36.5 -48.5l440 -1078h2l170 1022h-111q-23 0 -36 2t-26 16.5t-9 43.5q10 63 92 63h336q25 0 38 -2t25.5 -17t7.5 -44q-10 -61 -92 -62h-110l-174 -1042 q-8 -53 -27.5 -68.5t-71.5 -15.5q-29 0 -44 2t-36.5 18.5t-35.5 49.5l-441 1077h-2l-170 -1022h111q25 0 38 -2t25.5 -17.5t7.5 -44.5q-10 -61 -92 -61h-336q-23 0 -36 2t-26 16t-9 43zM649 1382q6 39 121 113q100 68 170 68q72 0 125 -70q39 -43 57 -43q49 0 158 90 q31 23 53 23q25 0 41.5 -20.5t11.5 -45.5q-6 -35 -118 -113q-102 -68 -172 -67q-66 0 -125 69q-39 43 -58 44q-45 0 -157 -91q-31 -23 -54 -22q-25 0 -41 20t-12 45z" />
<glyph unicode="&#xd2;" horiz-adv-x="1673" d="M223 627q43 262 284 454.5t542 192.5q299 0 476 -190.5t132 -458.5q-43 -262 -283.5 -455t-542.5 -193q-299 0 -476 191t-132 459zM369 649q-37 -223 103 -385t380 -162t435.5 162t232.5 385q35 205 -108.5 352.5t-383.5 147.5t-432 -147.5t-227 -352.5zM874 1540 q6 31 30 51.5t54 20.5l37 -10l252 -123q16 -8 24.5 -13.5t13.5 -17.5t3 -29q-2 -23 -23.5 -52.5t-56.5 -29.5q-18 0 -34 11l-254 120q-54 27 -46 72z" />
<glyph unicode="&#xd3;" horiz-adv-x="1673" d="M223 627q43 262 284 454.5t542 192.5q299 0 476 -190.5t132 -458.5q-43 -262 -283.5 -455t-542.5 -193q-299 0 -476 191t-132 459zM369 649q-37 -223 103 -385t380 -162t435.5 162t232.5 385q35 205 -108.5 352.5t-383.5 147.5t-432 -147.5t-227 -352.5zM856 1419 q6 37 62 60l292 123l41 10q31 0 48.5 -20.5t11.5 -51.5q-8 -45 -70 -72l-291 -120q-25 -10 -39 -11q-35 0 -46 29.5t-9 52.5z" />
<glyph unicode="&#xd4;" horiz-adv-x="1673" d="M223 627q43 262 284 454.5t542 192.5q299 0 476 -190.5t132 -458.5q-43 -262 -283.5 -455t-542.5 -193q-299 0 -476 191t-132 459zM369 649q-37 -223 103 -385t380 -162t435.5 162t232.5 385q35 205 -108.5 352.5t-383.5 147.5t-432 -147.5t-227 -352.5zM770 1390.5 q10 32.5 47 45.5l256 88q20 6 39 0l227 -88q51 -20 22.5 -75.5t-81.5 -39.5l-211 68l-235 -68q-37 -10 -55.5 13.5t-8.5 56z" />
<glyph unicode="&#xd5;" horiz-adv-x="1673" d="M223 627q43 262 284 454.5t542 192.5q299 0 476 -190.5t132 -458.5q-43 -262 -283.5 -455t-542.5 -193q-299 0 -476 191t-132 459zM369 649q-37 -223 103 -385t380 -162t435.5 162t232.5 385q35 205 -108.5 352.5t-383.5 147.5t-432 -147.5t-227 -352.5zM709 1382 q6 39 120 113q100 68 170 68q72 0 125 -70q39 -43 58 -43q49 0 157 90q31 23 54 23q25 0 41 -20.5t12 -45.5q-6 -35 -119 -113q-102 -68 -172 -67q-66 0 -125 69q-39 43 -57 44q-45 0 -158 -91q-31 -23 -53 -22q-25 0 -41 20t-12 45z" />
<glyph unicode="&#xd6;" horiz-adv-x="1673" d="M223 627q43 262 284 454.5t542 192.5q299 0 476 -190.5t132 -458.5q-43 -262 -283.5 -455t-542.5 -193q-299 0 -476 191t-132 459zM369 649q-37 -223 103 -385t380 -162t435.5 162t232.5 385q35 205 -108.5 352.5t-383.5 147.5t-432 -147.5t-227 -352.5zM778 1409 q4 35 36 63.5t73 28.5q39 0 61.5 -27.5t16 -64.5t-38 -64.5t-72.5 -27.5q-37 0 -60.5 27.5t-15.5 64.5zM1182 1409q4 35 35.5 63.5t72.5 28.5q39 0 61.5 -27.5t16.5 -64.5t-38 -64.5t-73 -27.5q-37 0 -60 27.5t-15 64.5z" />
<glyph unicode="&#xd7;" horiz-adv-x="1673" d="M350 121q-43 49 35 117l455 389l-324 389q-59 68 2 117q57 51 115 -17l323 -389l455 389q78 68 119 17q43 -49 -35 -117l-455 -389l324 -389q59 -68 -2 -117q-57 -51 -115 16l-323 389l-455 -389q-78 -67 -119 -16z" />
<glyph unicode="&#xd8;" horiz-adv-x="1673" d="M221 -111q2 18 41 62l150 166q-125 104 -168 239.5t-21 270.5q43 262 284 454.5t542 192.5q45 0 90 -5t76.5 -13.5t63.5 -18.5t49.5 -17.5t31.5 -15.5l14 -6l164 188q33 39 66 39q25 0 42 -17t13 -46l-8 -16q-6 -16 -23 -35l-160 -176q125 -104 168 -239.5t21 -270.5 q-43 -262 -283.5 -455t-542.5 -193q-190 0 -323 76l-170 -192q-33 -35 -62 -35q-25 0 -42 17t-13 46zM338 625q-23 -127 24.5 -234.5t135.5 -175.5l782 883q-129 51 -252 51q-252 0 -453.5 -154.5t-236.5 -369.5zM600 154q129 -51 252 -52q252 0 453.5 155t236.5 370 q23 129 -25.5 237.5t-136.5 171.5z" />
<glyph unicode="&#xd9;" horiz-adv-x="1552" d="M293 1188q10 63 92 63h363q25 0 38 -2t25 -17t8 -44q-10 -61 -92 -62h-111l-116 -692q-25 -160 67 -246t226 -86q129 0 251.5 86t149.5 246l117 692h-111q-23 0 -36 2t-26.5 16.5t-9.5 43.5q10 63 93 63h362q25 0 38 -2t25.5 -17t8.5 -44q-10 -61 -92 -62h-111l-119 -704 q-31 -188 -195.5 -316.5t-367.5 -128.5q-199 0 -321.5 127t-92.5 318l119 704h-110q-23 0 -36.5 2t-26.5 16.5t-9 43.5zM862 1540q6 31 29.5 51.5t54.5 20.5l37 -10l252 -123q16 -8 24.5 -13.5t13.5 -17.5t3 -29q-2 -23 -23.5 -52.5t-56.5 -29.5q-18 0 -35 11l-254 120 q-53 27 -45 72z" />
<glyph unicode="&#xda;" horiz-adv-x="1552" d="M293 1188q10 63 92 63h363q25 0 38 -2t25 -17t8 -44q-10 -61 -92 -62h-111l-116 -692q-25 -160 67 -246t226 -86q129 0 251.5 86t149.5 246l117 692h-111q-23 0 -36 2t-26.5 16.5t-9.5 43.5q10 63 93 63h362q25 0 38 -2t25.5 -17t8.5 -44q-10 -61 -92 -62h-111l-119 -704 q-31 -188 -195.5 -316.5t-367.5 -128.5q-199 0 -321.5 127t-92.5 318l119 704h-110q-23 0 -36.5 2t-26.5 16.5t-9 43.5zM844 1419q6 37 61 60l293 123l41 10q31 0 48.5 -20.5t10.5 -51.5q-8 -45 -69 -72l-291 -120q-25 -10 -39 -11q-35 0 -46 29.5t-9 52.5z" />
<glyph unicode="&#xdb;" horiz-adv-x="1552" d="M293 1188q10 63 92 63h363q25 0 38 -2t25 -17t8 -44q-10 -61 -92 -62h-111l-116 -692q-25 -160 67 -246t226 -86q129 0 251.5 86t149.5 246l117 692h-111q-23 0 -36 2t-26.5 16.5t-9.5 43.5q10 63 93 63h362q25 0 38 -2t25.5 -17t8.5 -44q-10 -61 -92 -62h-111l-119 -704 q-31 -188 -195.5 -316.5t-367.5 -128.5q-199 0 -321.5 127t-92.5 318l119 704h-110q-23 0 -36.5 2t-26.5 16.5t-9 43.5zM758 1390.5q10 32.5 47 45.5l256 88q20 6 39 0l227 -88q51 -20 22.5 -75.5t-81.5 -39.5l-211 68l-236 -68q-37 -10 -55 13.5t-8 56z" />
<glyph unicode="&#xdc;" horiz-adv-x="1552" d="M293 1188q10 63 92 63h363q25 0 38 -2t25 -17t8 -44q-10 -61 -92 -62h-111l-116 -692q-25 -160 67 -246t226 -86q129 0 251.5 86t149.5 246l117 692h-111q-23 0 -36 2t-26.5 16.5t-9.5 43.5q10 63 93 63h362q25 0 38 -2t25.5 -17t8.5 -44q-10 -61 -92 -62h-111l-119 -704 q-31 -188 -195.5 -316.5t-367.5 -128.5q-199 0 -321.5 127t-92.5 318l119 704h-110q-23 0 -36.5 2t-26.5 16.5t-9 43.5zM766 1409q4 35 36 63.5t72 28.5q39 0 61.5 -27.5t16.5 -64.5t-37.5 -64.5t-72.5 -27.5q-37 0 -60.5 27.5t-15.5 64.5zM1169 1409q4 35 36 63.5t73 28.5 q39 0 61.5 -27.5t16.5 -64.5t-38 -64.5t-73 -27.5q-37 0 -60.5 27.5t-15.5 64.5z" />
<glyph unicode="&#xdd;" horiz-adv-x="1552" d="M260 1190q10 61 94 61h320q23 0 37 -2t27.5 -17t9.5 -44q-10 -61 -95 -62h-47l275 -483l440 483h-47q-23 0 -37 2t-27.5 17.5t-9.5 44.5q10 61 94 61h320q23 0 37 -2t27.5 -17t9.5 -44q-10 -61 -95 -62h-98l-565 -626l-64 -375h111q25 0 38 -2t25.5 -17.5t8.5 -44.5 q-10 -61 -93 -61h-362q-23 0 -36 2t-26.5 16.5t-9.5 42.5q10 63 92 64h111l63 375l-356 626h-98q-23 0 -37 2t-27.5 17.5t-9.5 44.5zM797 1419q6 37 61 60l293 123l41 10q31 0 48 -20.5t11 -51.5q-8 -45 -69 -72l-291 -120q-25 -10 -39 -11q-35 0 -46 29.5t-9 52.5z" />
<glyph unicode="&#xde;" horiz-adv-x="1433" d="M104 61q10 63 93 64h110l168 1001h-110q-23 0 -36.5 2t-26.5 16.5t-9 43.5q10 63 92 63h363q25 0 38 -2t25 -17t8 -44q-10 -61 -92 -62h-111l-20 -125h379q215 0 341 -111.5t101.5 -263t-188.5 -263t-379 -111.5h-379l-22 -127h110q25 0 38 -2t25.5 -17.5t8.5 -44.5 q-10 -61 -92 -61h-363q-23 0 -36 2t-26.5 16t-9.5 43zM492 377h344q166 0 295 74.5t145 175t-87.5 175.5t-270.5 75h-345z" />
<glyph unicode="&#xdf;" d="M45 61q10 63 92 64h111l106 633h-110q-23 0 -36 2t-26.5 16.5t-9.5 42.5q10 63 92 64h111l24 143q10 68 56.5 117t110 73.5t123 36t114.5 11.5q152 0 247 -62.5t78 -161.5q-23 -139 -208 -231q201 -160 153 -451q-27 -162 -158 -266t-278 -104q-98 0 -146.5 46t-35.5 107 q6 39 34.5 62.5t63.5 23.5q37 0 59 -32q10 -20 2 -74q14 -8 43 -8q88 0 172 67.5t103 177.5l5 83q3 48 -13.5 101.5t-43 99.5t-83 79t-133.5 37l-13 4q-10 4 -20 19.5t-6 37.5q10 59 67 64q137 4 212 55t83 100q6 39 -54.5 70t-152.5 31q-86 0 -157 -29q-35 -14 -53.5 -31.5 t-22.5 -29t-10 -37.5l-154 -928q-8 -49 -27.5 -66.5t-68.5 -17.5h-170q-23 0 -36 2t-26.5 16t-9.5 43z" />
<glyph unicode="&#xe0;" horiz-adv-x="1044" d="M152 262q25 139 196.5 220t450.5 85q18 104 -41.5 156.5t-175.5 52.5q-51 0 -76 -2t-30 -6t-9 -16q-10 -49 -41 -72t-64 -23q-39 0 -62.5 25t-14.5 70q25 150 315 149q197 0 281 -95t63 -222l-74 -443q33 -16 111 -16q23 0 36 -2t26.5 -16.5t9.5 -43.5q-4 -31 -22.5 -45 t-36 -16t-52.5 -2q-168 0 -205 66q-125 -78 -303 -78q-143 0 -221.5 80.5t-60.5 193.5zM293 262q-10 -61 39 -105t139 -44q100 0 178 32q41 16 63.5 41t27.5 42.5t10 45.5l28 172q-227 -8 -349 -59t-136 -125zM502 1180q4 31 28.5 51t55.5 20l37 -10l251 -123 q16 -8 24.5 -13t14 -17.5t2.5 -28.5q-2 -23 -23.5 -52.5t-55.5 -29.5q-16 0 -37 10l-252 121q-53 27 -45 72z" />
<glyph unicode="&#xe1;" horiz-adv-x="1044" d="M152 262q25 139 196.5 220t450.5 85q18 104 -41.5 156.5t-175.5 52.5q-51 0 -76 -2t-30 -6t-9 -16q-10 -49 -41 -72t-64 -23q-39 0 -62.5 25t-14.5 70q25 150 315 149q197 0 281 -95t63 -222l-74 -443q33 -16 111 -16q23 0 36 -2t26.5 -16.5t9.5 -43.5q-4 -31 -22.5 -45 t-36 -16t-52.5 -2q-168 0 -205 66q-125 -78 -303 -78q-143 0 -221.5 80.5t-60.5 193.5zM293 262q-10 -61 39 -105t139 -44q100 0 178 32q41 16 63.5 41t27.5 42.5t10 45.5l28 172q-227 -8 -349 -59t-136 -125zM483 1059q6 37 62 59l293 123l41 10q31 0 47 -20.5t12 -50.5 q-8 -45 -70 -72l-293 -121q-20 -10 -36 -10q-35 0 -46.5 29.5t-9.5 52.5z" />
<glyph unicode="&#xe2;" horiz-adv-x="1044" d="M152 262q25 139 196.5 220t450.5 85q18 104 -41.5 156.5t-175.5 52.5q-51 0 -76 -2t-30 -6t-9 -16q-10 -49 -41 -72t-64 -23q-39 0 -62.5 25t-14.5 70q25 150 315 149q197 0 281 -95t63 -222l-74 -443q33 -16 111 -16q23 0 36 -2t26.5 -16.5t9.5 -43.5q-4 -31 -22.5 -45 t-36 -16t-52.5 -2q-168 0 -205 66q-125 -78 -303 -78q-143 0 -221.5 80.5t-60.5 193.5zM293 262q-10 -61 39 -105t139 -44q100 0 178 32q41 16 63.5 41t27.5 42.5t10 45.5l28 172q-227 -8 -349 -59t-136 -125zM398.5 1006.5q-23.5 50.5 33.5 83.5l266 153q35 20 62 0 l221 -153q45 -33 4 -83.5t-86 -19.5l-188 127l-234 -127q-55 -31 -78.5 19.5z" />
<glyph unicode="&#xe3;" horiz-adv-x="1044" d="M152 262q25 139 196.5 220t450.5 85q18 104 -41.5 156.5t-175.5 52.5q-51 0 -76 -2t-30 -6t-9 -16q-10 -49 -41 -72t-64 -23q-39 0 -62.5 25t-14.5 70q25 150 315 149q197 0 281 -95t63 -222l-74 -443q33 -16 111 -16q23 0 36 -2t26.5 -16.5t9.5 -43.5q-4 -31 -22.5 -45 t-36 -16t-52.5 -2q-168 0 -205 66q-125 -78 -303 -78q-143 0 -221.5 80.5t-60.5 193.5zM293 262q-10 -61 39 -105t139 -44q100 0 178 32q41 16 63.5 41t27.5 42.5t10 45.5l28 172q-227 -8 -349 -59t-136 -125zM342 1057q6 35 119 112q102 68 172 68q66 0 125 -70 q39 -43 57 -43q45 0 158 90q31 23 53 23q25 0 40 -20.5t11 -45.5q-6 -39 -119 -112q-102 -68 -169.5 -68t-126.5 70q-39 43 -56 43q-49 0 -157 -90q-31 -23 -54 -23q-25 0 -41 20.5t-12 45.5z" />
<glyph unicode="&#xe4;" horiz-adv-x="1044" d="M152 262q25 139 196.5 220t450.5 85q18 104 -41.5 156.5t-175.5 52.5q-51 0 -76 -2t-30 -6t-9 -16q-10 -49 -41 -72t-64 -23q-39 0 -62.5 25t-14.5 70q25 150 315 149q197 0 281 -95t63 -222l-74 -443q33 -16 111 -16q23 0 36 -2t26.5 -16.5t9.5 -43.5q-4 -31 -22.5 -45 t-36 -16t-52.5 -2q-168 0 -205 66q-125 -78 -303 -78q-143 0 -221.5 80.5t-60.5 193.5zM293 262q-10 -61 39 -105t139 -44q100 0 178 32q41 16 63.5 41t27.5 42.5t10 45.5l28 172q-227 -8 -349 -59t-136 -125zM446 1114q4 35 36 63.5t73 28.5q39 0 61.5 -27.5t16.5 -64.5 t-38 -64.5t-73 -27.5q-37 0 -59.5 26.5t-16.5 65.5zM788 1114q4 35 36 63.5t73 28.5q39 0 61.5 -27.5t16.5 -64.5t-38 -64.5t-73 -27.5q-37 0 -59.5 26.5t-16.5 65.5z" />
<glyph unicode="&#xe5;" horiz-adv-x="1044" d="M152 262q25 139 196.5 220t450.5 85q18 104 -41.5 156.5t-175.5 52.5q-51 0 -76 -2t-30 -6t-9 -16q-10 -49 -41 -72t-64 -23q-39 0 -62.5 25t-14.5 70q25 150 315 149q197 0 281 -95t63 -222l-74 -443q33 -16 111 -16q23 0 36 -2t26.5 -16.5t9.5 -43.5q-4 -31 -22.5 -45 t-36 -16t-52.5 -2q-168 0 -205 66q-125 -78 -303 -78q-143 0 -221.5 80.5t-60.5 193.5zM293 262q-10 -61 39 -105t139 -44q100 0 178 32q41 16 63.5 41t27.5 42.5t10 45.5l28 172q-227 -8 -349 -59t-136 -125zM473 1142.5q10 55.5 85 95.5t179 40q98 0 162 -40t53.5 -95.5 t-85 -95t-179.5 -39.5q-98 0 -161.5 39.5t-53.5 95zM608 1143q-4 -25 23.5 -42.5t70.5 -17.5q39 0 75 16.5t40 43.5q4 25 -23.5 42t-70.5 17q-39 0 -75 -16t-40 -43z" />
<glyph unicode="&#xe6;" horiz-adv-x="1552" d="M150 242q41 250 641 268l10 61q14 100 -42.5 152.5t-176.5 52.5q-47 0 -78 -2q-23 -2 -28 -6t-9 -16q-10 -49 -42 -72t-63 -23q-39 0 -62.5 25t-14.5 70q25 150 315 149q250 0 326 -164q164 164 352 164q170 0 245.5 -121t45.5 -311q-6 -37 -21.5 -54.5t-30 -20.5 t-42.5 -3h-560q-2 -123 79 -200.5t196 -77.5q131 0 201 123q25 45 75 45q14 0 25.5 -2.5t26 -15.5t10.5 -40q-10 -61 -112.5 -148t-258.5 -87q-209 0 -321 162q-59 -92 -176 -127t-226 -35q-147 0 -224.5 76t-59.5 178zM291 244q-10 -55 41 -93t141 -38q96 0 178 30 q96 35 107 117q0 6 14 127q-186 -8 -280 -29q-191 -51 -201 -114zM938 514h496q10 113 -32 187.5t-145 74.5q-94 0 -186 -72.5t-133 -189.5z" />
<glyph unicode="&#xe7;" horiz-adv-x="956" d="M164 442q12 74 51 149t102.5 147.5t168 117.5t229.5 45q35 0 56.5 -1t62 -4t66.5 -13.5t52.5 -25.5t37.5 -43t5 -62q-8 -43 -37.5 -69t-68.5 -26q-88 0 -74 101q0 8 -23.5 12t-44 5t-53.5 1q-96 0 -173 -37t-120 -94t-65.5 -107.5t-30.5 -95.5q-23 -139 56 -234t210 -95 q147 0 224 123q25 45 75 45q14 0 25.5 -2.5t26 -15.5t10.5 -40q-6 -43 -78 -118.5t-199 -104.5l-4 -20q76 -20 117 -71.5t29 -127.5q-8 -43 -30 -77t-48.5 -55.5t-69.5 -36.5t-75.5 -22.5t-86 -11.5t-81.5 -4h-80q-23 0 -41.5 15.5t-12.5 48.5q6 31 26.5 45t40 16t60.5 2 q141 0 195.5 20.5t60.5 61.5q6 33 -22.5 55.5t-79.5 26.5q-29 2 -41 15.5t-11 29.5t3 35l8 43q-180 10 -278.5 142t-69.5 312z" />
<glyph unicode="&#xe8;" horiz-adv-x="956" d="M152 446q31 186 178 320.5t327 134.5q182 0 265.5 -122t50.5 -312q-6 -35 -21.5 -52.5t-30 -20.5t-42.5 -3h-590q0 -123 81 -200.5t199 -77.5q154 0 226 123q25 45 75 45q14 0 25.5 -2.5t26 -15.5t10.5 -40q-10 -63 -117.5 -149t-277.5 -86q-193 0 -304.5 134t-80.5 324z M311 514h525q12 143 -47.5 202.5t-151.5 59.5q-102 0 -194.5 -73.5t-131.5 -188.5zM457 1180q4 31 28.5 51t55.5 20l37 -10l251 -123q16 -8 24.5 -13t13.5 -17.5t3 -28.5q-2 -23 -23.5 -52.5t-55.5 -29.5q-16 0 -37 10l-252 121q-53 27 -45 72z" />
<glyph unicode="&#xe9;" horiz-adv-x="956" d="M152 446q31 186 178 320.5t327 134.5q182 0 265.5 -122t50.5 -312q-6 -35 -21.5 -52.5t-30 -20.5t-42.5 -3h-590q0 -123 81 -200.5t199 -77.5q154 0 226 123q25 45 75 45q14 0 25.5 -2.5t26 -15.5t10.5 -40q-10 -63 -117.5 -149t-277.5 -86q-193 0 -304.5 134t-80.5 324z M311 514h525q12 143 -47.5 202.5t-151.5 59.5q-102 0 -194.5 -73.5t-131.5 -188.5zM438 1059q6 37 62 59l293 123l41 10q31 0 47 -20.5t12 -50.5q-8 -45 -70 -72l-293 -121q-20 -10 -36 -10q-35 0 -46.5 29.5t-9.5 52.5z" />
<glyph unicode="&#xea;" horiz-adv-x="956" d="M152 446q31 186 178 320.5t327 134.5q182 0 265.5 -122t50.5 -312q-6 -35 -21.5 -52.5t-30 -20.5t-42.5 -3h-590q0 -123 81 -200.5t199 -77.5q154 0 226 123q25 45 75 45q14 0 25.5 -2.5t26 -15.5t10.5 -40q-10 -63 -117.5 -149t-277.5 -86q-193 0 -304.5 134t-80.5 324z M311 514h525q12 143 -47.5 202.5t-151.5 59.5q-102 0 -194.5 -73.5t-131.5 -188.5zM353.5 1006.5q-23.5 50.5 33.5 83.5l266 153q35 20 62 0l221 -153q45 -33 4 -83.5t-86 -19.5l-188 127l-234 -127q-55 -31 -78.5 19.5z" />
<glyph unicode="&#xeb;" horiz-adv-x="956" d="M152 446q31 186 178 320.5t327 134.5q182 0 265.5 -122t50.5 -312q-6 -35 -21.5 -52.5t-30 -20.5t-42.5 -3h-590q0 -123 81 -200.5t199 -77.5q154 0 226 123q25 45 75 45q14 0 25.5 -2.5t26 -15.5t10.5 -40q-10 -63 -117.5 -149t-277.5 -86q-193 0 -304.5 134t-80.5 324z M311 514h525q12 143 -47.5 202.5t-151.5 59.5q-102 0 -194.5 -73.5t-131.5 -188.5zM401 1114q4 35 36 63.5t73 28.5q39 0 61.5 -27.5t16.5 -64.5t-38 -64.5t-73 -27.5q-37 0 -59.5 26.5t-16.5 65.5zM743 1114q4 35 36 63.5t73 28.5q39 0 61.5 -27.5t16.5 -64.5t-38 -64.5 t-73 -27.5q-37 0 -59.5 26.5t-16.5 65.5z" />
<glyph unicode="&#xec;" horiz-adv-x="598" d="M45 61q10 63 92 64h111l106 633h-100q-23 0 -37 2t-27.5 17.5t-9.5 43.5q10 61 94 62h160q51 0 63.5 -17.5t4.5 -66.5l-113 -674h90q25 0 38 -2t26.5 -17.5t9.5 -44.5q-10 -61 -92 -61h-344q-23 0 -36 2t-26.5 16t-9.5 43zM276 1180q4 31 29 51t55 20l37 -10l252 -123 q16 -8 24.5 -13t13.5 -17.5t3 -28.5q-2 -23 -23.5 -52.5t-56.5 -29.5q-16 0 -37 10l-251 121q-54 27 -46 72z" />
<glyph unicode="&#xed;" horiz-adv-x="598" d="M45 61q10 63 92 64h111l106 633h-100q-23 0 -37 2t-27.5 17.5t-9.5 43.5q10 61 94 62h160q51 0 63.5 -17.5t4.5 -66.5l-113 -674h90q25 0 38 -2t26.5 -17.5t9.5 -44.5q-10 -61 -92 -61h-344q-23 0 -36 2t-26.5 16t-9.5 43zM258 1059q6 37 61 59l293 123l41 10 q31 0 47.5 -20.5t12.5 -50.5q-8 -45 -70 -72l-293 -121q-20 -10 -37 -10q-35 0 -46 29.5t-9 52.5z" />
<glyph unicode="&#xee;" horiz-adv-x="598" d="M45 61q10 63 92 64h111l106 633h-100q-23 0 -37 2t-27.5 17.5t-9.5 43.5q10 61 94 62h160q51 0 63.5 -17.5t4.5 -66.5l-113 -674h90q25 0 38 -2t26.5 -17.5t9.5 -44.5q-10 -61 -92 -61h-344q-23 0 -36 2t-26.5 16t-9.5 43zM173.5 1006.5q-23.5 50.5 33.5 83.5l266 153 q35 20 62 0l221 -153q45 -33 4 -83.5t-86 -19.5l-189 127l-233 -127q-55 -31 -78.5 19.5z" />
<glyph unicode="&#xef;" horiz-adv-x="598" d="M45 61q10 63 92 64h111l106 633h-100q-23 0 -37 2t-27.5 17.5t-9.5 43.5q10 61 94 62h160q51 0 63.5 -17.5t4.5 -66.5l-113 -674h90q25 0 38 -2t26.5 -17.5t9.5 -44.5q-10 -61 -92 -61h-344q-23 0 -36 2t-26.5 16t-9.5 43zM221 1114q4 35 36 63.5t73 28.5 q39 0 61.5 -27.5t16 -64.5t-38 -64.5t-72.5 -27.5q-37 0 -59.5 26.5t-16.5 65.5zM563 1114q4 35 36 63.5t73 28.5q39 0 61.5 -27.5t16 -64.5t-38 -64.5t-72.5 -27.5q-37 0 -59.5 26.5t-16.5 65.5z" />
<glyph unicode="&#xf0;" d="M152 442q31 188 187.5 323.5t346.5 135.5q176 0 289 -117q18 221 -29 332l-125 -92q-23 -14 -43 -14q-27 0 -42 18.5t-11 44.5q6 31 31 49l116 86q-51 35 -127 35q-31 0 -47 21.5t-12 50t28.5 50t55.5 21.5q139 0 223 -88l133 99q18 14 43 14q27 0 42.5 -18.5t11.5 -44.5 q-6 -31 -31 -50l-135 -98q102 -231 12 -758q-33 -190 -188 -321q-156 -133 -346.5 -133t-303 132t-79.5 322zM295 457q-23 -141 52 -242.5t208 -101.5q131 0 241.5 101t133.5 243q23 135 -56 227t-208 92t-238.5 -92t-132.5 -227z" />
<glyph unicode="&#xf1;" horiz-adv-x="1193" d="M45 61q10 63 92 64h111l106 633h-110q-23 0 -36 2t-26.5 16.5t-9.5 42.5q10 63 92 64h170q57 0 67.5 -23.5t-3.5 -81.5q145 117 321 117q295 0 246 -299l-80 -471h111q25 0 38 -2t25 -17.5t8 -44.5q-10 -61 -92 -61h-362q-25 0 -38 2t-25.5 17.5t-8.5 43.5q10 61 92 62 h111l78 459q16 96 -9.5 141t-126.5 45q-63 0 -129.5 -24.5t-128 -92t-77.5 -168.5l-62 -360h111q25 0 38 -2t25 -17.5t8 -44.5q-10 -61 -92 -61h-362q-23 0 -36 2t-26.5 16t-9.5 43zM416 1057q6 35 119 112q102 68 172 68q66 0 124 -70q39 -43 58 -43q45 0 158 90 q31 23 53 23q25 0 40 -20.5t11 -45.5q-6 -39 -119 -112q-102 -68 -169.5 -68t-127.5 70q-39 43 -55 43q-49 0 -158 -90q-31 -23 -53 -23q-25 0 -41 20.5t-12 45.5z" />
<glyph unicode="&#xf2;" d="M152 442q31 188 187.5 323.5t347 135.5t302 -135t80.5 -324q-33 -190 -188.5 -322t-346 -132t-303 132t-79.5 322zM295 457q-23 -141 52 -242.5t208 -101.5q131 0 241.5 101t133.5 243q23 135 -56 227t-208 92t-238.5 -92t-132.5 -227zM516 1180q4 31 28.5 51t55.5 20 l37 -10l252 -123q16 -8 24.5 -13t13.5 -17.5t3 -28.5q-2 -23 -23.5 -52.5t-56.5 -29.5q-16 0 -37 10l-252 121q-53 27 -45 72z" />
<glyph unicode="&#xf3;" d="M152 442q31 188 187.5 323.5t347 135.5t302 -135t80.5 -324q-33 -190 -188.5 -322t-346 -132t-303 132t-79.5 322zM295 457q-23 -141 52 -242.5t208 -101.5q131 0 241.5 101t133.5 243q23 135 -56 227t-208 92t-238.5 -92t-132.5 -227zM498 1059q6 37 61 59l293 123 l41 10q31 0 47 -20.5t12 -50.5q-8 -45 -69 -72l-293 -121q-20 -10 -37 -10q-35 0 -46 29.5t-9 52.5z" />
<glyph unicode="&#xf4;" d="M152 442q31 188 187.5 323.5t347 135.5t302 -135t80.5 -324q-33 -190 -188.5 -322t-346 -132t-303 132t-79.5 322zM295 457q-23 -141 52 -242.5t208 -101.5q131 0 241.5 101t133.5 243q23 135 -56 227t-208 92t-238.5 -92t-132.5 -227zM412.5 1006.5 q-23.5 50.5 33.5 83.5l267 153q35 20 61 0l221 -153q45 -33 4 -83.5t-86 -19.5l-188 127l-233 -127q-56 -31 -79.5 19.5z" />
<glyph unicode="&#xf5;" d="M152 442q31 188 187.5 323.5t347 135.5t302 -135t80.5 -324q-33 -190 -188.5 -322t-346 -132t-303 132t-79.5 322zM295 457q-23 -141 52 -242.5t208 -101.5q131 0 241.5 101t133.5 243q23 135 -56 227t-208 92t-238.5 -92t-132.5 -227zM356 1057q6 35 119 112 q102 68 172 68q66 0 125 -70q39 -43 57 -43q45 0 158 90q31 23 53 23q25 0 40.5 -20.5t11.5 -45.5q-6 -39 -119 -112q-102 -68 -170 -68t-127 70q-39 43 -55 43q-49 0 -158 -90q-31 -23 -53 -23q-25 0 -41.5 20.5t-12.5 45.5z" />
<glyph unicode="&#xf6;" d="M152 442q31 188 187.5 323.5t347 135.5t302 -135t80.5 -324q-33 -190 -188.5 -322t-346 -132t-303 132t-79.5 322zM295 457q-23 -141 52 -242.5t208 -101.5q131 0 241.5 101t133.5 243q23 135 -56 227t-208 92t-238.5 -92t-132.5 -227zM461 1114q4 35 35.5 63.5 t72.5 28.5q39 0 61.5 -27.5t16.5 -64.5t-37.5 -64.5t-72.5 -27.5q-37 0 -59.5 26.5t-16.5 65.5zM803 1114q4 35 35.5 63.5t72.5 28.5q39 0 61.5 -27.5t16.5 -64.5t-37.5 -64.5t-72.5 -27.5q-37 0 -59.5 26.5t-16.5 65.5z" />
<glyph unicode="&#xf7;" horiz-adv-x="1673" d="M223 627q12 72 117 71h1225q25 0 42 -2t36.5 -19.5t13.5 -49.5q-12 -72 -105 -72h-1249q-20 0 -35.5 2t-33 19.5t-11.5 50.5zM778 270q8 43 42 73t77 30t68.5 -30t17.5 -73t-42 -72.5t-77 -29.5t-68.5 29.5t-17.5 72.5zM897 983q8 43 42 72.5t77 29.5t68.5 -29.5 t17.5 -72.5t-42 -72.5t-77 -29.5t-68.5 29.5t-17.5 72.5z" />
<glyph unicode="&#xf8;" d="M51 -225q2 18 47 78l174 233q-143 145 -106 356q31 188 183.5 323.5t336.5 135.5q88 0 168 -37l199 266q31 39 61 39q23 0 42.5 -16t12.5 -45q0 -16 -20 -43l-199 -266q139 -147 105 -357q-33 -188 -185.5 -321t-334.5 -133q-92 0 -164 35l-203 -271q-29 -39 -62 -39 q-23 0 -42 16.5t-13 45.5zM281 442q-25 -143 71 -249l422 565q-49 18 -108 18q-135 0 -248.5 -98.5t-136.5 -235.5zM453 129q49 -16 102 -16q135 0 249 96t136 233q25 150 -72 250z" />
<glyph unicode="&#xf9;" horiz-adv-x="1193" d="M172 819q10 63 92 64h170q51 0 63.5 -17.5t4.5 -66.5l-92 -551q-2 -33 -3 -63.5t39.5 -51t126.5 -20.5q27 0 55.5 3t71.5 15t77 33.5t62.5 61.5t37.5 96l73 436h-110q-25 0 -38.5 2t-25.5 17.5t-8 43.5q10 61 92 62h170q51 0 63.5 -17.5t4.5 -66.5l-113 -674h111 q25 0 38 -2t25 -17.5t8 -44.5q-10 -61 -92 -61h-170q-27 0 -40 2t-24.5 19.5t-4.5 50.5q-121 -84 -295 -84q-55 0 -98.5 7t-93.5 29.5t-72.5 77t-10.5 134.5l88 522h-110q-23 0 -36 2t-26.5 16t-9.5 43zM575 1180q4 31 29 51t55 20l37 -10l252 -123q16 -8 24.5 -13 t13.5 -17.5t3 -28.5q-2 -23 -23.5 -52.5t-56.5 -29.5q-16 0 -37 10l-251 121q-54 27 -46 72z" />
<glyph unicode="&#xfa;" horiz-adv-x="1193" d="M172 819q10 63 92 64h170q51 0 63.5 -17.5t4.5 -66.5l-92 -551q-2 -33 -3 -63.5t39.5 -51t126.5 -20.5q27 0 55.5 3t71.5 15t77 33.5t62.5 61.5t37.5 96l73 436h-110q-25 0 -38.5 2t-25.5 17.5t-8 43.5q10 61 92 62h170q51 0 63.5 -17.5t4.5 -66.5l-113 -674h111 q25 0 38 -2t25 -17.5t8 -44.5q-10 -61 -92 -61h-170q-27 0 -40 2t-24.5 19.5t-4.5 50.5q-121 -84 -295 -84q-55 0 -98.5 7t-93.5 29.5t-72.5 77t-10.5 134.5l88 522h-110q-23 0 -36 2t-26.5 16t-9.5 43zM557 1059q6 37 61 59l293 123l41 10q31 0 47.5 -20.5t12.5 -50.5 q-8 -45 -70 -72l-293 -121q-20 -10 -37 -10q-35 0 -46 29.5t-9 52.5z" />
<glyph unicode="&#xfb;" horiz-adv-x="1193" d="M172 819q10 63 92 64h170q51 0 63.5 -17.5t4.5 -66.5l-92 -551q-2 -33 -3 -63.5t39.5 -51t126.5 -20.5q27 0 55.5 3t71.5 15t77 33.5t62.5 61.5t37.5 96l73 436h-110q-25 0 -38.5 2t-25.5 17.5t-8 43.5q10 61 92 62h170q51 0 63.5 -17.5t4.5 -66.5l-113 -674h111 q25 0 38 -2t25 -17.5t8 -44.5q-10 -61 -92 -61h-170q-27 0 -40 2t-24.5 19.5t-4.5 50.5q-121 -84 -295 -84q-55 0 -98.5 7t-93.5 29.5t-72.5 77t-10.5 134.5l88 522h-110q-23 0 -36 2t-26.5 16t-9.5 43zM472.5 1006.5q-23.5 50.5 33.5 83.5l266 153q35 20 62 0l221 -153 q45 -33 4 -83.5t-86 -19.5l-189 127l-233 -127q-55 -31 -78.5 19.5z" />
<glyph unicode="&#xfc;" horiz-adv-x="1193" d="M172 819q10 63 92 64h170q51 0 63.5 -17.5t4.5 -66.5l-92 -551q-2 -33 -3 -63.5t39.5 -51t126.5 -20.5q27 0 55.5 3t71.5 15t77 33.5t62.5 61.5t37.5 96l73 436h-110q-25 0 -38.5 2t-25.5 17.5t-8 43.5q10 61 92 62h170q51 0 63.5 -17.5t4.5 -66.5l-113 -674h111 q25 0 38 -2t25 -17.5t8 -44.5q-10 -61 -92 -61h-170q-27 0 -40 2t-24.5 19.5t-4.5 50.5q-121 -84 -295 -84q-55 0 -98.5 7t-93.5 29.5t-72.5 77t-10.5 134.5l88 522h-110q-23 0 -36 2t-26.5 16t-9.5 43zM520 1114q4 35 36 63.5t73 28.5q39 0 61.5 -27.5t16 -64.5t-38 -64.5 t-72.5 -27.5q-37 0 -59.5 26.5t-16.5 65.5zM862 1114q4 35 36 63.5t73 28.5q39 0 61.5 -27.5t16 -64.5t-38 -64.5t-72.5 -27.5q-37 0 -59.5 26.5t-16.5 65.5z" />
<glyph unicode="&#xfd;" horiz-adv-x="1134" d="M-8 -299q6 41 34.5 65.5t69.5 24.5q37 0 58.5 -24.5t15.5 -65.5q-2 -8 -6 -18.5t-4 -14.5q-2 -10 28 -10q178 0 281 215q61 121 66 127l-183 758h-84q-23 0 -37 2t-27.5 17.5t-8.5 43.5q10 61 94 62h286q25 0 38.5 -2t25.5 -17.5t8 -44.5q-10 -61 -92 -61h-78l113 -488 l26 -129l304 617h-84q-23 0 -36.5 2t-26.5 16.5t-9 42.5q10 63 92 64h289q25 0 38 -2t25.5 -17.5t8.5 -44.5q-10 -61 -93 -61h-82l-473 -928q-57 -113 -166.5 -205t-238.5 -92q-86 0 -135 50t-37 118zM528 1059q6 37 62 59l293 123l41 10q31 0 47 -20.5t12 -50.5 q-8 -45 -70 -72l-292 -121q-20 -10 -37 -10q-35 0 -46.5 29.5t-9.5 52.5z" />
<glyph unicode="&#xfe;" horiz-adv-x="1193" d="M-31 -393q10 63 92 63h111l244 1456h-111q-23 0 -36 2t-26.5 16.5t-9.5 43.5q10 63 93 63h170q51 0 63 -17t4 -67l-63 -383q145 111 315 111q182 0 286.5 -133t74.5 -320q-33 -190 -191 -322t-344 -132q-164 0 -254 121l-74 -439h111q25 0 38 -2t25.5 -17.5t8.5 -43.5 q-10 -61 -93 -62h-362q-23 0 -36 2t-26.5 16.5t-9.5 43.5zM436 399q-18 -98 40.5 -192t176.5 -94q131 0 245 95t136 234q23 133 -49 230.5t-203 97.5q-111 0 -210 -69.5t-113 -163.5z" />
<glyph unicode="&#xff;" horiz-adv-x="1134" d="M-8 -299q6 41 34.5 65.5t69.5 24.5q37 0 58.5 -24.5t15.5 -65.5q-2 -8 -6 -18.5t-4 -14.5q-2 -10 28 -10q178 0 281 215q61 121 66 127l-183 758h-84q-23 0 -37 2t-27.5 17.5t-8.5 43.5q10 61 94 62h286q25 0 38.5 -2t25.5 -17.5t8 -44.5q-10 -61 -92 -61h-78l113 -488 l26 -129l304 617h-84q-23 0 -36.5 2t-26.5 16.5t-9 42.5q10 63 92 64h289q25 0 38 -2t25.5 -17.5t8.5 -44.5q-10 -61 -93 -61h-82l-473 -928q-57 -113 -166.5 -205t-238.5 -92q-86 0 -135 50t-37 118zM492 1114q4 35 35.5 63.5t72.5 28.5q39 0 61.5 -27.5t16.5 -64.5 t-38 -64.5t-73 -27.5q-37 0 -59 26.5t-16 65.5zM834 1114q4 35 35.5 63.5t72.5 28.5q39 0 61.5 -27.5t16.5 -64.5t-38 -64.5t-73 -27.5q-37 0 -59 26.5t-16 65.5z" />
<glyph unicode="&#x100;" horiz-adv-x="1552" d="M94 63q10 61 92 62h95l567 1083q16 31 39.5 47.5t39 18.5t42.5 2h39q29 0 43 -2t30.5 -18.5t22.5 -49.5l207 -1081h94q25 0 38 -2t25.5 -17.5t8.5 -44.5q-10 -61 -93 -61h-325q-23 0 -37 2t-27.5 17.5t-9.5 43.5q10 61 94 62h82l-43 227h-567l-121 -227h82q23 0 37 -2 t27.5 -17.5t9.5 -44.5q-10 -61 -94 -61h-326q-25 0 -38 2t-25.5 17t-8.5 44zM616 477h478l-129 668zM629 1423q10 63 92 64h610q25 0 38 -2t25.5 -17.5t8.5 -46.5q-12 -63 -94 -63h-609q-25 0 -38 2t-26 17t-7 46z" />
<glyph unicode="&#x101;" horiz-adv-x="1044" d="M152 262q25 139 196.5 220t450.5 85q18 104 -41.5 156.5t-175.5 52.5q-51 0 -76 -2t-30 -6t-9 -16q-10 -49 -41 -72t-64 -23q-39 0 -62.5 25t-14.5 70q25 150 315 149q197 0 281 -95t63 -222l-74 -443q33 -16 111 -16q23 0 36 -2t26.5 -16.5t9.5 -43.5q-4 -31 -22.5 -45 t-36 -16t-52.5 -2q-168 0 -205 66q-125 -78 -303 -78q-143 0 -221.5 80.5t-60.5 193.5zM293 262q-10 -61 39 -105t139 -44q100 0 178 32q41 16 63.5 41t27.5 42.5t10 45.5l28 172q-227 -8 -349 -59t-136 -125zM324 1116q10 63 92 64h610q25 0 38 -2t25.5 -17.5t8.5 -46.5 q-10 -63 -92 -63h-609q-25 0 -38 2t-26 17t-9 46z" />
<glyph unicode="&#x102;" horiz-adv-x="1552" d="M94 63q10 61 92 62h95l567 1083q16 31 39.5 47.5t39 18.5t42.5 2h39q29 0 43 -2t30.5 -18.5t22.5 -49.5l207 -1081h94q25 0 38 -2t25.5 -17.5t8.5 -44.5q-10 -61 -93 -61h-325q-23 0 -37 2t-27.5 17.5t-9.5 43.5q10 61 94 62h82l-43 227h-567l-121 -227h82q23 0 37 -2 t27.5 -17.5t9.5 -44.5q-10 -61 -94 -61h-326q-25 0 -38 2t-25.5 17t-8.5 44zM616 477h478l-129 668zM668 1505q14 63 75 64q51 0 52 -60q2 -41 227 -41t244 41q20 59 71 60q66 0 52 -64q-10 -59 -49.5 -96t-108 -51.5t-112.5 -17.5t-118 -3q-47 0 -74.5 1t-76.5 5.5 t-78 15.5t-58.5 28.5t-40.5 47t-5 70.5z" />
<glyph unicode="&#x103;" horiz-adv-x="1044" d="M152 262q25 139 196.5 220t450.5 85q18 104 -41.5 156.5t-175.5 52.5q-51 0 -76 -2t-30 -6t-9 -16q-10 -49 -41 -72t-64 -23q-39 0 -62.5 25t-14.5 70q25 150 315 149q197 0 281 -95t63 -222l-74 -443q33 -16 111 -16q23 0 36 -2t26.5 -16.5t9.5 -43.5q-4 -31 -22.5 -45 t-36 -16t-52.5 -2q-168 0 -205 66q-125 -78 -303 -78q-143 0 -221.5 80.5t-60.5 193.5zM293 262q-10 -61 39 -105t139 -44q100 0 178 32q41 16 63.5 41t27.5 42.5t10 45.5l28 172q-227 -8 -349 -59t-136 -125zM358 1167q10 63 74 64q51 0 51 -60q4 -41 229.5 -41t241.5 41 q20 59 72 60q63 0 53 -64q-10 -59 -50 -96t-108.5 -51t-112.5 -17.5t-118 -3.5q-47 0 -74.5 1t-77 5.5t-78 15.5t-58 28.5t-40 47t-4.5 70.5z" />
<glyph unicode="&#x104;" horiz-adv-x="1552" d="M94 63q10 61 92 62h95l567 1083q16 31 39.5 47.5t39 18.5t42.5 2h39q29 0 43 -2t30.5 -18.5t22.5 -49.5l207 -1081h94q25 0 38 -2t25.5 -17.5t8.5 -44.5q-10 -61 -93 -61h-67q-195 -104 -215 -225q-6 -35 19.5 -57.5t56.5 -22.5q29 0 64.5 23.5t57.5 52.5q10 10 38 14 t40 -4q10 -10 10.5 -36t-12.5 -40q-111 -121 -225 -121q-90 0 -136 60.5t-34 134.5q23 135 170 221h-92q-23 0 -37 2t-27.5 17.5t-9.5 43.5q10 61 94 62h82l-43 227h-567l-121 -227h82q23 0 37 -2t27.5 -17.5t9.5 -44.5q-10 -61 -94 -61h-326q-25 0 -38 2t-25.5 17t-8.5 44z M616 477h478l-129 668z" />
<glyph unicode="&#x105;" horiz-adv-x="1044" d="M152 262q25 139 196.5 220t450.5 85q18 104 -41.5 156.5t-175.5 52.5q-51 0 -76 -2t-30 -6t-9 -16q-10 -49 -41 -72t-64 -23q-39 0 -62.5 25t-14.5 70q25 150 315 149q197 0 281 -95t63 -222l-74 -443q33 -16 111 -16q23 0 36 -2t26.5 -16.5t9.5 -43.5q-4 -31 -22.5 -45 t-36 -16t-52.5 -2q-211 -113 -229 -225q-6 -35 19.5 -57.5t55.5 -22.5q29 0 65 23.5t58 52.5q10 10 38 14t40 -4q10 -10 10 -36t-12 -40q-111 -121 -225 -121q-90 0 -136 60.5t-34 134.5q12 68 69.5 134.5t131.5 106.5q-41 18 -56 46q-125 -78 -303 -78q-143 0 -221.5 80.5 t-60.5 193.5zM293 262q-10 -61 39 -105t139 -44q100 0 178 32q41 16 63.5 41t27.5 42.5t10 45.5l28 172q-227 -8 -349 -59t-136 -125z" />
<glyph unicode="&#x106;" horiz-adv-x="1552" d="M223 627q43 262 282.5 454.5t543.5 192.5q272 0 411 -127q41 63 51 76q31 51 72 51q63 0 47 -84l-47 -285q-6 -29 -10 -42t-23.5 -27.5t-52.5 -14.5q-57 0 -59 47q-2 29 -4 38t-9.5 39t-18.5 47.5t-34.5 42t-54.5 44.5q-109 70 -275 70q-250 0 -445.5 -155.5 t-231.5 -366.5q-35 -213 108 -369t397 -156q178 0 301 58q147 66 179 192q14 59 80 60q18 0 29 -2t23.5 -18.5t6.5 -47.5q-27 -160 -205 -263.5t-448 -103.5q-309 0 -483.5 193t-129.5 457zM874 1419q6 37 62 60l293 123l41 10q31 0 48 -20.5t11 -51.5q-8 -45 -69 -72 l-291 -120q-25 -10 -39 -11q-35 0 -46.5 29.5t-9.5 52.5z" />
<glyph unicode="&#x107;" horiz-adv-x="956" d="M164 442q12 74 51 149t102.5 147.5t168 117.5t229.5 45q35 0 56.5 -1t62 -4t66.5 -13.5t52.5 -25.5t37.5 -43t5 -62q-8 -43 -37.5 -69t-68.5 -26q-88 0 -74 101q0 8 -23.5 12t-44 5t-53.5 1q-96 0 -173 -37t-120 -94t-65.5 -107.5t-30.5 -95.5q-23 -139 56 -234t210 -95 q147 0 224 123q25 45 75 45q14 0 25.5 -2.5t26 -15.5t10.5 -40q-4 -18 -25.5 -52t-64.5 -78t-124 -74.5t-179 -30.5q-190 0 -298 134t-77 320zM487 1059q6 37 62 59l293 123l41 10q31 0 47 -20.5t12 -50.5q-8 -45 -70 -72l-292 -121q-20 -10 -37 -10q-35 0 -46.5 29.5 t-9.5 52.5z" />
<glyph unicode="&#x108;" horiz-adv-x="1552" d="M223 627q43 262 282.5 454.5t543.5 192.5q272 0 411 -127q41 63 51 76q31 51 72 51q63 0 47 -84l-47 -285q-6 -29 -10 -42t-23.5 -27.5t-52.5 -14.5q-57 0 -59 47q-2 29 -4 38t-9.5 39t-18.5 47.5t-34.5 42t-54.5 44.5q-109 70 -275 70q-250 0 -445.5 -155.5 t-231.5 -366.5q-35 -213 108 -369t397 -156q178 0 301 58q147 66 179 192q14 59 80 60q18 0 29 -2t23.5 -18.5t6.5 -47.5q-27 -160 -205 -263.5t-448 -103.5q-309 0 -483.5 193t-129.5 457zM788.5 1390.5q10.5 32.5 47.5 45.5l256 88q18 6 38 0l228 -88q51 -20 22.5 -75.5 t-82.5 -39.5l-211 68l-235 -68q-37 -10 -55.5 13.5t-8 56z" />
<glyph unicode="&#x109;" horiz-adv-x="956" d="M164 442q12 74 51 149t102.5 147.5t168 117.5t229.5 45q35 0 56.5 -1t62 -4t66.5 -13.5t52.5 -25.5t37.5 -43t5 -62q-8 -43 -37.5 -69t-68.5 -26q-88 0 -74 101q0 8 -23.5 12t-44 5t-53.5 1q-96 0 -173 -37t-120 -94t-65.5 -107.5t-30.5 -95.5q-23 -139 56 -234t210 -95 q147 0 224 123q25 45 75 45q14 0 25.5 -2.5t26 -15.5t10.5 -40q-4 -18 -25.5 -52t-64.5 -78t-124 -74.5t-179 -30.5q-190 0 -298 134t-77 320zM402.5 1006.5q-23.5 50.5 33.5 83.5l266 153q35 20 62 0l221 -153q45 -33 4 -83.5t-86 -19.5l-188 127l-234 -127 q-55 -31 -78.5 19.5z" />
<glyph unicode="&#x10a;" horiz-adv-x="1552" d="M223 627q43 262 282.5 454.5t543.5 192.5q272 0 411 -127q41 63 51 76q31 51 72 51q63 0 47 -84l-47 -285q-6 -29 -10 -42t-23.5 -27.5t-52.5 -14.5q-57 0 -59 47q-2 29 -4 38t-9.5 39t-18.5 47.5t-34.5 42t-54.5 44.5q-109 70 -275 70q-250 0 -445.5 -155.5 t-231.5 -366.5q-35 -213 108 -369t397 -156q178 0 301 58q147 66 179 192q14 59 80 60q18 0 29 -2t23.5 -18.5t6.5 -47.5q-27 -160 -205 -263.5t-448 -103.5q-309 0 -483.5 193t-129.5 457zM989 1442q8 41 43 71.5t80 30.5q41 0 66.5 -30.5t17.5 -71.5q-6 -41 -41 -72 t-80 -31q-41 0 -66.5 31t-19.5 72z" />
<glyph unicode="&#x10b;" horiz-adv-x="956" d="M164 442q12 74 51 149t102.5 147.5t168 117.5t229.5 45q35 0 56.5 -1t62 -4t66.5 -13.5t52.5 -25.5t37.5 -43t5 -62q-8 -43 -37.5 -69t-68.5 -26q-88 0 -74 101q0 8 -23.5 12t-44 5t-53.5 1q-96 0 -173 -37t-120 -94t-65.5 -107.5t-30.5 -95.5q-23 -139 56 -234t210 -95 q147 0 224 123q25 45 75 45q14 0 25.5 -2.5t26 -15.5t10.5 -40q-4 -18 -25.5 -52t-64.5 -78t-124 -74.5t-179 -30.5q-190 0 -298 134t-77 320zM608 1114q6 41 41 72t80 31q41 0 66.5 -31t19.5 -72t-42 -71.5t-81 -30.5q-41 0 -66.5 30.5t-17.5 71.5z" />
<glyph unicode="&#x10c;" horiz-adv-x="1552" d="M223 627q43 262 282.5 454.5t543.5 192.5q272 0 411 -127q41 63 51 76q31 51 72 51q63 0 47 -84l-47 -285q-6 -29 -10 -42t-23.5 -27.5t-52.5 -14.5q-57 0 -59 47q-2 29 -4 38t-9.5 39t-18.5 47.5t-34.5 42t-54.5 44.5q-109 70 -275 70q-250 0 -445.5 -155.5 t-231.5 -366.5q-35 -213 108 -369t397 -156q178 0 301 58q147 66 179 192q14 59 80 60q18 0 29 -2t23.5 -18.5t6.5 -47.5q-27 -160 -205 -263.5t-448 -103.5q-309 0 -483.5 193t-129.5 457zM807 1485q29 55 80 39l211 -68l235 68q37 10 56.5 -13.5t9.5 -56.5t-47 -45 l-258 -88q-20 -6 -39 0l-226 88q-51 21 -22 76z" />
<glyph unicode="&#x10d;" horiz-adv-x="956" d="M164 442q12 74 51 149t102.5 147.5t168 117.5t229.5 45q35 0 56.5 -1t62 -4t66.5 -13.5t52.5 -25.5t37.5 -43t5 -62q-8 -43 -37.5 -69t-68.5 -26q-88 0 -74 101q0 8 -23.5 12t-44 5t-53.5 1q-96 0 -173 -37t-120 -94t-65.5 -107.5t-30.5 -95.5q-23 -139 56 -234t210 -95 q147 0 224 123q25 45 75 45q14 0 25.5 -2.5t26 -15.5t10.5 -40q-4 -18 -25.5 -52t-64.5 -78t-124 -74.5t-179 -30.5q-190 0 -298 134t-77 320zM438 1221.5q39 50.5 86 19.5l191 -127l231 127q55 31 79 -19.5t-32 -82.5l-268 -154q-35 -20 -61 0l-220 154q-45 32 -6 82.5z " />
<glyph unicode="&#x10e;" horiz-adv-x="1613" d="M104 61q10 63 93 64h110l168 1001h-110q-23 0 -36.5 2t-26.5 16.5t-9 43.5q10 63 92 63h659q270 0 432 -187t117 -450q-41 -252 -263 -433t-494 -181h-660q-23 0 -36 2t-26.5 16t-9.5 43zM449 125h370q231 0 414.5 144.5t218.5 346.5q35 205 -98 357.5t-369 152.5h-369z M564.5 1485q27.5 55 80.5 39l211 -68l236 68q37 10 56 -13.5t9 -56.5t-47 -45l-258 -88q-20 -6 -39 0l-225 88q-51 21 -23.5 76z" />
<glyph unicode="&#x10f;" horiz-adv-x="1193" d="M164 440q33 190 188.5 322.5t345.5 132.5q154 0 256 -104l58 335h-111q-25 0 -38 2t-25.5 17.5t-8.5 44.5q10 61 93 61h170q51 0 63 -17t4 -67l-174 -1042h111q25 0 38 -2t25 -17.5t8 -44.5q-10 -61 -92 -61h-170q-51 0 -63.5 17.5t-3.5 66.5l6 35q-145 -131 -320 -131 q-180 0 -286.5 132t-73.5 320zM305 440q-23 -135 50 -231t200 -96q123 0 221 94t115 196l22 136q16 92 -51 161.5t-174 69.5q-133 0 -246.5 -96.5t-136.5 -233.5zM1200 932q4 20 29 41q72 49 88 125q-33 2 -48.5 20.5t-13.5 33.5t0 24q4 31 30 53t58 22q41 0 64 -33.5 t10 -103.5q-14 -92 -77.5 -160.5t-98.5 -68.5q-18 0 -31.5 15.5t-9.5 31.5z" />
<glyph unicode="&#x110;" horiz-adv-x="1613" d="M104 61q10 63 93 64h110l74 438h-121q-27 0 -42 18.5t-11 45t25.5 45t48.5 18.5h120l74 436h-110q-23 0 -36.5 2t-26.5 16.5t-9 43.5q10 63 92 63h659q270 0 432 -187t117 -450q-41 -252 -263 -433t-494 -181h-660q-23 0 -36 2t-26.5 16t-9.5 43zM449 125h370 q231 0 414.5 144.5t218.5 346.5q35 205 -98 357.5t-369 152.5h-369l-73 -436h379q27 0 42 -18.5t11 -45t-25.5 -45t-48.5 -18.5h-379z" />
<glyph unicode="&#x111;" horiz-adv-x="1193" d="M164 440q33 190 188.5 322.5t345.5 132.5q154 0 256 -104l27 149h-346q-27 0 -42 18.5t-11 45t25.5 45t47.5 18.5h346l11 59h-111q-25 0 -38 2t-25.5 17.5t-8.5 44.5q10 61 93 61h170q51 0 63 -17t4 -67l-16 -100h121q27 0 42 -18.5t11 -45t-25.5 -45t-48.5 -18.5h-121 l-137 -815h111q25 0 38 -2t25 -17.5t8 -44.5q-10 -61 -92 -61h-170q-51 0 -63.5 17.5t-3.5 66.5l6 35q-145 -131 -320 -131q-180 0 -286.5 132t-73.5 320zM305 440q-23 -135 50 -231t200 -96q123 0 221 94t115 196l22 136q16 92 -51 161.5t-174 69.5q-133 0 -246.5 -96.5 t-136.5 -233.5z" />
<glyph unicode="&#x112;" horiz-adv-x="1433" d="M104 61q10 63 93 64h110l168 1001h-110q-23 0 -36.5 2t-26.5 16.5t-9 43.5q10 63 92 63h1055q51 0 63.5 -17t3.5 -67l-24 -149q-4 -27 -9.5 -41t-24.5 -28.5t-52 -14.5q-45 0 -55.5 27.5t-0.5 56.5l19 108h-744l-69 -415h407q6 41 10.5 55t13.5 32.5t24.5 23.5t41.5 5 q47 0 55.5 -21.5t2.5 -62.5l-33 -190q-4 -27 -9 -41t-23.5 -28.5t-51.5 -14.5q-49 0 -57 26.5t6 90.5h-408l-77 -461h802l25 141q4 27 9 41.5t24.5 28.5t52.5 14q45 0 55 -27.5t0 -56.5l-31 -182q-8 -49 -27.5 -66.5t-68.5 -17.5h-1114q-23 0 -36 2t-26.5 16t-9.5 43z M569 1423q10 63 93 64h610q25 0 38 -2t25.5 -17.5t7.5 -46.5q-12 -63 -94 -63h-608q-25 0 -38 2t-26.5 17t-7.5 46z" />
<glyph unicode="&#x113;" horiz-adv-x="956" d="M152 446q31 186 178 320.5t327 134.5q182 0 265.5 -122t50.5 -312q-6 -35 -21.5 -52.5t-30 -20.5t-42.5 -3h-590q0 -123 81 -200.5t199 -77.5q154 0 226 123q25 45 75 45q14 0 25.5 -2.5t26 -15.5t10.5 -40q-10 -63 -117.5 -149t-277.5 -86q-193 0 -304.5 134t-80.5 324z M279 1116q10 63 92 64h610q25 0 38 -2t25.5 -17.5t8.5 -46.5q-10 -63 -92 -63h-609q-25 0 -38 2t-26 17t-9 46zM311 514h525q12 143 -47.5 202.5t-151.5 59.5q-102 0 -194.5 -73.5t-131.5 -188.5z" />
<glyph unicode="&#x114;" horiz-adv-x="1433" d="M104 61q10 63 93 64h110l168 1001h-110q-23 0 -36.5 2t-26.5 16.5t-9 43.5q10 63 92 63h1055q51 0 63.5 -17t3.5 -67l-24 -149q-4 -27 -9.5 -41t-24.5 -28.5t-52 -14.5q-45 0 -55.5 27.5t-0.5 56.5l19 108h-744l-69 -415h407q6 41 10.5 55t13.5 32.5t24.5 23.5t41.5 5 q47 0 55.5 -21.5t2.5 -62.5l-33 -190q-4 -27 -9 -41t-23.5 -28.5t-51.5 -14.5q-49 0 -57 26.5t6 90.5h-408l-77 -461h802l25 141q4 27 9 41.5t24.5 28.5t52.5 14q45 0 55 -27.5t0 -56.5l-31 -182q-8 -49 -27.5 -66.5t-68.5 -17.5h-1114q-23 0 -36 2t-26.5 16t-9.5 43z M608 1505q14 63 76 64q51 0 51 -60q2 -41 227.5 -41t243.5 41q20 59 72 60q66 0 51 -64q-10 -59 -49 -96t-107.5 -51.5t-112.5 -17.5t-118 -3q-47 0 -74.5 1t-77 5.5t-78 15.5t-58 28.5t-41 47t-5.5 70.5z" />
<glyph unicode="&#x115;" horiz-adv-x="956" d="M152 446q31 186 178 320.5t327 134.5q182 0 265.5 -122t50.5 -312q-6 -35 -21.5 -52.5t-30 -20.5t-42.5 -3h-590q0 -123 81 -200.5t199 -77.5q154 0 226 123q25 45 75 45q14 0 25.5 -2.5t26 -15.5t10.5 -40q-10 -63 -117.5 -149t-277.5 -86q-193 0 -304.5 134t-80.5 324z M311 514h525q12 143 -47.5 202.5t-151.5 59.5q-102 0 -194.5 -73.5t-131.5 -188.5zM313 1167q10 63 74 64q51 0 51 -60q4 -41 229.5 -41t241.5 41q20 59 72 60q63 0 53 -64q-10 -59 -50 -96t-108.5 -51t-112.5 -17.5t-118 -3.5q-47 0 -74.5 1t-77 5.5t-78 15.5t-58 28.5 t-40 47t-4.5 70.5z" />
<glyph unicode="&#x116;" horiz-adv-x="1433" d="M104 61q10 63 93 64h110l168 1001h-110q-23 0 -36.5 2t-26.5 16.5t-9 43.5q10 63 92 63h1055q51 0 63.5 -17t3.5 -67l-24 -149q-4 -27 -9.5 -41t-24.5 -28.5t-52 -14.5q-45 0 -55.5 27.5t-0.5 56.5l19 108h-744l-69 -415h407q6 41 10.5 55t13.5 32.5t24.5 23.5t41.5 5 q47 0 55.5 -21.5t2.5 -62.5l-33 -190q-4 -27 -9 -41t-23.5 -28.5t-51.5 -14.5q-49 0 -57 26.5t6 90.5h-408l-77 -461h802l25 141q4 27 9 41.5t24.5 28.5t52.5 14q45 0 55 -27.5t0 -56.5l-31 -182q-8 -49 -27.5 -66.5t-68.5 -17.5h-1114q-23 0 -36 2t-26.5 16t-9.5 43z M852 1442q8 41 43 71.5t80 30.5q41 0 66.5 -30.5t17.5 -71.5q-6 -41 -41 -72t-80 -31q-41 0 -66.5 31t-19.5 72z" />
<glyph unicode="&#x117;" horiz-adv-x="956" d="M152 446q31 186 178 320.5t327 134.5q182 0 265.5 -122t50.5 -312q-6 -35 -21.5 -52.5t-30 -20.5t-42.5 -3h-590q0 -123 81 -200.5t199 -77.5q154 0 226 123q25 45 75 45q14 0 25.5 -2.5t26 -15.5t10.5 -40q-10 -63 -117.5 -149t-277.5 -86q-193 0 -304.5 134t-80.5 324z M311 514h525q12 143 -47.5 202.5t-151.5 59.5q-102 0 -194.5 -73.5t-131.5 -188.5zM561 1114q6 41 41 72t80 31q41 0 66.5 -31t19.5 -72t-42 -71.5t-81 -30.5q-41 0 -66.5 30.5t-17.5 71.5z" />
<glyph unicode="&#x118;" horiz-adv-x="1433" d="M104 61q10 63 93 64h110l168 1001h-110q-23 0 -36.5 2t-26.5 16.5t-9 43.5q10 63 92 63h1055q51 0 63.5 -17t3.5 -67l-24 -149q-4 -27 -9.5 -41t-24.5 -28.5t-52 -14.5q-45 0 -55.5 27.5t-0.5 56.5l19 108h-744l-69 -415h407q6 41 10.5 55t13.5 32.5t24.5 23.5t41.5 5 q47 0 55.5 -21.5t2.5 -62.5l-33 -190q-4 -27 -9 -41t-23.5 -28.5t-51.5 -14.5q-49 0 -57 26.5t6 90.5h-408l-77 -461h802l25 141q4 27 9 41.5t24.5 28.5t52.5 14q45 0 55 -27.5t0 -56.5l-31 -182q-8 -49 -27.5 -66.5t-68.5 -17.5h-96q-195 -104 -215 -225q-6 -35 19.5 -57.5 t56.5 -22.5q29 0 64.5 23.5t58.5 52.5q10 10 37.5 14t39.5 -4q10 -10 10.5 -36t-12.5 -40q-111 -121 -225 -121q-90 0 -136 60.5t-34 134.5q23 135 170 221h-852q-23 0 -36 2t-26.5 16t-9.5 43z" />
<glyph unicode="&#x119;" horiz-adv-x="956" d="M152 446q31 186 178 320.5t327 134.5q182 0 265.5 -122t50.5 -312q-6 -35 -21.5 -52.5t-30 -20.5t-42.5 -3h-590q0 -123 81 -200.5t199 -77.5q154 0 226 123q25 45 75 45q14 0 25.5 -2.5t26 -15.5t10.5 -40q-6 -45 -80 -118.5t-190 -104.5q-195 -104 -216 -225 q-6 -35 20 -57.5t56 -22.5q29 0 65 23.5t58 52.5q10 10 38 14t40 -4q10 -10 10 -36t-12 -40q-111 -121 -225 -121q-90 0 -136.5 60.5t-33.5 134.5q23 135 155 213q-170 20 -264 149t-65 305zM311 514h525q12 143 -47.5 202.5t-151.5 59.5q-102 0 -194.5 -73.5t-131.5 -188.5 z" />
<glyph unicode="&#x11a;" horiz-adv-x="1433" d="M104 61q10 63 93 64h110l168 1001h-110q-23 0 -36.5 2t-26.5 16.5t-9 43.5q10 63 92 63h1055q51 0 63.5 -17t3.5 -67l-24 -149q-4 -27 -9.5 -41t-24.5 -28.5t-52 -14.5q-45 0 -55.5 27.5t-0.5 56.5l19 108h-744l-69 -415h407q6 41 10.5 55t13.5 32.5t24.5 23.5t41.5 5 q47 0 55.5 -21.5t2.5 -62.5l-33 -190q-4 -27 -9 -41t-23.5 -28.5t-51.5 -14.5q-49 0 -57 26.5t6 90.5h-408l-77 -461h802l25 141q4 27 9 41.5t24.5 28.5t52.5 14q45 0 55 -27.5t0 -56.5l-31 -182q-8 -49 -27.5 -66.5t-68.5 -17.5h-1114q-23 0 -36 2t-26.5 16t-9.5 43z M668.5 1485q27.5 55 81.5 39l211 -68l235 68q37 10 56.5 -13.5t9 -56.5t-47.5 -45l-258 -88q-18 -6 -38 0l-226 88q-51 21 -23.5 76z" />
<glyph unicode="&#x11b;" horiz-adv-x="956" d="M152 446q31 186 178 320.5t327 134.5q182 0 265.5 -122t50.5 -312q-6 -35 -21.5 -52.5t-30 -20.5t-42.5 -3h-590q0 -123 81 -200.5t199 -77.5q154 0 226 123q25 45 75 45q14 0 25.5 -2.5t26 -15.5t10.5 -40q-10 -63 -117.5 -149t-277.5 -86q-193 0 -304.5 134t-80.5 324z M311 514h525q12 143 -47.5 202.5t-151.5 59.5q-102 0 -194.5 -73.5t-131.5 -188.5zM389 1221.5q39 50.5 86 19.5l191 -127l231 127q55 31 78.5 -19.5t-31.5 -82.5l-268 -154q-35 -20 -62 0l-219 154q-45 32 -6 82.5z" />
<glyph unicode="&#x11c;" horiz-adv-x="1673" d="M223 627q43 262 282.5 454.5t543.5 192.5q272 0 411 -127q41 63 51 76q31 51 72 51q63 0 47 -84l-47 -285q-6 -29 -10 -42t-23.5 -27.5t-52.5 -14.5q-57 0 -59 47q-2 29 -4 38t-9.5 39t-18.5 47.5t-34.5 42t-54.5 44.5q-109 70 -275 70q-248 0 -445.5 -154.5t-232 -369.5 t109.5 -369t384 -154q166 0 305.5 91.5t192.5 234.5h-180q-25 0 -38.5 2t-25.5 17.5t-8 44.5q10 61 92 61h393q25 0 38 -2t26.5 -17.5t9.5 -44.5q-10 -61 -94 -61h-66l-57 -344q-4 -27 -9 -41t-23.5 -28.5t-51.5 -14.5q-47 0 -57.5 26.5t0.5 57.5l12 74q-211 -180 -490 -181 q-295 0 -472 191t-132 459zM770 1390.5q10 32.5 47 45.5l256 88q20 6 39 0l227 -88q51 -20 22.5 -75.5t-81.5 -39.5l-211 68l-235 -68q-37 -10 -55.5 13.5t-8.5 56z" />
<glyph unicode="&#x11d;" d="M31 -168q31 164 194 254q-37 63 -22 147q12 78 63 140q-51 86 -33 194q23 133 137.5 230.5t256.5 97.5q111 0 188 -61q111 72 229 71q76 0 108 -33.5t24 -76.5q-6 -41 -36 -62.5t-61 -21.5q-23 0 -44 16t-23 53q-68 -4 -125 -35q37 -88 22 -178q-23 -137 -137.5 -233 t-255.5 -96q-63 0 -113.5 20.5t-60.5 30.5q-14 -23 -23 -58v-26q0 -29 13 -47q20 -29 63 -29q14 -4 58 -4h143q193 0 287 -59q66 -39 89 -103.5t13 -130.5q-20 -129 -174 -215t-352.5 -86t-323 85t-104.5 216zM150 -168q-10 -70 85 -124t244.5 -54t263 54t123.5 124 q8 43 -3 75t-44 50t-63.5 29.5t-87 15.5t-90 5t-95.5 1q-117 0 -150.5 -4t-74.5 -29q-94 -53 -108 -143zM338.5 1006.5q-23.5 50.5 34.5 83.5l266 153q35 20 61 0l222 -153q45 -33 4 -83.5t-86 -19.5l-189 127l-233 -127q-56 -31 -79.5 19.5zM375 565q-14 -82 33 -143.5 t129 -61.5q80 0 148.5 60.5t82.5 146.5q14 82 -33 143.5t-129 61.5q-80 0 -148.5 -60.5t-82.5 -146.5z" />
<glyph unicode="&#x11e;" horiz-adv-x="1673" d="M223 627q43 262 282.5 454.5t543.5 192.5q272 0 411 -127q41 63 51 76q31 51 72 51q63 0 47 -84l-47 -285q-6 -29 -10 -42t-23.5 -27.5t-52.5 -14.5q-57 0 -59 47q-2 29 -4 38t-9.5 39t-18.5 47.5t-34.5 42t-54.5 44.5q-109 70 -275 70q-248 0 -445.5 -154.5t-232 -369.5 t109.5 -369t384 -154q166 0 305.5 91.5t192.5 234.5h-180q-25 0 -38.5 2t-25.5 17.5t-8 44.5q10 61 92 61h393q25 0 38 -2t26.5 -17.5t9.5 -44.5q-10 -61 -94 -61h-66l-57 -344q-4 -27 -9 -41t-23.5 -28.5t-51.5 -14.5q-47 0 -57.5 26.5t0.5 57.5l12 74q-211 -180 -490 -181 q-295 0 -472 191t-132 459zM727 1505q14 63 76 64q51 0 51 -60q2 -41 227.5 -41t243.5 41q20 59 72 60q66 0 51 -64q-10 -59 -49 -96t-107.5 -51.5t-112.5 -17.5t-118 -3q-47 0 -75 1t-77 5.5t-77.5 15.5t-58.5 28.5t-41 47t-5 70.5z" />
<glyph unicode="&#x11f;" d="M31 -168q31 164 194 254q-37 63 -22 147q12 78 63 140q-51 86 -33 194q23 133 137.5 230.5t256.5 97.5q111 0 188 -61q111 72 229 71q76 0 108 -33.5t24 -76.5q-6 -41 -36 -62.5t-61 -21.5q-23 0 -44 16t-23 53q-68 -4 -125 -35q37 -88 22 -178q-23 -137 -137.5 -233 t-255.5 -96q-63 0 -113.5 20.5t-60.5 30.5q-14 -23 -23 -58v-26q0 -29 13 -47q20 -29 63 -29q14 -4 58 -4h143q193 0 287 -59q66 -39 89 -103.5t13 -130.5q-20 -129 -174 -215t-352.5 -86t-323 85t-104.5 216zM150 -168q-10 -70 85 -124t244.5 -54t263 54t123.5 124 q8 43 -3 75t-44 50t-63.5 29.5t-87 15.5t-90 5t-95.5 1q-117 0 -150.5 -4t-74.5 -29q-94 -53 -108 -143zM299 1167q10 63 74 64q51 0 51 -60q4 -41 229.5 -41t241.5 41q20 59 72 60q63 0 53 -64q-10 -59 -50 -96t-108.5 -51t-112.5 -17.5t-118 -3.5q-47 0 -75 1t-77 5.5 t-77.5 15.5t-58.5 28.5t-40 47t-4 70.5zM375 565q-14 -82 33 -143.5t129 -61.5q80 0 148.5 60.5t82.5 146.5q14 82 -33 143.5t-129 61.5q-80 0 -148.5 -60.5t-82.5 -146.5z" />
<glyph unicode="&#x120;" horiz-adv-x="1673" d="M223 627q43 262 282.5 454.5t543.5 192.5q272 0 411 -127q41 63 51 76q31 51 72 51q63 0 47 -84l-47 -285q-6 -29 -10 -42t-23.5 -27.5t-52.5 -14.5q-57 0 -59 47q-2 29 -4 38t-9.5 39t-18.5 47.5t-34.5 42t-54.5 44.5q-109 70 -275 70q-248 0 -445.5 -154.5t-232 -369.5 t109.5 -369t384 -154q166 0 305.5 91.5t192.5 234.5h-180q-25 0 -38.5 2t-25.5 17.5t-8 44.5q10 61 92 61h393q25 0 38 -2t26.5 -17.5t9.5 -44.5q-10 -61 -94 -61h-66l-57 -344q-4 -27 -9 -41t-23.5 -28.5t-51.5 -14.5q-47 0 -57.5 26.5t0.5 57.5l12 74q-211 -180 -490 -181 q-295 0 -472 191t-132 459zM971 1442q8 41 43 71.5t80 30.5q41 0 66.5 -30.5t17.5 -71.5q-6 -41 -41 -72t-80 -31q-41 0 -66.5 31t-19.5 72z" />
<glyph unicode="&#x121;" d="M31 -168q31 164 194 254q-37 63 -22 147q12 78 63 140q-51 86 -33 194q23 133 137.5 230.5t256.5 97.5q111 0 188 -61q111 72 229 71q76 0 108 -33.5t24 -76.5q-6 -41 -36 -62.5t-61 -21.5q-23 0 -44 16t-23 53q-68 -4 -125 -35q37 -88 22 -178q-23 -137 -137.5 -233 t-255.5 -96q-63 0 -113.5 20.5t-60.5 30.5q-14 -23 -23 -58v-26q0 -29 13 -47q20 -29 63 -29q14 -4 58 -4h143q193 0 287 -59q66 -39 89 -103.5t13 -130.5q-20 -129 -174 -215t-352.5 -86t-323 85t-104.5 216zM150 -168q-10 -70 85 -124t244.5 -54t263 54t123.5 124 q8 43 -3 75t-44 50t-63.5 29.5t-87 15.5t-90 5t-95.5 1q-117 0 -150.5 -4t-74.5 -29q-94 -53 -108 -143zM375 565q-14 -82 33 -143.5t129 -61.5q80 0 148.5 60.5t82.5 146.5q14 82 -33 143.5t-129 61.5q-80 0 -148.5 -60.5t-82.5 -146.5zM545 1114q6 41 41 72t80 31 q41 0 66.5 -31t19 -72t-42 -71.5t-80.5 -30.5q-41 0 -66.5 30.5t-17.5 71.5z" />
<glyph unicode="&#x122;" horiz-adv-x="1673" d="M223 627q43 262 282.5 454.5t543.5 192.5q272 0 411 -127q41 63 51 76q31 51 72 51q63 0 47 -84l-47 -285q-6 -29 -10 -42t-23.5 -27.5t-52.5 -14.5q-57 0 -59 47q-2 29 -4 38t-9.5 39t-18.5 47.5t-34.5 42t-54.5 44.5q-109 70 -275 70q-248 0 -445.5 -154.5t-232 -369.5 t109.5 -369t384 -154q166 0 305.5 91.5t192.5 234.5h-180q-25 0 -38.5 2t-25.5 17.5t-8 44.5q10 61 92 61h393q25 0 38 -2t26.5 -17.5t9.5 -44.5q-10 -61 -94 -61h-66l-57 -344q-4 -27 -9 -41t-23.5 -28.5t-51.5 -14.5q-47 0 -57.5 26.5t0.5 57.5l12 74q-211 -180 -490 -181 q-295 0 -472 191t-132 459zM678 -387q4 18 31 41q72 49 88 125q-33 2 -49.5 20.5t-14.5 33.5t0 24q6 33 30.5 54t57.5 21q41 0 63.5 -33.5t10.5 -103.5q-14 -92 -76.5 -160.5t-97.5 -68.5q-18 0 -31.5 15.5t-11.5 31.5z" />
<glyph unicode="&#x123;" d="M31 -168q31 164 194 254q-37 63 -22 147q12 78 63 140q-51 86 -33 194q23 133 137.5 230.5t256.5 97.5q111 0 188 -61q111 72 229 71q76 0 108 -33.5t24 -76.5q-6 -41 -36 -62.5t-61 -21.5q-23 0 -44 16t-23 53q-68 -4 -125 -35q37 -88 22 -178q-23 -137 -137.5 -233 t-255.5 -96q-63 0 -113.5 20.5t-60.5 30.5q-14 -23 -23 -58v-26q0 -29 13 -47q20 -29 63 -29q14 -4 58 -4h143q193 0 287 -59q66 -39 89 -103.5t13 -130.5q-20 -129 -174 -215t-352.5 -86t-323 85t-104.5 216zM150 -168q-10 -70 85 -124t244.5 -54t263 54t123.5 124 q8 43 -3 75t-44 50t-63.5 29.5t-87 15.5t-90 5t-95.5 1q-117 0 -150.5 -4t-74.5 -29q-94 -53 -108 -143zM375 565q-14 -82 33 -143.5t129 -61.5q80 0 148.5 60.5t82.5 146.5q14 82 -33 143.5t-129 61.5q-80 0 -148.5 -60.5t-82.5 -146.5zM553 1092q14 92 77.5 160.5 t98.5 68.5q18 0 30.5 -15.5t10.5 -31.5q-4 -18 -31 -41q-72 -49 -88 -125q33 -2 49.5 -20.5t14.5 -34t0 -23.5q-4 -31 -30 -53.5t-58 -22.5q-41 0 -63.5 34t-10.5 104z" />
<glyph unicode="&#x124;" horiz-adv-x="1552" d="M104 61q10 63 93 64h110l168 1001h-110q-23 0 -36.5 2t-26.5 16.5t-9 43.5q10 63 92 63h363q25 0 38 -2t25 -17t8 -44q-10 -61 -92 -62h-111l-69 -413h694l70 413h-111q-23 0 -36 2t-26.5 16.5t-9.5 43.5q10 63 93 63h362q25 0 38 -2t25.5 -17t8.5 -44q-10 -61 -92 -62 h-111l-168 -1001h111q25 0 38 -2t25 -17.5t8 -44.5q-10 -61 -92 -61h-362q-23 0 -36 2t-26.5 16.5t-9.5 42.5q10 63 92 64h111l78 463h-695l-77 -463h110q25 0 38 -2t25.5 -17.5t8.5 -44.5q-10 -61 -92 -61h-363q-23 0 -36 2t-26.5 16t-9.5 43zM710.5 1390.5 q10.5 32.5 47.5 45.5l256 88q18 6 39 0l227 -88q51 -20 22.5 -75.5t-81.5 -39.5l-211 68l-236 -68q-37 -10 -55.5 13.5t-8 56z" />
<glyph unicode="&#x125;" horiz-adv-x="1193" d="M45 61q10 63 92 64h111l168 1001h-111q-23 0 -36 2t-26.5 16.5t-9.5 43.5q10 63 93 63h170q51 0 63 -17t4 -67l-65 -389q145 117 321 117q295 0 246 -299l-80 -471h111q25 0 38 -2t25 -17.5t8 -44.5q-10 -61 -92 -61h-362q-25 0 -38 2t-25.5 17.5t-8.5 43.5q10 61 92 62 h111l78 459q16 96 -9.5 141t-126.5 45q-63 0 -129.5 -24.5t-128 -92t-77.5 -168.5l-62 -360h111q25 0 38 -2t25 -17.5t8 -44.5q-10 -61 -92 -61h-362q-23 0 -36 2t-26.5 16t-9.5 43zM530.5 1390.5q10.5 32.5 47.5 45.5l256 88q20 6 38 0l228 -88q51 -20 22.5 -75.5 t-82.5 -39.5l-211 68l-235 -68q-37 -10 -55.5 13.5t-8 56z" />
<glyph unicode="&#x126;" horiz-adv-x="1552" d="M104 61q10 63 93 64h110l125 749h-121q-27 0 -42 18.5t-11 45.5t26.5 45t49.5 18h121l20 125h-110q-23 0 -36.5 2t-26.5 16.5t-9 43.5q10 63 92 63h363q25 0 38 -2t25 -17t8 -44q-10 -61 -92 -62h-111l-20 -125h694l21 125h-111q-23 0 -36 2t-26.5 16.5t-9.5 43.5 q10 63 93 63h362q25 0 38 -2t25.5 -17t8.5 -44q-10 -61 -92 -62h-111l-20 -125h120q27 0 41.5 -18t10.5 -45q-2 -27 -25 -45.5t-49 -18.5h-121l-125 -749h111q25 0 38 -2t25 -17.5t8 -44.5q-10 -61 -92 -61h-362q-23 0 -36 2t-26.5 16.5t-9.5 42.5q10 63 92 64h111l78 463 h-695l-77 -463h110q25 0 38 -2t25.5 -17.5t8.5 -44.5q-10 -61 -92 -61h-363q-23 0 -36 2t-26.5 16t-9.5 43zM547 713h694l27 161h-695z" />
<glyph unicode="&#x127;" horiz-adv-x="1193" d="M45 61q10 63 92 64h111l137 815h-121q-27 0 -42 18.5t-11 45t25.5 45t48.5 18.5h121l10 59h-111q-23 0 -36 2t-26.5 16.5t-9.5 43.5q10 63 93 63h170q51 0 63 -17t4 -67l-16 -100h229q27 0 42.5 -18.5t11 -45t-26 -45t-47.5 -18.5h-230l-28 -162q145 117 321 117 q295 0 246 -299l-80 -471h111q25 0 38 -2t25 -17.5t8 -44.5q-10 -61 -92 -61h-362q-25 0 -38 2t-25.5 17.5t-8.5 43.5q10 61 92 62h111l78 459q16 96 -9.5 141t-126.5 45q-63 0 -129.5 -24.5t-128 -92t-77.5 -168.5l-62 -360h111q25 0 38 -2t25 -17.5t8 -44.5 q-10 -61 -92 -61h-362q-23 0 -36 2t-26.5 16t-9.5 43z" />
<glyph unicode="&#x128;" horiz-adv-x="716" d="M94 61q10 63 92 64h121l168 1001h-121q-23 0 -36 2t-26 16.5t-9 43.5q10 63 92 63h383q25 0 38 -2t25.5 -17t7.5 -44q-10 -61 -92 -62h-121l-167 -1001h120q25 0 38.5 -2t25.5 -17.5t8 -44.5q-10 -61 -92 -61h-383q-23 0 -36 2t-26.5 16t-9.5 43zM231 1382q6 39 121 113 q100 68 170 68q72 0 125 -70q39 -43 58 -43q49 0 157 90q31 23 53 23q25 0 41.5 -20.5t12.5 -45.5q-6 -35 -119 -113q-102 -68 -172 -67q-66 0 -125 69q-39 43 -57 44q-45 0 -158 -91q-31 -23 -53 -22q-25 0 -41.5 20t-12.5 45z" />
<glyph unicode="&#x129;" horiz-adv-x="598" d="M45 61q10 63 92 64h111l106 633h-100q-23 0 -37 2t-27.5 17.5t-9.5 43.5q10 61 94 62h160q51 0 63.5 -17.5t4.5 -66.5l-113 -674h90q25 0 38 -2t26.5 -17.5t9.5 -44.5q-10 -61 -92 -61h-344q-23 0 -36 2t-26.5 16t-9.5 43zM117 1057q6 35 119 112q102 68 172 68 q66 0 124 -70q39 -43 58 -43q45 0 158 90q31 23 53 23q25 0 40 -20.5t11 -45.5q-6 -39 -119 -112q-102 -68 -169.5 -68t-127.5 70q-39 43 -55 43q-49 0 -158 -90q-31 -23 -53 -23q-25 0 -41 20.5t-12 45.5z" />
<glyph unicode="&#x12a;" horiz-adv-x="716" d="M94 61q10 63 92 64h121l168 1001h-121q-23 0 -36 2t-26 16.5t-9 43.5q10 63 92 63h383q25 0 38 -2t25.5 -17t7.5 -44q-10 -61 -92 -62h-121l-167 -1001h120q25 0 38.5 -2t25.5 -17.5t8 -44.5q-10 -61 -92 -61h-383q-23 0 -36 2t-26.5 16t-9.5 43zM211 1423q10 63 92 64 h610q25 0 38.5 -2t25.5 -17.5t8 -46.5q-12 -63 -94 -63h-608q-25 0 -38.5 2t-26.5 17t-7 46z" />
<glyph unicode="&#x12b;" horiz-adv-x="598" d="M45 61q10 63 92 64h111l106 633h-100q-23 0 -37 2t-27.5 17.5t-9.5 43.5q10 61 94 62h160q51 0 63.5 -17.5t4.5 -66.5l-113 -674h90q25 0 38 -2t26.5 -17.5t9.5 -44.5q-10 -61 -92 -61h-344q-23 0 -36 2t-26.5 16t-9.5 43zM98 1116q10 63 92 64h611q25 0 38 -2 t25.5 -17.5t7.5 -46.5q-10 -63 -92 -63h-608q-25 0 -38 2t-26.5 17t-9.5 46z" />
<glyph unicode="&#x12c;" horiz-adv-x="716" d="M94 61q10 63 92 64h121l168 1001h-121q-23 0 -36 2t-26 16.5t-9 43.5q10 63 92 63h383q25 0 38 -2t25.5 -17t7.5 -44q-10 -61 -92 -62h-121l-167 -1001h120q25 0 38.5 -2t25.5 -17.5t8 -44.5q-10 -61 -92 -61h-383q-23 0 -36 2t-26.5 16t-9.5 43zM250 1505q14 63 76 64 q51 0 51 -60q2 -41 227 -41t244 41q20 59 72 60q66 0 51 -64q-10 -59 -49 -96t-108 -51.5t-113 -17.5t-117 -3q-47 0 -75 1t-77 5.5t-77.5 15.5t-58.5 28.5t-41 47t-5 70.5z" />
<glyph unicode="&#x12d;" horiz-adv-x="598" d="M45 61q10 63 92 64h111l106 633h-100q-23 0 -37 2t-27.5 17.5t-9.5 43.5q10 61 94 62h160q51 0 63.5 -17.5t4.5 -66.5l-113 -674h90q25 0 38 -2t26.5 -17.5t9.5 -44.5q-10 -61 -92 -61h-344q-23 0 -36 2t-26.5 16t-9.5 43zM133 1167q10 63 74 64q51 0 51 -60 q4 -41 229.5 -41t241.5 41q20 59 72 60q63 0 53 -64q-10 -59 -50 -96t-108.5 -51t-112.5 -17.5t-118 -3.5q-47 0 -75 1t-77 5.5t-77.5 15.5t-58.5 28.5t-40 47t-4 70.5z" />
<glyph unicode="&#x12e;" horiz-adv-x="716" d="M94 61q10 63 92 64h121l168 1001h-121q-23 0 -36 2t-26 16.5t-9 43.5q10 63 92 63h383q25 0 38 -2t25.5 -17t7.5 -44q-10 -61 -92 -62h-121l-167 -1001h120q25 0 38.5 -2t25.5 -17.5t8 -44.5q-10 -61 -92 -61h-78q-68 -33 -115 -93.5t-57 -131.5q-6 -35 19.5 -57.5 t56.5 -22.5q29 0 64.5 23.5t58.5 52.5q10 10 37.5 14t39.5 -4q10 -10 10.5 -36t-12.5 -40q-111 -121 -225 -121q-90 0 -136 60.5t-34 134.5q20 121 168 221h-180q-23 0 -36 2t-26.5 16t-9.5 43z" />
<glyph unicode="&#x12f;" horiz-adv-x="598" d="M45 61q10 63 92 64h111l106 633h-100q-23 0 -37 2t-27.5 17.5t-9.5 43.5q10 61 94 62h160q51 0 63.5 -17.5t4.5 -66.5l-113 -674h90q25 0 38 -2t26.5 -17.5t9.5 -44.5q-10 -61 -92 -61h-115q-68 -33 -114 -93.5t-56 -131.5q-6 -35 19.5 -57.5t56.5 -22.5q29 0 64.5 23.5 t58.5 52.5q10 10 37.5 14t40.5 -4q10 -10 10 -36t-12 -40q-111 -121 -226 -121q-90 0 -136 60.5t-34 134.5q20 119 166 221h-104q-23 0 -36 2t-26.5 16t-9.5 43zM356 1151q6 43 41 72.5t78 29.5t67.5 -29.5t18.5 -72.5q-8 -43 -43 -72.5t-78 -29.5t-67.5 29.5t-16.5 72.5z " />
<glyph unicode="&#x130;" horiz-adv-x="716" d="M94 61q10 63 92 64h121l168 1001h-121q-23 0 -36 2t-26 16.5t-9 43.5q10 63 92 63h383q25 0 38 -2t25.5 -17t7.5 -44q-10 -61 -92 -62h-121l-167 -1001h120q25 0 38.5 -2t25.5 -17.5t8 -44.5q-10 -61 -92 -61h-383q-23 0 -36 2t-26.5 16t-9.5 43zM494 1442 q8 41 42.5 71.5t79.5 30.5q41 0 67 -30.5t17 -71.5q-6 -41 -40.5 -72t-79.5 -31q-41 0 -66.5 31t-19.5 72z" />
<glyph unicode="&#x131;" horiz-adv-x="598" d="M45 61q10 63 92 64h111l106 633h-100q-23 0 -37 2t-27.5 17.5t-9.5 43.5q10 61 94 62h160q51 0 63.5 -17.5t4.5 -66.5l-113 -674h90q25 0 38 -2t26.5 -17.5t9.5 -44.5q-10 -61 -92 -61h-344q-23 0 -36 2t-26.5 16t-9.5 43z" />
<glyph unicode="&#x134;" d="M180 203q8 47 38 71.5t69 24.5t60.5 -26.5t14.5 -63.5q-6 -35 -24 -53q49 -53 164 -54q25 0 51.5 5.5t69.5 20.5t74.5 56t41.5 103l142 839h-168q-23 0 -37 2t-27.5 17.5t-9.5 44.5q10 61 94 61h371q23 0 37 -2t27.5 -16t9.5 -43q-10 -63 -95 -64h-61l-143 -852 q-23 -135 -138.5 -216t-259.5 -81q-152 0 -234.5 64t-66.5 162zM645 1390.5q10 32.5 47 45.5l256 88q18 6 39 0l227 -88q51 -20 22.5 -75.5t-81.5 -39.5l-211 68l-235 -68q-37 -10 -55.5 13.5t-8.5 56z" />
<glyph unicode="&#x135;" horiz-adv-x="657" d="M-145 -311q6 43 37.5 68.5t68.5 25.5q90 0 72 -109l2 -6q6 -10 59 -10q43 0 77 27.5t54.5 72.5t30.5 81t16 73l142 846h-129q-25 0 -38.5 2t-26.5 17.5t-9 43.5q10 61 94 62h189q51 0 63 -17.5t4 -66.5l-149 -895q-14 -84 -51 -164t-115 -143.5t-178 -63.5 q-111 0 -168 42t-45 114zM201.5 1006.5q-23.5 50.5 34.5 83.5l266 153q35 20 61 0l221 -153q45 -33 4.5 -83.5t-86.5 -19.5l-188 127l-233 -127q-56 -31 -79.5 19.5z" />
<glyph unicode="&#x136;" horiz-adv-x="1613" d="M119 61q10 63 92 64h111l167 1001h-110q-23 0 -36 2t-26.5 16.5t-9.5 43.5q10 63 92 63h336q25 0 38 -2t25.5 -17t8.5 -44q-10 -61 -92 -62h-111l-98 -589l823 589q-45 0 -63.5 2t-30.5 16.5t-8 45.5q10 61 92 61h297q23 0 37 -2t27.5 -17t9.5 -44q-10 -61 -95 -62h-82 l-552 -395l423 -606h74q23 0 37 -2t27.5 -17.5t9.5 -44.5q-10 -61 -94 -61h-258q-23 0 -36.5 2t-26.5 16.5t-9 42.5q4 31 22.5 45.5t38 16.5t64.5 2l-375 534l-377 -270l-45 -264h111q25 0 38 -2t25.5 -17.5t7.5 -44.5q-10 -61 -92 -61h-336q-23 0 -36 2t-26 16t-9 43z M647 -387q4 18 31 41q72 49 88 125q-33 2 -49.5 20.5t-14 33.5t-0.5 24q6 33 31 54t58 21q41 0 63.5 -33.5t9.5 -103.5q-14 -92 -76.5 -160.5t-97.5 -68.5q-18 0 -31.5 15.5t-11.5 31.5z" />
<glyph unicode="&#x137;" horiz-adv-x="1134" d="M59 61q10 63 93 64h110l168 1001h-111q-23 0 -36 2t-26 16.5t-9 43.5q10 63 92 63h143q51 0 63.5 -17t4.5 -67l-121 -725l410 316h-82q-23 0 -36 2t-26.5 16.5t-9.5 42.5q10 63 92 64h336q23 0 37 -2t27.5 -17.5t9.5 -44.5q-10 -61 -94 -61h-80l-305 -236l254 -397h71 q23 0 37 -2t27.5 -17.5t9.5 -44.5q-10 -61 -94 -61h-258q-25 0 -38 2t-25.5 17.5t-8.5 43.5q10 61 92 62h39l-207 321l-202 -157l-29 -164h110q25 0 38.5 -2t25.5 -17.5t8 -44.5q-10 -61 -92 -61h-336q-23 0 -36 2t-26.5 16t-9.5 43zM410 -387q4 18 30 41q72 49 88 125 q-33 2 -49 20.5t-14 33.5t0 24q6 33 30.5 54t57.5 21q41 0 63.5 -33.5t10.5 -103.5q-14 -92 -77 -160.5t-97 -68.5q-18 0 -31.5 15.5t-11.5 31.5z" />
<glyph unicode="&#x139;" horiz-adv-x="1314" d="M104 61q10 63 93 64h110l168 1001h-110q-23 0 -36.5 2t-26.5 16.5t-9 43.5q10 63 92 63h412q25 0 38 -2t25 -17t8 -44q-10 -61 -92 -62h-160l-167 -1001h653l24 141q4 27 9.5 42.5t25 28.5t51.5 13q47 0 56.5 -26.5t-0.5 -57.5l-31 -182q-8 -49 -27.5 -66.5t-68.5 -17.5 h-965q-23 0 -36 2t-26.5 16t-9.5 43zM676 1419q6 37 61 60l293 123l41 10q31 0 48.5 -20.5t10.5 -51.5q-8 -45 -69 -72l-291 -120q-25 -10 -39 -11q-35 0 -46 29.5t-9 52.5z" />
<glyph unicode="&#x13a;" horiz-adv-x="598" d="M45 61q10 63 92 64h111l168 1001h-111q-23 0 -36 2t-26.5 16.5t-9.5 43.5q10 63 93 63h170q51 0 63 -17t4 -67l-174 -1042h111q25 0 38 -2t25 -17.5t8 -44.5q-10 -61 -92 -61h-362q-23 0 -36 2t-26.5 16t-9.5 43zM317 1419q6 37 62 60l293 123l41 10q31 0 48 -20.5 t11 -51.5q-8 -45 -70 -72l-290 -120q-25 -10 -39 -11q-35 0 -46.5 29.5t-9.5 52.5z" />
<glyph unicode="&#x13b;" horiz-adv-x="1314" d="M104 61q10 63 93 64h110l168 1001h-110q-23 0 -36.5 2t-26.5 16.5t-9 43.5q10 63 92 63h412q25 0 38 -2t25 -17t8 -44q-10 -61 -92 -62h-160l-167 -1001h653l24 141q4 27 9.5 42.5t25 28.5t51.5 13q47 0 56.5 -26.5t-0.5 -57.5l-31 -182q-8 -49 -27.5 -66.5t-68.5 -17.5 h-965q-23 0 -36 2t-26.5 16t-9.5 43zM498 -387q4 18 30 41q72 49 88 125q-33 2 -49 20.5t-14 33.5t0 24q6 33 30.5 54t57.5 21q41 0 63.5 -33.5t10.5 -103.5q-14 -92 -77 -160.5t-97 -68.5q-18 0 -31.5 15.5t-11.5 31.5z" />
<glyph unicode="&#x13c;" horiz-adv-x="598" d="M45 61q10 63 92 64h111l168 1001h-111q-23 0 -36 2t-26.5 16.5t-9.5 43.5q10 63 93 63h170q51 0 63 -17t4 -67l-174 -1042h111q25 0 38 -2t25 -17.5t8 -44.5q-10 -61 -92 -61h-362q-23 0 -36 2t-26.5 16t-9.5 43zM139 -387q4 18 31 41q72 49 88 125q-33 2 -49 20.5 t-14 33.5t0 24q6 33 30.5 54t57.5 21q41 0 63.5 -33.5t9.5 -103.5q-14 -92 -76.5 -160.5t-97.5 -68.5q-18 0 -31.5 15.5t-11.5 31.5z" />
<glyph unicode="&#x13d;" horiz-adv-x="1314" d="M104 61q10 63 93 64h110l168 1001h-110q-23 0 -36.5 2t-26.5 16.5t-9 43.5q10 63 92 63h412q25 0 38 -2t25 -17t8 -44q-10 -61 -92 -62h-160l-167 -1001h653l24 141q4 27 9.5 42.5t25 28.5t51.5 13q47 0 56.5 -26.5t-0.5 -57.5l-31 -182q-8 -49 -27.5 -66.5t-68.5 -17.5 h-965q-23 0 -36 2t-26.5 16t-9.5 43zM944 932q4 20 29 41q72 49 88 125q-33 2 -48.5 20.5t-13.5 33.5t0 24q4 31 30 53t58 22q41 0 64 -33.5t10 -103.5q-14 -92 -77.5 -160.5t-98.5 -68.5q-18 0 -31.5 15.5t-9.5 31.5z" />
<glyph unicode="&#x13e;" horiz-adv-x="598" d="M45 61q10 63 92 64h111l168 1001h-111q-23 0 -36 2t-26.5 16.5t-9.5 43.5q10 63 93 63h170q51 0 63 -17t4 -67l-174 -1042h111q25 0 38 -2t25 -17.5t8 -44.5q-10 -61 -92 -61h-362q-23 0 -36 2t-26.5 16t-9.5 43zM604 932q4 20 29 41q72 49 88 125q-33 2 -48.5 20.5 t-13 33.5t-0.5 24q4 31 30 53t59 22q41 0 63.5 -33.5t9.5 -103.5q-14 -92 -77.5 -160.5t-98.5 -68.5q-18 0 -31.5 15.5t-9.5 31.5z" />
<glyph unicode="&#x13f;" horiz-adv-x="1314" d="M104 61q10 63 93 64h110l168 1001h-110q-23 0 -36.5 2t-26.5 16.5t-9 43.5q10 63 92 63h412q25 0 38 -2t25 -17t8 -44q-10 -61 -92 -62h-160l-167 -1001h653l24 141q4 27 9.5 42.5t25 28.5t51.5 13q47 0 56.5 -26.5t-0.5 -57.5l-31 -182q-8 -49 -27.5 -66.5t-68.5 -17.5 h-965q-23 0 -36 2t-26.5 16t-9.5 43zM1018 649q6 41 41 72t80 31q41 0 66.5 -31t19.5 -72t-41 -71.5t-80 -30.5q-41 0 -67.5 30.5t-18.5 71.5z" />
<glyph unicode="&#x140;" horiz-adv-x="636" d="M45 61q10 63 92 64h111l168 1001h-111q-23 0 -36 2t-26.5 16.5t-9.5 43.5q10 63 93 63h170q51 0 63 -17t4 -67l-174 -1042h111q25 0 38 -2t25 -17.5t8 -44.5q-10 -61 -92 -61h-362q-23 0 -36 2t-26.5 16t-9.5 43zM621 649q6 41 40.5 72t79.5 31q41 0 67 -31t19.5 -72 t-41 -71.5t-79.5 -30.5q-41 0 -67.5 30.5t-18.5 71.5z" />
<glyph unicode="&#x141;" horiz-adv-x="1314" d="M104 61q10 63 93 64h110l70 418l-82 -56q-25 -16 -47.5 -11t-32.5 26h-2q-10 23 -1 46t32 38l157 102l74 438h-110q-23 0 -36.5 2t-26.5 16.5t-9 43.5q10 63 92 63h412q25 0 38 -2t25 -17t8 -44q-10 -61 -92 -62h-160l-59 -354l385 242q23 14 45.5 9t32.5 -26v-2 q12 -23 3 -46t-32 -38l-459 -284l-83 -502h653l24 141q4 27 9.5 42.5t25 28.5t51.5 13q47 0 56.5 -26.5t-0.5 -57.5l-31 -182q-8 -49 -27.5 -66.5t-68.5 -17.5h-965q-23 0 -36 2t-26.5 16t-9.5 43z" />
<glyph unicode="&#x142;" horiz-adv-x="722" d="M91 547.5q9 23.5 32 38.5l309 194l57 346h-110q-23 0 -36 2t-26.5 16.5t-9.5 43.5q10 63 92 63h170q51 0 63.5 -17t4.5 -67l-49 -301l233 148q23 14 45.5 9t32.5 -26v-2q12 -23 3 -46t-32 -38l-307 -192l-100 -594h110q25 0 38.5 -2t25.5 -17.5t8 -44.5q-10 -61 -92 -61 h-363q-23 0 -36 2t-26 16.5t-9 42.5q10 63 92 64h111l86 510l-234 -148q-27 -16 -48.5 -11t-31.5 26h-2q-10 22 -1 45.5z" />
<glyph unicode="&#x143;" horiz-adv-x="1552" d="M119 61q10 63 92 64h111l167 1001h-110q-23 0 -36 2t-26.5 16.5t-9.5 43.5q10 63 92 63h195q29 0 44 -2t36.5 -18.5t36.5 -48.5l440 -1078h2l170 1022h-111q-23 0 -36 2t-26 16.5t-9 43.5q10 63 92 63h336q25 0 38 -2t25.5 -17t7.5 -44q-10 -61 -92 -62h-110l-174 -1042 q-8 -53 -27.5 -68.5t-71.5 -15.5q-29 0 -44 2t-36.5 18.5t-35.5 49.5l-441 1077h-2l-170 -1022h111q25 0 38 -2t25.5 -17.5t7.5 -44.5q-10 -61 -92 -61h-336q-23 0 -36 2t-26 16t-9 43zM797 1419q6 37 61 60l293 123l41 10q31 0 48 -20.5t11 -51.5q-8 -45 -69 -72l-291 -120 q-25 -10 -39 -11q-35 0 -46 29.5t-9 52.5z" />
<glyph unicode="&#x144;" horiz-adv-x="1193" d="M45 61q10 63 92 64h111l106 633h-110q-23 0 -36 2t-26.5 16.5t-9.5 42.5q10 63 92 64h170q57 0 67.5 -23.5t-3.5 -81.5q145 117 321 117q295 0 246 -299l-80 -471h111q25 0 38 -2t25 -17.5t8 -44.5q-10 -61 -92 -61h-362q-25 0 -38 2t-25.5 17.5t-8.5 43.5q10 61 92 62 h111l78 459q16 96 -9.5 141t-126.5 45q-63 0 -129.5 -24.5t-128 -92t-77.5 -168.5l-62 -360h111q25 0 38 -2t25 -17.5t8 -44.5q-10 -61 -92 -61h-362q-23 0 -36 2t-26.5 16t-9.5 43zM557 1059q6 37 61 59l293 123l41 10q31 0 47.5 -20.5t12.5 -50.5q-8 -45 -70 -72 l-293 -121q-20 -10 -37 -10q-35 0 -46 29.5t-9 52.5z" />
<glyph unicode="&#x145;" horiz-adv-x="1552" d="M119 61q10 63 92 64h111l167 1001h-110q-23 0 -36 2t-26.5 16.5t-9.5 43.5q10 63 92 63h195q29 0 44 -2t36.5 -18.5t36.5 -48.5l440 -1078h2l170 1022h-111q-23 0 -36 2t-26 16.5t-9 43.5q10 63 92 63h336q25 0 38 -2t25.5 -17t7.5 -44q-10 -61 -92 -62h-110l-174 -1042 q-8 -53 -27.5 -68.5t-71.5 -15.5q-29 0 -44 2t-36.5 18.5t-35.5 49.5l-441 1077h-2l-170 -1022h111q25 0 38 -2t25.5 -17.5t7.5 -44.5q-10 -61 -92 -61h-336q-23 0 -36 2t-26 16t-9 43zM618 -387q4 18 31 41q72 49 88 125q-33 2 -49 20.5t-14 33.5t0 24q6 33 30.5 54 t57.5 21q41 0 63.5 -33.5t10.5 -103.5q-14 -92 -77 -160.5t-97 -68.5q-18 0 -32 15.5t-12 31.5z" />
<glyph unicode="&#x146;" horiz-adv-x="1193" d="M45 61q10 63 92 64h111l106 633h-110q-23 0 -36 2t-26.5 16.5t-9.5 42.5q10 63 92 64h170q57 0 67.5 -23.5t-3.5 -81.5q145 117 321 117q295 0 246 -299l-80 -471h111q25 0 38 -2t25 -17.5t8 -44.5q-10 -61 -92 -61h-362q-25 0 -38 2t-25.5 17.5t-8.5 43.5q10 61 92 62 h111l78 459q16 96 -9.5 141t-126.5 45q-63 0 -129.5 -24.5t-128 -92t-77.5 -168.5l-62 -360h111q25 0 38 -2t25 -17.5t8 -44.5q-10 -61 -92 -61h-362q-23 0 -36 2t-26.5 16t-9.5 43zM438 -387q4 18 31 41q72 49 88 125q-33 2 -49 20.5t-14 33.5t0 24q6 33 30.5 54t57.5 21 q41 0 63.5 -33.5t9.5 -103.5q-14 -92 -76.5 -160.5t-97.5 -68.5q-18 0 -31.5 15.5t-11.5 31.5z" />
<glyph unicode="&#x147;" horiz-adv-x="1552" d="M119 61q10 63 92 64h111l167 1001h-110q-23 0 -36 2t-26.5 16.5t-9.5 43.5q10 63 92 63h195q29 0 44 -2t36.5 -18.5t36.5 -48.5l440 -1078h2l170 1022h-111q-23 0 -36 2t-26 16.5t-9 43.5q10 63 92 63h336q25 0 38 -2t25.5 -17t7.5 -44q-10 -61 -92 -62h-110l-174 -1042 q-8 -53 -27.5 -68.5t-71.5 -15.5q-29 0 -44 2t-36.5 18.5t-35.5 49.5l-441 1077h-2l-170 -1022h111q25 0 38 -2t25.5 -17.5t7.5 -44.5q-10 -61 -92 -61h-336q-23 0 -36 2t-26 16t-9 43zM729 1485q29 55 80 39l211 -68l235 68q37 10 56.5 -13.5t9.5 -56.5t-47 -45l-258 -88 q-20 -6 -39 0l-225 88q-52 21 -23 76z" />
<glyph unicode="&#x148;" horiz-adv-x="1193" d="M45 61q10 63 92 64h111l106 633h-110q-23 0 -36 2t-26.5 16.5t-9.5 42.5q10 63 92 64h170q57 0 67.5 -23.5t-3.5 -81.5q145 117 321 117q295 0 246 -299l-80 -471h111q25 0 38 -2t25 -17.5t8 -44.5q-10 -61 -92 -61h-362q-25 0 -38 2t-25.5 17.5t-8.5 43.5q10 61 92 62 h111l78 459q16 96 -9.5 141t-126.5 45q-63 0 -129.5 -24.5t-128 -92t-77.5 -168.5l-62 -360h111q25 0 38 -2t25 -17.5t8 -44.5q-10 -61 -92 -61h-362q-23 0 -36 2t-26.5 16t-9.5 43zM508 1221.5q39 50.5 86 19.5l190 -127l232 127q55 31 78.5 -19.5t-31.5 -82.5l-268 -154 q-35 -20 -62 0l-219 154q-45 32 -6 82.5z" />
<glyph unicode="&#x14a;" horiz-adv-x="1552" d="M45 61q10 63 92 64h111l168 1001h-111q-23 0 -36 2t-26.5 16.5t-9.5 43.5q10 63 93 63h170q51 0 63 -17t4 -67l-8 -47q207 154 512 154q262 0 412.5 -190.5t105.5 -456.5q-45 -264 -195.5 -457t-357.5 -193q-39 0 -59.5 27t-14 63.5t36 63.5t68.5 27t61 -29 q123 33 205 174t113 324q35 207 -82 355t-318 148q-186 0 -336.5 -65.5t-191.5 -194.5l-125 -745h111q25 0 38 -2t25 -17.5t8 -44.5q-10 -61 -92 -61h-362q-23 0 -36 2t-26.5 16t-9.5 43z" />
<glyph unicode="&#x14b;" horiz-adv-x="1193" d="M117 61q10 63 92 64h110l107 633h-111q-23 0 -36 2t-26 16.5t-9 42.5q10 63 92 64h170q57 0 67.5 -23.5t-4.5 -81.5q145 117 322 117q295 0 246 -299l-80 -471q-45 -260 -129 -410q-111 -193 -279 -192q-29 0 -46 20.5t-13 50.5q4 29 29.5 50.5t54.5 21.5q41 0 72.5 17.5 t56 56.5t41 74.5t31 99t21.5 101.5t19 110l78 459q16 96 -9.5 141t-125.5 45q-63 0 -129.5 -24.5t-128 -92t-78.5 -168.5l-61 -360h110q25 0 38.5 -2t25.5 -17.5t8 -44.5q-10 -61 -92 -61h-363q-23 0 -36 2t-26 16t-9 43z" />
<glyph unicode="&#x14c;" horiz-adv-x="1673" d="M223 627q43 262 284 454.5t542 192.5q299 0 476 -190.5t132 -458.5q-43 -262 -283.5 -455t-542.5 -193q-299 0 -476 191t-132 459zM369 649q-37 -223 103 -385t380 -162t435.5 162t232.5 385q35 205 -108.5 352.5t-383.5 147.5t-432 -147.5t-227 -352.5zM688 1423 q10 63 92 64h611q25 0 38 -2t25 -17.5t8 -46.5q-12 -63 -94 -63h-608q-25 0 -38 2t-26.5 17t-7.5 46z" />
<glyph unicode="&#x14d;" d="M152 442q31 188 187.5 323.5t347 135.5t302 -135t80.5 -324q-33 -190 -188.5 -322t-346 -132t-303 132t-79.5 322zM295 457q-23 -141 52 -242.5t208 -101.5q131 0 241.5 101t133.5 243q23 135 -56 227t-208 92t-238.5 -92t-132.5 -227zM338 1116q10 63 92 64h610 q25 0 38.5 -2t25.5 -17.5t8 -46.5q-10 -63 -92 -63h-608q-25 0 -38.5 2t-26.5 17t-9 46z" />
<glyph unicode="&#x14e;" horiz-adv-x="1673" d="M223 627q43 262 284 454.5t542 192.5q299 0 476 -190.5t132 -458.5q-43 -262 -283.5 -455t-542.5 -193q-299 0 -476 191t-132 459zM369 649q-37 -223 103 -385t380 -162t435.5 162t232.5 385q35 205 -108.5 352.5t-383.5 147.5t-432 -147.5t-227 -352.5zM727 1505 q14 63 76 64q51 0 51 -60q2 -41 227.5 -41t243.5 41q20 59 72 60q66 0 51 -64q-10 -59 -49 -96t-107.5 -51.5t-112.5 -17.5t-118 -3q-47 0 -75 1t-77 5.5t-77.5 15.5t-58.5 28.5t-41 47t-5 70.5z" />
<glyph unicode="&#x14f;" d="M152 442q31 188 187.5 323.5t347 135.5t302 -135t80.5 -324q-33 -190 -188.5 -322t-346 -132t-303 132t-79.5 322zM295 457q-23 -141 52 -242.5t208 -101.5q131 0 241.5 101t133.5 243q23 135 -56 227t-208 92t-238.5 -92t-132.5 -227zM373 1167q10 63 73 64q51 0 52 -60 q4 -41 229 -41t242 41q20 59 71 60q63 0 54 -64q-10 -59 -50 -96t-109 -51t-113 -17.5t-117 -3.5q-47 0 -75 1t-77 5.5t-78 15.5t-58.5 28.5t-39.5 47t-4 70.5z" />
<glyph unicode="&#x150;" horiz-adv-x="1673" d="M223 627q43 262 284 454.5t542 192.5q299 0 476 -190.5t132 -458.5q-43 -262 -283.5 -455t-542.5 -193q-299 0 -476 191t-132 459zM369 649q-37 -223 103 -385t380 -162t435.5 162t232.5 385q35 205 -108.5 352.5t-383.5 147.5t-432 -147.5t-227 -352.5zM737 1415 q4 27 45 55l162 115q33 25 57 25q31 0 47.5 -20.5t12.5 -51.5q-6 -33 -49 -63l-162 -115q-33 -23 -51 -23q-27 0 -46.5 26.5t-15.5 51.5zM1157 1415q4 27 45 55l162 115q33 25 57 25q31 0 47.5 -20.5t12.5 -51.5q-6 -33 -49 -63l-162 -115q-33 -23 -51 -23q-27 0 -46.5 26.5 t-15.5 51.5z" />
<glyph unicode="&#x151;" d="M152 442q31 188 187.5 323.5t347 135.5t302 -135t80.5 -324q-33 -190 -188.5 -322t-346 -132t-303 132t-79.5 322zM295 457q-23 -141 52 -242.5t208 -101.5q131 0 241.5 101t133.5 243q23 135 -56 227t-208 92t-238.5 -92t-132.5 -227zM379 1057q4 27 45 55l162 115 q33 25 57 24q31 0 47.5 -20.5t11.5 -50.5q-6 -33 -49 -64l-161 -115q-33 -23 -52 -22q-27 0 -46 26.5t-15 51.5zM799 1057q4 27 45 55l162 115q33 25 57 24q31 0 47 -20.5t12 -50.5q-6 -33 -49 -64l-162 -115q-33 -23 -51 -22q-27 0 -46 26.5t-15 51.5z" />
<glyph unicode="&#x152;" horiz-adv-x="2150" d="M223 627q43 264 284 455.5t542 191.5l122 -8l70 -9q72 -6 111 -6h805q51 0 63 -17t4 -67l-24 -149q-4 -27 -9.5 -41t-25 -28.5t-51.5 -14.5q-45 0 -55.5 27.5t-0.5 56.5l19 108h-672l-70 -415h455q6 41 10 55t13.5 32.5t24.5 23.5t42 5q47 0 55.5 -21.5t1.5 -62.5 l-32 -190q-4 -27 -9.5 -41t-24 -28.5t-50.5 -14.5q-49 0 -57.5 26.5t5.5 90.5h-454l-78 -461h731l25 141q4 27 9 41.5t24.5 28.5t52.5 14q45 0 55 -27.5t0 -56.5l-31 -182q-8 -49 -27.5 -66.5t-68.5 -17.5h-864q-61 0 -127 -8q-143 -14 -185 -15q-299 0 -476 191t-132 459z M369 649q-35 -217 100 -382t393 -165q147 0 196.5 58.5t82.5 247.5l39 219l32 213q35 182 5.5 245.5t-179.5 63.5q-260 0 -448 -150.5t-221 -349.5z" />
<glyph unicode="&#x153;" horiz-adv-x="1673" d="M152 444q33 190 185 323.5t335 133.5q111 0 200 -54t140 -153q72 94 175 150.5t212 56.5q170 0 245.5 -121t45.5 -311q-6 -37 -21.5 -54.5t-30 -20.5t-43.5 -3h-559q-2 -123 79 -200.5t196 -77.5q131 0 200 123q25 45 76 45q14 0 25.5 -2.5t26 -15.5t10.5 -40 q-10 -61 -112.5 -148t-258.5 -87q-135 0 -223 65.5t-125 143.5q-78 -94 -184.5 -151.5t-225.5 -57.5q-182 0 -290.5 133t-77.5 323zM295 457q-23 -141 49 -242.5t197 -101.5t231.5 101t128.5 243q23 135 -52 227t-198 92t-228 -92t-128 -227zM1059 514h495 q10 113 -31.5 187.5t-144.5 74.5q-94 0 -186 -72.5t-133 -189.5z" />
<glyph unicode="&#x154;" horiz-adv-x="1552" d="M104 61q10 63 93 64h110l168 1001h-110q-23 0 -36.5 2t-26.5 16.5t-9 43.5q10 63 92 63h549q225 0 374.5 -100t125.5 -244q-14 -84 -89 -157.5t-194 -120.5q70 -39 100 -94q23 -43 23 -78t-17 -127q-25 -94 -13.5 -161t85.5 -67q82 0 107 93q16 61 80 61q16 0 28 -2 t24.5 -17.5t8.5 -43.5q-14 -80 -90 -148t-178 -68q-131 0 -183 93q-29 51 -29.5 107t17.5 145q18 90 11 125.5t-60 68.5q-86 47 -250 47h-293l-73 -438h110q25 0 38 -2t25.5 -17.5t8.5 -44.5q-10 -61 -92 -61h-363q-23 0 -36 2t-26.5 16t-9.5 43zM543 688h278 q170 0 312.5 62.5t158.5 156.5q14 94 -106.5 156.5t-290.5 62.5h-279zM797 1419q6 37 61 60l293 123l41 10q31 0 48 -20.5t11 -51.5q-8 -45 -69 -72l-291 -120q-25 -10 -39 -11q-35 0 -46 29.5t-9 52.5z" />
<glyph unicode="&#x155;" horiz-adv-x="835" d="M45 61q10 63 92 64h111l106 633h-110q-23 0 -36 2t-26.5 16.5t-9.5 42.5q10 63 92 64h170q57 0 67.5 -23.5t-3.5 -89.5q129 125 272 125q72 0 105.5 -39t27.5 -88q-8 -39 -37.5 -63.5t-64.5 -24.5q-29 0 -52.5 19.5t-17.5 68.5q-115 -12 -194.5 -124t-104.5 -259 l-43 -260h160q25 0 38 -2t25.5 -17.5t8.5 -44.5q-10 -61 -93 -61h-411q-23 0 -36 2t-26.5 16t-9.5 43zM379 1059q6 37 61 59l293 123l41 10q31 0 47.5 -20.5t12.5 -50.5q-8 -45 -70 -72l-293 -121q-20 -10 -37 -10q-35 0 -46 29.5t-9 52.5z" />
<glyph unicode="&#x156;" horiz-adv-x="1552" d="M104 61q10 63 93 64h110l168 1001h-110q-23 0 -36.5 2t-26.5 16.5t-9 43.5q10 63 92 63h549q225 0 374.5 -100t125.5 -244q-14 -84 -89 -157.5t-194 -120.5q70 -39 100 -94q23 -43 23 -78t-17 -127q-25 -94 -13.5 -161t85.5 -67q82 0 107 93q16 61 80 61q16 0 28 -2 t24.5 -17.5t8.5 -43.5q-14 -80 -90 -148t-178 -68q-131 0 -183 93q-29 51 -29.5 107t17.5 145q18 90 11 125.5t-60 68.5q-86 47 -250 47h-293l-73 -438h110q25 0 38 -2t25.5 -17.5t8.5 -44.5q-10 -61 -92 -61h-363q-23 0 -36 2t-26.5 16t-9.5 43zM543 688h278 q170 0 312.5 62.5t158.5 156.5q14 94 -106.5 156.5t-290.5 62.5h-279zM618 -387q4 18 31 41q72 49 88 125q-33 2 -49 20.5t-14 33.5t0 24q6 33 30.5 54t57.5 21q41 0 63.5 -33.5t10.5 -103.5q-14 -92 -77 -160.5t-97 -68.5q-18 0 -32 15.5t-12 31.5z" />
<glyph unicode="&#x157;" horiz-adv-x="835" d="M45 61q10 63 92 64h111l106 633h-110q-23 0 -36 2t-26.5 16.5t-9.5 42.5q10 63 92 64h170q57 0 67.5 -23.5t-3.5 -89.5q129 125 272 125q72 0 105.5 -39t27.5 -88q-8 -39 -37.5 -63.5t-64.5 -24.5q-29 0 -52.5 19.5t-17.5 68.5q-115 -12 -194.5 -124t-104.5 -259 l-43 -260h160q25 0 38 -2t25.5 -17.5t8.5 -44.5q-10 -61 -93 -61h-411q-23 0 -36 2t-26.5 16t-9.5 43zM141 -387q4 18 31 41q72 49 88 125q-33 2 -49 20.5t-14 33.5t0 24q6 33 30.5 54t57.5 21q41 0 63.5 -33.5t9.5 -103.5q-14 -92 -76.5 -160.5t-97.5 -68.5 q-18 0 -31.5 15.5t-11.5 31.5z" />
<glyph unicode="&#x158;" horiz-adv-x="1552" d="M104 61q10 63 93 64h110l168 1001h-110q-23 0 -36.5 2t-26.5 16.5t-9 43.5q10 63 92 63h549q225 0 374.5 -100t125.5 -244q-14 -84 -89 -157.5t-194 -120.5q70 -39 100 -94q23 -43 23 -78t-17 -127q-25 -94 -13.5 -161t85.5 -67q82 0 107 93q16 61 80 61q16 0 28 -2 t24.5 -17.5t8.5 -43.5q-14 -80 -90 -148t-178 -68q-131 0 -183 93q-29 51 -29.5 107t17.5 145q18 90 11 125.5t-60 68.5q-86 47 -250 47h-293l-73 -438h110q25 0 38 -2t25.5 -17.5t8.5 -44.5q-10 -61 -92 -61h-363q-23 0 -36 2t-26.5 16t-9.5 43zM543 688h278 q170 0 312.5 62.5t158.5 156.5q14 94 -106.5 156.5t-290.5 62.5h-279zM729 1485q29 55 80 39l211 -68l235 68q37 10 56.5 -13.5t9.5 -56.5t-47 -45l-258 -88q-20 -6 -39 0l-225 88q-52 21 -23 76z" />
<glyph unicode="&#x159;" horiz-adv-x="835" d="M45 61q10 63 92 64h111l106 633h-110q-23 0 -36 2t-26.5 16.5t-9.5 42.5q10 63 92 64h170q57 0 67.5 -23.5t-3.5 -89.5q129 125 272 125q72 0 105.5 -39t27.5 -88q-8 -39 -37.5 -63.5t-64.5 -24.5q-29 0 -52.5 19.5t-17.5 68.5q-115 -12 -194.5 -124t-104.5 -259 l-43 -260h160q25 0 38 -2t25.5 -17.5t8.5 -44.5q-10 -61 -93 -61h-411q-23 0 -36 2t-26.5 16t-9.5 43zM330 1221.5q39 50.5 86 19.5l190 -127l232 127q55 31 78.5 -19.5t-31.5 -82.5l-269 -154q-35 -20 -61 0l-219 154q-45 32 -6 82.5z" />
<glyph unicode="&#x15a;" horiz-adv-x="1193" d="M129 61l45 271q4 27 9 41t24.5 28.5t52.5 14.5q68 0 57 -68q-6 -68 13.5 -110.5t68.5 -77.5q90 -57 265 -58q133 0 225 70t106 160q6 39 -4 75.5t-24 53.5l-13 16q-41 41 -75.5 54.5t-135.5 35.5l-84 19q-154 33 -213 55.5t-108 75.5q-84 96 -64 221q23 135 158 235.5 t322 100.5q209 0 313 -105q37 72 51.5 88.5t46.5 16.5q63 0 47 -84l-45 -270q-4 -27 -9 -41.5t-24.5 -28.5t-52.5 -14q-29 0 -42 10t-15 20.5t-4 34.5q-4 248 -289 248q-125 0 -217 -61.5t-104 -141.5q-14 -82 46 -131t124 -63l292 -64q133 -29 206 -127t52 -221 q-25 -143 -159.5 -253t-329.5 -110q-250 0 -369 99q-33 -63 -48 -81t-48 -18q-63 0 -47 84zM616 1419q6 37 62 60l293 123l41 10q31 0 48 -20.5t11 -51.5q-8 -45 -70 -72l-290 -120q-25 -10 -39 -11q-35 0 -46.5 29.5t-9.5 52.5z" />
<glyph unicode="&#x15b;" horiz-adv-x="847" d="M84 72l33 196q4 27 9 41.5t24.5 28.5t52.5 14q37 0 48 -13t13 -38q4 -41 12.5 -67.5t25.5 -57.5t54 -47t93 -16q25 0 49 3t71 14t81 44t42 82q10 55 -30.5 90t-102.5 49q-31 0 -121 23q-35 6 -59.5 12t-69.5 25.5t-72.5 43t-45 65.5t-9.5 95q6 35 25.5 72t59.5 78 t117 66.5t181 25.5q115 0 178 -41q20 41 66 41q29 0 41 -14.5t10 -32.5t-2 -37l-24 -141q-4 -27 -9.5 -41t-25 -28.5t-51.5 -14.5q-68 0 -58 65q2 23 -1 37.5t-15 37t-46 33.5t-87 11q-109 0 -167.5 -32.5t-66.5 -84.5q-10 -57 47.5 -81.5t198.5 -51.5q299 -57 264 -270 q-16 -104 -112.5 -186t-278.5 -82q-139 0 -211 69q-35 -70 -84 -69q-63 0 -47 84zM385 1059q6 37 61 59l293 123l41 10q31 0 47.5 -20.5t12.5 -50.5q-8 -45 -70 -72l-293 -121q-20 -10 -37 -10q-35 0 -46 29.5t-9 52.5z" />
<glyph unicode="&#x15c;" horiz-adv-x="1193" d="M129 61l45 271q4 27 9 41t24.5 28.5t52.5 14.5q68 0 57 -68q-6 -68 13.5 -110.5t68.5 -77.5q90 -57 265 -58q133 0 225 70t106 160q6 39 -4 75.5t-24 53.5l-13 16q-41 41 -75.5 54.5t-135.5 35.5l-84 19q-154 33 -213 55.5t-108 75.5q-84 96 -64 221q23 135 158 235.5 t322 100.5q209 0 313 -105q37 72 51.5 88.5t46.5 16.5q63 0 47 -84l-45 -270q-4 -27 -9 -41.5t-24.5 -28.5t-52.5 -14q-29 0 -42 10t-15 20.5t-4 34.5q-4 248 -289 248q-125 0 -217 -61.5t-104 -141.5q-14 -82 46 -131t124 -63l292 -64q133 -29 206 -127t52 -221 q-25 -143 -159.5 -253t-329.5 -110q-250 0 -369 99q-33 -63 -48 -81t-48 -18q-63 0 -47 84zM530.5 1390.5q10.5 32.5 47.5 45.5l256 88q20 6 38 0l228 -88q51 -20 22.5 -75.5t-82.5 -39.5l-211 68l-235 -68q-37 -10 -55.5 13.5t-8 56z" />
<glyph unicode="&#x15d;" horiz-adv-x="847" d="M84 72l33 196q4 27 9 41.5t24.5 28.5t52.5 14q37 0 48 -13t13 -38q4 -41 12.5 -67.5t25.5 -57.5t54 -47t93 -16q25 0 49 3t71 14t81 44t42 82q10 55 -30.5 90t-102.5 49q-31 0 -121 23q-35 6 -59.5 12t-69.5 25.5t-72.5 43t-45 65.5t-9.5 95q6 35 25.5 72t59.5 78 t117 66.5t181 25.5q115 0 178 -41q20 41 66 41q29 0 41 -14.5t10 -32.5t-2 -37l-24 -141q-4 -27 -9.5 -41t-25 -28.5t-51.5 -14.5q-68 0 -58 65q2 23 -1 37.5t-15 37t-46 33.5t-87 11q-109 0 -167.5 -32.5t-66.5 -84.5q-10 -57 47.5 -81.5t198.5 -51.5q299 -57 264 -270 q-16 -104 -112.5 -186t-278.5 -82q-139 0 -211 69q-35 -70 -84 -69q-63 0 -47 84zM300 1006.5q-24 50.5 34 83.5l266 153q35 20 62 0l221 -153q45 -33 4 -83.5t-86 -19.5l-189 127l-233 -127q-55 -31 -79 19.5z" />
<glyph unicode="&#x15e;" horiz-adv-x="1193" d="M129 61l45 271q4 27 9 41t24.5 28.5t52.5 14.5q68 0 57 -68q-6 -68 13.5 -110.5t68.5 -77.5q90 -57 265 -58q133 0 225 70t106 160q6 39 -4 75.5t-24 53.5l-13 16q-41 41 -75.5 54.5t-135.5 35.5l-84 19q-154 33 -213 55.5t-108 75.5q-84 96 -64 221q23 135 158 235.5 t322 100.5q209 0 313 -105q37 72 51.5 88.5t46.5 16.5q63 0 47 -84l-45 -270q-4 -27 -9 -41.5t-24.5 -28.5t-52.5 -14q-29 0 -42 10t-15 20.5t-4 34.5q-4 248 -289 248q-125 0 -217 -61.5t-104 -141.5q-14 -82 46 -131t124 -63l292 -64q133 -29 206 -127t52 -221 q-20 -127 -131.5 -229.5t-273.5 -126.5l-2 -4q76 -20 117 -71.5t28 -127.5q-8 -43 -29.5 -77t-48 -55.5t-69.5 -36.5t-76 -22.5t-86 -11.5t-82 -4h-80q-23 0 -41 15.5t-12 48.5q6 31 26.5 45t40 16t60.5 2q141 0 195.5 20.5t60.5 61.5q6 33 -22.5 55.5t-79.5 26.5 q-29 2 -41.5 15.5t-11.5 29.5t3 35l7 35q-199 8 -310 96q-33 -63 -48 -81t-48 -18q-63 0 -47 84z" />
<glyph unicode="&#x15f;" horiz-adv-x="847" d="M84 72l33 196q4 27 9 41.5t24.5 28.5t52.5 14q37 0 48 -13t13 -38q4 -41 12.5 -67.5t25.5 -57.5t54 -47t93 -16q25 0 49 3t71 14t81 44t42 82q10 55 -30.5 90t-102.5 49q-31 0 -121 23q-35 6 -59.5 12t-69.5 25.5t-72.5 43t-45 65.5t-9.5 95q6 35 25.5 72t59.5 78 t117 66.5t181 25.5q115 0 178 -41q20 41 66 41q29 0 41 -14.5t10 -32.5t-2 -37l-24 -141q-4 -27 -9.5 -41t-25 -28.5t-51.5 -14.5q-68 0 -58 65q2 23 -1 37.5t-15 37t-46 33.5t-87 11q-109 0 -167.5 -32.5t-66.5 -84.5q-10 -57 47.5 -81.5t198.5 -51.5q299 -57 264 -270 q-14 -82 -78.5 -154.5t-183.5 -99.5l-4 -22q76 -20 117 -71.5t28 -127.5q-8 -43 -29.5 -77t-48 -55.5t-69.5 -36.5t-76 -22.5t-86 -11.5t-82 -4h-80q-23 0 -41 15.5t-12 48.5q6 31 26.5 45t40 16t60.5 2q141 0 195.5 20.5t60.5 61.5q6 33 -22.5 55.5t-79.5 26.5 q-29 2 -41.5 15.5t-11.5 29.5t3 35l9 43q-125 4 -197 69q-35 -70 -84 -69q-63 0 -47 84z" />
<glyph unicode="&#x160;" horiz-adv-x="1193" d="M129 61l45 271q4 27 9 41t24.5 28.5t52.5 14.5q68 0 57 -68q-6 -68 13.5 -110.5t68.5 -77.5q90 -57 265 -58q133 0 225 70t106 160q6 39 -4 75.5t-24 53.5l-13 16q-41 41 -75.5 54.5t-135.5 35.5l-84 19q-154 33 -213 55.5t-108 75.5q-84 96 -64 221q23 135 158 235.5 t322 100.5q209 0 313 -105q37 72 51.5 88.5t46.5 16.5q63 0 47 -84l-45 -270q-4 -27 -9 -41.5t-24.5 -28.5t-52.5 -14q-29 0 -42 10t-15 20.5t-4 34.5q-4 248 -289 248q-125 0 -217 -61.5t-104 -141.5q-14 -82 46 -131t124 -63l292 -64q133 -29 206 -127t52 -221 q-25 -143 -159.5 -253t-329.5 -110q-250 0 -369 99q-33 -63 -48 -81t-48 -18q-63 0 -47 84zM549 1485q29 55 80 39l211 -68l235 68q37 10 56.5 -13.5t9 -56.5t-46.5 -45l-258 -88q-20 -6 -39 0l-226 88q-51 21 -22 76z" />
<glyph unicode="&#x161;" horiz-adv-x="847" d="M84 72l33 196q4 27 9 41.5t24.5 28.5t52.5 14q37 0 48 -13t13 -38q4 -41 12.5 -67.5t25.5 -57.5t54 -47t93 -16q25 0 49 3t71 14t81 44t42 82q10 55 -30.5 90t-102.5 49q-31 0 -121 23q-35 6 -59.5 12t-69.5 25.5t-72.5 43t-45 65.5t-9.5 95q6 35 25.5 72t59.5 78 t117 66.5t181 25.5q115 0 178 -41q20 41 66 41q29 0 41 -14.5t10 -32.5t-2 -37l-24 -141q-4 -27 -9.5 -41t-25 -28.5t-51.5 -14.5q-68 0 -58 65q2 23 -1 37.5t-15 37t-46 33.5t-87 11q-109 0 -167.5 -32.5t-66.5 -84.5q-10 -57 47.5 -81.5t198.5 -51.5q299 -57 264 -270 q-16 -104 -112.5 -186t-278.5 -82q-139 0 -211 69q-35 -70 -84 -69q-63 0 -47 84zM336 1221.5q39 50.5 86 19.5l190 -127l232 127q55 31 78.5 -19.5t-31.5 -82.5l-268 -154q-35 -20 -62 0l-219 154q-45 32 -6 82.5z" />
<glyph unicode="&#x162;" horiz-adv-x="1552" d="M248 961.5q-10 27.5 0 56.5l24 149q10 51 28.5 67.5t70.5 16.5h1228q51 0 63.5 -17t4.5 -67l-25 -149q-4 -27 -9 -41t-24.5 -28.5t-52.5 -14.5q-45 0 -55 27.5t0 56.5l19 108h-486l-168 -1001h191q23 0 37 -2t27.5 -17.5t8.5 -44.5q-10 -61 -94 -61h-190l-4 -27 q76 -20 116.5 -71.5t28.5 -126.5q-8 -43 -29.5 -77t-48 -55.5t-69.5 -37t-76 -22.5t-86 -11t-82 -4h-80q-23 0 -41 15.5t-12 47.5q6 31 26.5 45.5t40 16.5t60.5 2q141 0 195.5 20.5t60.5 61.5q6 33 -22.5 55.5t-80.5 26.5q-29 2 -41 15t-11 29.5t3 35.5l13 61h-193 q-23 0 -37 2t-27.5 17.5t-9.5 43.5q10 61 95 62h190l168 1001h-485l-19 -108q-4 -27 -9 -41t-24.5 -28.5t-52.5 -14.5q-45 0 -55 27.5z" />
<glyph unicode="&#x163;" horiz-adv-x="835" d="M150 -369q4 31 24.5 45.5t39.5 16.5t60 2q141 0 196.5 20.5t61.5 61.5q4 33 -24.5 55.5t-79.5 26.5q-61 4 -47 80l10 59q-158 45 -121 254l84 506h-106q-23 0 -36 2t-26.5 16.5t-9.5 42.5q10 63 94 64h105l28 168q4 29 8.5 42t24 27.5t51.5 14.5q47 0 55.5 -21.5 t2.5 -62.5l-29 -168h227q25 0 38.5 -2t25.5 -17.5t8 -44.5q-10 -61 -92 -61h-227l-82 -494q-27 -152 73 -151q43 0 80 37.5t49 107.5q4 25 9.5 38t24 27.5t50.5 14.5q47 0 57.5 -26.5t0.5 -55.5q-16 -94 -79 -163.5t-147 -94.5l-4 -25q76 -20 117 -71.5t29 -126.5 q-8 -43 -29.5 -77t-48.5 -55.5t-70 -37t-75.5 -22.5t-86 -11t-81.5 -4h-80q-23 0 -41 15t-12 48z" />
<glyph unicode="&#x164;" horiz-adv-x="1552" d="M248 961.5q-10 27.5 0 56.5l24 149q10 51 28.5 67.5t70.5 16.5h1228q51 0 63.5 -17t4.5 -67l-25 -149q-4 -27 -9 -41t-24.5 -28.5t-52.5 -14.5q-45 0 -55 27.5t0 56.5l19 108h-486l-168 -1001h191q23 0 37 -2t27.5 -17.5t8.5 -44.5q-10 -61 -94 -61h-522q-23 0 -37 2 t-27.5 17.5t-9.5 43.5q10 61 95 62h190l168 1001h-485l-19 -108q-4 -27 -9 -41t-24.5 -28.5t-52.5 -14.5q-45 0 -55 27.5zM729 1485q29 55 80 39l211 -68l235 68q37 10 56.5 -13.5t9.5 -56.5t-47 -45l-258 -88q-20 -6 -39 0l-225 88q-52 21 -23 76z" />
<glyph unicode="&#x165;" horiz-adv-x="835" d="M176 819q10 63 94 64h105l28 168q4 29 8.5 42t24 27.5t51.5 14.5q47 0 55.5 -21.5t2.5 -62.5l-29 -168h227q25 0 38.5 -2t25.5 -17.5t8 -44.5q-10 -61 -92 -61h-227l-82 -494q-27 -152 73 -151q43 0 80 37.5t49 107.5q4 25 9.5 38t24 27.5t50.5 14.5q47 0 57.5 -26.5 t0.5 -55.5q-20 -117 -107.5 -192.5t-191.5 -75.5q-90 0 -150.5 61.5t-38.5 202.5l84 506h-106q-23 0 -36 2t-26.5 16t-9.5 43zM616 1008q2 14 29 41q66 47 90 125q-33 2 -49 20t-14 33.5t0 23.5q4 31 29.5 53.5t58.5 22.5q41 0 63.5 -33.5t10.5 -103.5q-14 -92 -78 -160.5 t-99 -68.5q-18 0 -31.5 15.5t-9.5 31.5z" />
<glyph unicode="&#x168;" horiz-adv-x="1552" d="M293 1188q10 63 92 63h363q25 0 38 -2t25 -17t8 -44q-10 -61 -92 -62h-111l-116 -692q-25 -160 67 -246t226 -86q129 0 251.5 86t149.5 246l117 692h-111q-23 0 -36 2t-26.5 16.5t-9.5 43.5q10 63 93 63h362q25 0 38 -2t25.5 -17t8.5 -44q-10 -61 -92 -62h-111l-119 -704 q-31 -188 -195.5 -316.5t-367.5 -128.5q-199 0 -321.5 127t-92.5 318l119 704h-110q-23 0 -36.5 2t-26.5 16.5t-9 43.5zM696 1382q6 39 121 113q100 68 170 68q72 0 125 -70q39 -43 57 -43q49 0 158 90q31 23 53 23q25 0 41.5 -20.5t12.5 -45.5q-6 -35 -119 -113 q-102 -68 -172 -67q-66 0 -125 69q-39 43 -57 44q-45 0 -158 -91q-31 -23 -53 -22q-25 0 -41.5 20t-12.5 45z" />
<glyph unicode="&#x169;" horiz-adv-x="1193" d="M172 819q10 63 92 64h170q51 0 63.5 -17.5t4.5 -66.5l-92 -551q-2 -33 -3 -63.5t39.5 -51t126.5 -20.5q27 0 55.5 3t71.5 15t77 33.5t62.5 61.5t37.5 96l73 436h-110q-25 0 -38.5 2t-25.5 17.5t-8 43.5q10 61 92 62h170q51 0 63.5 -17.5t4.5 -66.5l-113 -674h111 q25 0 38 -2t25 -17.5t8 -44.5q-10 -61 -92 -61h-170q-27 0 -40 2t-24.5 19.5t-4.5 50.5q-121 -84 -295 -84q-55 0 -98.5 7t-93.5 29.5t-72.5 77t-10.5 134.5l88 522h-110q-23 0 -36 2t-26.5 16t-9.5 43zM416 1057q6 35 119 112q102 68 172 68q66 0 124 -70q39 -43 58 -43 q45 0 158 90q31 23 53 23q25 0 40 -20.5t11 -45.5q-6 -39 -119 -112q-102 -68 -169.5 -68t-127.5 70q-39 43 -55 43q-49 0 -158 -90q-31 -23 -53 -23q-25 0 -41 20.5t-12 45.5z" />
<glyph unicode="&#x16a;" horiz-adv-x="1552" d="M293 1188q10 63 92 63h363q25 0 38 -2t25 -17t8 -44q-10 -61 -92 -62h-111l-116 -692q-25 -160 67 -246t226 -86q129 0 251.5 86t149.5 246l117 692h-111q-23 0 -36 2t-26.5 16.5t-9.5 43.5q10 63 93 63h362q25 0 38 -2t25.5 -17t8.5 -44q-10 -61 -92 -62h-111l-119 -704 q-31 -188 -195.5 -316.5t-367.5 -128.5q-199 0 -321.5 127t-92.5 318l119 704h-110q-23 0 -36.5 2t-26.5 16.5t-9 43.5zM676 1423q10 63 92 64h610q25 0 38.5 -2t25.5 -17.5t8 -46.5q-12 -63 -94 -63h-608q-25 0 -38.5 2t-26.5 17t-7 46z" />
<glyph unicode="&#x16b;" horiz-adv-x="1193" d="M172 819q10 63 92 64h170q51 0 63.5 -17.5t4.5 -66.5l-92 -551q-2 -33 -3 -63.5t39.5 -51t126.5 -20.5q27 0 55.5 3t71.5 15t77 33.5t62.5 61.5t37.5 96l73 436h-110q-25 0 -38.5 2t-25.5 17.5t-8 43.5q10 61 92 62h170q51 0 63.5 -17.5t4.5 -66.5l-113 -674h111 q25 0 38 -2t25 -17.5t8 -44.5q-10 -61 -92 -61h-170q-27 0 -40 2t-24.5 19.5t-4.5 50.5q-121 -84 -295 -84q-55 0 -98.5 7t-93.5 29.5t-72.5 77t-10.5 134.5l88 522h-110q-23 0 -36 2t-26.5 16t-9.5 43zM397 1116q10 63 92 64h611q25 0 38 -2t25.5 -17.5t7.5 -46.5 q-10 -63 -92 -63h-608q-25 0 -38 2t-26.5 17t-9.5 46z" />
<glyph unicode="&#x16c;" horiz-adv-x="1552" d="M293 1188q10 63 92 63h363q25 0 38 -2t25 -17t8 -44q-10 -61 -92 -62h-111l-116 -692q-25 -160 67 -246t226 -86q129 0 251.5 86t149.5 246l117 692h-111q-23 0 -36 2t-26.5 16.5t-9.5 43.5q10 63 93 63h362q25 0 38 -2t25.5 -17t8.5 -44q-10 -61 -92 -62h-111l-119 -704 q-31 -188 -195.5 -316.5t-367.5 -128.5q-199 0 -321.5 127t-92.5 318l119 704h-110q-23 0 -36.5 2t-26.5 16.5t-9 43.5zM715 1505q14 63 76 64q51 0 51 -60q2 -41 227 -41t244 41q20 59 71 60q66 0 52 -64q-10 -59 -49 -96t-108 -51.5t-113 -17.5t-117 -3q-47 0 -75 1 t-77 5.5t-77.5 15.5t-58.5 28.5t-41 47t-5 70.5z" />
<glyph unicode="&#x16d;" horiz-adv-x="1193" d="M172 819q10 63 92 64h170q51 0 63.5 -17.5t4.5 -66.5l-92 -551q-2 -33 -3 -63.5t39.5 -51t126.5 -20.5q27 0 55.5 3t71.5 15t77 33.5t62.5 61.5t37.5 96l73 436h-110q-25 0 -38.5 2t-25.5 17.5t-8 43.5q10 61 92 62h170q51 0 63.5 -17.5t4.5 -66.5l-113 -674h111 q25 0 38 -2t25 -17.5t8 -44.5q-10 -61 -92 -61h-170q-27 0 -40 2t-24.5 19.5t-4.5 50.5q-121 -84 -295 -84q-55 0 -98.5 7t-93.5 29.5t-72.5 77t-10.5 134.5l88 522h-110q-23 0 -36 2t-26.5 16t-9.5 43zM432 1167q10 63 74 64q51 0 51 -60q4 -41 229.5 -41t241.5 41 q20 59 72 60q63 0 53 -64q-10 -59 -50 -96t-108.5 -51t-112.5 -17.5t-118 -3.5q-47 0 -74.5 1t-77 5.5t-78 15.5t-58.5 28.5t-40 47t-4 70.5z" />
<glyph unicode="&#x16e;" horiz-adv-x="1552" d="M293 1188q10 63 92 63h363q25 0 38 -2t25 -17t8 -44q-10 -61 -92 -62h-111l-116 -692q-25 -160 67 -246t226 -86q129 0 251.5 86t149.5 246l117 692h-111q-23 0 -36 2t-26.5 16.5t-9.5 43.5q10 63 93 63h362q25 0 38 -2t25.5 -17t8.5 -44q-10 -61 -92 -62h-111l-119 -704 q-31 -188 -195.5 -316.5t-367.5 -128.5q-199 0 -321.5 127t-92.5 318l119 704h-110q-23 0 -36.5 2t-26.5 16.5t-9 43.5zM819 1411q10 55 85 95t179 40q98 0 162 -40t53.5 -95t-85 -95t-179.5 -40q-98 0 -161.5 40t-53.5 95zM954 1411q-4 -25 24 -42t71 -17q39 0 74.5 16 t39.5 43q4 25 -23.5 42t-70.5 17q-39 0 -75 -16t-40 -43z" />
<glyph unicode="&#x16f;" horiz-adv-x="1193" d="M172 819q10 63 92 64h170q51 0 63.5 -17.5t4.5 -66.5l-92 -551q-2 -33 -3 -63.5t39.5 -51t126.5 -20.5q27 0 55.5 3t71.5 15t77 33.5t62.5 61.5t37.5 96l73 436h-110q-25 0 -38.5 2t-25.5 17.5t-8 43.5q10 61 92 62h170q51 0 63.5 -17.5t4.5 -66.5l-113 -674h111 q25 0 38 -2t25 -17.5t8 -44.5q-10 -61 -92 -61h-170q-27 0 -40 2t-24.5 19.5t-4.5 50.5q-121 -84 -295 -84q-55 0 -98.5 7t-93.5 29.5t-72.5 77t-10.5 134.5l88 522h-110q-23 0 -36 2t-26.5 16t-9.5 43zM547 1142.5q10 55.5 85 95.5t179 40q98 0 161.5 -40t53.5 -95.5 t-85 -95t-179 -39.5q-98 0 -161.5 39.5t-53.5 95zM682 1143q-4 -25 23.5 -42.5t70.5 -17.5q39 0 75 16.5t40 43.5q4 25 -23.5 42t-70.5 17q-39 0 -75 -16t-40 -43z" />
<glyph unicode="&#x170;" horiz-adv-x="1552" d="M293 1188q10 63 92 63h363q25 0 38 -2t25 -17t8 -44q-10 -61 -92 -62h-111l-116 -692q-25 -160 67 -246t226 -86q129 0 251.5 86t149.5 246l117 692h-111q-23 0 -36 2t-26.5 16.5t-9.5 43.5q10 63 93 63h362q25 0 38 -2t25.5 -17t8.5 -44q-10 -61 -92 -62h-111l-119 -704 q-31 -188 -195.5 -316.5t-367.5 -128.5q-199 0 -321.5 127t-92.5 318l119 704h-110q-23 0 -36.5 2t-26.5 16.5t-9 43.5zM725 1415q4 27 45 55l162 115q33 25 57 25q31 0 47.5 -20.5t12.5 -51.5q-6 -33 -50 -63l-161 -115q-33 -23 -52 -23q-27 0 -46 26.5t-15 51.5z M1145 1415q4 27 45 55l162 115q33 25 57 25q31 0 47.5 -20.5t11.5 -51.5q-6 -33 -49 -63l-162 -115q-33 -23 -51 -23q-27 0 -46 26.5t-15 51.5z" />
<glyph unicode="&#x171;" horiz-adv-x="1193" d="M172 819q10 63 92 64h170q51 0 63.5 -17.5t4.5 -66.5l-92 -551q-2 -33 -3 -63.5t39.5 -51t126.5 -20.5q27 0 55.5 3t71.5 15t77 33.5t62.5 61.5t37.5 96l73 436h-110q-25 0 -38.5 2t-25.5 17.5t-8 43.5q10 61 92 62h170q51 0 63.5 -17.5t4.5 -66.5l-113 -674h111 q25 0 38 -2t25 -17.5t8 -44.5q-10 -61 -92 -61h-170q-27 0 -40 2t-24.5 19.5t-4.5 50.5q-121 -84 -295 -84q-55 0 -98.5 7t-93.5 29.5t-72.5 77t-10.5 134.5l88 522h-110q-23 0 -36 2t-26.5 16t-9.5 43zM438 1057q4 27 45 55l162 115q33 25 57 24q31 0 47.5 -20.5 t12.5 -50.5q-6 -33 -49 -64l-162 -115q-33 -23 -51 -22q-27 0 -46.5 26.5t-15.5 51.5zM858 1057q4 27 45 55l162 115q33 25 57 24q31 0 47.5 -20.5t12.5 -50.5q-6 -33 -49 -64l-162 -115q-33 -23 -51 -22q-27 0 -46.5 26.5t-15.5 51.5z" />
<glyph unicode="&#x172;" horiz-adv-x="1552" d="M293 1188q10 63 92 63h363q25 0 38 -2t25 -17t8 -44q-10 -61 -92 -62h-111l-116 -692q-25 -160 67 -246t226 -86q129 0 251.5 86t149.5 246l117 692h-111q-23 0 -36 2t-26.5 16.5t-9.5 43.5q10 63 93 63h362q25 0 38 -2t25.5 -17t8.5 -44q-10 -61 -92 -62h-111l-119 -704 q-31 -184 -189.5 -311t-357.5 -134q-115 -78 -133 -202q-6 -35 19.5 -57.5t56.5 -22.5q29 0 64.5 23.5t58.5 52.5q10 10 38 14t40 -4q10 -10 10 -36t-12 -40q-111 -121 -226 -121q-90 0 -136 60.5t-34 134.5q16 111 148 207q-164 29 -257 149.5t-67 286.5l119 704h-110 q-23 0 -36.5 2t-26.5 16.5t-9 43.5z" />
<glyph unicode="&#x173;" horiz-adv-x="1193" d="M172 819q10 63 92 64h170q51 0 63.5 -17.5t4.5 -66.5l-92 -551q-2 -33 -3 -63.5t39.5 -51t126.5 -20.5q27 0 55.5 3t71.5 15t77 33.5t62.5 61.5t37.5 96l73 436h-110q-25 0 -38.5 2t-25.5 17.5t-8 43.5q10 61 92 62h170q51 0 63.5 -17.5t4.5 -66.5l-113 -674h111 q25 0 38 -2t25 -17.5t8 -44.5q-10 -61 -92 -61h-37q-68 -33 -114.5 -93.5t-57.5 -131.5q-6 -35 19.5 -57.5t56.5 -22.5q29 0 64.5 23.5t58.5 52.5q10 10 37.5 14t40.5 -4q10 -10 10 -36t-12 -40q-111 -121 -226 -121q-90 0 -136 60.5t-34 134.5q20 121 168 221h-8 q-27 0 -40 2t-24.5 19.5t-4.5 50.5q-121 -84 -295 -84q-55 0 -98.5 7t-93.5 29.5t-72.5 77t-10.5 134.5l88 522h-110q-23 0 -36 2t-26.5 16t-9.5 43z" />
<glyph unicode="&#x174;" horiz-adv-x="2150" d="M248 1190q10 61 94 61h276q23 0 37.5 -2t27.5 -17t9 -44q-10 -61 -94 -62h-86l137 -1038l512 1094q23 47 47.5 58t75.5 11q31 0 46.5 -2t31.5 -18.5t20 -48.5l146 -1094l485 1038h-86q-23 0 -36 2t-27.5 16.5t-10.5 43.5q10 63 95 63h276q23 0 37 -2t27.5 -17t9.5 -44 q-10 -61 -94 -62h-70l-502 -1073q-20 -47 -48 -58t-73 -11q-55 0 -73.5 14t-24.5 63l-147 1090l-510 -1092q-25 -51 -49.5 -63t-73.5 -12q-80 0 -96 45l-146 1097h-69q-23 0 -37.5 2t-27.5 17.5t-9 44.5zM1009.5 1390.5q10.5 32.5 47.5 45.5l256 88q18 6 39 0l227 -88 q51 -20 22.5 -75.5t-81.5 -39.5l-211 68l-236 -68q-37 -10 -55.5 13.5t-8 56z" />
<glyph unicode="&#x175;" horiz-adv-x="1552" d="M184 821q10 61 95 62h276q23 0 37 -2t27.5 -17.5t9.5 -44.5q-10 -61 -94 -61h-91l70 -652l307 703q18 41 40 57.5t67 16.5q33 0 51 -12.5t22.5 -24.5t6.5 -35l73 -688l279 635h-90q-23 0 -37 2t-27.5 17.5t-9.5 43.5q10 61 94 62h277q23 0 37 -2t27.5 -17.5t8.5 -44.5 q-10 -61 -94 -61h-67l-308 -697q-20 -47 -45.5 -58t-72.5 -11q-61 0 -76.5 18.5t-20.5 81.5l-32 314l-23 331q-25 -88 -154 -388t-141 -318q-29 -39 -108 -39q-27 0 -39.5 1t-27.5 8t-23.5 22.5t-10.5 42.5l-71 692h-68q-23 0 -37 2t-27.5 17t-9.5 44zM652.5 1006.5 q-23.5 50.5 33.5 83.5l266 153q35 20 62 0l221 -153q45 -33 4 -83.5t-86 -19.5l-188 127l-234 -127q-55 -31 -78.5 19.5z" />
<glyph unicode="&#x176;" horiz-adv-x="1552" d="M260 1190q10 61 94 61h320q23 0 37 -2t27.5 -17t9.5 -44q-10 -61 -95 -62h-47l275 -483l440 483h-47q-23 0 -37 2t-27.5 17.5t-9.5 44.5q10 61 94 61h320q23 0 37 -2t27.5 -17t9.5 -44q-10 -61 -95 -62h-98l-565 -626l-64 -375h111q25 0 38 -2t25.5 -17.5t8.5 -44.5 q-10 -61 -93 -61h-362q-23 0 -36 2t-26.5 16.5t-9.5 42.5q10 63 92 64h111l63 375l-356 626h-98q-23 0 -37 2t-27.5 17.5t-9.5 44.5zM710.5 1390.5q10.5 32.5 47.5 45.5l256 88q18 6 39 0l227 -88q51 -20 22.5 -75.5t-81.5 -39.5l-211 68l-236 -68q-37 -10 -55.5 13.5t-8 56 z" />
<glyph unicode="&#x177;" horiz-adv-x="1134" d="M-8 -299q6 41 34.5 65.5t69.5 24.5q37 0 58.5 -24.5t15.5 -65.5q-2 -8 -6 -18.5t-4 -14.5q-2 -10 28 -10q178 0 281 215q61 121 66 127l-183 758h-84q-23 0 -37 2t-27.5 17.5t-8.5 43.5q10 61 94 62h286q25 0 38.5 -2t25.5 -17.5t8 -44.5q-10 -61 -92 -61h-78l113 -488 l26 -129l304 617h-84q-23 0 -36.5 2t-26.5 16.5t-9 42.5q10 63 92 64h289q25 0 38 -2t25.5 -17.5t8.5 -44.5q-10 -61 -93 -61h-82l-473 -928q-57 -113 -166.5 -205t-238.5 -92q-86 0 -135 50t-37 118zM443.5 1006.5q-23.5 50.5 33.5 83.5l266 153q35 20 62 0l221 -153 q45 -33 4 -83.5t-86 -19.5l-188 127l-234 -127q-55 -31 -78.5 19.5z" />
<glyph unicode="&#x178;" horiz-adv-x="1552" d="M260 1190q10 61 94 61h320q23 0 37 -2t27.5 -17t9.5 -44q-10 -61 -95 -62h-47l275 -483l440 483h-47q-23 0 -37 2t-27.5 17.5t-9.5 44.5q10 61 94 61h320q23 0 37 -2t27.5 -17t9.5 -44q-10 -61 -95 -62h-98l-565 -626l-64 -375h111q25 0 38 -2t25.5 -17.5t8.5 -44.5 q-10 -61 -93 -61h-362q-23 0 -36 2t-26.5 16.5t-9.5 42.5q10 63 92 64h111l63 375l-356 626h-98q-23 0 -37 2t-27.5 17.5t-9.5 44.5zM719 1409q4 35 35.5 63.5t72.5 28.5q39 0 61.5 -27.5t16.5 -64.5t-37.5 -64.5t-72.5 -27.5q-37 0 -60.5 27.5t-15.5 64.5zM1122 1409 q4 35 36 63.5t73 28.5q39 0 61.5 -27.5t16.5 -64.5t-38 -64.5t-73 -27.5q-37 0 -60.5 27.5t-15.5 64.5z" />
<glyph unicode="&#x179;" horiz-adv-x="1314" d="M131 70q4 35 35 63l1018 993h-705l-18 -108q-4 -27 -9.5 -41t-24.5 -28.5t-52 -14.5q-45 0 -55.5 27.5t-0.5 56.5l25 149q10 51 28.5 67.5t69.5 16.5h877q27 0 40 -2t25.5 -18.5t6.5 -48.5q-4 -35 -35 -64l-1018 -993h747l25 147q6 29 10 42.5t23.5 27.5t52.5 14 q45 0 55.5 -27.5t-0.5 -56.5l-30 -188q-8 -49 -27.5 -66.5t-69.5 -17.5h-921q-27 0 -40 2t-25.5 18.5t-6.5 49.5zM676 1419q6 37 61 60l293 123l41 10q31 0 48.5 -20.5t10.5 -51.5q-8 -45 -69 -72l-291 -120q-25 -10 -39 -11q-35 0 -46 29.5t-9 52.5z" />
<glyph unicode="&#x17a;" horiz-adv-x="956" d="M72 72q6 31 12 41l700 645h-426l-10 -53q-4 -29 -8 -42.5t-23.5 -27.5t-52.5 -14q-47 0 -55 21.5t-2 62.5l16 94q10 51 28.5 67.5t70.5 16.5h600q27 0 41 -2t25 -19.5t5 -50.5q-6 -31 -12 -41l-700 -645h462l15 78q4 29 8 42t23.5 27.5t52.5 14.5q47 0 55 -21.5t2 -62.5 l-20 -119q-8 -49 -28 -66.5t-69 -17.5h-639q-27 0 -41 2t-25 19.5t-5 50.5zM438 1059q6 37 62 59l293 123l41 10q31 0 47 -20.5t12 -50.5q-8 -45 -70 -72l-293 -121q-20 -10 -36 -10q-35 0 -46.5 29.5t-9.5 52.5z" />
<glyph unicode="&#x17b;" horiz-adv-x="1314" d="M131 70q4 35 35 63l1018 993h-705l-18 -108q-4 -27 -9.5 -41t-24.5 -28.5t-52 -14.5q-45 0 -55.5 27.5t-0.5 56.5l25 149q10 51 28.5 67.5t69.5 16.5h877q27 0 40 -2t25.5 -18.5t6.5 -48.5q-4 -35 -35 -64l-1018 -993h747l25 147q6 29 10 42.5t23.5 27.5t52.5 14 q45 0 55.5 -27.5t-0.5 -56.5l-30 -188q-8 -49 -27.5 -66.5t-69.5 -17.5h-921q-27 0 -40 2t-25.5 18.5t-6.5 49.5zM793 1442q8 41 42.5 71.5t79.5 30.5q41 0 67 -30.5t17 -71.5q-6 -41 -40.5 -72t-79.5 -31q-41 0 -66.5 31t-19.5 72z" />
<glyph unicode="&#x17c;" horiz-adv-x="956" d="M72 72q6 31 12 41l700 645h-426l-10 -53q-4 -29 -8 -42.5t-23.5 -27.5t-52.5 -14q-47 0 -55 21.5t-2 62.5l16 94q10 51 28.5 67.5t70.5 16.5h600q27 0 41 -2t25 -19.5t5 -50.5q-6 -31 -12 -41l-700 -645h462l15 78q4 29 8 42t23.5 27.5t52.5 14.5q47 0 55 -21.5t2 -62.5 l-20 -119q-8 -49 -28 -66.5t-69 -17.5h-639q-27 0 -41 2t-25 19.5t-5 50.5zM561 1114q6 41 41 72t80 31q41 0 66.5 -31t19.5 -72t-42 -71.5t-81 -30.5q-41 0 -66.5 30.5t-17.5 71.5z" />
<glyph unicode="&#x17d;" horiz-adv-x="1314" d="M131 70q4 35 35 63l1018 993h-705l-18 -108q-4 -27 -9.5 -41t-24.5 -28.5t-52 -14.5q-45 0 -55.5 27.5t-0.5 56.5l25 149q10 51 28.5 67.5t69.5 16.5h877q27 0 40 -2t25.5 -18.5t6.5 -48.5q-4 -35 -35 -64l-1018 -993h747l25 147q6 29 10 42.5t23.5 27.5t52.5 14 q45 0 55.5 -27.5t-0.5 -56.5l-30 -188q-8 -49 -27.5 -66.5t-69.5 -17.5h-921q-27 0 -40 2t-25.5 18.5t-6.5 49.5zM607.5 1485q27.5 55 80.5 39l211 -68l236 68q37 10 56 -13.5t9 -56.5t-47 -45l-258 -88q-18 -6 -39 0l-225 88q-51 21 -23.5 76z" />
<glyph unicode="&#x17e;" horiz-adv-x="956" d="M72 72q6 31 12 41l700 645h-426l-10 -53q-4 -29 -8 -42.5t-23.5 -27.5t-52.5 -14q-47 0 -55 21.5t-2 62.5l16 94q10 51 28.5 67.5t70.5 16.5h600q27 0 41 -2t25 -19.5t5 -50.5q-6 -31 -12 -41l-700 -645h462l15 78q4 29 8 42t23.5 27.5t52.5 14.5q47 0 55 -21.5t2 -62.5 l-20 -119q-8 -49 -28 -66.5t-69 -17.5h-639q-27 0 -41 2t-25 19.5t-5 50.5zM389 1221.5q39 50.5 86 19.5l191 -127l231 127q55 31 78.5 -19.5t-31.5 -82.5l-268 -154q-35 -20 -62 0l-219 154q-45 32 -6 82.5z" />
<glyph unicode="&#x17f;" horiz-adv-x="657" d="M45 61q10 63 92 64h111l106 633h-88q-23 0 -36 2t-26.5 16.5t-8.5 42.5q10 63 94 64h86l18 108q20 127 127 200t238 73q25 0 45 -2t59 -12.5t57.5 -38t12.5 -70.5q-8 -41 -39 -65.5t-64 -24.5q-45 0 -62 35.5t-13 52.5q-195 0 -222 -160l-143 -854h160q25 0 38 -2 t25.5 -17.5t8.5 -44.5q-10 -61 -93 -61h-411q-23 0 -36 2t-26.5 16t-9.5 43z" />
<glyph unicode="&#x18e;" horiz-adv-x="1433" d="M109 84l30 182q4 27 9.5 41.5t23.5 28.5t51 14q47 0 57.5 -26.5t0.5 -57.5l-25 -141h803l78 461h-408q-8 -49 -14 -69.5t-24.5 -34t-53.5 -13.5q-45 0 -55.5 27.5t0.5 56.5l32 190q4 27 8.5 41.5t23 28.5t50.5 14q49 0 58.5 -26.5t-4.5 -89.5h407l70 415h-744l-18 -108 q-4 -27 -9 -41t-23.5 -28.5t-51.5 -14.5q-47 0 -57.5 26.5t0.5 57.5l24 149q8 49 26.5 66.5t69.5 17.5h1055q25 0 38 -2t25.5 -17t8.5 -44q-10 -61 -92 -62h-111l-168 -1001h111q25 0 38 -2t25 -17.5t8 -44.5q-10 -61 -92 -61h-1114q-49 0 -63 17.5t-4 66.5z" />
<glyph unicode="&#x192;" horiz-adv-x="657" d="M45 61q10 63 92 64h111l106 633h-88q-23 0 -36 2t-26.5 16.5t-8.5 42.5q10 63 94 64h86l18 108q20 127 127 200t238 73q25 0 45 -2t59 -12.5t57.5 -38t12.5 -70.5q-8 -41 -39 -65.5t-64 -24.5q-45 0 -62 35.5t-13 52.5q-195 0 -222 -160l-16 -96h166q25 0 38 -2 t25.5 -17.5t8.5 -44.5q-10 -61 -92 -61h-166l-107 -633h160q25 0 38 -2t25.5 -17.5t8.5 -44.5q-10 -61 -93 -61h-411q-23 0 -36 2t-26.5 16t-9.5 43z" />
<glyph unicode="&#x1a0;" horiz-adv-x="1671" d="M223.5 625q20.5 129 96 248.5t188.5 209.5q244 190 539 191q168 0 305 -66q20 16 45 17q29 0 51 32q-59 23 -49 97q6 41 41 70.5t80 31.5q53 -2 69.5 -43t7.5 -96q-20 -131 -122 -189q33 -29 45 -45q178 -184 133 -458q-45 -268 -285 -457q-240 -190 -539 -191 q-293 0 -473 191q-84 88 -118.5 208t-14 249zM371 651q-37 -225 102 -389q143 -160 377 -160q238 0 432.5 160t233.5 389q35 203 -109 353q-145 145 -380.5 145t-428.5 -145q-192 -144 -227 -353z" />
<glyph unicode="&#x1a1;" d="M152 440q33 190 186 324q158 135 346 135q115 0 209 -53q14 10 35 10q29 0 51 33q-59 23 -49 94q6 41 40 70.5t79 31.5q55 0 72.5 -40.5t6.5 -96.5q-10 -61 -45.5 -114.5t-87.5 -79.5q100 -129 72 -314q-33 -188 -188 -319q-160 -133 -347 -133q-188 0 -301 133 q-112 135 -79 319zM295 459q-23 -143 53 -244q74 -100 205 -100t241.5 100t133.5 244q23 129 -56 223q-82 92 -208 92q-129 0 -238 -92q-108 -96 -131 -223z" />
<glyph unicode="&#x1af;" horiz-adv-x="1552" d="M291 1184l2 10q4 23 23.5 40t43.5 17h412q25 0 38 -17t9 -40l-2 -10q-2 -25 -21.5 -41.5t-43.5 -16.5h-136l-118 -708q-23 -129 63 -221q84 -94 229.5 -94.5t262.5 94.5q115 90 137 221l119 708h-135q-25 0 -39.5 16.5t-10.5 41.5l2 10q4 23 23.5 40t44.5 17h219 q16 0 31 -10q20 8 35 21q-49 29 -39 92q6 41 41 70.5t80 31.5q51 -2 68.5 -43t8.5 -94q-10 -70 -64 -125t-126 -76l-117 -700q-31 -186 -196 -314q-162 -127 -365 -127t-319 127q-125 129 -95 314l119 708h-135q-25 0 -39 16.5t-10 41.5z" />
<glyph unicode="&#x1b0;" horiz-adv-x="1193" d="M168 813l2 10q4 25 24.5 41.5t45.5 16.5h219q23 0 37 -16.5t10 -41.5l-100 -598q-8 -55 22 -80q43 -31 156 -30q109 0 191.5 53t94.5 131l78 457h-135q-23 0 -38 17.5t-11 39.5l2 10q4 25 24.5 41.5t43.5 16.5h219q16 0 32 -11q16 6 45 23q-49 29 -38 90q6 41 39.5 71.5 t78.5 30.5q53 0 70.5 -40.5t9.5 -94.5q-12 -74 -67.5 -128t-132.5 -74l-105 -623h135q23 0 37 -16.5t12 -40.5l-2 -11q-4 -23 -24.5 -40t-42.5 -17h-221q-23 0 -37.5 17.5t-10.5 39.5l3 15q-125 -84 -283 -84q-154 0 -227 53q-80 61 -60 184l90 531h-135q-25 0 -40 17 t-11 40z" />
<glyph unicode="&#x1dd;" horiz-adv-x="956" d="M147 422q6 35 22.5 52.5t31 20.5t43.5 3h590q-2 123 -83 200.5t-200 77.5q-154 0 -225 -123q-23 -45 -74 -45q-14 0 -25.5 2t-27 15.5t-11.5 40.5q12 63 119 149t277 86q193 0 305 -134t80 -325q-31 -186 -178.5 -320t-327.5 -134q-182 0 -264.5 122t-51.5 312zM287 375 q-14 -143 45 -202.5t151 -59.5q102 0 194.5 73.5t133.5 188.5h-524z" />
<glyph unicode="&#x1e6;" horiz-adv-x="1673" d="M223 627q43 262 282.5 454.5t543.5 192.5q272 0 411 -127q41 63 51 76q31 51 72 51q63 0 47 -84l-47 -285q-6 -29 -10 -42t-23.5 -27.5t-52.5 -14.5q-57 0 -59 47q-2 29 -4 38t-9.5 39t-18.5 47.5t-34.5 42t-54.5 44.5q-109 70 -275 70q-248 0 -445.5 -154.5t-232 -369.5 t109.5 -369t384 -154q166 0 305.5 91.5t192.5 234.5h-180q-25 0 -38.5 2t-25.5 17.5t-8 44.5q10 61 92 61h393q25 0 38 -2t26.5 -17.5t9.5 -44.5q-10 -61 -94 -61h-66l-57 -344q-4 -27 -9 -41t-23.5 -28.5t-51.5 -14.5q-47 0 -57.5 26.5t0.5 57.5l12 74q-211 -180 -490 -181 q-295 0 -472 191t-132 459zM787.5 1485q27.5 55 80.5 39l211 -68l236 68q37 10 56.5 -13.5t9 -56.5t-47.5 -45l-258 -88q-20 -6 -39 0l-225 88q-51 21 -23.5 76z" />
<glyph unicode="&#x1e7;" d="M31 -168q31 164 194 254q-37 63 -22 147q12 78 63 140q-51 86 -33 194q23 133 137.5 230.5t256.5 97.5q111 0 188 -61q111 72 229 71q76 0 108 -33.5t24 -76.5q-6 -41 -36 -62.5t-61 -21.5q-23 0 -44 16t-23 53q-68 -4 -125 -35q37 -88 22 -178q-23 -137 -137.5 -233 t-255.5 -96q-63 0 -113.5 20.5t-60.5 30.5q-14 -23 -23 -58v-26q0 -29 13 -47q20 -29 63 -29q14 -4 58 -4h143q193 0 287 -59q66 -39 89 -103.5t13 -130.5q-20 -129 -174 -215t-352.5 -86t-323 85t-104.5 216zM150 -168q-10 -70 85 -124t244.5 -54t263 54t123.5 124 q8 43 -3 75t-44 50t-63.5 29.5t-87 15.5t-90 5t-95.5 1q-117 0 -150.5 -4t-74.5 -29q-94 -53 -108 -143zM375 565q-14 -82 33 -143.5t129 -61.5q80 0 148.5 60.5t82.5 146.5q14 82 -33 143.5t-129 61.5q-80 0 -148.5 -60.5t-82.5 -146.5zM375 1221.5q39 50.5 86 19.5 l190 -127l232 127q55 31 78.5 -19.5t-31.5 -82.5l-268 -154q-35 -20 -62 0l-219 154q-45 32 -6 82.5z" />
<glyph unicode="&#x1ea;" horiz-adv-x="1673" d="M223 627q43 262 284 454.5t542 192.5q299 0 476 -190.5t132 -458.5q-41 -246 -258 -433.5t-500 -211.5q-117 -76 -135 -205q-6 -35 19.5 -57.5t56.5 -22.5q29 0 64.5 23.5t58.5 52.5q10 10 37.5 14t39.5 -4q10 -10 10.5 -36t-12.5 -40q-111 -121 -225 -121 q-90 0 -136 60.5t-34 134.5q16 102 137 201q-279 16 -439.5 203.5t-117.5 443.5zM369 649q-37 -223 103 -385t380 -162t435.5 162t232.5 385q35 205 -108.5 352.5t-383.5 147.5t-432 -147.5t-227 -352.5z" />
<glyph unicode="&#x1eb;" d="M152 442q31 188 187.5 323.5t347 135.5t302 -135t80.5 -324q-29 -174 -166 -302t-313 -148q-131 -76 -154 -217q-6 -35 19.5 -57.5t56.5 -22.5q29 0 64.5 23.5t58.5 52.5q10 10 37.5 14t40.5 -4q10 -10 10 -36t-12 -40q-111 -121 -226 -121q-90 0 -136 60.5t-34 134.5 q18 113 156 213q-164 23 -256 150.5t-63 299.5zM295 457q-23 -141 52 -242.5t208 -101.5q131 0 241.5 101t133.5 243q23 135 -56 227t-208 92t-238.5 -92t-132.5 -227z" />
<glyph unicode="&#x1f4;" horiz-adv-x="1673" d="M223 627q43 262 282.5 454.5t543.5 192.5q272 0 411 -127q41 63 51 76q31 51 72 51q63 0 47 -84l-47 -285q-6 -29 -10 -42t-23.5 -27.5t-52.5 -14.5q-57 0 -59 47q-2 29 -4 38t-9.5 39t-18.5 47.5t-34.5 42t-54.5 44.5q-109 70 -275 70q-248 0 -445.5 -154.5t-232 -369.5 t109.5 -369t384 -154q166 0 305.5 91.5t192.5 234.5h-180q-25 0 -38.5 2t-25.5 17.5t-8 44.5q10 61 92 61h393q25 0 38 -2t26.5 -17.5t9.5 -44.5q-10 -61 -94 -61h-66l-57 -344q-4 -27 -9 -41t-23.5 -28.5t-51.5 -14.5q-47 0 -57.5 26.5t0.5 57.5l12 74q-211 -180 -490 -181 q-295 0 -472 191t-132 459zM856 1419q6 37 62 60l292 123l41 10q31 0 48.5 -20.5t11.5 -51.5q-8 -45 -70 -72l-291 -120q-25 -10 -39 -11q-35 0 -46 29.5t-9 52.5z" />
<glyph unicode="&#x1f5;" d="M31 -168q31 164 194 254q-37 63 -22 147q12 78 63 140q-51 86 -33 194q23 133 137.5 230.5t256.5 97.5q111 0 188 -61q111 72 229 71q76 0 108 -33.5t24 -76.5q-6 -41 -36 -62.5t-61 -21.5q-23 0 -44 16t-23 53q-68 -4 -125 -35q37 -88 22 -178q-23 -137 -137.5 -233 t-255.5 -96q-63 0 -113.5 20.5t-60.5 30.5q-14 -23 -23 -58v-26q0 -29 13 -47q20 -29 63 -29q14 -4 58 -4h143q193 0 287 -59q66 -39 89 -103.5t13 -130.5q-20 -129 -174 -215t-352.5 -86t-323 85t-104.5 216zM150 -168q-10 -70 85 -124t244.5 -54t263 54t123.5 124 q8 43 -3 75t-44 50t-63.5 29.5t-87 15.5t-90 5t-95.5 1q-117 0 -150.5 -4t-74.5 -29q-94 -53 -108 -143zM375 565q-14 -82 33 -143.5t129 -61.5q80 0 148.5 60.5t82.5 146.5q14 82 -33 143.5t-129 61.5q-80 0 -148.5 -60.5t-82.5 -146.5zM424 1059q6 37 61 59l293 123l41 10 q31 0 47.5 -20.5t12.5 -50.5q-8 -45 -70 -72l-293 -121q-20 -10 -37 -10q-35 0 -46 29.5t-9 52.5z" />
<glyph unicode="&#x1fa;" horiz-adv-x="1552" d="M94 63q10 61 92 62h95l567 1083q16 31 39.5 47.5t39 18.5t42.5 2h39q29 0 43 -2t30.5 -18.5t22.5 -49.5l207 -1081h94q25 0 38 -2t25.5 -17.5t8.5 -44.5q-10 -61 -93 -61h-325q-23 0 -37 2t-27.5 17.5t-9.5 43.5q10 61 94 62h82l-43 227h-567l-121 -227h82q23 0 37 -2 t27.5 -17.5t9.5 -44.5q-10 -61 -94 -61h-326q-25 0 -38 2t-25.5 17t-8.5 44zM616 477h478l-129 668zM772 1411q10 55 85 95t179 40q98 0 162 -40t53.5 -95t-85 -95t-179.5 -40q-98 0 -161.5 40t-53.5 95zM838 1669q6 37 61 60l293 122l39 11q31 0 48 -20.5t13 -51.5 q-8 -45 -69 -72l-293 -121q-25 -10 -39 -10q-35 0 -47 31t-6 51zM907 1411q-4 -25 23.5 -42t70.5 -17q39 0 75 16t40 43q4 25 -23.5 42t-70.5 17q-39 0 -75 -16t-40 -43z" />
<glyph unicode="&#x1fb;" horiz-adv-x="1044" d="M152 262q25 139 196.5 220t450.5 85q18 104 -41.5 156.5t-175.5 52.5q-51 0 -76 -2t-30 -6t-9 -16q-10 -49 -41 -72t-64 -23q-39 0 -62.5 25t-14.5 70q25 150 315 149q197 0 281 -95t63 -222l-74 -443q33 -16 111 -16q23 0 36 -2t26.5 -16.5t9.5 -43.5q-4 -31 -22.5 -45 t-36 -16t-52.5 -2q-168 0 -205 66q-125 -78 -303 -78q-143 0 -221.5 80.5t-60.5 193.5zM293 262q-10 -61 39 -105t139 -44q100 0 178 32q41 16 63.5 41t27.5 42.5t10 45.5l28 172q-227 -8 -349 -59t-136 -125zM473 1142.5q10 55.5 85 95.5t179 40q98 0 162 -40t53.5 -95.5 t-85 -95t-179.5 -39.5q-98 0 -161.5 39.5t-53.5 95zM539 1372.5q-2 16.5 0 28.5q6 37 61 59l293 123l41 10q31 0 47 -20.5t12 -50.5q-8 -45 -69 -72l-293 -121q-20 -10 -39 -10q-25 0 -38 18.5t-15 35zM608 1143q-4 -25 23.5 -42.5t70.5 -17.5q39 0 75 16.5t40 43.5 q4 25 -23.5 42t-70.5 17q-39 0 -75 -16t-40 -43z" />
<glyph unicode="&#x1fc;" horiz-adv-x="1910" d="M100 63q10 61 95 62h96l606 1001h-35q-23 0 -36 2t-27.5 16.5t-10.5 43.5q10 63 95 63h1034q51 0 63.5 -17t4.5 -67l-25 -149q-4 -27 -9 -41t-24.5 -28.5t-52.5 -14.5q-45 0 -55.5 27.5t0.5 56.5l18 108h-547l-69 -415h301q6 41 10 55t13 32.5t24.5 23.5t42.5 5 q47 0 55 -21.5t2 -62.5l-33 -190q-4 -27 -9 -41t-23.5 -28.5t-51.5 -14.5q-49 0 -57 26.5t6 90.5h-301l-78 -461h607l24 141q4 27 9 41.5t24.5 28.5t52.5 14q45 0 55.5 -27.5t-0.5 -56.5l-30 -182q-8 -49 -27.5 -66.5t-69.5 -17.5h-868q-23 0 -37 2t-27.5 16.5t-9.5 42.5 q10 63 95 64h61l43 250h-428l-152 -250h76q25 0 38 -2t25.5 -17.5t8.5 -44.5q-10 -61 -92 -61h-326q-25 0 -38 2t-26.5 17t-9.5 44zM672 500h372l105 626h-96zM975 1419q6 37 61 60l293 123l41 10q31 0 48.5 -20.5t11.5 -51.5q-8 -45 -70 -72l-291 -120q-25 -10 -39 -11 q-35 0 -46 29.5t-9 52.5z" />
<glyph unicode="&#x1fd;" horiz-adv-x="1552" d="M150 242q41 250 641 268l10 61q14 100 -42.5 152.5t-176.5 52.5q-47 0 -78 -2q-23 -2 -28 -6t-9 -16q-10 -49 -42 -72t-63 -23q-39 0 -62.5 25t-14.5 70q25 150 315 149q250 0 326 -164q164 164 352 164q170 0 245.5 -121t45.5 -311q-6 -37 -21.5 -54.5t-30 -20.5 t-42.5 -3h-560q-2 -123 79 -200.5t196 -77.5q131 0 201 123q25 45 75 45q14 0 25.5 -2.5t26 -15.5t10.5 -40q-10 -61 -112.5 -148t-258.5 -87q-209 0 -321 162q-59 -92 -176 -127t-226 -35q-147 0 -224.5 76t-59.5 178zM291 244q-10 -55 41 -93t141 -38q96 0 178 30 q96 35 107 117q0 6 14 127q-186 -8 -280 -29q-191 -51 -201 -114zM737 1059q6 37 62 59l293 123l41 10q31 0 47 -20.5t12 -50.5q-8 -45 -70 -72l-293 -121q-20 -10 -36 -10q-35 0 -46.5 29.5t-9.5 52.5zM938 514h496q10 113 -32 187.5t-145 74.5q-94 0 -186 -72.5 t-133 -189.5z" />
<glyph unicode="&#x1fe;" horiz-adv-x="1673" d="M221 -111q2 18 41 62l150 166q-125 104 -168 239.5t-21 270.5q43 262 284 454.5t542 192.5q45 0 90 -5t76.5 -13.5t63.5 -18.5t49.5 -17.5t31.5 -15.5l14 -6l164 188q33 39 66 39q25 0 42 -17t13 -46l-8 -16q-6 -16 -23 -35l-160 -176q125 -104 168 -239.5t21 -270.5 q-43 -262 -283.5 -455t-542.5 -193q-190 0 -323 76l-170 -192q-33 -35 -62 -35q-25 0 -42 17t-13 46zM338 625q-23 -127 24.5 -234.5t135.5 -175.5l782 883q-129 51 -252 51q-252 0 -453.5 -154.5t-236.5 -369.5zM600 154q129 -51 252 -52q252 0 453.5 155t236.5 370 q23 129 -25.5 237.5t-136.5 171.5zM856 1419q6 37 62 60l292 123l41 10q31 0 48.5 -20.5t11.5 -51.5q-8 -45 -70 -72l-291 -120q-25 -10 -39 -11q-35 0 -46 29.5t-9 52.5z" />
<glyph unicode="&#x1ff;" d="M51 -225q2 18 47 78l174 233q-143 145 -106 356q31 188 183.5 323.5t336.5 135.5q88 0 168 -37l199 266q31 39 61 39q23 0 42.5 -16t12.5 -45q0 -16 -20 -43l-199 -266q139 -147 105 -357q-33 -188 -185.5 -321t-334.5 -133q-92 0 -164 35l-203 -271q-29 -39 -62 -39 q-23 0 -42 16.5t-13 45.5zM281 442q-25 -143 71 -249l422 565q-49 18 -108 18q-135 0 -248.5 -98.5t-136.5 -235.5zM453 129q49 -16 102 -16q135 0 249 96t136 233q25 150 -72 250zM487 1059q6 37 62 59l293 123l41 10q31 0 47 -20.5t12 -50.5q-8 -45 -70 -72l-292 -121 q-20 -10 -37 -10q-35 0 -46.5 29.5t-9.5 52.5z" />
<glyph unicode="&#x200;" horiz-adv-x="1552" d="M94 63q10 61 92 62h95l567 1083q16 31 39.5 47.5t39 18.5t42.5 2h39q29 0 43 -2t30.5 -18.5t22.5 -49.5l207 -1081h94q25 0 38 -2t25.5 -17.5t8.5 -44.5q-10 -61 -93 -61h-325q-23 0 -37 2t-27.5 17.5t-9.5 43.5q10 61 94 62h82l-43 227h-567l-121 -227h82q23 0 37 -2 t27.5 -17.5t9.5 -44.5q-10 -61 -94 -61h-326q-25 0 -38 2t-25.5 17t-8.5 44zM586 1538q4 31 28.5 51.5t55.5 20.5q23 0 49 -25l125 -115q29 -29 24 -55q-4 -23 -31.5 -50.5t-54.5 -27.5q-20 0 -43 23l-125 115q-34 30 -28 63zM616 477h478l-129 668zM1006 1538 q4 31 28.5 51.5t55.5 20.5q23 0 49 -25l125 -115q29 -29 24 -55q-4 -23 -31.5 -50.5t-54.5 -27.5q-20 0 -43 23l-125 115q-34 30 -28 63z" />
<glyph unicode="&#x201;" horiz-adv-x="1044" d="M152 262q25 139 196.5 220t450.5 85q18 104 -41.5 156.5t-175.5 52.5q-51 0 -76 -2t-30 -6t-9 -16q-10 -49 -41 -72t-64 -23q-39 0 -62.5 25t-14.5 70q25 150 315 149q197 0 281 -95t63 -222l-74 -443q33 -16 111 -16q23 0 36 -2t26.5 -16.5t9.5 -43.5q-4 -31 -22.5 -45 t-36 -16t-52.5 -2q-168 0 -205 66q-125 -78 -303 -78q-143 0 -221.5 80.5t-60.5 193.5zM293 262q-10 -61 39 -105t139 -44q100 0 178 32q41 16 63.5 41t27.5 42.5t10 45.5l28 172q-227 -8 -349 -59t-136 -125zM332 1180q4 31 28.5 51t55.5 20q23 0 49 -24l125 -115 q29 -29 24 -55q-4 -23 -31.5 -50.5t-54.5 -27.5q-20 0 -43 22l-125 115q-34 31 -28 64zM752 1180q4 31 28.5 51t55.5 20q23 0 49 -24l125 -115q29 -29 24 -55q-4 -23 -31.5 -50.5t-54.5 -27.5q-20 0 -43 22l-125 115q-34 31 -28 64z" />
<glyph unicode="&#x204;" horiz-adv-x="1433" d="M104 61q10 63 93 64h110l168 1001h-110q-23 0 -36.5 2t-26.5 16.5t-9 43.5q10 63 92 63h1055q51 0 63.5 -17t3.5 -67l-24 -149q-4 -27 -9.5 -41t-24.5 -28.5t-52 -14.5q-45 0 -55.5 27.5t-0.5 56.5l19 108h-744l-69 -415h407q6 41 10.5 55t13.5 32.5t24.5 23.5t41.5 5 q47 0 55.5 -21.5t2.5 -62.5l-33 -190q-4 -27 -9 -41t-23.5 -28.5t-51.5 -14.5q-49 0 -57 26.5t6 90.5h-408l-77 -461h802l25 141q4 27 9 41.5t24.5 28.5t52.5 14q45 0 55 -27.5t0 -56.5l-31 -182q-8 -49 -27.5 -66.5t-68.5 -17.5h-1114q-23 0 -36 2t-26.5 16t-9.5 43z M586 1538q4 31 28.5 51.5t55.5 20.5q23 0 49 -25l125 -115q29 -29 24 -55q-4 -23 -31.5 -50.5t-54.5 -27.5q-20 0 -43 23l-125 115q-34 30 -28 63zM1006 1538q4 31 28.5 51.5t55.5 20.5q23 0 49 -25l125 -115q29 -29 24 -55q-4 -23 -31.5 -50.5t-54.5 -27.5q-20 0 -43 23 l-125 115q-34 30 -28 63z" />
<glyph unicode="&#x205;" horiz-adv-x="956" d="M152 446q31 186 178 320.5t327 134.5q182 0 265.5 -122t50.5 -312q-6 -35 -21.5 -52.5t-30 -20.5t-42.5 -3h-590q0 -123 81 -200.5t199 -77.5q154 0 226 123q25 45 75 45q14 0 25.5 -2.5t26 -15.5t10.5 -40q-10 -63 -117.5 -149t-277.5 -86q-193 0 -304.5 134t-80.5 324z M287 1180q4 31 28.5 51t55.5 20q23 0 49 -24l125 -115q29 -29 24 -55q-4 -23 -31.5 -50.5t-54.5 -27.5q-20 0 -43 22l-125 115q-34 31 -28 64zM311 514h525q12 143 -47.5 202.5t-151.5 59.5q-102 0 -194.5 -73.5t-131.5 -188.5zM707 1180q4 31 28.5 51t55.5 20q23 0 49 -24 l125 -115q29 -29 24 -55q-4 -23 -31.5 -50.5t-54.5 -27.5q-20 0 -43 22l-125 115q-34 31 -28 64z" />
<glyph unicode="&#x208;" horiz-adv-x="716" d="M94 61q10 63 92 64h121l168 1001h-121q-23 0 -36 2t-26 16.5t-9 43.5q10 63 92 63h383q25 0 38 -2t25.5 -17t7.5 -44q-10 -61 -92 -62h-121l-167 -1001h120q25 0 38.5 -2t25.5 -17.5t8 -44.5q-10 -61 -92 -61h-383q-23 0 -36 2t-26.5 16t-9.5 43zM227 1538q4 31 29 51.5 t55 20.5q23 0 49 -25l125 -115q29 -29 25 -55q-4 -23 -31.5 -50.5t-54.5 -27.5q-20 0 -43 23l-125 115q-35 30 -29 63zM647 1538q4 31 28.5 51.5t55.5 20.5q23 0 49 -25l125 -115q29 -29 25 -55q-4 -23 -32 -50.5t-54 -27.5q-20 0 -43 23l-125 115q-35 30 -29 63z" />
<glyph unicode="&#x209;" horiz-adv-x="598" d="M45 61q10 63 92 64h111l106 633h-100q-23 0 -37 2t-27.5 17.5t-9.5 43.5q10 61 94 62h160q51 0 63.5 -17.5t4.5 -66.5l-113 -674h90q25 0 38 -2t26.5 -17.5t9.5 -44.5q-10 -61 -92 -61h-344q-23 0 -36 2t-26.5 16t-9.5 43zM106 1180q4 31 29 51t55 20q23 0 50 -24 l125 -115q29 -29 24 -55q-4 -23 -31.5 -50.5t-54.5 -27.5q-20 0 -43 22l-125 115q-35 31 -29 64zM526 1180q4 31 29 51t55 20q23 0 49 -24l125 -115q29 -29 25 -55q-4 -23 -31.5 -50.5t-54.5 -27.5q-20 0 -43 22l-125 115q-35 31 -29 64z" />
<glyph unicode="&#x20c;" horiz-adv-x="1673" d="M223 627q43 262 284 454.5t542 192.5q299 0 476 -190.5t132 -458.5q-43 -262 -283.5 -455t-542.5 -193q-299 0 -476 191t-132 459zM369 649q-37 -223 103 -385t380 -162t435.5 162t232.5 385q35 205 -108.5 352.5t-383.5 147.5t-432 -147.5t-227 -352.5zM705 1538 q4 31 28.5 51.5t54.5 20.5q23 0 50 -25l125 -115q29 -29 24 -55q-4 -23 -31.5 -50.5t-54.5 -27.5q-20 0 -43 23l-125 115q-34 30 -28 63zM1124 1538q4 31 29 51.5t55 20.5q23 0 49 -25l125 -115q29 -29 25 -55q-4 -23 -31.5 -50.5t-54.5 -27.5q-20 0 -43 23l-125 115 q-35 30 -29 63z" />
<glyph unicode="&#x20d;" d="M152 442q31 188 187.5 323.5t347 135.5t302 -135t80.5 -324q-33 -190 -188.5 -322t-346 -132t-303 132t-79.5 322zM295 457q-23 -141 52 -242.5t208 -101.5q131 0 241.5 101t133.5 243q23 135 -56 227t-208 92t-238.5 -92t-132.5 -227zM346 1180q4 31 28.5 51t55.5 20 q23 0 49 -24l125 -115q29 -29 25 -55q-4 -23 -32 -50.5t-54 -27.5q-20 0 -43 22l-125 115q-35 31 -29 64zM766 1180q4 31 28.5 51t55.5 20q23 0 49 -24l125 -115q29 -29 25 -55q-4 -23 -32 -50.5t-54 -27.5q-20 0 -43 22l-125 115q-35 31 -29 64z" />
<glyph unicode="&#x210;" horiz-adv-x="1552" d="M104 61q10 63 93 64h110l168 1001h-110q-23 0 -36.5 2t-26.5 16.5t-9 43.5q10 63 92 63h549q225 0 374.5 -100t125.5 -244q-14 -84 -89 -157.5t-194 -120.5q70 -39 100 -94q23 -43 23 -78t-17 -127q-25 -94 -13.5 -161t85.5 -67q82 0 107 93q16 61 80 61q16 0 28 -2 t24.5 -17.5t8.5 -43.5q-14 -80 -90 -148t-178 -68q-131 0 -183 93q-29 51 -29.5 107t17.5 145q18 90 11 125.5t-60 68.5q-86 47 -250 47h-293l-73 -438h110q25 0 38 -2t25.5 -17.5t8.5 -44.5q-10 -61 -92 -61h-363q-23 0 -36 2t-26.5 16t-9.5 43zM543 688h278 q170 0 312.5 62.5t158.5 156.5q14 94 -106.5 156.5t-290.5 62.5h-279zM586 1538q4 31 28.5 51.5t55.5 20.5q23 0 49 -25l125 -115q29 -29 24 -55q-4 -23 -31.5 -50.5t-54.5 -27.5q-20 0 -43 23l-125 115q-34 30 -28 63zM1006 1538q4 31 28.5 51.5t55.5 20.5q23 0 49 -25 l125 -115q29 -29 24 -55q-4 -23 -31.5 -50.5t-54.5 -27.5q-20 0 -43 23l-125 115q-34 30 -28 63z" />
<glyph unicode="&#x211;" horiz-adv-x="835" d="M45 61q10 63 92 64h111l106 633h-110q-23 0 -36 2t-26.5 16.5t-9.5 42.5q10 63 92 64h170q57 0 67.5 -23.5t-3.5 -89.5q129 125 272 125q72 0 105.5 -39t27.5 -88q-8 -39 -37.5 -63.5t-64.5 -24.5q-29 0 -52.5 19.5t-17.5 68.5q-115 -12 -194.5 -124t-104.5 -259 l-43 -260h160q25 0 38 -2t25.5 -17.5t8.5 -44.5q-10 -61 -93 -61h-411q-23 0 -36 2t-26.5 16t-9.5 43zM227 1180q4 31 29 51t55 20q23 0 49 -24l125 -115q29 -29 25 -55q-4 -23 -31.5 -50.5t-54.5 -27.5q-20 0 -43 22l-125 115q-35 31 -29 64zM647 1180q4 31 28.5 51 t55.5 20q23 0 49 -24l125 -115q29 -29 25 -55q-4 -23 -32 -50.5t-54 -27.5q-20 0 -43 22l-125 115q-35 31 -29 64z" />
<glyph unicode="&#x214;" horiz-adv-x="1552" d="M293 1188q10 63 92 63h363q25 0 38 -2t25 -17t8 -44q-10 -61 -92 -62h-111l-116 -692q-25 -160 67 -246t226 -86q129 0 251.5 86t149.5 246l117 692h-111q-23 0 -36 2t-26.5 16.5t-9.5 43.5q10 63 93 63h362q25 0 38 -2t25.5 -17t8.5 -44q-10 -61 -92 -62h-111l-119 -704 q-31 -188 -195.5 -316.5t-367.5 -128.5q-199 0 -321.5 127t-92.5 318l119 704h-110q-23 0 -36.5 2t-26.5 16.5t-9 43.5zM692 1538q4 31 28.5 51.5t55.5 20.5q23 0 49 -25l125 -115q29 -29 25 -55q-4 -23 -32 -50.5t-54 -27.5q-20 0 -43 23l-125 115q-35 30 -29 63z M1112 1538q4 31 28.5 51.5t55.5 20.5q23 0 49 -25l125 -115q29 -29 25 -55q-4 -23 -32 -50.5t-54 -27.5q-20 0 -43 23l-125 115q-35 30 -29 63z" />
<glyph unicode="&#x215;" horiz-adv-x="1193" d="M172 819q10 63 92 64h170q51 0 63.5 -17.5t4.5 -66.5l-92 -551q-2 -33 -3 -63.5t39.5 -51t126.5 -20.5q27 0 55.5 3t71.5 15t77 33.5t62.5 61.5t37.5 96l73 436h-110q-25 0 -38.5 2t-25.5 17.5t-8 43.5q10 61 92 62h170q51 0 63.5 -17.5t4.5 -66.5l-113 -674h111 q25 0 38 -2t25 -17.5t8 -44.5q-10 -61 -92 -61h-170q-27 0 -40 2t-24.5 19.5t-4.5 50.5q-121 -84 -295 -84q-55 0 -98.5 7t-93.5 29.5t-72.5 77t-10.5 134.5l88 522h-110q-23 0 -36 2t-26.5 16t-9.5 43zM406 1180q4 31 28.5 51t54.5 20q23 0 50 -24l125 -115q29 -29 24 -55 q-4 -23 -31.5 -50.5t-54.5 -27.5q-20 0 -43 22l-125 115q-34 31 -28 64zM825 1180q4 31 29 51t55 20q23 0 49 -24l125 -115q29 -29 25 -55q-4 -23 -31.5 -50.5t-54.5 -27.5q-20 0 -43 22l-125 115q-35 31 -29 64z" />
<glyph unicode="&#x218;" horiz-adv-x="1193" d="M129 61l45 271q4 27 9 41t24.5 28.5t52.5 14.5q68 0 57 -68q-6 -68 13.5 -110.5t68.5 -77.5q90 -57 265 -58q133 0 225 70t106 160q6 39 -4 75.5t-24 53.5l-13 16q-41 41 -75.5 54.5t-135.5 35.5l-84 19q-154 33 -213 55.5t-108 75.5q-84 96 -64 221q23 135 158 235.5 t322 100.5q209 0 313 -105q37 72 51.5 88.5t46.5 16.5q63 0 47 -84l-45 -270q-4 -27 -9 -41.5t-24.5 -28.5t-52.5 -14q-29 0 -42 10t-15 20.5t-4 34.5q-4 248 -289 248q-125 0 -217 -61.5t-104 -141.5q-14 -82 46 -131t124 -63l292 -64q133 -29 206 -127t52 -221 q-25 -143 -159.5 -253t-329.5 -110q-250 0 -369 99q-33 -63 -48 -81t-48 -18q-63 0 -47 84zM438 -387q4 18 31 41q72 49 88 125q-33 2 -49 20.5t-14 33.5t0 24q6 33 30.5 54t57.5 21q41 0 63.5 -33.5t9.5 -103.5q-14 -92 -76.5 -160.5t-97.5 -68.5q-18 0 -31.5 15.5 t-11.5 31.5z" />
<glyph unicode="&#x219;" horiz-adv-x="847" d="M84 72l33 196q4 27 9 41.5t24.5 28.5t52.5 14q37 0 48 -13t13 -38q4 -41 12.5 -67.5t25.5 -57.5t54 -47t93 -16q25 0 49 3t71 14t81 44t42 82q10 55 -30.5 90t-102.5 49q-31 0 -121 23q-35 6 -59.5 12t-69.5 25.5t-72.5 43t-45 65.5t-9.5 95q6 35 25.5 72t59.5 78 t117 66.5t181 25.5q115 0 178 -41q20 41 66 41q29 0 41 -14.5t10 -32.5t-2 -37l-24 -141q-4 -27 -9.5 -41t-25 -28.5t-51.5 -14.5q-68 0 -58 65q2 23 -1 37.5t-15 37t-46 33.5t-87 11q-109 0 -167.5 -32.5t-66.5 -84.5q-10 -57 47.5 -81.5t198.5 -51.5q299 -57 264 -270 q-16 -104 -112.5 -186t-278.5 -82q-139 0 -211 69q-35 -70 -84 -69q-63 0 -47 84zM266 -387q4 18 31 41q72 49 88 125q-33 2 -49.5 20.5t-14 33.5t0.5 24q6 33 30.5 54t57.5 21q41 0 63.5 -33.5t9.5 -103.5q-14 -92 -76.5 -160.5t-97.5 -68.5q-18 0 -31.5 15.5t-11.5 31.5z " />
<glyph unicode="&#x21a;" horiz-adv-x="1552" d="M248 961.5q-10 27.5 0 56.5l24 149q10 51 28.5 67.5t70.5 16.5h1228q51 0 63.5 -17t4.5 -67l-25 -149q-4 -27 -9 -41t-24.5 -28.5t-52.5 -14.5q-45 0 -55 27.5t0 56.5l19 108h-486l-168 -1001h191q23 0 37 -2t27.5 -17.5t8.5 -44.5q-10 -61 -94 -61h-522q-23 0 -37 2 t-27.5 17.5t-9.5 43.5q10 61 95 62h190l168 1001h-485l-19 -108q-4 -27 -9 -41t-24.5 -28.5t-52.5 -14.5q-45 0 -55 27.5zM618 -387q4 18 31 41q72 49 88 125q-33 2 -49 20.5t-14 33.5t0 24q6 33 30.5 54t57.5 21q41 0 63.5 -33.5t10.5 -103.5q-14 -92 -77 -160.5t-97 -68.5 q-18 0 -32 15.5t-12 31.5z" />
<glyph unicode="&#x21b;" horiz-adv-x="835" d="M176 819q10 63 94 64h105l28 168q4 29 8.5 42t24 27.5t51.5 14.5q47 0 55.5 -21.5t2.5 -62.5l-29 -168h227q25 0 38.5 -2t25.5 -17.5t8 -44.5q-10 -61 -92 -61h-227l-82 -494q-27 -152 73 -151q43 0 80 37.5t49 107.5q4 25 9.5 38t24 27.5t50.5 14.5q47 0 57.5 -26.5 t0.5 -55.5q-20 -117 -107.5 -192.5t-191.5 -75.5q-90 0 -150.5 61.5t-38.5 202.5l84 506h-106q-23 0 -36 2t-26.5 16t-9.5 43zM260 -387q4 18 31 41q72 49 88 125q-33 2 -49.5 20.5t-14.5 33.5t0 24q6 33 31 54t57 21q41 0 63.5 -33.5t10.5 -103.5q-14 -92 -76.5 -160.5 t-97.5 -68.5q-18 0 -31.5 15.5t-11.5 31.5z" />
<glyph unicode="&#x258;" horiz-adv-x="956" d="M115 223q10 57 82 58q53 0 59 -45q16 -66 69.5 -94.5t114.5 -28.5q119 0 225.5 77.5t149.5 200.5h-590q-16 0 -24 1t-22.5 4t-16.5 11.5t-8.5 22.5t2.5 37q33 190 154.5 312t303.5 122q180 0 282.5 -134t72.5 -321q-31 -190 -187.5 -324t-349.5 -134q-90 0 -158.5 28.5 t-101.5 69.5t-47 77.5t-10 59.5zM309 514h525q-2 115 -70 188.5t-170 73.5q-92 0 -171 -59.5t-114 -202.5z" />
<glyph unicode="&#x259;" horiz-adv-x="956" d="M147 422q6 35 22.5 52.5t31 20.5t43.5 3h590q-2 123 -83 200.5t-200 77.5q-154 0 -225 -123q-23 -45 -74 -45q-14 0 -25.5 2t-27 15.5t-11.5 40.5q12 63 119 149t277 86q193 0 305 -134t80 -325q-31 -186 -178.5 -320t-327.5 -134q-182 0 -264.5 122t-51.5 312zM287 375 q-14 -143 45 -202.5t151 -59.5q102 0 194.5 73.5t133.5 188.5h-524z" />
<glyph unicode="&#x2be;" horiz-adv-x="839" d="M231 575q6 37 33 58.5t60 21.5q74 0 63 -84q0 -4 12.5 -4t34 2t29.5 2q123 0 187.5 76t76.5 152q14 94 -39 159.5t-141 65.5q-102 0 -148 -82q-20 -39 -65 -39q-12 0 -22.5 2t-24 14.5t-8.5 36.5q2 14 18 40t49 60t93.5 57.5t135.5 23.5q143 0 222.5 -99.5t56.5 -238.5 q-8 -55 -38 -111.5t-78 -110t-125.5 -87t-170.5 -33.5q-37 0 -66.5 3t-70.5 13t-60.5 35.5t-13.5 66.5z" />
<glyph unicode="&#x2bf;" horiz-adv-x="839" d="M252 795q8 55 37.5 111.5t78 109.5t126 87t170.5 34q37 0 66.5 -3.5t70.5 -13.5t60.5 -35.5t12.5 -66.5q-6 -37 -32.5 -58.5t-61.5 -21.5q-72 0 -61 84q0 4 -12.5 4t-34 -2t-29.5 -2q-123 0 -187.5 -76t-76.5 -151q-16 -94 37 -160t141 -66q104 0 150 82q20 39 65 39 q12 0 22.5 -2t23.5 -14t9 -37q-2 -14 -18 -40t-49 -59.5t-93.5 -57t-136.5 -23.5q-143 0 -222 99.5t-56 238.5z" />
<glyph unicode="&#x2c6;" d="M412.5 1006.5q-23.5 50.5 33.5 83.5l267 153q35 20 61 0l221 -153q45 -33 4 -83.5t-86 -19.5l-188 127l-233 -127q-56 -31 -79.5 19.5z" />
<glyph unicode="&#x2c7;" d="M448.5 1221.5q38.5 50.5 86.5 19.5l190 -127l231 127q55 31 79 -19.5t-31 -82.5l-269 -154q-35 -20 -61 0l-219 154q-45 32 -6.5 82.5z" />
<glyph unicode="&#x2d8;" d="M373 1167q10 63 73 64q51 0 52 -60q4 -41 229 -41t242 41q20 59 71 60q63 0 54 -64q-10 -59 -50 -96t-109 -51t-113 -17.5t-117 -3.5q-47 0 -75 1t-77 5.5t-78 15.5t-58.5 28.5t-39.5 47t-4 70.5z" />
<glyph unicode="&#x2d9;" horiz-adv-x="598" d="M381 1114q6 41 41 72t80 31q41 0 66.5 -31t19.5 -72t-42 -71.5t-81 -30.5q-41 0 -66.5 30.5t-17.5 71.5z" />
<glyph unicode="&#x2da;" horiz-adv-x="1634" d="M768 1142.5q10 55.5 85 95.5t179 40q98 0 161.5 -40t53.5 -95.5t-85 -95t-179 -39.5q-98 0 -161.5 39.5t-53.5 95zM903 1143q-4 -25 23.5 -42.5t70.5 -17.5q39 0 75 16.5t40 43.5q4 25 -23.5 42t-70.5 17q-39 0 -75 -16t-40 -43z" />
<glyph unicode="&#x2db;" d="M293 -221q12 68 69.5 134.5t131.5 106.5l153 3q-88 -20 -153.5 -90t-79.5 -158q-6 -35 19.5 -57.5t55.5 -22.5q29 0 65 23.5t58 52.5q10 10 38 14t40 -4q10 -10 10 -36t-12 -40q-111 -121 -225 -121q-90 0 -136 60.5t-34 134.5z" />
<glyph unicode="&#x2dc;" d="M356 1057q6 35 119 112q102 68 172 68q66 0 125 -70q39 -43 57 -43q45 0 158 90q31 23 53 23q25 0 40.5 -20.5t11.5 -45.5q-6 -39 -119 -112q-102 -68 -170 -68t-127 70q-39 43 -55 43q-49 0 -158 -90q-31 -23 -53 -23q-25 0 -41.5 20.5t-12.5 45.5z" />
<glyph unicode="&#x2dd;" d="M379 1057q4 27 45 55l162 115q33 25 57 24q31 0 47.5 -20.5t11.5 -50.5q-6 -33 -49 -64l-161 -115q-33 -23 -52 -22q-27 0 -46 26.5t-15 51.5zM799 1057q4 27 45 55l162 115q33 25 57 24q31 0 47 -20.5t12 -50.5q-6 -33 -49 -64l-162 -115q-33 -23 -51 -22 q-27 0 -46 26.5t-15 51.5z" />
<glyph unicode="&#x300;" horiz-adv-x="0" d="M-545 1180q4 31 28.5 51t55.5 20l37 -10l252 -123q16 -8 24.5 -13t13.5 -17.5t3 -28.5q-2 -23 -23.5 -52.5t-56.5 -29.5q-16 0 -37 10l-252 121q-53 27 -45 72z" />
<glyph unicode="&#x301;" horiz-adv-x="0" d="M-563 1059q6 37 61 59l293 123l41 10q31 0 47.5 -20.5t11.5 -50.5q-8 -45 -69 -72l-293 -121q-20 -10 -37 -10q-35 0 -46 29.5t-9 52.5z" />
<glyph unicode="&#x302;" horiz-adv-x="0" d="M-648.5 1006.5q-23.5 50.5 34.5 83.5l266 153q35 20 61 0l221 -153q45 -33 4.5 -83.5t-85.5 -19.5l-189 127l-233 -127q-56 -31 -79.5 19.5z" />
<glyph unicode="&#x303;" horiz-adv-x="0" d="M-705 1057q6 35 119 112q102 68 172 68q66 0 125 -70q39 -43 58 -43q45 0 157 90q31 23 54 23q25 0 40 -20.5t11 -45.5q-6 -39 -119 -112q-102 -68 -170 -68t-127 70q-39 43 -55 43q-49 0 -158 -90q-31 -23 -53 -23q-25 0 -41.5 20.5t-12.5 45.5z" />
<glyph unicode="&#x304;" horiz-adv-x="0" d="M-723 1116q10 63 92 64h611q25 0 38 -2t25 -17.5t8 -46.5q-10 -63 -92 -63h-608q-25 0 -38 2t-26.5 17t-9.5 46z" />
<glyph unicode="&#x306;" horiz-adv-x="0" d="M-688 1167q10 63 74 64q51 0 51 -60q4 -41 229 -41t242 41q20 59 72 60q63 0 53 -64q-10 -59 -50 -96t-109 -51t-113 -17.5t-117 -3.5q-47 0 -75 1t-77 5.5t-77.5 15.5t-58.5 28.5t-40 47t-4 70.5z" />
<glyph unicode="&#x307;" horiz-adv-x="0" d="M-440 1114q6 41 40.5 72t80.5 31q41 0 66.5 -31t19 -72t-42 -71.5t-80.5 -30.5q-41 0 -66.5 30.5t-17.5 71.5z" />
<glyph unicode="&#x308;" horiz-adv-x="0" d="M-600 1114q4 35 36 63.5t72 28.5q39 0 61.5 -27.5t16.5 -64.5t-37.5 -64.5t-72.5 -27.5q-37 0 -59.5 26.5t-16.5 65.5zM-258 1114q4 35 36 63.5t72 28.5q39 0 61.5 -27.5t16.5 -64.5t-37.5 -64.5t-72.5 -27.5q-37 0 -59.5 26.5t-16.5 65.5z" />
<glyph unicode="&#x309;" horiz-adv-x="0" d="M-535 1186q12 74 78 119t144 45h6q90 0 143 -37q61 -47 49 -127q-18 -80 -94 -117q-100 -47 -110 -96l-7 -37q-4 -23 -22.5 -40t-42.5 -17q-23 0 -38 17t-11 40l6 37q20 117 186 198l19 15q2 14 -15 31q-27 18 -88 18q-66 0 -84 -39v-10q-6 -23 -24 -41l-2 -2 q-20 -16 -43 -16.5t-39 16.5v2q-17 21 -11 41z" />
<glyph unicode="&#x30a;" horiz-adv-x="0" d="M-571.5 1142.5q10.5 55.5 85 95.5t179.5 40q98 0 161.5 -40t53.5 -95.5t-85 -95t-179 -39.5q-98 0 -162 39.5t-53.5 95zM-436 1143q-4 -25 23.5 -42.5t70.5 -17.5q39 0 75 16.5t40 43.5q4 25 -24 42t-71 17q-39 0 -74.5 -16t-39.5 -43z" />
<glyph unicode="&#x30b;" horiz-adv-x="0" d="M-682 1057q4 27 45 55l162 115q33 25 57 24q31 0 47.5 -20.5t12.5 -50.5q-6 -33 -50 -64l-161 -115q-33 -23 -52 -22q-27 0 -46 26.5t-15 51.5zM-262 1057q4 27 45 55l162 115q33 25 57 24q31 0 47.5 -20.5t11.5 -50.5q-6 -33 -49 -64l-162 -115q-33 -23 -51 -22 q-27 0 -46 26.5t-15 51.5z" />
<glyph unicode="&#x30c;" horiz-adv-x="0" d="M-612 1221.5q39 50.5 86 19.5l190 -127l232 127q55 31 78.5 -19.5t-31.5 -82.5l-269 -154q-35 -20 -61 0l-219 154q-45 32 -6 82.5z" />
<glyph unicode="&#x30f;" horiz-adv-x="0" d="M-715 1180q4 31 28.5 51t55.5 20q23 0 49 -24l125 -115q29 -29 25 -55q-4 -23 -32 -50.5t-54 -27.5q-20 0 -43 22l-125 115q-35 31 -29 64zM-295 1180q4 31 28.5 51t55.5 20q23 0 49 -24l125 -115q29 -29 25 -55q-4 -23 -32 -50.5t-54 -27.5q-20 0 -43 22l-125 115 q-35 31 -29 64z" />
<glyph unicode="&#x311;" horiz-adv-x="0" d="M-705 1063q10 59 49.5 96t108 51.5t112.5 17.5t118 3q47 0 74.5 -1t76.5 -5t78 -15.5t58.5 -29t41 -47t4.5 -70.5q-14 -63 -75 -64q-51 0 -52 60q-2 41 -227 41t-244 -41q-20 -59 -71 -60q-66 1 -52 64z" />
<glyph unicode="&#x323;" horiz-adv-x="0" d="M-678 -307q6 41 41 71.5t80 30.5q41 0 66.5 -30.5t19.5 -71.5t-41 -72t-80 -31q-41 0 -67.5 31t-18.5 72z" />
<glyph unicode="&#x326;" horiz-adv-x="0" d="M-682 -387q4 18 31 41q72 49 88 125q-33 2 -49.5 20.5t-14.5 33.5t0 24q6 33 31 54t57 21q41 0 63.5 -33.5t10.5 -103.5q-14 -92 -76.5 -160.5t-97.5 -68.5q-18 0 -31.5 15.5t-11.5 31.5z" />
<glyph unicode="&#x32e;" horiz-adv-x="0" d="M-926 -254q10 63 74 64q53 0 53 -60q2 -41 227.5 -41t243.5 41q20 59 70 60q63 0 53 -64q-10 -59 -49 -96t-107.5 -51.5t-112.5 -17.5t-118 -3q-47 0 -74.5 1t-77 5t-78 15.5t-58 29t-41 47t-5.5 70.5z" />
<glyph unicode="&#x32f;" horiz-adv-x="0" d="M-942 -358q10 59 49 96t107.5 51t112.5 17.5t118 3.5q47 0 74.5 -1.5t77 -5.5t78 -15t58 -28.5t41 -47t5.5 -70.5q-10 -63 -74 -64q-53 0 -53 60q-2 41 -227.5 40.5t-243.5 -40.5q-20 -59 -70 -60q-63 1 -53 64z" />
<glyph unicode="&#x330;" horiz-adv-x="0" d="M-942 -365q6 35 119 113q102 68 172 68q66 0 125 -70q39 -43 57 -43q45 0 158 90q31 23 53 23q25 0 41 -20.5t12 -45.5q-6 -39 -121 -112q-100 -68 -170 -68q-72 0 -125 70q-39 43 -57 43q-49 0 -158 -91q-31 -23 -53 -22q-25 0 -41 20t-12 45z" />
<glyph unicode="&#x331;" horiz-adv-x="0" d="M-961 -305q10 63 93 63h610q25 0 38 -2t25.5 -17t8.5 -46q-10 -63 -93 -64h-608q-25 0 -38 2t-26.5 17.5t-9.5 46.5z" />
<glyph unicode="&#x332;" horiz-adv-x="0" d="M-961 -305q10 63 93 63h610q25 0 38 -2t25.5 -17t8.5 -46q-10 -63 -93 -64h-608q-25 0 -38 2t-26.5 17.5t-9.5 46.5z" />
<glyph unicode="&#x393;" horiz-adv-x="1314" d="M104 61q10 63 93 64h110l168 1001h-110q-23 0 -36.5 2t-26.5 16.5t-9 43.5q10 63 92 63h965q51 0 63 -17t4 -67l-24 -149q-4 -27 -9.5 -41t-25 -28.5t-51.5 -14.5q-45 0 -55.5 27.5t-0.5 56.5l19 108h-654l-167 -1001h159q25 0 38 -2t25.5 -17.5t8.5 -44.5 q-10 -61 -92 -61h-412q-23 0 -36 2t-26.5 16t-9.5 43z" />
<glyph unicode="&#x394;" horiz-adv-x="1792" d="M123 39q6 20 20 39l811 1132q31 43 58.5 54.5t72.5 11.5h45q53 0 75 -15.5t38 -56.5l430 -1130q10 -25 6 -35q-6 -39 -71 -39h-1426q-20 0 -31.5 1t-20.5 10.5t-7 27.5zM348 137h1139l-395 1043z" />
<glyph unicode="&#x398;" horiz-adv-x="1673" d="M223 627q43 262 284 454.5t542 192.5q299 0 476 -190.5t132 -458.5q-43 -262 -283.5 -455t-542.5 -193q-299 0 -476 191t-132 459zM365 625q-35 -213 105 -368t382 -155q240 0 434.5 154t229.5 371q35 213 -105.5 367.5t-382.5 154.5q-240 0 -434 -153.5t-229 -370.5z M477 520.5q-10 26.5 0 57.5l17 96q4 27 9 41t24.5 28.5t52.5 14.5q16 0 28.5 -2t22.5 -17.5t8 -44.5h627q14 63 80 64q47 0 57 -26.5t0 -57.5l-17 -96q-4 -27 -9 -41.5t-24.5 -28.5t-52.5 -14q-16 0 -28 2t-22.5 17t-8.5 44h-627q-14 -63 -79 -63q-48 0 -58 26.5z" />
<glyph unicode="&#x39b;" horiz-adv-x="1433" d="M92 61q10 63 92 64h72l535 1083q35 68 118 68h39q27 0 41.5 -2t31.5 -18.5t21 -47.5l175 -1083h71q25 0 38 -2t25.5 -17.5t8.5 -44.5q-10 -61 -92 -61h-307q-23 0 -36.5 2t-26.5 16.5t-9 42.5q10 63 92 64h86l-162 1012l-499 -1012h86q25 0 38 -2t25 -17.5t8 -44.5 q-10 -61 -92 -61h-307q-23 0 -36 2t-26.5 16t-9.5 43z" />
</font>
</defs>
</svg>
