<?xml version="1.0" standalone="no"?>
<!DOCTYPE svg PUBLIC "-//W3C//DTD SVG 1.1//EN" "http://www.w3.org/Graphics/SVG/1.1/DTD/svg11.dtd" >
<svg xmlns="http://www.w3.org/2000/svg">
<metadata>
This is a custom SVG webfont generated by Font Squirrel.
Copyright   : Copyright 2003 2008 B Jackowski and J M Nowacki on behalf of TeX users groups This work is released under the GUST Font License   see httptugorgfontslicensesGUSTFONTLICENSEtxt for details
</metadata>
<defs>
<font id="webfontnUlMWGJ9" horiz-adv-x="1075" >
<font-face units-per-em="2048" ascent="1593" descent="-455" />
<missing-glyph horiz-adv-x="500" />
<glyph unicode=" " />
<glyph unicode="!" d="M461 92q0 47 34.5 80t79.5 33q37 0 65 -23.5t28 -68.5q0 -47 -36 -80t-79 -33q-37 0 -64.5 24.5t-27.5 67.5zM565 434l8 39l154 698q10 45 39 71t46 29t30 3q43 0 68.5 -27.5t25.5 -62.5q0 -10 -8 -43l-197 -707q-8 -27 -20.5 -40t-24.5 -15t-39 -2q-82 0 -82 57z" />
<glyph unicode="&#x22;" d="M475 729q0 10 4 27l78 413q16 104 102 105q41 0 63.5 -26.5t22.5 -55.5q0 -8 -10 -45l-133 -420q-6 -20 -11 -29.5t-18.5 -17.5t-33.5 -8q-29 0 -44.5 14t-17.5 29zM838 729q0 10 4 27l78 415q23 102 102 103q41 0 63.5 -26.5t22.5 -55.5q0 -10 -10 -41l-133 -424 q-6 -20 -10.5 -28.5t-17.5 -17.5t-36 -9q-29 0 -44 14t-17 29z" />
<glyph unicode="#" d="M174 405.5q0 71.5 96 71.5h113l113 299h-115q-96 0 -96 72t94 72h172l102 272q27 59 72 59q31 0 51.5 -21.5t20.5 -49.5q0 -14 -13 -45l-79 -215h204l103 272q27 59 71 59q31 0 51.5 -21.5t20.5 -49.5q0 -14 -12 -45l-80 -215h57q94 0 94 -72t-96 -72h-110l-113 -299h113 q96 0 96 -71.5t-94 -71.5h-170l-105 -273q-20 -61 -71 -61q-29 0 -50.5 19.5t-21.5 52.5q0 20 94 262h-205l-104 -273q-20 -61 -72 -61q-29 0 -50.5 19.5t-21.5 52.5q0 20 95 262h-60q-94 0 -94 71.5zM537 477h204l113 299h-205z" />
<glyph unicode="$" d="M205 340q10 43 36.5 67.5t45 29.5t35.5 5q33 0 55 -25.5t12 -66.5q-12 -49 -51 -71q6 -139 166 -162l119 475q-92 18 -154.5 55t-87.5 75t-34 84t-6 70.5t9 49.5q31 119 153 217t288 117l18 77q20 84 86 84q41 0 46 -29.5t-7 -54.5l-19 -75q170 -14 238 -106.5t35 -219.5 q-25 -100 -117 -100q-41 0 -59.5 26.5t-7.5 63.5q10 43 47 67q-6 121 -166 142l-107 -426q80 -16 137.5 -49t85 -72t40 -85t11.5 -82t-10 -71q-31 -121 -147.5 -226.5t-296.5 -131.5l-18 -78q-20 -84 -84 -84q-41 0 -47.5 29.5t6.5 54.5l18 76q-166 16 -234.5 115.5 t-33.5 234.5zM483.5 934q-18.5 -74 33.5 -128t142 -71l101 400q-100 -16 -179 -71.5t-97.5 -129.5zM631 119q100 16 179 79.5t99.5 143.5t-25.5 141.5t-143 81.5z" />
<glyph unicode="%" d="M156 -98q0 18 20 53l918 1421q29 45 67 45q31 0 51.5 -22.5t20.5 -48.5q0 -20 -21 -52l-917 -1423q-31 -45 -68 -45q-29 0 -50 21.5t-21 50.5zM346 1061q0 121 74 240.5t172 119.5q63 0 100 -53t37 -133q0 -127 -74.5 -244t-169.5 -117q-70 0 -104.5 56.5t-34.5 130.5z M463 1069q0 -68 26 -68q33 0 78 72t45 154q0 68 -24 67q-35 0 -80 -72.5t-45 -152.5zM659 16q0 129 75 244t169 115q57 0 97 -48t40 -139q0 -129 -74.5 -243.5t-168.5 -114.5q-57 0 -97.5 48t-40.5 138zM774 23q0 -66 27 -66q35 0 80 73.5t45 151.5q0 66 -27 66 q-35 0 -80 -73.5t-45 -151.5z" />
<glyph unicode="&#x26;" d="M98 358q0 82 45 188.5t115 182.5q-16 33 -16 100q0 162 117.5 303.5t273.5 141.5q88 0 155.5 -47t67.5 -131q0 -66 -34 -92.5t-68 -26.5q-33 0 -58.5 21.5t-25.5 60.5q0 41 28 69q-27 20 -69 21q-82 0 -161 -96.5t-85 -218.5q84 49 160 49q66 0 97.5 -42t31.5 -91 q0 -70 -51.5 -132.5t-131.5 -62.5q-86 0 -153 55q-47 -66 -71.5 -138.5t-24.5 -113.5q0 -106 97 -181t263 -75q121 0 216 37t149.5 91.5t89.5 126t47 130t12 113.5q0 92 -41 158q-82 -45 -108.5 -68.5t-26.5 -58.5q0 -23 16 -37l17 -14q16 10 37 10q29 0 48 -20.5t19 -47.5 q0 -25 -18.5 -49t-61.5 -24q-80 0 -139 51t-59 131q0 57 31.5 105t63.5 70.5t79 49.5q74 45 108.5 71.5t77.5 93t74 173.5q16 57 72 57q25 0 46 -16t21 -51q0 -41 -48 -152.5t-132 -189.5q66 -92 65 -236q0 -111 -36.5 -217t-110.5 -200.5t-206 -153t-304 -58.5 q-231 0 -365.5 111.5t-134.5 269.5zM426 707q27 -27 61 -27q14 0 27.5 21.5t15.5 54.5q-57 -8 -104 -49z" />
<glyph unicode="'" d="M657 729q0 14 7 43l75 402q16 100 103 100q35 0 59.5 -23.5t24.5 -58.5q0 -14 -11 -47l-131 -416q-6 -20 -11 -30.5t-18.5 -18.5t-35.5 -8q-31 0 -46.5 18.5t-15.5 38.5z" />
<glyph unicode="(" d="M485 416q0 145 45 286.5t115 247t152 197.5t159.5 150.5t136 91t83.5 32.5q35 0 49 -19.5t14 -37.5q0 -16 -8 -27.5t-15.5 -16.5t-27.5 -17q-184 -106 -315.5 -265t-188.5 -318t-57 -312q0 -295 217 -471q27 -18 26 -48q0 -18 -14 -37.5t-49 -19.5q-41 0 -109.5 67.5 t-111.5 139.5q-101 170 -101 377z" />
<glyph unicode=")" d="M154 -111q0 33 49 62q274 158 417.5 407.5t143.5 487.5q0 293 -201 457q-41 35 -41 61q0 23 16.5 40t45.5 17q41 0 109.5 -67.5t111.5 -139.5q100 -170 100 -376q0 -145 -45 -286.5t-114.5 -247t-151.5 -198t-160 -150.5t-136 -91t-83 -33q-29 0 -45 17t-16 40z" />
<glyph unicode="*" d="M248 422q0 49 63 82l258 121l-194 123q-33 20 -33 49q0 33 26.5 58.5t59.5 25.5q23 0 47 -19l184 -131l58 250q23 86 86 86q29 0 42 -16.5t13 -34.5q0 -10 -6 -29l-70 -256l256 133q33 16 47 17q53 0 54 -54q0 -51 -66 -82l-254 -120l191 -119q37 -23 37 -51 q0 -31 -27 -57.5t-59 -26.5q-23 0 -48 18l-184 131l-57 -256q-10 -45 -37 -62.5t-51.5 -17.5t-39 15.5t-14.5 36.5l9 38l67 246l-258 -133q-29 -16 -47 -16q-27 0 -40 17.5t-13 33.5z" />
<glyph unicode="+" d="M236 626.5q0 71.5 94 71.5h309l80 320q16 70 74 69q31 0 51 -21.5t20 -49.5q0 -12 -8 -41l-68 -277h271q94 0 94 -71.5t-94 -71.5h-307l-78 -315q-20 -74 -76 -74q-31 0 -51.5 21.5t-20.5 50.5q0 12 9 41l69 276h-274q-94 0 -94 71.5z" />
<glyph unicode="," d="M313 -221q0 43 52 59q139 39 206 164q-6 -2 -20 -2q-55 0 -84 35t-29 74q0 53 42 100t108 47q55 0 97 -39t42 -119q0 -145 -130 -264t-218 -119q-31 0 -48.5 23t-17.5 41z" />
<glyph unicode="-" d="M272 626.5q0 71.5 95 71.5h655q94 0 94 -71.5t-94 -71.5h-655q-95 0 -95 71.5z" />
<glyph unicode="." d="M440 111q0 61 46 103t99.5 42t84 -35t30.5 -76q0 -55 -44 -100t-103 -45q-45 0 -79 30t-34 81z" />
<glyph unicode="/" d="M94 -98q0 20 25 55l1042 1429q29 35 62 35q31 0 51 -22.5t20 -48.5q0 -20 -24 -56l-1039 -1425q-31 -39 -65 -39q-31 0 -51.5 21.5t-20.5 50.5z" />
<glyph unicode="0" d="M233 395q0 205 91.5 411t238 337t293.5 131q133 0 215 -116t82 -302q0 -211 -93 -417t-238.5 -334t-289 -128t-221.5 122t-78 296zM381 418q0 -135 46 -225.5t136 -90.5q102 0 209 118t174.5 293t67.5 335q0 137 -51.5 219t-139.5 82q-100 0 -203.5 -104.5t-171 -277.5 t-67.5 -349z" />
<glyph unicode="1" d="M244 57q0 68 86 68h196l211 846q-111 -78 -215 -78q-68 0 -67 57q0 23 14 44.5t41 23.5q45 4 78 11t100.5 57.5t130.5 140.5q27 41 60 41q37 0 50 -20.5t13 -37.5q0 -4 -6 -34l-264 -1051h170q82 0 82 -57q0 -68 -84 -68h-514q-82 0 -82 57z" />
<glyph unicode="2" d="M117 35q0 33 41 120t102 154q84 88 156.5 134t175.5 92q238 98 340 178t102 207q0 106 -72.5 167.5t-181.5 61.5q-53 0 -115.5 -18.5t-141.5 -86t-113 -176.5q-14 -43 -70 -43q-70 0 -70 58q0 43 36 106.5t97.5 128t164 110.5t214.5 46q170 0 282 -99.5t112 -256.5 q0 -98 -42 -178.5t-126 -141.5t-157 -98t-185 -84q-211 -90 -306 -205q94 -8 242 -57q123 -39 184 -39q76 0 143.5 62.5t98.5 166.5q14 49 70 49q72 0 71 -57q0 -31 -25.5 -86t-71.5 -117.5t-124 -109t-166 -46.5q-98 0 -243 60q-133 49 -193 49q-66 0 -88 -66 q-16 -43 -70 -43q-71 1 -71 58z" />
<glyph unicode="3" d="M158 242q0 143 104 143q43 0 64.5 -25.5t21.5 -56.5l-8 -29q-6 -29 -31 -49l-6 -12q0 -29 46 -70t145 -41q84 0 173 27t162.5 96.5t73.5 167.5q0 74 -48 134.5t-165 60.5h-82q-86 0 -86 59q0 66 84 66h78q162 0 266.5 89t104.5 183q0 70 -58.5 117t-160.5 47 q-57 0 -119 -14.5t-124.5 -55.5t-84.5 -102q-10 -31 -23.5 -43t-50.5 -12q-70 0 -69 57q0 92 129 193.5t346 101.5q164 0 260 -84t96 -205q0 -96 -68.5 -191.5t-197.5 -156.5q115 -100 114 -246q0 -133 -94 -232.5t-216 -140.5t-242 -41q-145 0 -239.5 72t-94.5 193z" />
<glyph unicode="4" d="M47 63q0 25 19 43l18 19q45 27 98.5 63.5t149.5 130t179 207t172 297t144 394.5q18 57 74 57q27 0 47.5 -19.5t20.5 -48.5q0 -16 -21.5 -98t-98.5 -257t-187 -337q-121 -176 -314 -352q78 0 168 -23l30 -8q7 -2 9 -3t31.5 -9t83.5 -25l51 209q25 92 39 119t55 27 q31 0 49.5 -19.5t18.5 -46.5q0 -8 -18 -82l-19 -82l-37 -147q0 -8 29 -9q57 0 114 23q20 10 37 10q27 0 45.5 -20.5t18.5 -42.5q0 -37 -54.5 -60.5t-98.5 -28.5t-69 -5q-31 0 -55 4l-82 -328q-18 -70 -76 -70q-27 0 -47 19.5t-20 48.5q0 10 8 41l78 317q-123 39 -152 45 q-76 20 -161 21q-137 0 -172 -21q-27 -16 -41 -16q-27 0 -45.5 20t-18.5 43z" />
<glyph unicode="5" d="M174 244q0 66 26.5 105.5t80.5 39.5q35 0 59.5 -22.5t24.5 -59.5q0 -53 -48 -84q10 -39 37 -66.5t64 -37.5t59.5 -13.5t42.5 -3.5q156 0 286 113t130 262q0 78 -44 136.5t-142 58.5q-172 0 -297 -109q-27 -25 -58 -24q-35 0 -50 18t-15 39q0 12 8 41l137 553 q6 29 20.5 43t27 16t38.5 2h551q84 0 84 -57q0 -68 -86 -68h-506l-94 -381q113 51 244 52q150 0 236.5 -93.5t86.5 -228.5q0 -201 -171 -349.5t-388 -148.5q-150 0 -247 75t-97 192z" />
<glyph unicode="6" d="M225 360q0 43 6.5 98.5t27 151t71.5 202t127 196.5q98 117 232 191.5t274 74.5q131 0 185 -54.5t54 -121.5q0 -57 -27.5 -94t-76.5 -37q-47 0 -66.5 27.5t-19.5 52.5q0 51 37 77q-29 25 -91 25q-158 0 -310 -135t-212 -307q139 104 312 104q90 0 159.5 -35t104.5 -88 t51 -103t16 -93q0 -205 -162.5 -360t-365.5 -155q-139 0 -232.5 92t-93.5 291zM367 336q0 -35 6 -67.5t23.5 -73.5t57.5 -67t99 -26q145 0 265 119t120 268q0 18 -6 43t-23.5 63t-62.5 63.5t-111 25.5q-115 0 -215 -65.5t-135 -161.5q-18 -74 -18 -121z" />
<glyph unicode="7" d="M211 883q0 14 14 43l162 301q10 20 16.5 28.5t19.5 13.5t36 5q68 0 71 -62q125 61 244 62q55 0 88 -22.5t70 -75.5q35 -45 61 -46q47 0 112.5 26t117.5 85q18 20 28.5 26.5t38.5 6.5q72 0 72 -57q0 -23 -23 -46q-453 -573 -596 -1112q-20 -82 -77 -82q-25 0 -46.5 16.5 t-21.5 51.5t52 192.5t136 329.5q94 193 263 443q-27 -4 -60 -4q-53 0 -86 21.5t-76 74.5q-31 35 -61 35q-94 0 -212 -64.5t-196 -195.5q-23 -33 -34 -42.5t-43 -9.5q-70 1 -70 58z" />
<glyph unicode="8" d="M170 281q0 141 111.5 246.5t263.5 148.5q-78 25 -137.5 81t-59.5 138q0 133 152.5 256t353.5 123q158 0 252 -77t94 -191q0 -123 -103.5 -210t-228.5 -120q92 -31 153.5 -97.5t61.5 -158.5q0 -156 -165.5 -299.5t-385.5 -143.5q-160 0 -261 84.5t-101 219.5zM315 307 q0 -90 69 -147.5t181 -57.5q143 0 259 94.5t116 213.5q0 80 -63.5 141t-186.5 61q-150 0 -262.5 -95t-112.5 -210zM492 907q0 -78 67.5 -124t163.5 -46q125 0 228.5 74t103.5 168q0 78 -65.5 124t-164.5 46q-133 0 -233 -75t-100 -167z" />
<glyph unicode="9" d="M186 156q0 59 29 94t76 35q39 0 61.5 -23.5t22.5 -58.5q0 -45 -33 -74q39 -27 113 -27q145 0 288.5 130t208.5 313q-143 -104 -311 -105q-90 0 -158.5 34t-104.5 86t-52.5 102.5t-16.5 97.5q0 209 167 361.5t372 152.5q135 0 225 -90t90 -287q0 -66 -10 -147.5 t-63.5 -232t-145.5 -265.5q-96 -121 -225 -198t-266 -77q-25 0 -45.5 1.5t-65.5 10.5t-75.5 26.5t-55.5 53.5t-25 87zM451 762q0 -14 3 -31.5t14 -48.5t31.5 -54.5t60.5 -42t93 -18.5q158 0 264.5 101.5t106.5 238.5q0 242 -178 242q-147 0 -271 -116.5t-124 -270.5z" />
<glyph unicode=":" d="M440 111q0 61 46 103t99.5 42t84 -35t30.5 -76q0 -55 -44 -100t-103 -45q-45 0 -79 30t-34 81zM596 737q0 57 45 101.5t102 44.5q47 0 80 -31t33 -80q0 -57 -44 -101t-103 -44q-49 0 -81 32.5t-32 77.5z" />
<glyph unicode=";" d="M313 -221q0 37 47 59q119 51 179 162q-45 6 -70 34.5t-28 45t-3 29.5q0 55 42 101t106 46q113 0 112 -135q0 -158 -124.5 -282t-196.5 -124q-29 0 -46.5 23t-17.5 41zM596 737q0 57 45 101.5t102 44.5q47 0 80 -31t33 -80q0 -57 -44 -101t-103 -44q-49 0 -81 32.5 t-32 77.5z" />
<glyph unicode="&#x3c;" d="M272 627q0 45 50 71l784 424q33 16 49 17q27 0 49.5 -17.5t22.5 -54.5q0 -45 -51 -72l-701 -379l492 -364q41 -27 41 -66q0 -31 -21.5 -51t-50.5 -20q-27 0 -55 20l-572 428q-37 27 -37 64z" />
<glyph unicode="=" d="M197 471q0 72 90 72h737q92 0 92 -72t-104 -72h-711q-104 0 -104 72zM272 782.5q0 71.5 105 71.5h710q104 0 104.5 -71.5t-89.5 -71.5h-737q-93 0 -93 71.5z" />
<glyph unicode="&#x3e;" d="M162 186q0 45 51 72l700 379l-491 364q-41 27 -41 66q0 31 21.5 51.5t50.5 20.5q27 0 55 -21l571 -428q37 -27 37 -63q0 -45 -49 -72l-784 -424q-33 -16 -50 -16q-27 0 -49 17t-22 54z" />
<glyph unicode="?" d="M360 965q0 98 131.5 203.5t346.5 105.5q145 0 228 -73t83 -173q0 -168 -195 -274l-217 -121q-51 -29 -68.5 -40t-30.5 -27.5t-13 -39.5q0 -25 32 -24q45 0 82 21.5t52 60.5q16 41 69 41q70 0 70 -58q0 -63 -79 -126.5t-200 -63.5q-84 0 -120.5 50t-36.5 101 q0 55 33.5 109.5t90.5 85.5l285 156q16 10 38 25.5t49.5 52t27.5 73.5q0 55 -52.5 87t-129.5 32q-80 0 -167 -31t-134 -92l6 -14q4 -12 4 -29q0 -43 -31 -71.5t-70 -28.5q-37 0 -60.5 24.5t-23.5 57.5zM461 92q0 47 34.5 80t79.5 33q37 0 65 -23.5t28 -68.5q0 -47 -36 -80 t-79 -33q-37 0 -64.5 24.5t-27.5 67.5z" />
<glyph unicode="@" d="M225 457q0 309 221.5 558t479.5 249q74 0 127 -29t79.5 -64.5t42 -88t17.5 -81t2 -59.5q0 -88 -30.5 -236.5t-86.5 -252.5q-45 -86 -133 -161t-186 -75q-92 0 -159 74t-67 215q0 199 125 363.5t275 164.5q86 0 143 -57q-12 162 -153 162q-135 0 -270.5 -96.5t-223.5 -255 t-88 -324.5q0 -156 82 -253t219 -97q127 0 242 88q29 20 65 20q78 0 78 -57q0 -51 -141 -117q-121 -59 -246 -59q-176 0 -295 127t-119 342zM647 512q0 -70 29 -120t84 -50q96 0 189 127t93 272q0 31 -7 65t-34.5 68.5t-72.5 34.5q-94 0 -187.5 -127t-93.5 -270z" />
<glyph unicode="A" d="M70 57l8 27q8 27 31 35q10 6 100 6l522 1083q16 31 38 47.5t38 18.5t49 2q35 0 50.5 -2t28.5 -18.5t13 -51.5l-18 -1079q35 0 53 -2t35.5 -15.5t17.5 -39.5q0 -68 -90 -68h-209q-86 0 -86 57q0 49 39 64q10 4 94 4l4 213h-331l-103 -213q33 0 50.5 -2t35 -15.5 t17.5 -39.5q0 -68 -90 -68h-209q-88 0 -88 57zM518 463h270l27 641l-2 2z" />
<glyph unicode="B" d="M61 57q0 68 86 68h70l250 1001h-41q-82 0 -82 58q0 68 84 67h477q137 0 210 -71.5t73 -175.5q0 -125 -92 -219.5t-207 -129.5q80 -20 137 -79.5t57 -159.5q0 -150 -133 -283t-315 -133h-492q-82 0 -82 57zM360 125h261q135 0 228 85t93 198q0 27 -6 52t-23.5 57 t-57.5 51.5t-97 19.5h-281zM508 713h211q147 0 236 87t89 177q0 10 -1 21.5t-10 37t-26.5 44t-54.5 32.5t-86 14h-256z" />
<glyph unicode="C" d="M213 434q0 203 96.5 398.5t252 318.5t319.5 123q145 0 247 -100q14 16 25.5 33.5t17.5 25.5q33 41 66 41q31 0 46 -18.5t15 -38.5q0 -10 -6 -29l-75 -305q-10 -39 -28 -50.5t-46 -11.5q-72 0 -72 60q0 2 2 16t2 39q0 98 -50 155.5t-138 57.5q-188 0 -360.5 -226.5 t-172.5 -486.5q0 -139 63.5 -236.5t182.5 -97.5q47 0 103.5 16.5t131 81t107.5 169.5q14 43 70 43q70 0 69 -58q0 -43 -35.5 -105.5t-96 -124t-158 -104.5t-203.5 -43q-172 0 -273.5 131t-101.5 326z" />
<glyph unicode="D" d="M53 57q0 68 86 68h60l250 1001q-41 0 -60.5 2t-36 15.5t-16.5 40.5q0 68 84 67h438q88 0 153.5 -38.5t100.5 -103.5t50.5 -133.5t15.5 -141.5q0 -199 -88.5 -392.5t-235.5 -317.5t-307 -124h-410q-84 0 -84 57zM342 125h197q131 0 246.5 104.5t181 260t65.5 309.5 q0 41 -7 84t-28.5 104.5t-75 100t-133.5 38.5h-196z" />
<glyph unicode="E" d="M68 57q0 68 86 68h75l250 1001h-47q-82 0 -82 58q0 68 84 67h766q84 0 84 -57q0 -6 -6 -31l-43 -172q-14 -57 -72 -57q-72 0 -71 57l30 135h-499l-103 -415h266q18 80 31.5 98t54.5 18q72 0 72 -57l-6 -37l-51 -203q-14 -61 -74 -61q-72 0 -72 57q0 16 13 60h-267 l-114 -461h545l34 135q14 57 26.5 73.5t53.5 16.5q72 0 72 -57q0 -10 -31 -132t-35 -130q-16 -31 -75 -31h-811q-84 0 -84 57z" />
<glyph unicode="F" d="M72 57q0 68 86 68h82l249 1001h-53q-82 0 -82 58q0 68 84 67h783q84 0 84 -57q0 -6 -7 -31l-43 -172q-14 -57 -71 -57q-72 0 -72 57l31 135h-510l-109 -438h277q18 80 31.5 98.5t56.5 18.5q70 0 69 -57q0 -16 -20 -89q-10 -51 -23 -92q-20 -84 -33.5 -102.5t-54.5 -18.5 q-72 0 -71 58q0 10 14 59h-276l-111 -438h90q84 0 84 -57q0 -68 -86 -68h-315q-84 0 -84 57z" />
<glyph unicode="G" d="M207 420q0 203 91 401.5t239.5 325.5t302.5 127q139 0 223 -94q6 8 19.5 27.5t21.5 29.5q31 37 61.5 37t46 -18.5t15.5 -38.5q0 -10 -6 -29l-76 -305q-14 -61 -74 -62q-72 0 -72 60q6 0 7 65q0 27 -5.5 55.5t-20.5 64.5t-50 59.5t-86 23.5q-109 0 -224.5 -105.5 t-193.5 -278.5t-78 -347q0 -131 53.5 -223.5t153.5 -92.5q96 0 184 90.5t142 235.5h-70q-82 0 -82 57q0 68 86 68h244q82 0 82 -57q0 -33 -16.5 -48.5t-35 -17.5t-59.5 -2l-92 -371q-14 -57 -72 -57q-71 0 -70 58q0 7 1 16q-117 -96 -252 -97q-154 0 -246 125t-92 318z" />
<glyph unicode="H" d="M59 57q0 68 84 68h66l250 1001h-35q-84 0 -84 58q0 68 86 67h244q82 0 82 -57q0 -68 -86 -68h-64l-102 -413h432l102 413q-43 0 -62.5 2t-36.5 15.5t-17 40.5q0 68 86 67h243q82 0 82 -57q0 -68 -86 -68h-63l-250 -1001h35q84 0 84 -57q0 -68 -86 -68h-244q-82 0 -82 57 q0 68 84 68h63l117 463h-432l-117 -463h35q84 0 84 -57q0 -68 -86 -68h-244q-82 0 -82 57z" />
<glyph unicode="I" d="M176 57q0 68 86 68h236l250 1001h-207q-82 0 -82 58q0 68 84 67h585q84 0 84 -57q0 -68 -86 -68h-235l-250 -1001h207q82 0 82 -57q0 -68 -86 -68h-584q-84 0 -84 57z" />
<glyph unicode="J" d="M193 174q0 59 29.5 92t74.5 33q39 0 61.5 -23.5t22.5 -58.5q0 -47 -33 -74q49 -41 150 -41q88 0 165.5 49.5t100.5 135.5l209 839h-152q-82 0 -82 58q0 68 84 67h373q84 0 84 -57q0 -68 -86 -68h-76l-217 -874q-27 -111 -142.5 -193t-262.5 -82q-137 0 -220 53.5 t-83 143.5z" />
<glyph unicode="K" d="M68 57q0 68 86 68h59l250 1001q-41 0 -60.5 2t-36 15.5t-16.5 40.5q0 68 84 67h207q84 0 84 -57q0 -68 -86 -68h-59l-136 -542l570 542q-70 0 -70 58q0 68 86 67h180q84 0 84 -57q0 -68 -86 -68h-47l-411 -393l190 -608q27 0 42 -2t32.5 -15.5t17.5 -39.5q0 -68 -86 -68 h-153q-84 0 -84 57q0 31 17 47.5t33.5 18.5t47.5 2l-160 512l-248 -238l-69 -274q41 0 60.5 -2t35.5 -15.5t16 -39.5q0 -68 -86 -68h-204q-84 0 -84 57z" />
<glyph unicode="L" d="M80 57q0 68 84 68h90l250 1001h-60q-84 0 -84 58q0 68 86 67h332q82 0 82 -57q0 -68 -84 -68h-129l-250 -1001h492l35 135q14 57 26.5 73.5t53.5 16.5q72 0 71 -57q0 -8 -30.5 -132t-34.5 -130q-16 -31 -76 -31h-772q-82 0 -82 57z" />
<glyph unicode="M" d="M49 57q0 68 86 68h39l250 1001q-94 0 -94 58q0 68 86 67h57q98 0 125 -7t33 -44q2 -6 24.5 -275.5t22.5 -359.5h2q39 82 143 260l213 365q37 61 121 61h98q84 0 84 -57q0 -68 -86 -68h-39l-249 -1001q27 0 42 -2t32.5 -15.5t17.5 -39.5q0 -68 -84 -68h-168q-82 0 -82 57 q0 68 86 68h37l241 967h-2q-63 -125 -102 -189l-246 -422q-16 -27 -39.5 -43t-38.5 -18l-16 -2q-41 0 -52 25.5t-18 107.5l-16 184q-20 272 -20 330v33h-2l-244 -973q27 0 42 -2t32.5 -15.5t17.5 -39.5q0 -68 -84 -68h-168q-82 0 -82 57z" />
<glyph unicode="N" d="M72 57q0 68 84 68h65l250 1001h-35q-84 0 -84 58q0 68 86 67h82q109 0 133.5 -10t30.5 -65l123 -1018h2l240 968q-43 0 -62.5 2t-37 15.5t-17.5 40.5q0 68 86 67h217q82 0 82 -57q0 -68 -86 -68h-64l-264 -1063q-8 -31 -21.5 -45t-24.5 -16t-40 -2h-20q-31 0 -49.5 4 t-26.5 17.5t-10 22.5t-6 32l-123 1018h-2l-242 -969h35q84 0 84 -57q0 -68 -86 -68h-217q-82 0 -82 57z" />
<glyph unicode="O" d="M188 174q0 123 74 421t123 417q68 164 157 213t314 49q195 0 269.5 -37t74.5 -160q0 -119 -74.5 -422t-130.5 -432q-66 -154 -155.5 -200t-307.5 -46q-197 0 -270.5 37t-73.5 160zM342 244q0 -80 47 -111t174 -31q162 0 223.5 51.5t116.5 208.5q29 88 87.5 319.5 t58.5 328.5q0 84 -47.5 111.5t-178.5 27.5q-160 0 -222 -48t-116 -212q-33 -98 -88 -324.5t-55 -320.5z" />
<glyph unicode="P" d="M68 57q0 68 86 68h75l250 1001h-47q-82 0 -82 58q0 68 84 67h475q154 0 231 -87t77 -197q0 -172 -147.5 -318.5t-348.5 -146.5h-254l-94 -377h47q82 0 82 -57q0 -68 -86 -68h-264q-84 0 -84 57zM500 627h215q150 0 252 96t102 207q0 82 -57.5 139t-171.5 57h-217z" />
<glyph unicode="Q" d="M188 174q0 123 74 421t123 417q68 164 157 213t314 49q195 0 269.5 -37t74.5 -160q0 -145 -123 -606q-68 -250 -126 -339t-146 -124q2 -8 20 -70l33 -115q14 -52 14 -59q0 -49 -75 -49h-19q-55 0 -65 29l-66 236q-23 -2 -115 -3q-197 0 -270.5 37t-73.5 160zM342 246 q0 -35 4 -52.5t20.5 -43t61.5 -37t117 -11.5h67l-51 199q0 49 76 49h22q43 0 48 -12q2 -2 4 -8l55 -191q29 14 48.5 35t55 102.5t74.5 227.5q102 373 103 504q0 82 -45.5 111.5t-178.5 29.5q-158 0 -218 -47t-111 -189q-31 -84 -91.5 -324.5t-60.5 -342.5z" />
<glyph unicode="R" d="M59 57q0 68 84 68h66l250 1001h-35q-84 0 -84 58q0 68 86 67h377q145 0 233 -76.5t88 -195.5q0 -104 -72.5 -203.5t-189.5 -157.5q78 -78 78 -172q0 -27 -27 -139q-33 -121 -32 -166q0 -39 22 -39q47 0 76 105q8 23 20.5 34t22.5 13t29 2q70 0 69 -57q0 -29 -21.5 -77 t-75.5 -96.5t-122 -48.5q-25 0 -48.5 6.5t-50 24t-44 55t-17.5 93.5q0 57 27 149q31 123 31 141q0 117 -164 117h-172l-111 -438h35q84 0 84 -57q0 -68 -86 -68h-244q-82 0 -82 57zM494 688h147q141 0 239.5 81t98.5 181q0 72 -57.5 124t-171.5 52h-148z" />
<glyph unicode="S" d="M115 35l84 344q14 37 67 37q72 0 72 -58l-4 -18q-8 -45 -8 -64q0 -92 77.5 -133t192.5 -41q131 0 230.5 92.5t99.5 200.5q0 45 -13.5 76t-45 49.5t-54 25.5t-68.5 19l-137 35q-35 8 -60.5 15.5t-69.5 29t-71.5 49t-50 75.5t-22.5 110q0 154 137 274.5t322 120.5 q172 0 270 -98q14 29 35 59q20 39 59 39q31 0 46.5 -18.5t15.5 -38.5q0 -10 -7 -29l-73 -295q-14 -57 -72 -57q-72 0 -72 59q0 4 2 22.5t2 36.5q0 195 -211 195q-125 0 -222 -82t-97 -176q0 -39 15.5 -67.5t47 -45t57 -25t68.5 -18.5l205 -51q86 -27 143.5 -99.5 t57.5 -176.5q0 -158 -138.5 -294.5t-332.5 -136.5q-209 0 -324 97q-4 -6 -18 -33l-17 -29q-23 -35 -57 -35q-31 0 -46 19t-15 39z" />
<glyph unicode="T" d="M293 57q0 68 84 68h121l250 1001h-271l-33 -135q-8 -33 -24.5 -45t-46.5 -12q-72 0 -72 57q0 10 6 31l41 166q8 31 20.5 45t25 16t40.5 2h803q84 0 84 -57q0 -6 -6 -31l-43 -172q-14 -57 -72 -57q-72 0 -72 57l31 135h-268l-250 -1001h90q84 0 84 -57q0 -68 -86 -68h-354 q-82 0 -82 57z" />
<glyph unicode="U" d="M244 309q0 59 16 125l172 692h-45q-82 0 -82 58q0 68 84 67h266q84 0 84 -57q0 -68 -86 -68h-75l-181 -725q-12 -55 -12 -94q0 -94 45 -149.5t119 -55.5q100 0 201.5 95.5t136.5 234.5l172 694h-45q-82 0 -82 58q0 68 84 67h266q84 0 84 -57q0 -68 -86 -68h-76l-180 -727 q-41 -168 -179 -295t-298 -127q-133 0 -218 94.5t-85 237.5z" />
<glyph unicode="V" d="M334 1184q0 68 84 67h211q84 0 84 -57q0 -68 -86 -68h-47q2 -20 2 -63v-664q0 -184 -9 -247l2 -2q14 35 138 286l344 690q-33 0 -49.5 2t-33 15.5t-16.5 40.5q0 68 84 67h211q84 0 84 -57q0 -68 -86 -68h-47l-545 -1075q-16 -33 -37.5 -48t-38 -17t-48.5 -2 q-66 0 -79.5 16t-15.5 78v141l-6 840v67q-33 0 -49 2t-33.5 15.5t-17.5 40.5z" />
<glyph unicode="W" d="M260 35l4 26l117 1065q-61 4 -62 58q0 68 87 67h161q82 0 82 -57q0 -68 -86 -68h-65l-82 -716q-23 -190 -37 -254h2q35 109 197 442q51 106 72.5 130t74.5 24q23 0 35 -2t25.5 -18.5t13.5 -49.5l-8 -293q-12 -201 -21 -233h2l115 309l254 661h-37q-84 0 -84 58 q0 68 86 67h162q82 0 82 -57q0 -31 -16.5 -47.5t-33 -18.5t-45.5 -2l-415 -1071q-25 -72 -99 -71q-49 0 -60 19.5t-11 68.5l8 290q2 172 10 238l-2 2q-25 -74 -108 -242l-107 -229q-49 -100 -70.5 -123.5t-72.5 -23.5q-68 0 -68 51z" />
<glyph unicode="X" d="M70 57q0 68 86 68h59l408 541l-131 460h-35q-82 0 -82 58q0 68 86 67h213q82 0 82 -57q0 -31 -16.5 -47.5t-35 -18.5t-55.5 -2l84 -299l221 299q-80 0 -80 58q0 68 87 67h213q82 0 81 -57q0 -68 -84 -68h-61l-346 -460l154 -541q43 0 62 -2t36.5 -15.5t17.5 -39.5 q0 -68 -86 -68h-213q-82 0 -82 57q0 33 16.5 48.5t35 17.5t57.5 2l-105 397l-286 -397q80 0 80 -57q0 -68 -86 -68h-211q-84 0 -84 57z" />
<glyph unicode="Y" d="M334 1184q0 68 86 67h213q82 0 82 -57q0 -33 -17.5 -48.5t-36 -17.5t-57.5 -2q92 -432 96 -483q35 70 129 201l205 282q-80 0 -80 58q0 68 86 67h213q82 0 82 -57q0 -68 -86 -68h-57l-459 -626l-94 -375h37q84 0 84 -57q0 -68 -86 -68h-244q-82 0 -82 57q0 68 84 68h66 l94 375l-146 626q-41 0 -59 2t-35.5 15.5t-17.5 40.5z" />
<glyph unicode="Z" d="M111 45q0 39 41 84l923 997h-528l-33 -135q-8 -33 -24.5 -45t-47.5 -12q-72 0 -71 57q0 10 6 31l41 166q8 31 20.5 45t24.5 16t41 2h702q72 0 72 -45q0 -43 -37 -80l-928 -1001h561l35 141q14 57 27.5 73.5t54.5 16.5q72 0 72 -57q0 -8 -32 -134t-36 -134 q-16 -31 -75 -31h-738q-71 0 -71 45z" />
<glyph unicode="[" d="M426 -113q0 4 6 35l361 1440q10 41 27.5 50t58.5 9h370q84 0 84 -57q0 -68 -86 -68h-325l-336 -1341h297q84 0 84 -57q0 -68 -86 -68h-371q-84 0 -84 57z" />
<glyph unicode="\" d="M457 1350q0 31 21.5 51t49.5 20q57 0 74 -78l322 -1400l8 -41q0 -29 -20.5 -50.5t-51.5 -21.5q-57 0 -74 76l-321 1401q-8 33 -8 43z" />
<glyph unicode="]" d="M55 -113q0 68 86 68h326l334 1341h-295q-84 0 -84 58q0 68 86 67h371q84 0 84 -57q0 -10 -7 -29l-360 -1444q-6 -29 -20.5 -43t-26.5 -16t-39 -2h-371q-84 0 -84 57z" />
<glyph unicode="^" d="M561.5 1062q16.5 34 56.5 50l400 162q29 10 49 0l268 -162q41 -27 -6 -80t-90 -31l-254 134l-364 -134q-41 -14 -58.5 6.5t-1 54.5z" />
<glyph unicode="_" d="M47 -270.5q0 71.5 96 71.5h654q96 0 96 -71.5t-96 -71.5h-654q-96 0 -96 71.5z" />
<glyph unicode="`" d="M623 1206q33 68 100 68q10 0 35 -10l243 -123q23 -12 29 -20.5t-4 -39.5q-10 -25 -39 -53.5t-63 -28.5q-6 0 -31 11l-248 120q-49 25 -22 76z" />
<glyph unicode="a" d="M258 303q0 215 137 403.5t301 188.5q98 0 172 -82q6 18 25.5 34.5t46.5 16.5t47.5 -19.5t20.5 -47.5q0 -10 -9 -41l-133 -535q-8 -33 -8 -49q0 -59 43 -59q47 0 80 153q10 37 16.5 51.5t20.5 24.5t43 10q72 0 72 -57q0 -18 -20.5 -85t-47.5 -112q-68 -111 -166 -110 q-49 0 -89 23.5t-55.5 45t-23.5 39.5q-109 -109 -231 -108q-104 0 -173 85t-69 230zM397 295q0 -31 6.5 -68t32 -75.5t66.5 -38.5q96 0 195.5 151.5t99.5 321.5q0 78 -26 131t-79 53q-96 0 -195.5 -153.5t-99.5 -321.5z" />
<glyph unicode="b" d="M264 1184q0 68 86 67h191q84 0 84 -57q0 -4 -7 -35l-86 -342q106 78 213 78q121 0 197 -92t76 -236q0 -215 -146.5 -397t-322.5 -182q-115 0 -192.5 88t-77.5 239q0 68 16 134l170 677h-117q-84 1 -84 58zM418 309q0 -74 32.5 -135t102.5 -61q111 0 217.5 144t106.5 314 q0 90 -37 144.5t-97 54.5q-111 0 -218 -145.5t-107 -315.5z" />
<glyph unicode="c" d="M281 334q0 213 161.5 387t360.5 174q109 0 177.5 -56.5t68.5 -138.5q0 -55 -29 -90t-76 -35q-35 0 -59.5 21.5t-24.5 60.5q0 51 35 76q-31 37 -96 37q-135 0 -256 -137t-121 -301q0 -219 211 -219q229 0 334 94q25 18 45 18q25 0 48 -23.5t23 -49.5q0 -43 -62.5 -80 t-113.5 -54q-96 -31 -266 -30q-168 0 -252 82q-108 104 -108 264z" />
<glyph unicode="d" d="M258 303q0 215 137 403.5t301 188.5q98 0 172 -82l78 313h-90q-84 0 -84 58q0 68 86 67h166q84 0 84 -57q0 -4 -6 -35l-236 -938q-8 -33 -8 -49q0 -59 43 -59q47 0 80 153q10 37 16.5 51.5t20.5 24.5t43 10q72 0 72 -57q0 -18 -20.5 -85t-47.5 -112q-68 -111 -166 -110 q-49 0 -89 23.5t-55.5 45t-23.5 39.5q-109 -109 -231 -108q-104 0 -173 85t-69 230zM397 295q0 -31 6.5 -68t32 -75.5t66.5 -38.5q96 0 195.5 151.5t99.5 321.5q0 78 -26 131t-79 53q-96 0 -195.5 -153.5t-99.5 -321.5z" />
<glyph unicode="e" d="M283 338q0 219 161.5 388t358.5 169q111 0 182.5 -60.5t71.5 -152.5q0 -33 -8.5 -67.5t-51.5 -89t-116 -85.5q-119 -53 -349 -53h-67q-29 0 -35 -7t-6 -46q0 -221 209 -221q229 0 334 94q25 18 45 18q25 0 48 -23.5t23 -49.5q0 -43 -62.5 -80t-113.5 -54 q-96 -31 -266 -30q-53 0 -85 3t-83 25.5t-94 65.5q-96 92 -96 256zM463 512h61q391 0 391 170q0 39 -31.5 63.5t-84.5 24.5q-90 0 -187.5 -70.5t-148.5 -187.5z" />
<glyph unicode="f" d="M92 -317q0 45 30 78.5t73 33.5q31 0 57.5 -20.5t26.5 -61.5q0 -31 -13 -49q25 -6 51 -6q119 0 195 434l117 666h-119q-82 0 -82 57q0 68 84 68h137l12.5 62.5t4.5 28.5t3 17.5t7 34.5q8 41 13 63.5t23.5 60.5t43 59.5t69.5 38t107 16.5q119 0 178 -42t59 -108 q0 -51 -30.5 -82t-71.5 -31q-35 0 -59.5 24t-24.5 58q0 16 4 29.5t4 15.5q0 10 -63 11q-55 0 -73.5 -20.5t-29.5 -67.5q-6 -23 -32 -168h159q84 0 84 -58q0 -68 -86 -67h-178l-129 -733q-29 -164 -70 -273q-25 -72 -92 -145.5t-166 -73.5q-100 0 -161.5 41t-61.5 109z" />
<glyph unicode="g" d="M139 -336q0 47 30 78t73 31q37 0 60.5 -24.5t23.5 -57.5q0 -16 -4 -29q35 -4 90 -4q78 0 138 24.5t92 61.5t46 59.5t21 40.5l57 232q-106 -76 -213 -76q-117 0 -194.5 88t-77.5 238q0 213 145 391t322 178q121 0 198 -96q6 29 27.5 47t48.5 18t47.5 -19.5t20.5 -47.5 q0 -10 -9 -41l-227 -916q-12 -45 -41 -93t-79 -99t-136 -83t-190 -32q-51 0 -83 3t-82 13.5t-77 40t-27 74.5zM422 322q0 -84 35 -140.5t98 -56.5q113 0 218.5 144.5t105.5 303.5q0 76 -33 136.5t-103 60.5q-111 0 -216 -142t-105 -306z" />
<glyph unicode="h" d="M180 55q0 12 8 41l258 1030h-92q-84 0 -84 58q0 68 86 67h166q84 0 84 -57q0 -4 -6 -35l-86 -344q96 80 229 80q100 0 162 -56.5t62 -164.5q0 -111 -115 -430q-25 -61 -25 -88q0 -43 29 -43q35 0 72 47t59 127q6 25 11.5 36t20.5 20t42 9q72 0 72 -57q0 -20 -17.5 -66.5 t-49.5 -101.5t-90 -97t-126 -42q-72 0 -118 48t-46 124q0 41 23 100q117 322 116.5 416t-84.5 94q-57 0 -105 -27.5t-88 -85t-69.5 -113t-59.5 -148.5t-46 -151l-43 -159q-8 -33 -14.5 -50.5t-24 -32.5t-44 -15t-47 19t-20.5 48z" />
<glyph unicode="i" d="M293 588q0 74 94 190.5t231 116.5q84 0 141.5 -51t57.5 -129q0 -37 -37 -129l-49 -123l-65 -164q-45 -119 -45 -131q0 -55 61 -55q49 0 101.5 50t76.5 136q6 18 10 26.5t19.5 17.5t42.5 9q72 0 72 -57q0 -74 -94.5 -190.5t-231.5 -116.5q-84 0 -141.5 50t-57.5 130 q0 39 17 82l170 422q10 31 10 43q0 55 -62 55q-43 0 -95 -43t-85 -145q-8 -27 -22.5 -39.5t-49.5 -12.5q-69 1 -69 58zM729 1130q0 37 29.5 68t70.5 31q35 0 59.5 -22.5t24.5 -61.5q0 -43 -31.5 -70.5t-66.5 -27.5q-41 0 -63.5 25t-22.5 58z" />
<glyph unicode="j" d="M186 -336q0 47 30 78t73 31q37 0 60.5 -24.5t23.5 -57.5q0 -8 -2 -15.5t-2 -9.5q0 -8 34 -8q94 0 164 87t88 169l185 743q8 31 8 43q0 70 -76 70q-55 0 -118.5 -49t-104.5 -139q-8 -20 -14.5 -28.5t-20.5 -16t-39 -7.5q-70 0 -69 58q0 68 110.5 187.5t259.5 119.5 q90 0 151.5 -54.5t61.5 -140.5q0 -29 -8 -61l-184 -741q-33 -133 -139.5 -249t-260.5 -116q-211 0 -211 131zM924 1130q0 37 29.5 68t70.5 31q35 0 59.5 -22.5t24.5 -61.5q0 -43 -32 -70.5t-66 -27.5q-41 0 -63.5 25t-22.5 58z" />
<glyph unicode="k" d="M199 55q0 12 8 41l258 1030h-117q-84 0 -84 58q0 68 86 67h191q84 0 84 -57q0 -4 -7 -35l-155 -618q70 37 186 168q174 186 320 186q68 0 102.5 -44t34.5 -118q0 -172 -111 -172q-35 0 -59.5 22.5t-24.5 59.5q0 51 47 84q8 8 9 43q-92 -6 -203 -117l-39 -39 q-37 -41 -76 -79.5t-49 -47.5q211 -57 211 -217q0 -31 -5 -52t-5 -36q0 -41 20.5 -55t42.5 -14q76 0 123 174q6 23 11.5 34t20.5 21t42 10q72 0 72 -57q0 -14 -15.5 -59.5t-44.5 -102.5t-85 -101t-126 -44q-82 0 -142.5 53t-60.5 143q0 27 5.5 48.5t5.5 35.5q0 102 -246 117 l-82 -328q-18 -70 -76 -69q-27 0 -47 19t-20 48z" />
<glyph unicode="l" d="M401 1184q0 68 86 67h263q84 0 84 -57q0 -4 -7 -35l-233 -930q-8 -29 -8 -41q0 -31 27.5 -50t49 -22t35.5 -3q88 0 142 186q14 53 69 53q72 0 72 -57q0 -18 -16.5 -63.5t-47 -101.5t-90 -99t-131.5 -43q-94 0 -173 50t-79 148q0 29 9 62l219 878h-187q-84 1 -84 58z" />
<glyph unicode="m" d="M104 45q0 12 37 151.5t68 231.5l18 59l82 332q16 63 62 64q10 0 19 -3t22.5 -17.5t15.5 -37.5q84 70 178 70q125 0 162 -123q104 123 231 123q72 0 121 -50t49 -149q0 -100 -84 -344q-49 -139 -49 -186q0 -37 23 -41q53 -6 53 -57q0 -23 -14.5 -45.5t-48.5 -22.5 q-10 0 -24.5 3t-42.5 15.5t-45 48t-17 89.5q0 72 38 180q94 268 95 352q0 82 -56 82q-43 0 -83 -32.5t-73.5 -96t-60 -123t-53.5 -149.5t-39 -137l-31 -119q-23 -88 -35 -106.5t-53 -18.5q-72 0 -71 57q0 14 36.5 154.5t69.5 236.5q55 195 55 252q0 82 -55 82 q-43 0 -83 -32.5t-73.5 -96t-60.5 -123t-53.5 -149.5t-38.5 -137l-31 -119q-23 -88 -35 -106.5t-53 -18.5q-72 0 -72 57z" />
<glyph unicode="n" d="M164 588q0 18 19.5 85.5t41.5 110.5q59 111 162 111q117 0 156 -113q113 113 248 113q94 0 148 -57.5t54 -155.5q0 -109 -106 -414q-35 -100 -35 -123q0 -33 18 -32q68 0 117 174q6 23 11.5 34t20.5 21t42 10q72 0 72 -57q0 -29 -25 -95.5t-90.5 -139t-151.5 -72.5 q-68 0 -110.5 46t-42.5 120q0 43 22 110q117 328 117 420q0 86 -66 86q-119 0 -217 -184q-76 -150 -153 -461q-20 -84 -35.5 -110.5t-56.5 -26.5q-27 0 -47.5 19.5t-20.5 47.5q0 12 8 41l144 572q6 25 6 49q0 51 -27 51q-23 0 -44 -56.5t-30 -99.5q-8 -35 -14 -48 t-21.5 -23.5t-44.5 -10.5q-69 1 -69 58z" />
<glyph unicode="o" d="M260 322q0 215 151.5 394t333.5 179q121 0 205 -89t84 -245q0 -221 -152.5 -397t-332.5 -176q-127 0 -208 95.5t-81 238.5zM401 317q0 -86 39 -145t113 -59q119 0 230.5 144t111.5 308q0 78 -37 141.5t-115 63.5q-119 0 -230.5 -142.5t-111.5 -310.5z" />
<glyph unicode="p" d="M23 -397q0 68 86 67h73l250 1000q6 25 6 39q0 61 -43 61q-41 0 -82 -158q-10 -37 -15 -49t-20.5 -22.5t-44.5 -10.5q-70 0 -69 58q0 20 20.5 85.5t46.5 110.5q59 111 166 111q117 0 166 -109q121 109 234 109q109 0 175 -88t66 -225q0 -217 -137 -405.5t-301 -188.5 q-68 0 -117 32.5t-57 49.5l-98 -400h92q82 0 82 -57q0 -68 -86 -68h-310q-83 1 -83 58zM498 295q0 -31 6 -68t31.5 -75.5t66.5 -38.5q96 0 195.5 151.5t99.5 321.5q0 78 -25.5 131t-78.5 53q-96 0 -195.5 -153.5t-99.5 -321.5z" />
<glyph unicode="q" d="M279 315q0 219 146 399.5t320 180.5q123 0 211 -109q20 47 28.5 64.5t23 31t34.5 13.5q23 0 40.5 -16.5t17.5 -40.5q0 -12 -8 -41l-281 -1127h115q84 0 84 -57q0 -68 -86 -68h-406q-84 0 -84 58q0 68 86 67h146l98 396q-109 -78 -215 -78q-115 0 -192.5 87.5t-77.5 239.5 zM418 309q0 -74 32.5 -135t102.5 -61q111 0 217.5 144t106.5 314q0 90 -37 144.5t-97 54.5q-111 0 -218 -145.5t-107 -315.5z" />
<glyph unicode="r" d="M193 588q0 10 12 52t36.5 102.5t78 106.5t120.5 46q66 0 116 -34t71 -85q111 119 264 119q121 0 208 -54.5t87 -152.5q0 -68 -34 -97.5t-71 -29.5q-35 0 -59.5 22.5t-24.5 59.5q0 47 37 78q-45 49 -147 49q-123 0 -221 -170q-82 -152 -164 -475q-20 -84 -35.5 -110.5 t-56.5 -26.5q-27 0 -47.5 19.5t-20.5 47.5q0 10 8 41l139 561q8 31 9 48q0 66 -60 65q-27 0 -47 -29.5t-29.5 -58.5t-21.5 -80q-10 -41 -23.5 -56.5t-54.5 -15.5q-69 1 -69 58z" />
<glyph unicode="s" d="M203 186q0 49 20.5 79t41 38t40.5 8q41 0 63.5 -26.5t22.5 -55.5q0 -41 -33 -73q55 -43 195 -43q131 0 217 45q47 25 72.5 65.5t25.5 71.5q0 27 -17 47t-53 33.5t-56 17.5l-58 13q-119 23 -158 34t-77 39q-74 57 -74 144q0 37 17.5 79.5t55 88t115.5 75t182 29.5 q141 0 216 -48t75 -130q0 -57 -29.5 -86t-66.5 -29q-14 0 -30.5 5t-33 24.5t-16.5 50.5q0 37 21 57q-45 31 -140 31q-98 0 -159 -33q-45 -23 -63.5 -56.5t-18.5 -55.5q0 -29 27.5 -47.5t59 -26.5t103.5 -21q41 -6 69.5 -12t77 -24.5t79 -41t54 -63.5t23.5 -92 q0 -66 -41 -132.5t-106 -107.5q-117 -70 -297 -69q-346 -1 -346 198z" />
<glyph unicode="t" d="M319 815q0 68 87 68h190l76 307q16 74 78 74q29 0 48 -19.5t19 -48.5q0 -10 -8 -39l-68 -274h160q84 0 84 -58q0 -68 -86 -67h-190l-131 -529q-8 -31 -9 -47q0 -70 74 -69q66 0 127 53t96 129q10 23 16.5 32t21 17t36.5 8q72 0 72 -57q0 -66 -112 -186.5t-259 -120.5 q-96 0 -155.5 57t-59.5 137l137 576h-160q-84 0 -84 57z" />
<glyph unicode="u" d="M164 588q0 31 26.5 98.5t94 138t153.5 70.5q66 0 112 -45t46 -125q0 -43 -25 -113q-104 -285 -104 -383q0 -117 86 -116q150 0 240 344l88 354q20 72 75 72q25 0 46.5 -16.5t21.5 -51.5q0 -12 -8 -43l-137 -555q-8 -31 -9 -47q0 -57 35 -57q39 0 80 163q6 23 9 32 t11.5 22.5t21.5 17.5t34 4q72 0 72 -57q0 -16 -19.5 -84t-48.5 -117q-59 -106 -161.5 -106t-151.5 88q-90 -88 -203 -88q-94 0 -158.5 61.5t-64.5 181.5q0 113 110 422q20 57 21 80q0 37 -23 37q-76 0 -127 -180q-6 -20 -10 -30.5t-20.5 -20t-43.5 -9.5q-69 1 -69 58z" />
<glyph unicode="v" d="M164 588q0 72 87 189.5t214 117.5q78 0 129 -50t51 -126q0 -39 -22 -98q-106 -281 -107 -367q0 -141 143 -141q74 0 136.5 90t94.5 207.5t49 207t17 113.5q0 35 -8 57l-8 33q0 31 22.5 52.5t51.5 21.5q84 0 84 -158q0 -51 -22.5 -158.5t-67.5 -248t-138.5 -241.5 t-212.5 -101q-123 0 -202.5 68.5t-79.5 197.5q0 104 112 405q16 45 17 62q0 49 -43 49q-35 0 -80 -42t-76 -146q-14 -51 -72 -52q-69 1 -69 58z" />
<glyph unicode="w" d="M197 242q0 98 41 196q14 47 47 133q29 84 28 123q0 59 -37 64q-57 6 -57 57l2 16q2 16 18.5 34t45.5 18q14 0 30.5 -4.5t46 -18.5t49 -55t19.5 -100q0 -68 -35 -162l-53 -150q-29 -74 -29 -143q0 -137 127 -137q113 0 187 295l102 413q14 61 62 62q25 0 41 -17.5 t16 -40.5q0 -4 -11 -50l-16 -62l-35 -138l-45 -184q-27 -92 -26 -147q0 -131 116 -131q96 0 166 217q82 262 82 366q0 53 -18 90q-8 16 -8 35q0 31 22.5 52.5t50.5 21.5q80 0 80 -139q0 -92 -47 -274.5t-78 -262.5q-94 -231 -252 -231q-139 0 -202 114q-74 -115 -189 -114 q-37 0 -74.5 11t-77.5 36.5t-64.5 79t-24.5 127.5z" />
<glyph unicode="x" d="M164 588q0 82 105.5 194.5t250.5 112.5q119 0 191 -88q96 88 211 88q88 0 147 -54.5t59 -144.5q0 -45 -12 -74.5t-32.5 -42t-33 -15.5t-26.5 -3q-35 0 -59.5 22.5t-24.5 59.5q0 53 43 84q-12 43 -63 43q-57 0 -109 -51q-29 -33 -51 -119l-55 -221q-31 -123 -31 -150 q0 -53 27.5 -84.5t76.5 -31.5q59 0 122 50t89 134q6 20 11.5 28.5t20.5 17.5t40 9q72 0 72 -57q0 -80 -105.5 -193.5t-253.5 -113.5q-115 0 -192 88q-86 -88 -207 -88q-98 0 -153.5 60.5t-55.5 137.5q0 70 31.5 103t74.5 33q37 0 60.5 -25t23.5 -57q0 -51 -45 -82 q12 -45 66 -45q39 0 86 32.5t65 104.5l88 358q6 18 7 45q0 51 -28 84t-77 33q-57 0 -119.5 -48t-93.5 -138q-6 -18 -10 -27.5t-19.5 -18t-42.5 -8.5q-69 1 -69 58z" />
<glyph unicode="y" d="M164 588q0 23 18.5 70t52 102t93 95t127.5 40q70 0 120 -46t50 -128q0 -45 -45 -162q-84 -227 -84 -319q0 -127 108 -127q53 0 98.5 34.5t75 80.5t59 130t45 140.5t38.5 152.5l38 150q6 25 11.5 37t23 28.5t43.5 16.5q25 0 46.5 -16.5t21.5 -51.5q0 -12 -8 -43l-199 -799 q-39 -158 -167 -299t-292 -141q-92 0 -152.5 55.5t-60.5 143.5q0 43 13.5 72.5t33 41t32.5 14.5t26 3q35 0 59.5 -22.5t24.5 -59.5l-8 -31q-8 -31 -35 -49q16 -43 69 -43q104 0 198.5 111.5t127.5 267.5q-98 -49 -166 -49q-100 0 -173 61.5t-73 192.5q0 113 105 395 q27 66 26 88q0 45 -34 45q-43 0 -81 -50t-63 -130q-6 -23 -11 -32t-20.5 -18.5t-42.5 -9.5q-69 1 -69 58z" />
<glyph unicode="z" d="M197 45q0 27 55 101.5t131 150.5q78 78 203 184q178 160 217 199q-37 16 -72 37q-63 37 -102 37q-43 0 -84 -36t-60 -91q-6 -18 -10 -26.5t-19.5 -18t-39.5 -9.5q-72 0 -72 58q0 68 85 166t206 98q63 0 158 -61q70 -43 90 -43t53 51q14 25 21.5 34t19.5 14t37 5 q70 0 69 -57q0 -37 -90 -147.5t-268 -264.5q-174 -150 -233 -211q61 -10 118 -41q78 -45 115 -45q57 0 120.5 52t96.5 155q6 18 10 26.5t19.5 17.5t42.5 9q70 0 69 -57q0 -47 -42 -125t-131 -148.5t-191 -70.5q-72 0 -160 61q-63 43 -98 43q-78 0 -125 -69q-23 -35 -68 -35 q-71 0 -71 57z" />
<glyph unicode="{" d="M272 621q0 68 68 67q299 4 336 154l86 348q57 231 452 231q86 0 86 -57q0 -68 -77 -68q-100 -2 -169 -17t-98.5 -41t-40 -42t-16.5 -41l-86 -348q-31 -127 -168 -189q78 -61 78 -143q0 -39 -27 -127q-10 -47 -28 -115q-8 -41 -25 -98q-20 -86 -20 -100q0 -27 30.5 -45.5 t77.5 -24.5t73.5 -8t45.5 -2q84 0 84 -57q0 -68 -90 -68q-45 0 -89 5t-116 21.5t-116 61.5t-44 115q0 39 27 127q10 47 29 114q8 41 24 99q23 96 23 100q0 31 -32 50.5t-79 27.5t-74.5 10t-46.5 2q-78 1 -78 58z" />
<glyph unicode="|" d="M442 -98q0 12 9 41l352 1411q16 68 74 67q31 0 51 -22.5t20 -48.5q0 -14 -8 -43l-350 -1403q-16 -74 -76 -74q-31 0 -51.5 21.5t-20.5 50.5z" />
<glyph unicode="}" d="M88 -113q0 27 16.5 47.5t40.5 20.5q283 6 332 102q2 4 43 164l55 221q35 131 168 189q-78 51 -77 145q0 33 22 115q10 47 29 115l28 114q20 76 21 94q0 27 -29.5 46.5t-76 25.5t-73 8t-48.5 2q-84 0 -84 58q0 68 88 67q43 0 84 -4t115.5 -20.5t120.5 -62.5t46 -115 q0 -25 -24 -119l-58 -230q-20 -76 -20 -92q0 -31 30.5 -50t78 -27.5t77 -10.5t56.5 -2q68 0 67 -57q0 -31 -17.5 -49.5t-39.5 -18.5q-166 -4 -242 -37q-63 -31 -80.5 -59.5t-44.5 -138.5l-22 -86l-13.5 -53.5t-7.5 -26.5q-27 -106 -39 -141t-37 -64q-121 -127 -399 -127 q-86 0 -86 57z" />
<glyph unicode="~" d="M322 569q0 31 34 54q160 127 256 127q49 0 79 -22.5t61 -65.5q18 -25 34 -25q43 0 170 90q33 23 50 23q27 0 45 -21.5t18 -44.5q0 -18 -20.5 -39.5t-38 -34t-62.5 -41.5q-102 -66 -172 -65q-74 0 -137 84q-23 29 -37 28q-51 0 -162 -86q-37 -27 -57 -26q-25 0 -43 19 t-18 46z" />
<glyph unicode="&#xa0;" />
<glyph unicode="&#xa1;" d="M340 -385q0 18 8 43l197 702q12 41 27.5 50.5t56.5 9.5q82 0 82 -58l-9 -40l-153 -699q-8 -39 -32.5 -63.5t-44 -30.5t-38.5 -6q-45 0 -69.5 28.5t-24.5 63.5zM608 684q0 43 34 78t81 35q35 0 63.5 -23.5t28.5 -69t-35 -79t-80 -33.5q-39 0 -65.5 26.5t-26.5 65.5z" />
<glyph unicode="&#xa2;" d="M281 334q0 199 142 365.5t329 191.5l28 119q6 27 30 45t50.5 18t39.5 -18.5t7 -44.5l-30 -123q80 -16 126 -67.5t46 -119.5q0 -55 -29 -90t-76 -35q-35 0 -59.5 21.5t-24.5 60.5q0 51 35 76q-18 20 -49 31l-162 -649q193 6 283 92q25 18 45 18q25 0 48 -23.5t23 -49.5 q0 -43 -62.5 -80t-113.5 -54q-98 -31 -256 -30l-28 -115q-6 -27 -29 -45t-49.5 -18t-41 18t-7.5 45l30 125q-80 14 -137 72q-108 104 -108 264zM422 332q0 -176 137 -211l158 635q-117 -39 -206 -163t-89 -261z" />
<glyph unicode="&#xa3;" d="M104 90q0 61 55.5 110.5t137.5 49.5q47 0 78 -10q27 49 51 153l43 170h-49q-82 0 -82 58q0 68 84 67h78l65 264q31 127 128.5 221.5t207.5 94.5q76 0 131 -54.5t55 -173.5q0 -193 -112 -192q-39 0 -61.5 23.5t-22.5 58.5q0 57 55 88q2 10 2 35q0 41 -9 62.5t-18.5 24.5 t-23.5 3q-55 0 -112.5 -65.5t-79.5 -149.5l-60 -240h86q84 0 84 -57q0 -68 -86 -68h-115l-73 -284q-8 -35 -37 -91q121 -70 188 -69q49 0 83 41t50 96q16 51 72 51q72 0 72 -57q0 -33 -30 -91.5t-100.5 -114.5t-156.5 -56q-100 0 -264 92q-94 -92 -203 -92q-51 0 -81 30.5 t-30 71.5z" />
<glyph unicode="&#xa4;" d="M289 303q-49 35 28 105l78 61q-29 70 -6 158q20 80 84 157l-51 68q-39 45 12 88q29 23 63.5 26t55.5 -14q8 -4 22 -26l29 -37q82 43 166 43q86 0 148 -45l45 35q84 68 137 28q49 -35 -29 -104l-78 -62q29 -70 6 -157q-20 -82 -81 -156l49 -63q37 -57 -11 -95 q-27 -20 -62.5 -23t-55.5 11q-8 4 -23 29l-29 37q-84 -45 -168 -45q-86 0 -147 45l-45 -35q-84 -68 -137 -29zM532.5 626.5q-16.5 -65.5 19.5 -113.5t101 -48q68 0 127.5 48t75.5 113.5t-19.5 113.5t-101.5 48q-68 0 -127 -48t-75.5 -113.5z" />
<glyph unicode="&#xa5;" d="M260 467q8 31 35 51.5t55 20.5h234l-41 176h-150q-29 0 -45 20.5t-8 50.5q8 29 34.5 50.5t55.5 21.5h78l-62 268q-41 0 -59 2t-35.5 15.5t-17.5 40.5q0 68 86 67h213q82 0 82 -57q0 -33 -17.5 -48.5t-36 -17.5t-57.5 -2l58 -268h178l194 268q-80 0 -80 58q0 68 86 67h213 q82 0 82 -57q0 -68 -86 -68h-57l-197 -268h80q29 0 45.5 -21.5t7.5 -50.5q-8 -31 -34.5 -51t-55.5 -20h-147l-129 -176h233q29 0 45.5 -20.5t8.5 -51.5q-8 -29 -35 -50.5t-56 -21.5h-251l-68 -270h37q84 0 84 -57q0 -68 -86 -68h-244q-82 0 -82 57q0 68 84 68h66l67 270 h-252q-29 0 -45 21.5t-8 50.5zM690 715q6 -27 10 -72q16 35 41 72h-51z" />
<glyph unicode="&#xa6;" d="M442 -98q0 12 9 41l129 522q8 27 34.5 45t57 18t48 -18t9.5 -45l-139 -561q-16 -74 -76 -74q-31 0 -51.5 21.5t-20.5 50.5zM651 745l152 609q16 68 74 67q31 0 51 -22.5t20 -48.5q0 -14 -8 -43l-139 -562q-8 -27 -35 -45t-57.5 -18t-48 18t-9.5 45z" />
<glyph unicode="&#xa7;" d="M145 10q10 37 43 63.5t70 26.5t57.5 -26.5t10.5 -63.5q-6 -29 -33 -55q31 -61 219 -61q102 0 187 40.5t104 116.5q8 33 -1 59.5t-41 47t-54.5 31t-67.5 26.5l-193 72q-119 45 -182 134t-35 206q16 63 62.5 118.5t107.5 88.5q-33 66 -12 139q35 135 173 218t298 83 t260.5 -68.5t69.5 -191.5q-8 -37 -42 -63.5t-71 -26.5t-56.5 26.5t-10.5 63.5q6 29 32 55q-31 61 -219 61q-102 0 -187 -40.5t-104 -116.5q-8 -33 1.5 -59.5t41 -47t54 -31t67.5 -26.5l193 -72q119 -45 182.5 -134t34.5 -206q-33 -131 -170 -209q33 -68 12 -137 q-35 -135 -173 -218t-298 -83t-260.5 68.5t-69.5 191.5zM373 627q-31 -133 153 -205l195 -72q76 -31 129 -67q39 10 69.5 41.5t41.5 72.5q31 133 -154 205l-195 72q-72 27 -129 65q-37 -8 -68.5 -40.5t-41.5 -71.5z" />
<glyph unicode="&#xa8;" d="M584 1130q0 33 27.5 62t64.5 29q31 0 52.5 -20.5t21.5 -55.5q2 -39 -28 -64.5t-63 -25.5q-35 0 -55 23t-20 52zM893 1130q0 33 27.5 62t64.5 29q31 0 52.5 -20.5t21.5 -55.5q2 -39 -28 -64.5t-62 -25.5q-35 0 -55.5 23t-20.5 52z" />
<glyph unicode="&#xa9;" d="M0 539q0 221 157.5 378.5t381.5 157.5q221 0 378.5 -157.5t157.5 -378.5q0 -223 -157.5 -381t-378.5 -158q-223 0 -381 158t-158 381zM78 539q0 -190 135 -325.5t326 -135.5q188 0 323 135t135 326q0 188 -135 323t-323 135q-190 0 -325.5 -135t-135.5 -323zM254 434 q0 168 110.5 309.5t245.5 141.5q76 0 133 -54l11 16q6 9 12 15q16 23 35 23q33 0 33 -31l-3 -14l-40 -164q-8 -33 -39 -33q-39 0 -39 31q0 2 1 10t1 21q0 51 -28 81.5t-73 30.5q-102 0 -194 -121t-92 -260q0 -74 34.5 -126t98.5 -52q25 0 54.5 8t69.5 43t58 90q8 25 37 25 q39 0 39 -31q0 -55 -78 -129t-186 -74q-94 0 -147.5 70t-53.5 174z" />
<glyph unicode="&#xaa;" d="M420 532.5q4 18.5 26.5 32t49.5 13.5h372q27 0 42.5 -13.5t11.5 -32.5q-10 -43 -76 -43h-373q-27 0 -42 12.5t-11 31zM451 860q0 150 96 282t211 132q70 0 121 -57q12 37 51 36q18 0 32.5 -13t14.5 -34q0 -8 -6 -28l-94 -375q-4 -25 -5 -35q0 -41 29 -41q33 0 57 107 q8 37 17.5 49t38.5 12q49 0 49 -41q0 -14 -14.5 -60t-32.5 -77q-43 -78 -115 -78q-82 0 -119 76q-76 -76 -161 -76q-74 0 -122 60.5t-48 160.5zM549 854q0 -23 4 -48.5t22.5 -52t47.5 -26.5q68 0 137 105.5t69 224.5q0 129 -73 129q-68 0 -137.5 -107.5t-69.5 -224.5z" />
<glyph unicode="&#xab;" d="M229 627q8 31 43 61l523 381q25 18 39 18q18 0 28 -17t4 -48q-8 -37 -45 -61l-456 -334l315 -334q25 -29 16 -62q-6 -31 -23.5 -48t-35.5 -17q-12 0 -33 18l-364 385q-17 25 -11 58zM561 627q8 31 43 61l522 381q25 18 39 18q18 0 28.5 -17t4.5 -48q-8 -37 -45 -61 l-457 -334l316 -334q25 -29 16 -62q-6 -31 -23.5 -48t-35.5 -17q-12 0 -33 18l-365 385q-16 25 -10 58z" />
<glyph unicode="&#xac;" d="M270.5 782.5q8.5 28.5 34 50t53.5 21.5h783q31 0 46 -21.5t9 -50.5l-78 -311q-8 -29 -34.5 -50.5t-55.5 -21.5q-31 0 -46 21.5t-7 50.5l59 240h-710q-29 0 -45.5 21.5t-8 50z" />
<glyph unicode="&#xad;" d="M272 626.5q0 71.5 95 71.5h655q94 0 94 -71.5t-94 -71.5h-655q-95 0 -95 71.5z" />
<glyph unicode="&#xae;" d="M0 539q0 221 157.5 378.5t381.5 157.5q221 0 378.5 -157.5t157.5 -378.5q0 -223 -157.5 -381t-378.5 -158q-223 0 -381 158t-158 381zM78 539q0 -190 135 -325.5t326 -135.5q188 0 323 135t135 326q0 188 -135 323t-323 135q-190 0 -325.5 -135t-135.5 -323zM270 240 q0 35 45 34h35l133 537h-18q-45 0 -45 31q0 37 45 37h203q78 0 125 -41t47 -105q0 -55 -39 -109.5t-101 -82.5q41 -41 41 -92q0 -10 -14 -76q-18 -66 -18 -88q0 -20 12 -21q27 0 41 55q8 27 39 27q37 0 37 -31q0 -29 -33 -73.5t-84 -44.5q-18 0 -35.5 6t-34 28.5t-16.5 61.5 q0 31 14 80q16 66 17 76q0 61 -88 61h-93l-59 -236h18q45 0 45 -30q0 -35 -45 -35h-131q-43 0 -43 31zM502 578h80q76 0 128 43t52 96q0 39 -31 66.5t-92 27.5h-78z" />
<glyph unicode="&#xaf;" d="M432 1130q0 72 86 72h610q82 0 82 -57q0 -72 -86 -72h-610q-82 0 -82 57z" />
<glyph unicode="&#xb0;" d="M477 952q31 125 140.5 212t232.5 87q125 0 190.5 -87t34.5 -212q-31 -123 -140.5 -211t-234.5 -88q-123 0 -188.5 88t-34.5 211zM621 952q-16 -66 18.5 -110.5t98 -44.5t120.5 45t73.5 110.5t-18 110.5t-98.5 45q-66 0 -123 -46.5t-71 -109.5z" />
<glyph unicode="&#xb1;" d="M96 71.5q0 71.5 94 71.5h312l61 246h-274q-94 0 -94 71.5t94 71.5h309l80 320q16 70 74 70q31 0 51 -21.5t20 -50.5q0 -12 -8 -41l-67 -277h270q94 0 94 -71.5t-94 -71.5h-307l-62 -246h271q94 0 94 -71.5t-94 -71.5h-730q-94 0 -94 71.5z" />
<glyph unicode="&#xb2;" d="M471 655q0 16 20.5 59.5t51.5 78.5q66 68 166 112q119 49 170 89t51 104q0 53 -36 83.5t-91 30.5q-47 0 -103.5 -31.5t-81.5 -109.5q-8 -20 -34 -20q-35 0 -35 28q0 51 73.5 123t182.5 72q86 0 141 -49t55 -129q0 -49 -21.5 -89t-63.5 -70t-78.5 -49.5t-92.5 -41.5 q-104 -45 -151 -103q53 -6 121 -28q55 -20 92 -20.5t70.5 30.5t50.5 84q6 25 35 25q35 0 34 -29q0 -41 -55 -109.5t-137 -68.5q-51 0 -123 28q-63 25 -96 25t-43 -33q-8 -20 -35 -20q-37 -1 -37 28z" />
<glyph unicode="&#xb3;" d="M514 758q0 72 51 71q43 0 43 -41l-2 -14q-4 -14 -16 -24l-4 -7q0 -14 23.5 -34.5t72.5 -20.5q70 0 137.5 38t67.5 108q0 37 -24.5 67.5t-82.5 30.5h-41q-43 0 -43 29q0 33 41 32h39q82 0 134.5 45t52.5 92q0 35 -30 58.5t-81 23.5q-47 0 -97 -21.5t-67 -64.5 q-10 -29 -37 -28q-35 0 -35 28q0 47 64.5 97.5t173.5 50.5q82 0 130 -41t48 -103q0 -49 -33.5 -96t-99.5 -78q57 -51 57 -122q0 -98 -88 -152.5t-188 -54.5q-72 0 -119 36t-47 95z" />
<glyph unicode="&#xb4;" d="M590 1081q0 16 8 28.5t17.5 18t29.5 13.5l305 123q27 10 39 10q27 0 47.5 -18.5t20.5 -49.5q0 -51 -62 -76l-307 -120q-31 -10 -37 -11q-61 0 -61 82z" />
<glyph unicode="&#xb5;" d="M63 -410q0 4 7 35l301 1200q16 68 75 68q31 0 49.5 -20.5t18.5 -47.5l-25 -110l-28 -115l-45 -184q-33 -131 -33 -172q0 -131 117 -131q68 0 122 47t94 140t60.5 160.5t46.5 180.5l39 150q6 29 12.5 43t23.5 30.5t44 16.5q29 0 49.5 -19.5t20.5 -48.5q0 -6 -11.5 -53 t-15.5 -66l-86 -344q-41 -147 -41 -178q0 -59 41 -59q45 0 90 178q8 37 23.5 48t50.5 11q72 0 72 -57q0 -14 -20.5 -81t-51.5 -116q-63 -109 -166 -108q-115 0 -164 104q-113 -104 -237 -104q-100 0 -174 57q-117 -473 -123 -483q-25 -39 -66 -39q-31 0 -50.5 20t-19.5 47z " />
<glyph unicode="&#xb6;" d="M332.5 739q-23.5 88 3.5 209q47 195 211 334t348 139h428q16 0 25.5 -1t17.5 -11t4 -29q-10 -41 -67 -41h-89l-417 -1669q-18 -68 -52 -67q-39 0 -20 67l418 1669h-123l-418 -1669q-18 -68 -51 -67q-37 0 -19 67l201 801q-88 4 -168 34t-144.5 88t-88 146z" />
<glyph unicode="&#xb7;" d="M565 608q0 61 46 103.5t99.5 42.5t84 -35t30.5 -76q0 -55 -44 -100t-103 -45q-45 0 -79 29.5t-34 80.5z" />
<glyph unicode="&#xb8;" d="M240 -367q0 47 29.5 57.5t107.5 10.5q307 0 307 109q0 31 -37 43t-69 12q-29 0 -44.5 14.5t-17.5 28.5l-2 14q0 14 27 111q6 31 20 45t53 14q70 0 70 -57q0 -20 -12 -58q88 -23 121.5 -70.5t33.5 -94.5q0 -27 -7 -56.5t-50 -77t-119 -71.5q-104 -33 -346 -33 q-35 0 -50 19.5t-15 39.5z" />
<glyph unicode="&#xb9;" d="M539 670q0 33 43 32h98l104 424q-53 -39 -106 -39q-35 0 -35 29q0 31 29 33q84 6 153 104q14 20 31 21q31 0 31 -29q0 -4 -1 -9t-1 -7l-133 -527h86q41 0 41 -28q0 -33 -43 -33h-256q-41 0 -41 29z" />
<glyph unicode="&#xba;" d="M473 532.5q4 18.5 25.5 32t48.5 13.5h270q27 0 41 -13.5t10 -32t-25.5 -31t-47.5 -12.5h-271q-27 0 -41 12.5t-10 31zM506 872q0 150 105.5 276t234.5 126q84 0 142.5 -62.5t58.5 -171.5q0 -156 -105.5 -278.5t-232.5 -122.5q-90 0 -146.5 66.5t-56.5 166.5zM604 870 q0 -61 26.5 -102t80.5 -41q84 0 161.5 100.5t77.5 214.5q0 57 -25.5 100.5t-80.5 43.5q-82 0 -161 -99.5t-79 -216.5z" />
<glyph unicode="&#xbb;" d="M143 231q8 37 45 62l455 334l-313 334q-25 29 -17 61q6 31 22.5 48t35.5 17q14 0 35 -18l358 -381q23 -27 14 -61q-6 -35 -35 -58l-528 -385q-25 -18 -41 -18q-43 -1 -31 65zM475 231q8 37 45 62l455 334l-313 334q-25 29 -17 61q6 31 22.5 48t34.5 17q14 0 35 -18 l359 -381q23 -27 14 -61q-6 -35 -35 -58l-528 -385q-25 -18 -41 -18q-43 -1 -31 65z" />
<glyph unicode="&#xbc;" d="M207 41q6 20 18 35l938 1169q27 37 72 37q29 0 45 -21.5t8 -50.5q-2 -14 -18 -34l-936 -1170q-31 -37 -72 -37q-31 0 -47 21.5t-8 50.5zM229 670q0 33 43 32h99l106 424q-55 -39 -108 -39q-35 0 -35 29q0 31 26 33q86 6 156 104q14 20 31 21q31 0 31 -29q0 -4 -1.5 -9 t-1.5 -7l-133 -527h86q41 0 39 -28q0 -33 -41 -33h-258q-41 0 -39 29zM522 32.5q0 12.5 10 20.5l9 10q31 16 67.5 47t97 93.5t116 169t89.5 235.5q10 29 39 29q33 0 33 -33q0 -23 -38 -128t-116 -218q-63 -92 -157 -176q39 0 86 -12q4 0 76 -23l26 105q12 47 19.5 60 t27.5 13q33 0 33 -32q0 -2 -18 -82l-19 -74q0 -4 15 -4q27 0 57 10q8 6 18 6q14 0 23.5 -11t7.5 -22q0 -18 -27.5 -29.5t-49 -14.5t-34.5 -3q-8 0 -16 1t-10 1l-41 -164q-10 -35 -39 -34q-12 0 -22.5 10t-10.5 24l4 21l39 158q-74 23 -76 22q-39 10 -82 10q-68 0 -86 -10 q-12 -8 -20 -8q-12 0 -21.5 10t-9.5 22.5z" />
<glyph unicode="&#xbd;" d="M111 41q6 20 18 35l936 1169q31 37 74 37q29 0 45 -21.5t8 -50.5q-6 -20 -18 -34l-938 -1170q-27 -37 -72 -37q-29 0 -45 21.5t-8 50.5zM229 670q0 33 43 32h99l106 424q-55 -39 -108 -39q-35 0 -35 29q0 31 26 33q86 6 156 104q14 20 31 21q31 0 31 -29q0 -4 -1.5 -9 t-1.5 -7l-133 -527h86q41 0 39 -28q0 -33 -41 -33h-258q-41 0 -39 29zM535 18q0 16 21.5 59.5t51.5 78.5q61 66 166 112q119 49 170 89t49 104q0 53 -35.5 83.5t-91.5 30.5q-47 0 -102 -31.5t-82 -109.5q-6 -20 -33 -20q-37 0 -37 28q0 51 74 123t182 72q86 0 141.5 -49 t55.5 -129q0 -92 -67.5 -147.5t-186.5 -102.5q-102 -41 -154 -103q55 -6 123 -28q55 -20 90 -21q37 0 71 31t50 84q6 25 35 25q37 0 37 -29q-2 -43 -57.5 -110.5t-137.5 -67.5q-51 0 -123 28q-59 25 -96 25q-33 0 -43 -33q-8 -20 -35 -20q-30 -1 -36 28z" />
<glyph unicode="&#xbe;" d="M207 41q6 20 18 35l938 1169q27 37 72 37q29 0 45 -21.5t8 -50.5q-2 -14 -18 -34l-936 -1170q-31 -37 -72 -37q-31 0 -47 21.5t-8 50.5zM240 758q-6 72 51 71q43 0 43 -41l-2 -14q-4 -14 -17 -24l-4 -7q0 -14 22.5 -34.5t72.5 -20.5q70 0 137 38t69 108q-6 98 -106 98 h-41q-43 0 -45 29q0 33 43 32h39q82 0 133 45t51 92q2 35 -27.5 58.5t-80.5 23.5q-47 0 -97.5 -21.5t-66.5 -64.5q-10 -29 -37 -28q-35 0 -35 28q0 47 64.5 97.5t173.5 50.5q82 0 130 -41t48 -103q0 -47 -35 -95t-98 -79q57 -51 57 -122q0 -98 -88 -152.5t-188 -54.5 q-72 0 -119 36t-47 95zM522 32.5q0 12.5 10 20.5l9 10q31 16 67.5 47t97 93.5t116 169t89.5 235.5q10 29 39 29q33 0 33 -33q0 -23 -38 -128t-116 -218q-63 -92 -157 -176q39 0 86 -12q4 0 76 -23l26 105q12 47 19.5 60t27.5 13q33 0 33 -32q0 -2 -18 -82l-19 -74 q0 -4 15 -4q27 0 57 10q8 6 18 6q14 0 23.5 -11t7.5 -22q0 -18 -27.5 -29.5t-49 -14.5t-34.5 -3q-8 0 -16 1t-10 1l-41 -164q-10 -35 -39 -34q-12 0 -22.5 10t-10.5 24l4 21l39 158q-74 23 -76 22q-39 10 -82 10q-68 0 -86 -10q-12 -8 -20 -8q-12 0 -21.5 10t-9.5 22.5z" />
<glyph unicode="&#xbf;" d="M125 -231q0 57 23.5 107t68.5 89t71.5 57.5t71.5 43.5l199 110q35 18 50.5 28.5t27.5 27t12 36.5q0 27 -31 27l-26 -2q-27 -2 -59.5 -22.5t-47.5 -57.5q-16 -41 -67 -41q-72 0 -72 57q0 61 79 126t198 65q84 0 120.5 -49t36.5 -103q0 -51 -27.5 -100t-70.5 -78l-215 -121 q-78 -43 -115 -66.5t-66.5 -59.5t-29.5 -76q0 -55 51 -87t131 -32q86 0 171 32.5t130 90.5l-6 12q-4 14 -4 31q0 41 31 70.5t69 29.5q35 0 59.5 -22.5t24.5 -59.5q0 -102 -132 -205.5t-345 -103.5q-147 0 -229 74t-82 172zM608 684q0 43 34 78t81 35q35 0 63.5 -23.5 t28.5 -69t-35 -79t-80 -33.5q-39 0 -65.5 26.5t-26.5 65.5z" />
<glyph unicode="&#xc0;" d="M70 57l8 27q8 27 31 35q10 6 100 6l522 1083q16 31 38 47.5t38 18.5t49 2q35 0 50.5 -2t28.5 -18.5t13 -51.5l-18 -1079q35 0 53 -2t35.5 -15.5t17.5 -39.5q0 -68 -90 -68h-209q-86 0 -86 57q0 49 39 64q10 4 94 4l4 213h-331l-103 -213q33 0 50.5 -2t35 -15.5 t17.5 -39.5q0 -68 -90 -68h-209q-88 0 -88 57zM518 463h270l27 641l-2 2zM717 1585q33 68 100 68q10 0 35 -11l244 -122q23 -12 28.5 -20.5t-4.5 -39.5q-10 -25 -38.5 -53.5t-63.5 -28.5q-6 0 -31 11l-248 120q-49 25 -22 76z" />
<glyph unicode="&#xc1;" d="M70 57l8 27q8 27 31 35q10 6 100 6l522 1083q16 31 38 47.5t38 18.5t49 2q35 0 50.5 -2t28.5 -18.5t13 -51.5l-18 -1079q35 0 53 -2t35.5 -15.5t17.5 -39.5q0 -68 -90 -68h-209q-86 0 -86 57q0 49 39 64q10 4 94 4l4 213h-331l-103 -213q33 0 50.5 -2t35 -15.5 t17.5 -39.5q0 -68 -90 -68h-209q-88 0 -88 57zM518 463h270l27 641l-2 2zM684 1460q0 16 8 28.5t17.5 17.5t29.5 14l305 122q27 10 39 11q27 0 47.5 -18.5t20.5 -49.5q0 -51 -61 -76l-308 -120q-31 -10 -37 -11q-61 0 -61 82z" />
<glyph unicode="&#xc2;" d="M70 57l8 27q8 27 31 35q10 6 100 6l522 1083q16 31 38 47.5t38 18.5t49 2q35 0 50.5 -2t28.5 -18.5t13 -51.5l-18 -1079q35 0 53 -2t35.5 -15.5t17.5 -39.5q0 -68 -90 -68h-209q-86 0 -86 57q0 49 39 64q10 4 94 4l4 213h-331l-103 -213q33 0 50.5 -2t35 -15.5 t17.5 -39.5q0 -68 -90 -68h-209q-88 0 -88 57zM518 463h270l27 641l-2 2zM591 1401q-9 55 50 76l256 88q16 6 39 0l227 -88q53 -20 25.5 -75.5t-80.5 -39.5l-215 68l-234 -68q-59 -16 -68 39z" />
<glyph unicode="&#xc3;" d="M70 57l8 27q8 27 31 35q10 6 100 6l522 1083q16 31 38 47.5t38 18.5t49 2q35 0 50.5 -2t28.5 -18.5t13 -51.5l-18 -1079q35 0 53 -2t35.5 -15.5t17.5 -39.5q0 -68 -90 -68h-209q-86 0 -86 57q0 49 39 64q10 4 94 4l4 213h-331l-103 -213q33 0 50.5 -2t35 -15.5 t17.5 -39.5q0 -68 -90 -68h-209q-88 0 -88 57zM518 463h270l27 641l-2 2zM535 1423q0 31 34 54q160 127 256 127q49 0 79 -22.5t61 -65.5q18 -25 34 -25q43 0 170 90q33 23 50 23q27 0 45 -21.5t18 -44.5q0 -18 -20.5 -39.5t-38 -34t-62.5 -41.5q-102 -66 -172 -65 q-74 0 -137 84q-23 29 -37 28q-51 0 -162 -86q-37 -27 -57 -26q-25 0 -43 19t-18 46z" />
<glyph unicode="&#xc4;" d="M70 57l8 27q8 27 31 35q10 6 100 6l522 1083q16 31 38 47.5t38 18.5t49 2q35 0 50.5 -2t28.5 -18.5t13 -51.5l-18 -1079q35 0 53 -2t35.5 -15.5t17.5 -39.5q0 -68 -90 -68h-209q-86 0 -86 57q0 49 39 64q10 4 94 4l4 213h-331l-103 -213q33 0 50.5 -2t35 -15.5 t17.5 -39.5q0 -68 -90 -68h-209q-88 0 -88 57zM518 463h270l27 641l-2 2zM629 1434q2 35 28.5 62.5t63.5 27.5q33 0 54.5 -20.5t21.5 -55.5q0 -39 -29 -64.5t-61 -25.5q-35 0 -55.5 23.5t-22.5 52.5zM995 1434q2 35 29 62.5t63 27.5q33 0 54.5 -20.5t21.5 -55.5 q0 -39 -28.5 -64.5t-61.5 -25.5q-35 0 -55.5 23.5t-22.5 52.5z" />
<glyph unicode="&#xc5;" d="M70 57l8 27q8 27 31 35q10 6 100 6l522 1083q16 31 38 47.5t38 18.5t49 2q35 0 50.5 -2t28.5 -18.5t13 -51.5l-18 -1079q35 0 53 -2t35.5 -15.5t17.5 -39.5q0 -68 -90 -68h-209q-86 0 -86 57q0 49 39 64q10 4 94 4l4 213h-331l-103 -213q33 0 50.5 -2t35 -15.5 t17.5 -39.5q0 -68 -90 -68h-209q-88 0 -88 57zM518 463h270l27 641l-2 2zM680 1415q0 76 80 140.5t186 64.5q74 0 125 -37t51 -102q0 -78 -79.5 -141.5t-186.5 -63.5q-78 0 -127 41t-49 98zM795 1432q0 -27 24.5 -45.5t63.5 -18.5q45 0 85 28.5t40 67.5q0 37 -30 50.5 t-58 13.5q-49 0 -87 -29.5t-38 -66.5z" />
<glyph unicode="&#xc6;" d="M61 57q0 33 16.5 48.5t36 17.5t64.5 2l451 1001q-29 0 -46.5 14.5t-19.5 25t-2 18.5q0 68 86 67h576q84 0 84 -57q0 -6 -7 -31l-43 -172q-14 -57 -59 -57q-25 0 -41 17.5t-16 39.5l30 135h-233l-102 -415h219q84 0 84 -58q0 -68 -86 -67h-250l-115 -461h250l35 137 q8 35 14 50.5t18.5 26.5t34.5 11q25 0 41.5 -17.5t16.5 -39.5q0 -10 -31 -132t-35 -130q-16 -31 -76 -31h-399q-84 0 -84 57q0 31 17.5 47.5t34 18.5t46.5 2l62 250h-225l-113 -250q78 0 78 -57q0 -68 -84 -68h-146q-82 0 -82 57zM463 500h201l157 626h-76z" />
<glyph unicode="&#xc7;" d="M213 434q0 203 96.5 398.5t252 318.5t319.5 123q145 0 247 -100q14 16 25.5 33.5t17.5 25.5q33 41 66 41q31 0 46 -18.5t15 -38.5q0 -10 -6 -29l-75 -305q-10 -39 -28 -50.5t-46 -11.5q-72 0 -72 60q0 2 2 16t2 39q0 98 -50 155.5t-138 57.5q-188 0 -360.5 -226.5 t-172.5 -486.5q0 -139 63.5 -236.5t182.5 -97.5q47 0 103.5 16.5t131 81t107.5 169.5q14 43 70 43q70 0 69 -58q0 -84 -109.5 -205.5t-269.5 -158.5q-2 -2 -2 -6t-2 -7q88 -23 122 -70.5t34 -94.5q0 -27 -7 -56.5t-50 -77t-119 -71.5q-104 -33 -346 -33q-35 0 -50.5 19.5 t-15.5 39.5q0 47 30 57.5t107 10.5q307 0 308 109q0 31 -38 43t-69 12q-29 0 -44 14.5t-17 28.5l-2 14l12 58q-158 14 -249 142t-91 312z" />
<glyph unicode="&#xc8;" d="M68 57q0 68 86 68h75l250 1001h-47q-82 0 -82 58q0 68 84 67h766q84 0 84 -57q0 -6 -6 -31l-43 -172q-14 -57 -72 -57q-72 0 -71 57l30 135h-499l-103 -415h266q18 80 31.5 98t54.5 18q72 0 72 -57l-6 -37l-51 -203q-14 -61 -74 -61q-72 0 -72 57q0 16 13 60h-267 l-114 -461h545l34 135q14 57 26.5 73.5t53.5 16.5q72 0 72 -57q0 -10 -31 -132t-35 -130q-16 -31 -75 -31h-811q-84 0 -84 57zM717 1585q33 68 100 68q10 0 35 -11l244 -122q23 -12 28.5 -20.5t-4.5 -39.5q-10 -25 -38.5 -53.5t-63.5 -28.5q-6 0 -31 11l-248 120 q-49 25 -22 76z" />
<glyph unicode="&#xc9;" d="M68 57q0 68 86 68h75l250 1001h-47q-82 0 -82 58q0 68 84 67h766q84 0 84 -57q0 -6 -6 -31l-43 -172q-14 -57 -72 -57q-72 0 -71 57l30 135h-499l-103 -415h266q18 80 31.5 98t54.5 18q72 0 72 -57l-6 -37l-51 -203q-14 -61 -74 -61q-72 0 -72 57q0 16 13 60h-267 l-114 -461h545l34 135q14 57 26.5 73.5t53.5 16.5q72 0 72 -57q0 -10 -31 -132t-35 -130q-16 -31 -75 -31h-811q-84 0 -84 57zM684 1460q0 16 8 28.5t17.5 17.5t29.5 14l305 122q27 10 39 11q27 0 47.5 -18.5t20.5 -49.5q0 -51 -61 -76l-308 -120q-31 -10 -37 -11 q-61 0 -61 82z" />
<glyph unicode="&#xca;" d="M68 57q0 68 86 68h75l250 1001h-47q-82 0 -82 58q0 68 84 67h766q84 0 84 -57q0 -6 -6 -31l-43 -172q-14 -57 -72 -57q-72 0 -71 57l30 135h-499l-103 -415h266q18 80 31.5 98t54.5 18q72 0 72 -57l-6 -37l-51 -203q-14 -61 -74 -61q-72 0 -72 57q0 16 13 60h-267 l-114 -461h545l34 135q14 57 26.5 73.5t53.5 16.5q72 0 72 -57q0 -10 -31 -132t-35 -130q-16 -31 -75 -31h-811q-84 0 -84 57zM591 1401q-9 55 50 76l256 88q16 6 39 0l227 -88q53 -20 25.5 -75.5t-80.5 -39.5l-215 68l-234 -68q-59 -16 -68 39z" />
<glyph unicode="&#xcb;" d="M68 57q0 68 86 68h75l250 1001h-47q-82 0 -82 58q0 68 84 67h766q84 0 84 -57q0 -6 -6 -31l-43 -172q-14 -57 -72 -57q-72 0 -71 57l30 135h-499l-103 -415h266q18 80 31.5 98t54.5 18q72 0 72 -57l-6 -37l-51 -203q-14 -61 -74 -61q-72 0 -72 57q0 16 13 60h-267 l-114 -461h545l34 135q14 57 26.5 73.5t53.5 16.5q72 0 72 -57q0 -10 -31 -132t-35 -130q-16 -31 -75 -31h-811q-84 0 -84 57zM629 1434q2 35 28.5 62.5t63.5 27.5q33 0 54.5 -20.5t21.5 -55.5q0 -39 -29 -64.5t-61 -25.5q-35 0 -55.5 23.5t-22.5 52.5zM995 1434 q2 35 29 62.5t63 27.5q33 0 54.5 -20.5t21.5 -55.5q0 -39 -28.5 -64.5t-61.5 -25.5q-35 0 -55.5 23.5t-22.5 52.5z" />
<glyph unicode="&#xcc;" d="M176 57q0 68 86 68h236l250 1001h-207q-82 0 -82 58q0 68 84 67h585q84 0 84 -57q0 -68 -86 -68h-235l-250 -1001h207q82 0 82 -57q0 -68 -86 -68h-584q-84 0 -84 57zM717 1585q33 68 100 68q10 0 35 -11l244 -122q23 -12 28.5 -20.5t-4.5 -39.5q-10 -25 -38.5 -53.5 t-63.5 -28.5q-6 0 -31 11l-248 120q-49 25 -22 76z" />
<glyph unicode="&#xcd;" d="M176 57q0 68 86 68h236l250 1001h-207q-82 0 -82 58q0 68 84 67h585q84 0 84 -57q0 -68 -86 -68h-235l-250 -1001h207q82 0 82 -57q0 -68 -86 -68h-584q-84 0 -84 57zM684 1460q0 16 8 28.5t17.5 17.5t29.5 14l305 122q27 10 39 11q27 0 47.5 -18.5t20.5 -49.5 q0 -51 -61 -76l-308 -120q-31 -10 -37 -11q-61 0 -61 82z" />
<glyph unicode="&#xce;" d="M176 57q0 68 86 68h236l250 1001h-207q-82 0 -82 58q0 68 84 67h585q84 0 84 -57q0 -68 -86 -68h-235l-250 -1001h207q82 0 82 -57q0 -68 -86 -68h-584q-84 0 -84 57zM591 1401q-9 55 50 76l256 88q16 6 39 0l227 -88q53 -20 25.5 -75.5t-80.5 -39.5l-215 68l-234 -68 q-59 -16 -68 39z" />
<glyph unicode="&#xcf;" d="M176 57q0 68 86 68h236l250 1001h-207q-82 0 -82 58q0 68 84 67h585q84 0 84 -57q0 -68 -86 -68h-235l-250 -1001h207q82 0 82 -57q0 -68 -86 -68h-584q-84 0 -84 57zM629 1434q2 35 28.5 62.5t63.5 27.5q33 0 54.5 -20.5t21.5 -55.5q0 -39 -29 -64.5t-61 -25.5 q-35 0 -55.5 23.5t-22.5 52.5zM995 1434q2 35 29 62.5t63 27.5q33 0 54.5 -20.5t21.5 -55.5q0 -39 -28.5 -64.5t-61.5 -25.5q-35 0 -55.5 23.5t-22.5 52.5z" />
<glyph unicode="&#xd0;" d="M53 57q0 68 86 68h60l108 438h-59q-27 0 -41 18.5t-6 45.5q6 27 28.5 45t49.5 18h61l109 436q-41 0 -60.5 2t-36 15.5t-16.5 40.5q0 68 84 67h438q88 0 153.5 -38.5t100.5 -103.5t50.5 -133.5t15.5 -141.5q0 -199 -88.5 -392.5t-235.5 -317.5t-307 -124h-410 q-84 0 -84 57zM342 125h197q131 0 246.5 104.5t181 260t65.5 309.5q0 41 -7 84t-28.5 104.5t-75 100t-133.5 38.5h-196l-109 -436h119q27 0 41 -18.5t6 -44.5q-6 -27 -28.5 -45.5t-49.5 -18.5h-120z" />
<glyph unicode="&#xd1;" d="M72 57q0 68 84 68h65l250 1001h-35q-84 0 -84 58q0 68 86 67h82q109 0 133.5 -10t30.5 -65l123 -1018h2l240 968q-43 0 -62.5 2t-37 15.5t-17.5 40.5q0 68 86 67h217q82 0 82 -57q0 -68 -86 -68h-64l-264 -1063q-8 -31 -21.5 -45t-24.5 -16t-40 -2h-20q-31 0 -49.5 4 t-26.5 17.5t-10 22.5t-6 32l-123 1018h-2l-242 -969h35q84 0 84 -57q0 -68 -86 -68h-217q-82 0 -82 57zM535 1423q0 31 34 54q160 127 256 127q49 0 79 -22.5t61 -65.5q18 -25 34 -25q43 0 170 90q33 23 50 23q27 0 45 -21.5t18 -44.5q0 -18 -20.5 -39.5t-38 -34 t-62.5 -41.5q-102 -66 -172 -65q-74 0 -137 84q-23 29 -37 28q-51 0 -162 -86q-37 -27 -57 -26q-25 0 -43 19t-18 46z" />
<glyph unicode="&#xd2;" d="M188 174q0 123 74 421t123 417q68 164 157 213t314 49q195 0 269.5 -37t74.5 -160q0 -119 -74.5 -422t-130.5 -432q-66 -154 -155.5 -200t-307.5 -46q-197 0 -270.5 37t-73.5 160zM342 244q0 -80 47 -111t174 -31q162 0 223.5 51.5t116.5 208.5q29 88 87.5 319.5 t58.5 328.5q0 84 -47.5 111.5t-178.5 27.5q-160 0 -222 -48t-116 -212q-33 -98 -88 -324.5t-55 -320.5zM717 1585q33 68 100 68q10 0 35 -11l244 -122q23 -12 28.5 -20.5t-4.5 -39.5q-10 -25 -38.5 -53.5t-63.5 -28.5q-6 0 -31 11l-248 120q-49 25 -22 76z" />
<glyph unicode="&#xd3;" d="M188 174q0 123 74 421t123 417q68 164 157 213t314 49q195 0 269.5 -37t74.5 -160q0 -119 -74.5 -422t-130.5 -432q-66 -154 -155.5 -200t-307.5 -46q-197 0 -270.5 37t-73.5 160zM342 244q0 -80 47 -111t174 -31q162 0 223.5 51.5t116.5 208.5q29 88 87.5 319.5 t58.5 328.5q0 84 -47.5 111.5t-178.5 27.5q-160 0 -222 -48t-116 -212q-33 -98 -88 -324.5t-55 -320.5zM684 1460q0 16 8 28.5t17.5 17.5t29.5 14l305 122q27 10 39 11q27 0 47.5 -18.5t20.5 -49.5q0 -51 -61 -76l-308 -120q-31 -10 -37 -11q-61 0 -61 82z" />
<glyph unicode="&#xd4;" d="M188 174q0 123 74 421t123 417q68 164 157 213t314 49q195 0 269.5 -37t74.5 -160q0 -119 -74.5 -422t-130.5 -432q-66 -154 -155.5 -200t-307.5 -46q-197 0 -270.5 37t-73.5 160zM342 244q0 -80 47 -111t174 -31q162 0 223.5 51.5t116.5 208.5q29 88 87.5 319.5 t58.5 328.5q0 84 -47.5 111.5t-178.5 27.5q-160 0 -222 -48t-116 -212q-33 -98 -88 -324.5t-55 -320.5zM591 1401q-9 55 50 76l256 88q16 6 39 0l227 -88q53 -20 25.5 -75.5t-80.5 -39.5l-215 68l-234 -68q-59 -16 -68 39z" />
<glyph unicode="&#xd5;" d="M188 174q0 123 74 421t123 417q68 164 157 213t314 49q195 0 269.5 -37t74.5 -160q0 -119 -74.5 -422t-130.5 -432q-66 -154 -155.5 -200t-307.5 -46q-197 0 -270.5 37t-73.5 160zM342 244q0 -80 47 -111t174 -31q162 0 223.5 51.5t116.5 208.5q29 88 87.5 319.5 t58.5 328.5q0 84 -47.5 111.5t-178.5 27.5q-160 0 -222 -48t-116 -212q-33 -98 -88 -324.5t-55 -320.5zM535 1423q0 31 34 54q160 127 256 127q49 0 79 -22.5t61 -65.5q18 -25 34 -25q43 0 170 90q33 23 50 23q27 0 45 -21.5t18 -44.5q0 -18 -20.5 -39.5t-38 -34 t-62.5 -41.5q-102 -66 -172 -65q-74 0 -137 84q-23 29 -37 28q-51 0 -162 -86q-37 -27 -57 -26q-25 0 -43 19t-18 46z" />
<glyph unicode="&#xd6;" d="M188 174q0 123 74 421t123 417q68 164 157 213t314 49q195 0 269.5 -37t74.5 -160q0 -119 -74.5 -422t-130.5 -432q-66 -154 -155.5 -200t-307.5 -46q-197 0 -270.5 37t-73.5 160zM342 244q0 -80 47 -111t174 -31q162 0 223.5 51.5t116.5 208.5q29 88 87.5 319.5 t58.5 328.5q0 84 -47.5 111.5t-178.5 27.5q-160 0 -222 -48t-116 -212q-33 -98 -88 -324.5t-55 -320.5zM629 1434q2 35 28.5 62.5t63.5 27.5q33 0 54.5 -20.5t21.5 -55.5q0 -39 -29 -64.5t-61 -25.5q-35 0 -55.5 23.5t-22.5 52.5zM995 1434q2 35 29 62.5t63 27.5 q33 0 54.5 -20.5t21.5 -55.5q0 -39 -28.5 -64.5t-61.5 -25.5q-35 0 -55.5 23.5t-22.5 52.5z" />
<glyph unicode="&#xd7;" d="M289 303q-49 35 28 105l275 217l-170 227q-39 45 12 88q29 23 63.5 26t55.5 -14q8 -4 22 -26l148 -195l240 191q84 68 137 28q49 -35 -29 -104l-272 -217l168 -221q37 -57 -11 -95q-27 -20 -62.5 -23t-55.5 11q-8 4 -23 29l-147 194l-242 -192q-84 -68 -137 -29z" />
<glyph unicode="&#xd8;" d="M188 174q0 123 74 421t123 417q68 164 157 213t314 49q88 0 137 -4l68 116q20 39 55 39q20 0 43 -15t23 -46q0 -16 -64 -123q82 -39 82 -164q0 -119 -74.5 -422t-130.5 -432q-66 -154 -155.5 -200t-307.5 -46q-88 0 -137 5l-49 -88q-18 -31 -26.5 -41.5t-19.5 -18.5 t-28 -8q-18 0 -41.5 14.5t-23.5 46.5q0 16 29 66q4 6 16 29.5t16 29.5q-80 39 -80 162zM317 252q0 -74 31 -102l574 997q-23 2 -97 2q-162 0 -228.5 -38t-117.5 -169q-41 -100 -101.5 -343t-60.5 -347zM467 104q23 -2 96 -2q160 0 227.5 38t118.5 167q41 109 101.5 351.5 t60.5 340.5q0 72 -31 103z" />
<glyph unicode="&#xd9;" d="M244 309q0 59 16 125l172 692h-45q-82 0 -82 58q0 68 84 67h266q84 0 84 -57q0 -68 -86 -68h-75l-181 -725q-12 -55 -12 -94q0 -94 45 -149.5t119 -55.5q100 0 201.5 95.5t136.5 234.5l172 694h-45q-82 0 -82 58q0 68 84 67h266q84 0 84 -57q0 -68 -86 -68h-76l-180 -727 q-41 -168 -179 -295t-298 -127q-133 0 -218 94.5t-85 237.5zM717 1585q33 68 100 68q10 0 35 -11l244 -122q23 -12 28.5 -20.5t-4.5 -39.5q-10 -25 -38.5 -53.5t-63.5 -28.5q-6 0 -31 11l-248 120q-49 25 -22 76z" />
<glyph unicode="&#xda;" d="M244 309q0 59 16 125l172 692h-45q-82 0 -82 58q0 68 84 67h266q84 0 84 -57q0 -68 -86 -68h-75l-181 -725q-12 -55 -12 -94q0 -94 45 -149.5t119 -55.5q100 0 201.5 95.5t136.5 234.5l172 694h-45q-82 0 -82 58q0 68 84 67h266q84 0 84 -57q0 -68 -86 -68h-76l-180 -727 q-41 -168 -179 -295t-298 -127q-133 0 -218 94.5t-85 237.5zM684 1460q0 16 8 28.5t17.5 17.5t29.5 14l305 122q27 10 39 11q27 0 47.5 -18.5t20.5 -49.5q0 -51 -61 -76l-308 -120q-31 -10 -37 -11q-61 0 -61 82z" />
<glyph unicode="&#xdb;" d="M244 309q0 59 16 125l172 692h-45q-82 0 -82 58q0 68 84 67h266q84 0 84 -57q0 -68 -86 -68h-75l-181 -725q-12 -55 -12 -94q0 -94 45 -149.5t119 -55.5q100 0 201.5 95.5t136.5 234.5l172 694h-45q-82 0 -82 58q0 68 84 67h266q84 0 84 -57q0 -68 -86 -68h-76l-180 -727 q-41 -168 -179 -295t-298 -127q-133 0 -218 94.5t-85 237.5zM591 1401q-9 55 50 76l256 88q16 6 39 0l227 -88q53 -20 25.5 -75.5t-80.5 -39.5l-215 68l-234 -68q-59 -16 -68 39z" />
<glyph unicode="&#xdc;" d="M244 309q0 59 16 125l172 692h-45q-82 0 -82 58q0 68 84 67h266q84 0 84 -57q0 -68 -86 -68h-75l-181 -725q-12 -55 -12 -94q0 -94 45 -149.5t119 -55.5q100 0 201.5 95.5t136.5 234.5l172 694h-45q-82 0 -82 58q0 68 84 67h266q84 0 84 -57q0 -68 -86 -68h-76l-180 -727 q-41 -168 -179 -295t-298 -127q-133 0 -218 94.5t-85 237.5zM629 1434q2 35 28.5 62.5t63.5 27.5q33 0 54.5 -20.5t21.5 -55.5q0 -39 -29 -64.5t-61 -25.5q-35 0 -55.5 23.5t-22.5 52.5zM995 1434q2 35 29 62.5t63 27.5q33 0 54.5 -20.5t21.5 -55.5q0 -39 -28.5 -64.5 t-61.5 -25.5q-35 0 -55.5 23.5t-22.5 52.5z" />
<glyph unicode="&#xdd;" d="M334 1184q0 68 86 67h213q82 0 82 -57q0 -33 -17.5 -48.5t-36 -17.5t-57.5 -2q92 -432 96 -483q35 70 129 201l205 282q-80 0 -80 58q0 68 86 67h213q82 0 82 -57q0 -68 -86 -68h-57l-459 -626l-94 -375h37q84 0 84 -57q0 -68 -86 -68h-244q-82 0 -82 57q0 68 84 68h66 l94 375l-146 626q-41 0 -59 2t-35.5 15.5t-17.5 40.5zM684 1460q0 16 8 28.5t17.5 17.5t29.5 14l305 122q27 10 39 11q27 0 47.5 -18.5t20.5 -49.5q0 -51 -61 -76l-308 -120q-31 -10 -37 -11q-61 0 -61 82z" />
<glyph unicode="&#xde;" d="M59 57q0 68 84 68h66l250 1001h-35q-84 0 -84 58q0 68 86 67h244q82 0 82 -57q0 -68 -86 -68h-64l-31 -125h256q154 0 231 -87t77 -197q0 -172 -147.5 -318.5t-348.5 -146.5h-256l-31 -127h35q84 0 84 -57q0 -68 -86 -68h-244q-82 0 -82 57zM418 377h215q150 0 252 96 t102 207q0 82 -57.5 139.5t-171.5 57.5h-217z" />
<glyph unicode="&#xdf;" d="M72 -328q0 66 32.5 94.5t69.5 28.5q66 0 84 -59h2q102 408 109 440l116 582h-67q-84 0 -84 57q0 68 86 68h92q12 68 19.5 99.5t20.5 81.5t28.5 72.5t40 53.5t56.5 43t78 21.5t105 9.5q154 0 212 -52.5t58 -117.5q0 -57 -59 -228q-35 -98 -100 -157q-57 -51 -72.5 -75 t-15.5 -48q0 -45 55 -109q76 -86 76 -182q0 -102 -78 -204.5t-188 -102.5q-78 0 -129.5 45t-51.5 110q0 43 20.5 71t38 34t33.5 6q31 0 54.5 -20.5t23.5 -55.5q0 -23 -8 -39l-10 -16q14 -10 31 -10q47 0 84.5 66.5t37.5 109.5q0 41 -47 100q-84 96 -84 193q0 61 27 106 t96 111q31 29 44.5 48t33.5 75q45 125 45 170q0 47 -129 47q-90 0 -126 -27t-54 -117l-186 -929q-53 -274 -116 -403.5t-171 -129.5q-59 0 -96 40t-37 99z" />
<glyph unicode="&#xe0;" d="M258 303q0 215 137 403.5t301 188.5q98 0 172 -82q6 18 25.5 34.5t46.5 16.5t47.5 -19.5t20.5 -47.5q0 -10 -9 -41l-133 -535q-8 -33 -8 -49q0 -59 43 -59q47 0 80 153q10 37 16.5 51.5t20.5 24.5t43 10q72 0 72 -57q0 -18 -20.5 -85t-47.5 -112q-68 -111 -166 -110 q-49 0 -89 23.5t-55.5 45t-23.5 39.5q-109 -109 -231 -108q-104 0 -173 85t-69 230zM397 295q0 -31 6.5 -68t32 -75.5t66.5 -38.5q96 0 195.5 151.5t99.5 321.5q0 78 -26 131t-79 53q-96 0 -195.5 -153.5t-99.5 -321.5zM623 1206q33 68 100 68q10 0 35 -10l243 -123 q23 -12 29 -20.5t-4 -39.5q-10 -25 -39 -53.5t-63 -28.5q-6 0 -31 11l-248 120q-49 25 -22 76z" />
<glyph unicode="&#xe1;" d="M258 303q0 215 137 403.5t301 188.5q98 0 172 -82q6 18 25.5 34.5t46.5 16.5t47.5 -19.5t20.5 -47.5q0 -10 -9 -41l-133 -535q-8 -33 -8 -49q0 -59 43 -59q47 0 80 153q10 37 16.5 51.5t20.5 24.5t43 10q72 0 72 -57q0 -18 -20.5 -85t-47.5 -112q-68 -111 -166 -110 q-49 0 -89 23.5t-55.5 45t-23.5 39.5q-109 -109 -231 -108q-104 0 -173 85t-69 230zM397 295q0 -31 6.5 -68t32 -75.5t66.5 -38.5q96 0 195.5 151.5t99.5 321.5q0 78 -26 131t-79 53q-96 0 -195.5 -153.5t-99.5 -321.5zM590 1081q0 16 8 28.5t17.5 18t29.5 13.5l305 123 q27 10 39 10q27 0 47.5 -18.5t20.5 -49.5q0 -51 -62 -76l-307 -120q-31 -10 -37 -11q-61 0 -61 82z" />
<glyph unicode="&#xe2;" d="M258 303q0 215 137 403.5t301 188.5q98 0 172 -82q6 18 25.5 34.5t46.5 16.5t47.5 -19.5t20.5 -47.5q0 -10 -9 -41l-133 -535q-8 -33 -8 -49q0 -59 43 -59q47 0 80 153q10 37 16.5 51.5t20.5 24.5t43 10q72 0 72 -57q0 -18 -20.5 -85t-47.5 -112q-68 -111 -166 -110 q-49 0 -89 23.5t-55.5 45t-23.5 39.5q-109 -109 -231 -108q-104 0 -173 85t-69 230zM397 295q0 -31 6.5 -68t32 -75.5t66.5 -38.5q96 0 195.5 151.5t99.5 321.5q0 78 -26 131t-79 53q-96 0 -195.5 -153.5t-99.5 -321.5zM505.5 1029q-24.5 50 33.5 83l268 154q35 20 61 0 l215 -154q45 -33 6.5 -83t-83.5 -19l-191 127l-229 -127q-56 -31 -80.5 19z" />
<glyph unicode="&#xe3;" d="M258 303q0 215 137 403.5t301 188.5q98 0 172 -82q6 18 25.5 34.5t46.5 16.5t47.5 -19.5t20.5 -47.5q0 -10 -9 -41l-133 -535q-8 -33 -8 -49q0 -59 43 -59q47 0 80 153q10 37 16.5 51.5t20.5 24.5t43 10q72 0 72 -57q0 -18 -20.5 -85t-47.5 -112q-68 -111 -166 -110 q-49 0 -89 23.5t-55.5 45t-23.5 39.5q-109 -109 -231 -108q-104 0 -173 85t-69 230zM397 295q0 -31 6.5 -68t32 -75.5t66.5 -38.5q96 0 195.5 151.5t99.5 321.5q0 78 -26 131t-79 53q-96 0 -195.5 -153.5t-99.5 -321.5zM449 1079q0 31 34 54q160 127 256 127q49 0 79 -23 t61 -66q18 -25 34 -24q43 0 170 90q33 23 50 23q27 0 45 -21.5t18 -44.5q0 -18 -20.5 -39.5t-38 -34t-62.5 -41.5q-102 -66 -172 -65q-74 0 -137 84q-23 29 -37 28q-51 0 -162 -86q-37 -27 -57 -26q-25 0 -43 19t-18 46z" />
<glyph unicode="&#xe4;" d="M258 303q0 215 137 403.5t301 188.5q98 0 172 -82q6 18 25.5 34.5t46.5 16.5t47.5 -19.5t20.5 -47.5q0 -10 -9 -41l-133 -535q-8 -33 -8 -49q0 -59 43 -59q47 0 80 153q10 37 16.5 51.5t20.5 24.5t43 10q72 0 72 -57q0 -18 -20.5 -85t-47.5 -112q-68 -111 -166 -110 q-49 0 -89 23.5t-55.5 45t-23.5 39.5q-109 -109 -231 -108q-104 0 -173 85t-69 230zM397 295q0 -31 6.5 -68t32 -75.5t66.5 -38.5q96 0 195.5 151.5t99.5 321.5q0 78 -26 131t-79 53q-96 0 -195.5 -153.5t-99.5 -321.5zM584 1130q0 33 27.5 62t64.5 29q31 0 52.5 -20.5 t21.5 -55.5q2 -39 -28 -64.5t-63 -25.5q-35 0 -55 23t-20 52zM893 1130q0 33 27.5 62t64.5 29q31 0 52.5 -20.5t21.5 -55.5q2 -39 -28 -64.5t-62 -25.5q-35 0 -55.5 23t-20.5 52z" />
<glyph unicode="&#xe5;" d="M258 303q0 215 137 403.5t301 188.5q98 0 172 -82q6 18 25.5 34.5t46.5 16.5t47.5 -19.5t20.5 -47.5q0 -10 -9 -41l-133 -535q-8 -33 -8 -49q0 -59 43 -59q47 0 80 153q10 37 16.5 51.5t20.5 24.5t43 10q72 0 72 -57q0 -18 -20.5 -85t-47.5 -112q-68 -111 -166 -110 q-49 0 -89 23.5t-55.5 45t-23.5 39.5q-109 -109 -231 -108q-104 0 -173 85t-69 230zM397 295q0 -31 6.5 -68t32 -75.5t66.5 -38.5q96 0 195.5 151.5t99.5 321.5q0 78 -26 131t-79 53q-96 0 -195.5 -153.5t-99.5 -321.5zM612 1147q0 76 80 140.5t187 64.5q74 0 125 -37 t51 -103q0 -78 -80 -141t-187 -63q-78 0 -127 41t-49 98zM727 1163q0 -27 24.5 -45t63.5 -18q45 0 85 28.5t40 67.5q0 63 -88 64q-49 0 -87 -30t-38 -67z" />
<glyph unicode="&#xe6;" d="M121 223q0 90 57.5 205t145.5 203q119 121 255 194.5t166 73.5q61 0 62 -80q90 76 186 76q84 0 132.5 -57.5t48.5 -139.5q0 -137 -118 -224t-360 -87q-8 -57 -8 -84q0 -37 6 -73.5t35 -76.5t76 -40q131 0 223 92q20 20 43 20q25 0 41 -16t16 -41q0 -51 -108.5 -115.5 t-218.5 -64.5q-119 0 -180 104q-12 -59 -24.5 -81.5t-45.5 -22.5q-55 0 -59 61q-70 -61 -150 -61q-90 0 -155.5 63t-65.5 172zM262 221q0 -59 25.5 -83.5t58.5 -24.5q76 0 166 143q53 88 100 279l50 192q-193 -100 -296.5 -252t-103.5 -254zM731 512q326 14 326 180 q0 78 -68 78q-63 0 -140 -74.5t-118 -183.5z" />
<glyph unicode="&#xe7;" d="M266 -367q0 47 30 57.5t107 10.5q307 0 308 109q0 31 -38 43t-69 12q-29 0 -44 14.5t-17 28.5l-2 14q0 8 16 70q-104 16 -168 78q-109 104 -108 264q0 213 161.5 387t360.5 174q109 0 177.5 -56.5t68.5 -138.5q0 -55 -29 -90t-76 -35q-35 0 -59.5 21.5t-24.5 60.5 q0 51 35 76q-31 37 -96 37q-135 0 -256 -137t-121 -301q0 -219 211 -219q229 0 334 94q25 18 45 18q25 0 48 -23.5t23 -49.5q0 -43 -62.5 -80t-113.5 -54q-88 -27 -205 -30l-4 -11q88 -23 122 -70.5t34 -94.5q0 -27 -7 -56.5t-50 -77t-119 -71.5q-104 -33 -346 -33 q-35 0 -50.5 19.5t-15.5 39.5z" />
<glyph unicode="&#xe8;" d="M283 338q0 219 161.5 388t358.5 169q111 0 182.5 -60.5t71.5 -152.5q0 -33 -8.5 -67.5t-51.5 -89t-116 -85.5q-119 -53 -349 -53h-67q-29 0 -35 -7t-6 -46q0 -221 209 -221q229 0 334 94q25 18 45 18q25 0 48 -23.5t23 -49.5q0 -43 -62.5 -80t-113.5 -54 q-96 -31 -266 -30q-53 0 -85 3t-83 25.5t-94 65.5q-96 92 -96 256zM463 512h61q391 0 391 170q0 39 -31.5 63.5t-84.5 24.5q-90 0 -187.5 -70.5t-148.5 -187.5zM623 1206q33 68 100 68q10 0 35 -10l243 -123q23 -12 29 -20.5t-4 -39.5q-10 -25 -39 -53.5t-63 -28.5 q-6 0 -31 11l-248 120q-49 25 -22 76z" />
<glyph unicode="&#xe9;" d="M283 338q0 219 161.5 388t358.5 169q111 0 182.5 -60.5t71.5 -152.5q0 -33 -8.5 -67.5t-51.5 -89t-116 -85.5q-119 -53 -349 -53h-67q-29 0 -35 -7t-6 -46q0 -221 209 -221q229 0 334 94q25 18 45 18q25 0 48 -23.5t23 -49.5q0 -43 -62.5 -80t-113.5 -54 q-96 -31 -266 -30q-53 0 -85 3t-83 25.5t-94 65.5q-96 92 -96 256zM463 512h61q391 0 391 170q0 39 -31.5 63.5t-84.5 24.5q-90 0 -187.5 -70.5t-148.5 -187.5zM590 1081q0 16 8 28.5t17.5 18t29.5 13.5l305 123q27 10 39 10q27 0 47.5 -18.5t20.5 -49.5q0 -51 -62 -76 l-307 -120q-31 -10 -37 -11q-61 0 -61 82z" />
<glyph unicode="&#xea;" d="M283 338q0 219 161.5 388t358.5 169q111 0 182.5 -60.5t71.5 -152.5q0 -33 -8.5 -67.5t-51.5 -89t-116 -85.5q-119 -53 -349 -53h-67q-29 0 -35 -7t-6 -46q0 -221 209 -221q229 0 334 94q25 18 45 18q25 0 48 -23.5t23 -49.5q0 -43 -62.5 -80t-113.5 -54 q-96 -31 -266 -30q-53 0 -85 3t-83 25.5t-94 65.5q-96 92 -96 256zM463 512h61q391 0 391 170q0 39 -31.5 63.5t-84.5 24.5q-90 0 -187.5 -70.5t-148.5 -187.5zM505.5 1029q-24.5 50 33.5 83l268 154q35 20 61 0l215 -154q45 -33 6.5 -83t-83.5 -19l-191 127l-229 -127 q-56 -31 -80.5 19z" />
<glyph unicode="&#xeb;" d="M283 338q0 219 161.5 388t358.5 169q111 0 182.5 -60.5t71.5 -152.5q0 -33 -8.5 -67.5t-51.5 -89t-116 -85.5q-119 -53 -349 -53h-67q-29 0 -35 -7t-6 -46q0 -221 209 -221q229 0 334 94q25 18 45 18q25 0 48 -23.5t23 -49.5q0 -43 -62.5 -80t-113.5 -54 q-96 -31 -266 -30q-53 0 -85 3t-83 25.5t-94 65.5q-96 92 -96 256zM463 512h61q391 0 391 170q0 39 -31.5 63.5t-84.5 24.5q-90 0 -187.5 -70.5t-148.5 -187.5zM584 1130q0 33 27.5 62t64.5 29q31 0 52.5 -20.5t21.5 -55.5q2 -39 -28 -64.5t-63 -25.5q-35 0 -55 23t-20 52z M893 1130q0 33 27.5 62t64.5 29q31 0 52.5 -20.5t21.5 -55.5q2 -39 -28 -64.5t-62 -25.5q-35 0 -55.5 23t-20.5 52z" />
<glyph unicode="&#xec;" d="M293 588q0 74 94 190.5t231 116.5q84 0 141.5 -51t57.5 -129q0 -37 -37 -129l-49 -123l-65 -164q-45 -119 -45 -131q0 -55 61 -55q49 0 101.5 50t76.5 136q6 18 10 26.5t19.5 17.5t42.5 9q72 0 72 -57q0 -74 -94.5 -190.5t-231.5 -116.5q-84 0 -141.5 50t-57.5 130 q0 39 17 82l170 422q10 31 10 43q0 55 -62 55q-43 0 -95 -43t-85 -145q-8 -27 -22.5 -39.5t-49.5 -12.5q-69 1 -69 58zM623 1206q33 68 100 68q10 0 35 -10l243 -123q23 -12 29 -20.5t-4 -39.5q-10 -25 -39 -53.5t-63 -28.5q-6 0 -31 11l-248 120q-49 25 -22 76z" />
<glyph unicode="&#xed;" d="M293 588q0 74 94 190.5t231 116.5q84 0 141.5 -51t57.5 -129q0 -37 -37 -129l-49 -123l-65 -164q-45 -119 -45 -131q0 -55 61 -55q49 0 101.5 50t76.5 136q6 18 10 26.5t19.5 17.5t42.5 9q72 0 72 -57q0 -74 -94.5 -190.5t-231.5 -116.5q-84 0 -141.5 50t-57.5 130 q0 39 17 82l170 422q10 31 10 43q0 55 -62 55q-43 0 -95 -43t-85 -145q-8 -27 -22.5 -39.5t-49.5 -12.5q-69 1 -69 58zM590 1081q0 16 8 28.5t17.5 18t29.5 13.5l305 123q27 10 39 10q27 0 47.5 -18.5t20.5 -49.5q0 -51 -62 -76l-307 -120q-31 -10 -37 -11q-61 0 -61 82z " />
<glyph unicode="&#xee;" d="M293 588q0 74 94 190.5t231 116.5q84 0 141.5 -51t57.5 -129q0 -37 -37 -129l-49 -123l-65 -164q-45 -119 -45 -131q0 -55 61 -55q49 0 101.5 50t76.5 136q6 18 10 26.5t19.5 17.5t42.5 9q72 0 72 -57q0 -74 -94.5 -190.5t-231.5 -116.5q-84 0 -141.5 50t-57.5 130 q0 39 17 82l170 422q10 31 10 43q0 55 -62 55q-43 0 -95 -43t-85 -145q-8 -27 -22.5 -39.5t-49.5 -12.5q-69 1 -69 58zM505.5 1029q-24.5 50 33.5 83l268 154q35 20 61 0l215 -154q45 -33 6.5 -83t-83.5 -19l-191 127l-229 -127q-56 -31 -80.5 19z" />
<glyph unicode="&#xef;" d="M293 588q0 74 94 190.5t231 116.5q84 0 141.5 -51t57.5 -129q0 -37 -37 -129l-49 -123l-65 -164q-45 -119 -45 -131q0 -55 61 -55q49 0 101.5 50t76.5 136q6 18 10 26.5t19.5 17.5t42.5 9q72 0 72 -57q0 -74 -94.5 -190.5t-231.5 -116.5q-84 0 -141.5 50t-57.5 130 q0 39 17 82l170 422q10 31 10 43q0 55 -62 55q-43 0 -95 -43t-85 -145q-8 -27 -22.5 -39.5t-49.5 -12.5q-69 1 -69 58zM584 1130q0 33 27.5 62t64.5 29q31 0 52.5 -20.5t21.5 -55.5q2 -39 -28 -64.5t-63 -25.5q-35 0 -55 23t-20 52zM893 1130q0 33 27.5 62t64.5 29 q31 0 52.5 -20.5t21.5 -55.5q2 -39 -28 -64.5t-62 -25.5q-35 0 -55.5 23t-20.5 52z" />
<glyph unicode="&#xf0;" d="M260 322q0 215 151.5 394t333.5 179q127 0 207 -92q16 139 -8 217l-51 -37q-16 -14 -45 -14q-27 0 -41 18.5t-6 44.5q6 27 33 47l45 31q-45 29 -111 29q-27 0 -40 18.5t-7 45t29.5 45t50.5 18.5q121 0 192 -72l60 43q20 14 45 14q27 0 40 -18.5t7 -45t-33 -46.5l-61 -43 q35 -86 34 -217q0 -186 -67 -457q-41 -150 -137 -262q-154 -174 -332 -174q-127 0 -208 95.5t-81 238.5zM401 317q0 -86 39 -145t113 -59q119 0 230.5 144t111.5 308q0 78 -37 141.5t-115 63.5q-119 0 -230.5 -142.5t-111.5 -310.5z" />
<glyph unicode="&#xf1;" d="M164 588q0 18 19.5 85.5t41.5 110.5q59 111 162 111q117 0 156 -113q113 113 248 113q94 0 148 -57.5t54 -155.5q0 -109 -106 -414q-35 -100 -35 -123q0 -33 18 -32q68 0 117 174q6 23 11.5 34t20.5 21t42 10q72 0 72 -57q0 -29 -25 -95.5t-90.5 -139t-151.5 -72.5 q-68 0 -110.5 46t-42.5 120q0 43 22 110q117 328 117 420q0 86 -66 86q-119 0 -217 -184q-76 -150 -153 -461q-20 -84 -35.5 -110.5t-56.5 -26.5q-27 0 -47.5 19.5t-20.5 47.5q0 12 8 41l144 572q6 25 6 49q0 51 -27 51q-23 0 -44 -56.5t-30 -99.5q-8 -35 -14 -48 t-21.5 -23.5t-44.5 -10.5q-69 1 -69 58zM449 1079q0 31 34 54q160 127 256 127q49 0 79 -23t61 -66q18 -25 34 -24q43 0 170 90q33 23 50 23q27 0 45 -21.5t18 -44.5q0 -18 -20.5 -39.5t-38 -34t-62.5 -41.5q-102 -66 -172 -65q-74 0 -137 84q-23 29 -37 28q-51 0 -162 -86 q-37 -27 -57 -26q-25 0 -43 19t-18 46z" />
<glyph unicode="&#xf2;" d="M260 322q0 215 151.5 394t333.5 179q121 0 205 -89t84 -245q0 -221 -152.5 -397t-332.5 -176q-127 0 -208 95.5t-81 238.5zM401 317q0 -86 39 -145t113 -59q119 0 230.5 144t111.5 308q0 78 -37 141.5t-115 63.5q-119 0 -230.5 -142.5t-111.5 -310.5zM623 1206 q33 68 100 68q10 0 35 -10l243 -123q23 -12 29 -20.5t-4 -39.5q-10 -25 -39 -53.5t-63 -28.5q-6 0 -31 11l-248 120q-49 25 -22 76z" />
<glyph unicode="&#xf3;" d="M260 322q0 215 151.5 394t333.5 179q121 0 205 -89t84 -245q0 -221 -152.5 -397t-332.5 -176q-127 0 -208 95.5t-81 238.5zM401 317q0 -86 39 -145t113 -59q119 0 230.5 144t111.5 308q0 78 -37 141.5t-115 63.5q-119 0 -230.5 -142.5t-111.5 -310.5zM590 1081 q0 16 8 28.5t17.5 18t29.5 13.5l305 123q27 10 39 10q27 0 47.5 -18.5t20.5 -49.5q0 -51 -62 -76l-307 -120q-31 -10 -37 -11q-61 0 -61 82z" />
<glyph unicode="&#xf4;" d="M260 322q0 215 151.5 394t333.5 179q121 0 205 -89t84 -245q0 -221 -152.5 -397t-332.5 -176q-127 0 -208 95.5t-81 238.5zM401 317q0 -86 39 -145t113 -59q119 0 230.5 144t111.5 308q0 78 -37 141.5t-115 63.5q-119 0 -230.5 -142.5t-111.5 -310.5zM505.5 1029 q-24.5 50 33.5 83l268 154q35 20 61 0l215 -154q45 -33 6.5 -83t-83.5 -19l-191 127l-229 -127q-56 -31 -80.5 19z" />
<glyph unicode="&#xf5;" d="M260 322q0 215 151.5 394t333.5 179q121 0 205 -89t84 -245q0 -221 -152.5 -397t-332.5 -176q-127 0 -208 95.5t-81 238.5zM401 317q0 -86 39 -145t113 -59q119 0 230.5 144t111.5 308q0 78 -37 141.5t-115 63.5q-119 0 -230.5 -142.5t-111.5 -310.5zM449 1079 q0 31 34 54q160 127 256 127q49 0 79 -23t61 -66q18 -25 34 -24q43 0 170 90q33 23 50 23q27 0 45 -21.5t18 -44.5q0 -18 -20.5 -39.5t-38 -34t-62.5 -41.5q-102 -66 -172 -65q-74 0 -137 84q-23 29 -37 28q-51 0 -162 -86q-37 -27 -57 -26q-25 0 -43 19t-18 46z" />
<glyph unicode="&#xf6;" d="M260 322q0 215 151.5 394t333.5 179q121 0 205 -89t84 -245q0 -221 -152.5 -397t-332.5 -176q-127 0 -208 95.5t-81 238.5zM401 317q0 -86 39 -145t113 -59q119 0 230.5 144t111.5 308q0 78 -37 141.5t-115 63.5q-119 0 -230.5 -142.5t-111.5 -310.5zM584 1130 q0 33 27.5 62t64.5 29q31 0 52.5 -20.5t21.5 -55.5q2 -39 -28 -64.5t-63 -25.5q-35 0 -55 23t-20 52zM893 1130q0 33 27.5 62t64.5 29q31 0 52.5 -20.5t21.5 -55.5q2 -39 -28 -64.5t-62 -25.5q-35 0 -55.5 23t-20.5 52z" />
<glyph unicode="&#xf7;" d="M233 626.5q0 71.5 105 71.5h711q104 0 104 -71.5t-90 -71.5h-737q-93 0 -93 71.5zM455 174q0 61 46 103t99 42t84 -34.5t31 -75.5q0 -55 -44 -100.5t-104 -45.5q-45 0 -78.5 30t-33.5 81zM672 1042q0 61 46 103.5t99 42.5t84 -35t31 -76q0 -55 -44 -100t-104 -45 q-45 0 -78.5 29.5t-33.5 80.5z" />
<glyph unicode="&#xf8;" d="M119 -225q0 20 37 69l176 254q-57 94 -58 215q0 223 148.5 405.5t325.5 182.5q55 0 104 -22l16 -7q8 0 19 19l170 246q23 33 55 32q20 0 43 -16t23 -45q0 -16 -19 -43l-196 -283q59 -82 59 -213q0 -219 -148.5 -403t-326.5 -184q-61 0 -121 30l-81 -112l-62 -90l-37 -54 q-14 -18 -20.5 -24t-16.5 -12.5t-25 -6.5q-20 0 -42.5 16.5t-22.5 45.5zM389 319q0 -61 21 -110l389 557q-23 8 -56 8q-127 0 -240.5 -144.5t-113.5 -310.5zM498 117q18 -8 53 -8q129 0 242.5 145t113.5 309q0 66 -20 111z" />
<glyph unicode="&#xf9;" d="M164 588q0 31 26.5 98.5t94 138t153.5 70.5q66 0 112 -45t46 -125q0 -43 -25 -113q-104 -285 -104 -383q0 -117 86 -116q150 0 240 344l88 354q20 72 75 72q25 0 46.5 -16.5t21.5 -51.5q0 -12 -8 -43l-137 -555q-8 -31 -9 -47q0 -57 35 -57q39 0 80 163q6 23 9 32 t11.5 22.5t21.5 17.5t34 4q72 0 72 -57q0 -16 -19.5 -84t-48.5 -117q-59 -106 -161.5 -106t-151.5 88q-90 -88 -203 -88q-94 0 -158.5 61.5t-64.5 181.5q0 113 110 422q20 57 21 80q0 37 -23 37q-76 0 -127 -180q-6 -20 -10 -30.5t-20.5 -20t-43.5 -9.5q-69 1 -69 58z M623 1206q33 68 100 68q10 0 35 -10l243 -123q23 -12 29 -20.5t-4 -39.5q-10 -25 -39 -53.5t-63 -28.5q-6 0 -31 11l-248 120q-49 25 -22 76z" />
<glyph unicode="&#xfa;" d="M164 588q0 31 26.5 98.5t94 138t153.5 70.5q66 0 112 -45t46 -125q0 -43 -25 -113q-104 -285 -104 -383q0 -117 86 -116q150 0 240 344l88 354q20 72 75 72q25 0 46.5 -16.5t21.5 -51.5q0 -12 -8 -43l-137 -555q-8 -31 -9 -47q0 -57 35 -57q39 0 80 163q6 23 9 32 t11.5 22.5t21.5 17.5t34 4q72 0 72 -57q0 -16 -19.5 -84t-48.5 -117q-59 -106 -161.5 -106t-151.5 88q-90 -88 -203 -88q-94 0 -158.5 61.5t-64.5 181.5q0 113 110 422q20 57 21 80q0 37 -23 37q-76 0 -127 -180q-6 -20 -10 -30.5t-20.5 -20t-43.5 -9.5q-69 1 -69 58z M590 1081q0 16 8 28.5t17.5 18t29.5 13.5l305 123q27 10 39 10q27 0 47.5 -18.5t20.5 -49.5q0 -51 -62 -76l-307 -120q-31 -10 -37 -11q-61 0 -61 82z" />
<glyph unicode="&#xfb;" d="M164 588q0 31 26.5 98.5t94 138t153.5 70.5q66 0 112 -45t46 -125q0 -43 -25 -113q-104 -285 -104 -383q0 -117 86 -116q150 0 240 344l88 354q20 72 75 72q25 0 46.5 -16.5t21.5 -51.5q0 -12 -8 -43l-137 -555q-8 -31 -9 -47q0 -57 35 -57q39 0 80 163q6 23 9 32 t11.5 22.5t21.5 17.5t34 4q72 0 72 -57q0 -16 -19.5 -84t-48.5 -117q-59 -106 -161.5 -106t-151.5 88q-90 -88 -203 -88q-94 0 -158.5 61.5t-64.5 181.5q0 113 110 422q20 57 21 80q0 37 -23 37q-76 0 -127 -180q-6 -20 -10 -30.5t-20.5 -20t-43.5 -9.5q-69 1 -69 58z M505.5 1029q-24.5 50 33.5 83l268 154q35 20 61 0l215 -154q45 -33 6.5 -83t-83.5 -19l-191 127l-229 -127q-56 -31 -80.5 19z" />
<glyph unicode="&#xfc;" d="M164 588q0 31 26.5 98.5t94 138t153.5 70.5q66 0 112 -45t46 -125q0 -43 -25 -113q-104 -285 -104 -383q0 -117 86 -116q150 0 240 344l88 354q20 72 75 72q25 0 46.5 -16.5t21.5 -51.5q0 -12 -8 -43l-137 -555q-8 -31 -9 -47q0 -57 35 -57q39 0 80 163q6 23 9 32 t11.5 22.5t21.5 17.5t34 4q72 0 72 -57q0 -16 -19.5 -84t-48.5 -117q-59 -106 -161.5 -106t-151.5 88q-90 -88 -203 -88q-94 0 -158.5 61.5t-64.5 181.5q0 113 110 422q20 57 21 80q0 37 -23 37q-76 0 -127 -180q-6 -20 -10 -30.5t-20.5 -20t-43.5 -9.5q-69 1 -69 58z M584 1130q0 33 27.5 62t64.5 29q31 0 52.5 -20.5t21.5 -55.5q2 -39 -28 -64.5t-63 -25.5q-35 0 -55 23t-20 52zM893 1130q0 33 27.5 62t64.5 29q31 0 52.5 -20.5t21.5 -55.5q2 -39 -28 -64.5t-62 -25.5q-35 0 -55.5 23t-20.5 52z" />
<glyph unicode="&#xfd;" d="M164 588q0 23 18.5 70t52 102t93 95t127.5 40q70 0 120 -46t50 -128q0 -45 -45 -162q-84 -227 -84 -319q0 -127 108 -127q53 0 98.5 34.5t75 80.5t59 130t45 140.5t38.5 152.5l38 150q6 25 11.5 37t23 28.5t43.5 16.5q25 0 46.5 -16.5t21.5 -51.5q0 -12 -8 -43l-199 -799 q-39 -158 -167 -299t-292 -141q-92 0 -152.5 55.5t-60.5 143.5q0 43 13.5 72.5t33 41t32.5 14.5t26 3q35 0 59.5 -22.5t24.5 -59.5l-8 -31q-8 -31 -35 -49q16 -43 69 -43q104 0 198.5 111.5t127.5 267.5q-98 -49 -166 -49q-100 0 -173 61.5t-73 192.5q0 113 105 395 q27 66 26 88q0 45 -34 45q-43 0 -81 -50t-63 -130q-6 -23 -11 -32t-20.5 -18.5t-42.5 -9.5q-69 1 -69 58zM590 1081q0 16 8 28.5t17.5 18t29.5 13.5l305 123q27 10 39 10q27 0 47.5 -18.5t20.5 -49.5q0 -51 -62 -76l-307 -120q-31 -10 -37 -11q-61 0 -61 82z" />
<glyph unicode="&#xfe;" d="M23 -397q0 68 86 67h73l365 1456h-117q-84 0 -84 58q0 68 86 67h191q84 0 84 -57q0 -4 -7 -35l-86 -342q106 78 213 78q121 0 197 -92t76 -236q0 -219 -151.5 -399t-348.5 -180q-68 0 -117 32.5t-57 49.5l-98 -400h92q82 0 82 -57q0 -68 -86 -68h-310q-83 1 -83 58z M500 309q0 -74 32.5 -135t102.5 -61q111 0 217 144t106 314q0 90 -36.5 144.5t-96.5 54.5q-111 0 -218 -145.5t-107 -315.5z" />
<glyph unicode="&#xff;" d="M164 588q0 23 18.5 70t52 102t93 95t127.5 40q70 0 120 -46t50 -128q0 -45 -45 -162q-84 -227 -84 -319q0 -127 108 -127q53 0 98.5 34.5t75 80.5t59 130t45 140.5t38.5 152.5l38 150q6 25 11.5 37t23 28.5t43.5 16.5q25 0 46.5 -16.5t21.5 -51.5q0 -12 -8 -43l-199 -799 q-39 -158 -167 -299t-292 -141q-92 0 -152.5 55.5t-60.5 143.5q0 43 13.5 72.5t33 41t32.5 14.5t26 3q35 0 59.5 -22.5t24.5 -59.5l-8 -31q-8 -31 -35 -49q16 -43 69 -43q104 0 198.5 111.5t127.5 267.5q-98 -49 -166 -49q-100 0 -173 61.5t-73 192.5q0 113 105 395 q27 66 26 88q0 45 -34 45q-43 0 -81 -50t-63 -130q-6 -23 -11 -32t-20.5 -18.5t-42.5 -9.5q-69 1 -69 58zM584 1130q0 33 27.5 62t64.5 29q31 0 52.5 -20.5t21.5 -55.5q2 -39 -28 -64.5t-63 -25.5q-35 0 -55 23t-20 52zM893 1130q0 33 27.5 62t64.5 29q31 0 52.5 -20.5 t21.5 -55.5q2 -39 -28 -64.5t-62 -25.5q-35 0 -55.5 23t-20.5 52z" />
<glyph unicode="&#x100;" d="M70 57l8 27q8 27 31 35q10 6 100 6l522 1083q16 31 38 47.5t38 18.5t49 2q35 0 50.5 -2t28.5 -18.5t13 -51.5l-18 -1079q35 0 53 -2t35.5 -15.5t17.5 -39.5q0 -68 -90 -68h-209q-86 0 -86 57q0 49 39 64q10 4 94 4l4 213h-331l-103 -213q33 0 50.5 -2t35 -15.5 t17.5 -39.5q0 -68 -90 -68h-209q-88 0 -88 57zM514 1456q0 72 86 72h610q82 0 82 -58q0 -72 -86 -71h-610q-82 0 -82 57zM518 463h270l27 641l-2 2z" />
<glyph unicode="&#x101;" d="M258 303q0 215 137 403.5t301 188.5q98 0 172 -82q6 18 25.5 34.5t46.5 16.5t47.5 -19.5t20.5 -47.5q0 -10 -9 -41l-133 -535q-8 -33 -8 -49q0 -59 43 -59q47 0 80 153q10 37 16.5 51.5t20.5 24.5t43 10q72 0 72 -57q0 -18 -20.5 -85t-47.5 -112q-68 -111 -166 -110 q-49 0 -89 23.5t-55.5 45t-23.5 39.5q-109 -109 -231 -108q-104 0 -173 85t-69 230zM397 295q0 -31 6.5 -68t32 -75.5t66.5 -38.5q96 0 195.5 151.5t99.5 321.5q0 78 -26 131t-79 53q-96 0 -195.5 -153.5t-99.5 -321.5zM432 1130q0 72 86 72h610q82 0 82 -57q0 -72 -86 -72 h-610q-82 0 -82 57z" />
<glyph unicode="&#x102;" d="M70 57l8 27q8 27 31 35q10 6 100 6l522 1083q16 31 38 47.5t38 18.5t49 2q35 0 50.5 -2t28.5 -18.5t13 -51.5l-18 -1079q35 0 53 -2t35.5 -15.5t17.5 -39.5q0 -68 -90 -68h-209q-86 0 -86 57q0 49 39 64q10 4 94 4l4 213h-331l-103 -213q33 0 50.5 -2t35 -15.5 t17.5 -39.5q0 -68 -90 -68h-209q-88 0 -88 57zM518 463h270l27 641l-2 2zM561 1528q0 82 66 82q61 0 61 -78q51 -23 213 -23q238 0 262 52q18 49 62 49q35 0 49 -19.5t14 -38.5q0 -43 -41 -88q-35 -39 -100.5 -59.5t-113.5 -23.5t-134 -3q-49 0 -75.5 1t-74 4t-75 13.5 t-57 26t-43 42t-13.5 63.5z" />
<glyph unicode="&#x103;" d="M258 303q0 215 137 403.5t301 188.5q98 0 172 -82q6 18 25.5 34.5t46.5 16.5t47.5 -19.5t20.5 -47.5q0 -10 -9 -41l-133 -535q-8 -33 -8 -49q0 -59 43 -59q47 0 80 153q10 37 16.5 51.5t20.5 24.5t43 10q72 0 72 -57q0 -18 -20.5 -85t-47.5 -112q-68 -111 -166 -110 q-49 0 -89 23.5t-55.5 45t-23.5 39.5q-109 -109 -231 -108q-104 0 -173 85t-69 230zM397 295q0 -31 6.5 -68t32 -75.5t66.5 -38.5q96 0 195.5 151.5t99.5 321.5q0 78 -26 131t-79 53q-96 0 -195.5 -153.5t-99.5 -321.5zM471 1171q0 82 66 82q61 0 61 -77q51 -23 213 -23 q238 0 262 51q18 49 62 49q35 0 49 -19.5t14 -37.5q0 -43 -41 -88q-35 -39 -100.5 -59.5t-113.5 -23.5t-134 -3q-49 0 -75.5 1t-74 4t-75 13.5t-57 25.5t-43 41.5t-13.5 63.5z" />
<glyph unicode="&#x104;" d="M70 57l8 27q8 27 31 35q10 6 100 6l522 1083q16 31 38 47.5t38 18.5t49 2q35 0 50.5 -2t28.5 -18.5t13 -51.5l-18 -1079q35 0 53 -2t35.5 -15.5t17.5 -39.5q0 -68 -90 -68q-248 -135 -248 -266q0 -39 32 -63.5t67 -24.5q63 0 125 84q10 10 38.5 14t45.5 -4q12 -12 17 -40 t-7 -44q-100 -133 -228 -133q-100 0 -162.5 67.5t-62.5 147.5q0 141 182 262q-94 0 -94 57q0 49 39 64q10 4 94 4l4 213h-331l-103 -213q33 0 50.5 -2t35 -15.5t17.5 -39.5q0 -68 -90 -68h-209q-88 0 -88 57zM518 463h270l27 641l-2 2z" />
<glyph unicode="&#x105;" d="M258 303q0 215 137 403.5t301 188.5q98 0 172 -82q6 18 25.5 34.5t46.5 16.5t47.5 -19.5t20.5 -47.5q0 -10 -9 -41l-133 -535q-8 -33 -8 -49q0 -59 43 -59q47 0 80 153q10 37 16.5 51.5t20.5 24.5t43 10q72 0 72 -57q0 -18 -20.5 -85t-47.5 -112q-68 -111 -166 -110 q-215 -137 -215 -254q0 -39 32 -63.5t66 -24.5q63 0 125 84q10 10 39 14t45 -4q12 -12 17.5 -40t-7.5 -44q-100 -133 -227 -133q-100 0 -162.5 67.5t-62.5 147.5q0 78 67.5 161t161.5 134q-29 27 -47 63q-109 -109 -231 -108q-104 0 -173 85t-69 230zM397 295q0 -31 6.5 -68 t32 -75.5t66.5 -38.5q96 0 195.5 151.5t99.5 321.5q0 78 -26 131t-79 53q-96 0 -195.5 -153.5t-99.5 -321.5z" />
<glyph unicode="&#x106;" d="M213 434q0 203 96.5 398.5t252 318.5t319.5 123q145 0 247 -100q14 16 25.5 33.5t17.5 25.5q33 41 66 41q31 0 46 -18.5t15 -38.5q0 -10 -6 -29l-75 -305q-10 -39 -28 -50.5t-46 -11.5q-72 0 -72 60q0 2 2 16t2 39q0 98 -50 155.5t-138 57.5q-188 0 -360.5 -226.5 t-172.5 -486.5q0 -139 63.5 -236.5t182.5 -97.5q47 0 103.5 16.5t131 81t107.5 169.5q14 43 70 43q70 0 69 -58q0 -43 -35.5 -105.5t-96 -124t-158 -104.5t-203.5 -43q-172 0 -273.5 131t-101.5 326zM739 1460q0 16 8.5 28.5t17.5 17.5t30 14l305 122q27 10 39 11 q27 0 47 -18.5t20 -49.5q0 -51 -61 -76l-307 -120q-31 -10 -37 -11q-62 0 -62 82z" />
<glyph unicode="&#x107;" d="M281 334q0 213 161.5 387t360.5 174q109 0 177.5 -56.5t68.5 -138.5q0 -55 -29 -90t-76 -35q-35 0 -59.5 21.5t-24.5 60.5q0 51 35 76q-31 37 -96 37q-135 0 -256 -137t-121 -301q0 -219 211 -219q229 0 334 94q25 18 45 18q25 0 48 -23.5t23 -49.5q0 -43 -62.5 -80 t-113.5 -54q-96 -31 -266 -30q-168 0 -252 82q-108 104 -108 264zM645 1081q0 16 8.5 28.5t17.5 18t29 13.5l306 123q27 10 38 10q27 0 47.5 -18.5t20.5 -49.5q0 -51 -61 -76l-308 -120q-31 -10 -36 -11q-62 0 -62 82z" />
<glyph unicode="&#x108;" d="M213 434q0 203 96.5 398.5t252 318.5t319.5 123q145 0 247 -100q14 16 25.5 33.5t17.5 25.5q33 41 66 41q31 0 46 -18.5t15 -38.5q0 -10 -6 -29l-75 -305q-10 -39 -28 -50.5t-46 -11.5q-72 0 -72 60q0 2 2 16t2 39q0 98 -50 155.5t-138 57.5q-188 0 -360.5 -226.5 t-172.5 -486.5q0 -139 63.5 -236.5t182.5 -97.5q47 0 103.5 16.5t131 81t107.5 169.5q14 43 70 43q70 0 69 -58q0 -43 -35.5 -105.5t-96 -124t-158 -104.5t-203.5 -43q-172 0 -273.5 131t-101.5 326zM646 1401q-9 55 50 76l256 88q16 6 39 0l228 -88q53 -20 25.5 -75.5 t-81.5 -39.5l-215 68l-233 -68q-60 -16 -69 39z" />
<glyph unicode="&#x109;" d="M281 334q0 213 161.5 387t360.5 174q109 0 177.5 -56.5t68.5 -138.5q0 -55 -29 -90t-76 -35q-35 0 -59.5 21.5t-24.5 60.5q0 51 35 76q-31 37 -96 37q-135 0 -256 -137t-121 -301q0 -219 211 -219q229 0 334 94q25 18 45 18q25 0 48 -23.5t23 -49.5q0 -43 -62.5 -80 t-113.5 -54q-96 -31 -266 -30q-168 0 -252 82q-108 104 -108 264zM561.5 1029q-24.5 50 32.5 83l268 154q35 20 62 0l215 -154q45 -33 6 -83t-84 -19l-191 127l-229 -127q-55 -31 -79.5 19z" />
<glyph unicode="&#x10a;" d="M213 434q0 203 96.5 398.5t252 318.5t319.5 123q145 0 247 -100q14 16 25.5 33.5t17.5 25.5q33 41 66 41q31 0 46 -18.5t15 -38.5q0 -10 -6 -29l-75 -305q-10 -39 -28 -50.5t-46 -11.5q-72 0 -72 60q0 2 2 16t2 39q0 98 -50 155.5t-138 57.5q-188 0 -360.5 -226.5 t-172.5 -486.5q0 -139 63.5 -236.5t182.5 -97.5q47 0 103.5 16.5t131 81t107.5 169.5q14 43 70 43q70 0 69 -58q0 -43 -35.5 -105.5t-96 -124t-158 -104.5t-203.5 -43q-172 0 -273.5 131t-101.5 326zM866 1464q0 37 30 68t71 31q35 0 59.5 -22.5t24.5 -61.5q0 -43 -32 -71 t-67 -28q-41 0 -63.5 25.5t-22.5 58.5z" />
<glyph unicode="&#x10b;" d="M281 334q0 213 161.5 387t360.5 174q109 0 177.5 -56.5t68.5 -138.5q0 -55 -29 -90t-76 -35q-35 0 -59.5 21.5t-24.5 60.5q0 51 35 76q-31 37 -96 37q-135 0 -256 -137t-121 -301q0 -219 211 -219q229 0 334 94q25 18 45 18q25 0 48 -23.5t23 -49.5q0 -43 -62.5 -80 t-113.5 -54q-96 -31 -266 -30q-168 0 -252 82q-108 104 -108 264zM784 1130q0 37 30 68t71 31q35 0 59.5 -22.5t24.5 -61.5q0 -43 -32 -70.5t-67 -27.5q-41 0 -63.5 25t-22.5 58z" />
<glyph unicode="&#x10c;" d="M213 434q0 203 96.5 398.5t252 318.5t319.5 123q145 0 247 -100q14 16 25.5 33.5t17.5 25.5q33 41 66 41q31 0 46 -18.5t15 -38.5q0 -10 -6 -29l-75 -305q-10 -39 -28 -50.5t-46 -11.5q-72 0 -72 60q0 2 2 16t2 39q0 98 -50 155.5t-138 57.5q-188 0 -360.5 -226.5 t-172.5 -486.5q0 -139 63.5 -236.5t182.5 -97.5q47 0 103.5 16.5t131 81t107.5 169.5q14 43 70 43q70 0 69 -58q0 -43 -35.5 -105.5t-96 -124t-158 -104.5t-203.5 -43q-172 0 -273.5 131t-101.5 326zM674.5 1525.5q27.5 55.5 81.5 39.5l213 -68l235 68q37 10 56.5 -13.5 t9.5 -56.5t-47 -45l-256 -88q-20 -6 -39 0l-228 88q-53 20 -25.5 75.5z" />
<glyph unicode="&#x10d;" d="M281 334q0 213 161.5 387t360.5 174q109 0 177.5 -56.5t68.5 -138.5q0 -55 -29 -90t-76 -35q-35 0 -59.5 21.5t-24.5 60.5q0 51 35 76q-31 37 -96 37q-135 0 -256 -137t-121 -301q0 -219 211 -219q229 0 334 94q25 18 45 18q25 0 48 -23.5t23 -49.5q0 -43 -62.5 -80 t-113.5 -54q-96 -31 -266 -30q-168 0 -252 82q-108 104 -108 264zM609 1244q40 50 85 20l189 -127l231 127q55 31 79 -19.5t-34 -83.5l-268 -153q-31 -20 -62 0l-215 153q-45 33 -5 83z" />
<glyph unicode="&#x10e;" d="M53 57q0 68 86 68h60l250 1001q-41 0 -60.5 2t-36 15.5t-16.5 40.5q0 68 84 67h438q88 0 153.5 -38.5t100.5 -103.5t50.5 -133.5t15.5 -141.5q0 -199 -88.5 -392.5t-235.5 -317.5t-307 -124h-410q-84 0 -84 57zM342 125h197q131 0 246.5 104.5t181 260t65.5 309.5 q0 41 -7 84t-28.5 104.5t-75 100t-133.5 38.5h-196zM492.5 1525.5q27.5 55.5 80.5 39.5l213 -68l236 68q37 10 56.5 -13.5t9 -56.5t-47.5 -45l-256 -88q-18 -6 -39 0l-227 88q-53 20 -25.5 75.5z" />
<glyph unicode="&#x10f;" d="M258 303q0 215 137 403.5t301 188.5q98 0 172 -82l78 313h-90q-84 0 -84 58q0 68 86 67h166q84 0 84 -57q0 -4 -6 -35l-236 -938q-8 -33 -8 -49q0 -59 43 -59q47 0 80 153q10 37 16.5 51.5t20.5 24.5t43 10q72 0 72 -57q0 -18 -20.5 -85t-47.5 -112q-68 -111 -166 -110 q-49 0 -89 23.5t-55.5 45t-23.5 39.5q-109 -109 -231 -108q-104 0 -173 85t-69 230zM397 295q0 -31 6.5 -68t32 -75.5t66.5 -38.5q96 0 195.5 151.5t99.5 321.5q0 78 -26 131t-79 53q-96 0 -195.5 -153.5t-99.5 -321.5zM1116 893q0 37 39 45q104 29 156 123q-6 -2 -17 -2 q-41 0 -62.5 25.5t-21.5 56.5q0 39 32 74.5t81 35.5q41 0 72.5 -29.5t31.5 -88.5q0 -109 -98 -198t-164 -89q-23 0 -36 17.5t-13 29.5z" />
<glyph unicode="&#x110;" d="M53 57q0 68 86 68h60l108 438h-59q-27 0 -41 18.5t-6 45.5q6 27 28.5 45t49.5 18h61l109 436q-41 0 -60.5 2t-36 15.5t-16.5 40.5q0 68 84 67h438q88 0 153.5 -38.5t100.5 -103.5t50.5 -133.5t15.5 -141.5q0 -199 -88.5 -392.5t-235.5 -317.5t-307 -124h-410 q-84 0 -84 57zM342 125h197q131 0 246.5 104.5t181 260t65.5 309.5q0 41 -7 84t-28.5 104.5t-75 100t-133.5 38.5h-196l-109 -436h119q27 0 41 -18.5t6 -44.5q-6 -27 -28.5 -45.5t-49.5 -18.5h-120z" />
<glyph unicode="&#x111;" d="M258 303q0 215 137 403.5t301 188.5q98 0 172 -82l31 127h-233q-27 0 -41.5 18.5t-6.5 45.5q6 27 29 45t49 18h236l14 59h-90q-84 0 -84 58q0 68 86 67h166q84 0 84 -57q0 -4 -6 -35l-23 -92h33q27 0 41 -18.5t8 -44.5q-8 -27 -30.5 -45.5t-49.5 -18.5h-34l-181 -719 q-8 -33 -8 -49q0 -59 43 -59q47 0 80 153q10 37 16.5 51.5t20.5 24.5t43 10q72 0 72 -57q0 -18 -20.5 -85t-47.5 -112q-68 -111 -166 -110q-49 0 -89 23.5t-55.5 45t-23.5 39.5q-109 -109 -231 -108q-104 0 -173 85t-69 230zM397 295q0 -31 6.5 -68t32 -75.5t66.5 -38.5 q96 0 195.5 151.5t99.5 321.5q0 78 -26 131t-79 53q-96 0 -195.5 -153.5t-99.5 -321.5z" />
<glyph unicode="&#x112;" d="M68 57q0 68 86 68h75l250 1001h-47q-82 0 -82 58q0 68 84 67h766q84 0 84 -57q0 -6 -6 -31l-43 -172q-14 -57 -72 -57q-72 0 -71 57l30 135h-499l-103 -415h266q18 80 31.5 98t54.5 18q72 0 72 -57l-6 -37l-51 -203q-14 -61 -74 -61q-72 0 -72 57q0 16 13 60h-267 l-114 -461h545l34 135q14 57 26.5 73.5t53.5 16.5q72 0 72 -57q0 -10 -31 -132t-35 -130q-16 -31 -75 -31h-811q-84 0 -84 57zM514 1456q0 72 86 72h610q82 0 82 -58q0 -72 -86 -71h-610q-82 0 -82 57z" />
<glyph unicode="&#x113;" d="M283 338q0 219 161.5 388t358.5 169q111 0 182.5 -60.5t71.5 -152.5q0 -33 -8.5 -67.5t-51.5 -89t-116 -85.5q-119 -53 -349 -53h-67q-29 0 -35 -7t-6 -46q0 -221 209 -221q229 0 334 94q25 18 45 18q25 0 48 -23.5t23 -49.5q0 -43 -62.5 -80t-113.5 -54 q-96 -31 -266 -30q-53 0 -85 3t-83 25.5t-94 65.5q-96 92 -96 256zM432 1130q0 72 86 72h610q82 0 82 -57q0 -72 -86 -72h-610q-82 0 -82 57zM463 512h61q391 0 391 170q0 39 -31.5 63.5t-84.5 24.5q-90 0 -187.5 -70.5t-148.5 -187.5z" />
<glyph unicode="&#x114;" d="M68 57q0 68 86 68h75l250 1001h-47q-82 0 -82 58q0 68 84 67h766q84 0 84 -57q0 -6 -6 -31l-43 -172q-14 -57 -72 -57q-72 0 -71 57l30 135h-499l-103 -415h266q18 80 31.5 98t54.5 18q72 0 72 -57l-6 -37l-51 -203q-14 -61 -74 -61q-72 0 -72 57q0 16 13 60h-267 l-114 -461h545l34 135q14 57 26.5 73.5t53.5 16.5q72 0 72 -57q0 -10 -31 -132t-35 -130q-16 -31 -75 -31h-811q-84 0 -84 57zM561 1528q0 82 66 82q61 0 61 -78q51 -23 213 -23q238 0 262 52q18 49 62 49q35 0 49 -19.5t14 -38.5q0 -43 -41 -88q-35 -39 -100.5 -59.5 t-113.5 -23.5t-134 -3q-49 0 -75.5 1t-74 4t-75 13.5t-57 26t-43 42t-13.5 63.5z" />
<glyph unicode="&#x115;" d="M283 338q0 219 161.5 388t358.5 169q111 0 182.5 -60.5t71.5 -152.5q0 -33 -8.5 -67.5t-51.5 -89t-116 -85.5q-119 -53 -349 -53h-67q-29 0 -35 -7t-6 -46q0 -221 209 -221q229 0 334 94q25 18 45 18q25 0 48 -23.5t23 -49.5q0 -43 -62.5 -80t-113.5 -54 q-96 -31 -266 -30q-53 0 -85 3t-83 25.5t-94 65.5q-96 92 -96 256zM463 512h61q391 0 391 170q0 39 -31.5 63.5t-84.5 24.5q-90 0 -187.5 -70.5t-148.5 -187.5zM471 1171q0 82 66 82q61 0 61 -77q51 -23 213 -23q238 0 262 51q18 49 62 49q35 0 49 -19.5t14 -37.5 q0 -43 -41 -88q-35 -39 -100.5 -59.5t-113.5 -23.5t-134 -3q-49 0 -75.5 1t-74 4t-75 13.5t-57 25.5t-43 41.5t-13.5 63.5z" />
<glyph unicode="&#x116;" d="M68 57q0 68 86 68h75l250 1001h-47q-82 0 -82 58q0 68 84 67h766q84 0 84 -57q0 -6 -6 -31l-43 -172q-14 -57 -72 -57q-72 0 -71 57l30 135h-499l-103 -415h266q18 80 31.5 98t54.5 18q72 0 72 -57l-6 -37l-51 -203q-14 -61 -74 -61q-72 0 -72 57q0 16 13 60h-267 l-114 -461h545l34 135q14 57 26.5 73.5t53.5 16.5q72 0 72 -57q0 -10 -31 -132t-35 -130q-16 -31 -75 -31h-811q-84 0 -84 57zM813 1464q0 37 29.5 68t70.5 31q35 0 59.5 -22.5t24.5 -61.5q0 -43 -31.5 -71t-66.5 -28q-41 0 -63.5 25.5t-22.5 58.5z" />
<glyph unicode="&#x117;" d="M283 338q0 219 161.5 388t358.5 169q111 0 182.5 -60.5t71.5 -152.5q0 -33 -8.5 -67.5t-51.5 -89t-116 -85.5q-119 -53 -349 -53h-67q-29 0 -35 -7t-6 -46q0 -221 209 -221q229 0 334 94q25 18 45 18q25 0 48 -23.5t23 -49.5q0 -43 -62.5 -80t-113.5 -54 q-96 -31 -266 -30q-53 0 -85 3t-83 25.5t-94 65.5q-96 92 -96 256zM463 512h61q391 0 391 170q0 39 -31.5 63.5t-84.5 24.5q-90 0 -187.5 -70.5t-148.5 -187.5zM729 1130q0 37 29.5 68t70.5 31q35 0 59.5 -22.5t24.5 -61.5q0 -43 -31.5 -70.5t-66.5 -27.5q-41 0 -63.5 25 t-22.5 58z" />
<glyph unicode="&#x118;" d="M68 57q0 68 86 68h75l250 1001h-47q-82 0 -82 58q0 68 84 67h766q84 0 84 -57q0 -6 -6 -31l-43 -172q-14 -57 -72 -57q-72 0 -71 57l30 135h-499l-103 -415h266q18 80 31.5 98t54.5 18q72 0 72 -57l-6 -37l-51 -203q-14 -61 -74 -61q-72 0 -72 57q0 16 13 60h-267 l-114 -461h545l34 135q14 57 26.5 73.5t53.5 16.5q72 0 72 -57q0 -10 -31 -132t-35 -130q-16 -31 -75 -31h-93q-248 -135 -247 -266q0 -39 31.5 -63.5t66.5 -24.5q63 0 125 84q10 10 38.5 14t45.5 -4q12 -12 17 -40t-7 -44q-100 -133 -227 -133q-100 0 -163 67.5t-63 147.5 q0 141 183 262h-518q-84 0 -84 57z" />
<glyph unicode="&#x119;" d="M283 338q0 219 161.5 388t358.5 169q111 0 182.5 -60.5t71.5 -152.5q0 -33 -8.5 -67.5t-51.5 -89t-116 -85.5q-119 -53 -349 -53h-67q-29 0 -35 -7t-6 -46q0 -221 209 -221q229 0 334 94q25 18 45 18q25 0 48 -23.5t23 -49.5q0 -43 -62.5 -80t-113.5 -54l-21 -7 q-15 -5 -24 -7q-246 -133 -246 -270q0 -39 32 -63.5t67 -24.5q63 0 125 84q10 10 38.5 14t45.5 -4q12 -12 17 -40t-7 -44q-100 -133 -227 -133q-100 0 -163 67.5t-63 147.5q0 150 160 250q-53 0 -85 3t-83 25.5t-94 65.5q-96 92 -96 256zM463 512h61q391 0 391 170 q0 39 -31.5 63.5t-84.5 24.5q-90 0 -187.5 -70.5t-148.5 -187.5z" />
<glyph unicode="&#x11a;" d="M68 57q0 68 86 68h75l250 1001h-47q-82 0 -82 58q0 68 84 67h766q84 0 84 -57q0 -6 -6 -31l-43 -172q-14 -57 -72 -57q-72 0 -71 57l30 135h-499l-103 -415h266q18 80 31.5 98t54.5 18q72 0 72 -57l-6 -37l-51 -203q-14 -61 -74 -61q-72 0 -72 57q0 16 13 60h-267 l-114 -461h545l34 135q14 57 26.5 73.5t53.5 16.5q72 0 72 -57q0 -10 -31 -132t-35 -130q-16 -31 -75 -31h-811q-84 0 -84 57zM619.5 1525.5q27.5 55.5 80.5 39.5l213 -68l236 68q37 10 56.5 -13.5t9 -56.5t-47.5 -45l-256 -88q-20 -6 -39 0l-227 88q-53 20 -25.5 75.5z" />
<glyph unicode="&#x11b;" d="M283 338q0 219 161.5 388t358.5 169q111 0 182.5 -60.5t71.5 -152.5q0 -33 -8.5 -67.5t-51.5 -89t-116 -85.5q-119 -53 -349 -53h-67q-29 0 -35 -7t-6 -46q0 -221 209 -221q229 0 334 94q25 18 45 18q25 0 48 -23.5t23 -49.5q0 -43 -62.5 -80t-113.5 -54 q-96 -31 -266 -30q-53 0 -85 3t-83 25.5t-94 65.5q-96 92 -96 256zM463 512h61q391 0 391 170q0 39 -31.5 63.5t-84.5 24.5q-90 0 -187.5 -70.5t-148.5 -187.5zM554 1244q40 50 85 20l188 -127l232 127q55 31 78.5 -19.5t-33.5 -83.5l-268 -153q-31 -20 -62 0l-215 153 q-45 33 -5 83z" />
<glyph unicode="&#x11c;" d="M207 420q0 203 91 401.5t239.5 325.5t302.5 127q139 0 223 -94q6 8 19.5 27.5t21.5 29.5q31 37 61.5 37t46 -18.5t15.5 -38.5q0 -10 -6 -29l-76 -305q-14 -61 -74 -62q-72 0 -72 60q6 0 7 65q0 27 -5.5 55.5t-20.5 64.5t-50 59.5t-86 23.5q-109 0 -224.5 -105.5 t-193.5 -278.5t-78 -347q0 -131 53.5 -223.5t153.5 -92.5q96 0 184 90.5t142 235.5h-70q-82 0 -82 57q0 68 86 68h244q82 0 82 -57q0 -33 -16.5 -48.5t-35 -17.5t-59.5 -2l-92 -371q-14 -57 -72 -57q-80 0 -69 74q-117 -96 -252 -97q-154 0 -246 125t-92 318zM591 1401 q-9 55 50 76l256 88q16 6 39 0l227 -88q53 -20 25.5 -75.5t-80.5 -39.5l-215 68l-234 -68q-59 -16 -68 39z" />
<glyph unicode="&#x11d;" d="M139 -336q0 47 30 78t73 31q37 0 60.5 -24.5t23.5 -57.5q0 -16 -4 -29q35 -4 90 -4q78 0 138 24.5t92 61.5t46 59.5t21 40.5l57 232q-106 -76 -213 -76q-117 0 -194.5 88t-77.5 238q0 213 145 391t322 178q121 0 198 -96q6 29 27.5 47t48.5 18t47.5 -19.5t20.5 -47.5 q0 -10 -9 -41l-227 -916q-12 -45 -41 -93t-79 -99t-136 -83t-190 -32q-51 0 -83 3t-82 13.5t-77 40t-27 74.5zM422 322q0 -84 35 -140.5t98 -56.5q113 0 218.5 144.5t105.5 303.5q0 76 -33 136.5t-103 60.5q-111 0 -216 -142t-105 -306zM538.5 1029q-24.5 50 32.5 83 l269 154q35 20 61 0l215 -154q45 -33 6 -83t-84 -19l-190 127l-230 -127q-55 -31 -79.5 19z" />
<glyph unicode="&#x11e;" d="M207 420q0 203 91 401.5t239.5 325.5t302.5 127q139 0 223 -94q6 8 19.5 27.5t21.5 29.5q31 37 61.5 37t46 -18.5t15.5 -38.5q0 -10 -6 -29l-76 -305q-14 -61 -74 -62q-72 0 -72 60q6 0 7 65q0 27 -5.5 55.5t-20.5 64.5t-50 59.5t-86 23.5q-109 0 -224.5 -105.5 t-193.5 -278.5t-78 -347q0 -131 53.5 -223.5t153.5 -92.5q96 0 184 90.5t142 235.5h-70q-82 0 -82 57q0 68 86 68h244q82 0 82 -57q0 -33 -16.5 -48.5t-35 -17.5t-59.5 -2l-92 -371q-14 -57 -72 -57q-80 0 -69 74q-117 -96 -252 -97q-154 0 -246 125t-92 318zM561 1528 q0 82 66 82q61 0 61 -78q51 -23 213 -23q238 0 262 52q18 49 62 49q35 0 49 -19.5t14 -38.5q0 -43 -41 -88q-35 -39 -100.5 -59.5t-113.5 -23.5t-134 -3q-49 0 -75.5 1t-74 4t-75 13.5t-57 26t-43 42t-13.5 63.5z" />
<glyph unicode="&#x11f;" d="M139 -336q0 47 30 78t73 31q37 0 60.5 -24.5t23.5 -57.5q0 -16 -4 -29q35 -4 90 -4q78 0 138 24.5t92 61.5t46 59.5t21 40.5l57 232q-106 -76 -213 -76q-117 0 -194.5 88t-77.5 238q0 213 145 391t322 178q121 0 198 -96q6 29 27.5 47t48.5 18t47.5 -19.5t20.5 -47.5 q0 -10 -9 -41l-227 -916q-12 -45 -41 -93t-79 -99t-136 -83t-190 -32q-51 0 -83 3t-82 13.5t-77 40t-27 74.5zM422 322q0 -84 35 -140.5t98 -56.5q113 0 218.5 144.5t105.5 303.5q0 76 -33 136.5t-103 60.5q-111 0 -216 -142t-105 -306zM504 1171q0 82 65 82q61 0 62 -77 q51 -23 213 -23q238 0 262 51q18 49 61 49q35 0 49.5 -19.5t14.5 -37.5q0 -43 -41 -88q-35 -39 -100.5 -59.5t-113.5 -23.5t-134 -3q-49 0 -76 1t-74 4t-74.5 13.5t-57.5 25.5t-43 41.5t-13 63.5z" />
<glyph unicode="&#x120;" d="M207 420q0 203 91 401.5t239.5 325.5t302.5 127q139 0 223 -94q6 8 19.5 27.5t21.5 29.5q31 37 61.5 37t46 -18.5t15.5 -38.5q0 -10 -6 -29l-76 -305q-14 -61 -74 -62q-72 0 -72 60q6 0 7 65q0 27 -5.5 55.5t-20.5 64.5t-50 59.5t-86 23.5q-109 0 -224.5 -105.5 t-193.5 -278.5t-78 -347q0 -131 53.5 -223.5t153.5 -92.5q96 0 184 90.5t142 235.5h-70q-82 0 -82 57q0 68 86 68h244q82 0 82 -57q0 -33 -16.5 -48.5t-35 -17.5t-59.5 -2l-92 -371q-14 -57 -72 -57q-80 0 -69 74q-117 -96 -252 -97q-154 0 -246 125t-92 318zM813 1464 q0 37 29.5 68t70.5 31q35 0 59.5 -22.5t24.5 -61.5q0 -43 -31.5 -71t-66.5 -28q-41 0 -63.5 25.5t-22.5 58.5z" />
<glyph unicode="&#x121;" d="M139 -336q0 47 30 78t73 31q37 0 60.5 -24.5t23.5 -57.5q0 -16 -4 -29q35 -4 90 -4q78 0 138 24.5t92 61.5t46 59.5t21 40.5l57 232q-106 -76 -213 -76q-117 0 -194.5 88t-77.5 238q0 213 145 391t322 178q121 0 198 -96q6 29 27.5 47t48.5 18t47.5 -19.5t20.5 -47.5 q0 -10 -9 -41l-227 -916q-12 -45 -41 -93t-79 -99t-136 -83t-190 -32q-51 0 -83 3t-82 13.5t-77 40t-27 74.5zM422 322q0 -84 35 -140.5t98 -56.5q113 0 218.5 144.5t105.5 303.5q0 76 -33 136.5t-103 60.5q-111 0 -216 -142t-105 -306zM762 1130q0 37 29.5 68t70.5 31 q35 0 59.5 -22.5t24.5 -61.5q0 -43 -31.5 -70.5t-66.5 -27.5q-41 0 -63.5 25t-22.5 58z" />
<glyph unicode="&#x122;" d="M207 420q0 203 91 401.5t239.5 325.5t302.5 127q139 0 223 -94q6 8 19.5 27.5t21.5 29.5q31 37 61.5 37t46 -18.5t15.5 -38.5q0 -10 -6 -29l-76 -305q-14 -61 -74 -62q-72 0 -72 60q6 0 7 65q0 27 -5.5 55.5t-20.5 64.5t-50 59.5t-86 23.5q-109 0 -224.5 -105.5 t-193.5 -278.5t-78 -347q0 -131 53.5 -223.5t153.5 -92.5q96 0 184 90.5t142 235.5h-70q-82 0 -82 57q0 68 86 68h244q82 0 82 -57q0 -33 -16.5 -48.5t-35 -17.5t-59.5 -2l-92 -371q-14 -57 -72 -57q-80 0 -69 74q-117 -96 -252 -97q-154 0 -246 125t-92 318zM303 -426 q0 37 39 45q104 29 156 123q-6 -2 -17 -2q-41 0 -62.5 25.5t-21.5 56.5q0 39 32 74.5t81 35.5q41 0 72.5 -29.5t31.5 -88.5q0 -109 -98 -198t-164 -89q-23 0 -36 17.5t-13 29.5z" />
<glyph unicode="&#x123;" d="M139 -336q0 47 30 78t73 31q37 0 60.5 -24.5t23.5 -57.5q0 -16 -4 -29q35 -4 90 -4q78 0 138 24.5t92 61.5t46 59.5t21 40.5l57 232q-106 -76 -213 -76q-117 0 -194.5 88t-77.5 238q0 213 145 391t322 178q121 0 198 -96q6 29 27.5 47t48.5 18t47.5 -19.5t20.5 -47.5 q0 -10 -9 -41l-227 -916q-12 -45 -41 -93t-79 -99t-136 -83t-190 -32q-51 0 -83 3t-82 13.5t-77 40t-27 74.5zM422 322q0 -84 35 -140.5t98 -56.5q113 0 218.5 144.5t105.5 303.5q0 76 -33 136.5t-103 60.5q-111 0 -216 -142t-105 -306zM717 1075q0 109 98 198t164 89 q23 0 36 -17.5t13 -29.5q0 -37 -39 -45q-104 -29 -155 -123q6 2 16 2q41 0 62.5 -25.5t21.5 -56.5q0 -39 -32 -75t-81 -36q-41 0 -72.5 30t-31.5 89z" />
<glyph unicode="&#x124;" d="M59 57q0 68 84 68h66l250 1001h-35q-84 0 -84 58q0 68 86 67h244q82 0 82 -57q0 -68 -86 -68h-64l-102 -413h432l102 413q-43 0 -62.5 2t-36.5 15.5t-17 40.5q0 68 86 67h243q82 0 82 -57q0 -68 -86 -68h-63l-250 -1001h35q84 0 84 -57q0 -68 -86 -68h-244q-82 0 -82 57 q0 68 84 68h63l117 463h-432l-117 -463h35q84 0 84 -57q0 -68 -86 -68h-244q-82 0 -82 57zM591 1401q-9 55 50 76l256 88q16 6 39 0l227 -88q53 -20 25.5 -75.5t-80.5 -39.5l-215 68l-234 -68q-59 -16 -68 39z" />
<glyph unicode="&#x125;" d="M180 55q0 12 8 41l258 1030h-92q-84 0 -84 58q0 68 86 67h166q84 0 84 -57q0 -4 -6 -35l-86 -344q96 80 229 80q100 0 162 -56.5t62 -164.5q0 -111 -115 -430q-25 -61 -25 -88q0 -43 29 -43q35 0 72 47t59 127q6 25 11.5 36t20.5 20t42 9q72 0 72 -57q0 -20 -17.5 -66.5 t-49.5 -101.5t-90 -97t-126 -42q-72 0 -118 48t-46 124q0 41 23 100q117 322 116.5 416t-84.5 94q-57 0 -105 -27.5t-88 -85t-69.5 -113t-59.5 -148.5t-46 -151l-43 -159q-8 -33 -14.5 -50.5t-24 -32.5t-44 -15t-47 19t-20.5 48zM591 1401q-9 55 50 76l256 88q16 6 39 0 l227 -88q53 -20 25.5 -75.5t-80.5 -39.5l-215 68l-234 -68q-59 -16 -68 39z" />
<glyph unicode="&#x126;" d="M59 57q0 68 84 68h66l186 749h-63q-27 0 -41.5 18.5t-5.5 45.5q6 27 28.5 45t48.5 18h66l31 125h-35q-84 0 -84 58q0 68 86 67h244q82 0 82 -57q0 -68 -86 -68h-64l-31 -125h433l30 125q-43 0 -62.5 2t-36.5 15.5t-17 40.5q0 68 86 67h243q82 0 82 -57q0 -68 -86 -68h-63 l-31 -125h63q27 0 41.5 -18t8.5 -45q-8 -27 -31 -45.5t-49 -18.5h-66l-186 -749h35q84 0 84 -57q0 -68 -86 -68h-244q-82 0 -82 57q0 68 84 68h63l117 463h-432l-117 -463h35q84 0 84 -57q0 -68 -86 -68h-244q-82 0 -82 57zM500 713h432l41 161h-432z" />
<glyph unicode="&#x127;" d="M180 55q0 12 8 41l211 844h-49q-27 0 -41 18.5t-6 45.5q6 27 28.5 45t49.5 18h51l14 59h-92q-84 0 -84 58q0 68 86 67h166q84 0 84 -57q0 -4 -6 -35l-22 -92h227q27 0 41 -18.5t8 -44.5q-8 -27 -30.5 -45.5t-49.5 -18.5h-229l-31 -125q96 80 229 80q100 0 162 -56.5 t62 -164.5q0 -111 -115 -430q-25 -61 -25 -88q0 -43 29 -43q35 0 72 47t59 127q6 25 11.5 36t20.5 20t42 9q72 0 72 -57q0 -20 -17.5 -66.5t-49.5 -101.5t-90 -97t-126 -42q-72 0 -118 48t-46 124q0 41 23 100q117 322 116.5 416t-84.5 94q-57 0 -105 -27.5t-88 -85 t-69.5 -113t-59.5 -148.5t-46 -151l-43 -159q-8 -33 -14.5 -50.5t-24 -32.5t-44 -15t-47 19t-20.5 48z" />
<glyph unicode="&#x128;" d="M176 57q0 68 86 68h236l250 1001h-207q-82 0 -82 58q0 68 84 67h585q84 0 84 -57q0 -68 -86 -68h-235l-250 -1001h207q82 0 82 -57q0 -68 -86 -68h-584q-84 0 -84 57zM535 1423q0 31 34 54q160 127 256 127q49 0 79 -22.5t61 -65.5q18 -25 34 -25q43 0 170 90 q33 23 50 23q27 0 45 -21.5t18 -44.5q0 -18 -20.5 -39.5t-38 -34t-62.5 -41.5q-102 -66 -172 -65q-74 0 -137 84q-23 29 -37 28q-51 0 -162 -86q-37 -27 -57 -26q-25 0 -43 19t-18 46z" />
<glyph unicode="&#x129;" d="M293 588q0 74 94 190.5t231 116.5q84 0 141.5 -51t57.5 -129q0 -37 -37 -129l-49 -123l-65 -164q-45 -119 -45 -131q0 -55 61 -55q49 0 101.5 50t76.5 136q6 18 10 26.5t19.5 17.5t42.5 9q72 0 72 -57q0 -74 -94.5 -190.5t-231.5 -116.5q-84 0 -141.5 50t-57.5 130 q0 39 17 82l170 422q10 31 10 43q0 55 -62 55q-43 0 -95 -43t-85 -145q-8 -27 -22.5 -39.5t-49.5 -12.5q-69 1 -69 58zM449 1079q0 31 34 54q160 127 256 127q49 0 79 -23t61 -66q18 -25 34 -24q43 0 170 90q33 23 50 23q27 0 45 -21.5t18 -44.5q0 -18 -20.5 -39.5t-38 -34 t-62.5 -41.5q-102 -66 -172 -65q-74 0 -137 84q-23 29 -37 28q-51 0 -162 -86q-37 -27 -57 -26q-25 0 -43 19t-18 46z" />
<glyph unicode="&#x12a;" d="M176 57q0 68 86 68h236l250 1001h-207q-82 0 -82 58q0 68 84 67h585q84 0 84 -57q0 -68 -86 -68h-235l-250 -1001h207q82 0 82 -57q0 -68 -86 -68h-584q-84 0 -84 57zM514 1456q0 72 86 72h610q82 0 82 -58q0 -72 -86 -71h-610q-82 0 -82 57z" />
<glyph unicode="&#x12b;" d="M293 588q0 74 94 190.5t231 116.5q84 0 141.5 -51t57.5 -129q0 -37 -37 -129l-49 -123l-65 -164q-45 -119 -45 -131q0 -55 61 -55q49 0 101.5 50t76.5 136q6 18 10 26.5t19.5 17.5t42.5 9q72 0 72 -57q0 -74 -94.5 -190.5t-231.5 -116.5q-84 0 -141.5 50t-57.5 130 q0 39 17 82l170 422q10 31 10 43q0 55 -62 55q-43 0 -95 -43t-85 -145q-8 -27 -22.5 -39.5t-49.5 -12.5q-69 1 -69 58zM432 1130q0 72 86 72h610q82 0 82 -57q0 -72 -86 -72h-610q-82 0 -82 57z" />
<glyph unicode="&#x12c;" d="M176 57q0 68 86 68h236l250 1001h-207q-82 0 -82 58q0 68 84 67h585q84 0 84 -57q0 -68 -86 -68h-235l-250 -1001h207q82 0 82 -57q0 -68 -86 -68h-584q-84 0 -84 57zM561 1528q0 82 66 82q61 0 61 -78q51 -23 213 -23q238 0 262 52q18 49 62 49q35 0 49 -19.5t14 -38.5 q0 -43 -41 -88q-35 -39 -100.5 -59.5t-113.5 -23.5t-134 -3q-49 0 -75.5 1t-74 4t-75 13.5t-57 26t-43 42t-13.5 63.5z" />
<glyph unicode="&#x12d;" d="M293 588q0 74 94 190.5t231 116.5q84 0 141.5 -51t57.5 -129q0 -37 -37 -129l-49 -123l-65 -164q-45 -119 -45 -131q0 -55 61 -55q49 0 101.5 50t76.5 136q6 18 10 26.5t19.5 17.5t42.5 9q72 0 72 -57q0 -74 -94.5 -190.5t-231.5 -116.5q-84 0 -141.5 50t-57.5 130 q0 39 17 82l170 422q10 31 10 43q0 55 -62 55q-43 0 -95 -43t-85 -145q-8 -27 -22.5 -39.5t-49.5 -12.5q-69 1 -69 58zM471 1171q0 82 66 82q61 0 61 -77q51 -23 213 -23q238 0 262 51q18 49 62 49q35 0 49 -19.5t14 -37.5q0 -43 -41 -88q-35 -39 -100.5 -59.5t-113.5 -23.5 t-134 -3q-49 0 -75.5 1t-74 4t-75 13.5t-57 25.5t-43 41.5t-13.5 63.5z" />
<glyph unicode="&#x12e;" d="M176 57q0 68 86 68h236l250 1001h-207q-82 0 -82 58q0 68 84 67h585q84 0 84 -57q0 -68 -86 -68h-235l-250 -1001h207q82 0 82 -57q0 -68 -86 -68h-316q-74 -47 -117.5 -118.5t-43.5 -147.5q0 -39 31.5 -63.5t66.5 -24.5q63 0 125 84q10 10 38.5 14t45.5 -4 q12 -12 17 -40t-7 -44q-100 -133 -227 -133q-100 0 -163 67.5t-63 147.5q0 66 50.5 137.5t128.5 124.5h-150q-84 0 -84 57z" />
<glyph unicode="&#x12f;" d="M293 588q0 74 94 190.5t231 116.5q84 0 141.5 -51t57.5 -129q0 -37 -37 -129l-49 -123l-65 -164q-45 -119 -45 -131q0 -55 61 -55q49 0 101.5 50t76.5 136q6 18 10 26.5t19.5 17.5t42.5 9q72 0 72 -57q0 -68 -86.5 -179.5t-210.5 -125.5q-66 -47 -105 -116t-39 -140 q0 -39 32 -63.5t67 -24.5q63 0 124 84q10 10 39 14t45 -4q12 -12 17.5 -40t-6.5 -44q-100 -133 -228 -133q-100 0 -162.5 67.5t-62.5 147.5q0 66 50 136.5t126 125.5q-57 18 -91 63.5t-34 104.5q0 39 17 82l170 422q10 31 10 43q0 55 -62 55q-43 0 -95 -43t-85 -145 q-8 -27 -22.5 -39.5t-49.5 -12.5q-69 1 -69 58zM735 1155q0 37 30 67.5t71 30.5q35 0 59.5 -22.5t24.5 -61.5q0 -43 -32 -70.5t-67 -27.5q-41 0 -63.5 25.5t-22.5 58.5z" />
<glyph unicode="&#x130;" d="M176 57q0 68 86 68h236l250 1001h-207q-82 0 -82 58q0 68 84 67h585q84 0 84 -57q0 -68 -86 -68h-235l-250 -1001h207q82 0 82 -57q0 -68 -86 -68h-584q-84 0 -84 57zM813 1464q0 37 29.5 68t70.5 31q35 0 59.5 -22.5t24.5 -61.5q0 -43 -31.5 -71t-66.5 -28 q-41 0 -63.5 25.5t-22.5 58.5z" />
<glyph unicode="&#x131;" d="M293 588q0 74 94 190.5t231 116.5q84 0 141.5 -51t57.5 -129q0 -37 -37 -129l-49 -123l-65 -164q-45 -119 -45 -131q0 -55 61 -55q49 0 101.5 50t76.5 136q6 18 10 26.5t19.5 17.5t42.5 9q72 0 72 -57q0 -74 -94.5 -190.5t-231.5 -116.5q-84 0 -141.5 50t-57.5 130 q0 39 17 82l170 422q10 31 10 43q0 55 -62 55q-43 0 -95 -43t-85 -145q-8 -27 -22.5 -39.5t-49.5 -12.5q-69 1 -69 58z" />
<glyph unicode="&#x134;" d="M193 174q0 59 29.5 92t74.5 33q39 0 61.5 -23.5t22.5 -58.5q0 -47 -33 -74q49 -41 150 -41q88 0 165.5 49.5t100.5 135.5l209 839h-152q-82 0 -82 58q0 68 84 67h373q84 0 84 -57q0 -68 -86 -68h-76l-217 -874q-27 -111 -142.5 -193t-262.5 -82q-137 0 -220 53.5 t-83 143.5zM767 1401q-9 55 50 76l256 88q16 6 39 0l227 -88q53 -20 25.5 -75.5t-80.5 -39.5l-215 68l-233 -68q-60 -16 -69 39z" />
<glyph unicode="&#x135;" d="M186 -336q0 47 30 78t73 31q37 0 60.5 -24.5t23.5 -57.5q0 -8 -2 -15.5t-2 -9.5q0 -8 34 -8q94 0 164 87t88 169l185 743q8 31 8 43q0 70 -76 70q-55 0 -118.5 -49t-104.5 -139q-8 -20 -14.5 -28.5t-20.5 -16t-39 -7.5q-70 0 -69 58q0 68 110.5 187.5t259.5 119.5 q90 0 151.5 -54.5t61.5 -140.5q0 -29 -8 -61l-184 -741q-33 -133 -139.5 -249t-260.5 -116q-211 0 -211 131zM700.5 1029q-24.5 50 32.5 83l268 154q35 20 62 0l215 -154q45 -33 6 -83t-84 -19l-190 127l-230 -127q-55 -31 -79.5 19z" />
<glyph unicode="&#x136;" d="M68 57q0 68 86 68h59l250 1001q-41 0 -60.5 2t-36 15.5t-16.5 40.5q0 68 84 67h207q84 0 84 -57q0 -68 -86 -68h-59l-136 -542l570 542q-70 0 -70 58q0 68 86 67h180q84 0 84 -57q0 -68 -86 -68h-47l-411 -393l190 -608q27 0 42 -2t32.5 -15.5t17.5 -39.5q0 -68 -86 -68 h-153q-84 0 -84 57q0 31 17 47.5t33.5 18.5t47.5 2l-160 512l-248 -238l-69 -274q41 0 60.5 -2t35.5 -15.5t16 -39.5q0 -68 -86 -68h-204q-84 0 -84 57zM303 -426q0 37 39 45q104 29 156 123q-6 -2 -17 -2q-41 0 -62.5 25.5t-21.5 56.5q0 39 32 74.5t81 35.5 q41 0 72.5 -29.5t31.5 -88.5q0 -109 -98 -198t-164 -89q-23 0 -36 17.5t-13 29.5z" />
<glyph unicode="&#x137;" d="M199 55q0 12 8 41l258 1030h-117q-84 0 -84 58q0 68 86 67h191q84 0 84 -57q0 -4 -7 -35l-155 -618q70 37 186 168q174 186 320 186q68 0 102.5 -44t34.5 -118q0 -172 -111 -172q-35 0 -59.5 22.5t-24.5 59.5q0 51 47 84q8 8 9 43q-92 -6 -203 -117l-39 -39 q-37 -41 -76 -79.5t-49 -47.5q211 -57 211 -217q0 -31 -5 -52t-5 -36q0 -41 20.5 -55t42.5 -14q76 0 123 174q6 23 11.5 34t20.5 21t42 10q72 0 72 -57q0 -14 -15.5 -59.5t-44.5 -102.5t-85 -101t-126 -44q-82 0 -142.5 53t-60.5 143q0 27 5.5 48.5t5.5 35.5q0 102 -246 117 l-82 -328q-18 -70 -76 -69q-27 0 -47 19t-20 48zM303 -426q0 37 39 45q104 29 156 123q-6 -2 -17 -2q-41 0 -62.5 25.5t-21.5 56.5q0 39 32 74.5t81 35.5q41 0 72.5 -29.5t31.5 -88.5q0 -109 -98 -198t-164 -89q-23 0 -36 17.5t-13 29.5z" />
<glyph unicode="&#x139;" d="M80 57q0 68 84 68h90l250 1001h-60q-84 0 -84 58q0 68 86 67h332q82 0 82 -57q0 -68 -84 -68h-129l-250 -1001h492l35 135q14 57 26.5 73.5t53.5 16.5q72 0 71 -57q0 -8 -30.5 -132t-34.5 -130q-16 -31 -76 -31h-772q-82 0 -82 57zM440 1460q0 16 8.5 28.5t17.5 17.5 t30 14l305 122q27 10 39 11q27 0 47 -18.5t20 -49.5q0 -51 -61 -76l-307 -120q-31 -10 -37 -11q-62 0 -62 82z" />
<glyph unicode="&#x13a;" d="M401 1184q0 68 86 67h263q84 0 84 -57q0 -4 -7 -35l-233 -930q-8 -29 -8 -41q0 -31 27.5 -50t49 -22t35.5 -3q88 0 142 186q14 53 69 53q72 0 72 -57q0 -18 -16.5 -63.5t-47 -101.5t-90 -99t-131.5 -43q-94 0 -173 50t-79 148q0 29 9 62l219 878h-187q-84 1 -84 58z M684 1460q0 16 8 28.5t17.5 17.5t29.5 14l305 122q27 10 39 11q27 0 47.5 -18.5t20.5 -49.5q0 -51 -61 -76l-308 -120q-31 -10 -37 -11q-61 0 -61 82z" />
<glyph unicode="&#x13b;" d="M80 57q0 68 84 68h90l250 1001h-60q-84 0 -84 58q0 68 86 67h332q82 0 82 -57q0 -68 -84 -68h-129l-250 -1001h492l35 135q14 57 26.5 73.5t53.5 16.5q72 0 71 -57q0 -8 -30.5 -132t-34.5 -130q-16 -31 -76 -31h-772q-82 0 -82 57zM303 -426q0 37 39 45q104 29 156 123 q-6 -2 -17 -2q-41 0 -62.5 25.5t-21.5 56.5q0 39 32 74.5t81 35.5q41 0 72.5 -29.5t31.5 -88.5q0 -109 -98 -198t-164 -89q-23 0 -36 17.5t-13 29.5z" />
<glyph unicode="&#x13c;" d="M303 -426q0 37 39 45q104 29 156 123q-6 -2 -17 -2q-41 0 -62.5 25.5t-21.5 56.5q0 39 32 74.5t81 35.5q41 0 72.5 -29.5t31.5 -88.5q0 -109 -98 -198t-164 -89q-23 0 -36 17.5t-13 29.5zM401 1184q0 68 86 67h263q84 0 84 -57q0 -4 -7 -35l-233 -930q-8 -29 -8 -41 q0 -31 27.5 -50t49 -22t35.5 -3q88 0 142 186q14 53 69 53q72 0 72 -57q0 -18 -16.5 -63.5t-47 -101.5t-90 -99t-131.5 -43q-94 0 -173 50t-79 148q0 29 9 62l219 878h-187q-84 1 -84 58z" />
<glyph unicode="&#x13d;" d="M80 57q0 68 84 68h90l250 1001h-60q-84 0 -84 58q0 68 86 67h332q82 0 82 -57q0 -68 -84 -68h-129l-250 -1001h492l35 135q14 57 26.5 73.5t53.5 16.5q72 0 71 -57q0 -8 -30.5 -132t-34.5 -130q-16 -31 -76 -31h-772q-82 0 -82 57zM905 893q0 37 39 45q104 29 156 123 q-6 -2 -17 -2q-41 0 -62.5 25.5t-21.5 56.5q0 39 32 74.5t81 35.5q41 0 73 -29.5t32 -88.5q0 -109 -98.5 -198t-164.5 -89q-23 0 -36 17.5t-13 29.5z" />
<glyph unicode="&#x13e;" d="M401 1184q0 68 86 67h263q84 0 84 -57q0 -4 -7 -35l-233 -930q-8 -29 -8 -41q0 -31 27.5 -50t49 -22t35.5 -3q88 0 142 186q14 53 69 53q72 0 72 -57q0 -18 -16.5 -63.5t-47 -101.5t-90 -99t-131.5 -43q-94 0 -173 50t-79 148q0 29 9 62l219 878h-187q-84 1 -84 58z M842 893q0 37 39 45q104 29 155 123q-6 -2 -16 -2q-41 0 -62.5 25.5t-21.5 56.5q0 39 31.5 74.5t81.5 35.5q41 0 72.5 -29.5t31.5 -88.5q0 -109 -98.5 -198t-163.5 -89q-23 0 -36 17.5t-13 29.5z" />
<glyph unicode="&#x13f;" d="M80 57q0 68 84 68h90l250 1001h-60q-84 0 -84 58q0 68 86 67h332q82 0 82 -57q0 -68 -84 -68h-129l-250 -1001h492l35 135q14 57 26.5 73.5t53.5 16.5q72 0 71 -57q0 -8 -30.5 -132t-34.5 -130q-16 -31 -76 -31h-772q-82 0 -82 57zM903 641q0 37 30 67.5t71 30.5 q35 0 59 -22.5t24 -61.5q0 -43 -31.5 -70.5t-66.5 -27.5q-41 0 -63.5 25.5t-22.5 58.5z" />
<glyph unicode="&#x140;" d="M401 1184q0 68 86 67h263q84 0 84 -57q0 -4 -7 -35l-233 -930q-8 -29 -8 -41q0 -31 27.5 -50t49 -22t35.5 -3q88 0 142 186q14 53 69 53q72 0 72 -57q0 -18 -16.5 -63.5t-47 -101.5t-90 -99t-131.5 -43q-94 0 -173 50t-79 148q0 29 9 62l219 878h-187q-84 1 -84 58z M1071 641q0 37 29.5 67.5t70.5 30.5q35 0 59.5 -22.5t24.5 -61.5q0 -43 -31.5 -70.5t-66.5 -27.5q-41 0 -63.5 25.5t-22.5 58.5z" />
<glyph unicode="&#x141;" d="M80 57q0 68 84 68h90l100 395l-80 -51q-23 -14 -46 -10t-35 24h-3q-14 23 -9 46.5t26 37.5l190 129l107 430h-60q-84 0 -84 58q0 68 86 67h332q82 0 82 -57q0 -68 -84 -68h-129l-76 -307l263 176q20 14 43.5 9t37.5 -25v-2q14 -23 10.5 -46.5t-24.5 -37.5l-375 -250 l-129 -518h492l35 135q14 57 26.5 73.5t53.5 16.5q72 0 71 -57q0 -8 -30.5 -132t-34.5 -130q-16 -31 -76 -31h-772q-82 0 -82 57z" />
<glyph unicode="&#x142;" d="M304 549.5q5 23.5 26 38.5l252 174l90 364h-187q-84 0 -84 58q0 68 86 67h263q84 0 84 -57q0 -4 -7 -35l-69 -278l198 135q20 14 44 9t38 -26v-2q14 -23 10 -46t-24 -38l-311 -213l-119 -471q-8 -29 -8 -41q0 -31 27.5 -50t49 -22t35.5 -3q88 0 142 186q14 53 69 53 q72 0 72 -57q0 -18 -16.5 -63.5t-47 -101.5t-90 -99t-131.5 -43q-94 0 -173 50t-79 148q0 29 9 62l84 334l-140 -93q-23 -14 -46 -10t-36 25h-2q-14 22 -9 45.5z" />
<glyph unicode="&#x143;" d="M72 57q0 68 84 68h65l250 1001h-35q-84 0 -84 58q0 68 86 67h82q109 0 133.5 -10t30.5 -65l123 -1018h2l240 968q-43 0 -62.5 2t-37 15.5t-17.5 40.5q0 68 86 67h217q82 0 82 -57q0 -68 -86 -68h-64l-264 -1063q-8 -31 -21.5 -45t-24.5 -16t-40 -2h-20q-31 0 -49.5 4 t-26.5 17.5t-10 22.5t-6 32l-123 1018h-2l-242 -969h35q84 0 84 -57q0 -68 -86 -68h-217q-82 0 -82 57zM684 1460q0 16 8 28.5t17.5 17.5t29.5 14l305 122q27 10 39 11q27 0 47.5 -18.5t20.5 -49.5q0 -51 -61 -76l-308 -120q-31 -10 -37 -11q-61 0 -61 82z" />
<glyph unicode="&#x144;" d="M164 588q0 18 19.5 85.5t41.5 110.5q59 111 162 111q117 0 156 -113q113 113 248 113q94 0 148 -57.5t54 -155.5q0 -109 -106 -414q-35 -100 -35 -123q0 -33 18 -32q68 0 117 174q6 23 11.5 34t20.5 21t42 10q72 0 72 -57q0 -29 -25 -95.5t-90.5 -139t-151.5 -72.5 q-68 0 -110.5 46t-42.5 120q0 43 22 110q117 328 117 420q0 86 -66 86q-119 0 -217 -184q-76 -150 -153 -461q-20 -84 -35.5 -110.5t-56.5 -26.5q-27 0 -47.5 19.5t-20.5 47.5q0 12 8 41l144 572q6 25 6 49q0 51 -27 51q-23 0 -44 -56.5t-30 -99.5q-8 -35 -14 -48 t-21.5 -23.5t-44.5 -10.5q-69 1 -69 58zM590 1081q0 16 8 28.5t17.5 18t29.5 13.5l305 123q27 10 39 10q27 0 47.5 -18.5t20.5 -49.5q0 -51 -62 -76l-307 -120q-31 -10 -37 -11q-61 0 -61 82z" />
<glyph unicode="&#x145;" d="M72 57q0 68 84 68h65l250 1001h-35q-84 0 -84 58q0 68 86 67h82q109 0 133.5 -10t30.5 -65l123 -1018h2l240 968q-43 0 -62.5 2t-37 15.5t-17.5 40.5q0 68 86 67h217q82 0 82 -57q0 -68 -86 -68h-64l-264 -1063q-8 -31 -21.5 -45t-24.5 -16t-40 -2h-20q-31 0 -49.5 4 t-26.5 17.5t-10 22.5t-6 32l-123 1018h-2l-242 -969h35q84 0 84 -57q0 -68 -86 -68h-217q-82 0 -82 57zM303 -426q0 37 39 45q104 29 156 123q-6 -2 -17 -2q-41 0 -62.5 25.5t-21.5 56.5q0 39 32 74.5t81 35.5q41 0 72.5 -29.5t31.5 -88.5q0 -109 -98 -198t-164 -89 q-23 0 -36 17.5t-13 29.5z" />
<glyph unicode="&#x146;" d="M164 588q0 18 19.5 85.5t41.5 110.5q59 111 162 111q117 0 156 -113q113 113 248 113q94 0 148 -57.5t54 -155.5q0 -109 -106 -414q-35 -100 -35 -123q0 -33 18 -32q68 0 117 174q6 23 11.5 34t20.5 21t42 10q72 0 72 -57q0 -29 -25 -95.5t-90.5 -139t-151.5 -72.5 q-68 0 -110.5 46t-42.5 120q0 43 22 110q117 328 117 420q0 86 -66 86q-119 0 -217 -184q-76 -150 -153 -461q-20 -84 -35.5 -110.5t-56.5 -26.5q-27 0 -47.5 19.5t-20.5 47.5q0 12 8 41l144 572q6 25 6 49q0 51 -27 51q-23 0 -44 -56.5t-30 -99.5q-8 -35 -14 -48 t-21.5 -23.5t-44.5 -10.5q-69 1 -69 58zM303 -426q0 37 39 45q104 29 156 123q-6 -2 -17 -2q-41 0 -62.5 25.5t-21.5 56.5q0 39 32 74.5t81 35.5q41 0 72.5 -29.5t31.5 -88.5q0 -109 -98 -198t-164 -89q-23 0 -36 17.5t-13 29.5z" />
<glyph unicode="&#x147;" d="M72 57q0 68 84 68h65l250 1001h-35q-84 0 -84 58q0 68 86 67h82q109 0 133.5 -10t30.5 -65l123 -1018h2l240 968q-43 0 -62.5 2t-37 15.5t-17.5 40.5q0 68 86 67h217q82 0 82 -57q0 -68 -86 -68h-64l-264 -1063q-8 -31 -21.5 -45t-24.5 -16t-40 -2h-20q-31 0 -49.5 4 t-26.5 17.5t-10 22.5t-6 32l-123 1018h-2l-242 -969h35q84 0 84 -57q0 -68 -86 -68h-217q-82 0 -82 57zM619.5 1525.5q27.5 55.5 80.5 39.5l213 -68l236 68q37 10 56.5 -13.5t9 -56.5t-47.5 -45l-256 -88q-20 -6 -39 0l-227 88q-53 20 -25.5 75.5z" />
<glyph unicode="&#x148;" d="M164 588q0 18 19.5 85.5t41.5 110.5q59 111 162 111q117 0 156 -113q113 113 248 113q94 0 148 -57.5t54 -155.5q0 -109 -106 -414q-35 -100 -35 -123q0 -33 18 -32q68 0 117 174q6 23 11.5 34t20.5 21t42 10q72 0 72 -57q0 -29 -25 -95.5t-90.5 -139t-151.5 -72.5 q-68 0 -110.5 46t-42.5 120q0 43 22 110q117 328 117 420q0 86 -66 86q-119 0 -217 -184q-76 -150 -153 -461q-20 -84 -35.5 -110.5t-56.5 -26.5q-27 0 -47.5 19.5t-20.5 47.5q0 12 8 41l144 572q6 25 6 49q0 51 -27 51q-23 0 -44 -56.5t-30 -99.5q-8 -35 -14 -48 t-21.5 -23.5t-44.5 -10.5q-69 1 -69 58zM554 1244q40 50 85 20l188 -127l232 127q55 31 78.5 -19.5t-33.5 -83.5l-268 -153q-31 -20 -62 0l-215 153q-45 33 -5 83z" />
<glyph unicode="&#x14a;" d="M59 57q0 68 84 68h66l250 1001h-35q-84 0 -84 58q0 68 86 67h207l-21 -86q141 109 297 109q135 0 209 -96.5t76 -240.5t-35 -310q-27 -106 -51.5 -186.5t-64 -173.5t-84 -151.5t-109 -98.5t-139.5 -40q-37 0 -57.5 27t-10.5 64q8 37 42 63.5t71 26.5q33 0 51 -19 q49 29 92 119t63.5 164t53.5 205q25 98 33 182t-2.5 159.5t-53.5 118.5t-119 43q-102 0 -196 -70.5t-137 -176.5l-189 -758h35q84 0 84 -57q0 -68 -86 -68h-244q-82 0 -82 57z" />
<glyph unicode="&#x14b;" d="M164 588q0 18 19.5 85.5t41.5 110.5q59 111 162 111q117 0 156 -113q113 113 248 113q94 0 148 -57.5t54 -155.5q0 -59 -18.5 -129t-47 -155t-40.5 -132q-94 -367 -154 -497q-109 -246 -262 -246q-29 0 -45 20.5t-8 50.5q8 29 34.5 50.5t55.5 21.5q37 0 83 112.5 t72 208.5l72 279q8 29 62.5 183.5t54.5 234.5q0 86 -66 86q-119 0 -217 -184q-76 -150 -153 -461q-20 -84 -35.5 -110.5t-56.5 -26.5q-27 0 -47.5 19.5t-20.5 47.5q0 12 8 41l144 572q6 25 6 49q0 51 -27 51q-23 0 -44 -56.5t-30 -99.5q-8 -35 -14 -48t-21.5 -23.5 t-44.5 -10.5q-69 1 -69 58z" />
<glyph unicode="&#x14c;" d="M188 174q0 123 74 421t123 417q68 164 157 213t314 49q195 0 269.5 -37t74.5 -160q0 -119 -74.5 -422t-130.5 -432q-66 -154 -155.5 -200t-307.5 -46q-197 0 -270.5 37t-73.5 160zM342 244q0 -80 47 -111t174 -31q162 0 223.5 51.5t116.5 208.5q29 88 87.5 319.5 t58.5 328.5q0 84 -47.5 111.5t-178.5 27.5q-160 0 -222 -48t-116 -212q-33 -98 -88 -324.5t-55 -320.5zM514 1456q0 72 86 72h610q82 0 82 -58q0 -72 -86 -71h-610q-82 0 -82 57z" />
<glyph unicode="&#x14d;" d="M260 322q0 215 151.5 394t333.5 179q121 0 205 -89t84 -245q0 -221 -152.5 -397t-332.5 -176q-127 0 -208 95.5t-81 238.5zM401 317q0 -86 39 -145t113 -59q119 0 230.5 144t111.5 308q0 78 -37 141.5t-115 63.5q-119 0 -230.5 -142.5t-111.5 -310.5zM432 1130 q0 72 86 72h610q82 0 82 -57q0 -72 -86 -72h-610q-82 0 -82 57z" />
<glyph unicode="&#x14e;" d="M188 174q0 123 74 421t123 417q68 164 157 213t314 49q195 0 269.5 -37t74.5 -160q0 -119 -74.5 -422t-130.5 -432q-66 -154 -155.5 -200t-307.5 -46q-197 0 -270.5 37t-73.5 160zM342 244q0 -80 47 -111t174 -31q162 0 223.5 51.5t116.5 208.5q29 88 87.5 319.5 t58.5 328.5q0 84 -47.5 111.5t-178.5 27.5q-160 0 -222 -48t-116 -212q-33 -98 -88 -324.5t-55 -320.5zM561 1528q0 82 66 82q61 0 61 -78q51 -23 213 -23q238 0 262 52q18 49 62 49q35 0 49 -19.5t14 -38.5q0 -43 -41 -88q-35 -39 -100.5 -59.5t-113.5 -23.5t-134 -3 q-49 0 -75.5 1t-74 4t-75 13.5t-57 26t-43 42t-13.5 63.5z" />
<glyph unicode="&#x14f;" d="M260 322q0 215 151.5 394t333.5 179q121 0 205 -89t84 -245q0 -221 -152.5 -397t-332.5 -176q-127 0 -208 95.5t-81 238.5zM401 317q0 -86 39 -145t113 -59q119 0 230.5 144t111.5 308q0 78 -37 141.5t-115 63.5q-119 0 -230.5 -142.5t-111.5 -310.5zM471 1171 q0 82 66 82q61 0 61 -77q51 -23 213 -23q238 0 262 51q18 49 62 49q35 0 49 -19.5t14 -37.5q0 -43 -41 -88q-35 -39 -100.5 -59.5t-113.5 -23.5t-134 -3q-49 0 -75.5 1t-74 4t-75 13.5t-57 25.5t-43 41.5t-13.5 63.5z" />
<glyph unicode="&#x150;" d="M188 174q0 123 74 421t123 417q68 164 157 213t314 49q195 0 269.5 -37t74.5 -160q0 -119 -74.5 -422t-130.5 -432q-66 -154 -155.5 -200t-307.5 -46q-197 0 -270.5 37t-73.5 160zM342 244q0 -80 47 -111t174 -31q162 0 223.5 51.5t116.5 208.5q29 88 87.5 319.5 t58.5 328.5q0 84 -47.5 111.5t-178.5 27.5q-160 0 -222 -48t-116 -212q-33 -98 -88 -324.5t-55 -320.5zM554 1458q9 31 38 53l182 134q29 20 59.5 19t47.5 -24q14 -25 5 -55.5t-38 -52.5l-182 -133q-29 -20 -60 -19.5t-47 23.5q-14 24 -5 55zM951.5 1458q9.5 31 37.5 53 l182 134q29 20 60 19t47 -24q14 -25 5 -55.5t-38 -52.5l-182 -133q-29 -20 -59.5 -19.5t-47.5 23.5q-14 24 -4.5 55z" />
<glyph unicode="&#x151;" d="M260 322q0 215 151.5 394t333.5 179q121 0 205 -89t84 -245q0 -221 -152.5 -397t-332.5 -176q-127 0 -208 95.5t-81 238.5zM401 317q0 -86 39 -145t113 -59q119 0 230.5 144t111.5 308q0 78 -37 141.5t-115 63.5q-119 0 -230.5 -142.5t-111.5 -310.5zM458 1073 q9 31 38 53l182 134q29 20 59.5 19t46.5 -24q14 -25 5 -55.5t-37 -52.5l-183 -133q-29 -20 -59.5 -19.5t-46.5 23.5q-14 24 -5 55zM855 1073q9 31 38 53l182 134q29 20 59.5 19t47.5 -24q14 -25 5 -55.5t-38 -52.5l-182 -133q-29 -20 -59.5 -19.5t-47.5 23.5q-14 24 -5 55z " />
<glyph unicode="&#x152;" d="M129 156q0 127 71.5 412.5t104.5 379.5q35 100 61.5 153.5t71.5 97.5t109.5 59.5t167.5 15.5q55 0 112 -12q49 -10 97 -11h307q84 0 84 -57q0 -6 -6 -31l-43 -172q-14 -57 -60 -57q-25 0 -41 17.5t-16 39.5l31 135h-244l-102 -415h231q84 0 84 -58q0 -68 -86 -67h-262 l-115 -461h258l35 137q8 35 14 50.5t18.5 26.5t35.5 11q25 0 41 -17.5t16 -39.5q0 -10 -31 -132t-35 -130q-16 -31 -75 -31h-328q-72 0 -115 -8q-74 -14 -129 -15q-162 0 -212 42.5t-50 136.5zM258 233q0 -27 3 -43t18.5 -39.5t54.5 -36t100 -12.5q33 0 54.5 6.5t46 28 t46 69.5t40.5 124l151 612q18 74 19 127q0 41 -20.5 60.5t-78.5 19.5q-129 0 -182 -49t-96 -170q-37 -115 -96.5 -356t-59.5 -341z" />
<glyph unicode="&#x153;" d="M145 276q0 215 125 419t273 204q45 0 79.5 -20.5t54 -53t29 -55t13.5 -43.5q133 168 274 168q84 0 132.5 -57.5t48.5 -139.5q0 -137 -118 -224t-360 -87q-8 -57 -8 -84q0 -37 6 -73.5t35 -76.5t76 -40q131 0 223 92q20 20 43 20q25 0 41 -16t16 -41q0 -51 -108.5 -115.5 t-218.5 -64.5q-158 0 -209 174q-117 -178 -248 -178q-88 0 -143.5 76.5t-55.5 215.5zM285 266l2 -39q2 -39 17 -78.5t44 -39.5q82 0 174 164.5t92 334.5q0 14 -1 31.5t-7 53.5t-23.5 58.5t-41.5 22.5q-78 0 -167 -170t-89 -338zM731 512q326 14 326 180q0 78 -68 78 q-63 0 -140 -74.5t-118 -183.5z" />
<glyph unicode="&#x154;" d="M59 57q0 68 84 68h66l250 1001h-35q-84 0 -84 58q0 68 86 67h377q145 0 233 -76.5t88 -195.5q0 -104 -72.5 -203.5t-189.5 -157.5q78 -78 78 -172q0 -27 -27 -139q-33 -121 -32 -166q0 -39 22 -39q47 0 76 105q8 23 20.5 34t22.5 13t29 2q70 0 69 -57q0 -29 -21.5 -77 t-75.5 -96.5t-122 -48.5q-25 0 -48.5 6.5t-50 24t-44 55t-17.5 93.5q0 57 27 149q31 123 31 141q0 117 -164 117h-172l-111 -438h35q84 0 84 -57q0 -68 -86 -68h-244q-82 0 -82 57zM494 688h147q141 0 239.5 81t98.5 181q0 72 -57.5 124t-171.5 52h-148zM684 1460 q0 16 8 28.5t17.5 17.5t29.5 14l305 122q27 10 39 11q27 0 47.5 -18.5t20.5 -49.5q0 -51 -61 -76l-308 -120q-31 -10 -37 -11q-61 0 -61 82z" />
<glyph unicode="&#x155;" d="M193 588q0 10 12 52t36.5 102.5t78 106.5t120.5 46q66 0 116 -34t71 -85q111 119 264 119q121 0 208 -54.5t87 -152.5q0 -68 -34 -97.5t-71 -29.5q-35 0 -59.5 22.5t-24.5 59.5q0 47 37 78q-45 49 -147 49q-123 0 -221 -170q-82 -152 -164 -475q-20 -84 -35.5 -110.5 t-56.5 -26.5q-27 0 -47.5 19.5t-20.5 47.5q0 10 8 41l139 561q8 31 9 48q0 66 -60 65q-27 0 -47 -29.5t-29.5 -58.5t-21.5 -80q-10 -41 -23.5 -56.5t-54.5 -15.5q-69 1 -69 58zM590 1081q0 16 8 28.5t17.5 18t29.5 13.5l305 123q27 10 39 10q27 0 47.5 -18.5t20.5 -49.5 q0 -51 -62 -76l-307 -120q-31 -10 -37 -11q-61 0 -61 82z" />
<glyph unicode="&#x156;" d="M59 57q0 68 84 68h66l250 1001h-35q-84 0 -84 58q0 68 86 67h377q145 0 233 -76.5t88 -195.5q0 -104 -72.5 -203.5t-189.5 -157.5q78 -78 78 -172q0 -27 -27 -139q-33 -121 -32 -166q0 -39 22 -39q47 0 76 105q8 23 20.5 34t22.5 13t29 2q70 0 69 -57q0 -29 -21.5 -77 t-75.5 -96.5t-122 -48.5q-25 0 -48.5 6.5t-50 24t-44 55t-17.5 93.5q0 57 27 149q31 123 31 141q0 117 -164 117h-172l-111 -438h35q84 0 84 -57q0 -68 -86 -68h-244q-82 0 -82 57zM303 -426q0 37 39 45q104 29 156 123q-6 -2 -17 -2q-41 0 -62.5 25.5t-21.5 56.5 q0 39 32 74.5t81 35.5q41 0 72.5 -29.5t31.5 -88.5q0 -109 -98 -198t-164 -89q-23 0 -36 17.5t-13 29.5zM494 688h147q141 0 239.5 81t98.5 181q0 72 -57.5 124t-171.5 52h-148z" />
<glyph unicode="&#x157;" d="M147 -426q0 37 39 45q104 29 156 123q-6 -2 -16 -2q-41 0 -62.5 25.5t-21.5 56.5q0 39 31.5 74.5t80.5 35.5q41 0 73 -29.5t32 -88.5q0 -109 -98.5 -198t-163.5 -89q-23 0 -36.5 17.5t-13.5 29.5zM193 588q0 10 12 52t36.5 102.5t78 106.5t120.5 46q66 0 116 -34t71 -85 q111 119 264 119q121 0 208 -54.5t87 -152.5q0 -68 -34 -97.5t-71 -29.5q-35 0 -59.5 22.5t-24.5 59.5q0 47 37 78q-45 49 -147 49q-123 0 -221 -170q-82 -152 -164 -475q-20 -84 -35.5 -110.5t-56.5 -26.5q-27 0 -47.5 19.5t-20.5 47.5q0 10 8 41l139 561q8 31 9 48 q0 66 -60 65q-27 0 -47 -29.5t-29.5 -58.5t-21.5 -80q-10 -41 -23.5 -56.5t-54.5 -15.5q-69 1 -69 58z" />
<glyph unicode="&#x158;" d="M59 57q0 68 84 68h66l250 1001h-35q-84 0 -84 58q0 68 86 67h377q145 0 233 -76.5t88 -195.5q0 -104 -72.5 -203.5t-189.5 -157.5q78 -78 78 -172q0 -27 -27 -139q-33 -121 -32 -166q0 -39 22 -39q47 0 76 105q8 23 20.5 34t22.5 13t29 2q70 0 69 -57q0 -29 -21.5 -77 t-75.5 -96.5t-122 -48.5q-25 0 -48.5 6.5t-50 24t-44 55t-17.5 93.5q0 57 27 149q31 123 31 141q0 117 -164 117h-172l-111 -438h35q84 0 84 -57q0 -68 -86 -68h-244q-82 0 -82 57zM494 688h147q141 0 239.5 81t98.5 181q0 72 -57.5 124t-171.5 52h-148zM619.5 1525.5 q27.5 55.5 80.5 39.5l213 -68l236 68q37 10 56.5 -13.5t9 -56.5t-47.5 -45l-256 -88q-20 -6 -39 0l-227 88q-53 20 -25.5 75.5z" />
<glyph unicode="&#x159;" d="M193 588q0 10 12 52t36.5 102.5t78 106.5t120.5 46q66 0 116 -34t71 -85q111 119 264 119q121 0 208 -54.5t87 -152.5q0 -68 -34 -97.5t-71 -29.5q-35 0 -59.5 22.5t-24.5 59.5q0 47 37 78q-45 49 -147 49q-123 0 -221 -170q-82 -152 -164 -475q-20 -84 -35.5 -110.5 t-56.5 -26.5q-27 0 -47.5 19.5t-20.5 47.5q0 10 8 41l139 561q8 31 9 48q0 66 -60 65q-27 0 -47 -29.5t-29.5 -58.5t-21.5 -80q-10 -41 -23.5 -56.5t-54.5 -15.5q-69 1 -69 58zM554 1244q40 50 85 20l188 -127l232 127q55 31 78.5 -19.5t-33.5 -83.5l-268 -153 q-31 -20 -62 0l-215 153q-45 33 -5 83z" />
<glyph unicode="&#x15a;" d="M115 35l84 344q14 37 67 37q72 0 72 -58l-4 -18q-8 -45 -8 -64q0 -92 77.5 -133t192.5 -41q131 0 230.5 92.5t99.5 200.5q0 45 -13.5 76t-45 49.5t-54 25.5t-68.5 19l-137 35q-35 8 -60.5 15.5t-69.5 29t-71.5 49t-50 75.5t-22.5 110q0 154 137 274.5t322 120.5 q172 0 270 -98q14 29 35 59q20 39 59 39q31 0 46.5 -18.5t15.5 -38.5q0 -10 -7 -29l-73 -295q-14 -57 -72 -57q-72 0 -72 59q0 4 2 22.5t2 36.5q0 195 -211 195q-125 0 -222 -82t-97 -176q0 -39 15.5 -67.5t47 -45t57 -25t68.5 -18.5l205 -51q86 -27 143.5 -99.5 t57.5 -176.5q0 -158 -138.5 -294.5t-332.5 -136.5q-209 0 -324 97q-4 -6 -18 -33l-17 -29q-23 -35 -57 -35q-31 0 -46 19t-15 39zM684 1460q0 16 8 28.5t17.5 17.5t29.5 14l305 122q27 10 39 11q27 0 47.5 -18.5t20.5 -49.5q0 -51 -61 -76l-308 -120q-31 -10 -37 -11 q-61 0 -61 82z" />
<glyph unicode="&#x15b;" d="M203 186q0 49 20.5 79t41 38t40.5 8q41 0 63.5 -26.5t22.5 -55.5q0 -41 -33 -73q55 -43 195 -43q131 0 217 45q47 25 72.5 65.5t25.5 71.5q0 27 -17 47t-53 33.5t-56 17.5l-58 13q-119 23 -158 34t-77 39q-74 57 -74 144q0 37 17.5 79.5t55 88t115.5 75t182 29.5 q141 0 216 -48t75 -130q0 -57 -29.5 -86t-66.5 -29q-14 0 -30.5 5t-33 24.5t-16.5 50.5q0 37 21 57q-45 31 -140 31q-98 0 -159 -33q-45 -23 -63.5 -56.5t-18.5 -55.5q0 -29 27.5 -47.5t59 -26.5t103.5 -21q41 -6 69.5 -12t77 -24.5t79 -41t54 -63.5t23.5 -92 q0 -66 -41 -132.5t-106 -107.5q-117 -70 -297 -69q-346 -1 -346 198zM590 1081q0 16 8 28.5t17.5 18t29.5 13.5l305 123q27 10 39 10q27 0 47.5 -18.5t20.5 -49.5q0 -51 -62 -76l-307 -120q-31 -10 -37 -11q-61 0 -61 82z" />
<glyph unicode="&#x15c;" d="M115 35l84 344q14 37 67 37q72 0 72 -58l-4 -18q-8 -45 -8 -64q0 -92 77.5 -133t192.5 -41q131 0 230.5 92.5t99.5 200.5q0 45 -13.5 76t-45 49.5t-54 25.5t-68.5 19l-137 35q-35 8 -60.5 15.5t-69.5 29t-71.5 49t-50 75.5t-22.5 110q0 154 137 274.5t322 120.5 q172 0 270 -98q14 29 35 59q20 39 59 39q31 0 46.5 -18.5t15.5 -38.5q0 -10 -7 -29l-73 -295q-14 -57 -72 -57q-72 0 -72 59q0 4 2 22.5t2 36.5q0 195 -211 195q-125 0 -222 -82t-97 -176q0 -39 15.5 -67.5t47 -45t57 -25t68.5 -18.5l205 -51q86 -27 143.5 -99.5 t57.5 -176.5q0 -158 -138.5 -294.5t-332.5 -136.5q-209 0 -324 97q-4 -6 -18 -33l-17 -29q-23 -35 -57 -35q-31 0 -46 19t-15 39zM591 1401q-9 55 50 76l256 88q16 6 39 0l227 -88q53 -20 25.5 -75.5t-80.5 -39.5l-215 68l-234 -68q-59 -16 -68 39z" />
<glyph unicode="&#x15d;" d="M203 186q0 49 20.5 79t41 38t40.5 8q41 0 63.5 -26.5t22.5 -55.5q0 -41 -33 -73q55 -43 195 -43q131 0 217 45q47 25 72.5 65.5t25.5 71.5q0 27 -17 47t-53 33.5t-56 17.5l-58 13q-119 23 -158 34t-77 39q-74 57 -74 144q0 37 17.5 79.5t55 88t115.5 75t182 29.5 q141 0 216 -48t75 -130q0 -57 -29.5 -86t-66.5 -29q-14 0 -30.5 5t-33 24.5t-16.5 50.5q0 37 21 57q-45 31 -140 31q-98 0 -159 -33q-45 -23 -63.5 -56.5t-18.5 -55.5q0 -29 27.5 -47.5t59 -26.5t103.5 -21q41 -6 69.5 -12t77 -24.5t79 -41t54 -63.5t23.5 -92 q0 -66 -41 -132.5t-106 -107.5q-117 -70 -297 -69q-346 -1 -346 198zM505.5 1029q-24.5 50 33.5 83l268 154q35 20 61 0l215 -154q45 -33 6.5 -83t-83.5 -19l-191 127l-229 -127q-56 -31 -80.5 19z" />
<glyph unicode="&#x15e;" d="M115 35l84 344q14 37 67 37q72 0 72 -58l-4 -18q-8 -45 -8 -64q0 -92 77.5 -133t192.5 -41q131 0 230.5 92.5t99.5 200.5q0 45 -13.5 76t-45 49.5t-54 25.5t-68.5 19l-137 35q-35 8 -60.5 15.5t-69.5 29t-71.5 49t-50 75.5t-22.5 110q0 154 137 274.5t322 120.5 q172 0 270 -98q14 29 35 59q20 39 59 39q31 0 46.5 -18.5t15.5 -38.5q0 -10 -7 -29l-73 -295q-14 -57 -72 -57q-72 0 -72 59q0 4 2 22.5t2 36.5q0 195 -211 195q-125 0 -222 -82t-97 -176q0 -39 15.5 -67.5t47 -45t57 -25t68.5 -18.5l205 -51q86 -27 143.5 -99.5 t57.5 -176.5q0 -145 -120 -276.5t-296 -149.5q-2 -6 -4 -17l-4 -10q88 -23 122 -71t34 -95q0 -27 -7.5 -56.5t-50.5 -76.5t-119 -72q-104 -33 -346 -33q-35 0 -50 19.5t-15 40.5q0 47 29.5 57t107.5 10q307 0 307 109q0 31 -36.5 43t-69.5 12q-29 0 -44.5 14.5t-17.5 28.5 l-2 15q0 10 21 84q-147 18 -234 90q-4 -6 -18 -33l-17 -29q-23 -35 -57 -35q-31 0 -46 19t-15 39z" />
<glyph unicode="&#x15f;" d="M203 186q0 49 20.5 79t41 38t40.5 8q41 0 63.5 -26.5t22.5 -55.5q0 -41 -33 -73q55 -43 195 -43q131 0 217 45q47 25 72.5 65.5t25.5 71.5q0 27 -17 47t-53 33.5t-56 17.5l-58 13q-119 23 -158 34t-77 39q-74 57 -74 144q0 37 17.5 79.5t55 88t115.5 75t182 29.5 q141 0 216 -48t75 -130q0 -57 -29.5 -86t-66.5 -29q-14 0 -30.5 5t-33 24.5t-16.5 50.5q0 37 21 57q-45 31 -140 31q-98 0 -159 -33q-45 -23 -63.5 -56.5t-18.5 -55.5q0 -29 27.5 -47.5t59 -26.5t103.5 -21q41 -6 69.5 -12t77 -24.5t79 -41t54 -63.5t23.5 -92 q0 -66 -41 -132.5t-106 -107.5q-88 -53 -197 -63q-4 -12 -4 -17q88 -23 122 -70.5t34 -94.5q0 -27 -7.5 -56.5t-50.5 -77t-118 -71.5q-104 -33 -346 -33q-35 0 -50.5 19.5t-15.5 39.5q0 47 29.5 57.5t107.5 10.5q307 0 307 109q0 31 -37.5 43t-68.5 12q-29 0 -44 14.5 t-18 28.5l-2 14q0 12 15 66q-299 18 -299 198z" />
<glyph unicode="&#x160;" d="M115 35l84 344q14 37 67 37q72 0 72 -58l-4 -18q-8 -45 -8 -64q0 -92 77.5 -133t192.5 -41q131 0 230.5 92.5t99.5 200.5q0 45 -13.5 76t-45 49.5t-54 25.5t-68.5 19l-137 35q-35 8 -60.5 15.5t-69.5 29t-71.5 49t-50 75.5t-22.5 110q0 154 137 274.5t322 120.5 q172 0 270 -98q14 29 35 59q20 39 59 39q31 0 46.5 -18.5t15.5 -38.5q0 -10 -7 -29l-73 -295q-14 -57 -72 -57q-72 0 -72 59q0 4 2 22.5t2 36.5q0 195 -211 195q-125 0 -222 -82t-97 -176q0 -39 15.5 -67.5t47 -45t57 -25t68.5 -18.5l205 -51q86 -27 143.5 -99.5 t57.5 -176.5q0 -158 -138.5 -294.5t-332.5 -136.5q-209 0 -324 97q-4 -6 -18 -33l-17 -29q-23 -35 -57 -35q-31 0 -46 19t-15 39zM619.5 1525.5q27.5 55.5 80.5 39.5l213 -68l236 68q37 10 56.5 -13.5t9 -56.5t-47.5 -45l-256 -88q-20 -6 -39 0l-227 88q-53 20 -25.5 75.5z " />
<glyph unicode="&#x161;" d="M203 186q0 49 20.5 79t41 38t40.5 8q41 0 63.5 -26.5t22.5 -55.5q0 -41 -33 -73q55 -43 195 -43q131 0 217 45q47 25 72.5 65.5t25.5 71.5q0 27 -17 47t-53 33.5t-56 17.5l-58 13q-119 23 -158 34t-77 39q-74 57 -74 144q0 37 17.5 79.5t55 88t115.5 75t182 29.5 q141 0 216 -48t75 -130q0 -57 -29.5 -86t-66.5 -29q-14 0 -30.5 5t-33 24.5t-16.5 50.5q0 37 21 57q-45 31 -140 31q-98 0 -159 -33q-45 -23 -63.5 -56.5t-18.5 -55.5q0 -29 27.5 -47.5t59 -26.5t103.5 -21q41 -6 69.5 -12t77 -24.5t79 -41t54 -63.5t23.5 -92 q0 -66 -41 -132.5t-106 -107.5q-117 -70 -297 -69q-346 -1 -346 198zM554 1244q40 50 85 20l188 -127l232 127q55 31 78.5 -19.5t-33.5 -83.5l-268 -153q-31 -20 -62 0l-215 153q-45 33 -5 83z" />
<glyph unicode="&#x162;" d="M184 -373q0 47 30 57.5t108 10.5q307 0 307 108q0 31 -38 43.5t-69 12.5q-29 0 -44 14t-17 29l-2 14q0 14 20 84h-104q-82 0 -82 57q0 68 84 68h121l250 1001h-271l-33 -135q-8 -33 -24.5 -45t-46.5 -12q-72 0 -72 57q0 10 6 31l41 166q8 31 20.5 45t25 16t40.5 2h803 q84 0 84 -57q0 -6 -6 -31l-43 -172q-14 -57 -72 -57q-72 0 -72 57l31 135h-268l-250 -1001h90q84 0 84 -57q0 -68 -86 -68h-104q-2 -10 -9 -29q88 -23 122 -70.5t34 -95.5q0 -27 -7 -56.5t-50 -76.5t-119 -71q-104 -33 -346 -33q-35 0 -50.5 19.5t-15.5 39.5z" />
<glyph unicode="&#x163;" d="M295 -373q0 47 29.5 57.5t107.5 10.5q307 0 307 108q0 31 -37.5 43.5t-68.5 12.5q-29 0 -44.5 14t-17.5 29l-2 14l19 78q-74 14 -118 66.5t-44 121.5l137 576h-160q-84 0 -84 57q0 68 87 68h190l76 307q16 74 78 74q29 0 48 -19.5t19 -48.5q0 -10 -8 -39l-68 -274h160 q84 0 84 -58q0 -68 -86 -67h-190l-131 -529q-8 -31 -9 -47q0 -70 74 -69q66 0 127 53t96 129q10 23 16.5 32t21 17t36.5 8q72 0 72 -57q0 -51 -81 -153.5t-196 -139.5q-2 -12 -8 -31q88 -23 122 -70.5t34 -95.5q0 -27 -7.5 -56.5t-50.5 -76.5t-118 -71q-104 -33 -347 -33 q-35 0 -50 19.5t-15 39.5z" />
<glyph unicode="&#x164;" d="M293 57q0 68 84 68h121l250 1001h-271l-33 -135q-8 -33 -24.5 -45t-46.5 -12q-72 0 -72 57q0 10 6 31l41 166q8 31 20.5 45t25 16t40.5 2h803q84 0 84 -57q0 -6 -6 -31l-43 -172q-14 -57 -72 -57q-72 0 -72 57l31 135h-268l-250 -1001h90q84 0 84 -57q0 -68 -86 -68h-354 q-82 0 -82 57zM619.5 1525.5q27.5 55.5 80.5 39.5l213 -68l236 68q37 10 56.5 -13.5t9 -56.5t-47.5 -45l-256 -88q-20 -6 -39 0l-227 88q-53 20 -25.5 75.5z" />
<glyph unicode="&#x165;" d="M319 815q0 68 87 68h190l76 307q16 74 78 74q29 0 48 -19.5t19 -48.5q0 -10 -8 -39l-68 -274h160q84 0 84 -58q0 -68 -86 -67h-190l-131 -529q-8 -31 -9 -47q0 -70 74 -69q66 0 127 53t96 129q10 23 16.5 32t21 17t36.5 8q72 0 72 -57q0 -66 -112 -186.5t-259 -120.5 q-96 0 -155.5 57t-59.5 137l137 576h-160q-84 0 -84 57zM854 1008q0 37 39 45q104 29 156 123q-6 -2 -17 -2q-41 0 -62.5 25.5t-21.5 55.5q0 39 32 75t81 36q41 0 72.5 -29.5t31.5 -89.5q0 -109 -98 -197.5t-164 -88.5q-23 0 -36 17.5t-13 29.5z" />
<glyph unicode="&#x168;" d="M244 309q0 59 16 125l172 692h-45q-82 0 -82 58q0 68 84 67h266q84 0 84 -57q0 -68 -86 -68h-75l-181 -725q-12 -55 -12 -94q0 -94 45 -149.5t119 -55.5q100 0 201.5 95.5t136.5 234.5l172 694h-45q-82 0 -82 58q0 68 84 67h266q84 0 84 -57q0 -68 -86 -68h-76l-180 -727 q-41 -168 -179 -295t-298 -127q-133 0 -218 94.5t-85 237.5zM535 1423q0 31 34 54q160 127 256 127q49 0 79 -22.5t61 -65.5q18 -25 34 -25q43 0 170 90q33 23 50 23q27 0 45 -21.5t18 -44.5q0 -18 -20.5 -39.5t-38 -34t-62.5 -41.5q-102 -66 -172 -65q-74 0 -137 84 q-23 29 -37 28q-51 0 -162 -86q-37 -27 -57 -26q-25 0 -43 19t-18 46z" />
<glyph unicode="&#x169;" d="M164 588q0 31 26.5 98.5t94 138t153.5 70.5q66 0 112 -45t46 -125q0 -43 -25 -113q-104 -285 -104 -383q0 -117 86 -116q150 0 240 344l88 354q20 72 75 72q25 0 46.5 -16.5t21.5 -51.5q0 -12 -8 -43l-137 -555q-8 -31 -9 -47q0 -57 35 -57q39 0 80 163q6 23 9 32 t11.5 22.5t21.5 17.5t34 4q72 0 72 -57q0 -16 -19.5 -84t-48.5 -117q-59 -106 -161.5 -106t-151.5 88q-90 -88 -203 -88q-94 0 -158.5 61.5t-64.5 181.5q0 113 110 422q20 57 21 80q0 37 -23 37q-76 0 -127 -180q-6 -20 -10 -30.5t-20.5 -20t-43.5 -9.5q-69 1 -69 58z M449 1079q0 31 34 54q160 127 256 127q49 0 79 -23t61 -66q18 -25 34 -24q43 0 170 90q33 23 50 23q27 0 45 -21.5t18 -44.5q0 -18 -20.5 -39.5t-38 -34t-62.5 -41.5q-102 -66 -172 -65q-74 0 -137 84q-23 29 -37 28q-51 0 -162 -86q-37 -27 -57 -26q-25 0 -43 19t-18 46z " />
<glyph unicode="&#x16a;" d="M244 309q0 59 16 125l172 692h-45q-82 0 -82 58q0 68 84 67h266q84 0 84 -57q0 -68 -86 -68h-75l-181 -725q-12 -55 -12 -94q0 -94 45 -149.5t119 -55.5q100 0 201.5 95.5t136.5 234.5l172 694h-45q-82 0 -82 58q0 68 84 67h266q84 0 84 -57q0 -68 -86 -68h-76l-180 -727 q-41 -168 -179 -295t-298 -127q-133 0 -218 94.5t-85 237.5zM514 1456q0 72 86 72h610q82 0 82 -58q0 -72 -86 -71h-610q-82 0 -82 57z" />
<glyph unicode="&#x16b;" d="M164 588q0 31 26.5 98.5t94 138t153.5 70.5q66 0 112 -45t46 -125q0 -43 -25 -113q-104 -285 -104 -383q0 -117 86 -116q150 0 240 344l88 354q20 72 75 72q25 0 46.5 -16.5t21.5 -51.5q0 -12 -8 -43l-137 -555q-8 -31 -9 -47q0 -57 35 -57q39 0 80 163q6 23 9 32 t11.5 22.5t21.5 17.5t34 4q72 0 72 -57q0 -16 -19.5 -84t-48.5 -117q-59 -106 -161.5 -106t-151.5 88q-90 -88 -203 -88q-94 0 -158.5 61.5t-64.5 181.5q0 113 110 422q20 57 21 80q0 37 -23 37q-76 0 -127 -180q-6 -20 -10 -30.5t-20.5 -20t-43.5 -9.5q-69 1 -69 58z M432 1130q0 72 86 72h610q82 0 82 -57q0 -72 -86 -72h-610q-82 0 -82 57z" />
<glyph unicode="&#x16c;" d="M244 309q0 59 16 125l172 692h-45q-82 0 -82 58q0 68 84 67h266q84 0 84 -57q0 -68 -86 -68h-75l-181 -725q-12 -55 -12 -94q0 -94 45 -149.5t119 -55.5q100 0 201.5 95.5t136.5 234.5l172 694h-45q-82 0 -82 58q0 68 84 67h266q84 0 84 -57q0 -68 -86 -68h-76l-180 -727 q-41 -168 -179 -295t-298 -127q-133 0 -218 94.5t-85 237.5zM561 1528q0 82 66 82q61 0 61 -78q51 -23 213 -23q238 0 262 52q18 49 62 49q35 0 49 -19.5t14 -38.5q0 -43 -41 -88q-35 -39 -100.5 -59.5t-113.5 -23.5t-134 -3q-49 0 -75.5 1t-74 4t-75 13.5t-57 26t-43 42 t-13.5 63.5z" />
<glyph unicode="&#x16d;" d="M164 588q0 31 26.5 98.5t94 138t153.5 70.5q66 0 112 -45t46 -125q0 -43 -25 -113q-104 -285 -104 -383q0 -117 86 -116q150 0 240 344l88 354q20 72 75 72q25 0 46.5 -16.5t21.5 -51.5q0 -12 -8 -43l-137 -555q-8 -31 -9 -47q0 -57 35 -57q39 0 80 163q6 23 9 32 t11.5 22.5t21.5 17.5t34 4q72 0 72 -57q0 -16 -19.5 -84t-48.5 -117q-59 -106 -161.5 -106t-151.5 88q-90 -88 -203 -88q-94 0 -158.5 61.5t-64.5 181.5q0 113 110 422q20 57 21 80q0 37 -23 37q-76 0 -127 -180q-6 -20 -10 -30.5t-20.5 -20t-43.5 -9.5q-69 1 -69 58z M471 1171q0 82 66 82q61 0 61 -77q51 -23 213 -23q238 0 262 51q18 49 62 49q35 0 49 -19.5t14 -37.5q0 -43 -41 -88q-35 -39 -100.5 -59.5t-113.5 -23.5t-134 -3q-49 0 -75.5 1t-74 4t-75 13.5t-57 25.5t-43 41.5t-13.5 63.5z" />
<glyph unicode="&#x16e;" d="M244 309q0 59 16 125l172 692h-45q-82 0 -82 58q0 68 84 67h266q84 0 84 -57q0 -68 -86 -68h-75l-181 -725q-12 -55 -12 -94q0 -94 45 -149.5t119 -55.5q100 0 201.5 95.5t136.5 234.5l172 694h-45q-82 0 -82 58q0 68 84 67h266q84 0 84 -57q0 -68 -86 -68h-76l-180 -727 q-41 -168 -179 -295t-298 -127q-133 0 -218 94.5t-85 237.5zM680 1415q0 76 80 140.5t186 64.5q74 0 125 -37t51 -102q0 -78 -79.5 -141.5t-186.5 -63.5q-78 0 -127 41t-49 98zM795 1432q0 -27 24.5 -45.5t63.5 -18.5q45 0 85 28.5t40 67.5q0 37 -30 50.5t-58 13.5 q-49 0 -87 -29.5t-38 -66.5z" />
<glyph unicode="&#x16f;" d="M164 588q0 31 26.5 98.5t94 138t153.5 70.5q66 0 112 -45t46 -125q0 -43 -25 -113q-104 -285 -104 -383q0 -117 86 -116q150 0 240 344l88 354q20 72 75 72q25 0 46.5 -16.5t21.5 -51.5q0 -12 -8 -43l-137 -555q-8 -31 -9 -47q0 -57 35 -57q39 0 80 163q6 23 9 32 t11.5 22.5t21.5 17.5t34 4q72 0 72 -57q0 -16 -19.5 -84t-48.5 -117q-59 -106 -161.5 -106t-151.5 88q-90 -88 -203 -88q-94 0 -158.5 61.5t-64.5 181.5q0 113 110 422q20 57 21 80q0 37 -23 37q-76 0 -127 -180q-6 -20 -10 -30.5t-20.5 -20t-43.5 -9.5q-69 1 -69 58z M612 1147q0 76 80 140.5t187 64.5q74 0 125 -37t51 -103q0 -78 -80 -141t-187 -63q-78 0 -127 41t-49 98zM727 1163q0 -27 24.5 -45t63.5 -18q45 0 85 28.5t40 67.5q0 63 -88 64q-49 0 -87 -30t-38 -67z" />
<glyph unicode="&#x170;" d="M244 309q0 59 16 125l172 692h-45q-82 0 -82 58q0 68 84 67h266q84 0 84 -57q0 -68 -86 -68h-75l-181 -725q-12 -55 -12 -94q0 -94 45 -149.5t119 -55.5q100 0 201.5 95.5t136.5 234.5l172 694h-45q-82 0 -82 58q0 68 84 67h266q84 0 84 -57q0 -68 -86 -68h-76l-180 -727 q-41 -168 -179 -295t-298 -127q-133 0 -218 94.5t-85 237.5zM554 1458q9 31 38 53l182 134q29 20 59.5 19t47.5 -24q14 -25 5 -55.5t-38 -52.5l-182 -133q-29 -20 -60 -19.5t-47 23.5q-14 24 -5 55zM951.5 1458q9.5 31 37.5 53l182 134q29 20 60 19t47 -24q14 -25 5 -55.5 t-38 -52.5l-182 -133q-29 -20 -59.5 -19.5t-47.5 23.5q-14 24 -4.5 55z" />
<glyph unicode="&#x171;" d="M164 588q0 31 26.5 98.5t94 138t153.5 70.5q66 0 112 -45t46 -125q0 -43 -25 -113q-104 -285 -104 -383q0 -117 86 -116q150 0 240 344l88 354q20 72 75 72q25 0 46.5 -16.5t21.5 -51.5q0 -12 -8 -43l-137 -555q-8 -31 -9 -47q0 -57 35 -57q39 0 80 163q6 23 9 32 t11.5 22.5t21.5 17.5t34 4q72 0 72 -57q0 -16 -19.5 -84t-48.5 -117q-59 -106 -161.5 -106t-151.5 88q-90 -88 -203 -88q-94 0 -158.5 61.5t-64.5 181.5q0 113 110 422q20 57 21 80q0 37 -23 37q-76 0 -127 -180q-6 -20 -10 -30.5t-20.5 -20t-43.5 -9.5q-69 1 -69 58z M458 1073q9 31 38 53l182 134q29 20 59.5 19t46.5 -24q14 -25 5 -55.5t-37 -52.5l-183 -133q-29 -20 -59.5 -19.5t-46.5 23.5q-14 24 -5 55zM855 1073q9 31 38 53l182 134q29 20 59.5 19t47.5 -24q14 -25 5 -55.5t-38 -52.5l-182 -133q-29 -20 -59.5 -19.5t-47.5 23.5 q-14 24 -5 55z" />
<glyph unicode="&#x172;" d="M244 309q0 59 16 125l172 692h-45q-82 0 -82 58q0 68 84 67h266q84 0 84 -57q0 -68 -86 -68h-75l-181 -725q-12 -55 -12 -94q0 -94 45 -149.5t119 -55.5q100 0 201.5 95.5t136.5 234.5l172 694h-45q-82 0 -82 58q0 68 84 67h266q84 0 84 -57q0 -68 -86 -68h-76l-180 -727 q-41 -166 -178 -292.5t-297 -129.5q-129 -102 -129 -243q0 -39 31.5 -63.5t66.5 -24.5q63 0 125 84q10 10 39 14t45 -4q12 -12 17.5 -40t-7.5 -44q-100 -133 -227 -133q-100 0 -162.5 67.5t-62.5 147.5q0 63 47 132t119 122q-94 31 -150.5 116.5t-56.5 200.5z" />
<glyph unicode="&#x173;" d="M164 588q0 31 26.5 98.5t94 138t153.5 70.5q66 0 112 -45t46 -125q0 -43 -25 -113q-104 -285 -104 -383q0 -117 86 -116q150 0 240 344l88 354q20 72 75 72q25 0 46.5 -16.5t21.5 -51.5q0 -12 -8 -43l-137 -555q-8 -31 -9 -47q0 -57 35 -57q39 0 80 163q6 23 9 32 t11.5 22.5t21.5 17.5t34 4q72 0 72 -57q0 -16 -19.5 -84t-48.5 -117q-59 -106 -162 -106q-14 0 -22 2q-66 -47 -105 -116t-39 -140q0 -39 32 -63.5t67 -24.5q63 0 125 84q10 10 38.5 14t44.5 -4q12 -12 17.5 -40t-6.5 -44q-100 -133 -228 -133q-100 0 -162.5 67.5 t-62.5 147.5q0 72 58.5 148.5t144.5 131.5q-37 25 -53 58q-90 -88 -203 -88q-94 0 -158.5 61.5t-64.5 181.5q0 113 110 422q20 57 21 80q0 37 -23 37q-76 0 -127 -180q-6 -20 -10 -30.5t-20.5 -20t-43.5 -9.5q-69 1 -69 58z" />
<glyph unicode="&#x174;" d="M260 35l4 26l117 1065q-61 4 -62 58q0 68 87 67h161q82 0 82 -57q0 -68 -86 -68h-65l-82 -716q-23 -190 -37 -254h2q35 109 197 442q51 106 72.5 130t74.5 24q23 0 35 -2t25.5 -18.5t13.5 -49.5l-8 -293q-12 -201 -21 -233h2l115 309l254 661h-37q-84 0 -84 58 q0 68 86 67h162q82 0 82 -57q0 -31 -16.5 -47.5t-33 -18.5t-45.5 -2l-415 -1071q-25 -72 -99 -71q-49 0 -60 19.5t-11 68.5l8 290q2 172 10 238l-2 2q-25 -74 -108 -242l-107 -229q-49 -100 -70.5 -123.5t-72.5 -23.5q-68 0 -68 51zM591 1401q-9 55 50 76l256 88q16 6 39 0 l227 -88q53 -20 25.5 -75.5t-80.5 -39.5l-215 68l-234 -68q-59 -16 -68 39z" />
<glyph unicode="&#x175;" d="M197 242q0 98 41 196q14 47 47 133q29 84 28 123q0 59 -37 64q-57 6 -57 57l2 16q2 16 18.5 34t45.5 18q14 0 30.5 -4.5t46 -18.5t49 -55t19.5 -100q0 -68 -35 -162l-53 -150q-29 -74 -29 -143q0 -137 127 -137q113 0 187 295l102 413q14 61 62 62q25 0 41 -17.5 t16 -40.5q0 -4 -11 -50l-16 -62l-35 -138l-45 -184q-27 -92 -26 -147q0 -131 116 -131q96 0 166 217q82 262 82 366q0 53 -18 90q-8 16 -8 35q0 31 22.5 52.5t50.5 21.5q80 0 80 -139q0 -92 -47 -274.5t-78 -262.5q-94 -231 -252 -231q-139 0 -202 114q-74 -115 -189 -114 q-37 0 -74.5 11t-77.5 36.5t-64.5 79t-24.5 127.5zM505.5 1029q-24.5 50 33.5 83l268 154q35 20 61 0l215 -154q45 -33 6.5 -83t-83.5 -19l-191 127l-229 -127q-56 -31 -80.5 19z" />
<glyph unicode="&#x176;" d="M334 1184q0 68 86 67h213q82 0 82 -57q0 -33 -17.5 -48.5t-36 -17.5t-57.5 -2q92 -432 96 -483q35 70 129 201l205 282q-80 0 -80 58q0 68 86 67h213q82 0 82 -57q0 -68 -86 -68h-57l-459 -626l-94 -375h37q84 0 84 -57q0 -68 -86 -68h-244q-82 0 -82 57q0 68 84 68h66 l94 375l-146 626q-41 0 -59 2t-35.5 15.5t-17.5 40.5zM591 1401q-9 55 50 76l256 88q16 6 39 0l227 -88q53 -20 25.5 -75.5t-80.5 -39.5l-215 68l-234 -68q-59 -16 -68 39z" />
<glyph unicode="&#x177;" d="M164 588q0 23 18.5 70t52 102t93 95t127.5 40q70 0 120 -46t50 -128q0 -45 -45 -162q-84 -227 -84 -319q0 -127 108 -127q53 0 98.5 34.5t75 80.5t59 130t45 140.5t38.5 152.5l38 150q6 25 11.5 37t23 28.5t43.5 16.5q25 0 46.5 -16.5t21.5 -51.5q0 -12 -8 -43l-199 -799 q-39 -158 -167 -299t-292 -141q-92 0 -152.5 55.5t-60.5 143.5q0 43 13.5 72.5t33 41t32.5 14.5t26 3q35 0 59.5 -22.5t24.5 -59.5l-8 -31q-8 -31 -35 -49q16 -43 69 -43q104 0 198.5 111.5t127.5 267.5q-98 -49 -166 -49q-100 0 -173 61.5t-73 192.5q0 113 105 395 q27 66 26 88q0 45 -34 45q-43 0 -81 -50t-63 -130q-6 -23 -11 -32t-20.5 -18.5t-42.5 -9.5q-69 1 -69 58zM505.5 1029q-24.5 50 33.5 83l268 154q35 20 61 0l215 -154q45 -33 6.5 -83t-83.5 -19l-191 127l-229 -127q-56 -31 -80.5 19z" />
<glyph unicode="&#x178;" d="M334 1184q0 68 86 67h213q82 0 82 -57q0 -33 -17.5 -48.5t-36 -17.5t-57.5 -2q92 -432 96 -483q35 70 129 201l205 282q-80 0 -80 58q0 68 86 67h213q82 0 82 -57q0 -68 -86 -68h-57l-459 -626l-94 -375h37q84 0 84 -57q0 -68 -86 -68h-244q-82 0 -82 57q0 68 84 68h66 l94 375l-146 626q-41 0 -59 2t-35.5 15.5t-17.5 40.5zM629 1434q2 35 28.5 62.5t63.5 27.5q33 0 54.5 -20.5t21.5 -55.5q0 -39 -29 -64.5t-61 -25.5q-35 0 -55.5 23.5t-22.5 52.5zM995 1434q2 35 29 62.5t63 27.5q33 0 54.5 -20.5t21.5 -55.5q0 -39 -28.5 -64.5t-61.5 -25.5 q-35 0 -55.5 23.5t-22.5 52.5z" />
<glyph unicode="&#x179;" d="M111 45q0 39 41 84l923 997h-528l-33 -135q-8 -33 -24.5 -45t-47.5 -12q-72 0 -71 57q0 10 6 31l41 166q8 31 20.5 45t24.5 16t41 2h702q72 0 72 -45q0 -43 -37 -80l-928 -1001h561l35 141q14 57 27.5 73.5t54.5 16.5q72 0 72 -57q0 -8 -32 -134t-36 -134 q-16 -31 -75 -31h-738q-71 0 -71 45zM684 1460q0 16 8 28.5t17.5 17.5t29.5 14l305 122q27 10 39 11q27 0 47.5 -18.5t20.5 -49.5q0 -51 -61 -76l-308 -120q-31 -10 -37 -11q-61 0 -61 82z" />
<glyph unicode="&#x17a;" d="M197 45q0 27 55 101.5t131 150.5q78 78 203 184q178 160 217 199q-37 16 -72 37q-63 37 -102 37q-43 0 -84 -36t-60 -91q-6 -18 -10 -26.5t-19.5 -18t-39.5 -9.5q-72 0 -72 58q0 68 85 166t206 98q63 0 158 -61q70 -43 90 -43t53 51q14 25 21.5 34t19.5 14t37 5 q70 0 69 -57q0 -37 -90 -147.5t-268 -264.5q-174 -150 -233 -211q61 -10 118 -41q78 -45 115 -45q57 0 120.5 52t96.5 155q6 18 10 26.5t19.5 17.5t42.5 9q70 0 69 -57q0 -47 -42 -125t-131 -148.5t-191 -70.5q-72 0 -160 61q-63 43 -98 43q-78 0 -125 -69q-23 -35 -68 -35 q-71 0 -71 57zM590 1081q0 16 8 28.5t17.5 18t29.5 13.5l305 123q27 10 39 10q27 0 47.5 -18.5t20.5 -49.5q0 -51 -62 -76l-307 -120q-31 -10 -37 -11q-61 0 -61 82z" />
<glyph unicode="&#x17b;" d="M111 45q0 39 41 84l923 997h-528l-33 -135q-8 -33 -24.5 -45t-47.5 -12q-72 0 -71 57q0 10 6 31l41 166q8 31 20.5 45t24.5 16t41 2h702q72 0 72 -45q0 -43 -37 -80l-928 -1001h561l35 141q14 57 27.5 73.5t54.5 16.5q72 0 72 -57q0 -8 -32 -134t-36 -134 q-16 -31 -75 -31h-738q-71 0 -71 45zM813 1464q0 37 29.5 68t70.5 31q35 0 59.5 -22.5t24.5 -61.5q0 -43 -31.5 -71t-66.5 -28q-41 0 -63.5 25.5t-22.5 58.5z" />
<glyph unicode="&#x17c;" d="M197 45q0 27 55 101.5t131 150.5q78 78 203 184q178 160 217 199q-37 16 -72 37q-63 37 -102 37q-43 0 -84 -36t-60 -91q-6 -18 -10 -26.5t-19.5 -18t-39.5 -9.5q-72 0 -72 58q0 68 85 166t206 98q63 0 158 -61q70 -43 90 -43t53 51q14 25 21.5 34t19.5 14t37 5 q70 0 69 -57q0 -37 -90 -147.5t-268 -264.5q-174 -150 -233 -211q61 -10 118 -41q78 -45 115 -45q57 0 120.5 52t96.5 155q6 18 10 26.5t19.5 17.5t42.5 9q70 0 69 -57q0 -47 -42 -125t-131 -148.5t-191 -70.5q-72 0 -160 61q-63 43 -98 43q-78 0 -125 -69q-23 -35 -68 -35 q-71 0 -71 57zM729 1130q0 37 29.5 68t70.5 31q35 0 59.5 -22.5t24.5 -61.5q0 -43 -31.5 -70.5t-66.5 -27.5q-41 0 -63.5 25t-22.5 58z" />
<glyph unicode="&#x17d;" d="M111 45q0 39 41 84l923 997h-528l-33 -135q-8 -33 -24.5 -45t-47.5 -12q-72 0 -71 57q0 10 6 31l41 166q8 31 20.5 45t24.5 16t41 2h702q72 0 72 -45q0 -43 -37 -80l-928 -1001h561l35 141q14 57 27.5 73.5t54.5 16.5q72 0 72 -57q0 -8 -32 -134t-36 -134 q-16 -31 -75 -31h-738q-71 0 -71 45zM619.5 1525.5q27.5 55.5 80.5 39.5l213 -68l236 68q37 10 56.5 -13.5t9 -56.5t-47.5 -45l-256 -88q-20 -6 -39 0l-227 88q-53 20 -25.5 75.5z" />
<glyph unicode="&#x17e;" d="M197 45q0 27 55 101.5t131 150.5q78 78 203 184q178 160 217 199q-37 16 -72 37q-63 37 -102 37q-43 0 -84 -36t-60 -91q-6 -18 -10 -26.5t-19.5 -18t-39.5 -9.5q-72 0 -72 58q0 68 85 166t206 98q63 0 158 -61q70 -43 90 -43t53 51q14 25 21.5 34t19.5 14t37 5 q70 0 69 -57q0 -37 -90 -147.5t-268 -264.5q-174 -150 -233 -211q61 -10 118 -41q78 -45 115 -45q57 0 120.5 52t96.5 155q6 18 10 26.5t19.5 17.5t42.5 9q70 0 69 -57q0 -47 -42 -125t-131 -148.5t-191 -70.5q-72 0 -160 61q-63 43 -98 43q-78 0 -125 -69q-23 -35 -68 -35 q-71 0 -71 57zM554 1244q40 50 85 20l188 -127l232 127q55 31 78.5 -19.5t-33.5 -83.5l-268 -153q-31 -20 -62 0l-215 153q-45 33 -5 83z" />
<glyph unicode="&#x17f;" d="M92 -317q27 113 103 112q35 0 64.5 -20.5t19.5 -61.5l-13 -49q25 -6 51 -6q119 0 195 434l117 666h-119q-23 0 -38 2t-32.5 15t-11.5 40q0 68 84 68h129l35 143q4 25 13 52l18 54q8 26 27.5 50t43 41.5t63.5 29t91 11.5q119 0 178 -42t59 -108q0 -51 -30.5 -82t-71.5 -31 q-39 0 -66.5 25t-19.5 57l10 45q2 6 -30 9l-33 2q-39 0 -59.5 -12.5t-27.5 -27t-16 -48.5l-184 -1026l-68 -273q-16 -66 -86.5 -142.5t-171 -76.5t-162 41t-61.5 109z" />
<glyph unicode="&#x18e;" d="M61 31q-2 8 29 130t37 132q29 57 100 57q41 0 46.5 -19.5t-11.5 -70.5l-33 -135h545l115 461h-266q-4 -33 -17 -60q-29 -57 -100 -57q-31 0 -42 12.5t-1 48.5l49 203l12 37q29 57 101 57q29 0 38 -9t7 -29.5t-17 -77.5h267l104 415h-500l-37 -135q-29 -57 -100 -57 q-31 0 -41 11t-2 46l43 172q6 20 10 31q29 57 113 57h766q23 0 34 -2t24.5 -17t-9.5 -48q-29 -57 -111 -58h-47l-249 -1001h75q16 0 25.5 -1t25 -7t12.5 -20.5t-12 -39.5q-29 -57 -112 -57h-811q-23 0 -32 1t-18.5 8.5t-9.5 21.5z" />
<glyph unicode="&#x192;" d="M92 -317q0 45 30 78.5t73 33.5q31 0 57.5 -20.5t26.5 -61.5q0 -31 -13 -49q25 -6 51 -6q119 0 195 434l117 666h-119q-82 0 -82 57q0 68 84 68h137l12.5 62.5t4.5 28.5t3 17.5t7 34.5q8 41 13 63.5t23.5 60.5t43 59.5t69.5 38t107 16.5q119 0 178 -42t59 -108 q0 -51 -30.5 -82t-71.5 -31q-35 0 -59.5 24t-24.5 58q0 16 4 29.5t4 15.5q0 10 -63 11q-55 0 -73.5 -20.5t-29.5 -67.5q-6 -23 -32 -168h159q84 0 84 -58q0 -68 -86 -67h-178l-129 -733q-29 -164 -70 -273q-25 -72 -92 -145.5t-166 -73.5q-100 0 -161.5 41t-61.5 109z" />
<glyph unicode="&#x1a0;" d="M188 174q0 123 74 421t123 417q68 164 157 213t314 49q170 0 262 -41q29 -4 47 2q16 4 43 31q-41 25 -41 75q0 45 30 79t81 36q47 -2 69.5 -30.5t22.5 -67.5q0 -27 -6 -55q-10 -39 -64.5 -83t-107.5 -69q8 -27 8 -74q0 -119 -74.5 -422t-130.5 -432q-66 -154 -155.5 -200 t-307.5 -46q-197 0 -270.5 37t-73.5 160zM342 244q0 -80 47 -111t174 -31q162 0 223.5 51.5t116.5 208.5q29 86 86.5 318.5t57.5 329.5q0 86 -46.5 112.5t-177.5 26.5q-160 0 -222 -48t-116 -212q-33 -98 -88 -324.5t-55 -320.5z" />
<glyph unicode="&#x1a1;" d="M258 322q0 66 18 133q45 180 179 307q137 131 288 131q88 0 154 -47l45 4q33 8 55 45q-41 25 -41 76q0 47 28 79.5t83 34.5q47 0 69.5 -28.5t22.5 -69.5q0 -25 -6 -53q-16 -66 -60 -118t-104 -73q43 -82 43 -182q0 -63 -16 -135q-45 -178 -178 -305q-139 -133 -291 -133 q-164 0 -244 147q-45 83 -45 187zM399 317q0 -66 27 -122q43 -82 123 -82q94 0 190 96q102 104 138 246q14 55 14 110q0 70 -27 123q-41 80 -123 80q-94 0 -190 -96q-100 -100 -135 -246q-17 -60 -17 -109z" />
<glyph unicode="&#x1af;" d="M244 309q0 59 16 125l172 692h-45q-82 0 -82 58q0 68 84 67h266q84 0 84 -57q0 -68 -86 -68h-75l-181 -725q-12 -55 -12 -94q0 -94 45 -149.5t119 -55.5q100 0 201.5 95.5t136.5 234.5l172 694h-45q-82 0 -82 58q0 68 84 67h209q14 0 28 15q-39 25 -39 75q0 43 32 78 t77 37q35 -2 64.5 -32.5t29.5 -65.5q0 -18 -8 -55q-33 -127 -145 -170q0 -6 -60 -7l-180 -727q-41 -168 -179 -295t-298 -127q-133 0 -218 94.5t-85 237.5z" />
<glyph unicode="&#x1b0;" d="M162 588l2 14q31 123 102.5 207t169.5 84q70 0 114 -48t44 -120q0 -35 -14 -82q-80 -223 -97 -291q-18 -70 -18 -125q0 -35 10 -69q20 -45 74 -45q86 0 145.5 99t110.5 304q41 162 70.5 246t44 101.5t34.5 17.5q25 0 39 -11q31 10 56 31q-33 27 -33 70q0 47 28.5 79.5 t81.5 34.5q47 0 70 -28.5t23 -69.5q0 -18 -9 -51q-16 -70 -73.5 -122t-128.5 -69l-136 -540q-4 -25 -4 -35q0 -57 37 -57t84 194q4 18 19.5 31.5t35.5 13.5h29l12 -2q45 -10 45 -57l-2 -12v-2q-37 -141 -85 -215t-140 -76q-104 0 -153 88q-88 -88 -203 -88q-145 4 -199 118 q-25 57 -24 125q0 61 20 150q25 90 98 299q10 25 11 51q0 37 -19 37q-39 0 -74.5 -52t-58.5 -143q-10 -43 -55 -43q-37 0 -41 2q-43 11 -43 56z" />
<glyph unicode="&#x1dd;" d="M367 731q0 43 62.5 80t113.5 53q96 31 266 31q53 0 85 -3t83 -25.5t94 -65.5q96 -92 96 -256q0 -219 -161.5 -388t-358.5 -169q-111 0 -182.5 60.5t-71.5 152.5q0 33 8.5 67.5t51.5 89t116 84.5q119 53 349 54h67q29 0 35 7t6 46q0 221 -209 221q-229 0 -334 -94 q-25 -18 -45 -19q-25 0 -48 23.5t-23 50.5zM535 201q0 -39 31.5 -63.5t84.5 -24.5q90 0 187.5 70.5t148.5 187.5h-61q-391 0 -391 -170z" />
<glyph unicode="&#x1e6;" d="M207 420q0 203 91 401.5t239.5 325.5t302.5 127q139 0 223 -94q6 8 19.5 27.5t21.5 29.5q31 37 61.5 37t46 -18.5t15.5 -38.5q0 -10 -6 -29l-76 -305q-14 -61 -74 -62q-72 0 -72 60q6 0 7 65q0 27 -5.5 55.5t-20.5 64.5t-50 59.5t-86 23.5q-109 0 -224.5 -105.5 t-193.5 -278.5t-78 -347q0 -131 53.5 -223.5t153.5 -92.5q96 0 184 90.5t142 235.5h-70q-82 0 -82 57q0 68 86 68h244q82 0 82 -57q0 -33 -16.5 -48.5t-35 -17.5t-59.5 -2l-92 -371q-14 -57 -72 -57q-80 0 -69 74q-117 -96 -252 -97q-154 0 -246 125t-92 318zM619.5 1525.5 q27.5 55.5 80.5 39.5l213 -68l236 68q37 10 56.5 -13.5t9 -56.5t-47.5 -45l-256 -88q-20 -6 -39 0l-227 88q-53 20 -25.5 75.5z" />
<glyph unicode="&#x1e7;" d="M139 -336q0 47 30 78t73 31q37 0 60.5 -24.5t23.5 -57.5q0 -16 -4 -29q35 -4 90 -4q78 0 138 24.5t92 61.5t46 59.5t21 40.5l57 232q-106 -76 -213 -76q-117 0 -194.5 88t-77.5 238q0 213 145 391t322 178q121 0 198 -96q6 29 27.5 47t48.5 18t47.5 -19.5t20.5 -47.5 q0 -10 -9 -41l-227 -916q-12 -45 -41 -93t-79 -99t-136 -83t-190 -32q-51 0 -83 3t-82 13.5t-77 40t-27 74.5zM422 322q0 -84 35 -140.5t98 -56.5q113 0 218.5 144.5t105.5 303.5q0 76 -33 136.5t-103 60.5q-111 0 -216 -142t-105 -306zM587 1244q40 50 85 20l188 -127 l232 127q55 31 78.5 -19.5t-33.5 -83.5l-269 -153q-31 -20 -61 0l-215 153q-45 33 -5 83z" />
<glyph unicode="&#x1ea;" d="M188 174q0 123 74 421t123 417q68 164 157 213t314 49q195 0 269.5 -37t74.5 -160q0 -119 -74.5 -422t-130.5 -432q-66 -154 -155.5 -200t-307.5 -46q-129 -102 -129 -243q0 -39 32 -63.5t67 -24.5q63 0 125 84q10 10 38.5 14t45.5 -4q12 -12 17 -40t-7 -44 q-100 -133 -227 -133q-100 0 -163 67.5t-63 147.5q0 119 152 242q-127 8 -179.5 49t-52.5 145zM342 244q0 -80 47 -111t174 -31q162 0 223.5 51.5t116.5 208.5q29 88 87.5 319.5t58.5 328.5q0 84 -47.5 111.5t-178.5 27.5q-160 0 -222 -48t-116 -212q-33 -98 -88 -324.5 t-55 -320.5z" />
<glyph unicode="&#x1eb;" d="M258 -262q0 70 53.5 142.5t132.5 125.5q-84 35 -134 119t-50 197q0 215 151.5 394t333.5 179q121 0 205 -89t84 -245q0 -221 -152.5 -397t-332.5 -176h-12q-66 -47 -105 -116t-39 -138q0 -39 32 -63.5t67 -24.5q63 0 124 84q10 10 39 14t45 -4q12 -12 17.5 -40t-6.5 -44 q-100 -133 -228 -133q-100 0 -162.5 67.5t-62.5 147.5zM401 317q0 -86 39 -145t113 -59q119 0 230.5 144t111.5 308q0 78 -37 141.5t-115 63.5q-119 0 -230.5 -142.5t-111.5 -310.5z" />
<glyph unicode="&#x1f4;" d="M207 420q0 203 91 401.5t239.5 325.5t302.5 127q139 0 223 -94q6 8 19.5 27.5t21.5 29.5q31 37 61.5 37t46 -18.5t15.5 -38.5q0 -10 -6 -29l-76 -305q-14 -61 -74 -62q-72 0 -72 60q6 0 7 65q0 27 -5.5 55.5t-20.5 64.5t-50 59.5t-86 23.5q-109 0 -224.5 -105.5 t-193.5 -278.5t-78 -347q0 -131 53.5 -223.5t153.5 -92.5q96 0 184 90.5t142 235.5h-70q-82 0 -82 57q0 68 86 68h244q82 0 82 -57q0 -33 -16.5 -48.5t-35 -17.5t-59.5 -2l-92 -371q-14 -57 -72 -57q-80 0 -69 74q-117 -96 -252 -97q-154 0 -246 125t-92 318zM684 1460 q0 16 8 28.5t17.5 17.5t29.5 14l305 122q27 10 39 11q27 0 47.5 -18.5t20.5 -49.5q0 -51 -61 -76l-308 -120q-31 -10 -37 -11q-61 0 -61 82z" />
<glyph unicode="&#x1f5;" d="M139 -336q0 47 30 78t73 31q37 0 60.5 -24.5t23.5 -57.5q0 -16 -4 -29q35 -4 90 -4q78 0 138 24.5t92 61.5t46 59.5t21 40.5l57 232q-106 -76 -213 -76q-117 0 -194.5 88t-77.5 238q0 213 145 391t322 178q121 0 198 -96q6 29 27.5 47t48.5 18t47.5 -19.5t20.5 -47.5 q0 -10 -9 -41l-227 -916q-12 -45 -41 -93t-79 -99t-136 -83t-190 -32q-51 0 -83 3t-82 13.5t-77 40t-27 74.5zM422 322q0 -84 35 -140.5t98 -56.5q113 0 218.5 144.5t105.5 303.5q0 76 -33 136.5t-103 60.5q-111 0 -216 -142t-105 -306zM623 1081q0 16 8 28.5t17 18t30 13.5 l305 123q27 10 39 10q27 0 47.5 -18.5t20.5 -49.5q0 -51 -62 -76l-307 -120q-31 -10 -37 -11q-61 0 -61 82z" />
<glyph unicode="&#x1fa;" d="M70 57l8 27q8 27 31 35q10 6 100 6l522 1083q16 31 38 47.5t38 18.5t49 2q35 0 50.5 -2t28.5 -18.5t13 -51.5l-18 -1079q35 0 53 -2t35.5 -15.5t17.5 -39.5q0 -68 -90 -68h-209q-86 0 -86 57q0 49 39 64q10 4 94 4l4 213h-331l-103 -213q33 0 50.5 -2t35 -15.5 t17.5 -39.5q0 -68 -90 -68h-209q-88 0 -88 57zM518 463h270l27 641l-2 2zM680 1415q0 76 80 140.5t186 64.5q74 0 125 -37t51 -102q0 -78 -79.5 -141.5t-186.5 -63.5q-78 0 -127 41t-49 98zM758 1743q0 16 8 28.5t17.5 17.5t29.5 13l305 123q27 10 39 10q27 0 47.5 -18.5 t20.5 -48.5q0 -51 -62 -76l-307 -121q-31 -10 -37 -10q-61 0 -61 82zM795 1432q0 -27 24.5 -45.5t63.5 -18.5q45 0 85 28.5t40 67.5q0 37 -30 50.5t-58 13.5q-49 0 -87 -29.5t-38 -66.5z" />
<glyph unicode="&#x1fb;" d="M258 303q0 215 137 403.5t301 188.5q98 0 172 -82q6 18 25.5 34.5t46.5 16.5t47.5 -19.5t20.5 -47.5q0 -10 -9 -41l-133 -535q-8 -33 -8 -49q0 -59 43 -59q47 0 80 153q10 37 16.5 51.5t20.5 24.5t43 10q72 0 72 -57q0 -18 -20.5 -85t-47.5 -112q-68 -111 -166 -110 q-49 0 -89 23.5t-55.5 45t-23.5 39.5q-109 -109 -231 -108q-104 0 -173 85t-69 230zM397 295q0 -31 6.5 -68t32 -75.5t66.5 -38.5q96 0 195.5 151.5t99.5 321.5q0 78 -26 131t-79 53q-96 0 -195.5 -153.5t-99.5 -321.5zM614 1147q0 76 80 140.5t187 64.5q74 0 125 -37 t51 -103q0 -78 -80 -141t-186 -63q-78 0 -127.5 41t-49.5 98zM692 1475q0 16 8.5 28.5t17.5 17.5t30 13l305 123q27 10 39 10q27 0 47 -18.5t20 -49.5q0 -51 -61 -75l-307 -121q-31 -10 -37 -10q-62 0 -62 82zM729 1163q0 -27 24.5 -45t63.5 -18q45 0 85 28.5t40 67.5 q0 37 -29.5 50.5t-58.5 13.5q-49 0 -87 -30t-38 -67z" />
<glyph unicode="&#x1fc;" d="M61 57q0 33 16.5 48.5t36 17.5t64.5 2l451 1001q-29 0 -46.5 14.5t-19.5 25t-2 18.5q0 68 86 67h576q84 0 84 -57q0 -6 -7 -31l-43 -172q-14 -57 -59 -57q-25 0 -41 17.5t-16 39.5l30 135h-233l-102 -415h219q84 0 84 -58q0 -68 -86 -67h-250l-115 -461h250l35 137 q8 35 14 50.5t18.5 26.5t34.5 11q25 0 41.5 -17.5t16.5 -39.5q0 -10 -31 -132t-35 -130q-16 -31 -76 -31h-399q-84 0 -84 57q0 31 17.5 47.5t34 18.5t46.5 2l62 250h-225l-113 -250q78 0 78 -57q0 -68 -84 -68h-146q-82 0 -82 57zM463 500h201l157 626h-76zM684 1460 q0 16 8 28.5t17.5 17.5t29.5 14l305 122q27 10 39 11q27 0 47.5 -18.5t20.5 -49.5q0 -51 -61 -76l-308 -120q-31 -10 -37 -11q-61 0 -61 82z" />
<glyph unicode="&#x1fd;" d="M121 223q0 90 57.5 205t145.5 203q119 121 255 194.5t166 73.5q61 0 62 -80q90 76 186 76q84 0 132.5 -57.5t48.5 -139.5q0 -137 -118 -224t-360 -87q-8 -57 -8 -84q0 -37 6 -73.5t35 -76.5t76 -40q131 0 223 92q20 20 43 20q25 0 41 -16t16 -41q0 -51 -108.5 -115.5 t-218.5 -64.5q-119 0 -180 104q-12 -59 -24.5 -81.5t-45.5 -22.5q-55 0 -59 61q-70 -61 -150 -61q-90 0 -155.5 63t-65.5 172zM262 221q0 -59 25.5 -83.5t58.5 -24.5q76 0 166 143q53 88 100 279l50 192q-193 -100 -296.5 -252t-103.5 -254zM590 1081q0 16 8 28.5t17.5 18 t29.5 13.5l305 123q27 10 39 10q27 0 47.5 -18.5t20.5 -49.5q0 -51 -62 -76l-307 -120q-31 -10 -37 -11q-61 0 -61 82zM731 512q326 14 326 180q0 78 -68 78q-63 0 -140 -74.5t-118 -183.5z" />
<glyph unicode="&#x1fe;" d="M188 174q0 123 74 421t123 417q68 164 157 213t314 49q88 0 137 -4l68 116q20 39 55 39q20 0 43 -15t23 -46q0 -16 -64 -123q82 -39 82 -164q0 -119 -74.5 -422t-130.5 -432q-66 -154 -155.5 -200t-307.5 -46q-88 0 -137 5l-49 -88q-18 -31 -26.5 -41.5t-19.5 -18.5 t-28 -8q-18 0 -41.5 14.5t-23.5 46.5q0 16 29 66q4 6 16 29.5t16 29.5q-80 39 -80 162zM317 252q0 -74 31 -102l574 997q-23 2 -97 2q-162 0 -228.5 -38t-117.5 -169q-41 -100 -101.5 -343t-60.5 -347zM467 104q23 -2 96 -2q160 0 227.5 38t118.5 167q41 109 101.5 351.5 t60.5 340.5q0 72 -31 103zM614 1460q0 16 8.5 28.5t17.5 17.5t30 14l305 122q27 10 39 11q27 0 47 -18.5t20 -49.5q0 -51 -61 -76l-307 -120q-31 -10 -37 -11q-62 0 -62 82z" />
<glyph unicode="&#x1ff;" d="M119 -225q0 20 37 69l176 254q-57 94 -58 215q0 223 148.5 405.5t325.5 182.5q55 0 104 -22l16 -7q8 0 19 19l170 246q23 33 55 32q20 0 43 -16t23 -45q0 -16 -19 -43l-196 -283q59 -82 59 -213q0 -219 -148.5 -403t-326.5 -184q-61 0 -121 30l-81 -112l-62 -90l-37 -54 q-14 -18 -20.5 -24t-16.5 -12.5t-25 -6.5q-20 0 -42.5 16.5t-22.5 45.5zM389 319q0 -61 21 -110l389 557q-23 8 -56 8q-127 0 -240.5 -144.5t-113.5 -310.5zM477 1081q0 16 8.5 28.5t17.5 18t29 13.5l306 123q27 10 39 10q27 0 47 -18.5t20 -49.5q0 -51 -61 -76l-308 -120 q-31 -10 -36 -11q-62 0 -62 82zM498 117q18 -8 53 -8q129 0 242.5 145t113.5 309q0 66 -20 111z" />
<glyph unicode="&#x200;" d="M70 57l8 27q8 27 31 35q10 6 100 6l522 1083q16 31 38 47.5t38 18.5t49 2q35 0 50.5 -2t28.5 -18.5t13 -51.5l-18 -1079q35 0 53 -2t35.5 -15.5t17.5 -39.5q0 -68 -90 -68h-209q-86 0 -86 57q0 49 39 64q10 4 94 4l4 213h-331l-103 -213q33 0 50.5 -2t35 -15.5 t17.5 -39.5q0 -68 -90 -68h-209q-88 0 -88 57zM518 463h270l27 641l-2 2zM524 1584q6 32 33 56q29 23 59.5 24t49.5 -19l116 -134q18 -23 12 -53.5t-34 -54.5q-27 -23 -58.5 -24t-50.5 20l-114 133q-19 20 -13 52zM921.5 1584q6.5 32 32.5 56q29 23 59.5 24t49.5 -19 l117 -134q18 -23 12 -53.5t-35 -54.5q-27 -23 -58.5 -24t-49.5 20l-115 133q-19 20 -12.5 52z" />
<glyph unicode="&#x201;" d="M258 303q0 215 137 403.5t301 188.5q98 0 172 -82q6 18 25.5 34.5t46.5 16.5t47.5 -19.5t20.5 -47.5q0 -10 -9 -41l-133 -535q-8 -33 -8 -49q0 -59 43 -59q47 0 80 153q10 37 16.5 51.5t20.5 24.5t43 10q72 0 72 -57q0 -18 -20.5 -85t-47.5 -112q-68 -111 -166 -110 q-49 0 -89 23.5t-55.5 45t-23.5 39.5q-109 -109 -231 -108q-104 0 -173 85t-69 230zM397 295q0 -31 6.5 -68t32 -75.5t66.5 -38.5q96 0 195.5 151.5t99.5 321.5q0 78 -26 131t-79 53q-96 0 -195.5 -153.5t-99.5 -321.5zM487.5 1200q6.5 31 34.5 55q27 23 58.5 24t50.5 -19 l114 -134q16 -20 11.5 -52t-31.5 -56q-29 -23 -59.5 -24t-49.5 20l-116 133q-19 22 -12.5 53zM885 1200q6 31 35 55q27 23 58.5 24t49.5 -19l115 -134q16 -20 11 -52t-32 -56q-29 -23 -59.5 -24t-48.5 20l-117 133q-18 22 -12 53z" />
<glyph unicode="&#x204;" d="M68 57q0 68 86 68h75l250 1001h-47q-82 0 -82 58q0 68 84 67h766q84 0 84 -57q0 -6 -6 -31l-43 -172q-14 -57 -72 -57q-72 0 -71 57l30 135h-499l-103 -415h266q18 80 31.5 98t54.5 18q72 0 72 -57l-6 -37l-51 -203q-14 -61 -74 -61q-72 0 -72 57q0 16 13 60h-267 l-114 -461h545l34 135q14 57 26.5 73.5t53.5 16.5q72 0 72 -57q0 -10 -31 -132t-35 -130q-16 -31 -75 -31h-811q-84 0 -84 57zM584 1584q6 32 32 56q29 23 60 24t49 -19l117 -134q18 -23 12 -53.5t-35 -54.5q-27 -23 -58.5 -24t-49.5 20l-115 133q-18 20 -12 52zM981 1584 q6 32 33 56q29 23 59.5 24t48.5 -19l117 -134q18 -23 12 -53.5t-34 -54.5q-27 -23 -59 -24t-50 20l-115 133q-18 20 -12 52z" />
<glyph unicode="&#x205;" d="M283 338q0 219 161.5 388t358.5 169q111 0 182.5 -60.5t71.5 -152.5q0 -33 -8.5 -67.5t-51.5 -89t-116 -85.5q-119 -53 -349 -53h-67q-29 0 -35 -7t-6 -46q0 -221 209 -221q229 0 334 94q25 18 45 18q25 0 48 -23.5t23 -49.5q0 -43 -62.5 -80t-113.5 -54 q-96 -31 -266 -30q-53 0 -85 3t-83 25.5t-94 65.5q-96 92 -96 256zM463 512h61q391 0 391 170q0 39 -31.5 63.5t-84.5 24.5q-90 0 -187.5 -70.5t-148.5 -187.5zM487.5 1200q6.5 31 34.5 55q27 23 58.5 24t50.5 -19l114 -134q16 -20 11.5 -52t-31.5 -56q-29 -23 -59.5 -24 t-49.5 20l-116 133q-19 22 -12.5 53zM885 1200q6 31 35 55q27 23 58.5 24t49.5 -19l115 -134q16 -20 11 -52t-32 -56q-29 -23 -59.5 -24t-48.5 20l-117 133q-18 22 -12 53z" />
<glyph unicode="&#x208;" d="M176 57q0 68 86 68h236l250 1001h-207q-82 0 -82 58q0 68 84 67h585q84 0 84 -57q0 -68 -86 -68h-235l-250 -1001h207q82 0 82 -57q0 -68 -86 -68h-584q-84 0 -84 57zM584 1584q6 32 32 56q29 23 60 24t49 -19l117 -134q18 -23 12 -53.5t-35 -54.5q-27 -23 -58.5 -24 t-49.5 20l-115 133q-18 20 -12 52zM981 1584q6 32 33 56q29 23 59.5 24t48.5 -19l117 -134q18 -23 12 -53.5t-34 -54.5q-27 -23 -59 -24t-50 20l-115 133q-18 20 -12 52z" />
<glyph unicode="&#x209;" d="M293 588q0 74 94 190.5t231 116.5q84 0 141.5 -51t57.5 -129q0 -37 -37 -129l-49 -123l-65 -164q-45 -119 -45 -131q0 -55 61 -55q49 0 101.5 50t76.5 136q6 18 10 26.5t19.5 17.5t42.5 9q72 0 72 -57q0 -74 -94.5 -190.5t-231.5 -116.5q-84 0 -141.5 50t-57.5 130 q0 39 17 82l170 422q10 31 10 43q0 55 -62 55q-43 0 -95 -43t-85 -145q-8 -27 -22.5 -39.5t-49.5 -12.5q-69 1 -69 58zM487.5 1200q6.5 31 34.5 55q27 23 58.5 24t50.5 -19l114 -134q16 -20 11.5 -52t-31.5 -56q-29 -23 -59.5 -24t-49.5 20l-116 133q-19 22 -12.5 53z M885 1200q6 31 35 55q27 23 58.5 24t49.5 -19l115 -134q16 -20 11 -52t-32 -56q-29 -23 -59.5 -24t-48.5 20l-117 133q-18 22 -12 53z" />
<glyph unicode="&#x20c;" d="M188 174q0 123 74 421t123 417q68 164 157 213t314 49q195 0 269.5 -37t74.5 -160q0 -119 -74.5 -422t-130.5 -432q-66 -154 -155.5 -200t-307.5 -46q-197 0 -270.5 37t-73.5 160zM342 244q0 -80 47 -111t174 -31q162 0 223.5 51.5t116.5 208.5q29 88 87.5 319.5 t58.5 328.5q0 84 -47.5 111.5t-178.5 27.5q-160 0 -222 -48t-116 -212q-33 -98 -88 -324.5t-55 -320.5zM584 1584q6 32 32 56q29 23 60 24t49 -19l117 -134q18 -23 12 -53.5t-35 -54.5q-27 -23 -58.5 -24t-49.5 20l-115 133q-18 20 -12 52zM981 1584q6 32 33 56 q29 23 59.5 24t48.5 -19l117 -134q18 -23 12 -53.5t-34 -54.5q-27 -23 -59 -24t-50 20l-115 133q-18 20 -12 52z" />
<glyph unicode="&#x20d;" d="M260 322q0 215 151.5 394t333.5 179q121 0 205 -89t84 -245q0 -221 -152.5 -397t-332.5 -176q-127 0 -208 95.5t-81 238.5zM401 317q0 -86 39 -145t113 -59q119 0 230.5 144t111.5 308q0 78 -37 141.5t-115 63.5q-119 0 -230.5 -142.5t-111.5 -310.5zM487.5 1200 q6.5 31 34.5 55q27 23 58.5 24t50.5 -19l114 -134q16 -20 11.5 -52t-31.5 -56q-29 -23 -59.5 -24t-49.5 20l-116 133q-19 22 -12.5 53zM885 1200q6 31 35 55q27 23 58.5 24t49.5 -19l115 -134q16 -20 11 -52t-32 -56q-29 -23 -59.5 -24t-48.5 20l-117 133q-18 22 -12 53z " />
<glyph unicode="&#x210;" d="M59 57q0 68 84 68h66l250 1001h-35q-84 0 -84 58q0 68 86 67h377q145 0 233 -76.5t88 -195.5q0 -104 -72.5 -203.5t-189.5 -157.5q78 -78 78 -172q0 -27 -27 -139q-33 -121 -32 -166q0 -39 22 -39q47 0 76 105q8 23 20.5 34t22.5 13t29 2q70 0 69 -57q0 -29 -21.5 -77 t-75.5 -96.5t-122 -48.5q-25 0 -48.5 6.5t-50 24t-44 55t-17.5 93.5q0 57 27 149q31 123 31 141q0 117 -164 117h-172l-111 -438h35q84 0 84 -57q0 -68 -86 -68h-244q-82 0 -82 57zM494 688h147q141 0 239.5 81t98.5 181q0 72 -57.5 124t-171.5 52h-148zM524 1584 q6 32 33 56q29 23 59.5 24t49.5 -19l116 -134q18 -23 12 -53.5t-34 -54.5q-27 -23 -58.5 -24t-50.5 20l-114 133q-19 20 -13 52zM921.5 1584q6.5 32 32.5 56q29 23 59.5 24t49.5 -19l117 -134q18 -23 12 -53.5t-35 -54.5q-27 -23 -58.5 -24t-49.5 20l-115 133 q-19 20 -12.5 52z" />
<glyph unicode="&#x211;" d="M193 588q0 10 12 52t36.5 102.5t78 106.5t120.5 46q66 0 116 -34t71 -85q111 119 264 119q121 0 208 -54.5t87 -152.5q0 -68 -34 -97.5t-71 -29.5q-35 0 -59.5 22.5t-24.5 59.5q0 47 37 78q-45 49 -147 49q-123 0 -221 -170q-82 -152 -164 -475q-20 -84 -35.5 -110.5 t-56.5 -26.5q-27 0 -47.5 19.5t-20.5 47.5q0 10 8 41l139 561q8 31 9 48q0 66 -60 65q-27 0 -47 -29.5t-29.5 -58.5t-21.5 -80q-10 -41 -23.5 -56.5t-54.5 -15.5q-69 1 -69 58zM487.5 1200q6.5 31 34.5 55q27 23 58.5 24t50.5 -19l114 -134q16 -20 11.5 -52t-31.5 -56 q-29 -23 -59.5 -24t-49.5 20l-116 133q-19 22 -12.5 53zM885 1200q6 31 35 55q27 23 58.5 24t49.5 -19l115 -134q16 -20 11 -52t-32 -56q-29 -23 -59.5 -24t-48.5 20l-117 133q-18 22 -12 53z" />
<glyph unicode="&#x214;" d="M244 309q0 59 16 125l172 692h-45q-82 0 -82 58q0 68 84 67h266q84 0 84 -57q0 -68 -86 -68h-75l-181 -725q-12 -55 -12 -94q0 -94 45 -149.5t119 -55.5q100 0 201.5 95.5t136.5 234.5l172 694h-45q-82 0 -82 58q0 68 84 67h266q84 0 84 -57q0 -68 -86 -68h-76l-180 -727 q-41 -168 -179 -295t-298 -127q-133 0 -218 94.5t-85 237.5zM584 1584q6 32 32 56q29 23 60 24t49 -19l117 -134q18 -23 12 -53.5t-35 -54.5q-27 -23 -58.5 -24t-49.5 20l-115 133q-18 20 -12 52zM981 1584q6 32 33 56q29 23 59.5 24t48.5 -19l117 -134q18 -23 12 -53.5 t-34 -54.5q-27 -23 -59 -24t-50 20l-115 133q-18 20 -12 52z" />
<glyph unicode="&#x215;" d="M164 588q0 31 26.5 98.5t94 138t153.5 70.5q66 0 112 -45t46 -125q0 -43 -25 -113q-104 -285 -104 -383q0 -117 86 -116q150 0 240 344l88 354q20 72 75 72q25 0 46.5 -16.5t21.5 -51.5q0 -12 -8 -43l-137 -555q-8 -31 -9 -47q0 -57 35 -57q39 0 80 163q6 23 9 32 t11.5 22.5t21.5 17.5t34 4q72 0 72 -57q0 -16 -19.5 -84t-48.5 -117q-59 -106 -161.5 -106t-151.5 88q-90 -88 -203 -88q-94 0 -158.5 61.5t-64.5 181.5q0 113 110 422q20 57 21 80q0 37 -23 37q-76 0 -127 -180q-6 -20 -10 -30.5t-20.5 -20t-43.5 -9.5q-69 1 -69 58z M487.5 1200q6.5 31 34.5 55q27 23 58.5 24t50.5 -19l114 -134q16 -20 11.5 -52t-31.5 -56q-29 -23 -59.5 -24t-49.5 20l-116 133q-19 22 -12.5 53zM885 1200q6 31 35 55q27 23 58.5 24t49.5 -19l115 -134q16 -20 11 -52t-32 -56q-29 -23 -59.5 -24t-48.5 20l-117 133 q-18 22 -12 53z" />
<glyph unicode="&#x218;" d="M115 35l84 344q14 37 67 37q72 0 72 -58l-4 -18q-8 -45 -8 -64q0 -92 77.5 -133t192.5 -41q131 0 230.5 92.5t99.5 200.5q0 45 -13.5 76t-45 49.5t-54 25.5t-68.5 19l-137 35q-35 8 -60.5 15.5t-69.5 29t-71.5 49t-50 75.5t-22.5 110q0 154 137 274.5t322 120.5 q172 0 270 -98q14 29 35 59q20 39 59 39q31 0 46.5 -18.5t15.5 -38.5q0 -10 -7 -29l-73 -295q-14 -57 -72 -57q-72 0 -72 59q0 4 2 22.5t2 36.5q0 195 -211 195q-125 0 -222 -82t-97 -176q0 -39 15.5 -67.5t47 -45t57 -25t68.5 -18.5l205 -51q86 -27 143.5 -99.5 t57.5 -176.5q0 -158 -138.5 -294.5t-332.5 -136.5q-209 0 -324 97q-4 -6 -18 -33l-17 -29q-23 -35 -57 -35q-31 0 -46 19t-15 39zM303 -426q0 37 39 45q104 29 156 123q-6 -2 -17 -2q-41 0 -62.5 25.5t-21.5 56.5q0 39 32 74.5t81 35.5q41 0 72.5 -29.5t31.5 -88.5 q0 -109 -98 -198t-164 -89q-23 0 -36 17.5t-13 29.5z" />
<glyph unicode="&#x219;" d="M203 186q0 49 20.5 79t41 38t40.5 8q41 0 63.5 -26.5t22.5 -55.5q0 -41 -33 -73q55 -43 195 -43q131 0 217 45q47 25 72.5 65.5t25.5 71.5q0 27 -17 47t-53 33.5t-56 17.5l-58 13q-119 23 -158 34t-77 39q-74 57 -74 144q0 37 17.5 79.5t55 88t115.5 75t182 29.5 q141 0 216 -48t75 -130q0 -57 -29.5 -86t-66.5 -29q-14 0 -30.5 5t-33 24.5t-16.5 50.5q0 37 21 57q-45 31 -140 31q-98 0 -159 -33q-45 -23 -63.5 -56.5t-18.5 -55.5q0 -29 27.5 -47.5t59 -26.5t103.5 -21q41 -6 69.5 -12t77 -24.5t79 -41t54 -63.5t23.5 -92 q0 -66 -41 -132.5t-106 -107.5q-117 -70 -297 -69q-346 -1 -346 198zM303 -426q0 37 39 45q104 29 156 123q-6 -2 -17 -2q-41 0 -62.5 25.5t-21.5 56.5q0 39 32 74.5t81 35.5q41 0 72.5 -29.5t31.5 -88.5q0 -109 -98 -198t-164 -89q-23 0 -36 17.5t-13 29.5z" />
<glyph unicode="&#x21a;" d="M293 57q0 68 84 68h121l250 1001h-271l-33 -135q-8 -33 -24.5 -45t-46.5 -12q-72 0 -72 57q0 10 6 31l41 166q8 31 20.5 45t25 16t40.5 2h803q84 0 84 -57q0 -6 -6 -31l-43 -172q-14 -57 -72 -57q-72 0 -72 57l31 135h-268l-250 -1001h90q84 0 84 -57q0 -68 -86 -68h-354 q-82 0 -82 57zM303 -426q0 37 39 45q104 29 156 123q-6 -2 -17 -2q-41 0 -62.5 25.5t-21.5 56.5q0 39 32 74.5t81 35.5q41 0 72.5 -29.5t31.5 -88.5q0 -109 -98 -198t-164 -89q-23 0 -36 17.5t-13 29.5z" />
<glyph unicode="&#x21b;" d="M303 -426q0 37 39 45q104 29 156 123q-6 -2 -17 -2q-41 0 -62.5 25.5t-21.5 56.5q0 39 32 74.5t81 35.5q41 0 72.5 -29.5t31.5 -88.5q0 -109 -98 -198t-164 -89q-23 0 -36 17.5t-13 29.5zM319 815q0 68 87 68h190l76 307q16 74 78 74q29 0 48 -19.5t19 -48.5 q0 -10 -8 -39l-68 -274h160q84 0 84 -58q0 -68 -86 -67h-190l-131 -529q-8 -31 -9 -47q0 -70 74 -69q66 0 127 53t96 129q10 23 16.5 32t21 17t36.5 8q72 0 72 -57q0 -66 -112 -186.5t-259 -120.5q-96 0 -155.5 57t-59.5 137l137 576h-160q-84 0 -84 57z" />
<glyph unicode="&#x258;" d="M221 152q14 27 49 50t60 23q18 0 37 -18q16 -27 33.5 -43.5t83 -33.5t169.5 -17q209 0 320 221q14 29 16 38t-4 12t-27 3h-67q-231 0 -322 53q-57 31 -73.5 85.5t-7 90t25.5 66.5q45 92 147.5 152.5t212.5 60.5q195 0 272 -167t-30 -390q-82 -162 -225 -256 q-66 -43 -128.5 -65.5t-95 -25.5t-85.5 -3q-168 0 -250 30q-43 14 -87 52.5t-24 81.5zM642 608.5q13 -30.5 38 -49t76 -29t98 -14.5t107 -4h61q6 117 -55.5 187.5t-151.5 70.5q-115 0 -160 -88q-26 -43 -13 -73.5z" />
<glyph unicode="&#x259;" d="M367 731q0 43 62.5 80t113.5 53q96 31 266 31q53 0 85 -3t83 -25.5t94 -65.5q96 -92 96 -256q0 -219 -161.5 -388t-358.5 -169q-111 0 -182.5 60.5t-71.5 152.5q0 33 8.5 67.5t51.5 89t116 84.5q119 53 349 54h67q29 0 35 7t6 46q0 221 -209 221q-229 0 -334 -94 q-25 -18 -45 -19q-25 0 -48 23.5t-23 50.5zM535 201q0 -39 31.5 -63.5t84.5 -24.5q90 0 187.5 70.5t148.5 187.5h-61q-391 0 -391 -170z" />
<glyph unicode="&#x2be;" d="M467 1004q0 35 49 66.5t88 43.5q74 23 197 23q125 0 186 -62q82 -76 82 -196q0 -160 -122 -289t-269 -129q-84 0 -135 43t-49 106q-2 45 23.5 75t64.5 30q29 0 50 -17.5t21 -50.5q-2 -39 -20 -57q18 -14 53 -15q92 0 174 93.5t82 205.5q0 147 -141 148q-166 0 -230 -64 q-27 -16 -43 -16q-20 0 -40.5 21t-20.5 41z" />
<glyph unicode="&#x2bf;" d="M406 719q0 160 121.5 289t269.5 129q84 0 135 -43t51 -107q0 -45 -25.5 -74.5t-64.5 -29.5q-29 0 -49.5 17.5t-22.5 49.5q2 39 21 58q-16 14 -54 14q-92 0 -174 -93t-82 -206q0 -147 142 -148q166 0 229 64q27 16 43 16q20 0 41 -19.5t23 -41.5q-2 -35 -51.5 -66.5 t-88.5 -44.5q-72 -23 -196.5 -22.5t-186.5 61.5q-81 78 -81 197z" />
<glyph unicode="&#x2c6;" d="M505.5 1029q-24.5 50 33.5 83l268 154q35 20 61 0l215 -154q45 -33 6.5 -83t-83.5 -19l-191 127l-229 -127q-56 -31 -80.5 19z" />
<glyph unicode="&#x2c7;" d="M554 1244q40 50 85 20l188 -127l232 127q55 31 78.5 -19.5t-33.5 -83.5l-268 -153q-31 -20 -62 0l-215 153q-45 33 -5 83z" />
<glyph unicode="&#x2d8;" d="M471 1171q0 82 66 82q61 0 61 -77q51 -23 213 -23q238 0 262 51q18 49 62 49q35 0 49 -19.5t14 -37.5q0 -43 -41 -88q-35 -39 -100.5 -59.5t-113.5 -23.5t-134 -3q-49 0 -75.5 1t-74 4t-75 13.5t-57 25.5t-43 41.5t-13.5 63.5z" />
<glyph unicode="&#x2d9;" d="M729 1130q0 37 29.5 68t70.5 31q35 0 59.5 -22.5t24.5 -61.5q0 -43 -31.5 -70.5t-66.5 -27.5q-41 0 -63.5 25t-22.5 58z" />
<glyph unicode="&#x2da;" d="M612 1147q0 76 80 140.5t187 64.5q74 0 125 -37t51 -103q0 -78 -80 -141t-187 -63q-78 0 -127 41t-49 98zM727 1163q0 -27 24.5 -45t63.5 -18q45 0 85 28.5t40 67.5q0 63 -88 64q-49 0 -87 -30t-38 -67z" />
<glyph unicode="&#x2db;" d="M238 -262q0 78 67.5 161t161.5 134h131q-96 -35 -160.5 -121t-64.5 -178q0 -39 31.5 -63.5t66.5 -24.5q63 0 125 84q10 10 39 14t45 -4q12 -12 17 -40t-7 -44q-100 -133 -227 -133q-100 0 -162.5 67.5t-62.5 147.5z" />
<glyph unicode="&#x2dc;" d="M449 1079q0 31 34 54q160 127 256 127q49 0 79 -23t61 -66q18 -25 34 -24q43 0 170 90q33 23 50 23q27 0 45 -21.5t18 -44.5q0 -18 -20.5 -39.5t-38 -34t-62.5 -41.5q-102 -66 -172 -65q-74 0 -137 84q-23 29 -37 28q-51 0 -162 -86q-37 -27 -57 -26q-25 0 -43 19t-18 46 z" />
<glyph unicode="&#x2dd;" d="M458 1073q9 31 38 53l182 134q29 20 59.5 19t46.5 -24q14 -25 5 -55.5t-37 -52.5l-183 -133q-29 -20 -59.5 -19.5t-46.5 23.5q-14 24 -5 55zM855 1073q9 31 38 53l182 134q29 20 59.5 19t47.5 -24q14 -25 5 -55.5t-38 -52.5l-182 -133q-29 -20 -59.5 -19.5t-47.5 23.5 q-14 24 -5 55z" />
<glyph unicode="&#x300;" horiz-adv-x="0" d="M-453 1206q33 68 101 68q10 0 35 -10l243 -123q23 -12 29 -20.5t-4 -39.5q-10 -25 -39 -53.5t-64 -28.5q-6 0 -30 11l-248 120q-50 25 -23 76z" />
<glyph unicode="&#x301;" horiz-adv-x="0" d="M-485 1081q0 16 8 28.5t17 18t30 13.5l305 123q27 10 39 10q27 0 47.5 -18.5t20.5 -49.5q0 -51 -62 -76l-307 -120q-31 -10 -37 -11q-61 0 -61 82z" />
<glyph unicode="&#x302;" horiz-adv-x="0" d="M-569.5 1029q-24.5 50 32.5 83l269 154q35 20 61 0l215 -154q45 -33 6 -83t-84 -19l-190 127l-229 -127q-56 -31 -80.5 19z" />
<glyph unicode="&#x303;" horiz-adv-x="0" d="M-627 1079q0 31 35 54q160 127 256 127q49 0 79 -23t60 -66q18 -25 35 -24q43 0 170 90q33 23 49 23q27 0 45.5 -21.5t18.5 -44.5q0 -18 -20.5 -39.5t-38 -34t-62.5 -41.5q-102 -66 -172 -65q-74 0 -137 84q-23 29 -37 28q-51 0 -162 -86q-37 -27 -57 -26q-25 0 -43.5 19 t-18.5 46z" />
<glyph unicode="&#x304;" horiz-adv-x="0" d="M-643 1130q0 72 86 72h610q82 0 82 -57q0 -72 -86 -72h-610q-82 0 -82 57z" />
<glyph unicode="&#x306;" horiz-adv-x="0" d="M-604 1171q0 82 65 82q61 0 62 -77q51 -23 213 -23q238 0 262 51q18 49 61 49q35 0 49.5 -19.5t14.5 -37.5q0 -43 -41 -88q-35 -39 -100.5 -59.5t-113.5 -23.5t-134 -3q-49 0 -76 1t-74 4t-74.5 13.5t-57.5 25.5t-43 41.5t-13 63.5z" />
<glyph unicode="&#x307;" horiz-adv-x="0" d="M-346 1130q0 37 29.5 68t70.5 31q35 0 59.5 -22.5t24.5 -61.5q0 -43 -31.5 -70.5t-66.5 -27.5q-41 0 -63.5 25t-22.5 58z" />
<glyph unicode="&#x308;" horiz-adv-x="0" d="M-492 1130q0 33 28 62t65 29q31 0 52 -20.5t21 -55.5q2 -39 -27.5 -64.5t-62.5 -25.5q-35 0 -55.5 23t-20.5 52zM-182 1130q0 33 27.5 62t64.5 29q31 0 52.5 -20.5t21.5 -55.5q2 -39 -28 -64.5t-62 -25.5q-35 0 -55.5 23t-20.5 52z" />
<glyph unicode="&#x309;" horiz-adv-x="0" d="M-449 1208l3 6v9q18 68 82.5 108.5t140.5 40.5h6q96 0 147 -39q49 -39 50 -102v-2q0 -12 -5 -33v-2q-18 -70 -92 -104q-115 -53 -131 -109l-8 -37q-4 -18 -20.5 -30.5t-34.5 -12.5l-15 2q-43 10 -43 55l2 15l9 35q29 111 192 186q29 14 29 29l2 8l-4 10q-23 16 -84 16 q-78 0 -107 -51v-6q-2 -2 -2 -7t-2 -9q-4 -8 -16 -21l-2 -2q-14 -12 -37 -12q-20 0 -39 14v2q-21 16 -21 43z" />
<glyph unicode="&#x30a;" horiz-adv-x="0" d="M-463 1147q0 76 80 140.5t186 64.5q74 0 125.5 -37t51.5 -103q0 -78 -80 -141t-187 -63q-78 0 -127 41t-49 98zM-348 1163q0 -27 24.5 -45t63.5 -18q45 0 85 28.5t40 67.5q0 63 -88 64q-49 0 -87 -30t-38 -67z" />
<glyph unicode="&#x30b;" horiz-adv-x="0" d="M-617.5 1073q9.5 31 37.5 53l183 134q29 20 59.5 19t46.5 -24q14 -25 5 -55.5t-38 -52.5l-182 -133q-29 -20 -59.5 -19.5t-46.5 23.5q-15 24 -5.5 55zM-220 1073q9 31 38 53l182 134q29 20 59.5 19t46.5 -24q14 -25 5 -55.5t-37 -52.5l-183 -133q-29 -20 -59.5 -19.5 t-46.5 23.5q-14 24 -5 55z" />
<glyph unicode="&#x30c;" horiz-adv-x="0" d="M-521 1244q40 50 85 20l188 -127l232 127q55 31 78.5 -19.5t-33.5 -83.5l-269 -153q-31 -20 -61 0l-215 153q-45 33 -5 83z" />
<glyph unicode="&#x30f;" horiz-adv-x="0" d="M-588 1200q6 31 35 55q27 23 58.5 24t50.5 -19l114 -134q16 -20 11 -52t-31 -56q-29 -23 -59.5 -24t-49.5 20l-116 133q-19 22 -13 53zM-190.5 1200q6.5 31 34.5 55q27 23 58.5 24t50.5 -19l115 -134q16 -20 11 -52t-32 -56q-29 -23 -59.5 -24t-48.5 20l-117 133 q-19 22 -12.5 53z" />
<glyph unicode="&#x311;" horiz-adv-x="0" d="M-631 1079q0 43 41 88q35 39 100.5 59.5t113.5 23.5t134 3q49 0 76 -1t74 -4t74.5 -13t57.5 -25.5t43 -42t13 -63.5q0 -82 -65 -82q-61 0 -62 78q-51 23 -213 22q-238 0 -262 -51q-18 -49 -61 -49q-35 0 -49.5 19.5t-14.5 37.5z" />
<glyph unicode="&#x323;" horiz-adv-x="0" d="M-711 -326q0 37 30 68t71 31q35 0 59.5 -22.5t24.5 -61.5q0 -43 -32 -71t-67 -28q-41 0 -63.5 25.5t-22.5 58.5z" />
<glyph unicode="&#x326;" horiz-adv-x="0" d="M-772 -426q0 37 39 45q104 29 155 123q-6 -2 -16 -2q-41 0 -62.5 25.5t-21.5 56.5q0 39 32 74.5t81 35.5q41 0 72.5 -29.5t31.5 -88.5q0 -109 -98 -198t-164 -89q-23 0 -36 17.5t-13 29.5z" />
<glyph unicode="&#x32e;" horiz-adv-x="0" d="M-967 -283q0 82 66 82q61 0 61 -78q51 -23 213 -22q238 0 262 51q18 49 62 49q35 0 49 -19.5t14 -37.5q0 -43 -41 -88q-35 -39 -100 -59.5t-113.5 -23.5t-134.5 -3q-49 0 -75.5 1t-73.5 4t-75 13.5t-57.5 25.5t-43 41.5t-13.5 63.5z" />
<glyph unicode="&#x32f;" horiz-adv-x="0" d="M-991 -375q0 43 41 88q35 39 100.5 59.5t113.5 23.5t134 3q49 0 75.5 -1t73.5 -4t75 -13t57.5 -25.5t43 -42t13.5 -63.5q0 -82 -66 -82q-61 0 -61 78q-51 23 -213 22q-238 0 -262 -51q-18 -49 -62 -49q-35 0 -49 19.5t-14 37.5z" />
<glyph unicode="&#x330;" horiz-adv-x="0" d="M-989 -375q0 31 35 53q160 127 256 127q49 0 78.5 -22.5t60.5 -65.5q18 -25 35 -24q43 0 170 90q33 23 49 22q27 0 45 -21.5t18 -43.5q0 -18 -20.5 -40t-37.5 -34t-62 -41q-102 -66 -173 -65q-74 0 -137 84q-23 29 -37 28q-51 0 -161 -86q-37 -27 -58 -26q-25 0 -43 19 t-18 46z" />
<glyph unicode="&#x331;" horiz-adv-x="0" d="M-1006 -324q0 72 86 72h611q82 0 82 -57q0 -72 -86 -72h-611q-82 0 -82 57z" />
<glyph unicode="&#x332;" horiz-adv-x="0" d="M-1006 -324q0 72 86 72h611q82 0 82 -57q0 -72 -86 -72h-611q-82 0 -82 57z" />
<glyph unicode="&#x393;" d="M80 57q0 68 84 68h90l250 1001h-60q-84 0 -84 58q0 68 86 67h771q84 0 83 -57q0 -6 -6 -31l-43 -172q-14 -57 -71 -57q-72 0 -72 57l31 135h-492l-250 -1001h99q84 0 84 -57q0 -68 -86 -68h-332q-82 0 -82 57z" />
<glyph unicode="&#x394;" d="M80 35q0 8 16 41l631 1132q16 31 41 47.5t41 18.5t47 2q59 0 76.5 -14.5t19.5 -71.5l64 -1106l2 -21q0 -29 -16.5 -44t-31 -17t-40.5 -2h-785q-37 0 -51 5t-14 30zM279 137h585l-49 973z" />
<glyph unicode="&#x398;" d="M188 174q0 123 74 421t123 417q68 164 157 213t314 49q195 0 269.5 -37t74.5 -160q0 -119 -74.5 -422t-130.5 -432q-66 -154 -155.5 -200t-307.5 -46q-197 0 -270.5 37t-73.5 160zM342 246q0 -82 42 -113t179 -31q143 0 205.5 38t108.5 153q45 109 107.5 361.5 t62.5 353.5q0 82 -45.5 111.5t-178.5 29.5q-158 0 -218 -47t-111 -189q-31 -84 -91.5 -324.5t-60.5 -342.5zM473 551l6 31l29 116q8 37 25.5 48.5t48.5 11.5q68 0 71 -64h117q6 63 74 64q72 0 71 -58q0 -4 -4 -16q-2 -8 -2 -12l-28 -117q-10 -39 -26.5 -50t-47.5 -11 q-68 0 -72 63h-117q-8 -63 -73 -63q-72 0 -72 57z" />
<glyph unicode="&#x39b;" d="M74 57q0 68 86 68h47l522 1079q23 49 48.5 60.5t68.5 11.5h20q25 0 39.5 -2t29.5 -16.5t15 -43.5l-18 -1013v-76q33 0 49 -2t33.5 -15.5t17.5 -39.5q0 -68 -86 -68h-221q-84 0 -84 57q0 68 86 68h59v55l7 264q8 545 20 656l-2 2q-10 -33 -162 -354l-297 -623 q41 0 59.5 -2t36 -15.5t17.5 -39.5q0 -68 -86 -68h-221q-84 0 -84 57z" />
<glyph unicode="&#x39e;" d="M82 57l24 109q14 51 72 51q72 0 72 -57q0 -8 -6 -27q-2 -8 -2 -12h653q10 61 27.5 78.5t54.5 17.5q72 0 72 -57q0 -2 -27 -109q-8 -35 -26.5 -43t-55.5 -8h-774q-84 0 -84 57zM350 1102q0 8 11.5 52t15.5 54q14 43 80 43h757q84 0 84 -57q0 -8 -22 -98 q-8 -31 -24.5 -41.5t-47.5 -10.5q-72 0 -71 58q0 16 6 28h-637q-2 -31 -11.5 -49t-23.5 -25t-22.5 -9.5t-22.5 -2.5q-72 1 -72 58zM367 575l6 31l28 117q6 29 19.5 42t24 15t30.5 2q47 0 58.5 -18.5t11.5 -52.5h342q4 72 75.5 71.5t71.5 -57.5q0 -4 -30 -127 q-10 -37 -15.5 -50t-20 -21.5t-42.5 -8.5q-35 0 -52.5 15.5t-17.5 29.5v15v12h-342q-6 -72 -76 -72q-71 0 -71 57z" />
<glyph unicode="&#x3a0;" d="M59 57q0 68 84 68h66l250 1001h-35q-84 0 -84 58q0 68 86 67h821q82 0 82 -57q0 -68 -86 -68h-63l-250 -1001h35q84 0 84 -57q0 -68 -86 -68h-244q-82 0 -82 57q0 68 84 68h63l250 1001h-432l-250 -1001h35q84 0 84 -57q0 -68 -86 -68h-244q-82 0 -82 57z" />
<glyph unicode="&#x3a3;" d="M96 57q0 18 25 49l440 531l-174 514l-10 33q0 68 86 67h745q84 0 84 -57q0 -6 -6 -31l-43 -172q-14 -57 -72 -57q-72 0 -71 57l30 135h-583l158 -462q10 -27 10 -37q0 -20 -25 -52l-371 -446h564l28 117q10 45 23.5 60.5t54.5 15.5q70 0 70 -58q0 -16 -39 -166 q-18 -70 -30.5 -84t-63.5 -14h-746q-84 0 -84 57z" />
<glyph unicode="&#x3a5;" d="M326 57q0 68 86 68h86l123 498q76 305 75 401q0 143 -90 143t-135 -155q-18 -68 -86 -68q-59 0 -59 43q0 70 91 178.5t214 108.5q156 0 155 -209l-2 -76h2q109 285 293 285q84 0 131 -56.5t47 -140.5q0 -59 -17 -91t-33.5 -37t-43.5 -5q-59 0 -59 43q0 4 2 12.5t2 12.5 q10 41 10 67q0 88 -67 88q-53 0 -100.5 -51t-78 -130t-45 -124t-22.5 -78l-164 -659h57q82 0 82 -57q0 -68 -86 -68h-284q-84 0 -84 57z" />
<glyph unicode="&#x3a6;" d="M231 573q0 121 129 227.5t338 135.5l50 190h-103q-16 2 -32.5 17.5t-16.5 40.5q0 31 16.5 47t31.5 18t42 2h301q86 0 86 -57q0 -31 -16.5 -47.5t-30.5 -18.5t-41 -2h-94l-47 -192q147 -16 230 -90t83 -166q0 -121 -130 -227.5t-337 -135.5l-49 -190h102q49 -10 50 -57 q0 -68 -91 -68h-301q-88 0 -88 57q0 68 90 68h95l47 192q-158 18 -236 93t-78 163zM377 598q0 -63 59.5 -103t138.5 -53l93 367q-119 -18 -205 -77.5t-86 -133.5zM721 442q109 14 200 73.5t91 137.5q0 61 -59.5 102.5t-139.5 53.5z" />
<glyph unicode="&#x3a8;" d="M307 922q0 68 78 67q121 0 121 -131q0 -43 -17 -106q-20 -96 -20 -144q0 -137 109 -164l170 682q-88 0 -97 2q-43 10 -43 56q0 31 16.5 47t32 18t39.5 2h279q88 0 88 -57q0 -68 -90 -68h-82l-166 -671q59 20 104 59t73 92t39 87t26 85q29 109 71.5 160t118.5 51 q74 0 74 -57q0 -55 -51 -66q-16 -4 -25.5 -10t-24 -34.5t-30.5 -86.5q-98 -369 -412 -420l-47 -190q88 0 96 -2q43 -12 43 -55q0 -31 -16 -47.5t-31.5 -18.5t-42.5 -2h-276q-88 0 -88 57q0 68 90 68h82l47 197q-217 51 -217 288q0 63 18 146q16 68 16 106q-23 4 -39 20.5 t-16 39.5z" />
<glyph unicode="&#x3a9;" d="M80 57q0 14 24 101q14 63 60 63q25 0 41 -17.5t16 -40t-8 -38.5h131q4 41 4 68q0 80 -31 215q-43 195 -43 290q0 133 54.5 246t138.5 182.5t182.5 108.5t192.5 39q156 0 263 -96.5t107 -255.5q0 -82 -39.5 -180.5t-80.5 -162t-109 -157.5q-143 -201 -184 -297h125 q10 51 25.5 73.5t43.5 22.5q25 0 41.5 -17.5t16.5 -39.5q0 -14 -27 -113q-10 -35 -27.5 -43t-54.5 -8h-211q-84 0 -84 57q0 102 221 426q63 92 98 147.5t70 140.5t35 153q0 111 -67.5 168t-163.5 57q-66 0 -137.5 -28.5t-137 -83t-108.5 -146.5t-43 -203q0 -84 32 -248 q27 -141 27 -235q0 -74 -6 -118t-22.5 -61.5t-30 -21.5t-39.5 -4h-211q-84 0 -84 57z" />
<glyph unicode="&#xe3f;" d="M61 57q0 68 86 68h70l250 1001h-41q-82 0 -82 58q0 68 84 67h342l33 127q6 27 29.5 45.5t50 18.5t40 -18.5t7.5 -45.5l-33 -127h8q137 0 210 -71.5t73 -175.5q0 -125 -92 -219.5t-207 -129.5q80 -20 137 -79.5t57 -159.5q0 -150 -133 -283t-315 -133h-51l-31 -127 q-6 -27 -29.5 -45t-50.5 -18t-40 18t-7 45l31 127h-314q-82 0 -82 57zM360 125h129l115 463h-127zM508 713h129l102 413h-129zM616 125h5q135 0 228 85t93 198q0 27 -6 52t-23.5 57t-57.5 51.5t-97 19.5h-27zM764 715q127 14 203.5 97t76.5 165q0 10 -1 21.5t-10 37 t-26.5 44t-54.5 32.5t-86 14z" />
<glyph unicode="&#x1e0c;" d="M53 57q0 68 86 68h60l250 1001q-41 0 -60.5 2t-36 15.5t-16.5 40.5q0 68 84 67h438q88 0 153.5 -38.5t100.5 -103.5t50.5 -133.5t15.5 -141.5q0 -199 -88.5 -392.5t-235.5 -317.5t-307 -124h-410q-84 0 -84 57zM238 -326q0 37 29.5 68t70.5 31q35 0 59.5 -22.5 t24.5 -61.5q0 -43 -32 -71t-66 -28q-41 0 -63.5 25.5t-22.5 58.5zM342 125h197q131 0 246.5 104.5t181 260t65.5 309.5q0 41 -7 84t-28.5 104.5t-75 100t-133.5 38.5h-196z" />
<glyph unicode="&#x1e0d;" d="M258 303q0 215 137 403.5t301 188.5q98 0 172 -82l78 313h-90q-84 0 -84 58q0 68 86 67h166q84 0 84 -57q0 -4 -6 -35l-236 -938q-8 -33 -8 -49q0 -59 43 -59q47 0 80 153q10 37 16.5 51.5t20.5 24.5t43 10q72 0 72 -57q0 -18 -20.5 -85t-47.5 -112q-68 -111 -166 -110 q-49 0 -89 23.5t-55.5 45t-23.5 39.5q-109 -109 -231 -108q-104 0 -173 85t-69 230zM365 -326q0 37 29.5 68t70.5 31q35 0 59.5 -22.5t24.5 -61.5q0 -43 -32 -71t-66 -28q-41 0 -63.5 25.5t-22.5 58.5zM397 295q0 -31 6.5 -68t32 -75.5t66.5 -38.5q96 0 195.5 151.5 t99.5 321.5q0 78 -26 131t-79 53q-96 0 -195.5 -153.5t-99.5 -321.5z" />
<glyph unicode="&#x1e0e;" d="M-57 -324q0 72 86 72h610q82 0 82 -57q0 -72 -86 -72h-610q-82 0 -82 57zM53 57q0 68 86 68h60l250 1001q-41 0 -60.5 2t-36 15.5t-16.5 40.5q0 68 84 67h438q88 0 153.5 -38.5t100.5 -103.5t50.5 -133.5t15.5 -141.5q0 -199 -88.5 -392.5t-235.5 -317.5t-307 -124h-410 q-84 0 -84 57zM342 125h197q131 0 246.5 104.5t181 260t65.5 309.5q0 41 -7 84t-28.5 104.5t-75 100t-133.5 38.5h-196z" />
<glyph unicode="&#x1e0f;" d="M70 -324q0 72 86 72h610q82 0 82 -57q0 -72 -86 -72h-610q-82 0 -82 57zM258 303q0 215 137 403.5t301 188.5q98 0 172 -82l78 313h-90q-84 0 -84 58q0 68 86 67h166q84 0 84 -57q0 -4 -6 -35l-236 -938q-8 -33 -8 -49q0 -59 43 -59q47 0 80 153q10 37 16.5 51.5 t20.5 24.5t43 10q72 0 72 -57q0 -18 -20.5 -85t-47.5 -112q-68 -111 -166 -110q-49 0 -89 23.5t-55.5 45t-23.5 39.5q-109 -109 -231 -108q-104 0 -173 85t-69 230zM397 295q0 -31 6.5 -68t32 -75.5t66.5 -38.5q96 0 195.5 151.5t99.5 321.5q0 78 -26 131t-79 53 q-96 0 -195.5 -153.5t-99.5 -321.5z" />
<glyph unicode="&#x1e24;" d="M59 57q0 68 84 68h66l250 1001h-35q-84 0 -84 58q0 68 86 67h244q82 0 82 -57q0 -68 -86 -68h-64l-102 -413h432l102 413q-43 0 -62.5 2t-36.5 15.5t-17 40.5q0 68 86 67h243q82 0 82 -57q0 -68 -86 -68h-63l-250 -1001h35q84 0 84 -57q0 -68 -86 -68h-244q-82 0 -82 57 q0 68 84 68h63l117 463h-432l-117 -463h35q84 0 84 -57q0 -68 -86 -68h-244q-82 0 -82 57zM365 -326q0 37 29.5 68t70.5 31q35 0 59.5 -22.5t24.5 -61.5q0 -43 -32 -71t-66 -28q-41 0 -63.5 25.5t-22.5 58.5z" />
<glyph unicode="&#x1e25;" d="M180 55q0 12 8 41l258 1030h-92q-84 0 -84 58q0 68 86 67h166q84 0 84 -57q0 -4 -6 -35l-86 -344q96 80 229 80q100 0 162 -56.5t62 -164.5q0 -111 -115 -430q-25 -61 -25 -88q0 -43 29 -43q35 0 72 47t59 127q6 25 11.5 36t20.5 20t42 9q72 0 72 -57q0 -20 -17.5 -66.5 t-49.5 -101.5t-90 -97t-126 -42q-72 0 -118 48t-46 124q0 41 23 100q117 322 116.5 416t-84.5 94q-57 0 -105 -27.5t-88 -85t-69.5 -113t-59.5 -148.5t-46 -151l-43 -159q-8 -33 -14.5 -50.5t-24 -32.5t-44 -15t-47 19t-20.5 48zM344 -326q0 37 29.5 68t70.5 31 q35 0 59.5 -22.5t24.5 -61.5q0 -43 -31.5 -71t-66.5 -28q-41 0 -63.5 25.5t-22.5 58.5z" />
<glyph unicode="&#x1e26;" d="M59 57q0 68 84 68h66l250 1001h-35q-84 0 -84 58q0 68 86 67h244q82 0 82 -57q0 -68 -86 -68h-64l-102 -413h432l102 413q-43 0 -62.5 2t-36.5 15.5t-17 40.5q0 68 86 67h243q82 0 82 -57q0 -68 -86 -68h-63l-250 -1001h35q84 0 84 -57q0 -68 -86 -68h-244q-82 0 -82 57 q0 68 84 68h63l117 463h-432l-117 -463h35q84 0 84 -57q0 -68 -86 -68h-244q-82 0 -82 57zM629 1434q2 35 28.5 62.5t63.5 27.5q33 0 54.5 -20.5t21.5 -55.5q0 -39 -29 -64.5t-61 -25.5q-35 0 -55.5 23.5t-22.5 52.5zM995 1434q2 35 29 62.5t63 27.5q33 0 54.5 -20.5 t21.5 -55.5q0 -39 -28.5 -64.5t-61.5 -25.5q-35 0 -55.5 23.5t-22.5 52.5z" />
<glyph unicode="&#x1e27;" d="M180 55q0 12 8 41l258 1030h-92q-84 0 -84 58q0 68 86 67h166q84 0 84 -57q0 -4 -6 -35l-86 -344q96 80 229 80q100 0 162 -56.5t62 -164.5q0 -111 -115 -430q-25 -61 -25 -88q0 -43 29 -43q35 0 72 47t59 127q6 25 11.5 36t20.5 20t42 9q72 0 72 -57q0 -20 -17.5 -66.5 t-49.5 -101.5t-90 -97t-126 -42q-72 0 -118 48t-46 124q0 41 23 100q117 322 116.5 416t-84.5 94q-57 0 -105 -27.5t-88 -85t-69.5 -113t-59.5 -148.5t-46 -151l-43 -159q-8 -33 -14.5 -50.5t-24 -32.5t-44 -15t-47 19t-20.5 48zM629 1434q2 35 28.5 62.5t63.5 27.5 q33 0 54.5 -20.5t21.5 -55.5q0 -39 -29 -64.5t-61 -25.5q-35 0 -55.5 23.5t-22.5 52.5zM995 1434q2 35 29 62.5t63 27.5q33 0 54.5 -20.5t21.5 -55.5q0 -39 -28.5 -64.5t-61.5 -25.5q-35 0 -55.5 23.5t-22.5 52.5z" />
<glyph unicode="&#x1e2a;" d="M59 57q0 68 84 68h66l250 1001h-35q-84 0 -84 58q0 68 86 67h244q82 0 82 -57q0 -68 -86 -68h-64l-102 -413h432l102 413q-43 0 -62.5 2t-36.5 15.5t-17 40.5q0 68 86 67h243q82 0 82 -57q0 -68 -86 -68h-63l-250 -1001h35q84 0 84 -57q0 -68 -86 -68h-244q-82 0 -82 57 q0 68 84 68h63l117 463h-432l-117 -463h35q84 0 84 -57q0 -68 -86 -68h-244q-82 0 -82 57zM109 -283q0 82 65 82q61 0 62 -78q51 -23 213 -22q238 0 262 51q18 49 61 49q35 0 49.5 -19.5t14.5 -37.5q0 -43 -41 -88q-35 -39 -100.5 -59.5t-114 -23.5t-134.5 -3q-49 0 -75.5 1 t-73.5 4t-74.5 13.5t-57.5 25.5t-43 41.5t-13 63.5z" />
<glyph unicode="&#x1e2b;" d="M88 -283q0 82 66 82q61 0 61 -78q51 -23 213 -22q238 0 262 51q18 49 62 49q35 0 49 -19.5t14 -37.5q0 -43 -41 -88q-35 -39 -100.5 -59.5t-113.5 -23.5t-134 -3q-49 0 -75.5 1t-74 4t-75 13.5t-57 25.5t-43 41.5t-13.5 63.5zM180 55q0 12 8 41l258 1030h-92 q-84 0 -84 58q0 68 86 67h166q84 0 84 -57q0 -4 -6 -35l-86 -344q96 80 229 80q100 0 162 -56.5t62 -164.5q0 -111 -115 -430q-25 -61 -25 -88q0 -43 29 -43q35 0 72 47t59 127q6 25 11.5 36t20.5 20t42 9q72 0 72 -57q0 -20 -17.5 -66.5t-49.5 -101.5t-90 -97t-126 -42 q-72 0 -118 48t-46 124q0 41 23 100q117 322 116.5 416t-84.5 94q-57 0 -105 -27.5t-88 -85t-69.5 -113t-59.5 -148.5t-46 -151l-43 -159q-8 -33 -14.5 -50.5t-24 -32.5t-44 -15t-47 19t-20.5 48z" />
<glyph unicode="&#x1e36;" d="M80 57q0 68 84 68h90l250 1001h-60q-84 0 -84 58q0 68 86 67h332q82 0 82 -57q0 -68 -84 -68h-129l-250 -1001h492l35 135q14 57 26.5 73.5t53.5 16.5q72 0 71 -57q0 -8 -30.5 -132t-34.5 -130q-16 -31 -76 -31h-772q-82 0 -82 57zM365 -326q0 37 29.5 68t70.5 31 q35 0 59.5 -22.5t24.5 -61.5q0 -43 -32 -71t-66 -28q-41 0 -63.5 25.5t-22.5 58.5z" />
<glyph unicode="&#x1e37;" d="M365 -326q0 37 29.5 68t70.5 31q35 0 59.5 -22.5t24.5 -61.5q0 -43 -32 -71t-66 -28q-41 0 -63.5 25.5t-22.5 58.5zM401 1184q0 68 86 67h263q84 0 84 -57q0 -4 -7 -35l-233 -930q-8 -29 -8 -41q0 -31 27.5 -50t49 -22t35.5 -3q88 0 142 186q14 53 69 53q72 0 72 -57 q0 -18 -16.5 -63.5t-47 -101.5t-90 -99t-131.5 -43q-94 0 -173 50t-79 148q0 29 9 62l219 878h-187q-84 1 -84 58z" />
<glyph unicode="&#x1e38;" d="M80 57q0 68 84 68h90l250 1001h-60q-84 0 -84 58q0 68 86 67h332q82 0 82 -57q0 -68 -84 -68h-129l-250 -1001h492l35 135q14 57 26.5 73.5t53.5 16.5q72 0 71 -57q0 -8 -30.5 -132t-34.5 -130q-16 -31 -76 -31h-772q-82 0 -82 57zM291 1456q0 72 86 72h610q82 0 82 -58 q0 -72 -86 -71h-610q-82 0 -82 57zM365 -326q0 37 29.5 68t70.5 31q35 0 59.5 -22.5t24.5 -61.5q0 -43 -32 -71t-66 -28q-41 0 -63.5 25.5t-22.5 58.5z" />
<glyph unicode="&#x1e39;" d="M365 -326q0 37 29.5 68t70.5 31q35 0 59.5 -22.5t24.5 -61.5q0 -43 -32 -71t-66 -28q-41 0 -63.5 25.5t-22.5 58.5zM371 1456q0 72 86 72h610q82 0 82 -58q0 -72 -86 -71h-610q-82 0 -82 57zM401 1184q0 68 86 67h263q84 0 84 -57q0 -4 -7 -35l-233 -930q-8 -29 -8 -41 q0 -31 27.5 -50t49 -22t35.5 -3q88 0 142 186q14 53 69 53q72 0 72 -57q0 -18 -16.5 -63.5t-47 -101.5t-90 -99t-131.5 -43q-94 0 -173 50t-79 148q0 29 9 62l219 878h-187q-84 1 -84 58z" />
<glyph unicode="&#x1e42;" d="M49 57q0 68 86 68h39l250 1001q-94 0 -94 58q0 68 86 67h57q98 0 125 -7t33 -44q2 -6 24.5 -275.5t22.5 -359.5h2q39 82 143 260l213 365q37 61 121 61h98q84 0 84 -57q0 -68 -86 -68h-39l-249 -1001q27 0 42 -2t32.5 -15.5t17.5 -39.5q0 -68 -84 -68h-168q-82 0 -82 57 q0 68 86 68h37l241 967h-2q-63 -125 -102 -189l-246 -422q-16 -27 -39.5 -43t-38.5 -18l-16 -2q-41 0 -52 25.5t-18 107.5l-16 184q-20 272 -20 330v33h-2l-244 -973q27 0 42 -2t32.5 -15.5t17.5 -39.5q0 -68 -84 -68h-168q-82 0 -82 57zM365 -326q0 37 29.5 68t70.5 31 q35 0 59.5 -22.5t24.5 -61.5q0 -43 -32 -71t-66 -28q-41 0 -63.5 25.5t-22.5 58.5z" />
<glyph unicode="&#x1e43;" d="M104 45q0 12 37 151.5t68 231.5l18 59l82 332q16 63 62 64q10 0 19 -3t22.5 -17.5t15.5 -37.5q84 70 178 70q125 0 162 -123q104 123 231 123q72 0 121 -50t49 -149q0 -100 -84 -344q-49 -139 -49 -186q0 -37 23 -41q53 -6 53 -57q0 -23 -14.5 -45.5t-48.5 -22.5 q-10 0 -24.5 3t-42.5 15.5t-45 48t-17 89.5q0 72 38 180q94 268 95 352q0 82 -56 82q-43 0 -83 -32.5t-73.5 -96t-60 -123t-53.5 -149.5t-39 -137l-31 -119q-23 -88 -35 -106.5t-53 -18.5q-72 0 -71 57q0 14 36.5 154.5t69.5 236.5q55 195 55 252q0 82 -55 82 q-43 0 -83 -32.5t-73.5 -96t-60.5 -123t-53.5 -149.5t-38.5 -137l-31 -119q-23 -88 -35 -106.5t-53 -18.5q-72 0 -72 57zM365 -326q0 37 29.5 68t70.5 31q35 0 59.5 -22.5t24.5 -61.5q0 -43 -32 -71t-66 -28q-41 0 -63.5 25.5t-22.5 58.5z" />
<glyph unicode="&#x1e44;" d="M72 57q0 68 84 68h65l250 1001h-35q-84 0 -84 58q0 68 86 67h82q109 0 133.5 -10t30.5 -65l123 -1018h2l240 968q-43 0 -62.5 2t-37 15.5t-17.5 40.5q0 68 86 67h217q82 0 82 -57q0 -68 -86 -68h-64l-264 -1063q-8 -31 -21.5 -45t-24.5 -16t-40 -2h-20q-31 0 -49.5 4 t-26.5 17.5t-10 22.5t-6 32l-123 1018h-2l-242 -969h35q84 0 84 -57q0 -68 -86 -68h-217q-82 0 -82 57zM807 1442q0 37 29.5 67.5t70.5 30.5q35 0 59.5 -22.5t24.5 -61.5q0 -43 -31.5 -70.5t-66.5 -27.5q-41 0 -63.5 25.5t-22.5 58.5z" />
<glyph unicode="&#x1e45;" d="M164 588q0 18 19.5 85.5t41.5 110.5q59 111 162 111q117 0 156 -113q113 113 248 113q94 0 148 -57.5t54 -155.5q0 -109 -106 -414q-35 -100 -35 -123q0 -33 18 -32q68 0 117 174q6 23 11.5 34t20.5 21t42 10q72 0 72 -57q0 -29 -25 -95.5t-90.5 -139t-151.5 -72.5 q-68 0 -110.5 46t-42.5 120q0 43 22 110q117 328 117 420q0 86 -66 86q-119 0 -217 -184q-76 -150 -153 -461q-20 -84 -35.5 -110.5t-56.5 -26.5q-27 0 -47.5 19.5t-20.5 47.5q0 12 8 41l144 572q6 25 6 49q0 51 -27 51q-23 0 -44 -56.5t-30 -99.5q-8 -35 -14 -48 t-21.5 -23.5t-44.5 -10.5q-69 1 -69 58zM729 1130q0 37 29.5 68t70.5 31q35 0 59.5 -22.5t24.5 -61.5q0 -43 -31.5 -70.5t-66.5 -27.5q-41 0 -63.5 25t-22.5 58z" />
<glyph unicode="&#x1e46;" d="M72 57q0 68 84 68h65l250 1001h-35q-84 0 -84 58q0 68 86 67h82q109 0 133.5 -10t30.5 -65l123 -1018h2l240 968q-43 0 -62.5 2t-37 15.5t-17.5 40.5q0 68 86 67h217q82 0 82 -57q0 -68 -86 -68h-64l-264 -1063q-8 -31 -21.5 -45t-24.5 -16t-40 -2h-20q-31 0 -49.5 4 t-26.5 17.5t-10 22.5t-6 32l-123 1018h-2l-242 -969h35q84 0 84 -57q0 -68 -86 -68h-217q-82 0 -82 57zM365 -326q0 37 29.5 68t70.5 31q35 0 59.5 -22.5t24.5 -61.5q0 -43 -32 -71t-66 -28q-41 0 -63.5 25.5t-22.5 58.5z" />
<glyph unicode="&#x1e47;" d="M164 588q0 18 19.5 85.5t41.5 110.5q59 111 162 111q117 0 156 -113q113 113 248 113q94 0 148 -57.5t54 -155.5q0 -109 -106 -414q-35 -100 -35 -123q0 -33 18 -32q68 0 117 174q6 23 11.5 34t20.5 21t42 10q72 0 72 -57q0 -29 -25 -95.5t-90.5 -139t-151.5 -72.5 q-68 0 -110.5 46t-42.5 120q0 43 22 110q117 328 117 420q0 86 -66 86q-119 0 -217 -184q-76 -150 -153 -461q-20 -84 -35.5 -110.5t-56.5 -26.5q-27 0 -47.5 19.5t-20.5 47.5q0 12 8 41l144 572q6 25 6 49q0 51 -27 51q-23 0 -44 -56.5t-30 -99.5q-8 -35 -14 -48 t-21.5 -23.5t-44.5 -10.5q-69 1 -69 58zM365 -326q0 37 29.5 68t70.5 31q35 0 59.5 -22.5t24.5 -61.5q0 -43 -32 -71t-66 -28q-41 0 -63.5 25.5t-22.5 58.5z" />
</font>
</defs>
</svg>
